<?xml version="1.0" encoding="UTF-8" standalone="no"?>
<!DOCTYPE svg PUBLIC "-//W3C//DTD SVG 1.1//EN"
 "http://www.w3.org/Graphics/SVG/1.1/DTD/svg11.dtd">
<!-- Generated by graphviz version 2.38.0 (20140413.2041)
 -->
<!-- Title: State transitions of Tokenizer Pages: 1 -->
<svg width="1378pt" height="1101pt"
 viewBox="0.00 0.00 1378.02 1101.00" xmlns="http://www.w3.org/2000/svg" xmlns:xlink="http://www.w3.org/1999/xlink">
<g id="graph0" class="graph" transform="scale(1 1) rotate(0) translate(4 1097)">
<title>State transitions of Tokenizer</title>
<polygon fill="white" stroke="none" points="-4,4 -4,-1097 1374.02,-1097 1374.02,4 -4,4"/>
<!-- n00 -->
<g id="node1" class="node"><title>n00</title>
<ellipse fill="black" stroke="black" cx="882.503" cy="-959" rx="1.8" ry="1.8"/>
</g>
<!-- n15 -->
<g id="node16" class="node"><title>n15</title>
<ellipse fill="none" stroke="black" cx="1245.23" cy="-891" rx="52.7911" ry="18"/>
<text text-anchor="middle" x="1245.23" y="-887.3" font-family="Times New Roman,serif" font-size="14.00">OtherChars</text>
</g>
<!-- n00&#45;&gt;n15 -->
<g id="edge1" class="edge"><title>n00&#45;&gt;n15</title>
<path fill="none" stroke="black" d="M884.914,-959.046C898.839,-959.471 1013.03,-962.267 1102.44,-943 1137.52,-935.441 1175.62,-921.102 1203.48,-909.393"/>
<polygon fill="black" stroke="black" points="1205.06,-912.522 1212.89,-905.376 1202.32,-906.084 1205.06,-912.522"/>
</g>
<!-- n01 -->
<g id="node2" class="node"><title>n01</title>
<ellipse fill="none" stroke="black" cx="80.5928" cy="-491" rx="54.6905" ry="18"/>
<text text-anchor="middle" x="80.5928" y="-487.3" font-family="Times New Roman,serif" font-size="14.00">SpaceChars</text>
</g>
<!-- n01&#45;&gt;n01 -->
<g id="edge2" class="edge"><title>n01&#45;&gt;n01</title>
<path fill="none" stroke="black" d="M55.8464,-507.29C49.8792,-517.389 58.128,-527 80.5928,-527 94.9844,-527 103.542,-523.056 106.265,-517.566"/>
<polygon fill="black" stroke="black" points="109.722,-516.936 105.339,-507.29 102.75,-517.564 109.722,-516.936"/>
<text text-anchor="middle" x="80.5928" y="-530.8" font-family="Times New Roman,serif" font-size="14.00">WHITESPACE</text>
</g>
<!-- n02 -->
<g id="node3" class="node"><title>n02</title>
<ellipse fill="none" stroke="black" cx="348.93" cy="-491" rx="61.99" ry="18"/>
<text text-anchor="middle" x="348.93" y="-487.3" font-family="Times New Roman,serif" font-size="14.00">NumberChars</text>
</g>
<!-- n01&#45;&gt;n02 -->
<g id="edge3" class="edge"><title>n01&#45;&gt;n02</title>
<path fill="none" stroke="black" d="M135.49,-491C176.244,-491 232.571,-491 276.986,-491"/>
<polygon fill="black" stroke="black" points="277.135,-494.5 287.135,-491 277.135,-487.5 277.135,-494.5"/>
<text text-anchor="middle" x="224.186" y="-494.8" font-family="Times New Roman,serif" font-size="14.00">NUMBER</text>
</g>
<!-- n03 -->
<g id="node4" class="node"><title>n03</title>
<ellipse fill="none" stroke="black" cx="590.62" cy="-491" rx="53.8905" ry="18"/>
<text text-anchor="middle" x="590.62" y="-487.3" font-family="Times New Roman,serif" font-size="14.00">AlphaChars</text>
</g>
<!-- n01&#45;&gt;n03 -->
<g id="edge4" class="edge"><title>n01&#45;&gt;n03</title>
<path fill="none" stroke="black" d="M116.937,-504.661C157.366,-519.494 225.9,-542.24 287.186,-551 341.517,-558.766 356.507,-559.839 410.675,-551 459.153,-543.089 512.215,-523.869 547.87,-509.298"/>
<polygon fill="black" stroke="black" points="549.552,-512.389 557.447,-505.324 546.869,-505.924 549.552,-512.389"/>
<text text-anchor="middle" x="348.93" y="-561.8" font-family="Times New Roman,serif" font-size="14.00">ALPHA</text>
</g>
<!-- n05 -->
<g id="node6" class="node"><title>n05</title>
<ellipse fill="none" stroke="black" cx="882.503" cy="-519" rx="131.877" ry="18"/>
<text text-anchor="middle" x="882.503" y="-515.3" font-family="Times New Roman,serif" font-size="14.00">PossibleSingleLineCommentStart</text>
</g>
<!-- n01&#45;&gt;n05 -->
<g id="edge7" class="edge"><title>n01&#45;&gt;n05</title>
<path fill="none" stroke="black" d="M107.009,-475.216C126.094,-464.263 153.288,-450.514 179.186,-444 417.711,-383.999 534.782,-302.794 732.565,-449 749.556,-461.56 734.26,-479.563 750.565,-493 755.612,-497.159 761.138,-500.717 766.975,-503.756"/>
<polygon fill="black" stroke="black" points="765.835,-507.086 776.379,-508.117 768.779,-500.735 765.835,-507.086"/>
<text text-anchor="middle" x="473.675" y="-379.8" font-family="Times New Roman,serif" font-size="14.00">&#45;</text>
</g>
<!-- n06 -->
<g id="node7" class="node"><title>n06</title>
<ellipse fill="none" stroke="black" cx="1245.23" cy="-53" rx="77.1866" ry="18"/>
<text text-anchor="middle" x="1245.23" y="-49.3" font-family="Times New Roman,serif" font-size="14.00">PossibleLinebreak</text>
</g>
<!-- n01&#45;&gt;n06 -->
<g id="edge8" class="edge"><title>n01&#45;&gt;n06</title>
<path fill="none" stroke="black" d="M81.2104,-472.688C80.875,-412.222 87.2891,-215.925 179.186,-95 231.26,-26.4758 261.864,-0 347.93,-0 347.93,-0 347.93,-0 883.503,-0 988.695,-0 1109.33,-22.3343 1181.02,-38.0061"/>
<polygon fill="black" stroke="black" points="1180.29,-41.4281 1190.81,-40.1702 1181.8,-34.5933 1180.29,-41.4281"/>
<text text-anchor="middle" x="590.62" y="-3.8" font-family="Times New Roman,serif" font-size="14.00">\r</text>
</g>
<!-- n07 -->
<g id="node8" class="node"><title>n07</title>
<ellipse fill="none" stroke="black" cx="1245.23" cy="-125" rx="98.5829" ry="18"/>
<text text-anchor="middle" x="1245.23" y="-121.3" font-family="Times New Roman,serif" font-size="14.00">PossibleCharacterLiteral</text>
</g>
<!-- n01&#45;&gt;n07 -->
<g id="edge5" class="edge"><title>n01&#45;&gt;n07</title>
<path fill="none" stroke="black" d="M84.0884,-472.901C96.2084,-393.026 156.378,-76 347.93,-76 347.93,-76 347.93,-76 698.565,-76 861.197,-76 1050,-97.8589 1157.47,-112.377"/>
<polygon fill="black" stroke="black" points="1157.23,-115.877 1167.61,-113.758 1158.18,-108.941 1157.23,-115.877"/>
<text text-anchor="middle" x="590.62" y="-79.8" font-family="Times New Roman,serif" font-size="14.00">&#39;</text>
</g>
<!-- n08 -->
<g id="node9" class="node"><title>n08</title>
<ellipse fill="none" stroke="black" cx="1245.23" cy="-389" rx="102.882" ry="18"/>
<text text-anchor="middle" x="1245.23" y="-385.3" font-family="Times New Roman,serif" font-size="14.00">PossibleStringLiteralStart</text>
</g>
<!-- n01&#45;&gt;n08 -->
<g id="edge6" class="edge"><title>n01&#45;&gt;n08</title>
<path fill="none" stroke="black" d="M100.173,-473.884C118.954,-457.296 149.383,-432.315 179.186,-416 223.95,-391.493 237.486,-388.592 287.186,-377 603.163,-303.299 993.905,-349.009 1161.53,-374.847"/>
<polygon fill="black" stroke="black" points="1161.1,-378.323 1171.52,-376.405 1162.18,-371.406 1161.1,-378.323"/>
<text text-anchor="middle" x="590.62" y="-345.8" font-family="Times New Roman,serif" font-size="14.00">&quot;</text>
</g>
<!-- n09 -->
<g id="node10" class="node"><title>n09</title>
<ellipse fill="none" stroke="black" cx="1245.23" cy="-692" rx="124.578" ry="18"/>
<text text-anchor="middle" x="1245.23" y="-688.3" font-family="Times New Roman,serif" font-size="14.00">PossibleExtendedIdentifierStart</text>
</g>
<!-- n01&#45;&gt;n09 -->
<g id="edge11" class="edge"><title>n01&#45;&gt;n09</title>
<path fill="none" stroke="black" d="M111.68,-506.023C128.998,-516.279 149.567,-531.535 161.186,-551 188.375,-596.554 153.115,-622.797 179.186,-669 256.381,-805.81 579.23,-936.369 662.565,-957 692.765,-964.476 702.286,-964.148 732.565,-957 741.27,-954.945 742.188,-951.133 750.565,-948 864,-905.571 904.122,-929.971 1014.44,-880 1057.56,-860.468 1065.23,-849.261 1102.44,-820 1145.09,-786.459 1191.14,-743.506 1218.83,-716.873"/>
<polygon fill="black" stroke="black" points="1221.37,-719.281 1226.13,-709.815 1216.51,-714.248 1221.37,-719.281"/>
<text text-anchor="middle" x="590.62" y="-955.8" font-family="Times New Roman,serif" font-size="14.00">\\</text>
</g>
<!-- n13 -->
<g id="node14" class="node"><title>n13</title>
<ellipse fill="none" stroke="black" cx="1245.23" cy="-258" rx="42.7926" ry="18"/>
<text text-anchor="middle" x="1245.23" y="-254.3" font-family="Times New Roman,serif" font-size="14.00">Directive</text>
</g>
<!-- n01&#45;&gt;n13 -->
<g id="edge12" class="edge"><title>n01&#45;&gt;n13</title>
<path fill="none" stroke="black" d="M92.058,-473.104C107.731,-447.926 139.721,-402.403 179.186,-378 401.837,-240.325 490.419,-264.19 750.565,-235 905.982,-217.561 946.613,-223.741 1102.44,-237 1133.55,-239.647 1168.23,-244.744 1195.5,-249.253"/>
<polygon fill="black" stroke="black" points="1195.12,-252.739 1205.57,-250.947 1196.29,-245.836 1195.12,-252.739"/>
<text text-anchor="middle" x="590.62" y="-258.8" font-family="Times New Roman,serif" font-size="14.00">`</text>
</g>
<!-- n14 -->
<g id="node15" class="node"><title>n14</title>
<ellipse fill="none" stroke="black" cx="1245.23" cy="-602" rx="77.9862" ry="18"/>
<text text-anchor="middle" x="1245.23" y="-598.3" font-family="Times New Roman,serif" font-size="14.00">FuseableCharacter</text>
</g>
<!-- n01&#45;&gt;n14 -->
<g id="edge10" class="edge"><title>n01&#45;&gt;n14</title>
<path fill="none" stroke="black" d="M108.042,-506.566C124.826,-517.423 146.137,-533.131 161.186,-551 172.453,-564.38 168.798,-571.926 179.186,-586 241.474,-670.395 243.038,-751 347.93,-751 347.93,-751 347.93,-751 698.565,-751 840.917,-751 877.672,-737.475 1014.44,-698 1082.31,-678.412 1157.14,-644.725 1202.41,-622.914"/>
<polygon fill="black" stroke="black" points="1204.14,-625.965 1211.61,-618.449 1201.08,-619.668 1204.14,-625.965"/>
<text text-anchor="middle" x="590.62" y="-754.8" font-family="Times New Roman,serif" font-size="14.00">FUSEABLE</text>
</g>
<!-- n01&#45;&gt;n15 -->
<g id="edge9" class="edge"><title>n01&#45;&gt;n15</title>
<path fill="none" stroke="black" d="M112.896,-505.801C130.42,-515.894 150.782,-531.054 161.186,-551 186.382,-599.305 144.262,-999.185 179.186,-1041 228.403,-1099.93 271.151,-1078 347.93,-1078 347.93,-1078 347.93,-1078 883.503,-1078 982.189,-1078 1015.39,-1087.49 1102.44,-1041 1158.01,-1011.33 1204.12,-951.676 1227.56,-917.209"/>
<polygon fill="black" stroke="black" points="1230.66,-918.874 1233.29,-908.612 1224.83,-914.991 1230.66,-918.874"/>
<text text-anchor="middle" x="590.62" y="-1081.8" font-family="Times New Roman,serif" font-size="14.00">\n</text>
</g>
<!-- n01&#45;&gt;n15 -->
<g id="edge13" class="edge"><title>n01&#45;&gt;n15</title>
<path fill="none" stroke="black" d="M112.043,-505.813C129.493,-515.992 150.075,-531.241 161.186,-551 200.593,-621.079 154.744,-654.406 179.186,-731 225.223,-875.264 196.499,-1027 347.93,-1027 347.93,-1027 347.93,-1027 883.503,-1027 982.42,-1027 1010.88,-1024.42 1102.44,-987 1146.08,-969.166 1190.07,-936.585 1217.22,-914.373"/>
<polygon fill="black" stroke="black" points="1219.63,-916.921 1225.09,-907.84 1215.16,-911.535 1219.63,-916.921"/>
<text text-anchor="middle" x="590.62" y="-1030.8" font-family="Times New Roman,serif" font-size="14.00">else</text>
</g>
<!-- n02&#45;&gt;n01 -->
<g id="edge15" class="edge"><title>n02&#45;&gt;n01</title>
<path fill="none" stroke="black" d="M304.118,-478.487C292.831,-475.801 280.637,-473.362 269.186,-472 229.466,-467.276 219.001,-468.16 179.186,-472 164.945,-473.373 149.696,-475.849 135.584,-478.569"/>
<polygon fill="black" stroke="black" points="134.657,-475.185 125.54,-480.581 136.032,-482.049 134.657,-475.185"/>
<text text-anchor="middle" x="224.186" y="-475.8" font-family="Times New Roman,serif" font-size="14.00">WHITESPACE</text>
</g>
<!-- n02&#45;&gt;n02 -->
<g id="edge14" class="edge"><title>n02&#45;&gt;n02</title>
<path fill="none" stroke="black" d="M326.957,-508.037C322.473,-517.858 329.797,-527 348.93,-527 360.888,-527 368.234,-523.429 370.966,-518.353"/>
<polygon fill="black" stroke="black" points="374.464,-518.016 370.903,-508.037 367.464,-518.059 374.464,-518.016"/>
<text text-anchor="middle" x="348.93" y="-530.8" font-family="Times New Roman,serif" font-size="14.00">NUMBER</text>
</g>
<!-- n02&#45;&gt;n03 -->
<g id="edge16" class="edge"><title>n02&#45;&gt;n03</title>
<path fill="none" stroke="black" d="M410.724,-491C446.069,-491 490.549,-491 526.315,-491"/>
<polygon fill="black" stroke="black" points="526.634,-494.5 536.634,-491 526.634,-487.5 526.634,-494.5"/>
<text text-anchor="middle" x="473.675" y="-494.8" font-family="Times New Roman,serif" font-size="14.00">ALPHA</text>
</g>
<!-- n02&#45;&gt;n05 -->
<g id="edge19" class="edge"><title>n02&#45;&gt;n05</title>
<path fill="none" stroke="black" d="M393.237,-478.395C430.793,-468.156 486.803,-454.539 536.675,-449 584.333,-443.707 597.222,-441.386 644.565,-449 693.549,-456.878 703.025,-469.81 750.565,-484 769.574,-489.674 790.263,-495.406 809.464,-500.543"/>
<polygon fill="black" stroke="black" points="808.789,-503.985 819.353,-503.172 810.588,-497.22 808.789,-503.985"/>
<text text-anchor="middle" x="590.62" y="-452.8" font-family="Times New Roman,serif" font-size="14.00">&#45;</text>
</g>
<!-- n02&#45;&gt;n06 -->
<g id="edge20" class="edge"><title>n02&#45;&gt;n06</title>
<path fill="none" stroke="black" d="M397.17,-479.563C402.378,-476.564 407.085,-472.778 410.675,-468 440.804,-427.897 404.208,-286.788 428.675,-243 457.683,-191.084 484.326,-192.221 536.675,-164 739.954,-54.4137 1020.7,-45.4121 1159.51,-48.7276"/>
<polygon fill="black" stroke="black" points="1159.57,-52.2304 1169.66,-48.9983 1159.75,-45.2329 1159.57,-52.2304"/>
<text text-anchor="middle" x="697.565" y="-113.8" font-family="Times New Roman,serif" font-size="14.00">\r</text>
</g>
<!-- n02&#45;&gt;n07 -->
<g id="edge17" class="edge"><title>n02&#45;&gt;n07</title>
<path fill="none" stroke="black" d="M397.019,-479.448C402.251,-476.467 407.005,-472.717 410.675,-468 454.071,-412.216 388.808,-368.36 428.675,-310 488.86,-221.897 552.152,-258.332 644.565,-205 694.998,-175.895 695.24,-146.16 750.565,-128 820.564,-105.024 1019.18,-111.554 1142.1,-118.322"/>
<polygon fill="black" stroke="black" points="1142.1,-121.828 1152.28,-118.893 1142.49,-114.839 1142.1,-121.828"/>
<text text-anchor="middle" x="697.565" y="-196.8" font-family="Times New Roman,serif" font-size="14.00">&#39;</text>
</g>
<!-- n02&#45;&gt;n08 -->
<g id="edge18" class="edge"><title>n02&#45;&gt;n08</title>
<path fill="none" stroke="black" d="M392.089,-478.056C398.577,-475.223 404.997,-471.884 410.675,-468 420.545,-461.248 418.297,-453.943 428.675,-448 656.019,-317.799 752.484,-378.011 1014.44,-382 1053.64,-382.597 1096.59,-383.766 1134.64,-384.981"/>
<polygon fill="black" stroke="black" points="1134.6,-388.482 1144.71,-385.307 1134.83,-381.485 1134.6,-388.482"/>
<text text-anchor="middle" x="697.565" y="-370.8" font-family="Times New Roman,serif" font-size="14.00">&quot;</text>
</g>
<!-- n02&#45;&gt;n09 -->
<g id="edge23" class="edge"><title>n02&#45;&gt;n09</title>
<path fill="none" stroke="black" d="M374.843,-507.503C387.689,-517.388 402.367,-531.112 410.675,-547 437.703,-598.689 385.963,-637.276 428.675,-677 477.799,-722.689 901.044,-708.958 1117.64,-698.74"/>
<polygon fill="black" stroke="black" points="1117.98,-702.228 1127.8,-698.256 1117.64,-695.236 1117.98,-702.228"/>
<text text-anchor="middle" x="697.565" y="-712.8" font-family="Times New Roman,serif" font-size="14.00">\\</text>
</g>
<!-- n02&#45;&gt;n13 -->
<g id="edge24" class="edge"><title>n02&#45;&gt;n13</title>
<path fill="none" stroke="black" d="M396.473,-479.416C401.86,-476.439 406.802,-472.699 410.675,-468 440.788,-431.463 397.611,-398.733 428.675,-363 494.764,-286.978 549.299,-326.732 644.565,-294 692.04,-277.688 701.144,-263.803 750.565,-255 910.258,-226.555 1103.64,-241.807 1193.62,-251.694"/>
<polygon fill="black" stroke="black" points="1193.49,-255.201 1203.82,-252.84 1194.27,-248.245 1193.49,-255.201"/>
<text text-anchor="middle" x="697.565" y="-291.8" font-family="Times New Roman,serif" font-size="14.00">`</text>
</g>
<!-- n02&#45;&gt;n14 -->
<g id="edge22" class="edge"><title>n02&#45;&gt;n14</title>
<path fill="none" stroke="black" d="M368.242,-508.167C383.36,-521.445 405.951,-539.312 428.675,-550 473.351,-571.013 488.236,-566.45 536.675,-576 631.045,-594.606 654.66,-601.645 750.565,-609 867.5,-617.968 897.177,-610.786 1014.44,-609 1061.92,-608.277 1114.89,-606.714 1158,-605.249"/>
<polygon fill="black" stroke="black" points="1158.3,-608.741 1168.17,-604.898 1158.06,-601.745 1158.3,-608.741"/>
<text text-anchor="middle" x="697.565" y="-611.8" font-family="Times New Roman,serif" font-size="14.00">FUSEABLE</text>
</g>
<!-- n02&#45;&gt;n15 -->
<g id="edge21" class="edge"><title>n02&#45;&gt;n15</title>
<path fill="none" stroke="black" d="M374.986,-507.429C387.874,-517.292 402.548,-531.018 410.675,-547 442.311,-609.211 391.294,-644.061 428.675,-703 460.416,-753.048 705.058,-865.569 750.565,-877 903.255,-915.355 1090.88,-905.892 1184.77,-897.474"/>
<polygon fill="black" stroke="black" points="1185.29,-900.941 1194.93,-896.534 1184.65,-893.971 1185.29,-900.941"/>
<text text-anchor="middle" x="697.565" y="-874.8" font-family="Times New Roman,serif" font-size="14.00">\n</text>
</g>
<!-- n02&#45;&gt;n15 -->
<g id="edge25" class="edge"><title>n02&#45;&gt;n15</title>
<path fill="none" stroke="black" d="M375.152,-507.346C388.091,-517.184 402.76,-530.912 410.675,-547 450.661,-628.272 382.897,-671.843 428.675,-750 516.253,-899.524 585.009,-918.829 750.565,-970 900.01,-1016.19 951.883,-1005.42 1102.44,-963 1142.01,-951.853 1183.51,-929.318 1211.31,-912.412"/>
<polygon fill="black" stroke="black" points="1213.17,-915.377 1219.84,-907.143 1209.49,-909.423 1213.17,-915.377"/>
<text text-anchor="middle" x="697.565" y="-968.8" font-family="Times New Roman,serif" font-size="14.00">else</text>
</g>
<!-- n03&#45;&gt;n01 -->
<g id="edge27" class="edge"><title>n03&#45;&gt;n01</title>
<path fill="none" stroke="black" d="M550.283,-479.002C514.332,-468.703 459.492,-454.652 410.675,-449 308.23,-437.139 280.182,-444.135 179.186,-465 163.691,-468.201 146.994,-472.376 131.868,-476.44"/>
<polygon fill="black" stroke="black" points="130.909,-473.074 122.183,-479.084 132.752,-479.827 130.909,-473.074"/>
<text text-anchor="middle" x="348.93" y="-452.8" font-family="Times New Roman,serif" font-size="14.00">WHITESPACE</text>
</g>
<!-- n03&#45;&gt;n03 -->
<g id="edge26" class="edge"><title>n03&#45;&gt;n03</title>
<path fill="none" stroke="black" d="M571.837,-508.037C568.003,-517.858 574.264,-527 590.62,-527 600.842,-527 607.121,-523.429 609.457,-518.353"/>
<polygon fill="black" stroke="black" points="612.955,-518.019 609.403,-508.037 605.956,-518.055 612.955,-518.019"/>
<text text-anchor="middle" x="590.62" y="-530.8" font-family="Times New Roman,serif" font-size="14.00">ALPHA</text>
</g>
<!-- n03&#45;&gt;n05 -->
<g id="edge30" class="edge"><title>n03&#45;&gt;n05</title>
<path fill="none" stroke="black" d="M626.478,-504.527C637.813,-508.321 650.566,-511.963 662.565,-514 688.241,-518.359 715.852,-520.743 742.523,-521.898"/>
<polygon fill="black" stroke="black" points="742.569,-525.402 752.694,-522.281 742.833,-518.407 742.569,-525.402"/>
<text text-anchor="middle" x="697.565" y="-525.8" font-family="Times New Roman,serif" font-size="14.00">&#45;</text>
</g>
<!-- n03&#45;&gt;n06 -->
<g id="edge31" class="edge"><title>n03&#45;&gt;n06</title>
<path fill="none" stroke="black" d="M631.862,-479.354C636.796,-476.38 641.256,-472.657 644.565,-468 675.672,-424.221 636.945,-274.2 662.565,-227 686.016,-183.797 705.926,-180.585 750.565,-160 886.456,-97.3337 1060.53,-70.6688 1161.5,-59.8538"/>
<polygon fill="black" stroke="black" points="1162.06,-63.3147 1171.64,-58.7948 1161.33,-56.3525 1162.06,-63.3147"/>
<text text-anchor="middle" x="882.503" y="-163.8" font-family="Times New Roman,serif" font-size="14.00">\r</text>
</g>
<!-- n03&#45;&gt;n07 -->
<g id="edge28" class="edge"><title>n03&#45;&gt;n07</title>
<path fill="none" stroke="black" d="M631.599,-479.161C636.571,-476.214 641.111,-472.55 644.565,-468 679.832,-421.54 630.037,-386.417 662.565,-338 687.774,-300.477 709.997,-306.941 750.565,-287 864.29,-231.099 908.929,-249.18 1014.44,-179 1023.86,-172.734 1022.39,-166.193 1032.44,-161 1064.71,-144.328 1103.08,-135.131 1138.23,-130.134"/>
<polygon fill="black" stroke="black" points="1139.09,-133.552 1148.54,-128.774 1138.17,-126.612 1139.09,-133.552"/>
<text text-anchor="middle" x="882.503" y="-290.8" font-family="Times New Roman,serif" font-size="14.00">&#39;</text>
</g>
<!-- n03&#45;&gt;n08 -->
<g id="edge29" class="edge"><title>n03&#45;&gt;n08</title>
<path fill="none" stroke="black" d="M642.675,-486.105C739.434,-476.48 945.957,-454.184 1014.44,-433 1022.99,-430.357 1023.93,-426.76 1032.44,-424 1068.41,-412.331 1109.13,-404.414 1145.19,-399.108"/>
<polygon fill="black" stroke="black" points="1145.83,-402.553 1155.23,-397.68 1144.84,-395.623 1145.83,-402.553"/>
<text text-anchor="middle" x="882.503" y="-477.8" font-family="Times New Roman,serif" font-size="14.00">&quot;</text>
</g>
<!-- n03&#45;&gt;n09 -->
<g id="edge34" class="edge"><title>n03&#45;&gt;n09</title>
<path fill="none" stroke="black" d="M612.26,-507.556C623.552,-517.742 636.788,-531.742 644.565,-547 664.278,-585.676 630.355,-613.898 662.565,-643 679.218,-658.046 951.403,-675.734 1117.46,-685.202"/>
<polygon fill="black" stroke="black" points="1117.57,-688.714 1127.75,-685.786 1117.96,-681.725 1117.57,-688.714"/>
<text text-anchor="middle" x="882.503" y="-682.8" font-family="Times New Roman,serif" font-size="14.00">\\</text>
</g>
<!-- n03&#45;&gt;n13 -->
<g id="edge35" class="edge"><title>n03&#45;&gt;n13</title>
<path fill="none" stroke="black" d="M624.805,-476.956C631.386,-474.066 638.22,-470.991 644.565,-468 692.39,-445.456 702.502,-436.032 750.565,-414 865.76,-361.194 908.929,-376.18 1014.44,-306 1023.86,-299.734 1022.32,-293.054 1032.44,-288 1082.69,-262.915 1147.47,-256.998 1192.09,-256.356"/>
<polygon fill="black" stroke="black" points="1192.15,-259.856 1202.13,-256.296 1192.11,-252.856 1192.15,-259.856"/>
<text text-anchor="middle" x="882.503" y="-417.8" font-family="Times New Roman,serif" font-size="14.00">`</text>
</g>
<!-- n03&#45;&gt;n14 -->
<g id="edge33" class="edge"><title>n03&#45;&gt;n14</title>
<path fill="none" stroke="black" d="M609.954,-507.927C623.45,-519.326 642.816,-533.584 662.565,-541 751.128,-574.255 1018.94,-591.417 1158.13,-598.295"/>
<polygon fill="black" stroke="black" points="1158.17,-601.801 1168.33,-598.792 1158.52,-594.809 1158.17,-601.801"/>
<text text-anchor="middle" x="882.503" y="-593.8" font-family="Times New Roman,serif" font-size="14.00">FUSEABLE</text>
</g>
<!-- n03&#45;&gt;n15 -->
<g id="edge32" class="edge"><title>n03&#45;&gt;n15</title>
<path fill="none" stroke="black" d="M613.211,-507.471C624.666,-517.531 637.75,-531.435 644.565,-547 668.151,-600.865 622.436,-768.019 662.565,-811 667.029,-815.781 1038.5,-864.354 1185.4,-883.398"/>
<polygon fill="black" stroke="black" points="1185.21,-886.903 1195.58,-884.717 1186.11,-879.961 1185.21,-886.903"/>
<text text-anchor="middle" x="882.503" y="-864.8" font-family="Times New Roman,serif" font-size="14.00">\n</text>
</g>
<!-- n03&#45;&gt;n15 -->
<g id="edge36" class="edge"><title>n03&#45;&gt;n15</title>
<path fill="none" stroke="black" d="M613.04,-507.547C624.44,-517.632 637.525,-531.535 644.565,-547 661.678,-584.593 635.054,-701.19 662.565,-732 769.067,-851.273 863.524,-754.154 1014.44,-807 1022.88,-809.956 1024.21,-812.5 1032.44,-816 1087.56,-839.433 1152.74,-861.736 1196.1,-875.835"/>
<polygon fill="black" stroke="black" points="1195.22,-879.231 1205.81,-878.978 1197.38,-872.571 1195.22,-879.231"/>
<text text-anchor="middle" x="882.503" y="-811.8" font-family="Times New Roman,serif" font-size="14.00">else</text>
</g>
<!-- n04 -->
<g id="node5" class="node"><title>n04</title>
<ellipse fill="none" stroke="black" cx="80.5928" cy="-578" rx="64.189" ry="18"/>
<text text-anchor="middle" x="80.5928" y="-574.3" font-family="Times New Roman,serif" font-size="14.00">DelimiterChars</text>
</g>
<!-- n05&#45;&gt;n01 -->
<g id="edge38" class="edge"><title>n05&#45;&gt;n01</title>
<path fill="none" stroke="black" d="M792.475,-532.32C776.774,-538.261 761.864,-546.786 750.565,-559 725.522,-586.071 761.332,-616.924 732.565,-640 627.197,-724.524 561.737,-658.262 428.675,-635 313.422,-614.852 285.141,-600.623 179.186,-551 156.173,-540.222 131.822,-525.257 113.2,-512.969"/>
<polygon fill="black" stroke="black" points="115.071,-510.01 104.812,-507.36 111.179,-515.828 115.071,-510.01"/>
<text text-anchor="middle" x="473.675" y="-661.8" font-family="Times New Roman,serif" font-size="14.00">WHITESPACE</text>
</g>
<!-- n05&#45;&gt;n02 -->
<g id="edge39" class="edge"><title>n05&#45;&gt;n02</title>
<path fill="none" stroke="black" d="M816.376,-534.608C746.817,-549.05 633.494,-566.172 536.675,-551 486.49,-543.136 431.384,-524.065 394.131,-509.517"/>
<polygon fill="black" stroke="black" points="395.175,-506.166 384.588,-505.736 392.596,-512.674 395.175,-506.166"/>
<text text-anchor="middle" x="590.62" y="-560.8" font-family="Times New Roman,serif" font-size="14.00">NUMBER</text>
</g>
<!-- n05&#45;&gt;n03 -->
<g id="edge40" class="edge"><title>n05&#45;&gt;n03</title>
<path fill="none" stroke="black" d="M803.68,-504.481C780.844,-500.757 755.772,-497.19 732.565,-495 707.189,-492.606 679.138,-491.497 654.786,-491.025"/>
<polygon fill="black" stroke="black" points="654.651,-487.522 644.595,-490.86 654.537,-494.522 654.651,-487.522"/>
<text text-anchor="middle" x="697.565" y="-498.8" font-family="Times New Roman,serif" font-size="14.00">ALPHA</text>
</g>
<!-- n05&#45;&gt;n06 -->
<g id="edge43" class="edge"><title>n05&#45;&gt;n06</title>
<path fill="none" stroke="black" d="M982.371,-507.175C994.668,-501.809 1005.9,-494.339 1014.44,-484 1050.06,-440.892 1014.61,-286 1032.44,-233 1055.29,-165.119 1064.34,-142.526 1120.44,-98 1137.22,-84.6834 1158.29,-75.0872 1178.27,-68.2716"/>
<polygon fill="black" stroke="black" points="1179.52,-71.545 1187.97,-65.145 1177.38,-64.8828 1179.52,-71.545"/>
<text text-anchor="middle" x="1067.44" y="-236.8" font-family="Times New Roman,serif" font-size="14.00">\r</text>
</g>
<!-- n05&#45;&gt;n07 -->
<g id="edge41" class="edge"><title>n05&#45;&gt;n07</title>
<path fill="none" stroke="black" d="M981.163,-506.979C993.791,-501.66 1005.44,-494.255 1014.44,-484 1054.67,-438.185 1009.36,-404.434 1032.44,-348 1057.07,-287.775 1075.91,-278.441 1120.44,-231 1149.27,-200.286 1186.44,-169.443 1212.49,-149.011"/>
<polygon fill="black" stroke="black" points="1214.79,-151.658 1220.54,-142.756 1210.49,-146.132 1214.79,-151.658"/>
<text text-anchor="middle" x="1067.44" y="-351.8" font-family="Times New Roman,serif" font-size="14.00">&#39;</text>
</g>
<!-- n05&#45;&gt;n08 -->
<g id="edge42" class="edge"><title>n05&#45;&gt;n08</title>
<path fill="none" stroke="black" d="M944.183,-502.991C966.317,-497.096 991.531,-490.316 1014.44,-484 1053.64,-473.194 1064.5,-473.615 1102.44,-459 1137.89,-445.346 1176.43,-426.004 1204.38,-411.111"/>
<polygon fill="black" stroke="black" points="1206.28,-414.063 1213.43,-406.245 1202.96,-407.898 1206.28,-414.063"/>
<text text-anchor="middle" x="1067.44" y="-483.8" font-family="Times New Roman,serif" font-size="14.00">&quot;</text>
</g>
<!-- n05&#45;&gt;n09 -->
<g id="edge46" class="edge"><title>n05&#45;&gt;n09</title>
<path fill="none" stroke="black" d="M955.156,-534.052C975.196,-540.044 996.409,-548.168 1014.44,-559 1024.14,-564.826 1023.5,-570.067 1032.44,-577 1083.53,-616.613 1150.1,-650.301 1194.85,-670.786"/>
<polygon fill="black" stroke="black" points="1193.5,-674.017 1204.06,-674.954 1196.39,-667.64 1193.5,-674.017"/>
<text text-anchor="middle" x="1067.44" y="-624.8" font-family="Times New Roman,serif" font-size="14.00">\\</text>
</g>
<!-- n10 -->
<g id="node11" class="node"><title>n10</title>
<ellipse fill="none" stroke="black" cx="1245.23" cy="-519" rx="83.6854" ry="18"/>
<text text-anchor="middle" x="1245.23" y="-515.3" font-family="Times New Roman,serif" font-size="14.00">SingleLineComment</text>
</g>
<!-- n05&#45;&gt;n10 -->
<g id="edge37" class="edge"><title>n05&#45;&gt;n10</title>
<path fill="none" stroke="black" d="M1014.5,-519C1059.74,-519 1109.48,-519 1151.06,-519"/>
<polygon fill="black" stroke="black" points="1151.18,-522.5 1161.18,-519 1151.18,-515.5 1151.18,-522.5"/>
<text text-anchor="middle" x="1067.44" y="-522.8" font-family="Times New Roman,serif" font-size="14.00">&#45;</text>
</g>
<!-- n05&#45;&gt;n13 -->
<g id="edge47" class="edge"><title>n05&#45;&gt;n13</title>
<path fill="none" stroke="black" d="M975.245,-506.14C989.519,-501.002 1003.23,-493.873 1014.44,-484 1030.3,-470.039 1020.22,-457.234 1032.44,-440 1082.53,-369.379 1165.81,-308.715 1211.59,-278.486"/>
<polygon fill="black" stroke="black" points="1213.76,-281.248 1220.23,-272.852 1209.94,-275.385 1213.76,-281.248"/>
<text text-anchor="middle" x="1067.44" y="-443.8" font-family="Times New Roman,serif" font-size="14.00">`</text>
</g>
<!-- n05&#45;&gt;n14 -->
<g id="edge45" class="edge"><title>n05&#45;&gt;n14</title>
<path fill="none" stroke="black" d="M972.18,-532.217C1012.21,-538.843 1059.96,-547.667 1102.44,-558 1132.2,-565.238 1164.88,-575.236 1191.36,-583.872"/>
<polygon fill="black" stroke="black" points="1190.59,-587.304 1201.18,-587.107 1192.78,-580.655 1190.59,-587.304"/>
<text text-anchor="middle" x="1067.44" y="-561.8" font-family="Times New Roman,serif" font-size="14.00">FUSEABLE</text>
</g>
<!-- n05&#45;&gt;n15 -->
<g id="edge44" class="edge"><title>n05&#45;&gt;n15</title>
<path fill="none" stroke="black" d="M975.561,-531.801C990.515,-537.819 1004.38,-546.506 1014.44,-559 1045.08,-597.026 1002.21,-739.655 1032.44,-778 1052.72,-803.715 1072.83,-787.007 1102.44,-801 1143.05,-820.194 1186.14,-848.882 1214.01,-868.684"/>
<polygon fill="black" stroke="black" points="1211.98,-871.54 1222.15,-874.524 1216.06,-865.852 1211.98,-871.54"/>
<text text-anchor="middle" x="1067.44" y="-804.8" font-family="Times New Roman,serif" font-size="14.00">\n</text>
</g>
<!-- n05&#45;&gt;n15 -->
<g id="edge48" class="edge"><title>n05&#45;&gt;n15</title>
<path fill="none" stroke="black" d="M972.532,-532.32C988.233,-538.261 1003.14,-546.786 1014.44,-559 1039.48,-586.071 1016.08,-606.951 1032.44,-640 1079.94,-735.921 1171.66,-826.137 1217.21,-867.433"/>
<polygon fill="black" stroke="black" points="1215.12,-870.257 1224.9,-874.333 1219.79,-865.048 1215.12,-870.257"/>
<text text-anchor="middle" x="1067.44" y="-748.8" font-family="Times New Roman,serif" font-size="14.00">else</text>
</g>
<!-- n11 -->
<g id="node12" class="node"><title>n11</title>
<ellipse fill="none" stroke="black" cx="80.5928" cy="-632" rx="80.6858" ry="18"/>
<text text-anchor="middle" x="80.5928" y="-628.3" font-family="Times New Roman,serif" font-size="14.00">MultiLineComment</text>
</g>
<!-- n12 -->
<g id="node13" class="node"><title>n12</title>
<ellipse fill="none" stroke="black" cx="80.5928" cy="-686" rx="46.2923" ry="18"/>
<text text-anchor="middle" x="80.5928" y="-682.3" font-family="Times New Roman,serif" font-size="14.00">Linebreak</text>
</g>
</g>
</svg>
