<?xml version="1.0" encoding="UTF-8" standalone="no"?>
<!DOCTYPE svg PUBLIC "-//W3C//DTD SVG 1.1//EN"
 "http://www.w3.org/Graphics/SVG/1.1/DTD/svg11.dtd">
<!-- Generated by graphviz version 2.38.0 (20140413.2041)
 -->
<!-- Title: State transitions of Tokenizer Pages: 1 -->
<svg width="1795pt" height="272pt"
 viewBox="0.00 0.00 1795.00 272.00" xmlns="http://www.w3.org/2000/svg" xmlns:xlink="http://www.w3.org/1999/xlink">
<g id="graph0" class="graph" transform="scale(1 1) rotate(0) translate(4 268)">
<title>State transitions of Tokenizer</title>
<polygon fill="white" stroke="none" points="-4,4 -4,-268 1791,-268 1791,4 -4,4"/>
<!-- t_1 -->
<g id="node1" class="node"><title>t_1</title>
<polygon fill="none" stroke="black" points="186,-0.5 186,-38.5 272,-38.5 272,-0.5 186,-0.5"/>
<text text-anchor="middle" x="229" y="-23.3" font-family="Times New Roman,serif" font-size="14.00">WordToken</text>
<text text-anchor="middle" x="229" y="-8.3" font-family="Times New Roman,serif" font-size="14.00">entity</text>
</g>
<!-- t_2 -->
<g id="node2" class="node"><title>t_2</title>
<polygon fill="none" stroke="black" points="299.5,-1.5 299.5,-37.5 386.5,-37.5 386.5,-1.5 299.5,-1.5"/>
<text text-anchor="middle" x="343" y="-15.8" font-family="Times New Roman,serif" font-size="14.00">SpaceToken</text>
</g>
<!-- t_1&#45;&gt;t_2 -->
<g id="edge1" class="edge"><title>t_1&#45;&gt;t_2</title>
<path fill="none" stroke="black" d="M282.36,-19.5C284.654,-19.5 286.948,-19.5 289.242,-19.5"/>
<polygon fill="black" stroke="black" points="282.195,-16.0001 272.195,-19.5 282.195,-23.0001 282.195,-16.0001"/>
<polygon fill="black" stroke="black" points="289.3,-23.0001 299.3,-19.5 289.3,-16.0001 289.3,-23.0001"/>
</g>
<!-- t_3 -->
<g id="node3" class="node"><title>t_3</title>
<polygon fill="none" stroke="black" points="423,-0.5 423,-38.5 509,-38.5 509,-0.5 423,-0.5"/>
<text text-anchor="middle" x="466" y="-23.3" font-family="Times New Roman,serif" font-size="14.00">WordToken</text>
<text text-anchor="middle" x="466" y="-8.3" font-family="Times New Roman,serif" font-size="14.00">myEntity</text>
</g>
<!-- t_2&#45;&gt;t_3 -->
<g id="edge2" class="edge"><title>t_2&#45;&gt;t_3</title>
<path fill="none" stroke="black" d="M396.913,-19.5C402.203,-19.5 407.492,-19.5 412.782,-19.5"/>
<polygon fill="black" stroke="black" points="396.723,-16.0001 386.723,-19.5 396.723,-23.0001 396.723,-16.0001"/>
<polygon fill="black" stroke="black" points="412.955,-23.0001 422.955,-19.5 412.955,-16.0001 412.955,-23.0001"/>
</g>
<!-- t_4 -->
<g id="node4" class="node"><title>t_4</title>
<polygon fill="none" stroke="black" points="545.5,-1.5 545.5,-37.5 632.5,-37.5 632.5,-1.5 545.5,-1.5"/>
<text text-anchor="middle" x="589" y="-15.8" font-family="Times New Roman,serif" font-size="14.00">SpaceToken</text>
</g>
<!-- t_3&#45;&gt;t_4 -->
<g id="edge3" class="edge"><title>t_3&#45;&gt;t_4</title>
<path fill="none" stroke="black" d="M519.407,-19.5C524.683,-19.5 529.959,-19.5 535.236,-19.5"/>
<polygon fill="black" stroke="black" points="519.242,-16.0001 509.242,-19.5 519.242,-23.0001 519.242,-16.0001"/>
<polygon fill="black" stroke="black" points="535.382,-23.0001 545.382,-19.5 535.382,-16.0001 535.382,-23.0001"/>
</g>
<!-- t_5 -->
<g id="node5" class="node"><title>t_5</title>
<polygon fill="none" stroke="black" points="653,-0.5 653,-38.5 739,-38.5 739,-0.5 653,-0.5"/>
<text text-anchor="middle" x="696" y="-23.3" font-family="Times New Roman,serif" font-size="14.00">WordToken</text>
<text text-anchor="middle" x="696" y="-8.3" font-family="Times New Roman,serif" font-size="14.00">is</text>
</g>
<!-- t_4&#45;&gt;t_5 -->
<g id="edge4" class="edge"><title>t_4&#45;&gt;t_5</title>
<path fill="none" stroke="black" d="M643.056,-19.5C643.156,-19.5 643.255,-19.5 643.355,-19.5"/>
<polygon fill="black" stroke="black" points="642.887,-16.0001 632.887,-19.5 642.887,-23.0001 642.887,-16.0001"/>
<polygon fill="black" stroke="black" points="642.61,-23.0001 652.61,-19.5 642.61,-16.0001 642.61,-23.0001"/>
</g>
<!-- t_6 -->
<g id="node6" class="node"><title>t_6</title>
<polygon fill="none" stroke="black" points="757.5,-1.5 757.5,-37.5 866.5,-37.5 866.5,-1.5 757.5,-1.5"/>
<text text-anchor="middle" x="812" y="-15.8" font-family="Times New Roman,serif" font-size="14.00">LineBreakToken</text>
</g>
<!-- t_5&#45;&gt;t_6 -->
<g id="edge5" class="edge"><title>t_5&#45;&gt;t_6</title>
<path fill="none" stroke="black" d="M749.306,-19.5C749.472,-19.5 749.638,-19.5 749.805,-19.5"/>
<polygon fill="black" stroke="black" points="749.047,-16.0001 739.047,-19.5 749.047,-23.0001 749.047,-16.0001"/>
<polygon fill="black" stroke="black" points="747.285,-23.0001 757.285,-19.5 747.285,-16.0001 747.285,-23.0001"/>
</g>
<!-- t_7 -->
<g id="node7" class="node"><title>t_7</title>
<polygon fill="none" stroke="black" points="884.5,-1.5 884.5,-37.5 999.5,-37.5 999.5,-1.5 884.5,-1.5"/>
<text text-anchor="middle" x="942" y="-15.8" font-family="Times New Roman,serif" font-size="14.00">IndentationToken</text>
</g>
<!-- t_6&#45;&gt;t_7 -->
<g id="edge6" class="edge"><title>t_6&#45;&gt;t_7</title>
<path fill="none" stroke="black" d="M876.808,-19.5C876.963,-19.5 877.118,-19.5 877.274,-19.5"/>
<polygon fill="black" stroke="black" points="876.59,-16.0001 866.59,-19.5 876.59,-23.0001 876.59,-16.0001"/>
<polygon fill="black" stroke="black" points="874.264,-23.0001 884.264,-19.5 874.264,-16.0001 874.264,-23.0001"/>
</g>
<!-- t_8 -->
<g id="node8" class="node"><title>t_8</title>
<polygon fill="none" stroke="black" points="1021,-0.5 1021,-38.5 1107,-38.5 1107,-0.5 1021,-0.5"/>
<text text-anchor="middle" x="1064" y="-23.3" font-family="Times New Roman,serif" font-size="14.00">WordToken</text>
<text text-anchor="middle" x="1064" y="-8.3" font-family="Times New Roman,serif" font-size="14.00">port</text>
</g>
<!-- t_7&#45;&gt;t_8 -->
<g id="edge7" class="edge"><title>t_7&#45;&gt;t_8</title>
<path fill="none" stroke="black" d="M1009.89,-19.5C1010.12,-19.5 1010.34,-19.5 1010.57,-19.5"/>
<polygon fill="black" stroke="black" points="1009.66,-16.0001 999.664,-19.5 1009.66,-23.0001 1009.66,-16.0001"/>
<polygon fill="black" stroke="black" points="1010.77,-23.0001 1020.77,-19.5 1010.77,-16.0001 1010.77,-23.0001"/>
</g>
<!-- t_9 -->
<g id="node9" class="node"><title>t_9</title>
<polygon fill="none" stroke="black" points="1138.5,-1.5 1138.5,-37.5 1225.5,-37.5 1225.5,-1.5 1138.5,-1.5"/>
<text text-anchor="middle" x="1182" y="-15.8" font-family="Times New Roman,serif" font-size="14.00">SpaceToken</text>
</g>
<!-- t_8&#45;&gt;t_9 -->
<g id="edge8" class="edge"><title>t_8&#45;&gt;t_9</title>
<path fill="none" stroke="black" d="M1117.47,-19.5C1121.04,-19.5 1124.61,-19.5 1128.18,-19.5"/>
<polygon fill="black" stroke="black" points="1117.33,-16.0001 1107.33,-19.5 1117.33,-23.0001 1117.33,-16.0001"/>
<polygon fill="black" stroke="black" points="1128.25,-23.0001 1138.25,-19.5 1128.25,-16.0001 1128.25,-23.0001"/>
</g>
<!-- t_10 -->
<g id="node10" class="node"><title>t_10</title>
<polygon fill="none" stroke="black" points="1253.5,-0.5 1253.5,-38.5 1360.5,-38.5 1360.5,-0.5 1253.5,-0.5"/>
<text text-anchor="middle" x="1307" y="-23.3" font-family="Times New Roman,serif" font-size="14.00">CharacterToken</text>
<text text-anchor="middle" x="1307" y="-8.3" font-family="Times New Roman,serif" font-size="14.00">(</text>
</g>
<!-- t_9&#45;&gt;t_10 -->
<g id="edge9" class="edge"><title>t_9&#45;&gt;t_10</title>
<path fill="none" stroke="black" d="M1236.28,-19.5C1238.61,-19.5 1240.94,-19.5 1243.27,-19.5"/>
<polygon fill="black" stroke="black" points="1235.95,-16.0001 1225.95,-19.5 1235.95,-23.0001 1235.95,-16.0001"/>
<polygon fill="black" stroke="black" points="1243.49,-23.0001 1253.49,-19.5 1243.49,-16.0001 1243.49,-23.0001"/>
</g>
<!-- t_11 -->
<g id="node11" class="node"><title>t_11</title>
<polygon fill="none" stroke="black" points="1378.5,-1.5 1378.5,-37.5 1487.5,-37.5 1487.5,-1.5 1378.5,-1.5"/>
<text text-anchor="middle" x="1433" y="-15.8" font-family="Times New Roman,serif" font-size="14.00">LineBreakToken</text>
</g>
<!-- t_10&#45;&gt;t_11 -->
<g id="edge10" class="edge"><title>t_10&#45;&gt;t_11</title>
<path fill="none" stroke="black" d="M1370.66,-19.5C1370.83,-19.5 1370.99,-19.5 1371.15,-19.5"/>
<polygon fill="black" stroke="black" points="1370.65,-16.0001 1360.65,-19.5 1370.65,-23.0001 1370.65,-16.0001"/>
<polygon fill="black" stroke="black" points="1368.45,-23.0001 1378.45,-19.5 1368.45,-16.0001 1368.45,-23.0001"/>
</g>
<!-- t_12 -->
<g id="node12" class="node"><title>t_12</title>
<polygon fill="none" stroke="black" points="1505.5,-1.5 1505.5,-37.5 1620.5,-37.5 1620.5,-1.5 1505.5,-1.5"/>
<text text-anchor="middle" x="1563" y="-15.8" font-family="Times New Roman,serif" font-size="14.00">IndentationToken</text>
</g>
<!-- t_11&#45;&gt;t_12 -->
<g id="edge11" class="edge"><title>t_11&#45;&gt;t_12</title>
<path fill="none" stroke="black" d="M1497.81,-19.5C1497.96,-19.5 1498.12,-19.5 1498.27,-19.5"/>
<polygon fill="black" stroke="black" points="1497.59,-16.0001 1487.59,-19.5 1497.59,-23.0001 1497.59,-16.0001"/>
<polygon fill="black" stroke="black" points="1495.26,-23.0001 1505.26,-19.5 1495.26,-16.0001 1495.26,-23.0001"/>
</g>
<!-- T_0 -->
<g id="node13" class="node"><title>T_0</title>
<polygon fill="none" stroke="black" points="0,-76.5 0,-112.5 152,-112.5 152,-76.5 0,-76.5"/>
<text text-anchor="middle" x="76" y="-90.8" font-family="Times New Roman,serif" font-size="14.00">StartOfDocumentToken</text>
</g>
<!-- T_1 -->
<g id="node14" class="node"><title>T_1</title>
<polygon fill="none" stroke="black" points="170.5,-75.5 170.5,-113.5 271.5,-113.5 271.5,-75.5 170.5,-75.5"/>
<text text-anchor="middle" x="221" y="-98.3" font-family="Times New Roman,serif" font-size="14.00">EntityKeyword</text>
<text text-anchor="middle" x="221" y="-83.3" font-family="Times New Roman,serif" font-size="14.00">entity</text>
</g>
<!-- T_0&#45;&gt;T_1 -->
<g id="edge12" class="edge"><title>T_0&#45;&gt;T_1</title>
<path fill="none" stroke="black" d="M162.464,-94.5C162.631,-94.5 162.797,-94.5 162.964,-94.5"/>
<polygon fill="black" stroke="black" points="162.182,-91.0001 152.182,-94.5 162.182,-98.0001 162.182,-91.0001"/>
<polygon fill="black" stroke="black" points="160.462,-98.0001 170.462,-94.5 160.461,-91.0001 160.462,-98.0001"/>
</g>
<!-- T_1&#45;&gt;t_1 -->
<g id="edge25" class="edge"><title>T_1&#45;&gt;t_1</title>
<path fill="none" stroke="grey" stroke-dasharray="5,2" d="M222.978,-75.4551C223.862,-67.3828 224.926,-57.6764 225.912,-48.6817"/>
<polygon fill="grey" stroke="grey" points="229.407,-48.9122 227.017,-38.5904 222.449,-48.1495 229.407,-48.9122"/>
</g>
<!-- T_2 -->
<g id="node15" class="node"><title>T_2</title>
<polygon fill="none" stroke="black" points="289.5,-76.5 289.5,-112.5 396.5,-112.5 396.5,-76.5 289.5,-76.5"/>
<text text-anchor="middle" x="343" y="-90.8" font-family="Times New Roman,serif" font-size="14.00">BoundaryToken</text>
</g>
<!-- T_1&#45;&gt;T_2 -->
<g id="edge13" class="edge"><title>T_1&#45;&gt;T_2</title>
<path fill="none" stroke="black" d="M281.568,-94.5C281.731,-94.5 281.894,-94.5 282.057,-94.5"/>
<polygon fill="black" stroke="black" points="281.516,-91.0001 271.516,-94.5 281.516,-98.0001 281.516,-91.0001"/>
<polygon fill="black" stroke="black" points="279.387,-98.0001 289.387,-94.5 279.387,-91.0001 279.387,-98.0001"/>
</g>
<!-- T_2&#45;&gt;t_2 -->
<g id="edge26" class="edge"><title>T_2&#45;&gt;t_2</title>
<path fill="none" stroke="grey" stroke-dasharray="5,2" d="M343,-76.2C343,-67.7452 343,-57.3688 343,-47.8732"/>
<polygon fill="grey" stroke="grey" points="346.5,-47.6758 343,-37.6758 339.5,-47.6758 346.5,-47.6758"/>
</g>
<!-- T_3 -->
<g id="node16" class="node"><title>T_3</title>
<polygon fill="none" stroke="black" points="415,-75.5 415,-113.5 517,-113.5 517,-75.5 415,-75.5"/>
<text text-anchor="middle" x="466" y="-98.3" font-family="Times New Roman,serif" font-size="14.00">IdentifierToken</text>
<text text-anchor="middle" x="466" y="-83.3" font-family="Times New Roman,serif" font-size="14.00">myEntity</text>
</g>
<!-- T_2&#45;&gt;T_3 -->
<g id="edge14" class="edge"><title>T_2&#45;&gt;T_3</title>
<path fill="none" stroke="black" d="M406.998,-94.5C407.163,-94.5 407.328,-94.5 407.493,-94.5"/>
<polygon fill="black" stroke="black" points="406.813,-91.0001 396.813,-94.5 406.812,-98.0001 406.813,-91.0001"/>
<polygon fill="black" stroke="black" points="404.92,-98.0001 414.92,-94.5 404.92,-91.0001 404.92,-98.0001"/>
</g>
<!-- T_3&#45;&gt;t_3 -->
<g id="edge27" class="edge"><title>T_3&#45;&gt;t_3</title>
<path fill="none" stroke="grey" stroke-dasharray="5,2" d="M466,-75.4551C466,-67.3828 466,-57.6764 466,-48.6817"/>
<polygon fill="grey" stroke="grey" points="469.5,-48.5903 466,-38.5904 462.5,-48.5904 469.5,-48.5903"/>
</g>
<!-- T_4 -->
<g id="node17" class="node"><title>T_4</title>
<polygon fill="none" stroke="black" points="535.5,-76.5 535.5,-112.5 642.5,-112.5 642.5,-76.5 535.5,-76.5"/>
<text text-anchor="middle" x="589" y="-90.8" font-family="Times New Roman,serif" font-size="14.00">BoundaryToken</text>
</g>
<!-- T_3&#45;&gt;T_4 -->
<g id="edge15" class="edge"><title>T_3&#45;&gt;T_4</title>
<path fill="none" stroke="black" d="M527.477,-94.5C527.641,-94.5 527.804,-94.5 527.967,-94.5"/>
<polygon fill="black" stroke="black" points="527.41,-91.0001 517.41,-94.5 527.41,-98.0001 527.41,-91.0001"/>
<polygon fill="black" stroke="black" points="525.308,-98.0001 535.308,-94.5 525.308,-91.0001 525.308,-98.0001"/>
</g>
<!-- T_4&#45;&gt;t_4 -->
<g id="edge28" class="edge"><title>T_4&#45;&gt;t_4</title>
<path fill="none" stroke="grey" stroke-dasharray="5,2" d="M589,-76.2C589,-67.7452 589,-57.3688 589,-47.8732"/>
<polygon fill="grey" stroke="grey" points="592.5,-47.6758 589,-37.6758 585.5,-47.6758 592.5,-47.6758"/>
</g>
<!-- T_5 -->
<g id="node18" class="node"><title>T_5</title>
<polygon fill="none" stroke="black" points="660.5,-75.5 660.5,-113.5 739.5,-113.5 739.5,-75.5 660.5,-75.5"/>
<text text-anchor="middle" x="700" y="-98.3" font-family="Times New Roman,serif" font-size="14.00">IsKeyword</text>
<text text-anchor="middle" x="700" y="-83.3" font-family="Times New Roman,serif" font-size="14.00">is</text>
</g>
<!-- T_4&#45;&gt;T_5 -->
<g id="edge16" class="edge"><title>T_4&#45;&gt;T_5</title>
<path fill="none" stroke="black" d="M652.847,-94.5C653.001,-94.5 653.154,-94.5 653.307,-94.5"/>
<polygon fill="black" stroke="black" points="652.766,-91.0001 642.766,-94.5 652.766,-98.0001 652.766,-91.0001"/>
<polygon fill="black" stroke="black" points="650.204,-98.0001 660.204,-94.5 650.204,-91.0001 650.204,-98.0001"/>
</g>
<!-- T_5&#45;&gt;t_5 -->
<g id="edge29" class="edge"><title>T_5&#45;&gt;t_5</title>
<path fill="none" stroke="grey" stroke-dasharray="5,2" d="M699.011,-75.4551C698.569,-67.3828 698.037,-57.6764 697.544,-48.6817"/>
<polygon fill="grey" stroke="grey" points="701.033,-48.3839 696.991,-38.5904 694.044,-48.7669 701.033,-48.3839"/>
</g>
<!-- T_6 -->
<g id="node19" class="node"><title>T_6</title>
<polygon fill="none" stroke="black" points="757.5,-76.5 757.5,-112.5 866.5,-112.5 866.5,-76.5 757.5,-76.5"/>
<text text-anchor="middle" x="812" y="-90.8" font-family="Times New Roman,serif" font-size="14.00">LineBreakToken</text>
</g>
<!-- T_5&#45;&gt;T_6 -->
<g id="edge17" class="edge"><title>T_5&#45;&gt;T_6</title>
<path fill="none" stroke="black" d="M749.92,-94.5C750.073,-94.5 750.227,-94.5 750.381,-94.5"/>
<polygon fill="black" stroke="black" points="749.813,-91.0001 739.813,-94.5 749.812,-98.0001 749.813,-91.0001"/>
<polygon fill="black" stroke="black" points="747.295,-98.0001 757.295,-94.5 747.295,-91.0001 747.295,-98.0001"/>
</g>
<!-- T_6&#45;&gt;t_6 -->
<g id="edge30" class="edge"><title>T_6&#45;&gt;t_6</title>
<path fill="none" stroke="grey" stroke-dasharray="5,2" d="M812,-76.2C812,-67.7452 812,-57.3688 812,-47.8732"/>
<polygon fill="grey" stroke="grey" points="815.5,-47.6758 812,-37.6758 808.5,-47.6758 815.5,-47.6758"/>
</g>
<!-- T_7 -->
<g id="node20" class="node"><title>T_7</title>
<polygon fill="none" stroke="black" points="884.5,-76.5 884.5,-112.5 999.5,-112.5 999.5,-76.5 884.5,-76.5"/>
<text text-anchor="middle" x="942" y="-90.8" font-family="Times New Roman,serif" font-size="14.00">IndentationToken</text>
</g>
<!-- T_6&#45;&gt;T_7 -->
<g id="edge18" class="edge"><title>T_6&#45;&gt;T_7</title>
<path fill="none" stroke="black" d="M876.808,-94.5C876.963,-94.5 877.118,-94.5 877.274,-94.5"/>
<polygon fill="black" stroke="black" points="876.59,-91.0001 866.59,-94.5 876.59,-98.0001 876.59,-91.0001"/>
<polygon fill="black" stroke="black" points="874.264,-98.0001 884.264,-94.5 874.264,-91.0001 874.264,-98.0001"/>
</g>
<!-- T_7&#45;&gt;t_7 -->
<g id="edge31" class="edge"><title>T_7&#45;&gt;t_7</title>
<path fill="none" stroke="grey" stroke-dasharray="5,2" d="M942,-76.2C942,-67.7452 942,-57.3688 942,-47.8732"/>
<polygon fill="grey" stroke="grey" points="945.5,-47.6758 942,-37.6758 938.5,-47.6758 945.5,-47.6758"/>
</g>
<!-- T_8 -->
<g id="node21" class="node"><title>T_8</title>
<polygon fill="none" stroke="black" points="1018,-75.5 1018,-113.5 1110,-113.5 1110,-75.5 1018,-75.5"/>
<text text-anchor="middle" x="1064" y="-98.3" font-family="Times New Roman,serif" font-size="14.00">PortKeyword</text>
<text text-anchor="middle" x="1064" y="-83.3" font-family="Times New Roman,serif" font-size="14.00">port</text>
</g>
<!-- T_7&#45;&gt;T_8 -->
<g id="edge19" class="edge"><title>T_7&#45;&gt;T_8</title>
<path fill="none" stroke="black" d="M1009.84,-94.5C1010.01,-94.5 1010.17,-94.5 1010.34,-94.5"/>
<polygon fill="black" stroke="black" points="1009.66,-91.0001 999.664,-94.5 1009.66,-98.0001 1009.66,-91.0001"/>
<polygon fill="black" stroke="black" points="1007.76,-98.0001 1017.76,-94.5 1007.76,-91.0001 1007.76,-98.0001"/>
</g>
<!-- T_8&#45;&gt;t_8 -->
<g id="edge32" class="edge"><title>T_8&#45;&gt;t_8</title>
<path fill="none" stroke="grey" stroke-dasharray="5,2" d="M1064,-75.4551C1064,-67.3828 1064,-57.6764 1064,-48.6817"/>
<polygon fill="grey" stroke="grey" points="1067.5,-48.5903 1064,-38.5904 1060.5,-48.5904 1067.5,-48.5903"/>
</g>
<!-- T_9 -->
<g id="node22" class="node"><title>T_9</title>
<polygon fill="none" stroke="black" points="1128.5,-76.5 1128.5,-112.5 1235.5,-112.5 1235.5,-76.5 1128.5,-76.5"/>
<text text-anchor="middle" x="1182" y="-90.8" font-family="Times New Roman,serif" font-size="14.00">BoundaryToken</text>
</g>
<!-- T_8&#45;&gt;T_9 -->
<g id="edge20" class="edge"><title>T_8&#45;&gt;T_9</title>
<path fill="none" stroke="black" d="M1120.36,-94.5C1120.53,-94.5 1120.7,-94.5 1120.86,-94.5"/>
<polygon fill="black" stroke="black" points="1120.09,-91.0001 1110.09,-94.5 1120.09,-98.0001 1120.09,-91.0001"/>
<polygon fill="black" stroke="black" points="1118.35,-98.0001 1128.35,-94.5 1118.35,-91.0001 1118.35,-98.0001"/>
</g>
<!-- T_9&#45;&gt;t_9 -->
<g id="edge33" class="edge"><title>T_9&#45;&gt;t_9</title>
<path fill="none" stroke="grey" stroke-dasharray="5,2" d="M1182,-76.2C1182,-67.7452 1182,-57.3688 1182,-47.8732"/>
<polygon fill="grey" stroke="grey" points="1185.5,-47.6758 1182,-37.6758 1178.5,-47.6758 1185.5,-47.6758"/>
</g>
<!-- T_10 -->
<g id="node23" class="node"><title>T_10</title>
<polygon fill="none" stroke="black" points="1253.5,-75.5 1253.5,-113.5 1360.5,-113.5 1360.5,-75.5 1253.5,-75.5"/>
<text text-anchor="middle" x="1307" y="-98.3" font-family="Times New Roman,serif" font-size="14.00">CharacterToken</text>
<text text-anchor="middle" x="1307" y="-83.3" font-family="Times New Roman,serif" font-size="14.00">(</text>
</g>
<!-- T_9&#45;&gt;T_10 -->
<g id="edge21" class="edge"><title>T_9&#45;&gt;T_10</title>
<path fill="none" stroke="black" d="M1245.85,-94.5C1246.01,-94.5 1246.16,-94.5 1246.32,-94.5"/>
<polygon fill="black" stroke="black" points="1245.71,-91.0001 1235.71,-94.5 1245.71,-98.0001 1245.71,-91.0001"/>
<polygon fill="black" stroke="black" points="1243.25,-98.0001 1253.25,-94.5 1243.25,-91.0001 1243.25,-98.0001"/>
</g>
<!-- T_10&#45;&gt;t_10 -->
<g id="edge34" class="edge"><title>T_10&#45;&gt;t_10</title>
<path fill="none" stroke="grey" stroke-dasharray="5,2" d="M1307,-75.4551C1307,-67.3828 1307,-57.6764 1307,-48.6817"/>
<polygon fill="grey" stroke="grey" points="1310.5,-48.5903 1307,-38.5904 1303.5,-48.5904 1310.5,-48.5903"/>
</g>
<!-- T_11 -->
<g id="node24" class="node"><title>T_11</title>
<polygon fill="none" stroke="black" points="1378.5,-76.5 1378.5,-112.5 1487.5,-112.5 1487.5,-76.5 1378.5,-76.5"/>
<text text-anchor="middle" x="1433" y="-90.8" font-family="Times New Roman,serif" font-size="14.00">LineBreakToken</text>
</g>
<!-- T_10&#45;&gt;T_11 -->
<g id="edge22" class="edge"><title>T_10&#45;&gt;T_11</title>
<path fill="none" stroke="black" d="M1370.66,-94.5C1370.83,-94.5 1370.99,-94.5 1371.15,-94.5"/>
<polygon fill="black" stroke="black" points="1370.65,-91.0001 1360.65,-94.5 1370.65,-98.0001 1370.65,-91.0001"/>
<polygon fill="black" stroke="black" points="1368.45,-98.0001 1378.45,-94.5 1368.45,-91.0001 1368.45,-98.0001"/>
</g>
<!-- T_11&#45;&gt;t_11 -->
<g id="edge35" class="edge"><title>T_11&#45;&gt;t_11</title>
<path fill="none" stroke="grey" stroke-dasharray="5,2" d="M1433,-76.2C1433,-67.7452 1433,-57.3688 1433,-47.8732"/>
<polygon fill="grey" stroke="grey" points="1436.5,-47.6758 1433,-37.6758 1429.5,-47.6758 1436.5,-47.6758"/>
</g>
<!-- T_12 -->
<g id="node25" class="node"><title>T_12</title>
<polygon fill="none" stroke="black" points="1505.5,-76.5 1505.5,-112.5 1620.5,-112.5 1620.5,-76.5 1505.5,-76.5"/>
<text text-anchor="middle" x="1563" y="-90.8" font-family="Times New Roman,serif" font-size="14.00">IndentationToken</text>
</g>
<!-- T_11&#45;&gt;T_12 -->
<g id="edge23" class="edge"><title>T_11&#45;&gt;T_12</title>
<path fill="none" stroke="black" d="M1497.81,-94.5C1497.96,-94.5 1498.12,-94.5 1498.27,-94.5"/>
<polygon fill="black" stroke="black" points="1497.59,-91.0001 1487.59,-94.5 1497.59,-98.0001 1497.59,-91.0001"/>
<polygon fill="black" stroke="black" points="1495.26,-98.0001 1505.26,-94.5 1495.26,-91.0001 1495.26,-98.0001"/>
</g>
<!-- T_12&#45;&gt;t_12 -->
<g id="edge36" class="edge"><title>T_12&#45;&gt;t_12</title>
<path fill="none" stroke="grey" stroke-dasharray="5,2" d="M1563,-76.2C1563,-67.7452 1563,-57.3688 1563,-47.8732"/>
<polygon fill="grey" stroke="grey" points="1566.5,-47.6758 1563,-37.6758 1559.5,-47.6758 1566.5,-47.6758"/>
</g>
<!-- T_00 -->
<g id="node26" class="node"><title>T_00</title>
<polygon fill="none" stroke="black" points="1639,-76.5 1639,-112.5 1787,-112.5 1787,-76.5 1639,-76.5"/>
<text text-anchor="middle" x="1713" y="-90.8" font-family="Times New Roman,serif" font-size="14.00">EndOfDocumentToken</text>
</g>
<!-- T_12&#45;&gt;T_00 -->
<g id="edge24" class="edge"><title>T_12&#45;&gt;T_00</title>
<path fill="none" stroke="black" d="M1630.85,-94.5C1631.02,-94.5 1631.18,-94.5 1631.35,-94.5"/>
<polygon fill="black" stroke="black" points="1630.71,-91.0001 1620.71,-94.5 1630.71,-98.0001 1630.71,-91.0001"/>
<polygon fill="black" stroke="black" points="1628.74,-98.0001 1638.74,-94.5 1628.74,-91.0001 1628.74,-98.0001"/>
</g>
<!-- b_0 -->
<g id="node27" class="node"><title>b_0</title>
<polygon fill="none" stroke="black" points="462.5,-151.5 462.5,-187.5 611.5,-187.5 611.5,-151.5 462.5,-151.5"/>
<text text-anchor="middle" x="537" y="-165.8" font-family="Times New Roman,serif" font-size="14.00">StartOfDocumentBlock</text>
</g>
<!-- b_0&#45;&gt;T_0 -->
<g id="edge44" class="edge"><title>b_0&#45;&gt;T_0</title>
<path fill="none" stroke="black" d="M462.42,-156.69C380.303,-143.687 248.484,-122.813 162.054,-109.127"/>
<polygon fill="black" stroke="black" points="162.431,-105.643 152.007,-107.536 161.336,-112.557 162.431,-105.643"/>
</g>
<!-- b_1 -->
<g id="node28" class="node"><title>b_1</title>
<polygon fill="none" stroke="black" points="630.5,-150.5 630.5,-188.5 743.5,-188.5 743.5,-150.5 630.5,-150.5"/>
<text text-anchor="middle" x="687" y="-173.3" font-family="Times New Roman,serif" font-size="14.00">EntityBlock</text>
<text text-anchor="middle" x="687" y="-158.3" font-family="Times New Roman,serif" font-size="14.00">entity myEntity is</text>
</g>
<!-- b_0&#45;&gt;b_1 -->
<g id="edge37" class="edge"><title>b_0&#45;&gt;b_1</title>
<path fill="none" stroke="black" d="M621.84,-169.5C621.928,-169.5 622.015,-169.5 622.103,-169.5"/>
<polygon fill="black" stroke="black" points="621.707,-166 611.707,-169.5 621.707,-173 621.707,-166"/>
<polygon fill="black" stroke="black" points="620.236,-173 630.236,-169.5 620.236,-166 620.236,-173"/>
</g>
<!-- b_1&#45;&gt;T_1 -->
<g id="edge45" class="edge"><title>b_1&#45;&gt;T_1</title>
<path fill="none" stroke="black" d="M630.325,-159.622C542.041,-145.792 372.421,-119.22 281.721,-105.012"/>
<polygon fill="black" stroke="black" points="282.017,-101.516 271.596,-103.426 280.933,-108.431 282.017,-101.516"/>
</g>
<!-- b_1&#45;&gt;T_5 -->
<g id="edge46" class="edge"><title>b_1&#45;&gt;T_5</title>
<path fill="none" stroke="black" d="M690.213,-150.455C691.651,-142.383 693.38,-132.676 694.981,-123.682"/>
<polygon fill="black" stroke="black" points="698.471,-124.049 696.778,-113.59 691.579,-122.822 698.471,-124.049"/>
</g>
<!-- b_2 -->
<g id="node29" class="node"><title>b_2</title>
<polygon fill="none" stroke="black" points="762,-151.5 762,-187.5 866,-187.5 866,-151.5 762,-151.5"/>
<text text-anchor="middle" x="814" y="-165.8" font-family="Times New Roman,serif" font-size="14.00">LinebreakBlock</text>
</g>
<!-- b_1&#45;&gt;b_2 -->
<g id="edge38" class="edge"><title>b_1&#45;&gt;b_2</title>
<path fill="none" stroke="black" d="M753.637,-169.5C753.724,-169.5 753.811,-169.5 753.898,-169.5"/>
<polygon fill="black" stroke="black" points="753.555,-166 743.555,-169.5 753.555,-173 753.555,-166"/>
<polygon fill="black" stroke="black" points="751.992,-173 761.992,-169.5 751.992,-166 751.992,-173"/>
</g>
<!-- b_2&#45;&gt;T_6 -->
<g id="edge47" class="edge"><title>b_2&#45;&gt;T_6</title>
<path fill="none" stroke="black" d="M813.526,-151.2C813.294,-142.745 813.01,-132.369 812.75,-122.873"/>
<polygon fill="black" stroke="black" points="816.243,-122.576 812.471,-112.676 809.246,-122.768 816.243,-122.576"/>
</g>
<!-- b_3 -->
<g id="node30" class="node"><title>b_3</title>
<polygon fill="none" stroke="black" points="886,-151.5 886,-187.5 998,-187.5 998,-151.5 886,-151.5"/>
<text text-anchor="middle" x="942" y="-165.8" font-family="Times New Roman,serif" font-size="14.00">IndentationBlock</text>
</g>
<!-- b_2&#45;&gt;b_3 -->
<g id="edge39" class="edge"><title>b_2&#45;&gt;b_3</title>
<path fill="none" stroke="black" d="M876.537,-169.5C876.635,-169.5 876.733,-169.5 876.831,-169.5"/>
<polygon fill="black" stroke="black" points="876.5,-166 866.5,-169.5 876.5,-173 876.5,-166"/>
<polygon fill="black" stroke="black" points="875.965,-173 885.965,-169.5 875.965,-166 875.965,-173"/>
</g>
<!-- b_3&#45;&gt;T_7 -->
<g id="edge48" class="edge"><title>b_3&#45;&gt;T_7</title>
<path fill="none" stroke="black" d="M942,-151.2C942,-142.745 942,-132.369 942,-122.873"/>
<polygon fill="black" stroke="black" points="945.5,-122.676 942,-112.676 938.5,-122.676 945.5,-122.676"/>
</g>
<!-- b_4 -->
<g id="node31" class="node"><title>b_4</title>
<polygon fill="none" stroke="black" points="1158,-150.5 1158,-188.5 1212,-188.5 1212,-150.5 1158,-150.5"/>
<text text-anchor="middle" x="1185" y="-173.3" font-family="Times New Roman,serif" font-size="14.00">Port</text>
<text text-anchor="middle" x="1185" y="-158.3" font-family="Times New Roman,serif" font-size="14.00">port (</text>
</g>
<!-- b_3&#45;&gt;b_4 -->
<g id="edge40" class="edge"><title>b_3&#45;&gt;b_4</title>
<path fill="none" stroke="black" d="M1008.31,-169.5C1054.79,-169.5 1101.27,-169.5 1147.74,-169.5"/>
<polygon fill="black" stroke="black" points="1008,-166 998.004,-169.5 1008,-173 1008,-166"/>
<polygon fill="black" stroke="black" points="1147.97,-173 1157.97,-169.5 1147.97,-166 1147.97,-173"/>
</g>
<!-- b_4&#45;&gt;T_8 -->
<g id="edge49" class="edge"><title>b_4&#45;&gt;T_8</title>
<path fill="none" stroke="black" d="M1157.85,-152.117C1141.71,-142.381 1120.96,-129.866 1103.08,-119.08"/>
<polygon fill="black" stroke="black" points="1104.41,-115.79 1094.04,-113.621 1100.79,-121.784 1104.41,-115.79"/>
</g>
<!-- b_4&#45;&gt;T_10 -->
<g id="edge50" class="edge"><title>b_4&#45;&gt;T_10</title>
<path fill="none" stroke="black" d="M1212.08,-152.299C1228.48,-142.48 1249.7,-129.788 1267.9,-118.893"/>
<polygon fill="black" stroke="black" points="1269.78,-121.847 1276.57,-113.709 1266.19,-115.84 1269.78,-121.847"/>
</g>
<!-- b_5 -->
<g id="node32" class="node"><title>b_5</title>
<polygon fill="none" stroke="black" points="1381,-151.5 1381,-187.5 1485,-187.5 1485,-151.5 1381,-151.5"/>
<text text-anchor="middle" x="1433" y="-165.8" font-family="Times New Roman,serif" font-size="14.00">LinebreakBlock</text>
</g>
<!-- b_4&#45;&gt;b_5 -->
<g id="edge41" class="edge"><title>b_4&#45;&gt;b_5</title>
<path fill="none" stroke="black" d="M1222.34,-169.5C1271.75,-169.5 1321.17,-169.5 1370.59,-169.5"/>
<polygon fill="black" stroke="black" points="1222.13,-166 1212.13,-169.5 1222.12,-173 1222.13,-166"/>
<polygon fill="black" stroke="black" points="1370.8,-173 1380.8,-169.5 1370.8,-166 1370.8,-173"/>
</g>
<!-- b_5&#45;&gt;T_11 -->
<g id="edge51" class="edge"><title>b_5&#45;&gt;T_11</title>
<path fill="none" stroke="black" d="M1433,-151.2C1433,-142.745 1433,-132.369 1433,-122.873"/>
<polygon fill="black" stroke="black" points="1436.5,-122.676 1433,-112.676 1429.5,-122.676 1436.5,-122.676"/>
</g>
<!-- b_6 -->
<g id="node33" class="node"><title>b_6</title>
<polygon fill="none" stroke="black" points="1505,-151.5 1505,-187.5 1617,-187.5 1617,-151.5 1505,-151.5"/>
<text text-anchor="middle" x="1561" y="-165.8" font-family="Times New Roman,serif" font-size="14.00">IndentationBlock</text>
</g>
<!-- b_5&#45;&gt;b_6 -->
<g id="edge42" class="edge"><title>b_5&#45;&gt;b_6</title>
<path fill="none" stroke="black" d="M1495.54,-169.5C1495.63,-169.5 1495.73,-169.5 1495.83,-169.5"/>
<polygon fill="black" stroke="black" points="1495.5,-166 1485.5,-169.5 1495.5,-173 1495.5,-166"/>
<polygon fill="black" stroke="black" points="1494.96,-173 1504.96,-169.5 1494.96,-166 1494.96,-173"/>
</g>
<!-- b_6&#45;&gt;T_12 -->
<g id="edge52" class="edge"><title>b_6&#45;&gt;T_12</title>
<path fill="none" stroke="black" d="M1561.47,-151.2C1561.71,-142.745 1561.99,-132.369 1562.25,-122.873"/>
<polygon fill="black" stroke="black" points="1565.75,-122.768 1562.53,-112.676 1558.76,-122.576 1565.75,-122.768"/>
</g>
<!-- b_00 -->
<g id="node34" class="node"><title>b_00</title>
<polygon fill="none" stroke="black" points="1635.5,-151.5 1635.5,-187.5 1780.5,-187.5 1780.5,-151.5 1635.5,-151.5"/>
<text text-anchor="middle" x="1708" y="-165.8" font-family="Times New Roman,serif" font-size="14.00">EndOfDocumentBlock</text>
</g>
<!-- b_6&#45;&gt;b_00 -->
<g id="edge43" class="edge"><title>b_6&#45;&gt;b_00</title>
<path fill="none" stroke="black" d="M1627.44,-169.5C1627.61,-169.5 1627.77,-169.5 1627.93,-169.5"/>
<polygon fill="black" stroke="black" points="1627.27,-166 1617.27,-169.5 1627.27,-173 1627.27,-166"/>
<polygon fill="black" stroke="black" points="1625.35,-173 1635.35,-169.5 1625.35,-166 1625.35,-173"/>
</g>
<!-- b_00&#45;&gt;T_00 -->
<g id="edge53" class="edge"><title>b_00&#45;&gt;T_00</title>
<path fill="none" stroke="black" d="M1709.18,-151.2C1709.76,-142.745 1710.47,-132.369 1711.13,-122.873"/>
<polygon fill="black" stroke="black" points="1714.63,-122.892 1711.82,-112.676 1707.65,-122.413 1714.63,-122.892"/>
</g>
<!-- g_0 -->
<g id="node35" class="node"><title>g_0</title>
<polygon fill="none" stroke="black" points="461,-226.5 461,-262.5 613,-262.5 613,-226.5 461,-226.5"/>
<text text-anchor="middle" x="537" y="-240.8" font-family="Times New Roman,serif" font-size="14.00">StartOfDocumentGroup</text>
</g>
<!-- g_0&#45;&gt;b_0 -->
<g id="edge56" class="edge"><title>g_0&#45;&gt;b_0</title>
<path fill="none" stroke="black" d="M537,-226.2C537,-217.745 537,-207.369 537,-197.873"/>
<polygon fill="black" stroke="black" points="540.5,-197.676 537,-187.676 533.5,-197.676 540.5,-197.676"/>
</g>
<!-- g_1 -->
<g id="node36" class="node"><title>g_1</title>
<polygon fill="none" stroke="black" points="631.5,-225.5 631.5,-263.5 744.5,-263.5 744.5,-225.5 631.5,-225.5"/>
<text text-anchor="middle" x="688" y="-248.3" font-family="Times New Roman,serif" font-size="14.00">EntityGroup</text>
<text text-anchor="middle" x="688" y="-233.3" font-family="Times New Roman,serif" font-size="14.00">entity myEntity is</text>
</g>
<!-- g_0&#45;&gt;g_1 -->
<g id="edge54" class="edge"><title>g_0&#45;&gt;g_1</title>
<path fill="none" stroke="black" d="M623.295,-244.5C623.46,-244.5 623.626,-244.5 623.791,-244.5"/>
<polygon fill="black" stroke="black" points="623.09,-241 613.09,-244.5 623.09,-248 623.09,-241"/>
<polygon fill="black" stroke="black" points="621.232,-248 631.232,-244.5 621.232,-241 621.232,-248"/>
</g>
<!-- g_1&#45;&gt;b_1 -->
<g id="edge57" class="edge"><title>g_1&#45;&gt;b_1</title>
<path fill="none" stroke="black" d="M687.753,-225.455C687.642,-217.383 687.509,-207.676 687.386,-198.682"/>
<polygon fill="black" stroke="black" points="690.885,-198.541 687.248,-188.59 683.885,-198.637 690.885,-198.541"/>
</g>
<!-- g_00 -->
<g id="node37" class="node"><title>g_00</title>
<polygon fill="none" stroke="black" points="1198.5,-226.5 1198.5,-262.5 1343.5,-262.5 1343.5,-226.5 1198.5,-226.5"/>
<text text-anchor="middle" x="1271" y="-240.8" font-family="Times New Roman,serif" font-size="14.00">EndOfDocumentBlock</text>
</g>
<!-- g_1&#45;&gt;g_00 -->
<g id="edge55" class="edge"><title>g_1&#45;&gt;g_00</title>
<path fill="none" stroke="black" d="M754.838,-244.5C899.183,-244.5 1043.53,-244.5 1187.87,-244.5"/>
<polygon fill="black" stroke="black" points="754.649,-241 744.649,-244.5 754.649,-248 754.649,-241"/>
<polygon fill="black" stroke="black" points="1188.27,-248 1198.27,-244.5 1188.27,-241 1188.27,-248"/>
</g>
<!-- g_00&#45;&gt;b_00 -->
<g id="edge58" class="edge"><title>g_00&#45;&gt;b_00</title>
<path fill="none" stroke="black" d="M1343.65,-231.364C1421.16,-218.417 1543.72,-197.943 1624.98,-184.368"/>
<polygon fill="black" stroke="black" points="1625.89,-187.765 1635.17,-182.665 1624.73,-180.861 1625.89,-187.765"/>
</g>
</g>
</svg>
