<?xml version="1.0" encoding="UTF-8" standalone="no"?>
<!DOCTYPE svg PUBLIC "-//W3C//DTD SVG 1.1//EN"
 "http://www.w3.org/Graphics/SVG/1.1/DTD/svg11.dtd">
<!-- Generated by graphviz version 8.0.5 (20230430.1635)
 -->
<!-- Title: State transitions of Tokenizer Pages: 1 -->
<svg width="1527pt" height="1116060pt"
 viewBox="0.00 0.00 1527.49 1116060.37" xmlns="http://www.w3.org/2000/svg" xmlns:xlink="http://www.w3.org/1999/xlink">
<g id="graph0" class="graph" transform="scale(1 1) rotate(0) translate(4 1116056.37)">
<title>State transitions of Tokenizer</title>
<polygon fill="white" stroke="none" points="-4,4 -4,-1116056.37 1523.49,-1116056.37 1523.49,4 -4,4"/>
<!-- n00 -->
<g id="node1" class="node">
<title>n00</title>
<ellipse fill="black" stroke="black" cx="901.65" cy="-1050529.37" rx="1.8" ry="1.8"/>
</g>
<!-- n15 -->
<g id="node16" class="node">
<title>n15</title>
<ellipse fill="none" stroke="black" cx="1343.77" cy="-1116034.37" rx="53.04" ry="18"/>
<text text-anchor="middle" x="1343.77" y="-1116026.32" font-family="Times,serif" font-size="14.00">OtherChars</text>
</g>
<!-- n00&#45;&gt;n15 -->
<g id="edge1" class="edge">
<title>n00&#45;&gt;n15</title>
<path fill="none" stroke="black" d="M903.58,-1050529.27C918.77,-1050527.58 1113.84,-1050506.75 1150.06,-1050545.37 1188.93,-1050586.83 1130.46,-1115969.76 1168.06,-1116012.37 1196.71,-1116044.85 1247.16,-1116048.12 1286.51,-1116044.56"/>
<polygon fill="black" stroke="black" points="1286.72,-1116047.95 1296.29,-1116043.4 1285.97,-1116040.99 1286.72,-1116047.95"/>
</g>
<!-- n01 -->
<g id="node2" class="node">
<title>n01</title>
<ellipse fill="none" stroke="black" cx="96.17" cy="-919525.37" rx="53.04" ry="18"/>
<text text-anchor="middle" x="96.17" y="-919517.32" font-family="Times,serif" font-size="14.00">SpaceChars</text>
</g>
<!-- n01&#45;&gt;n01 -->
<g id="edge2" class="edge">
<title>n01&#45;&gt;n01</title>
<path fill="none" stroke="black" d="M69.98,-919541.29C63.15,-919551.52 71.88,-919561.37 96.17,-919561.37 111.35,-919561.37 120.45,-919557.53 123.48,-919552.14"/>
<polygon fill="black" stroke="black" points="126.86,-919551.88 122.35,-919542.29 119.9,-919552.6 126.86,-919551.88"/>
<text text-anchor="middle" x="96.17" y="-919558.57" font-family="Times,serif" font-size="14.00">WHITESPACE</text>
</g>
<!-- n02 -->
<g id="node3" class="node">
<title>n02</title>
<ellipse fill="none" stroke="black" cx="360.74" cy="-919525.37" rx="57.41" ry="18"/>
<text text-anchor="middle" x="360.74" y="-919517.32" font-family="Times,serif" font-size="14.00">NumberChars</text>
</g>
<!-- n01&#45;&gt;n02 -->
<g id="edge3" class="edge">
<title>n01&#45;&gt;n02</title>
<path fill="none" stroke="black" d="M149.67,-919525.37C190.65,-919525.37 247.87,-919525.37 292.25,-919525.37"/>
<polygon fill="black" stroke="black" points="292.24,-919528.87 302.24,-919525.37 292.24,-919521.87 292.24,-919528.87"/>
<text text-anchor="middle" x="247.83" y="-919522.57" font-family="Times,serif" font-size="14.00">NUMBER</text>
</g>
<!-- n03 -->
<g id="node4" class="node">
<title>n03</title>
<ellipse fill="none" stroke="black" cx="582.19" cy="-919525.37" rx="53.04" ry="18"/>
<text text-anchor="middle" x="582.19" y="-919517.32" font-family="Times,serif" font-size="14.00">AlphaChars</text>
</g>
<!-- n01&#45;&gt;n03 -->
<g id="edge4" class="edge">
<title>n01&#45;&gt;n03</title>
<path fill="none" stroke="black" d="M124.58,-919540.96C179.93,-919570.47 309.08,-919629.41 418.15,-919604.37 465.8,-919593.44 515.69,-919566.66 547.53,-919547.31"/>
<polygon fill="black" stroke="black" points="549.15,-919549.81 555.81,-919541.57 545.47,-919543.85 549.15,-919549.81"/>
<text text-anchor="middle" x="360.74" y="-919608.57" font-family="Times,serif" font-size="14.00">ALPHA</text>
</g>
<!-- n05 -->
<g id="node6" class="node">
<title>n05</title>
<ellipse fill="none" stroke="black" cx="901.65" cy="-919608.37" rx="170.41" ry="788486.61"/>
<text text-anchor="middle" x="901.65" y="-1477135.3" font-family="Times,serif" font-size="14.00">PossibleSingleLineCommentStart</text>
</g>
<!-- n01&#45;&gt;n05 -->
<g id="edge7" class="edge">
<title>n01&#45;&gt;n05</title>
<path fill="none" stroke="black" d="M129.62,-919511C151.87,-919501.88 182.31,-919490.8 210.33,-919485.37 429.77,-919442.86 503.49,-919412.12 713.23,-919489.37 715.8,-919490.32 718.38,-919491.31 720.95,-919492.33"/>
<polygon fill="black" stroke="black" points="719.29,-919495.84 729.87,-919496.45 721.97,-919489.38 719.29,-919495.84"/>
<text text-anchor="middle" x="473.65" y="-919441.57" font-family="Times,serif" font-size="14.00">&#45;</text>
</g>
<!-- n06 -->
<g id="node7" class="node">
<title>n06</title>
<ellipse fill="none" stroke="black" cx="1343.77" cy="-788239.37" rx="101.47" ry="788239.37"/>
<text text-anchor="middle" x="1343.77" y="-1345591.48" font-family="Times,serif" font-size="14.00">PossibleLinebreak</text>
</g>
<!-- n01&#45;&gt;n06 -->
<g id="edge8" class="edge">
<title>n01&#45;&gt;n06</title>
<path fill="none" stroke="black" d="M97.18,-919507.13C98.61,-917978.9 189.92,-820930.37 359.74,-820930.37 359.74,-820930.37 359.74,-820930.37 902.65,-820930.37 1073.17,-820930.37 1177.69,-816320.06 1241.73,-810562.11"/>
<polygon fill="black" stroke="black" points="1245.24,-810562.34 1241.85,-810552.3 1238.24,-810562.26 1245.24,-810562.34"/>
<text text-anchor="middle" x="582.19" y="-820927.57" font-family="Times,serif" font-size="14.00">\r</text>
</g>
<!-- n07 -->
<g id="node8" class="node">
<title>n07</title>
<ellipse fill="none" stroke="black" cx="1343.77" cy="-853774.37" rx="138.59" ry="29.97"/>
<text text-anchor="middle" x="1343.77" y="-853778.27" font-family="Times,serif" font-size="14.00">PossibleCharacterLiteral</text>
</g>
<!-- n01&#45;&gt;n07 -->
<g id="edge5" class="edge">
<title>n01&#45;&gt;n07</title>
<path fill="none" stroke="black" d="M97.18,-919507.23C97.85,-918269.35 132.92,-854086.44 210.33,-853874.37 245.75,-853777.35 256.46,-853696.37 359.74,-853696.37 359.74,-853696.37 359.74,-853696.37 684.23,-853696.37 876.19,-853696.37 1097.46,-853729.46 1228.42,-853752.54"/>
<polygon fill="black" stroke="black" points="1227.4,-853756.09 1237.86,-853754.39 1228.63,-853749.2 1227.4,-853756.09"/>
<text text-anchor="middle" x="582.19" y="-853717.46" font-family="Times,serif" font-size="14.00">&#39;</text>
</g>
<!-- n08 -->
<g id="node9" class="node">
<title>n08</title>
<ellipse fill="none" stroke="black" cx="1343.77" cy="-853894.37" rx="149.2" ry="18.38"/>
<text text-anchor="middle" x="1343.77" y="-853890.07" font-family="Times,serif" font-size="14.00">PossibleStringLiteralStart</text>
</g>
<!-- n01&#45;&gt;n08 -->
<g id="edge6" class="edge">
<title>n01&#45;&gt;n08</title>
<path fill="none" stroke="black" d="M97.18,-919507.19C97.86,-918266.57 134.22,-853942.37 359.74,-853942.37 359.74,-853942.37 359.74,-853942.37 684.23,-853942.37 787.76,-853942.37 1055.26,-853976.99 1150.06,-853935.37 1160.71,-853930.7 1157.68,-853921.63 1168.06,-853916.37 1177.07,-853911.81 1186.66,-853908.06 1196.53,-853904.99"/>
<polygon fill="black" stroke="black" points="1197.26,-853908.13 1205.91,-853902.02 1195.34,-853901.4 1197.26,-853908.13"/>
<text text-anchor="middle" x="582.19" y="-853939.57" font-family="Times,serif" font-size="14.00">&quot;</text>
</g>
<!-- n09 -->
<g id="node10" class="node">
<title>n09</title>
<ellipse fill="none" stroke="black" cx="1343.77" cy="-1050499.37" rx="175.72" ry="788485.89"/>
<text text-anchor="middle" x="1343.77" y="-1608025.79" font-family="Times,serif" font-size="14.00">PossibleExtendedIdentifierStart</text>
</g>
<!-- n01&#45;&gt;n09 -->
<g id="edge11" class="edge">
<title>n01&#45;&gt;n09</title>
<path fill="none" stroke="black" d="M136.56,-919537.41C157.07,-919545.9 180.31,-919559.55 192.33,-919580.37 210.91,-919612.55 210.29,-962341.22 210.33,-962378.37 210.49,-962531.36 206.76,-1050499.37 359.74,-1050499.37 359.74,-1050499.37 359.74,-1050499.37 902.65,-1050499.37 986.02,-1050499.37 1078.29,-1050499.37 1156.71,-1050499.37"/>
<polygon fill="black" stroke="black" points="1156.68,-1050502.87 1166.68,-1050499.37 1156.68,-1050495.87 1156.68,-1050502.87"/>
<text text-anchor="middle" x="582.19" y="-1050504.07" font-family="Times,serif" font-size="14.00">\\</text>
</g>
<!-- n13 -->
<g id="node14" class="node">
<title>n13</title>
<ellipse fill="none" stroke="black" cx="1343.77" cy="-853840.37" rx="48.67" ry="18"/>
<text text-anchor="middle" x="1343.77" y="-853832.32" font-family="Times,serif" font-size="14.00">Directive</text>
</g>
<!-- n01&#45;&gt;n13 -->
<g id="edge12" class="edge">
<title>n01&#45;&gt;n13</title>
<path fill="none" stroke="black" d="M97.17,-919507.25C97.49,-918371.88 113.36,-864261.16 210.33,-857435.37 216.05,-857033.29 -42.38,-853819.37 359.74,-853819.37 359.74,-853819.37 359.74,-853819.37 684.23,-853819.37 905.91,-853819.37 1169.36,-853831.41 1284.29,-853837.26"/>
<polygon fill="black" stroke="black" points="1284.11,-853840.8 1294.27,-853837.82 1284.46,-853833.81 1284.11,-853840.8"/>
<text text-anchor="middle" x="582.19" y="-853816.57" font-family="Times,serif" font-size="14.00">`</text>
</g>
<!-- n14 -->
<g id="node15" class="node">
<title>n14</title>
<ellipse fill="none" stroke="black" cx="1343.77" cy="-984964.37" rx="83.64" ry="18"/>
<text text-anchor="middle" x="1343.77" y="-984956.32" font-family="Times,serif" font-size="14.00">FuseableCharacter</text>
</g>
<!-- n01&#45;&gt;n14 -->
<g id="edge10" class="edge">
<title>n01&#45;&gt;n14</title>
<path fill="none" stroke="black" d="M136.56,-919537.41C157.07,-919545.9 180.31,-919559.55 192.33,-919580.37 203.12,-919599.05 210.3,-944404.81 210.33,-944426.37 210.57,-944568.49 217.62,-985356.37 359.74,-985356.37 359.74,-985356.37 359.74,-985356.37 902.65,-985356.37 1021.58,-985356.37 1080.62,-985350.94 1150.06,-985254.37 1184.91,-985205.91 1127.1,-985029.79 1168.06,-984986.37 1192.01,-984960.99 1229.33,-984953.87 1263.35,-984953.77"/>
<polygon fill="black" stroke="black" points="1263.19,-984957.29 1273.25,-984953.97 1263.32,-984950.29 1263.19,-984957.29"/>
<text text-anchor="middle" x="582.19" y="-985353.57" font-family="Times,serif" font-size="14.00">FUSEABLE</text>
</g>
<!-- n01&#45;&gt;n15 -->
<g id="edge9" class="edge">
<title>n01&#45;&gt;n15</title>
<path fill="none" stroke="black" d="M136.57,-919537.41C157.07,-919545.9 180.31,-919559.55 192.33,-919580.37 192.33,-919580.37 210.33,-1066958.37 210.33,-1066958.37 210.87,-1067185.65 132.46,-1099686.37 359.74,-1099686.37 359.74,-1099686.37 359.74,-1099686.37 902.65,-1099686.37 1356.21,-1099686.37 865.29,-1115674.66 1168.06,-1116012.37 1196.88,-1116044.52 1247.07,-1116047.89 1286.28,-1116044.46"/>
<polygon fill="black" stroke="black" points="1286.45,-1116047.86 1296.03,-1116043.33 1285.72,-1116040.89 1286.45,-1116047.86"/>
<text text-anchor="middle" x="582.19" y="-1099683.57" font-family="Times,serif" font-size="14.00">\n</text>
</g>
<!-- n01&#45;&gt;n15 -->
<g id="edge13" class="edge">
<title>n01&#45;&gt;n15</title>
<path fill="none" stroke="black" d="M136.57,-919537.41C157.07,-919545.9 180.31,-919559.55 192.33,-919580.37 192.33,-919580.37 210.33,-1001002.37 210.33,-1001002.37 233.32,-1021965.07 251.18,-1027205.73 303.33,-1048168.37 303.98,-1048429.15 98.96,-1066944.37 359.74,-1066944.37 359.74,-1066944.37 359.74,-1066944.37 902.65,-1066944.37 1148.65,-1066944.37 1149.04,-1102122.37 1150.06,-1102368.37 1150.16,-1102392.06 1152.38,-1115994.62 1168.06,-1116012.37 1196.73,-1116044.84 1247.18,-1116048.11 1286.52,-1116044.55"/>
<polygon fill="black" stroke="black" points="1286.73,-1116047.94 1296.29,-1116043.39 1285.98,-1116040.98 1286.73,-1116047.94"/>
<text text-anchor="middle" x="582.19" y="-1066941.57" font-family="Times,serif" font-size="14.00">else</text>
</g>
<!-- n02&#45;&gt;n01 -->
<g id="edge15" class="edge">
<title>n02&#45;&gt;n01</title>
<path fill="none" stroke="black" d="M313.11,-919514.86C303.94,-919513.2 294.37,-919511.75 285.33,-919510.87 241.55,-919506.65 191.94,-919510.84 154.66,-919515.79"/>
<polygon fill="black" stroke="black" points="154.42,-919512.42 144.99,-919517.27 155.38,-919519.36 154.42,-919512.42"/>
<text text-anchor="middle" x="247.83" y="-919508.57" font-family="Times,serif" font-size="14.00">WHITESPACE</text>
</g>
<!-- n02&#45;&gt;n02 -->
<g id="edge14" class="edge">
<title>n02&#45;&gt;n02</title>
<path fill="none" stroke="black" d="M340.74,-919542.41C336.65,-919552.23 343.32,-919561.37 360.74,-919561.37 371.36,-919561.37 377.98,-919557.98 380.61,-919553.1"/>
<polygon fill="black" stroke="black" points="384.12,-919553.45 380.75,-919543.41 377.12,-919553.37 384.12,-919553.45"/>
<text text-anchor="middle" x="360.74" y="-919582.46" font-family="Times,serif" font-size="14.00">NUMBER</text>
</g>
<!-- n02&#45;&gt;n03 -->
<g id="edge16" class="edge">
<title>n02&#45;&gt;n03</title>
<path fill="none" stroke="black" d="M418.54,-919525.37C448.99,-919525.37 486.58,-919525.37 517.96,-919525.37"/>
<polygon fill="black" stroke="black" points="517.77,-919528.87 527.77,-919525.37 517.77,-919521.87 517.77,-919528.87"/>
<text text-anchor="middle" x="473.65" y="-919522.57" font-family="Times,serif" font-size="14.00">ALPHA</text>
</g>
<!-- n02&#45;&gt;n05 -->
<g id="edge19" class="edge">
<title>n02&#45;&gt;n05</title>
<path fill="none" stroke="black" d="M399.67,-919511.88C452.76,-919494.87 552.09,-919469.88 635.23,-919487.87 663.77,-919494.05 692.93,-919503.56 720.97,-919514.59"/>
<polygon fill="black" stroke="black" points="719.26,-919518.08 729.84,-919518.56 721.87,-919511.58 719.26,-919518.08"/>
<text text-anchor="middle" x="582.19" y="-919485.57" font-family="Times,serif" font-size="14.00">&#45;</text>
</g>
<!-- n02&#45;&gt;n06 -->
<g id="edge20" class="edge">
<title>n02&#45;&gt;n06</title>
<path fill="none" stroke="black" d="M405.73,-919513.86C410.61,-919510.88 414.97,-919507.11 418.15,-919502.37 418.15,-919502.37 436.15,-854363.37 436.15,-854363.37 456.92,-854109.29 385.45,-854007.94 529.15,-853797.37 560.06,-853752.08 607.74,-853781.81 635.23,-853734.37 1548.84,-852158.11 1130.39,-822766.16 1150.06,-820944.37 1186.96,-817526.66 1217.16,-813907.97 1241.77,-810371.77"/>
<polygon fill="black" stroke="black" points="1245.28,-810372.1 1241.85,-810362.07 1238.28,-810372.05 1245.28,-810372.1"/>
<text text-anchor="middle" x="683.23" y="-853690.57" font-family="Times,serif" font-size="14.00">\r</text>
</g>
<!-- n02&#45;&gt;n07 -->
<g id="edge17" class="edge">
<title>n02&#45;&gt;n07</title>
<path fill="none" stroke="black" d="M405.73,-919513.86C410.61,-919510.88 414.97,-919507.11 418.15,-919502.37 431.66,-919482.29 436.12,-891640.58 436.15,-891616.37 436.56,-891354.6 416.9,-854156.86 529.15,-853920.37 555.3,-853865.29 588.83,-853872.92 635.23,-853833.37 678.61,-853796.41 677.95,-853768.57 731.23,-853748.37 816.38,-853716.09 1061.61,-853738.69 1214.42,-853757.15"/>
<polygon fill="black" stroke="black" points="1213.91,-853760.74 1224.26,-853758.47 1214.76,-853753.79 1213.91,-853760.74"/>
<text text-anchor="middle" x="683.23" y="-853821.07" font-family="Times,serif" font-size="14.00">&#39;</text>
</g>
<!-- n02&#45;&gt;n08 -->
<g id="edge18" class="edge">
<title>n02&#45;&gt;n08</title>
<path fill="none" stroke="black" d="M405.71,-919513.85C410.6,-919510.86 414.96,-919507.11 418.15,-919502.37 927.54,-918748.49 110.48,-854659.57 731.23,-853994.37 794.91,-853926.14 1075.17,-854019.07 1150.06,-853963.37 1168.01,-853950.02 1150.46,-853930.18 1168.06,-853916.37 1174.58,-853911.26 1181.68,-853906.98 1189.17,-853903.42"/>
<polygon fill="black" stroke="black" points="1190.38,-853906.28 1198.21,-853899.14 1187.64,-853899.84 1190.38,-853906.28"/>
<text text-anchor="middle" x="683.23" y="-854476.57" font-family="Times,serif" font-size="14.00">&quot;</text>
</g>
<!-- n02&#45;&gt;n09 -->
<g id="edge23" class="edge">
<title>n02&#45;&gt;n09</title>
<path fill="none" stroke="black" d="M379.86,-919542.52C393.33,-919556.59 410.61,-919577.81 418.15,-919600.37 418.15,-919600.37 436.15,-985284.37 436.15,-985284.37 490.75,-985342.09 1095.39,-985266.73 1150.06,-985324.37 1156.17,-985330.82 1162.1,-985437.14 1167.85,-985635.49"/>
<polygon fill="black" stroke="black" points="1164.37,-985635.33 1168.16,-985645.22 1171.37,-985635.12 1164.37,-985635.33"/>
<text text-anchor="middle" x="683.23" y="-985304.57" font-family="Times,serif" font-size="14.00">\\</text>
</g>
<!-- n02&#45;&gt;n13 -->
<g id="edge24" class="edge">
<title>n02&#45;&gt;n13</title>
<path fill="none" stroke="black" d="M405.72,-919513.86C410.61,-919510.87 414.96,-919507.11 418.15,-919502.37 543.64,-919316.04 510.53,-855028.25 529.15,-854804.37 546.74,-854592.96 557.26,-853992.77 731.23,-853871.37 769.44,-853844.71 1103.53,-853853.81 1150.06,-853851.37 1195.14,-853849.01 1246.13,-853846.09 1284.34,-853843.85"/>
<polygon fill="black" stroke="black" points="1284.48,-853847.29 1294.26,-853843.21 1284.07,-853840.3 1284.48,-853847.29"/>
<text text-anchor="middle" x="683.23" y="-853973.57" font-family="Times,serif" font-size="14.00">`</text>
</g>
<!-- n02&#45;&gt;n14 -->
<g id="edge22" class="edge">
<title>n02&#45;&gt;n14</title>
<path fill="none" stroke="black" d="M379.83,-919542.53C393.28,-919556.61 410.56,-919577.83 418.15,-919600.37 708.89,-920463.73 85.53,-984548.74 731.23,-985191.37 784.92,-985244.8 1005.63,-985227.75 1072.06,-985191.37 1128.51,-985160.46 1125.52,-985128.87 1150.06,-985069.37 1164.45,-985034.48 1140.22,-985011.86 1168.06,-984986.37 1192.37,-984964.12 1227.19,-984956.71 1259.36,-984955.58"/>
<polygon fill="black" stroke="black" points="1259.2,-984959.07 1269.15,-984955.43 1259.1,-984952.07 1259.2,-984959.07"/>
<text text-anchor="middle" x="683.23" y="-985122.07" font-family="Times,serif" font-size="14.00">FUSEABLE</text>
</g>
<!-- n02&#45;&gt;n15 -->
<g id="edge21" class="edge">
<title>n02&#45;&gt;n15</title>
<path fill="none" stroke="black" d="M379.86,-919542.52C393.33,-919556.59 410.61,-919577.81 418.15,-919600.37 436.24,-919654.47 435.84,-985251.34 436.15,-985308.37 503.39,-997435.56 598.71,-1000466.72 731.23,-1012593.37 915.46,-1029450.73 1054.67,-1033664.28 1150.06,-1050522.37 1150.06,-1050522.37 1168.06,-1116012.37 1168.06,-1116012.37 1196.71,-1116044.85 1247.16,-1116048.12 1286.51,-1116044.56"/>
<polygon fill="black" stroke="black" points="1286.72,-1116047.95 1296.29,-1116043.4 1285.97,-1116040.99 1286.72,-1116047.95"/>
<text text-anchor="middle" x="683.23" y="-1010968.57" font-family="Times,serif" font-size="14.00">\n</text>
</g>
<!-- n02&#45;&gt;n15 -->
<g id="edge25" class="edge">
<title>n02&#45;&gt;n15</title>
<path fill="none" stroke="black" d="M379.86,-919542.52C393.33,-919556.59 410.61,-919577.81 418.15,-919600.37 437.55,-919658.4 436,-990021.19 436.15,-990082.37 505.16,-1016952.83 322.43,-1023672.94 731.23,-1050540.37 842.09,-1057826.35 1055.64,-1059644.16 1150.06,-1066930.37 1150.06,-1066930.37 1168.06,-1116012.37 1168.06,-1116012.37 1196.71,-1116044.85 1247.17,-1116048.12 1286.51,-1116044.56"/>
<polygon fill="black" stroke="black" points="1286.72,-1116047.95 1296.29,-1116043.4 1285.97,-1116040.99 1286.72,-1116047.95"/>
<text text-anchor="middle" x="683.23" y="-1049312.57" font-family="Times,serif" font-size="14.00">else</text>
</g>
<!-- n03&#45;&gt;n01 -->
<g id="edge27" class="edge">
<title>n03&#45;&gt;n01</title>
<path fill="none" stroke="black" d="M541.43,-919513.57C508.68,-919504.5 460.87,-919492.72 418.15,-919487.87 323.43,-919477.12 213.03,-919497.16 149.51,-919511.86"/>
<polygon fill="black" stroke="black" points="148.89,-919508.64 139.96,-919514.35 150.5,-919515.46 148.89,-919508.64"/>
<text text-anchor="middle" x="360.74" y="-919485.57" font-family="Times,serif" font-size="14.00">WHITESPACE</text>
</g>
<!-- n03&#45;&gt;n03 -->
<g id="edge26" class="edge">
<title>n03&#45;&gt;n03</title>
<path fill="none" stroke="black" d="M564.15,-919542.78C560.79,-919552.46 566.8,-919561.37 582.19,-919561.37 591.33,-919561.37 597.17,-919558.23 599.69,-919553.65"/>
<polygon fill="black" stroke="black" points="603.23,-919553.94 600.23,-919543.78 596.24,-919553.6 603.23,-919553.94"/>
<text text-anchor="middle" x="582.19" y="-919558.57" font-family="Times,serif" font-size="14.00">ALPHA</text>
</g>
<!-- n03&#45;&gt;n05 -->
<g id="edge30" class="edge">
<title>n03&#45;&gt;n05</title>
<path fill="none" stroke="black" d="M615.93,-919539.73C627.56,-919544.49 640.85,-919549.55 653.23,-919553.37 674.83,-919560.04 697.73,-919566.25 720.53,-919571.92"/>
<polygon fill="black" stroke="black" points="719.45,-919575.5 730,-919574.48 721.12,-919568.7 719.45,-919575.5"/>
<text text-anchor="middle" x="683.23" y="-919566.57" font-family="Times,serif" font-size="14.00">&#45;</text>
</g>
<!-- n03&#45;&gt;n06 -->
<g id="edge31" class="edge">
<title>n03&#45;&gt;n06</title>
<path fill="none" stroke="black" d="M623.32,-919513.68C628.02,-919510.72 632.21,-919507.01 635.23,-919502.37 666.35,-919454.62 629.15,-853897.03 653.23,-853845.37 672.36,-853804.35 691.04,-853800.71 731.23,-853779.87 902.15,-853691.28 1032.34,-853821.71 1150.06,-853669.37 1186.32,-853622.44 1216.78,-849141.19 1242,-842543.96"/>
<polygon fill="black" stroke="black" points="1245.51,-842544.1 1242.05,-842534.08 1238.51,-842544.07 1245.51,-842544.1"/>
<text text-anchor="middle" x="901.65" y="-853777.57" font-family="Times,serif" font-size="14.00">\r</text>
</g>
<!-- n03&#45;&gt;n07 -->
<g id="edge28" class="edge">
<title>n03&#45;&gt;n07</title>
<path fill="none" stroke="black" d="M623.32,-919513.68C628.02,-919510.72 632.21,-919507.01 635.23,-919502.37 666.29,-919454.71 629.19,-854019.93 653.23,-853968.37 672.36,-853927.35 691.58,-853924.71 731.23,-853902.87 870.48,-853826.19 940.55,-853883.69 1072.06,-853794.37 1082.51,-853787.28 1078.64,-853777.78 1090.06,-853772.37 1114.16,-853760.95 1123.39,-853772.24 1150.06,-853772.37 1164.39,-853772.45 1179.33,-853772.55 1194.27,-853772.68"/>
<polygon fill="black" stroke="black" points="1194.1,-853776.18 1204.13,-853772.77 1194.16,-853769.19 1194.1,-853776.18"/>
<text text-anchor="middle" x="901.65" y="-853900.57" font-family="Times,serif" font-size="14.00">&#39;</text>
</g>
<!-- n03&#45;&gt;n08 -->
<g id="edge29" class="edge">
<title>n03&#45;&gt;n08</title>
<path fill="none" stroke="black" d="M623.32,-919513.68C628.02,-919510.71 632.21,-919507.01 635.23,-919502.37 759.37,-919312.1 578.28,-854240.86 731.23,-854072.87 782.46,-854016.62 999.69,-854063.87 1072.06,-854040.37 1110.34,-854027.94 1126.27,-854026.84 1150.06,-853994.37 1171.09,-853965.68 1141.66,-853940.22 1168.06,-853916.37 1173.98,-853911.02 1180.52,-853906.53 1187.48,-853902.78"/>
<polygon fill="black" stroke="black" points="1188.71,-853905.6 1196.22,-853898.12 1185.69,-853899.28 1188.71,-853905.6"/>
<text text-anchor="middle" x="901.65" y="-854070.57" font-family="Times,serif" font-size="14.00">&quot;</text>
</g>
<!-- n03&#45;&gt;n09 -->
<g id="edge34" class="edge">
<title>n03&#45;&gt;n09</title>
<path fill="none" stroke="black" d="M606.94,-919541.64C617.75,-919550.5 629.4,-919562.5 635.23,-919576.37 657.31,-919628.91 615.54,-985182.63 653.23,-985225.37 726.99,-985309.03 1080.5,-985209.2 1150.06,-985296.37 1156.17,-985304.04 1162.12,-985433.29 1167.9,-985673.6"/>
<polygon fill="black" stroke="black" points="1164.42,-985673.48 1168.16,-985683.39 1171.42,-985673.31 1164.42,-985673.48"/>
<text text-anchor="middle" x="901.65" y="-985267.07" font-family="Times,serif" font-size="14.00">\\</text>
</g>
<!-- n03&#45;&gt;n13 -->
<g id="edge35" class="edge">
<title>n03&#45;&gt;n13</title>
<path fill="none" stroke="black" d="M623.32,-919513.68C628.02,-919510.72 632.21,-919507.01 635.23,-919502.37 635.23,-919502.37 653.23,-854465.37 653.23,-854465.37 670.66,-854267.75 600.55,-854175.14 731.23,-854025.87 835.95,-853906.27 930.1,-853988.92 1072.06,-853917.37 1080.87,-853912.93 1081.55,-853909.37 1090.06,-853904.37 1115.43,-853889.47 1123.56,-853889.18 1150.06,-853876.37 1158.11,-853872.48 1159.54,-853870.09 1168.06,-853867.37 1205.92,-853855.31 1250.18,-853848.54 1284.68,-853844.8"/>
<polygon fill="black" stroke="black" points="1284.93,-853848.19 1294.52,-853843.69 1284.21,-853841.22 1284.93,-853848.19"/>
<text text-anchor="middle" x="901.65" y="-854023.57" font-family="Times,serif" font-size="14.00">`</text>
</g>
<!-- n03&#45;&gt;n14 -->
<g id="edge33" class="edge">
<title>n03&#45;&gt;n14</title>
<path fill="none" stroke="black" d="M606.93,-919541.64C617.74,-919550.5 629.39,-919562.5 635.23,-919576.37 723.54,-919786.13 570.19,-984960.56 731.23,-985121.37 784.83,-985174.89 1004.75,-985156.1 1072.06,-985121.37 1137.49,-985087.62 1104.87,-985024.16 1168.06,-984986.37 1192.6,-984971.69 1222.54,-984964.81 1250.65,-984961.97"/>
<polygon fill="black" stroke="black" points="1250.65,-984965.4 1260.32,-984961.08 1250.06,-984958.43 1250.65,-984965.4"/>
<text text-anchor="middle" x="901.65" y="-985176.46" font-family="Times,serif" font-size="14.00">FUSEABLE</text>
</g>
<!-- n03&#45;&gt;n15 -->
<g id="edge32" class="edge">
<title>n03&#45;&gt;n15</title>
<path fill="none" stroke="black" d="M606.94,-919541.64C617.75,-919550.5 629.4,-919562.5 635.23,-919576.37 635.23,-919576.37 653.23,-993573.37 653.23,-993573.37 764.96,-1004414.16 1038.65,-1007120.59 1150.06,-1017961.37 1150.06,-1017961.37 1168.06,-1116012.37 1168.06,-1116012.37 1196.71,-1116044.86 1247.16,-1116048.12 1286.51,-1116044.56"/>
<polygon fill="black" stroke="black" points="1286.72,-1116047.95 1296.28,-1116043.4 1285.97,-1116040.99 1286.72,-1116047.95"/>
<text text-anchor="middle" x="901.65" y="-1012576.57" font-family="Times,serif" font-size="14.00">\n</text>
</g>
<!-- n03&#45;&gt;n15 -->
<g id="edge36" class="edge">
<title>n03&#45;&gt;n15</title>
<path fill="none" stroke="black" d="M606.94,-919541.64C617.75,-919550.5 629.4,-919562.5 635.23,-919576.37 657.35,-919628.99 652.35,-985267.31 653.23,-985324.37 747.14,-991378.73 963,-992887.77 1072.06,-998941.87 1190.36,-1005509.12 1132.15,-1007152.08 1150.06,-1013720.37 1150.06,-1013720.37 1168.06,-1116012.37 1168.06,-1116012.37 1196.71,-1116044.86 1247.16,-1116048.12 1286.51,-1116044.56"/>
<polygon fill="black" stroke="black" points="1286.72,-1116047.95 1296.28,-1116043.4 1285.97,-1116040.99 1286.72,-1116047.95"/>
<text text-anchor="middle" x="901.65" y="-998939.57" font-family="Times,serif" font-size="14.00">else</text>
</g>
<!-- n04 -->
<g id="node5" class="node">
<title>n04</title>
<ellipse fill="none" stroke="black" cx="96.17" cy="-919619.37" rx="85.56" ry="29.97"/>
<text text-anchor="middle" x="96.17" y="-919623.27" font-family="Times,serif" font-size="14.00">DelimiterChars</text>
</g>
<!-- n05&#45;&gt;n01 -->
<g id="edge38" class="edge">
<title>n05&#45;&gt;n01</title>
<path fill="none" stroke="black" d="M731.33,-984921.87C725.5,-985115.48 719.47,-985219.16 713.23,-985225.37 625.97,-985312.38 521.43,-985304.33 436.15,-985215.37 120.74,-984886.33 420.88,-919974.74 192.33,-919580.37 182.16,-919562.82 164.02,-919550.36 146.29,-919541.79"/>
<polygon fill="black" stroke="black" points="148.1,-919538.32 137.54,-919537.42 145.23,-919544.71 148.1,-919538.32"/>
<text text-anchor="middle" x="473.65" y="-985267.57" font-family="Times,serif" font-size="14.00">WHITESPACE</text>
</g>
<!-- n05&#45;&gt;n02 -->
<g id="edge39" class="edge">
<title>n05&#45;&gt;n02</title>
<path fill="none" stroke="black" d="M731.19,-919604.25C667.39,-919600.44 594.49,-919593.37 529.15,-919580.37 486.73,-919571.94 440.11,-919556.04 406.86,-919543.5"/>
<polygon fill="black" stroke="black" points="408.58,-919540.03 397.99,-919539.73 406.09,-919546.57 408.58,-919540.03"/>
<text text-anchor="middle" x="582.19" y="-919593.57" font-family="Times,serif" font-size="14.00">NUMBER</text>
</g>
<!-- n05&#45;&gt;n03 -->
<g id="edge40" class="edge">
<title>n05&#45;&gt;n03</title>
<path fill="none" stroke="black" d="M730.88,-919543.33C724.96,-919541.73 719.06,-919540.23 713.23,-919538.87 691.58,-919533.82 667.46,-919530.66 645.93,-919528.68"/>
<polygon fill="black" stroke="black" points="646.52,-919525.13 636.26,-919527.77 645.93,-919532.11 646.52,-919525.13"/>
<text text-anchor="middle" x="683.23" y="-919536.57" font-family="Times,serif" font-size="14.00">ALPHA</text>
</g>
<!-- n05&#45;&gt;n06 -->
<g id="edge43" class="edge">
<title>n05&#45;&gt;n06</title>
<path fill="none" stroke="black" d="M1071.97,-854338.31C1077.85,-854005.04 1083.88,-853819.1 1090.06,-853796.99 1103.97,-853747.21 1136.15,-853747.15 1150.06,-853697.37 1185.12,-853571.94 1215.9,-848145.13 1241.99,-840465.01"/>
<polygon fill="black" stroke="black" points="1245.49,-840465.12 1242.03,-840455.11 1238.49,-840465.1 1245.49,-840465.12"/>
<text text-anchor="middle" x="1120.06" y="-853818.46" font-family="Times,serif" font-size="14.00">\r</text>
</g>
<!-- n05&#45;&gt;n07 -->
<g id="edge41" class="edge">
<title>n05&#45;&gt;n07</title>
<path fill="none" stroke="black" d="M1071.97,-854503.11C1077.81,-854242.62 1083.84,-854088.22 1090.06,-854049.87 1107.77,-853940.62 1086.02,-853887.67 1168.06,-853813.37 1178.99,-853803.47 1191.88,-853795.9 1205.63,-853790.13"/>
<polygon fill="black" stroke="black" points="1206.68,-853793.09 1214.77,-853786.25 1204.18,-853786.56 1206.68,-853793.09"/>
<text text-anchor="middle" x="1120.06" y="-854047.57" font-family="Times,serif" font-size="14.00">&#39;</text>
</g>
<!-- n05&#45;&gt;n08 -->
<g id="edge42" class="edge">
<title>n05&#45;&gt;n08</title>
<path fill="none" stroke="black" d="M1072.43,-889611.92C1102.98,-883283.89 1131.09,-876647.43 1150.06,-870450.37 1150.15,-870421.67 1149.06,-853937.89 1168.06,-853916.37 1173.34,-853910.39 1179.37,-853905.39 1185.93,-853901.25"/>
<polygon fill="black" stroke="black" points="1187.14,-853904.03 1194.19,-853896.12 1183.75,-853897.9 1187.14,-853904.03"/>
<text text-anchor="middle" x="1120.06" y="-885319.07" font-family="Times,serif" font-size="14.00">&quot;</text>
</g>
<!-- n05&#45;&gt;n09 -->
<g id="edge46" class="edge">
<title>n05&#45;&gt;n09</title>
<path fill="none" stroke="black" d="M1072,-983192.85C1077.9,-983699.98 1083.92,-984059.3 1090.06,-984252.37 1104.03,-984691.85 1136.07,-984800.4 1150.06,-985239.87 1156.15,-985431.37 1162.14,-985784.88 1168.02,-986282.74"/>
<polygon fill="black" stroke="black" points="1164.53,-986282.45 1168.15,-986292.41 1171.53,-986282.37 1164.53,-986282.45"/>
<text text-anchor="middle" x="1120.06" y="-985237.57" font-family="Times,serif" font-size="14.00">\\</text>
</g>
<!-- n10 -->
<g id="node11" class="node">
<title>n10</title>
<ellipse fill="none" stroke="black" cx="1343.77" cy="-919429.37" rx="101.47" ry="788485.94"/>
<text text-anchor="middle" x="1343.77" y="-1476955.83" font-family="Times,serif" font-size="14.00">SingleLineComment</text>
</g>
<!-- n05&#45;&gt;n10 -->
<g id="edge37" class="edge">
<title>n05&#45;&gt;n10</title>
<path fill="none" stroke="black" d="M1072.5,-919539.3C1125.93,-919517.56 1183.55,-919494.13 1231.79,-919474.51"/>
<polygon fill="black" stroke="black" points="1233,-919477.39 1240.94,-919470.38 1230.36,-919470.91 1233,-919477.39"/>
<text text-anchor="middle" x="1120.06" y="-919527.57" font-family="Times,serif" font-size="14.00">&#45;</text>
</g>
<!-- n05&#45;&gt;n13 -->
<g id="edge47" class="edge">
<title>n05&#45;&gt;n13</title>
<path fill="none" stroke="black" d="M1072.28,-874644.2C1078.19,-873216.96 1084.13,-871803.41 1090.06,-870411.99 1091.04,-870182.2 1018.08,-854041.47 1168.06,-853867.37 1196.81,-853834 1248.23,-853829.56 1287.87,-853832.1"/>
<polygon fill="black" stroke="black" points="1287.45,-853835.66 1297.71,-853832.98 1288.02,-853828.68 1287.45,-853835.66"/>
<text text-anchor="middle" x="1120.06" y="-870433.46" font-family="Times,serif" font-size="14.00">`</text>
</g>
<!-- n05&#45;&gt;n14 -->
<g id="edge45" class="edge">
<title>n05&#45;&gt;n14</title>
<path fill="none" stroke="black" d="M1072.11,-976315.76C1101.66,-981522.17 1133.95,-984903.86 1168.06,-984942.37 1191.85,-984969.23 1230.54,-984976.09 1265.48,-984975.64"/>
<polygon fill="black" stroke="black" points="1265.3,-984979.11 1275.18,-984975.28 1265.07,-984972.12 1265.3,-984979.11"/>
<text text-anchor="middle" x="1120.06" y="-984235.57" font-family="Times,serif" font-size="14.00">FUSEABLE</text>
</g>
<!-- n05&#45;&gt;n15 -->
<g id="edge44" class="edge">
<title>n05&#45;&gt;n15</title>
<path fill="none" stroke="black" d="M1071.93,-987077.07C1077.8,-987947.03 1083.84,-988743.82 1090.06,-989458.37 1105.82,-991270.28 1136.59,-991722.95 1150.06,-993534.87 1150.06,-993534.87 1168.06,-1116012.37 1168.06,-1116012.37 1196.71,-1116044.86 1247.16,-1116048.12 1286.51,-1116044.56"/>
<polygon fill="black" stroke="black" points="1286.72,-1116047.95 1296.28,-1116043.4 1285.97,-1116040.99 1286.72,-1116047.95"/>
<text text-anchor="middle" x="1120.06" y="-993532.57" font-family="Times,serif" font-size="14.00">\n</text>
</g>
<!-- n05&#45;&gt;n15 -->
<g id="edge48" class="edge">
<title>n05&#45;&gt;n15</title>
<path fill="none" stroke="black" d="M1072.01,-982843.85C1077.87,-983728.86 1083.89,-984535.86 1090.06,-985254.37 1106.05,-987116.5 1136.59,-987581.73 1150.06,-989443.87 1150.06,-989443.87 1168.06,-1116012.37 1168.06,-1116012.37 1196.71,-1116044.86 1247.16,-1116048.12 1286.51,-1116044.56"/>
<polygon fill="black" stroke="black" points="1286.72,-1116047.95 1296.28,-1116043.4 1285.97,-1116040.99 1286.72,-1116047.95"/>
<text text-anchor="middle" x="1120.06" y="-989441.57" font-family="Times,serif" font-size="14.00">else</text>
</g>
<!-- n11 -->
<g id="node12" class="node">
<title>n11</title>
<ellipse fill="none" stroke="black" cx="96.17" cy="-919685.37" rx="96.17" ry="18.38"/>
<text text-anchor="middle" x="96.17" y="-919681.07" font-family="Times,serif" font-size="14.00">MultiLineComment</text>
</g>
<!-- n12 -->
<g id="node13" class="node">
<title>n12</title>
<ellipse fill="none" stroke="black" cx="96.17" cy="-919751.37" rx="59.04" ry="29.97"/>
<text text-anchor="middle" x="96.17" y="-919755.27" font-family="Times,serif" font-size="14.00">Linebreak</text>
</g>
</g>
</svg>
