<?xml version="1.0" encoding="UTF-8" standalone="no"?>
<!DOCTYPE svg PUBLIC "-//W3C//DTD SVG 1.1//EN"
 "http://www.w3.org/Graphics/SVG/1.1/DTD/svg11.dtd">
<!-- Generated by graphviz version 8.0.5 (20230430.1635)
 -->
<!-- Title: Tokenize Pages: 1 -->
<svg width="825pt" height="2391865pt"
 viewBox="0.00 0.00 824.50 2391865.49" xmlns="http://www.w3.org/2000/svg" xmlns:xlink="http://www.w3.org/1999/xlink">
<g id="graph0" class="graph" transform="scale(1 1) rotate(0) translate(4 2391861.49)">
<title>Tokenize</title>
<polygon fill="white" stroke="none" points="-4,4 -4,-2391861.49 820.5,-2391861.49 820.5,4 -4,4"/>
<!-- n1 -->
<g id="node1" class="node">
<title>n1</title>
<polygon fill="none" stroke="black" points="166,-1195946.75 0,-1195946.75 0,-1195910.75 166,-1195910.75 166,-1195946.75"/>
<text text-anchor="middle" x="83" y="-1195920.73" font-family="Times,serif" font-size="14.00">StartOfDocumentToken</text>
</g>
<!-- n2 -->
<g id="node2" class="node">
<title>n2</title>
<polygon fill="none" stroke="black" points="285.5,-1529287.57 202,-1529287.57 202,-862569.92 285.5,-862569.92 285.5,-1529287.57"/>
<text text-anchor="middle" x="243.75" y="-1529270.27" font-family="Times,serif" font-size="14.00">WordToken</text>
<text text-anchor="middle" x="243.75" y="-1529259.77" font-family="Times,serif" font-size="14.00">&#39;entity&#39;</text>
</g>
<!-- n1&#45;&gt;n2 -->
<g id="edge1" class="edge">
<title>n1&#45;&gt;n2</title>
<path fill="none" stroke="black" d="M177.16,-1195928.75C181.87,-1195928.75 186.51,-1195928.75 191.02,-1195928.75"/>
<polygon fill="black" stroke="black" points="177.17,-1195925.25 167.17,-1195928.75 177.16,-1195932.25 177.17,-1195925.25"/>
<polygon fill="black" stroke="black" points="190.9,-1195932.25 200.9,-1195928.75 190.9,-1195925.25 190.9,-1195932.25"/>
</g>
<!-- n3 -->
<g id="node3" class="node">
<title>n3</title>
<polygon fill="none" stroke="black" points="412.5,-1195955.22 321.5,-1195955.22 321.5,-1195902.27 412.5,-1195902.27 412.5,-1195955.22"/>
<text text-anchor="middle" x="367" y="-1195937.92" font-family="Times,serif" font-size="14.00">SpaceToken</text>
<text text-anchor="middle" x="367" y="-1195903.47" font-family="Times,serif" font-size="14.00">&#39; &#39;</text>
</g>
<!-- n2&#45;&gt;n3 -->
<g id="edge2" class="edge">
<title>n2&#45;&gt;n3</title>
<path fill="none" stroke="black" d="M296.74,-1195928.75C301.33,-1195928.75 305.99,-1195928.75 310.6,-1195928.75"/>
<polygon fill="black" stroke="black" points="296.8,-1195925.25 286.8,-1195928.75 296.8,-1195932.25 296.8,-1195925.25"/>
<polygon fill="black" stroke="black" points="310.25,-1195932.25 320.25,-1195928.75 310.25,-1195925.25 310.25,-1195932.25"/>
</g>
<!-- n4 -->
<g id="node4" class="node">
<title>n4</title>
<polygon fill="none" stroke="black" points="539.5,-2391857.49 448.5,-2391857.49 448.5,0 539.5,0 539.5,-2391857.49"/>
<text text-anchor="middle" x="494" y="-2391840.19" font-family="Times,serif" font-size="14.00">WordToken</text>
<text text-anchor="middle" x="494" y="-949312.25" font-family="Times,serif" font-size="14.00">&#39;myEntity&#39;</text>
</g>
<!-- n3&#45;&gt;n4 -->
<g id="edge3" class="edge">
<title>n3&#45;&gt;n4</title>
<path fill="none" stroke="black" d="M423.75,-1195928.75C428.21,-1195928.75 432.72,-1195928.75 437.18,-1195928.75"/>
<polygon fill="black" stroke="black" points="423.77,-1195925.25 413.77,-1195928.75 423.77,-1195932.25 423.77,-1195925.25"/>
<polygon fill="black" stroke="black" points="437.12,-1195932.25 447.12,-1195928.75 437.12,-1195925.25 437.12,-1195932.25"/>
</g>
<!-- n5 -->
<g id="node5" class="node">
<title>n5</title>
<polygon fill="none" stroke="black" points="629.5,-1529292.75 575.5,-1529292.75 575.5,-862564.75 629.5,-862564.75 629.5,-1529292.75"/>
<text text-anchor="middle" x="602.5" y="-1529275.45" font-family="Times,serif" font-size="14.00">...</text>
</g>
<!-- n4&#45;&gt;n5 -->
<g id="edge4" class="edge">
<title>n4&#45;&gt;n5</title>
<path fill="none" stroke="black" d="M550.68,-1195928.75C555.36,-1195928.75 560.02,-1195928.75 564.5,-1195928.75"/>
<polygon fill="black" stroke="black" points="550.86,-1195925.25 540.86,-1195928.75 550.86,-1195932.25 550.86,-1195925.25"/>
<polygon fill="black" stroke="black" points="564.22,-1195932.25 574.22,-1195928.75 564.22,-1195925.25 564.22,-1195932.25"/>
</g>
<!-- n6 -->
<g id="node6" class="node">
<title>n6</title>
<polygon fill="none" stroke="black" points="816.5,-1195946.75 665.5,-1195946.75 665.5,-1195910.75 816.5,-1195910.75 816.5,-1195946.75"/>
<text text-anchor="middle" x="741" y="-1195920.7" font-family="Times,serif" font-size="14.00">EndOfDocumentToken</text>
</g>
<!-- n5&#45;&gt;n6 -->
<g id="edge5" class="edge">
<title>n5&#45;&gt;n6</title>
<path fill="none" stroke="black" d="M640.57,-1195928.75C645.03,-1195928.75 649.71,-1195928.75 654.52,-1195928.75"/>
<polygon fill="black" stroke="black" points="640.82,-1195925.25 630.82,-1195928.75 640.82,-1195932.25 640.82,-1195925.25"/>
<polygon fill="black" stroke="black" points="654.2,-1195932.25 664.2,-1195928.75 654.2,-1195925.25 654.2,-1195932.25"/>
</g>
</g>
</svg>
