<?xml version="1.0" encoding="UTF-8" standalone="no"?>
<!DOCTYPE svg PUBLIC "-//W3C//DTD SVG 1.1//EN"
 "http://www.w3.org/Graphics/SVG/1.1/DTD/svg11.dtd">
<!-- Generated by graphviz version 8.0.5 (20230430.1635)
 -->
<!-- Title: inheritance7a7ee2d43b Pages: 1 -->
<svg width="1pt" height="864pt"
 viewBox="0.00 0.00 0.62 864.00" xmlns="http://www.w3.org/2000/svg" xmlns:xlink="http://www.w3.org/1999/xlink">
<g id="graph0" class="graph" transform="scale(0.000592098 0.000592098) rotate(0) translate(4 1459214.4)">
<title>inheritance7a7ee2d43b</title>
<!-- BracketToken -->
<g id="node1" class="node">
<title>BracketToken</title>
<g id="a_node1"><a xlink:href="../pyVHDLParser/pyVHDLParser.Token.Keywords.html#pyVHDLParser.Token.Keywords.BracketToken" xlink:title="Base&#45;class for all bracket tokens: ``(``, ``)``, ``[``, ``]``, ``{``, ``}``, ``&lt;`` and ``&gt;``." target="_top">
<polygon fill="white" stroke="#1e90ff" points="629.5,-729614.45 523.5,-729614.45 523.5,-729595.95 629.5,-729595.95 629.5,-729614.45"/>
<text text-anchor="middle" x="576.5" y="-729600.95" font-family="Vera Sans, DejaVu Sans, Liberation Sans, Arial, Helvetica, sans" font-size="10.00">BracketToken</text>
</a>
</g>
</g>
<!-- CurlyBracketToken -->
<g id="node4" class="node">
<title>CurlyBracketToken</title>
<g id="a_node4"><a xlink:href="../pyVHDLParser/pyVHDLParser.Token.Keywords.html#pyVHDLParser.Token.Keywords.CurlyBracketToken" xlink:title="Base&#45;class for all curly bracket tokens: ``{`` and ``}``." target="_top">
<polygon fill="white" stroke="#1e90ff" points="809,-729614.45 665.5,-729614.45 665.5,-729595.95 809,-729595.95 809,-729614.45"/>
<text text-anchor="middle" x="737.25" y="-729600.95" font-family="Vera Sans, DejaVu Sans, Liberation Sans, Arial, Helvetica, sans" font-size="10.00">CurlyBracketToken</text>
</a>
</g>
</g>
<!-- BracketToken&#45;&gt;CurlyBracketToken -->
<g id="edge3" class="edge">
<title>BracketToken&#45;&gt;CurlyBracketToken</title>
<path fill="none" stroke="black" stroke-width="0.5" d="M629.92,-729605.2C639.36,-729605.2 649.37,-729605.2 659.33,-729605.2"/>
<polygon fill="black" stroke="black" stroke-width="0.5" points="660.19,-729606.95 665.19,-729605.2 660.19,-729603.45 660.19,-729606.95"/>
</g>
<!-- SpecificVHDLToken -->
<g id="node2" class="node">
<title>SpecificVHDLToken</title>
<g id="a_node2"><a xlink:href="../pyVHDLParser/pyVHDLParser.Token.Keywords.html#pyVHDLParser.Token.Keywords.SpecificVHDLToken" xlink:title="Base&#45;class for all specific tokens." target="_top">
<polygon fill="white" stroke="#1e90ff" points="487.5,-1459210.4 344,-1459210.4 344,0 487.5,0 487.5,-1459210.4"/>
<text text-anchor="middle" x="415.75" y="-1459196.9" font-family="Vera Sans, DejaVu Sans, Liberation Sans, Arial, Helvetica, sans" font-size="10.00">SpecificVHDLToken</text>
</a>
</g>
</g>
<!-- SpecificVHDLToken&#45;&gt;BracketToken -->
<g id="edge1" class="edge">
<title>SpecificVHDLToken&#45;&gt;BracketToken</title>
<path fill="none" stroke="black" stroke-width="0.5" d="M487.77,-729605.2C497.61,-729605.2 507.63,-729605.2 517.21,-729605.2"/>
<polygon fill="black" stroke="black" stroke-width="0.5" points="518.11,-729606.95 523.11,-729605.2 518.11,-729603.45 518.11,-729606.95"/>
</g>
<!-- ClosingCurlyBracketToken -->
<g id="node3" class="node">
<title>ClosingCurlyBracketToken</title>
<g id="a_node3"><a xlink:href="../pyVHDLParser/pyVHDLParser.Token.Keywords.html#pyVHDLParser.Token.Keywords.ClosingCurlyBracketToken" xlink:title="Token representing a closing curly bracket: ``}``." target="_top">
<polygon fill="white" stroke="#1e90ff" points="1041,-1459203.89 845,-1459203.89 845,-6.52 1041,-6.52 1041,-1459203.89"/>
<text text-anchor="middle" x="943" y="-1459190.39" font-family="Vera Sans, DejaVu Sans, Liberation Sans, Arial, Helvetica, sans" font-size="10.00">ClosingCurlyBracketToken</text>
</a>
</g>
</g>
<!-- CurlyBracketToken&#45;&gt;ClosingCurlyBracketToken -->
<g id="edge2" class="edge">
<title>CurlyBracketToken&#45;&gt;ClosingCurlyBracketToken</title>
<path fill="none" stroke="black" stroke-width="0.5" d="M809.23,-729605.2C818.83,-729605.2 828.83,-729605.2 838.85,-729605.2"/>
<polygon fill="black" stroke="black" stroke-width="0.5" points="839.75,-729606.95 844.75,-729605.2 839.75,-729603.45 839.75,-729606.95"/>
</g>
<!-- VHDLToken -->
<g id="node5" class="node">
<title>VHDLToken</title>
<g id="a_node5"><a xlink:href="../pyVHDLParser.Token.html#pyVHDLParser.Token.VHDLToken" xlink:title="Base&#45;class for all VHDL specific tokens." target="_top">
<polygon fill="white" stroke="#1e90ff" points="308,-729614.45 224.5,-729614.45 224.5,-729595.95 308,-729595.95 308,-729614.45"/>
<text text-anchor="middle" x="266.25" y="-729600.95" font-family="Vera Sans, DejaVu Sans, Liberation Sans, Arial, Helvetica, sans" font-size="10.00">VHDLToken</text>
</a>
</g>
</g>
<!-- VHDLToken&#45;&gt;SpecificVHDLToken -->
<g id="edge4" class="edge">
<title>VHDLToken&#45;&gt;SpecificVHDLToken</title>
<path fill="none" stroke="black" stroke-width="0.5" d="M308.34,-729605.2C317.53,-729605.2 327.57,-729605.2 337.69,-729605.2"/>
<polygon fill="black" stroke="black" stroke-width="0.5" points="338.66,-729606.95 343.66,-729605.2 338.66,-729603.45 338.66,-729606.95"/>
</g>
<!-- Token -->
<g id="node6" class="node">
<title>Token</title>
<g id="a_node6"><a xlink:href="../pyVHDLParser.Token.html#pyVHDLParser.Token.Token" xlink:title="Base&#45;class for all token classes." target="_top">
<polygon fill="white" stroke="#1e90ff" points="54,-729614.45 0,-729614.45 0,-729595.95 54,-729595.95 54,-729614.45"/>
<text text-anchor="middle" x="27" y="-729600.95" font-family="Vera Sans, DejaVu Sans, Liberation Sans, Arial, Helvetica, sans" font-size="10.00">Token</text>
</a>
</g>
</g>
<!-- ValuedToken -->
<g id="node7" class="node">
<title>ValuedToken</title>
<g id="a_node7"><a xlink:href="../pyVHDLParser.Token.html#pyVHDLParser.Token.ValuedToken" xlink:title="Base&#45;class for all *valued* token." target="_top">
<polygon fill="white" stroke="#1e90ff" points="188.5,-729626.41 90,-729626.41 90,-729583.99 188.5,-729583.99 188.5,-729626.41"/>
<text text-anchor="middle" x="139.25" y="-729612.91" font-family="Vera Sans, DejaVu Sans, Liberation Sans, Arial, Helvetica, sans" font-size="10.00">ValuedToken</text>
</a>
</g>
</g>
<!-- Token&#45;&gt;ValuedToken -->
<g id="edge6" class="edge">
<title>Token&#45;&gt;ValuedToken</title>
<path fill="none" stroke="black" stroke-width="0.5" d="M54.41,-729605.2C63.25,-729605.2 73.45,-729605.2 83.64,-729605.2"/>
<polygon fill="black" stroke="black" stroke-width="0.5" points="84.62,-729606.95 89.62,-729605.2 84.62,-729603.45 84.62,-729606.95"/>
</g>
<!-- ValuedToken&#45;&gt;VHDLToken -->
<g id="edge5" class="edge">
<title>ValuedToken&#45;&gt;VHDLToken</title>
<path fill="none" stroke="black" stroke-width="0.5" d="M188.94,-729605.2C198.59,-729605.2 208.7,-729605.2 218.29,-729605.2"/>
<polygon fill="black" stroke="black" stroke-width="0.5" points="219.19,-729606.95 224.19,-729605.2 219.19,-729603.45 219.19,-729606.95"/>
</g>
</g>
</svg>
