<?xml version="1.0" encoding="UTF-8" standalone="no"?>
<!DOCTYPE svg PUBLIC "-//W3C//DTD SVG 1.1//EN"
 "http://www.w3.org/Graphics/SVG/1.1/DTD/svg11.dtd">
<!-- Generated by graphviz version 8.0.5 (20230430.1635)
 -->
<!-- Title: inheritance8f1924f411 Pages: 1 -->
<svg width="1pt" height="864pt"
 viewBox="0.00 0.00 1.31 864.00" xmlns="http://www.w3.org/2000/svg" xmlns:xlink="http://www.w3.org/1999/xlink">
<g id="graph0" class="graph" transform="scale(0.00153821 0.00153821) rotate(0) translate(4 561687.52)">
<title>inheritance8f1924f411</title>
<!-- KeywordToken -->
<g id="node1" class="node">
<title>KeywordToken</title>
<g id="a_node1"><a xlink:href="../pyVHDLParser/pyVHDLParser.Token.Keywords.html#pyVHDLParser.Token.Keywords.KeywordToken" xlink:title="KeywordToken" target="_top">
<polygon fill="white" stroke="#1e90ff" points="450,-280851.01 344,-280851.01 344,-280832.51 450,-280832.51 450,-280851.01"/>
<text text-anchor="middle" x="397" y="-280837.51" font-family="Vera Sans, DejaVu Sans, Liberation Sans, Arial, Helvetica, sans" font-size="10.00">KeywordToken</text>
</a>
</g>
</g>
<!-- Operator -->
<g id="node3" class="node">
<title>Operator</title>
<g id="a_node3"><a xlink:href="../pyVHDLParser/pyVHDLParser.Token.Keywords.html#pyVHDLParser.Token.Keywords.Operator" xlink:title="Operator" target="_top">
<polygon fill="white" stroke="#1e90ff" points="562,-561683.52 486,-561683.52 486,0 562,0 562,-561683.52"/>
<text text-anchor="middle" x="524" y="-561670.02" font-family="Vera Sans, DejaVu Sans, Liberation Sans, Arial, Helvetica, sans" font-size="10.00">Operator</text>
</a>
</g>
</g>
<!-- KeywordToken&#45;&gt;Operator -->
<g id="edge2" class="edge">
<title>KeywordToken&#45;&gt;Operator</title>
<path fill="none" stroke="black" stroke-width="0.5" d="M450.29,-280841.76C460.15,-280841.76 470.36,-280841.76 479.9,-280841.76"/>
<polygon fill="black" stroke="black" stroke-width="0.5" points="480.74,-280843.51 485.74,-280841.76 480.74,-280840.01 480.74,-280843.51"/>
</g>
<!-- VHDLToken -->
<g id="node2" class="node">
<title>VHDLToken</title>
<g id="a_node2"><a xlink:href="../pyVHDLParser.Token.html#pyVHDLParser.Token.VHDLToken" xlink:title="Base&#45;class for all VHDL specific tokens." target="_top">
<polygon fill="white" stroke="#1e90ff" points="308,-561683.47 224.5,-561683.47 224.5,-0.05 308,-0.05 308,-561683.47"/>
<text text-anchor="middle" x="266.25" y="-561669.97" font-family="Vera Sans, DejaVu Sans, Liberation Sans, Arial, Helvetica, sans" font-size="10.00">VHDLToken</text>
</a>
</g>
</g>
<!-- VHDLToken&#45;&gt;KeywordToken -->
<g id="edge1" class="edge">
<title>VHDLToken&#45;&gt;KeywordToken</title>
<path fill="none" stroke="black" stroke-width="0.5" d="M308.34,-280841.76C317.69,-280841.76 327.8,-280841.76 337.71,-280841.76"/>
<polygon fill="black" stroke="black" stroke-width="0.5" points="338.52,-280843.51 343.52,-280841.76 338.52,-280840.01 338.52,-280843.51"/>
</g>
<!-- ShiftOperator -->
<g id="node4" class="node">
<title>ShiftOperator</title>
<g id="a_node4"><a xlink:href="../pyVHDLParser/pyVHDLParser.Token.Keywords.html#pyVHDLParser.Token.Keywords.ShiftOperator" xlink:title="ShiftOperator" target="_top">
<polygon fill="white" stroke="#1e90ff" points="711.5,-280851.01 598,-280851.01 598,-280832.51 711.5,-280832.51 711.5,-280851.01"/>
<text text-anchor="middle" x="654.75" y="-280837.51" font-family="Vera Sans, DejaVu Sans, Liberation Sans, Arial, Helvetica, sans" font-size="10.00">ShiftOperator</text>
</a>
</g>
</g>
<!-- Operator&#45;&gt;ShiftOperator -->
<g id="edge3" class="edge">
<title>Operator&#45;&gt;ShiftOperator</title>
<path fill="none" stroke="black" stroke-width="0.5" d="M562.24,-280841.76C571.55,-280841.76 581.79,-280841.76 591.95,-280841.76"/>
<polygon fill="black" stroke="black" stroke-width="0.5" points="592.91,-280843.51 597.91,-280841.76 592.91,-280840.01 592.91,-280843.51"/>
</g>
<!-- SllOperator -->
<g id="node5" class="node">
<title>SllOperator</title>
<g id="a_node5"><a xlink:href="../pyVHDLParser/pyVHDLParser.Token.Keywords.html#pyVHDLParser.Token.Keywords.SllOperator" xlink:title="SllOperator" target="_top">
<polygon fill="white" stroke="#1e90ff" points="846,-280851.01 747.5,-280851.01 747.5,-280832.51 846,-280832.51 846,-280851.01"/>
<text text-anchor="middle" x="796.75" y="-280837.51" font-family="Vera Sans, DejaVu Sans, Liberation Sans, Arial, Helvetica, sans" font-size="10.00">SllOperator</text>
</a>
</g>
</g>
<!-- ShiftOperator&#45;&gt;SllOperator -->
<g id="edge4" class="edge">
<title>ShiftOperator&#45;&gt;SllOperator</title>
<path fill="none" stroke="black" stroke-width="0.5" d="M711.89,-280841.76C721.59,-280841.76 731.66,-280841.76 741.32,-280841.76"/>
<polygon fill="black" stroke="black" stroke-width="0.5" points="742.27,-280843.51 747.27,-280841.76 742.27,-280840.01 742.27,-280843.51"/>
</g>
<!-- Token -->
<g id="node6" class="node">
<title>Token</title>
<g id="a_node6"><a xlink:href="../pyVHDLParser.Token.html#pyVHDLParser.Token.Token" xlink:title="Base&#45;class for all token classes." target="_top">
<polygon fill="white" stroke="#1e90ff" points="54,-280851.01 0,-280851.01 0,-280832.51 54,-280832.51 54,-280851.01"/>
<text text-anchor="middle" x="27" y="-280837.51" font-family="Vera Sans, DejaVu Sans, Liberation Sans, Arial, Helvetica, sans" font-size="10.00">Token</text>
</a>
</g>
</g>
<!-- ValuedToken -->
<g id="node7" class="node">
<title>ValuedToken</title>
<g id="a_node7"><a xlink:href="../pyVHDLParser.Token.html#pyVHDLParser.Token.ValuedToken" xlink:title="Base&#45;class for all *valued* token." target="_top">
<polygon fill="white" stroke="#1e90ff" points="188.5,-280851.01 90,-280851.01 90,-280832.51 188.5,-280832.51 188.5,-280851.01"/>
<text text-anchor="middle" x="139.25" y="-280837.51" font-family="Vera Sans, DejaVu Sans, Liberation Sans, Arial, Helvetica, sans" font-size="10.00">ValuedToken</text>
</a>
</g>
</g>
<!-- Token&#45;&gt;ValuedToken -->
<g id="edge6" class="edge">
<title>Token&#45;&gt;ValuedToken</title>
<path fill="none" stroke="black" stroke-width="0.5" d="M54.41,-280841.76C63.25,-280841.76 73.45,-280841.76 83.64,-280841.76"/>
<polygon fill="black" stroke="black" stroke-width="0.5" points="84.62,-280843.51 89.62,-280841.76 84.62,-280840.01 84.62,-280843.51"/>
</g>
<!-- ValuedToken&#45;&gt;VHDLToken -->
<g id="edge5" class="edge">
<title>ValuedToken&#45;&gt;VHDLToken</title>
<path fill="none" stroke="black" stroke-width="0.5" d="M188.94,-280841.76C198.59,-280841.76 208.7,-280841.76 218.29,-280841.76"/>
<polygon fill="black" stroke="black" stroke-width="0.5" points="219.19,-280843.51 224.19,-280841.76 219.19,-280840.01 219.19,-280843.51"/>
</g>
</g>
</svg>
