<?xml version="1.0" encoding="UTF-8" standalone="no"?>
<!DOCTYPE svg PUBLIC "-//W3C//DTD SVG 1.1//EN"
 "http://www.w3.org/Graphics/SVG/1.1/DTD/svg11.dtd">
<!-- Generated by graphviz version 8.0.5 (20230430.1635)
 -->
<!-- Title: inheritancee88e0d8b03 Pages: 1 -->
<svg width="0pt" height="864pt"
 viewBox="0.00 0.00 0.22 864.00" xmlns="http://www.w3.org/2000/svg" xmlns:xlink="http://www.w3.org/1999/xlink">
<g id="graph0" class="graph" transform="scale(0.000554704 0.000554704) rotate(0) translate(4 1557582.83)">
<title>inheritancee88e0d8b03</title>
<!-- EndOf -->
<g id="node1" class="node">
<title>EndOf</title>
<g id="a_node1"><a xlink:title="Base&#45;class (mixin) for all EndOf*** classes.">
<polygon fill="white" stroke="#1e90ff" points="54,-1557578.83 0,-1557578.83 0,-65359.31 54,-65359.31 54,-1557578.83"/>
<text text-anchor="middle" x="27" y="-1557565.33" font-family="Vera Sans, DejaVu Sans, Liberation Sans, Arial, Helvetica, sans" font-size="10.00">EndOf</text>
</a>
</g>
</g>
<!-- EndOfDocument -->
<g id="node2" class="node">
<title>EndOfDocument</title>
<g id="a_node2"><a xlink:title="Base&#45;class (mixin) for all EndOf***Document classes.">
<polygon fill="white" stroke="#1e90ff" points="203.5,-1459104.76 90,-1459104.76 90,-163833.39 203.5,-163833.39 203.5,-1459104.76"/>
<text text-anchor="middle" x="146.75" y="-1459091.26" font-family="Vera Sans, DejaVu Sans, Liberation Sans, Arial, Helvetica, sans" font-size="10.00">EndOfDocument</text>
</a>
</g>
</g>
<!-- EndOf&#45;&gt;EndOfDocument -->
<g id="edge1" class="edge">
<title>EndOf&#45;&gt;EndOfDocument</title>
<path fill="none" stroke="black" stroke-width="0.5" d="M54.43,-811469.07C63.24,-811469.07 73.46,-811469.07 83.8,-811469.07"/>
<polygon fill="black" stroke="black" stroke-width="0.5" points="84.56,-811470.82 89.56,-811469.07 84.56,-811467.32 84.56,-811470.82"/>
</g>
<!-- EndOfDocumentToken -->
<g id="node3" class="node">
<title>EndOfDocumentToken</title>
<g id="a_node3"><a xlink:href="../pyVHDLParser/pyVHDLParser.Token.html#pyVHDLParser.Token.EndOfDocumentToken" xlink:title="EndOfDocumentToken" target="_top">
<polygon fill="white" stroke="#1e90ff" points="390.5,-1524635.19 239.5,-1524635.19 239.5,-32766.95 390.5,-32766.95 390.5,-1524635.19"/>
<text text-anchor="middle" x="315" y="-1524621.69" font-family="Vera Sans, DejaVu Sans, Liberation Sans, Arial, Helvetica, sans" font-size="10.00">EndOfDocumentToken</text>
</a>
</g>
</g>
<!-- EndOfDocument&#45;&gt;EndOfDocumentToken -->
<g id="edge3" class="edge">
<title>EndOfDocument&#45;&gt;EndOfDocumentToken</title>
<path fill="none" stroke="black" stroke-width="0.5" d="M204,-800382.46C215.24,-798166.97 227.21,-795806.65 238.97,-793489.32"/>
<polygon fill="black" stroke="black" stroke-width="0.5" points="240.73,-793488.39 239,-793483.38 237.23,-793488.37 240.73,-793488.39"/>
</g>
<!-- EndOfToken -->
<g id="node4" class="node">
<title>EndOfToken</title>
<g id="a_node4"><a xlink:href="../pyVHDLParser/pyVHDLParser.Token.html#pyVHDLParser.Token.EndOfToken" xlink:title="Base&#45;class for meta&#45;tokens representing the end of a token stream." target="_top">
<polygon fill="white" stroke="#1e90ff" points="192.25,-1491868.14 101.25,-1491868.14 101.25,0 192.25,0 192.25,-1491868.14"/>
<text text-anchor="middle" x="146.75" y="-1491854.64" font-family="Vera Sans, DejaVu Sans, Liberation Sans, Arial, Helvetica, sans" font-size="10.00">EndOfToken</text>
</a>
</g>
</g>
<!-- EndOfToken&#45;&gt;EndOfDocumentToken -->
<g id="edge2" class="edge">
<title>EndOfToken&#45;&gt;EndOfDocumentToken</title>
<path fill="none" stroke="black" stroke-width="0.5" d="M192.75,-754803.32C207.01,-757614.59 223.19,-760802.65 238.97,-763913.27"/>
<polygon fill="black" stroke="black" stroke-width="0.5" points="237.23,-763914.26 239,-763919.25 240.73,-763914.24 237.23,-763914.26"/>
</g>
<!-- Token -->
<g id="node5" class="node">
<title>Token</title>
<g id="a_node5"><a xlink:href="../pyVHDLParser/pyVHDLParser.Token.html#pyVHDLParser.Token.Token" xlink:title="Base&#45;class for all token classes." target="_top">
<polygon fill="white" stroke="#1e90ff" points="54,-745948.82 0,-745948.82 0,-745919.32 54,-745919.32 54,-745948.82"/>
<text text-anchor="middle" x="27" y="-745935.32" font-family="Vera Sans, DejaVu Sans, Liberation Sans, Arial, Helvetica, sans" font-size="10.00">Token</text>
</a>
</g>
</g>
<!-- Token&#45;&gt;EndOfToken -->
<g id="edge4" class="edge">
<title>Token&#45;&gt;EndOfToken</title>
<path fill="none" stroke="black" stroke-width="0.5" d="M54.43,-745934.07C66.41,-745934.07 81,-745934.07 94.98,-745934.07"/>
<polygon fill="black" stroke="black" stroke-width="0.5" points="95.92,-745935.82 100.92,-745934.07 95.92,-745932.32 95.92,-745935.82"/>
</g>
</g>
</svg>
