<?xml version="1.0" encoding="UTF-8" standalone="no"?>
<!DOCTYPE svg PUBLIC "-//W3C//DTD SVG 1.1//EN"
 "http://www.w3.org/Graphics/SVG/1.1/DTD/svg11.dtd">
<!-- Generated by graphviz version 8.0.5 (20230430.1635)
 -->
<!-- Title: inheritance4e0e4303f5 Pages: 1 -->
<svg width="0pt" height="864pt"
 viewBox="0.00 0.00 0.17 864.00" xmlns="http://www.w3.org/2000/svg" xmlns:xlink="http://www.w3.org/1999/xlink">
<g id="graph0" class="graph" transform="scale(0.000562846 0.000562846) rotate(0) translate(4 1535050.43)">
<title>inheritance4e0e4303f5</title>
<!-- Block -->
<g id="node1" class="node">
<title>Block</title>
<g id="a_node1"><a xlink:href="../pyVHDLParser.Blocks.html#pyVHDLParser.Blocks.Block" xlink:title="Base&#45;class for all :term:`block` classes." target="_top">
<polygon fill="white" stroke="#1e90ff" points="54,-1535046.43 0,-1535046.43 0,0 54,0 54,-1535046.43"/>
<text text-anchor="middle" x="27" y="-1535032.93" font-family="Vera Sans, DejaVu Sans, Liberation Sans, Arial, Helvetica, sans" font-size="10.00">Block</text>
</a>
</g>
</g>
<!-- FinalBlock -->
<g id="node3" class="node">
<title>FinalBlock</title>
<g id="a_node3"><a xlink:href="../pyVHDLParser.Blocks.html#pyVHDLParser.Blocks.FinalBlock" xlink:title="Base&#45;class for blocks that are final in a fast&#45;forward scanning." target="_top">
<polygon fill="white" stroke="#1e90ff" points="181,-767532.46 90,-767532.46 90,-767513.96 181,-767513.96 181,-767532.46"/>
<text text-anchor="middle" x="135.5" y="-767518.96" font-family="Vera Sans, DejaVu Sans, Liberation Sans, Arial, Helvetica, sans" font-size="10.00">FinalBlock</text>
</a>
</g>
</g>
<!-- Block&#45;&gt;FinalBlock -->
<g id="edge3" class="edge">
<title>Block&#45;&gt;FinalBlock</title>
<path fill="none" stroke="black" stroke-width="0.5" d="M54.33,-767523.21C63.29,-767523.21 73.62,-767523.21 83.84,-767523.21"/>
<polygon fill="black" stroke="black" stroke-width="0.5" points="84.82,-767524.96 89.82,-767523.21 84.82,-767521.46 84.82,-767524.96"/>
</g>
<!-- EndBlock -->
<g id="node2" class="node">
<title>EndBlock</title>
<g id="a_node2"><a xlink:href="../pyVHDLParser/pyVHDLParser.Blocks.Structural.Block.html#pyVHDLParser.Blocks.Structural.Block.EndBlock" xlink:title="EndBlock" target="_top">
<polygon fill="white" stroke="#1e90ff" points="293,-767532.47 217,-767532.47 217,-767513.96 293,-767513.96 293,-767532.47"/>
<text text-anchor="middle" x="255" y="-767518.97" font-family="Vera Sans, DejaVu Sans, Liberation Sans, Arial, Helvetica, sans" font-size="10.00">EndBlock</text>
</a>
</g>
</g>
<!-- EndBlock&#45;&gt;EndBlock -->
<g id="edge2" class="edge">
<title>EndBlock&#45;&gt;EndBlock</title>
<path fill="none" stroke="black" stroke-width="0.5" d="M236.58,-767532.71C227.62,-767541.28 233.76,-767550.47 255,-767550.47 272.26,-767550.47 279.55,-767544.4 276.87,-767537.53"/>
<polygon fill="black" stroke="black" stroke-width="0.5" points="277.75,-767535.76 273.42,-767532.71 274.9,-767537.8 277.75,-767535.76"/>
</g>
<!-- FinalBlock&#45;&gt;EndBlock -->
<g id="edge1" class="edge">
<title>FinalBlock&#45;&gt;EndBlock</title>
<path fill="none" stroke="black" stroke-width="0.5" d="M181.26,-767523.21C190.92,-767523.21 201.13,-767523.21 210.74,-767523.21"/>
<polygon fill="black" stroke="black" stroke-width="0.5" points="211.63,-767524.96 216.63,-767523.21 211.63,-767521.46 211.63,-767524.96"/>
</g>
</g>
</svg>
