<?xml version="1.0" encoding="UTF-8" standalone="no"?>
<!DOCTYPE svg PUBLIC "-//W3C//DTD SVG 1.1//EN"
 "http://www.w3.org/Graphics/SVG/1.1/DTD/svg11.dtd">
<!-- Generated by graphviz version 8.0.5 (20230430.1635)
 -->
<!-- Title: inheritance9298b17831 Pages: 1 -->
<svg width="0pt" height="864pt"
 viewBox="0.00 0.00 0.30 864.00" xmlns="http://www.w3.org/2000/svg" xmlns:xlink="http://www.w3.org/1999/xlink">
<g id="graph0" class="graph" transform="scale(0.000755088 0.000755088) rotate(0) translate(4 1144233.36)">
<title>inheritance9298b17831</title>
<!-- EndOf -->
<g id="node1" class="node">
<title>EndOf</title>
<g id="a_node1"><a xlink:title="Base&#45;class (mixin) for all EndOf*** classes.">
<polygon fill="white" stroke="#1e90ff" points="54,-496602.93 0,-496602.93 0,-496584.43 54,-496584.43 54,-496602.93"/>
<text text-anchor="middle" x="27" y="-496589.43" font-family="Vera Sans, DejaVu Sans, Liberation Sans, Arial, Helvetica, sans" font-size="10.00">EndOf</text>
</a>
</g>
</g>
<!-- EndOfDocument -->
<g id="node2" class="node">
<title>EndOfDocument</title>
<g id="a_node2"><a xlink:title="Base&#45;class (mixin) for all EndOf***Document classes.">
<polygon fill="white" stroke="#1e90ff" points="203.5,-1144229.36 90,-1144229.36 90,151042.01 203.5,151042.01 203.5,-1144229.36"/>
<text text-anchor="middle" x="146.75" y="-1144215.86" font-family="Vera Sans, DejaVu Sans, Liberation Sans, Arial, Helvetica, sans" font-size="10.00">EndOfDocument</text>
</a>
</g>
</g>
<!-- EndOf&#45;&gt;EndOfDocument -->
<g id="edge1" class="edge">
<title>EndOf&#45;&gt;EndOfDocument</title>
<path fill="none" stroke="black" stroke-width="0.5" d="M54.43,-496593.68C63.24,-496593.68 73.46,-496593.68 83.8,-496593.68"/>
<polygon fill="black" stroke="black" stroke-width="0.5" points="84.56,-496595.43 89.56,-496593.68 84.56,-496591.93 84.56,-496595.43"/>
</g>
<!-- EndOfDocumentGroup -->
<g id="node3" class="node">
<title>EndOfDocumentGroup</title>
<g id="a_node3"><a xlink:href="../../pyVHDLParser/pyVHDLParser.Groups.html#pyVHDLParser.Groups.EndOfDocumentGroup" xlink:title="EndOfDocumentGroup" target="_top">
<polygon fill="white" stroke="#1e90ff" points="390.5,-894884.31 239.5,-894884.31 239.5,-32767.05 390.5,-32767.05 390.5,-894884.31"/>
<text text-anchor="middle" x="315" y="-894870.81" font-family="Vera Sans, DejaVu Sans, Liberation Sans, Arial, Helvetica, sans" font-size="10.00">EndOfDocumentGroup</text>
</a>
</g>
</g>
<!-- EndOfDocument&#45;&gt;EndOfDocumentGroup -->
<g id="edge3" class="edge">
<title>EndOfDocument&#45;&gt;EndOfDocumentGroup</title>
<path fill="none" stroke="black" stroke-width="0.5" d="M204,-485507.07C215.24,-483291.57 227.21,-480931.26 238.97,-478613.93"/>
<polygon fill="black" stroke="black" stroke-width="0.5" points="240.73,-478612.99 239,-478607.98 237.23,-478612.97 240.73,-478612.99"/>
</g>
<!-- EndOfGroup -->
<g id="node4" class="node">
<title>EndOfGroup</title>
<g id="a_node4"><a xlink:href="../../pyVHDLParser/pyVHDLParser.Groups.html#pyVHDLParser.Groups.EndOfGroup" xlink:title="EndOfGroup" target="_top">
<polygon fill="white" stroke="#1e90ff" points="192.25,-862117.36 101.25,-862117.36 101.25,0 192.25,0 192.25,-862117.36"/>
<text text-anchor="middle" x="146.75" y="-862103.86" font-family="Vera Sans, DejaVu Sans, Liberation Sans, Arial, Helvetica, sans" font-size="10.00">EndOfGroup</text>
</a>
</g>
</g>
<!-- EndOfGroup&#45;&gt;EndOfDocumentGroup -->
<g id="edge2" class="edge">
<title>EndOfGroup&#45;&gt;EndOfDocumentGroup</title>
<path fill="none" stroke="black" stroke-width="0.5" d="M192.75,-439927.92C207.01,-442739.19 223.19,-445927.26 238.97,-449037.87"/>
<polygon fill="black" stroke="black" stroke-width="0.5" points="237.23,-449038.87 239,-449043.86 240.73,-449038.85 237.23,-449038.87"/>
</g>
<!-- Group -->
<g id="node5" class="node">
<title>Group</title>
<g id="a_node5"><a xlink:href="../../pyVHDLParser/pyVHDLParser.Groups.html#pyVHDLParser.Groups.Group" xlink:title="Group" target="_top">
<polygon fill="white" stroke="#1e90ff" points="54,-431073.43 0,-431073.43 0,-431043.93 54,-431043.93 54,-431073.43"/>
<text text-anchor="middle" x="27" y="-431059.93" font-family="Vera Sans, DejaVu Sans, Liberation Sans, Arial, Helvetica, sans" font-size="10.00">Group</text>
</a>
</g>
</g>
<!-- Group&#45;&gt;EndOfGroup -->
<g id="edge4" class="edge">
<title>Group&#45;&gt;EndOfGroup</title>
<path fill="none" stroke="black" stroke-width="0.5" d="M54.43,-431058.68C66.41,-431058.68 81,-431058.68 94.98,-431058.68"/>
<polygon fill="black" stroke="black" stroke-width="0.5" points="95.92,-431060.43 100.92,-431058.68 95.92,-431056.93 95.92,-431060.43"/>
</g>
</g>
</svg>
