<?xml version="1.0" encoding="UTF-8" standalone="no"?>
<!DOCTYPE svg PUBLIC "-//W3C//DTD SVG 1.1//EN"
 "http://www.w3.org/Graphics/SVG/1.1/DTD/svg11.dtd">
<!-- Generated by graphviz version 8.0.5 (20230430.1635)
 -->
<!-- Title: inheritanceff2bfe96f2 Pages: 1 -->
<svg width="0pt" height="864pt"
 viewBox="0.00 0.00 0.45 864.00" xmlns="http://www.w3.org/2000/svg" xmlns:xlink="http://www.w3.org/1999/xlink">
<g id="graph0" class="graph" transform="scale(0.000682546 0.000682546) rotate(0) translate(4 1265845.42)">
<title>inheritanceff2bfe96f2</title>
<!-- ConfigurationKeyword -->
<g id="node1" class="node">
<title>ConfigurationKeyword</title>
<g id="a_node1"><a xlink:href="../pyVHDLParser/pyVHDLParser.Token.Keywords.html#pyVHDLParser.Token.Keywords.ConfigurationKeyword" xlink:title="ConfigurationKeyword" target="_top">
<polygon fill="white" stroke="#1e90ff" points="652,-632929.96 486,-632929.96 486,-632911.46 652,-632911.46 652,-632929.96"/>
<text text-anchor="middle" x="569" y="-632916.46" font-family="Vera Sans, DejaVu Sans, Liberation Sans, Arial, Helvetica, sans" font-size="10.00">ConfigurationKeyword</text>
</a>
</g>
</g>
<!-- KeywordToken -->
<g id="node2" class="node">
<title>KeywordToken</title>
<g id="a_node2"><a xlink:href="../pyVHDLParser/pyVHDLParser.Token.Keywords.html#pyVHDLParser.Token.Keywords.KeywordToken" xlink:title="KeywordToken" target="_top">
<polygon fill="white" stroke="#1e90ff" points="450,-632929.96 344,-632929.96 344,-632911.46 450,-632911.46 450,-632929.96"/>
<text text-anchor="middle" x="397" y="-632916.46" font-family="Vera Sans, DejaVu Sans, Liberation Sans, Arial, Helvetica, sans" font-size="10.00">KeywordToken</text>
</a>
</g>
</g>
<!-- KeywordToken&#45;&gt;ConfigurationKeyword -->
<g id="edge1" class="edge">
<title>KeywordToken&#45;&gt;ConfigurationKeyword</title>
<path fill="none" stroke="black" stroke-width="0.5" d="M450.39,-632920.71C459.77,-632920.71 469.77,-632920.71 479.84,-632920.71"/>
<polygon fill="black" stroke="black" stroke-width="0.5" points="480.76,-632922.46 485.76,-632920.71 480.76,-632918.96 480.76,-632922.46"/>
</g>
<!-- VHDLToken -->
<g id="node3" class="node">
<title>VHDLToken</title>
<g id="a_node3"><a xlink:href="../pyVHDLParser.Token.html#pyVHDLParser.Token.VHDLToken" xlink:title="Base&#45;class for all VHDL specific tokens." target="_top">
<polygon fill="white" stroke="#1e90ff" points="308,-1265841.42 224.5,-1265841.42 224.5,0 308,0 308,-1265841.42"/>
<text text-anchor="middle" x="266.25" y="-1265827.92" font-family="Vera Sans, DejaVu Sans, Liberation Sans, Arial, Helvetica, sans" font-size="10.00">VHDLToken</text>
</a>
</g>
</g>
<!-- VHDLToken&#45;&gt;KeywordToken -->
<g id="edge2" class="edge">
<title>VHDLToken&#45;&gt;KeywordToken</title>
<path fill="none" stroke="black" stroke-width="0.5" d="M308.34,-632920.71C317.69,-632920.71 327.8,-632920.71 337.71,-632920.71"/>
<polygon fill="black" stroke="black" stroke-width="0.5" points="338.52,-632922.46 343.52,-632920.71 338.52,-632918.96 338.52,-632922.46"/>
</g>
<!-- Token -->
<g id="node4" class="node">
<title>Token</title>
<g id="a_node4"><a xlink:href="../pyVHDLParser.Token.html#pyVHDLParser.Token.Token" xlink:title="Base&#45;class for all token classes." target="_top">
<polygon fill="white" stroke="#1e90ff" points="54,-1265841.37 0,-1265841.37 0,-0.05 54,-0.05 54,-1265841.37"/>
<text text-anchor="middle" x="27" y="-1265827.87" font-family="Vera Sans, DejaVu Sans, Liberation Sans, Arial, Helvetica, sans" font-size="10.00">Token</text>
</a>
</g>
</g>
<!-- ValuedToken -->
<g id="node5" class="node">
<title>ValuedToken</title>
<g id="a_node5"><a xlink:href="../pyVHDLParser.Token.html#pyVHDLParser.Token.ValuedToken" xlink:title="Base&#45;class for all *valued* token." target="_top">
<polygon fill="white" stroke="#1e90ff" points="188.5,-632929.96 90,-632929.96 90,-632911.46 188.5,-632911.46 188.5,-632929.96"/>
<text text-anchor="middle" x="139.25" y="-632916.46" font-family="Vera Sans, DejaVu Sans, Liberation Sans, Arial, Helvetica, sans" font-size="10.00">ValuedToken</text>
</a>
</g>
</g>
<!-- Token&#45;&gt;ValuedToken -->
<g id="edge4" class="edge">
<title>Token&#45;&gt;ValuedToken</title>
<path fill="none" stroke="black" stroke-width="0.5" d="M54.41,-632920.71C63.25,-632920.71 73.45,-632920.71 83.64,-632920.71"/>
<polygon fill="black" stroke="black" stroke-width="0.5" points="84.62,-632922.46 89.62,-632920.71 84.62,-632918.96 84.62,-632922.46"/>
</g>
<!-- ValuedToken&#45;&gt;VHDLToken -->
<g id="edge3" class="edge">
<title>ValuedToken&#45;&gt;VHDLToken</title>
<path fill="none" stroke="black" stroke-width="0.5" d="M188.94,-632920.71C198.59,-632920.71 208.7,-632920.71 218.29,-632920.71"/>
<polygon fill="black" stroke="black" stroke-width="0.5" points="219.19,-632922.46 224.19,-632920.71 219.19,-632918.96 219.19,-632922.46"/>
</g>
</g>
</svg>
