<?xml version="1.0" encoding="UTF-8" standalone="no"?>
<!DOCTYPE svg PUBLIC "-//W3C//DTD SVG 1.1//EN"
 "http://www.w3.org/Graphics/SVG/1.1/DTD/svg11.dtd">
<!-- Generated by graphviz version 8.0.5 (20230430.1635)
 -->
<!-- Title: inheritance6ecc41ac36 Pages: 1 -->
<svg width="0pt" height="864pt"
 viewBox="0.00 0.00 0.32 864.00" xmlns="http://www.w3.org/2000/svg" xmlns:xlink="http://www.w3.org/1999/xlink">
<g id="graph0" class="graph" transform="scale(0.00068056 0.00068056) rotate(0) translate(4 1269538.22)">
<title>inheritance6ecc41ac36</title>
<!-- Block -->
<g id="node1" class="node">
<title>Block</title>
<g id="a_node1"><a xlink:href="../pyVHDLParser.Blocks.html#pyVHDLParser.Blocks.Block" xlink:title="Base&#45;class for all :term:`block` classes." target="_top">
<polygon fill="white" stroke="#1e90ff" points="54,-1269534.22 0,-1269534.22 0,0 54,0 54,-1269534.22"/>
<text text-anchor="middle" x="27" y="-1269520.72" font-family="Vera Sans, DejaVu Sans, Liberation Sans, Arial, Helvetica, sans" font-size="10.00">Block</text>
</a>
</g>
</g>
<!-- FinalBlock -->
<g id="node3" class="node">
<title>FinalBlock</title>
<g id="a_node3"><a xlink:href="../pyVHDLParser.Blocks.html#pyVHDLParser.Blocks.FinalBlock" xlink:title="Base&#45;class for blocks that are final in a fast&#45;forward scanning." target="_top">
<polygon fill="white" stroke="#1e90ff" points="181,-634776.36 90,-634776.36 90,-634757.86 181,-634757.86 181,-634776.36"/>
<text text-anchor="middle" x="135.5" y="-634762.86" font-family="Vera Sans, DejaVu Sans, Liberation Sans, Arial, Helvetica, sans" font-size="10.00">FinalBlock</text>
</a>
</g>
</g>
<!-- Block&#45;&gt;FinalBlock -->
<g id="edge4" class="edge">
<title>Block&#45;&gt;FinalBlock</title>
<path fill="none" stroke="black" stroke-width="0.5" d="M54.33,-634767.11C63.29,-634767.11 73.62,-634767.11 83.84,-634767.11"/>
<polygon fill="black" stroke="black" stroke-width="0.5" points="84.82,-634768.86 89.82,-634767.11 84.82,-634765.36 84.82,-634768.86"/>
</g>
<!-- EndBlock -->
<g id="node2" class="node">
<title>EndBlock</title>
<g id="a_node2"><a xlink:href="../pyVHDLParser.Blocks.Generic1.html#pyVHDLParser.Blocks.Generic1.EndBlock" xlink:title="EndBlock" target="_top">
<polygon fill="white" stroke="#1e90ff" points="293,-634776.36 217,-634776.36 217,-634757.86 293,-634757.86 293,-634776.36"/>
<text text-anchor="middle" x="255" y="-634762.86" font-family="Vera Sans, DejaVu Sans, Liberation Sans, Arial, Helvetica, sans" font-size="10.00">EndBlock</text>
</a>
</g>
</g>
<!-- EndGenerateBlock -->
<g id="node4" class="node">
<title>EndGenerateBlock</title>
<g id="a_node4"><a xlink:href="../pyVHDLParser/pyVHDLParser.Blocks.Generate.IfGenerate.html#pyVHDLParser.Blocks.Generate.IfGenerate.EndGenerateBlock" xlink:title="EndGenerateBlock" target="_top">
<polygon fill="white" stroke="#1e90ff" points="465,-634776.36 329,-634776.36 329,-634757.86 465,-634757.86 465,-634776.36"/>
<text text-anchor="middle" x="397" y="-634762.86" font-family="Vera Sans, DejaVu Sans, Liberation Sans, Arial, Helvetica, sans" font-size="10.00">EndGenerateBlock</text>
</a>
</g>
</g>
<!-- EndBlock&#45;&gt;EndGenerateBlock -->
<g id="edge2" class="edge">
<title>EndBlock&#45;&gt;EndGenerateBlock</title>
<path fill="none" stroke="black" stroke-width="0.5" d="M293.15,-634767.11C302.38,-634767.11 312.59,-634767.11 322.89,-634767.11"/>
<polygon fill="black" stroke="black" stroke-width="0.5" points="323.62,-634768.86 328.62,-634767.11 323.62,-634765.36 323.62,-634768.86"/>
</g>
<!-- FinalBlock&#45;&gt;EndBlock -->
<g id="edge1" class="edge">
<title>FinalBlock&#45;&gt;EndBlock</title>
<path fill="none" stroke="black" stroke-width="0.5" d="M181.26,-634767.11C190.92,-634767.11 201.13,-634767.11 210.74,-634767.11"/>
<polygon fill="black" stroke="black" stroke-width="0.5" points="211.63,-634768.86 216.63,-634767.11 211.63,-634765.36 211.63,-634768.86"/>
</g>
<!-- EndGenerateBlock&#45;&gt;EndGenerateBlock -->
<g id="edge3" class="edge">
<title>EndGenerateBlock&#45;&gt;EndGenerateBlock</title>
<path fill="none" stroke="black" stroke-width="0.5" d="M375.11,-634776.61C364.47,-634785.18 371.76,-634794.36 397,-634794.36 417.9,-634794.36 426.5,-634788.06 422.79,-634781.03"/>
<polygon fill="black" stroke="black" stroke-width="0.5" points="423.51,-634779.2 418.89,-634776.61 420.88,-634781.51 423.51,-634779.2"/>
</g>
</g>
</svg>
