<?xml version="1.0" encoding="UTF-8" standalone="no"?>
<!DOCTYPE svg PUBLIC "-//W3C//DTD SVG 1.1//EN"
 "http://www.w3.org/Graphics/SVG/1.1/DTD/svg11.dtd">
<!-- Generated by graphviz version 8.0.5 (20230430.1635)
 -->
<!-- Title: inheritancea4a1f15a14 Pages: 1 -->
<svg width="0pt" height="864pt"
 viewBox="0.00 0.00 0.34 864.00" xmlns="http://www.w3.org/2000/svg" xmlns:xlink="http://www.w3.org/1999/xlink">
<g id="graph0" class="graph" transform="scale(0.000665297 0.000665297) rotate(0) translate(4 1298663.81)">
<title>inheritancea4a1f15a14</title>
<!-- BeginBlock -->
<g id="node1" class="node">
<title>BeginBlock</title>
<g id="a_node1"><a xlink:href="../pyVHDLParser.Blocks.Generic1.html#pyVHDLParser.Blocks.Generic1.BeginBlock" xlink:title="BeginBlock" target="_top">
<polygon fill="white" stroke="#1e90ff" points="181,-649339.16 90,-649339.16 90,-649320.66 181,-649320.66 181,-649339.16"/>
<text text-anchor="middle" x="135.5" y="-649325.66" font-family="Vera Sans, DejaVu Sans, Liberation Sans, Arial, Helvetica, sans" font-size="10.00">BeginBlock</text>
</a>
</g>
</g>
<!-- SequentialBeginBlock -->
<g id="node4" class="node">
<title>SequentialBeginBlock</title>
<g id="a_node4"><a xlink:href="../pyVHDLParser.Blocks.Generic.html#pyVHDLParser.Blocks.Generic.SequentialBeginBlock" xlink:title="SequentialBeginBlock" target="_top">
<polygon fill="white" stroke="#1e90ff" points="383,-649339.16 217,-649339.16 217,-649320.66 383,-649320.66 383,-649339.16"/>
<text text-anchor="middle" x="300" y="-649325.66" font-family="Vera Sans, DejaVu Sans, Liberation Sans, Arial, Helvetica, sans" font-size="10.00">SequentialBeginBlock</text>
</a>
</g>
</g>
<!-- BeginBlock&#45;&gt;SequentialBeginBlock -->
<g id="edge3" class="edge">
<title>BeginBlock&#45;&gt;SequentialBeginBlock</title>
<path fill="none" stroke="black" stroke-width="0.5" d="M181.33,-649329.91C190.52,-649329.91 200.49,-649329.91 210.61,-649329.91"/>
<polygon fill="black" stroke="black" stroke-width="0.5" points="211.58,-649331.66 216.58,-649329.91 211.58,-649328.16 211.58,-649331.66"/>
</g>
<!-- Block -->
<g id="node2" class="node">
<title>Block</title>
<g id="a_node2"><a xlink:href="../pyVHDLParser.Blocks.html#pyVHDLParser.Blocks.Block" xlink:title="Base&#45;class for all :term:`block` classes." target="_top">
<polygon fill="white" stroke="#1e90ff" points="54,-1298659.81 0,-1298659.81 0,0 54,0 54,-1298659.81"/>
<text text-anchor="middle" x="27" y="-1298646.31" font-family="Vera Sans, DejaVu Sans, Liberation Sans, Arial, Helvetica, sans" font-size="10.00">Block</text>
</a>
</g>
</g>
<!-- Block&#45;&gt;BeginBlock -->
<g id="edge1" class="edge">
<title>Block&#45;&gt;BeginBlock</title>
<path fill="none" stroke="black" stroke-width="0.5" d="M54.33,-649329.91C63.29,-649329.91 73.62,-649329.91 83.84,-649329.91"/>
<polygon fill="black" stroke="black" stroke-width="0.5" points="84.82,-649331.66 89.82,-649329.91 84.82,-649328.16 84.82,-649331.66"/>
</g>
<!-- LoopBlock -->
<g id="node3" class="node">
<title>LoopBlock</title>
<g id="a_node3"><a xlink:href="../pyVHDLParser/pyVHDLParser.Blocks.ControlStructure.ForLoop.html#pyVHDLParser.Blocks.ControlStructure.ForLoop.LoopBlock" xlink:title="LoopBlock" target="_top">
<polygon fill="white" stroke="#1e90ff" points="502.5,-649339.16 419,-649339.16 419,-649320.66 502.5,-649320.66 502.5,-649339.16"/>
<text text-anchor="middle" x="460.75" y="-649325.66" font-family="Vera Sans, DejaVu Sans, Liberation Sans, Arial, Helvetica, sans" font-size="10.00">LoopBlock</text>
</a>
</g>
</g>
<!-- SequentialBeginBlock&#45;&gt;LoopBlock -->
<g id="edge2" class="edge">
<title>SequentialBeginBlock&#45;&gt;LoopBlock</title>
<path fill="none" stroke="black" stroke-width="0.5" d="M383.17,-649329.91C393.44,-649329.91 403.65,-649329.91 413.11,-649329.91"/>
<polygon fill="black" stroke="black" stroke-width="0.5" points="413.9,-649331.66 418.9,-649329.91 413.9,-649328.16 413.9,-649331.66"/>
</g>
</g>
</svg>
