<?xml version="1.0" encoding="UTF-8" standalone="no"?>
<!DOCTYPE svg PUBLIC "-//W3C//DTD SVG 1.1//EN"
 "http://www.w3.org/Graphics/SVG/1.1/DTD/svg11.dtd">
<!-- Generated by graphviz version 8.0.5 (20230430.1635)
 -->
<!-- Title: inheritanceefa3762e52 Pages: 1 -->
<svg width="0pt" height="864pt"
 viewBox="0.00 0.00 0.43 864.00" xmlns="http://www.w3.org/2000/svg" xmlns:xlink="http://www.w3.org/1999/xlink">
<g id="graph0" class="graph" transform="scale(0.000719864 0.000719864) rotate(0) translate(4 1200222.18)">
<title>inheritanceefa3762e52</title>
<!-- ArrayKeyword -->
<g id="node1" class="node">
<title>ArrayKeyword</title>
<g id="a_node1"><a xlink:href="../pyVHDLParser/pyVHDLParser.Token.Keywords.html#pyVHDLParser.Token.Keywords.ArrayKeyword" xlink:title="Reserved word &#39;array&#39; to define array types." target="_top">
<polygon fill="white" stroke="#1e90ff" points="592,-600118.34 486,-600118.34 486,-600099.84 592,-600099.84 592,-600118.34"/>
<text text-anchor="middle" x="539" y="-600104.84" font-family="Vera Sans, DejaVu Sans, Liberation Sans, Arial, Helvetica, sans" font-size="10.00">ArrayKeyword</text>
</a>
</g>
</g>
<!-- KeywordToken -->
<g id="node2" class="node">
<title>KeywordToken</title>
<g id="a_node2"><a xlink:href="../pyVHDLParser/pyVHDLParser.Token.Keywords.html#pyVHDLParser.Token.Keywords.KeywordToken" xlink:title="KeywordToken" target="_top">
<polygon fill="white" stroke="#1e90ff" points="450,-600118.34 344,-600118.34 344,-600099.84 450,-600099.84 450,-600118.34"/>
<text text-anchor="middle" x="397" y="-600104.84" font-family="Vera Sans, DejaVu Sans, Liberation Sans, Arial, Helvetica, sans" font-size="10.00">KeywordToken</text>
</a>
</g>
</g>
<!-- KeywordToken&#45;&gt;ArrayKeyword -->
<g id="edge1" class="edge">
<title>KeywordToken&#45;&gt;ArrayKeyword</title>
<path fill="none" stroke="black" stroke-width="0.5" d="M450.13,-600109.09C459.88,-600109.09 470.12,-600109.09 480.03,-600109.09"/>
<polygon fill="black" stroke="black" stroke-width="0.5" points="480.83,-600110.84 485.83,-600109.09 480.83,-600107.34 480.83,-600110.84"/>
</g>
<!-- VHDLToken -->
<g id="node3" class="node">
<title>VHDLToken</title>
<g id="a_node3"><a xlink:href="../pyVHDLParser.Token.html#pyVHDLParser.Token.VHDLToken" xlink:title="Base&#45;class for all VHDL specific tokens." target="_top">
<polygon fill="white" stroke="#1e90ff" points="308,-1200218.13 224.5,-1200218.13 224.5,-0.05 308,-0.05 308,-1200218.13"/>
<text text-anchor="middle" x="266.25" y="-1200204.63" font-family="Vera Sans, DejaVu Sans, Liberation Sans, Arial, Helvetica, sans" font-size="10.00">VHDLToken</text>
</a>
</g>
</g>
<!-- VHDLToken&#45;&gt;KeywordToken -->
<g id="edge2" class="edge">
<title>VHDLToken&#45;&gt;KeywordToken</title>
<path fill="none" stroke="black" stroke-width="0.5" d="M308.34,-600109.09C317.69,-600109.09 327.8,-600109.09 337.71,-600109.09"/>
<polygon fill="black" stroke="black" stroke-width="0.5" points="338.52,-600110.84 343.52,-600109.09 338.52,-600107.34 338.52,-600110.84"/>
</g>
<!-- Token -->
<g id="node4" class="node">
<title>Token</title>
<g id="a_node4"><a xlink:href="../pyVHDLParser.Token.html#pyVHDLParser.Token.Token" xlink:title="Base&#45;class for all token classes." target="_top">
<polygon fill="white" stroke="#1e90ff" points="54,-1200218.18 0,-1200218.18 0,0 54,0 54,-1200218.18"/>
<text text-anchor="middle" x="27" y="-1200204.68" font-family="Vera Sans, DejaVu Sans, Liberation Sans, Arial, Helvetica, sans" font-size="10.00">Token</text>
</a>
</g>
</g>
<!-- ValuedToken -->
<g id="node5" class="node">
<title>ValuedToken</title>
<g id="a_node5"><a xlink:href="../pyVHDLParser.Token.html#pyVHDLParser.Token.ValuedToken" xlink:title="Base&#45;class for all *valued* token." target="_top">
<polygon fill="white" stroke="#1e90ff" points="188.5,-600118.34 90,-600118.34 90,-600099.84 188.5,-600099.84 188.5,-600118.34"/>
<text text-anchor="middle" x="139.25" y="-600104.84" font-family="Vera Sans, DejaVu Sans, Liberation Sans, Arial, Helvetica, sans" font-size="10.00">ValuedToken</text>
</a>
</g>
</g>
<!-- Token&#45;&gt;ValuedToken -->
<g id="edge4" class="edge">
<title>Token&#45;&gt;ValuedToken</title>
<path fill="none" stroke="black" stroke-width="0.5" d="M54.41,-600109.09C63.25,-600109.09 73.45,-600109.09 83.64,-600109.09"/>
<polygon fill="black" stroke="black" stroke-width="0.5" points="84.62,-600110.84 89.62,-600109.09 84.62,-600107.34 84.62,-600110.84"/>
</g>
<!-- ValuedToken&#45;&gt;VHDLToken -->
<g id="edge3" class="edge">
<title>ValuedToken&#45;&gt;VHDLToken</title>
<path fill="none" stroke="black" stroke-width="0.5" d="M188.94,-600109.09C198.59,-600109.09 208.7,-600109.09 218.29,-600109.09"/>
<polygon fill="black" stroke="black" stroke-width="0.5" points="219.19,-600110.84 224.19,-600109.09 219.19,-600107.34 219.19,-600110.84"/>
</g>
</g>
</svg>
