<?xml version="1.0" encoding="UTF-8" standalone="no"?>
<!DOCTYPE svg PUBLIC "-//W3C//DTD SVG 1.1//EN"
 "http://www.w3.org/Graphics/SVG/1.1/DTD/svg11.dtd">
<!-- Generated by graphviz version 8.0.5 (20230430.1635)
 -->
<!-- Title: inheritance4e0e4303f5 Pages: 1 -->
<svg width="0pt" height="864pt"
 viewBox="0.00 0.00 0.40 864.00" xmlns="http://www.w3.org/2000/svg" xmlns:xlink="http://www.w3.org/1999/xlink">
<g id="graph0" class="graph" transform="scale(0.00134266 0.00134266) rotate(0) translate(4 643494.07)">
<title>inheritance4e0e4303f5</title>
<!-- Block -->
<g id="node1" class="node">
<title>Block</title>
<g id="a_node1"><a xlink:href="../pyVHDLParser.Blocks.html#pyVHDLParser.Blocks.Block" xlink:title="Base&#45;class for all :term:`block` classes." target="_top">
<polygon fill="white" stroke="#1e90ff" points="54,-643490.07 0,-643490.07 0,0 54,0 54,-643490.07"/>
<text text-anchor="middle" x="27" y="-643476.57" font-family="Vera Sans, DejaVu Sans, Liberation Sans, Arial, Helvetica, sans" font-size="10.00">Block</text>
</a>
</g>
</g>
<!-- FinalBlock -->
<g id="node3" class="node">
<title>FinalBlock</title>
<g id="a_node3"><a xlink:href="../pyVHDLParser.Blocks.html#pyVHDLParser.Blocks.FinalBlock" xlink:title="Base&#45;class for blocks that are final in a fast&#45;forward scanning." target="_top">
<polygon fill="white" stroke="#1e90ff" points="181,-321754.29 90,-321754.29 90,-321735.79 181,-321735.79 181,-321754.29"/>
<text text-anchor="middle" x="135.5" y="-321740.79" font-family="Vera Sans, DejaVu Sans, Liberation Sans, Arial, Helvetica, sans" font-size="10.00">FinalBlock</text>
</a>
</g>
</g>
<!-- Block&#45;&gt;FinalBlock -->
<g id="edge3" class="edge">
<title>Block&#45;&gt;FinalBlock</title>
<path fill="none" stroke="black" stroke-width="0.5" d="M54.33,-321745.04C63.29,-321745.04 73.62,-321745.04 83.84,-321745.04"/>
<polygon fill="black" stroke="black" stroke-width="0.5" points="84.82,-321746.79 89.82,-321745.04 84.82,-321743.29 84.82,-321746.79"/>
</g>
<!-- EndBlock -->
<g id="node2" class="node">
<title>EndBlock</title>
<g id="a_node2"><a xlink:href="../pyVHDLParser.Blocks.Generic1.html#pyVHDLParser.Blocks.Generic1.EndBlock" xlink:title="EndBlock" target="_top">
<polygon fill="white" stroke="#1e90ff" points="293,-321754.29 217,-321754.29 217,-321735.78 293,-321735.78 293,-321754.29"/>
<text text-anchor="middle" x="255" y="-321740.79" font-family="Vera Sans, DejaVu Sans, Liberation Sans, Arial, Helvetica, sans" font-size="10.00">EndBlock</text>
</a>
</g>
</g>
<!-- EndBlock&#45;&gt;EndBlock -->
<g id="edge1" class="edge">
<title>EndBlock&#45;&gt;EndBlock</title>
<path fill="none" stroke="black" stroke-width="0.5" d="M236.58,-321754.53C227.62,-321763.1 233.76,-321772.29 255,-321772.29 272.26,-321772.29 279.55,-321766.22 276.87,-321759.35"/>
<polygon fill="black" stroke="black" stroke-width="0.5" points="277.75,-321757.58 273.42,-321754.53 274.9,-321759.62 277.75,-321757.58"/>
</g>
<!-- FinalBlock&#45;&gt;EndBlock -->
<g id="edge2" class="edge">
<title>FinalBlock&#45;&gt;EndBlock</title>
<path fill="none" stroke="black" stroke-width="0.5" d="M181.26,-321745.04C190.92,-321745.04 201.13,-321745.04 210.74,-321745.04"/>
<polygon fill="black" stroke="black" stroke-width="0.5" points="211.63,-321746.79 216.63,-321745.04 211.63,-321743.29 211.63,-321746.79"/>
</g>
</g>
</svg>
