<?xml version="1.0" encoding="UTF-8" standalone="no"?>
<!DOCTYPE svg PUBLIC "-//W3C//DTD SVG 1.1//EN"
 "http://www.w3.org/Graphics/SVG/1.1/DTD/svg11.dtd">
<!-- Generated by graphviz version 8.0.5 (20230430.1635)
 -->
<!-- Title: inheritanceb66c0c19c1 Pages: 1 -->
<svg width="0pt" height="864pt"
 viewBox="0.00 0.00 0.44 864.00" xmlns="http://www.w3.org/2000/svg" xmlns:xlink="http://www.w3.org/1999/xlink">
<g id="graph0" class="graph" transform="scale(0.000636675 0.000636675) rotate(0) translate(4 1357046.09)">
<title>inheritanceb66c0c19c1</title>
<!-- DesignUnit -->
<g id="node1" class="node">
<title>DesignUnit</title>
<g id="a_node1"><a xlink:title="A ``DesignUnit`` is a base&#45;class for all design units.">
<polygon fill="white" stroke="#1e90ff" points="300.5,-1357042.09 209.5,-1357042.09 209.5,0 300.5,0 300.5,-1357042.09"/>
<text text-anchor="middle" x="255" y="-1357028.59" font-family="Vera Sans, DejaVu Sans, Liberation Sans, Arial, Helvetica, sans" font-size="10.00">DesignUnit</text>
</a>
</g>
</g>
<!-- SecondaryUnit -->
<g id="node7" class="node">
<title>SecondaryUnit</title>
<g id="a_node7"><a xlink:title="A ``SecondaryUnit`` is a base&#45;class for all secondary units.">
<polygon fill="white" stroke="#1e90ff" points="498.75,-678530.29 385.25,-678530.29 385.25,-678511.79 498.75,-678511.79 498.75,-678530.29"/>
<text text-anchor="middle" x="442" y="-678516.79" font-family="Vera Sans, DejaVu Sans, Liberation Sans, Arial, Helvetica, sans" font-size="10.00">SecondaryUnit</text>
</a>
</g>
</g>
<!-- DesignUnit&#45;&gt;SecondaryUnit -->
<g id="edge7" class="edge">
<title>DesignUnit&#45;&gt;SecondaryUnit</title>
<path fill="none" stroke="black" stroke-width="0.5" d="M300.78,-678521.04C324.35,-678521.04 353.6,-678521.04 379.27,-678521.04"/>
<polygon fill="black" stroke="black" stroke-width="0.5" points="380.04,-678522.79 385.04,-678521.04 380.04,-678519.29 380.04,-678522.79"/>
</g>
<!-- ModelEntity -->
<g id="node2" class="node">
<title>ModelEntity</title>
<g id="a_node2"><a xlink:title="``ModelEntity`` is the base&#45;class for all classes in the VHDL language model, except for mixin classes (see multiple">
<polygon fill="white" stroke="#1e90ff" points="136,-1301800.61 37.5,-1301800.61 37.5,-186311.47 136,-186311.47 136,-1301800.61"/>
<text text-anchor="middle" x="86.75" y="-1301787.11" font-family="Vera Sans, DejaVu Sans, Liberation Sans, Arial, Helvetica, sans" font-size="10.00">ModelEntity</text>
</a>
</g>
</g>
<!-- ModelEntity&#45;&gt;DesignUnit -->
<g id="edge1" class="edge">
<title>ModelEntity&#45;&gt;DesignUnit</title>
<path fill="none" stroke="black" stroke-width="0.5" d="M136.5,-724839.29C159.42,-715805.88 186.56,-705104.66 208.99,-696265.09"/>
<polygon fill="black" stroke="black" stroke-width="0.5" points="210.74,-696264.43 209,-696259.43 207.24,-696264.42 210.74,-696264.43"/>
</g>
<!-- NamedEntityMixin -->
<g id="node3" class="node">
<title>NamedEntityMixin</title>
<g id="a_node3"><a xlink:title="A ``NamedEntityMixin`` is a mixin class for all VHDL entities that have identifiers.">
<polygon fill="white" stroke="#1e90ff" points="154.75,-678530.29 18.75,-678530.29 18.75,-678511.79 154.75,-678511.79 154.75,-678530.29"/>
<text text-anchor="middle" x="86.75" y="-678516.79" font-family="Vera Sans, DejaVu Sans, Liberation Sans, Arial, Helvetica, sans" font-size="10.00">NamedEntityMixin</text>
</a>
</g>
</g>
<!-- NamedEntityMixin&#45;&gt;DesignUnit -->
<g id="edge2" class="edge">
<title>NamedEntityMixin&#45;&gt;DesignUnit</title>
<path fill="none" stroke="black" stroke-width="0.5" d="M154.89,-678521.04C170.96,-678521.04 187.86,-678521.04 203.06,-678521.04"/>
<polygon fill="black" stroke="black" stroke-width="0.5" points="204.02,-678522.79 209.02,-678521.04 204.02,-678519.29 204.02,-678522.79"/>
</g>
<!-- DocumentedEntityMixin -->
<g id="node4" class="node">
<title>DocumentedEntityMixin</title>
<g id="a_node4"><a xlink:title="A ``DocumentedEntityMixin`` is a mixin class for all VHDL entities that can have an associated documentation.">
<polygon fill="white" stroke="#1e90ff" points="173.5,-678493.29 0,-678493.29 0,-678474.79 173.5,-678474.79 173.5,-678493.29"/>
<text text-anchor="middle" x="86.75" y="-678479.79" font-family="Vera Sans, DejaVu Sans, Liberation Sans, Arial, Helvetica, sans" font-size="10.00">DocumentedEntityMixin</text>
</a>
</g>
</g>
<!-- DocumentedEntityMixin&#45;&gt;DesignUnit -->
<g id="edge3" class="edge">
<title>DocumentedEntityMixin&#45;&gt;DesignUnit</title>
<path fill="none" stroke="black" stroke-width="0.5" d="M131.82,-678493.79C145.21,-678496.76 159.96,-678500.03 173.5,-678503.04 183.2,-678505.2 193.55,-678507.51 203.5,-678509.73"/>
<polygon fill="black" stroke="black" stroke-width="0.5" points="204.03,-678511.65 209.29,-678511.03 204.8,-678508.23 204.03,-678511.65"/>
</g>
<!-- DesignUnitWithContextMixin -->
<g id="node5" class="node">
<title>DesignUnitWithContextMixin</title>
<polygon fill="white" stroke="#1e90ff" points="547.5,-678567.29 336.5,-678567.29 336.5,-678548.79 547.5,-678548.79 547.5,-678567.29"/>
<text text-anchor="middle" x="442" y="-678553.79" font-family="Vera Sans, DejaVu Sans, Liberation Sans, Arial, Helvetica, sans" font-size="10.00">DesignUnitWithContextMixin</text>
</g>
<!-- PackageBody -->
<g id="node6" class="node">
<title>PackageBody</title>
<g id="a_node6"><a xlink:href="../pyVHDLParser/pyVHDLParser.DocumentModel.DesignUnit.PackageBody.html#pyVHDLParser.DocumentModel.DesignUnit.PackageBody.PackageBody" xlink:title="PackageBody" target="_top">
<polygon fill="white" stroke="#1e90ff" points="682,-678548.29 583.5,-678548.29 583.5,-678529.79 682,-678529.79 682,-678548.29"/>
<text text-anchor="middle" x="632.75" y="-678534.79" font-family="Vera Sans, DejaVu Sans, Liberation Sans, Arial, Helvetica, sans" font-size="10.00">PackageBody</text>
</a>
</g>
</g>
<!-- DesignUnitWithContextMixin&#45;&gt;PackageBody -->
<g id="edge5" class="edge">
<title>DesignUnitWithContextMixin&#45;&gt;PackageBody</title>
<path fill="none" stroke="black" stroke-width="0.5" d="M539.59,-678548.32C552.68,-678547 565.72,-678545.69 577.69,-678544.48"/>
<polygon fill="black" stroke="black" stroke-width="0.5" points="578.68,-678546.14 583.48,-678543.9 578.33,-678542.66 578.68,-678546.14"/>
</g>
<!-- PackageBody&#45;&gt;PackageBody -->
<g id="edge6" class="edge">
<title>PackageBody&#45;&gt;PackageBody</title>
<path fill="none" stroke="black" stroke-width="0.5" d="M603.35,-678548.54C589.05,-678557.11 598.85,-678566.29 632.75,-678566.29 661.89,-678566.29 673.22,-678559.51 666.75,-678552.16"/>
<polygon fill="black" stroke="black" stroke-width="0.5" points="667.16,-678550.26 662.15,-678548.54 665,-678553.01 667.16,-678550.26"/>
</g>
<!-- SecondaryUnit&#45;&gt;PackageBody -->
<g id="edge4" class="edge">
<title>SecondaryUnit&#45;&gt;PackageBody</title>
<path fill="none" stroke="black" stroke-width="0.5" d="M499.12,-678526.39C523.87,-678528.75 552.84,-678531.52 577.38,-678533.86"/>
<polygon fill="black" stroke="black" stroke-width="0.5" points="578.05,-678535.68 583.2,-678534.41 578.39,-678532.2 578.05,-678535.68"/>
</g>
</g>
</svg>
