<?xml version="1.0" encoding="UTF-8" standalone="no"?>
<!DOCTYPE svg PUBLIC "-//W3C//DTD SVG 1.1//EN"
 "http://www.w3.org/Graphics/SVG/1.1/DTD/svg11.dtd">
<!-- Generated by graphviz version 8.0.5 (20230430.1635)
 -->
<!-- Title: inheritance0fe16915f8 Pages: 1 -->
<svg width="563pt" height="27pt"
 viewBox="0.00 0.00 563.00 26.57" xmlns="http://www.w3.org/2000/svg" xmlns:xlink="http://www.w3.org/1999/xlink">
<g id="graph0" class="graph" transform="scale(1 1) rotate(0) translate(4 22.57)">
<title>inheritance0fe16915f8</title>
<!-- Block -->
<g id="node1" class="node">
<title>Block</title>
<g id="a_node1"><a xlink:href="../pyVHDLParser.Blocks.html#pyVHDLParser.Blocks.Block" xlink:title="Base&#45;class for all :term:`block` classes." target="_top">
<polygon fill="white" stroke="#1e90ff" points="54,-18.54 0,-18.54 0,-0.04 54,-0.04 54,-18.54"/>
<text text-anchor="middle" x="27" y="-5.04" font-family="Vera Sans, DejaVu Sans, Liberation Sans, Arial, Helvetica, sans" font-size="10.00">Block</text>
</a>
</g>
</g>
<!-- SkipableBlock -->
<g id="node3" class="node">
<title>SkipableBlock</title>
<g id="a_node3"><a xlink:href="../pyVHDLParser.Blocks.html#pyVHDLParser.Blocks.SkipableBlock" xlink:title="Base&#45;class for blocks that can be skipped in fast&#45;forward scanning." target="_top">
<polygon fill="white" stroke="#1e90ff" points="203.5,-18.57 90,-18.57 90,0 203.5,0 203.5,-18.57"/>
<text text-anchor="middle" x="146.75" y="-5.07" font-family="Vera Sans, DejaVu Sans, Liberation Sans, Arial, Helvetica, sans" font-size="10.00">SkipableBlock</text>
</a>
</g>
</g>
<!-- Block&#45;&gt;SkipableBlock -->
<g id="edge3" class="edge">
<title>Block&#45;&gt;SkipableBlock</title>
<path fill="none" stroke="black" stroke-width="0.5" d="M54.43,-9.29C63.24,-9.29 73.46,-9.29 83.8,-9.29"/>
<polygon fill="black" stroke="black" stroke-width="0.5" points="84.56,-11.04 89.56,-9.29 84.56,-7.54 84.56,-11.04"/>
</g>
<!-- CommentBlock -->
<g id="node2" class="node">
<title>CommentBlock</title>
<g id="a_node2"><a xlink:href="../pyVHDLParser.Blocks.html#pyVHDLParser.Blocks.CommentBlock" xlink:title="Base&#45;class for all comment blocks." target="_top">
<polygon fill="white" stroke="#1e90ff" points="345.5,-18.54 239.5,-18.54 239.5,-0.04 345.5,-0.04 345.5,-18.54"/>
<text text-anchor="middle" x="292.5" y="-5.04" font-family="Vera Sans, DejaVu Sans, Liberation Sans, Arial, Helvetica, sans" font-size="10.00">CommentBlock</text>
</a>
</g>
</g>
<!-- MultiLineCommentBlock -->
<g id="node4" class="node">
<title>MultiLineCommentBlock</title>
<g id="a_node4"><a xlink:href="../pyVHDLParser/pyVHDLParser.Blocks.Comment.html#pyVHDLParser.Blocks.Comment.MultiLineCommentBlock" xlink:title="MultiLineCommentBlock" target="_top">
<polygon fill="white" stroke="#1e90ff" points="555,-18.54 381.5,-18.54 381.5,-0.04 555,-0.04 555,-18.54"/>
<text text-anchor="middle" x="468.25" y="-5.04" font-family="Vera Sans, DejaVu Sans, Liberation Sans, Arial, Helvetica, sans" font-size="10.00">MultiLineCommentBlock</text>
</a>
</g>
</g>
<!-- CommentBlock&#45;&gt;MultiLineCommentBlock -->
<g id="edge2" class="edge">
<title>CommentBlock&#45;&gt;MultiLineCommentBlock</title>
<path fill="none" stroke="black" stroke-width="0.5" d="M345.63,-9.29C354.99,-9.29 364.99,-9.29 375.09,-9.29"/>
<polygon fill="black" stroke="black" stroke-width="0.5" points="376.04,-11.04 381.04,-9.29 376.04,-7.54 376.04,-11.04"/>
</g>
<!-- SkipableBlock&#45;&gt;CommentBlock -->
<g id="edge1" class="edge">
<title>SkipableBlock&#45;&gt;CommentBlock</title>
<path fill="none" stroke="black" stroke-width="0.5" d="M203.74,-9.29C213.49,-9.29 223.66,-9.29 233.46,-9.29"/>
<polygon fill="black" stroke="black" stroke-width="0.5" points="234.19,-11.04 239.19,-9.29 234.19,-7.54 234.19,-11.04"/>
</g>
</g>
</svg>
