<?xml version="1.0" encoding="UTF-8" standalone="no"?>
<!DOCTYPE svg PUBLIC "-//W3C//DTD SVG 1.1//EN"
 "http://www.w3.org/Graphics/SVG/1.1/DTD/svg11.dtd">
<!-- Generated by graphviz version 8.0.5 (20230430.1635)
 -->
<!-- Title: inheritancecd14f9187f Pages: 1 -->
<svg width="0pt" height="864pt"
 viewBox="0.00 0.00 0.48 864.00" xmlns="http://www.w3.org/2000/svg" xmlns:xlink="http://www.w3.org/1999/xlink">
<g id="graph0" class="graph" transform="scale(0.000765775 0.000765775) rotate(0) translate(4 1128264.18)">
<title>inheritancecd14f9187f</title>
<!-- ComponentKeyword -->
<g id="node1" class="node">
<title>ComponentKeyword</title>
<g id="a_node1"><a xlink:href="../pyVHDLParser/pyVHDLParser.Token.Keywords.html#pyVHDLParser.Token.Keywords.ComponentKeyword" xlink:title="ComponentKeyword" target="_top">
<polygon fill="white" stroke="#1e90ff" points="622,-564139.34 486,-564139.34 486,-564120.84 622,-564120.84 622,-564139.34"/>
<text text-anchor="middle" x="554" y="-564125.84" font-family="Vera Sans, DejaVu Sans, Liberation Sans, Arial, Helvetica, sans" font-size="10.00">ComponentKeyword</text>
</a>
</g>
</g>
<!-- KeywordToken -->
<g id="node2" class="node">
<title>KeywordToken</title>
<g id="a_node2"><a xlink:href="../pyVHDLParser/pyVHDLParser.Token.Keywords.html#pyVHDLParser.Token.Keywords.KeywordToken" xlink:title="KeywordToken" target="_top">
<polygon fill="white" stroke="#1e90ff" points="450,-564139.34 344,-564139.34 344,-564120.84 450,-564120.84 450,-564139.34"/>
<text text-anchor="middle" x="397" y="-564125.84" font-family="Vera Sans, DejaVu Sans, Liberation Sans, Arial, Helvetica, sans" font-size="10.00">KeywordToken</text>
</a>
</g>
</g>
<!-- KeywordToken&#45;&gt;ComponentKeyword -->
<g id="edge1" class="edge">
<title>KeywordToken&#45;&gt;ComponentKeyword</title>
<path fill="none" stroke="black" stroke-width="0.5" d="M450.48,-564130.09C459.95,-564130.09 469.98,-564130.09 479.91,-564130.09"/>
<polygon fill="black" stroke="black" stroke-width="0.5" points="480.74,-564131.84 485.74,-564130.09 480.74,-564128.34 480.74,-564131.84"/>
</g>
<!-- VHDLToken -->
<g id="node3" class="node">
<title>VHDLToken</title>
<g id="a_node3"><a xlink:href="../pyVHDLParser.Token.html#pyVHDLParser.Token.VHDLToken" xlink:title="Base&#45;class for all VHDL specific tokens." target="_top">
<polygon fill="white" stroke="#1e90ff" points="308,-1128260.13 224.5,-1128260.13 224.5,-0.05 308,-0.05 308,-1128260.13"/>
<text text-anchor="middle" x="266.25" y="-1128246.63" font-family="Vera Sans, DejaVu Sans, Liberation Sans, Arial, Helvetica, sans" font-size="10.00">VHDLToken</text>
</a>
</g>
</g>
<!-- VHDLToken&#45;&gt;KeywordToken -->
<g id="edge2" class="edge">
<title>VHDLToken&#45;&gt;KeywordToken</title>
<path fill="none" stroke="black" stroke-width="0.5" d="M308.34,-564130.09C317.69,-564130.09 327.8,-564130.09 337.71,-564130.09"/>
<polygon fill="black" stroke="black" stroke-width="0.5" points="338.52,-564131.84 343.52,-564130.09 338.52,-564128.34 338.52,-564131.84"/>
</g>
<!-- Token -->
<g id="node4" class="node">
<title>Token</title>
<g id="a_node4"><a xlink:href="../pyVHDLParser.Token.html#pyVHDLParser.Token.Token" xlink:title="Base&#45;class for all token classes." target="_top">
<polygon fill="white" stroke="#1e90ff" points="54,-1128260.18 0,-1128260.18 0,0 54,0 54,-1128260.18"/>
<text text-anchor="middle" x="27" y="-1128246.68" font-family="Vera Sans, DejaVu Sans, Liberation Sans, Arial, Helvetica, sans" font-size="10.00">Token</text>
</a>
</g>
</g>
<!-- ValuedToken -->
<g id="node5" class="node">
<title>ValuedToken</title>
<g id="a_node5"><a xlink:href="../pyVHDLParser.Token.html#pyVHDLParser.Token.ValuedToken" xlink:title="Base&#45;class for all *valued* token." target="_top">
<polygon fill="white" stroke="#1e90ff" points="188.5,-564139.34 90,-564139.34 90,-564120.84 188.5,-564120.84 188.5,-564139.34"/>
<text text-anchor="middle" x="139.25" y="-564125.84" font-family="Vera Sans, DejaVu Sans, Liberation Sans, Arial, Helvetica, sans" font-size="10.00">ValuedToken</text>
</a>
</g>
</g>
<!-- Token&#45;&gt;ValuedToken -->
<g id="edge4" class="edge">
<title>Token&#45;&gt;ValuedToken</title>
<path fill="none" stroke="black" stroke-width="0.5" d="M54.41,-564130.09C63.25,-564130.09 73.45,-564130.09 83.64,-564130.09"/>
<polygon fill="black" stroke="black" stroke-width="0.5" points="84.62,-564131.84 89.62,-564130.09 84.62,-564128.34 84.62,-564131.84"/>
</g>
<!-- ValuedToken&#45;&gt;VHDLToken -->
<g id="edge3" class="edge">
<title>ValuedToken&#45;&gt;VHDLToken</title>
<path fill="none" stroke="black" stroke-width="0.5" d="M188.94,-564130.09C198.59,-564130.09 208.7,-564130.09 218.29,-564130.09"/>
<polygon fill="black" stroke="black" stroke-width="0.5" points="219.19,-564131.84 224.19,-564130.09 219.19,-564128.34 219.19,-564131.84"/>
</g>
</g>
</svg>
