<?xml version="1.0" encoding="UTF-8" standalone="no"?>
<!DOCTYPE svg PUBLIC "-//W3C//DTD SVG 1.1//EN"
 "http://www.w3.org/Graphics/SVG/1.1/DTD/svg11.dtd">
<!-- Generated by graphviz version 8.0.5 (20230430.1635)
 -->
<!-- Title: inheritancea8c2968dcf Pages: 1 -->
<svg width="0pt" height="864pt"
 viewBox="0.00 0.00 0.40 864.00" xmlns="http://www.w3.org/2000/svg" xmlns:xlink="http://www.w3.org/1999/xlink">
<g id="graph0" class="graph" transform="scale(0.00100984 0.00100984) rotate(0) translate(4 855580.48)">
<title>inheritancea8c2968dcf</title>
<!-- Block -->
<g id="node1" class="node">
<title>Block</title>
<g id="a_node1"><a xlink:href="../../pyVHDLParser/pyVHDLParser.Blocks.html#pyVHDLParser.Blocks.Block" xlink:title="Base&#45;class for all :term:`block` classes." target="_top">
<polygon fill="white" stroke="#1e90ff" points="54,-855568.01 0,-855568.01 0,-65610.1 54,-65610.1 54,-855568.01"/>
<text text-anchor="middle" x="27" y="-855554.51" font-family="Vera Sans, DejaVu Sans, Liberation Sans, Arial, Helvetica, sans" font-size="10.00">Block</text>
</a>
</g>
</g>
<!-- EndOfBlock -->
<g id="node3" class="node">
<title>EndOfBlock</title>
<g id="a_node3"><a xlink:href="../../pyVHDLParser/pyVHDLParser.Blocks.html#pyVHDLParser.Blocks.EndOfBlock" xlink:title="Base&#45;class for a last block in a sequence of double&#45;linked blocks." target="_top">
<polygon fill="white" stroke="#1e90ff" points="192.25,-855576.48 101.25,-855576.48 101.25,-65601.63 192.25,-65601.63 192.25,-855576.48"/>
<text text-anchor="middle" x="146.75" y="-855562.98" font-family="Vera Sans, DejaVu Sans, Liberation Sans, Arial, Helvetica, sans" font-size="10.00">EndOfBlock</text>
</a>
</g>
</g>
<!-- Block&#45;&gt;EndOfBlock -->
<g id="edge1" class="edge">
<title>Block&#45;&gt;EndOfBlock</title>
<path fill="none" stroke="black" stroke-width="0.5" d="M54.43,-460589.05C66.41,-460589.05 81,-460589.05 94.98,-460589.05"/>
<polygon fill="black" stroke="black" stroke-width="0.5" points="95.92,-460590.8 100.92,-460589.05 95.92,-460587.3 95.92,-460590.8"/>
</g>
<!-- EndOf -->
<g id="node2" class="node">
<title>EndOf</title>
<g id="a_node2"><a xlink:title="Base&#45;class (mixin) for all EndOf*** classes.">
<polygon fill="white" stroke="#1e90ff" points="54,-790108.11 0,-790108.11 0,0 54,0 54,-790108.11"/>
<text text-anchor="middle" x="27" y="-790094.61" font-family="Vera Sans, DejaVu Sans, Liberation Sans, Arial, Helvetica, sans" font-size="10.00">EndOf</text>
</a>
</g>
</g>
<!-- EndOfDocument -->
<g id="node4" class="node">
<title>EndOfDocument</title>
<g id="a_node4"><a xlink:title="Base&#45;class (mixin) for all EndOf***Document classes.">
<polygon fill="white" stroke="#1e90ff" points="203.5,-790033.12 90,-790033.12 90,-74.99 203.5,-74.99 203.5,-790033.12"/>
<text text-anchor="middle" x="146.75" y="-790019.62" font-family="Vera Sans, DejaVu Sans, Liberation Sans, Arial, Helvetica, sans" font-size="10.00">EndOfDocument</text>
</a>
</g>
</g>
<!-- EndOf&#45;&gt;EndOfDocument -->
<g id="edge2" class="edge">
<title>EndOf&#45;&gt;EndOfDocument</title>
<path fill="none" stroke="black" stroke-width="0.5" d="M54.43,-395054.05C63.24,-395054.05 73.46,-395054.05 83.8,-395054.05"/>
<polygon fill="black" stroke="black" stroke-width="0.5" points="84.56,-395055.8 89.56,-395054.05 84.56,-395052.3 84.56,-395055.8"/>
</g>
<!-- EndOfDocumentBlock -->
<g id="node5" class="node">
<title>EndOfDocumentBlock</title>
<g id="a_node5"><a xlink:href="../../pyVHDLParser/pyVHDLParser.Blocks.html#pyVHDLParser.Blocks.EndOfDocumentBlock" xlink:title="Last block in a sequence of double&#45;linked blocks." target="_top">
<polygon fill="white" stroke="#1e90ff" points="390.5,-427835.8 239.5,-427835.8 239.5,-427806.31 390.5,-427806.31 390.5,-427835.8"/>
<text text-anchor="middle" x="315" y="-427822.3" font-family="Vera Sans, DejaVu Sans, Liberation Sans, Arial, Helvetica, sans" font-size="10.00">EndOfDocumentBlock</text>
</a>
</g>
</g>
<!-- EndOfBlock&#45;&gt;EndOfDocumentBlock -->
<g id="edge3" class="edge">
<title>EndOfBlock&#45;&gt;EndOfDocumentBlock</title>
<path fill="none" stroke="black" stroke-width="0.5" d="M192.75,-451719.54C240.89,-442230.18 310.82,-428447.72 313.9,-427841.75"/>
<polygon fill="black" stroke="black" stroke-width="0.5" points="315.65,-427840.99 313.92,-427835.98 312.15,-427840.97 315.65,-427840.99"/>
</g>
<!-- EndOfDocument&#45;&gt;EndOfDocumentBlock -->
<g id="edge4" class="edge">
<title>EndOfDocument&#45;&gt;EndOfDocumentBlock</title>
<path fill="none" stroke="black" stroke-width="0.5" d="M204,-406140.33C251.07,-415418.26 311.03,-427235.96 313.89,-427800.06"/>
<polygon fill="black" stroke="black" stroke-width="0.5" points="312.15,-427800.83 313.92,-427805.82 315.65,-427800.81 312.15,-427800.83"/>
</g>
</g>
</svg>
