<?xml version="1.0" encoding="UTF-8" standalone="no"?>
<!DOCTYPE svg PUBLIC "-//W3C//DTD SVG 1.1//EN"
 "http://www.w3.org/Graphics/SVG/1.1/DTD/svg11.dtd">
<!-- Generated by graphviz version 8.0.5 (20230430.1635)
 -->
<!-- Title: inheritancef32b7b794a Pages: 1 -->
<svg width="0pt" height="864pt"
 viewBox="0.00 0.00 0.44 864.00" xmlns="http://www.w3.org/2000/svg" xmlns:xlink="http://www.w3.org/1999/xlink">
<g id="graph0" class="graph" transform="scale(0.000658304 0.000658304) rotate(0) translate(4 1312459.05)">
<title>inheritancef32b7b794a</title>
<!-- AssociationKeyword -->
<g id="node1" class="node">
<title>AssociationKeyword</title>
<g id="a_node1"><a xlink:href="../pyVHDLParser/pyVHDLParser.Token.Keywords.html#pyVHDLParser.Token.Keywords.AssociationKeyword" xlink:title="AssociationKeyword" target="_top">
<polygon fill="white" stroke="#1e90ff" points="667,-656236.78 516,-656236.78 516,-656218.28 667,-656218.28 667,-656236.78"/>
<text text-anchor="middle" x="591.5" y="-656223.28" font-family="Vera Sans, DejaVu Sans, Liberation Sans, Arial, Helvetica, sans" font-size="10.00">AssociationKeyword</text>
</a>
</g>
</g>
<!-- MultiCharKeyword -->
<g id="node2" class="node">
<title>MultiCharKeyword</title>
<g id="a_node2"><a xlink:href="../pyVHDLParser/pyVHDLParser.Token.Keywords.html#pyVHDLParser.Token.Keywords.MultiCharKeyword" xlink:title="MultiCharKeyword" target="_top">
<polygon fill="white" stroke="#1e90ff" points="480,-656236.78 344,-656236.78 344,-656218.28 480,-656218.28 480,-656236.78"/>
<text text-anchor="middle" x="412" y="-656223.28" font-family="Vera Sans, DejaVu Sans, Liberation Sans, Arial, Helvetica, sans" font-size="10.00">MultiCharKeyword</text>
</a>
</g>
</g>
<!-- MultiCharKeyword&#45;&gt;AssociationKeyword -->
<g id="edge1" class="edge">
<title>MultiCharKeyword&#45;&gt;AssociationKeyword</title>
<path fill="none" stroke="black" stroke-width="0.5" d="M480.36,-656227.53C490.03,-656227.53 500.07,-656227.53 509.96,-656227.53"/>
<polygon fill="black" stroke="black" stroke-width="0.5" points="510.77,-656229.28 515.77,-656227.53 510.77,-656225.78 510.77,-656229.28"/>
</g>
<!-- VHDLToken -->
<g id="node3" class="node">
<title>VHDLToken</title>
<g id="a_node3"><a xlink:href="../pyVHDLParser.Token.html#pyVHDLParser.Token.VHDLToken" xlink:title="Base&#45;class for all VHDL specific tokens." target="_top">
<polygon fill="white" stroke="#1e90ff" points="308,-1312455.05 224.5,-1312455.05 224.5,0 308,0 308,-1312455.05"/>
<text text-anchor="middle" x="266.25" y="-1312441.55" font-family="Vera Sans, DejaVu Sans, Liberation Sans, Arial, Helvetica, sans" font-size="10.00">VHDLToken</text>
</a>
</g>
</g>
<!-- VHDLToken&#45;&gt;MultiCharKeyword -->
<g id="edge2" class="edge">
<title>VHDLToken&#45;&gt;MultiCharKeyword</title>
<path fill="none" stroke="black" stroke-width="0.5" d="M308.44,-656227.53C317.67,-656227.53 327.72,-656227.53 337.81,-656227.53"/>
<polygon fill="black" stroke="black" stroke-width="0.5" points="338.75,-656229.28 343.75,-656227.53 338.75,-656225.78 338.75,-656229.28"/>
</g>
<!-- Token -->
<g id="node4" class="node">
<title>Token</title>
<g id="a_node4"><a xlink:href="../pyVHDLParser.Token.html#pyVHDLParser.Token.Token" xlink:title="Base&#45;class for all token classes." target="_top">
<polygon fill="white" stroke="#1e90ff" points="54,-1312455.01 0,-1312455.01 0,-0.05 54,-0.05 54,-1312455.01"/>
<text text-anchor="middle" x="27" y="-1312441.51" font-family="Vera Sans, DejaVu Sans, Liberation Sans, Arial, Helvetica, sans" font-size="10.00">Token</text>
</a>
</g>
</g>
<!-- ValuedToken -->
<g id="node5" class="node">
<title>ValuedToken</title>
<g id="a_node5"><a xlink:href="../pyVHDLParser.Token.html#pyVHDLParser.Token.ValuedToken" xlink:title="Base&#45;class for all *valued* token." target="_top">
<polygon fill="white" stroke="#1e90ff" points="188.5,-656236.78 90,-656236.78 90,-656218.28 188.5,-656218.28 188.5,-656236.78"/>
<text text-anchor="middle" x="139.25" y="-656223.28" font-family="Vera Sans, DejaVu Sans, Liberation Sans, Arial, Helvetica, sans" font-size="10.00">ValuedToken</text>
</a>
</g>
</g>
<!-- Token&#45;&gt;ValuedToken -->
<g id="edge4" class="edge">
<title>Token&#45;&gt;ValuedToken</title>
<path fill="none" stroke="black" stroke-width="0.5" d="M54.41,-656227.53C63.25,-656227.53 73.45,-656227.53 83.64,-656227.53"/>
<polygon fill="black" stroke="black" stroke-width="0.5" points="84.62,-656229.28 89.62,-656227.53 84.62,-656225.78 84.62,-656229.28"/>
</g>
<!-- ValuedToken&#45;&gt;VHDLToken -->
<g id="edge3" class="edge">
<title>ValuedToken&#45;&gt;VHDLToken</title>
<path fill="none" stroke="black" stroke-width="0.5" d="M188.94,-656227.53C198.59,-656227.53 208.7,-656227.53 218.29,-656227.53"/>
<polygon fill="black" stroke="black" stroke-width="0.5" points="219.19,-656229.28 224.19,-656227.53 219.19,-656225.78 219.19,-656229.28"/>
</g>
</g>
</svg>
