<?xml version="1.0" encoding="UTF-8" standalone="no"?>
<!DOCTYPE svg PUBLIC "-//W3C//DTD SVG 1.1//EN"
 "http://www.w3.org/Graphics/SVG/1.1/DTD/svg11.dtd">
<!-- Generated by graphviz version 8.0.5 (20230430.1635)
 -->
<!-- Title: inheritance78a8c7e413 Pages: 1 -->
<svg width="0pt" height="864pt"
 viewBox="0.00 0.00 0.24 864.00" xmlns="http://www.w3.org/2000/svg" xmlns:xlink="http://www.w3.org/1999/xlink">
<g id="graph0" class="graph" transform="scale(0.000549518 0.000549518) rotate(0) translate(4 1572281.98)">
<title>inheritance78a8c7e413</title>
<!-- Block -->
<g id="node1" class="node">
<title>Block</title>
<g id="a_node1"><a xlink:href="../pyVHDLParser/pyVHDLParser.Blocks.html#pyVHDLParser.Blocks.Block" xlink:title="Base&#45;class for all :term:`block` classes." target="_top">
<polygon fill="white" stroke="#1e90ff" points="61.25,-818918.43 7.25,-818918.43 7.25,-818899.93 61.25,-818899.93 61.25,-818918.43"/>
<text text-anchor="middle" x="34.25" y="-818904.93" font-family="Vera Sans, DejaVu Sans, Liberation Sans, Arial, Helvetica, sans" font-size="10.00">Block</text>
</a>
</g>
</g>
<!-- StartOfBlock -->
<g id="node3" class="node">
<title>StartOfBlock</title>
<g id="a_node3"><a xlink:href="../pyVHDLParser/pyVHDLParser.Blocks.html#pyVHDLParser.Blocks.StartOfBlock" xlink:title="Base&#45;class for a first block in a sequence of double&#45;linked blocks." target="_top">
<polygon fill="white" stroke="#1e90ff" points="221.75,-1572277.98 115.75,-1572277.98 115.75,-65540.38 221.75,-65540.38 221.75,-1572277.98"/>
<text text-anchor="middle" x="168.75" y="-1572264.48" font-family="Vera Sans, DejaVu Sans, Liberation Sans, Arial, Helvetica, sans" font-size="10.00">StartOfBlock</text>
</a>
</g>
</g>
<!-- Block&#45;&gt;StartOfBlock -->
<g id="edge1" class="edge">
<title>Block&#45;&gt;StartOfBlock</title>
<path fill="none" stroke="black" stroke-width="0.5" d="M61.74,-818909.18C75.52,-818909.18 92.93,-818909.18 109.64,-818909.18"/>
<polygon fill="black" stroke="black" stroke-width="0.5" points="110.27,-818910.93 115.27,-818909.18 110.27,-818907.43 110.27,-818910.93"/>
</g>
<!-- StartOf -->
<g id="node2" class="node">
<title>StartOf</title>
<g id="a_node2"><a xlink:title="Base&#45;class (mixin) for all StartOf*** classes.">
<polygon fill="white" stroke="#1e90ff" points="68.5,-753383.43 0,-753383.43 0,-753364.93 68.5,-753364.93 68.5,-753383.43"/>
<text text-anchor="middle" x="34.25" y="-753369.93" font-family="Vera Sans, DejaVu Sans, Liberation Sans, Arial, Helvetica, sans" font-size="10.00">StartOf</text>
</a>
</g>
</g>
<!-- StartOfDocument -->
<g id="node4" class="node">
<title>StartOfDocument</title>
<g id="a_node4"><a xlink:title="Base&#45;class (mixin) for all StartOf***Document classes.">
<polygon fill="white" stroke="#1e90ff" points="233,-1506748.37 104.5,-1506748.37 104.5,0 233,0 233,-1506748.37"/>
<text text-anchor="middle" x="168.75" y="-1506734.87" font-family="Vera Sans, DejaVu Sans, Liberation Sans, Arial, Helvetica, sans" font-size="10.00">StartOfDocument</text>
</a>
</g>
</g>
<!-- StartOf&#45;&gt;StartOfDocument -->
<g id="edge2" class="edge">
<title>StartOf&#45;&gt;StartOfDocument</title>
<path fill="none" stroke="black" stroke-width="0.5" d="M68.69,-753374.18C77.81,-753374.18 88.04,-753374.18 98.37,-753374.18"/>
<polygon fill="black" stroke="black" stroke-width="0.5" points="99.11,-753375.93 104.11,-753374.18 99.11,-753372.43 99.11,-753375.93"/>
</g>
<!-- StartOfDocumentBlock -->
<g id="node5" class="node">
<title>StartOfDocumentBlock</title>
<g id="a_node5"><a xlink:href="../pyVHDLParser/pyVHDLParser.Blocks.html#pyVHDLParser.Blocks.StartOfDocumentBlock" xlink:title="First block in a sequence of double&#45;linked blocks." target="_top">
<polygon fill="white" stroke="#1e90ff" points="435,-786155.93 269,-786155.93 269,-786126.44 435,-786126.44 435,-786155.93"/>
<text text-anchor="middle" x="352" y="-786142.43" font-family="Vera Sans, DejaVu Sans, Liberation Sans, Arial, Helvetica, sans" font-size="10.00">StartOfDocumentBlock</text>
</a>
</g>
</g>
<!-- StartOfBlock&#45;&gt;StartOfDocumentBlock -->
<g id="edge3" class="edge">
<title>StartOfBlock&#45;&gt;StartOfDocumentBlock</title>
<path fill="none" stroke="black" stroke-width="0.5" d="M222.25,-809417.91C274.56,-799960.19 347.61,-786754.95 350.89,-786161.89"/>
<polygon fill="black" stroke="black" stroke-width="0.5" points="352.64,-786161.24 350.92,-786156.24 349.14,-786161.23 352.64,-786161.24"/>
</g>
<!-- StartOfDocument&#45;&gt;StartOfDocumentBlock -->
<g id="edge4" class="edge">
<title>StartOfDocument&#45;&gt;StartOfDocumentBlock</title>
<path fill="none" stroke="black" stroke-width="0.5" d="M233.5,-764898.88C284.44,-774107.61 347.83,-785568.02 350.89,-786120.41"/>
<polygon fill="black" stroke="black" stroke-width="0.5" points="349.14,-786121.07 350.92,-786126.06 352.64,-786121.05 349.14,-786121.07"/>
</g>
</g>
</svg>
