<?xml version="1.0" encoding="UTF-8" standalone="no"?>
<!DOCTYPE svg PUBLIC "-//W3C//DTD SVG 1.1//EN"
 "http://www.w3.org/Graphics/SVG/1.1/DTD/svg11.dtd">
<!-- Generated by graphviz version 8.0.5 (20230430.1635)
 -->
<!-- Title: inheritance107d906cdc Pages: 1 -->
<svg width="1pt" height="864pt"
 viewBox="0.00 0.00 1.45 864.00" xmlns="http://www.w3.org/2000/svg" xmlns:xlink="http://www.w3.org/1999/xlink">
<g id="graph0" class="graph" transform="scale(0.0013777 0.0013777) rotate(0) translate(4 627128.4)">
<title>inheritance107d906cdc</title>
<!-- BracketToken -->
<g id="node1" class="node">
<title>BracketToken</title>
<g id="a_node1"><a xlink:href="../pyVHDLParser/pyVHDLParser.Token.Keywords.html#pyVHDLParser.Token.Keywords.BracketToken" xlink:title="Base&#45;class for all bracket tokens: ``(``, ``)``, ``[``, ``]``, ``{``, ``}``, ``&lt;`` and ``&gt;``." target="_top">
<polygon fill="white" stroke="#1e90ff" points="629.5,-313571.45 523.5,-313571.45 523.5,-313552.95 629.5,-313552.95 629.5,-313571.45"/>
<text text-anchor="middle" x="576.5" y="-313557.95" font-family="Vera Sans, DejaVu Sans, Liberation Sans, Arial, Helvetica, sans" font-size="10.00">BracketToken</text>
</a>
</g>
</g>
<!-- RoundBracketToken -->
<g id="node4" class="node">
<title>RoundBracketToken</title>
<g id="a_node4"><a xlink:href="../pyVHDLParser/pyVHDLParser.Token.Keywords.html#pyVHDLParser.Token.Keywords.RoundBracketToken" xlink:title="Base&#45;class for all round bracket tokens: ``(`` and ``)``." target="_top">
<polygon fill="white" stroke="#1e90ff" points="809,-313571.45 665.5,-313571.45 665.5,-313552.95 809,-313552.95 809,-313571.45"/>
<text text-anchor="middle" x="737.25" y="-313557.95" font-family="Vera Sans, DejaVu Sans, Liberation Sans, Arial, Helvetica, sans" font-size="10.00">RoundBracketToken</text>
</a>
</g>
</g>
<!-- BracketToken&#45;&gt;RoundBracketToken -->
<g id="edge3" class="edge">
<title>BracketToken&#45;&gt;RoundBracketToken</title>
<path fill="none" stroke="black" stroke-width="0.5" d="M629.92,-313562.2C639.36,-313562.2 649.37,-313562.2 659.33,-313562.2"/>
<polygon fill="black" stroke="black" stroke-width="0.5" points="660.19,-313563.95 665.19,-313562.2 660.19,-313560.45 660.19,-313563.95"/>
</g>
<!-- SpecificVHDLToken -->
<g id="node2" class="node">
<title>SpecificVHDLToken</title>
<g id="a_node2"><a xlink:href="../pyVHDLParser/pyVHDLParser.Token.Keywords.html#pyVHDLParser.Token.Keywords.SpecificVHDLToken" xlink:title="Base&#45;class for all specific tokens." target="_top">
<polygon fill="white" stroke="#1e90ff" points="487.5,-627124.4 344,-627124.4 344,0 487.5,0 487.5,-627124.4"/>
<text text-anchor="middle" x="415.75" y="-627110.9" font-family="Vera Sans, DejaVu Sans, Liberation Sans, Arial, Helvetica, sans" font-size="10.00">SpecificVHDLToken</text>
</a>
</g>
</g>
<!-- SpecificVHDLToken&#45;&gt;BracketToken -->
<g id="edge1" class="edge">
<title>SpecificVHDLToken&#45;&gt;BracketToken</title>
<path fill="none" stroke="black" stroke-width="0.5" d="M487.77,-313562.2C497.61,-313562.2 507.63,-313562.2 517.21,-313562.2"/>
<polygon fill="black" stroke="black" stroke-width="0.5" points="518.11,-313563.95 523.11,-313562.2 518.11,-313560.45 518.11,-313563.95"/>
</g>
<!-- OpeningRoundBracketToken -->
<g id="node3" class="node">
<title>OpeningRoundBracketToken</title>
<g id="a_node3"><a xlink:href="../pyVHDLParser/pyVHDLParser.Token.Keywords.html#pyVHDLParser.Token.Keywords.OpeningRoundBracketToken" xlink:title="Token representing an opening round bracket: ``(``." target="_top">
<polygon fill="white" stroke="#1e90ff" points="1041,-627117.89 845,-627117.89 845,-6.52 1041,-6.52 1041,-627117.89"/>
<text text-anchor="middle" x="943" y="-627104.39" font-family="Vera Sans, DejaVu Sans, Liberation Sans, Arial, Helvetica, sans" font-size="10.00">OpeningRoundBracketToken</text>
</a>
</g>
</g>
<!-- RoundBracketToken&#45;&gt;OpeningRoundBracketToken -->
<g id="edge2" class="edge">
<title>RoundBracketToken&#45;&gt;OpeningRoundBracketToken</title>
<path fill="none" stroke="black" stroke-width="0.5" d="M809.23,-313562.2C818.83,-313562.2 828.83,-313562.2 838.85,-313562.2"/>
<polygon fill="black" stroke="black" stroke-width="0.5" points="839.75,-313563.95 844.75,-313562.2 839.75,-313560.45 839.75,-313563.95"/>
</g>
<!-- VHDLToken -->
<g id="node5" class="node">
<title>VHDLToken</title>
<g id="a_node5"><a xlink:href="../pyVHDLParser.Token.html#pyVHDLParser.Token.VHDLToken" xlink:title="Base&#45;class for all VHDL specific tokens." target="_top">
<polygon fill="white" stroke="#1e90ff" points="308,-313571.45 224.5,-313571.45 224.5,-313552.95 308,-313552.95 308,-313571.45"/>
<text text-anchor="middle" x="266.25" y="-313557.95" font-family="Vera Sans, DejaVu Sans, Liberation Sans, Arial, Helvetica, sans" font-size="10.00">VHDLToken</text>
</a>
</g>
</g>
<!-- VHDLToken&#45;&gt;SpecificVHDLToken -->
<g id="edge4" class="edge">
<title>VHDLToken&#45;&gt;SpecificVHDLToken</title>
<path fill="none" stroke="black" stroke-width="0.5" d="M308.34,-313562.2C317.53,-313562.2 327.57,-313562.2 337.69,-313562.2"/>
<polygon fill="black" stroke="black" stroke-width="0.5" points="338.66,-313563.95 343.66,-313562.2 338.66,-313560.45 338.66,-313563.95"/>
</g>
<!-- Token -->
<g id="node6" class="node">
<title>Token</title>
<g id="a_node6"><a xlink:href="../pyVHDLParser.Token.html#pyVHDLParser.Token.Token" xlink:title="Base&#45;class for all token classes." target="_top">
<polygon fill="white" stroke="#1e90ff" points="54,-313571.45 0,-313571.45 0,-313552.95 54,-313552.95 54,-313571.45"/>
<text text-anchor="middle" x="27" y="-313557.95" font-family="Vera Sans, DejaVu Sans, Liberation Sans, Arial, Helvetica, sans" font-size="10.00">Token</text>
</a>
</g>
</g>
<!-- ValuedToken -->
<g id="node7" class="node">
<title>ValuedToken</title>
<g id="a_node7"><a xlink:href="../pyVHDLParser.Token.html#pyVHDLParser.Token.ValuedToken" xlink:title="Base&#45;class for all *valued* token." target="_top">
<polygon fill="white" stroke="#1e90ff" points="188.5,-313583.38 90,-313583.38 90,-313541.02 188.5,-313541.02 188.5,-313583.38"/>
<text text-anchor="middle" x="139.25" y="-313569.88" font-family="Vera Sans, DejaVu Sans, Liberation Sans, Arial, Helvetica, sans" font-size="10.00">ValuedToken</text>
</a>
</g>
</g>
<!-- Token&#45;&gt;ValuedToken -->
<g id="edge6" class="edge">
<title>Token&#45;&gt;ValuedToken</title>
<path fill="none" stroke="black" stroke-width="0.5" d="M54.41,-313562.2C63.25,-313562.2 73.45,-313562.2 83.64,-313562.2"/>
<polygon fill="black" stroke="black" stroke-width="0.5" points="84.62,-313563.95 89.62,-313562.2 84.62,-313560.45 84.62,-313563.95"/>
</g>
<!-- ValuedToken&#45;&gt;VHDLToken -->
<g id="edge5" class="edge">
<title>ValuedToken&#45;&gt;VHDLToken</title>
<path fill="none" stroke="black" stroke-width="0.5" d="M188.94,-313562.2C198.59,-313562.2 208.7,-313562.2 218.29,-313562.2"/>
<polygon fill="black" stroke="black" stroke-width="0.5" points="219.19,-313563.95 224.19,-313562.2 219.19,-313560.45 219.19,-313563.95"/>
</g>
</g>
</svg>
