<?xml version="1.0" encoding="UTF-8" standalone="no"?>
<!DOCTYPE svg PUBLIC "-//W3C//DTD SVG 1.1//EN"
 "http://www.w3.org/Graphics/SVG/1.1/DTD/svg11.dtd">
<!-- Generated by graphviz version 8.0.5 (20230430.1635)
 -->
<!-- Title: inheritance27090f2f15 Pages: 1 -->
<svg width="1pt" height="864pt"
 viewBox="0.00 0.00 0.82 864.00" xmlns="http://www.w3.org/2000/svg" xmlns:xlink="http://www.w3.org/1999/xlink">
<g id="graph0" class="graph" transform="scale(0.000759135 0.000759135) rotate(0) translate(4 1138133.4)">
<title>inheritance27090f2f15</title>
<!-- GreaterThanOrEqualOperator -->
<g id="node1" class="node">
<title>GreaterThanOrEqualOperator</title>
<g id="a_node1"><a xlink:href="../pyVHDLParser/pyVHDLParser.Token.Keywords.html#pyVHDLParser.Token.Keywords.GreaterThanOrEqualOperator" xlink:title="GreaterThanOrEqualOperator" target="_top">
<polygon fill="white" stroke="#1e90ff" points="1071,-569073.95 860,-569073.95 860,-569055.45 1071,-569055.45 1071,-569073.95"/>
<text text-anchor="middle" x="965.5" y="-569060.45" font-family="Vera Sans, DejaVu Sans, Liberation Sans, Arial, Helvetica, sans" font-size="10.00">GreaterThanOrEqualOperator</text>
</a>
</g>
</g>
<!-- RelationalOperator -->
<g id="node2" class="node">
<title>RelationalOperator</title>
<g id="a_node2"><a xlink:href="../pyVHDLParser/pyVHDLParser.Token.Keywords.html#pyVHDLParser.Token.Keywords.RelationalOperator" xlink:title="Base&#45;class for all relational operator tokens." target="_top">
<polygon fill="white" stroke="#1e90ff" points="824,-1138129.4 673,-1138129.4 673,0 824,0 824,-1138129.4"/>
<text text-anchor="middle" x="748.5" y="-1138115.9" font-family="Vera Sans, DejaVu Sans, Liberation Sans, Arial, Helvetica, sans" font-size="10.00">RelationalOperator</text>
</a>
</g>
</g>
<!-- RelationalOperator&#45;&gt;GreaterThanOrEqualOperator -->
<g id="edge1" class="edge">
<title>RelationalOperator&#45;&gt;GreaterThanOrEqualOperator</title>
<path fill="none" stroke="black" stroke-width="0.5" d="M824.39,-569064.7C833.92,-569064.7 843.82,-569064.7 853.75,-569064.7"/>
<polygon fill="black" stroke="black" stroke-width="0.5" points="854.61,-569066.45 859.61,-569064.7 854.61,-569062.95 854.61,-569066.45"/>
</g>
<!-- OperatorToken -->
<g id="node3" class="node">
<title>OperatorToken</title>
<g id="a_node3"><a xlink:href="../pyVHDLParser/pyVHDLParser.Token.Keywords.html#pyVHDLParser.Token.Keywords.OperatorToken" xlink:title="Base&#45;class for all operator tokens." target="_top">
<polygon fill="white" stroke="#1e90ff" points="637,-1138122.71 523.5,-1138122.71 523.5,-6.7 637,-6.7 637,-1138122.71"/>
<text text-anchor="middle" x="580.25" y="-1138109.21" font-family="Vera Sans, DejaVu Sans, Liberation Sans, Arial, Helvetica, sans" font-size="10.00">OperatorToken</text>
</a>
</g>
</g>
<!-- OperatorToken&#45;&gt;RelationalOperator -->
<g id="edge3" class="edge">
<title>OperatorToken&#45;&gt;RelationalOperator</title>
<path fill="none" stroke="black" stroke-width="0.5" d="M637.07,-569064.7C646.61,-569064.7 656.69,-569064.7 666.73,-569064.7"/>
<polygon fill="black" stroke="black" stroke-width="0.5" points="667.63,-569066.45 672.63,-569064.7 667.63,-569062.95 667.63,-569066.45"/>
</g>
<!-- SpecificVHDLToken -->
<g id="node4" class="node">
<title>SpecificVHDLToken</title>
<g id="a_node4"><a xlink:href="../pyVHDLParser/pyVHDLParser.Token.Keywords.html#pyVHDLParser.Token.Keywords.SpecificVHDLToken" xlink:title="Base&#45;class for all specific tokens." target="_top">
<polygon fill="white" stroke="#1e90ff" points="487.5,-569073.95 344,-569073.95 344,-569055.45 487.5,-569055.45 487.5,-569073.95"/>
<text text-anchor="middle" x="415.75" y="-569060.45" font-family="Vera Sans, DejaVu Sans, Liberation Sans, Arial, Helvetica, sans" font-size="10.00">SpecificVHDLToken</text>
</a>
</g>
</g>
<!-- SpecificVHDLToken&#45;&gt;OperatorToken -->
<g id="edge2" class="edge">
<title>SpecificVHDLToken&#45;&gt;OperatorToken</title>
<path fill="none" stroke="black" stroke-width="0.5" d="M487.55,-569064.7C497.56,-569064.7 507.79,-569064.7 517.6,-569064.7"/>
<polygon fill="black" stroke="black" stroke-width="0.5" points="518.33,-569066.45 523.33,-569064.7 518.33,-569062.95 518.33,-569066.45"/>
</g>
<!-- VHDLToken -->
<g id="node5" class="node">
<title>VHDLToken</title>
<g id="a_node5"><a xlink:href="../pyVHDLParser.Token.html#pyVHDLParser.Token.VHDLToken" xlink:title="Base&#45;class for all VHDL specific tokens." target="_top">
<polygon fill="white" stroke="#1e90ff" points="308,-569073.95 224.5,-569073.95 224.5,-569055.45 308,-569055.45 308,-569073.95"/>
<text text-anchor="middle" x="266.25" y="-569060.45" font-family="Vera Sans, DejaVu Sans, Liberation Sans, Arial, Helvetica, sans" font-size="10.00">VHDLToken</text>
</a>
</g>
</g>
<!-- VHDLToken&#45;&gt;SpecificVHDLToken -->
<g id="edge4" class="edge">
<title>VHDLToken&#45;&gt;SpecificVHDLToken</title>
<path fill="none" stroke="black" stroke-width="0.5" d="M308.34,-569064.7C317.53,-569064.7 327.57,-569064.7 337.69,-569064.7"/>
<polygon fill="black" stroke="black" stroke-width="0.5" points="338.66,-569066.45 343.66,-569064.7 338.66,-569062.95 338.66,-569066.45"/>
</g>
<!-- Token -->
<g id="node6" class="node">
<title>Token</title>
<g id="a_node6"><a xlink:href="../pyVHDLParser.Token.html#pyVHDLParser.Token.Token" xlink:title="Base&#45;class for all token classes." target="_top">
<polygon fill="white" stroke="#1e90ff" points="54,-569073.95 0,-569073.95 0,-569055.45 54,-569055.45 54,-569073.95"/>
<text text-anchor="middle" x="27" y="-569060.45" font-family="Vera Sans, DejaVu Sans, Liberation Sans, Arial, Helvetica, sans" font-size="10.00">Token</text>
</a>
</g>
</g>
<!-- ValuedToken -->
<g id="node7" class="node">
<title>ValuedToken</title>
<g id="a_node7"><a xlink:href="../pyVHDLParser.Token.html#pyVHDLParser.Token.ValuedToken" xlink:title="Base&#45;class for all *valued* token." target="_top">
<polygon fill="white" stroke="#1e90ff" points="188.5,-569085.94 90,-569085.94 90,-569043.46 188.5,-569043.46 188.5,-569085.94"/>
<text text-anchor="middle" x="139.25" y="-569072.44" font-family="Vera Sans, DejaVu Sans, Liberation Sans, Arial, Helvetica, sans" font-size="10.00">ValuedToken</text>
</a>
</g>
</g>
<!-- Token&#45;&gt;ValuedToken -->
<g id="edge6" class="edge">
<title>Token&#45;&gt;ValuedToken</title>
<path fill="none" stroke="black" stroke-width="0.5" d="M54.41,-569064.7C63.25,-569064.7 73.45,-569064.7 83.64,-569064.7"/>
<polygon fill="black" stroke="black" stroke-width="0.5" points="84.62,-569066.45 89.62,-569064.7 84.62,-569062.95 84.62,-569066.45"/>
</g>
<!-- ValuedToken&#45;&gt;VHDLToken -->
<g id="edge5" class="edge">
<title>ValuedToken&#45;&gt;VHDLToken</title>
<path fill="none" stroke="black" stroke-width="0.5" d="M188.94,-569064.7C198.59,-569064.7 208.7,-569064.7 218.29,-569064.7"/>
<polygon fill="black" stroke="black" stroke-width="0.5" points="219.19,-569066.45 224.19,-569064.7 219.19,-569062.95 219.19,-569066.45"/>
</g>
</g>
</svg>
