<?xml version="1.0" encoding="UTF-8" standalone="no"?>
<!DOCTYPE svg PUBLIC "-//W3C//DTD SVG 1.1//EN"
 "http://www.w3.org/Graphics/SVG/1.1/DTD/svg11.dtd">
<!-- Generated by graphviz version 8.0.5 (20230430.1635)
 -->
<!-- Title: inheritance8cfa59fbaf Pages: 1 -->
<svg width="2pt" height="864pt"
 viewBox="0.00 0.00 1.58 864.00" xmlns="http://www.w3.org/2000/svg" xmlns:xlink="http://www.w3.org/1999/xlink">
<g id="graph0" class="graph" transform="scale(0.00236836 0.00236836) rotate(0) translate(4 364805.36)">
<title>inheritance8cfa59fbaf</title>
<!-- BitStringLiteralToken -->
<g id="node1" class="node">
<title>BitStringLiteralToken</title>
<g id="a_node1"><a xlink:href="../pyVHDLParser/pyVHDLParser.Token.html#pyVHDLParser.Token.BitStringLiteralToken" xlink:title="Token representing a bit&#45;string literal in VHDL." target="_top">
<polygon fill="white" stroke="#1e90ff" points="659.5,-182409.93 486,-182409.93 486,-182391.43 659.5,-182391.43 659.5,-182409.93"/>
<text text-anchor="middle" x="572.75" y="-182396.43" font-family="Vera Sans, DejaVu Sans, Liberation Sans, Arial, Helvetica, sans" font-size="10.00">BitStringLiteralToken</text>
</a>
</g>
</g>
<!-- LiteralToken -->
<g id="node2" class="node">
<title>LiteralToken</title>
<g id="a_node2"><a xlink:href="../pyVHDLParser/pyVHDLParser.Token.html#pyVHDLParser.Token.LiteralToken" xlink:title="Base&#45;class for all literals in VHDL." target="_top">
<polygon fill="white" stroke="#1e90ff" points="450,-182409.93 344,-182409.93 344,-182391.43 450,-182391.43 450,-182409.93"/>
<text text-anchor="middle" x="397" y="-182396.43" font-family="Vera Sans, DejaVu Sans, Liberation Sans, Arial, Helvetica, sans" font-size="10.00">LiteralToken</text>
</a>
</g>
</g>
<!-- LiteralToken&#45;&gt;BitStringLiteralToken -->
<g id="edge1" class="edge">
<title>LiteralToken&#45;&gt;BitStringLiteralToken</title>
<path fill="none" stroke="black" stroke-width="0.5" d="M450.13,-182400.68C459.49,-182400.68 469.49,-182400.68 479.59,-182400.68"/>
<polygon fill="black" stroke="black" stroke-width="0.5" points="480.54,-182402.43 485.54,-182400.68 480.54,-182398.93 480.54,-182402.43"/>
</g>
<!-- VHDLToken -->
<g id="node3" class="node">
<title>VHDLToken</title>
<g id="a_node3"><a xlink:href="../pyVHDLParser/pyVHDLParser.Token.html#pyVHDLParser.Token.VHDLToken" xlink:title="Base&#45;class for all VHDL specific tokens." target="_top">
<polygon fill="white" stroke="#1e90ff" points="308,-364801.31 224.5,-364801.31 224.5,-0.05 308,-0.05 308,-364801.31"/>
<text text-anchor="middle" x="266.25" y="-364787.81" font-family="Vera Sans, DejaVu Sans, Liberation Sans, Arial, Helvetica, sans" font-size="10.00">VHDLToken</text>
</a>
</g>
</g>
<!-- VHDLToken&#45;&gt;LiteralToken -->
<g id="edge2" class="edge">
<title>VHDLToken&#45;&gt;LiteralToken</title>
<path fill="none" stroke="black" stroke-width="0.5" d="M308.34,-182400.68C317.69,-182400.68 327.8,-182400.68 337.71,-182400.68"/>
<polygon fill="black" stroke="black" stroke-width="0.5" points="338.52,-182402.43 343.52,-182400.68 338.52,-182398.93 338.52,-182402.43"/>
</g>
<!-- Token -->
<g id="node4" class="node">
<title>Token</title>
<g id="a_node4"><a xlink:href="../pyVHDLParser/pyVHDLParser.Token.html#pyVHDLParser.Token.Token" xlink:title="Base&#45;class for all token classes." target="_top">
<polygon fill="white" stroke="#1e90ff" points="54,-364801.36 0,-364801.36 0,0 54,0 54,-364801.36"/>
<text text-anchor="middle" x="27" y="-364787.86" font-family="Vera Sans, DejaVu Sans, Liberation Sans, Arial, Helvetica, sans" font-size="10.00">Token</text>
</a>
</g>
</g>
<!-- ValuedToken -->
<g id="node5" class="node">
<title>ValuedToken</title>
<g id="a_node5"><a xlink:href="../pyVHDLParser/pyVHDLParser.Token.html#pyVHDLParser.Token.ValuedToken" xlink:title="Base&#45;class for all *valued* token." target="_top">
<polygon fill="white" stroke="#1e90ff" points="188.5,-182409.93 90,-182409.93 90,-182391.43 188.5,-182391.43 188.5,-182409.93"/>
<text text-anchor="middle" x="139.25" y="-182396.43" font-family="Vera Sans, DejaVu Sans, Liberation Sans, Arial, Helvetica, sans" font-size="10.00">ValuedToken</text>
</a>
</g>
</g>
<!-- Token&#45;&gt;ValuedToken -->
<g id="edge4" class="edge">
<title>Token&#45;&gt;ValuedToken</title>
<path fill="none" stroke="black" stroke-width="0.5" d="M54.41,-182400.68C63.25,-182400.68 73.45,-182400.68 83.64,-182400.68"/>
<polygon fill="black" stroke="black" stroke-width="0.5" points="84.62,-182402.43 89.62,-182400.68 84.62,-182398.93 84.62,-182402.43"/>
</g>
<!-- ValuedToken&#45;&gt;VHDLToken -->
<g id="edge3" class="edge">
<title>ValuedToken&#45;&gt;VHDLToken</title>
<path fill="none" stroke="black" stroke-width="0.5" d="M188.94,-182400.68C198.59,-182400.68 208.7,-182400.68 218.29,-182400.68"/>
<polygon fill="black" stroke="black" stroke-width="0.5" points="219.19,-182402.43 224.19,-182400.68 219.19,-182398.93 219.19,-182402.43"/>
</g>
</g>
</svg>
