<?xml version="1.0" encoding="UTF-8" standalone="no"?>
<!DOCTYPE svg PUBLIC "-//W3C//DTD SVG 1.1//EN"
 "http://www.w3.org/Graphics/SVG/1.1/DTD/svg11.dtd">
<!-- Generated by graphviz version 8.0.5 (20230430.1635)
 -->
<!-- Title: inheritanceb8d7c4e7b4 Pages: 1 -->
<svg width="2pt" height="864pt"
 viewBox="0.00 0.00 1.85 864.00" xmlns="http://www.w3.org/2000/svg" xmlns:xlink="http://www.w3.org/1999/xlink">
<g id="graph0" class="graph" transform="scale(0.00304437 0.00304437) rotate(0) translate(4 283798.42)">
<title>inheritanceb8d7c4e7b4</title>
<!-- BufferKeyword -->
<g id="node1" class="node">
<title>BufferKeyword</title>
<g id="a_node1"><a xlink:href="../pyVHDLParser/pyVHDLParser.Token.Keywords.html#pyVHDLParser.Token.Keywords.BufferKeyword" xlink:title="Reserved word &#39;buffer&#39; for mode *buffer*." target="_top">
<polygon fill="white" stroke="#1e90ff" points="599.5,-141906.46 486,-141906.46 486,-141887.96 599.5,-141887.96 599.5,-141906.46"/>
<text text-anchor="middle" x="542.75" y="-141892.96" font-family="Vera Sans, DejaVu Sans, Liberation Sans, Arial, Helvetica, sans" font-size="10.00">BufferKeyword</text>
</a>
</g>
</g>
<!-- KeywordToken -->
<g id="node2" class="node">
<title>KeywordToken</title>
<g id="a_node2"><a xlink:href="../pyVHDLParser/pyVHDLParser.Token.Keywords.html#pyVHDLParser.Token.Keywords.KeywordToken" xlink:title="KeywordToken" target="_top">
<polygon fill="white" stroke="#1e90ff" points="450,-141906.46 344,-141906.46 344,-141887.96 450,-141887.96 450,-141906.46"/>
<text text-anchor="middle" x="397" y="-141892.96" font-family="Vera Sans, DejaVu Sans, Liberation Sans, Arial, Helvetica, sans" font-size="10.00">KeywordToken</text>
</a>
</g>
</g>
<!-- KeywordToken&#45;&gt;BufferKeyword -->
<g id="edge1" class="edge">
<title>KeywordToken&#45;&gt;BufferKeyword</title>
<path fill="none" stroke="black" stroke-width="0.5" d="M450.3,-141897.21C459.97,-141897.21 470.14,-141897.21 480.05,-141897.21"/>
<polygon fill="black" stroke="black" stroke-width="0.5" points="480.85,-141898.96 485.85,-141897.21 480.85,-141895.46 480.85,-141898.96"/>
</g>
<!-- VHDLToken -->
<g id="node3" class="node">
<title>VHDLToken</title>
<g id="a_node3"><a xlink:href="../pyVHDLParser.Token.html#pyVHDLParser.Token.VHDLToken" xlink:title="Base&#45;class for all VHDL specific tokens." target="_top">
<polygon fill="white" stroke="#1e90ff" points="308,-283794.42 224.5,-283794.42 224.5,0 308,0 308,-283794.42"/>
<text text-anchor="middle" x="266.25" y="-283780.92" font-family="Vera Sans, DejaVu Sans, Liberation Sans, Arial, Helvetica, sans" font-size="10.00">VHDLToken</text>
</a>
</g>
</g>
<!-- VHDLToken&#45;&gt;KeywordToken -->
<g id="edge2" class="edge">
<title>VHDLToken&#45;&gt;KeywordToken</title>
<path fill="none" stroke="black" stroke-width="0.5" d="M308.34,-141897.21C317.69,-141897.21 327.8,-141897.21 337.71,-141897.21"/>
<polygon fill="black" stroke="black" stroke-width="0.5" points="338.52,-141898.96 343.52,-141897.21 338.52,-141895.46 338.52,-141898.96"/>
</g>
<!-- Token -->
<g id="node4" class="node">
<title>Token</title>
<g id="a_node4"><a xlink:href="../pyVHDLParser.Token.html#pyVHDLParser.Token.Token" xlink:title="Base&#45;class for all token classes." target="_top">
<polygon fill="white" stroke="#1e90ff" points="54,-283794.37 0,-283794.37 0,-0.05 54,-0.05 54,-283794.37"/>
<text text-anchor="middle" x="27" y="-283780.87" font-family="Vera Sans, DejaVu Sans, Liberation Sans, Arial, Helvetica, sans" font-size="10.00">Token</text>
</a>
</g>
</g>
<!-- ValuedToken -->
<g id="node5" class="node">
<title>ValuedToken</title>
<g id="a_node5"><a xlink:href="../pyVHDLParser.Token.html#pyVHDLParser.Token.ValuedToken" xlink:title="Base&#45;class for all *valued* token." target="_top">
<polygon fill="white" stroke="#1e90ff" points="188.5,-141906.46 90,-141906.46 90,-141887.96 188.5,-141887.96 188.5,-141906.46"/>
<text text-anchor="middle" x="139.25" y="-141892.96" font-family="Vera Sans, DejaVu Sans, Liberation Sans, Arial, Helvetica, sans" font-size="10.00">ValuedToken</text>
</a>
</g>
</g>
<!-- Token&#45;&gt;ValuedToken -->
<g id="edge4" class="edge">
<title>Token&#45;&gt;ValuedToken</title>
<path fill="none" stroke="black" stroke-width="0.5" d="M54.41,-141897.21C63.25,-141897.21 73.45,-141897.21 83.64,-141897.21"/>
<polygon fill="black" stroke="black" stroke-width="0.5" points="84.62,-141898.96 89.62,-141897.21 84.62,-141895.46 84.62,-141898.96"/>
</g>
<!-- ValuedToken&#45;&gt;VHDLToken -->
<g id="edge3" class="edge">
<title>ValuedToken&#45;&gt;VHDLToken</title>
<path fill="none" stroke="black" stroke-width="0.5" d="M188.94,-141897.21C198.59,-141897.21 208.7,-141897.21 218.29,-141897.21"/>
<polygon fill="black" stroke="black" stroke-width="0.5" points="219.19,-141898.96 224.19,-141897.21 219.19,-141895.46 219.19,-141898.96"/>
</g>
</g>
</svg>
