<?xml version="1.0" encoding="UTF-8" standalone="no"?>
<!DOCTYPE svg PUBLIC "-//W3C//DTD SVG 1.1//EN"
 "http://www.w3.org/Graphics/SVG/1.1/DTD/svg11.dtd">
<!-- Generated by graphviz version 8.0.5 (20230430.1635)
 -->
<!-- Title: inheritance492c98737e Pages: 1 -->
<svg width="1pt" height="864pt"
 viewBox="0.00 0.00 0.70 864.00" xmlns="http://www.w3.org/2000/svg" xmlns:xlink="http://www.w3.org/1999/xlink">
<g id="graph0" class="graph" transform="scale(0.0011744 0.0011744) rotate(0) translate(4 735690.6)">
<title>inheritance492c98737e</title>
<!-- ExitKeyword -->
<g id="node1" class="node">
<title>ExitKeyword</title>
<g id="a_node1"><a xlink:href="../pyVHDLParser/pyVHDLParser.Token.Keywords.html#pyVHDLParser.Token.Keywords.ExitKeyword" xlink:title="ExitKeyword" target="_top">
<polygon fill="white" stroke="#1e90ff" points="584.5,-367852.55 486,-367852.55 486,-367834.05 584.5,-367834.05 584.5,-367852.55"/>
<text text-anchor="middle" x="535.25" y="-367839.05" font-family="Vera Sans, DejaVu Sans, Liberation Sans, Arial, Helvetica, sans" font-size="10.00">ExitKeyword</text>
</a>
</g>
</g>
<!-- KeywordToken -->
<g id="node2" class="node">
<title>KeywordToken</title>
<g id="a_node2"><a xlink:href="../pyVHDLParser/pyVHDLParser.Token.Keywords.html#pyVHDLParser.Token.Keywords.KeywordToken" xlink:title="KeywordToken" target="_top">
<polygon fill="white" stroke="#1e90ff" points="450,-735686.6 344,-735686.6 344,0 450,0 450,-735686.6"/>
<text text-anchor="middle" x="397" y="-735673.1" font-family="Vera Sans, DejaVu Sans, Liberation Sans, Arial, Helvetica, sans" font-size="10.00">KeywordToken</text>
</a>
</g>
</g>
<!-- KeywordToken&#45;&gt;ExitKeyword -->
<g id="edge1" class="edge">
<title>KeywordToken&#45;&gt;ExitKeyword</title>
<path fill="none" stroke="black" stroke-width="0.5" d="M450.29,-367843.3C460.07,-367843.3 470.32,-367843.3 480.16,-367843.3"/>
<polygon fill="black" stroke="black" stroke-width="0.5" points="480.9,-367845.05 485.9,-367843.3 480.9,-367841.55 480.9,-367845.05"/>
</g>
<!-- VHDLToken -->
<g id="node3" class="node">
<title>VHDLToken</title>
<g id="a_node3"><a xlink:href="../pyVHDLParser.Token.html#pyVHDLParser.Token.VHDLToken" xlink:title="Base&#45;class for all VHDL specific tokens." target="_top">
<polygon fill="white" stroke="#1e90ff" points="308,-735681.01 224.5,-735681.01 224.5,-5.59 308,-5.59 308,-735681.01"/>
<text text-anchor="middle" x="266.25" y="-735667.51" font-family="Vera Sans, DejaVu Sans, Liberation Sans, Arial, Helvetica, sans" font-size="10.00">VHDLToken</text>
</a>
</g>
</g>
<!-- VHDLToken&#45;&gt;KeywordToken -->
<g id="edge2" class="edge">
<title>VHDLToken&#45;&gt;KeywordToken</title>
<path fill="none" stroke="black" stroke-width="0.5" d="M308.34,-367843.3C317.69,-367843.3 327.8,-367843.3 337.71,-367843.3"/>
<polygon fill="black" stroke="black" stroke-width="0.5" points="338.52,-367845.05 343.52,-367843.3 338.52,-367841.55 338.52,-367845.05"/>
</g>
<!-- Token -->
<g id="node4" class="node">
<title>Token</title>
<g id="a_node4"><a xlink:href="../pyVHDLParser.Token.html#pyVHDLParser.Token.Token" xlink:title="Base&#45;class for all token classes." target="_top">
<polygon fill="white" stroke="#1e90ff" points="54,-735680.96 0,-735680.96 0,-5.64 54,-5.64 54,-735680.96"/>
<text text-anchor="middle" x="27" y="-735667.46" font-family="Vera Sans, DejaVu Sans, Liberation Sans, Arial, Helvetica, sans" font-size="10.00">Token</text>
</a>
</g>
</g>
<!-- ValuedToken -->
<g id="node5" class="node">
<title>ValuedToken</title>
<g id="a_node5"><a xlink:href="../pyVHDLParser.Token.html#pyVHDLParser.Token.ValuedToken" xlink:title="Base&#45;class for all *valued* token." target="_top">
<polygon fill="white" stroke="#1e90ff" points="188.5,-367852.55 90,-367852.55 90,-367834.05 188.5,-367834.05 188.5,-367852.55"/>
<text text-anchor="middle" x="139.25" y="-367839.05" font-family="Vera Sans, DejaVu Sans, Liberation Sans, Arial, Helvetica, sans" font-size="10.00">ValuedToken</text>
</a>
</g>
</g>
<!-- Token&#45;&gt;ValuedToken -->
<g id="edge4" class="edge">
<title>Token&#45;&gt;ValuedToken</title>
<path fill="none" stroke="black" stroke-width="0.5" d="M54.41,-367843.3C63.25,-367843.3 73.45,-367843.3 83.64,-367843.3"/>
<polygon fill="black" stroke="black" stroke-width="0.5" points="84.62,-367845.05 89.62,-367843.3 84.62,-367841.55 84.62,-367845.05"/>
</g>
<!-- ValuedToken&#45;&gt;VHDLToken -->
<g id="edge3" class="edge">
<title>ValuedToken&#45;&gt;VHDLToken</title>
<path fill="none" stroke="black" stroke-width="0.5" d="M188.94,-367843.3C198.59,-367843.3 208.7,-367843.3 218.29,-367843.3"/>
<polygon fill="black" stroke="black" stroke-width="0.5" points="219.19,-367845.05 224.19,-367843.3 219.19,-367841.55 219.19,-367845.05"/>
</g>
</g>
</svg>
