<?xml version="1.0" encoding="UTF-8" standalone="no"?>
<!DOCTYPE svg PUBLIC "-//W3C//DTD SVG 1.1//EN"
 "http://www.w3.org/Graphics/SVG/1.1/DTD/svg11.dtd">
<!-- Generated by graphviz version 8.0.5 (20230430.1635)
 -->
<!-- Title: inheritance7d8e947efa Pages: 1 -->
<svg width="0pt" height="864pt"
 viewBox="0.00 0.00 0.43 864.00" xmlns="http://www.w3.org/2000/svg" xmlns:xlink="http://www.w3.org/1999/xlink">
<g id="graph0" class="graph" transform="scale(0.000727807 0.000727807) rotate(0) translate(4 1187124.18)">
<title>inheritance7d8e947efa</title>
<!-- KeywordToken -->
<g id="node1" class="node">
<title>KeywordToken</title>
<g id="a_node1"><a xlink:href="../pyVHDLParser/pyVHDLParser.Token.Keywords.html#pyVHDLParser.Token.Keywords.KeywordToken" xlink:title="KeywordToken" target="_top">
<polygon fill="white" stroke="#1e90ff" points="450,-593569.34 344,-593569.34 344,-593550.84 450,-593550.84 450,-593569.34"/>
<text text-anchor="middle" x="397" y="-593555.84" font-family="Vera Sans, DejaVu Sans, Liberation Sans, Arial, Helvetica, sans" font-size="10.00">KeywordToken</text>
</a>
</g>
</g>
<!-- ThenKeyword -->
<g id="node3" class="node">
<title>ThenKeyword</title>
<g id="a_node3"><a xlink:href="../pyVHDLParser/pyVHDLParser.Token.Keywords.html#pyVHDLParser.Token.Keywords.ThenKeyword" xlink:title="ThenKeyword" target="_top">
<polygon fill="white" stroke="#1e90ff" points="584.5,-1187120.13 486,-1187120.13 486,-0.05 584.5,-0.05 584.5,-1187120.13"/>
<text text-anchor="middle" x="535.25" y="-1187106.63" font-family="Vera Sans, DejaVu Sans, Liberation Sans, Arial, Helvetica, sans" font-size="10.00">ThenKeyword</text>
</a>
</g>
</g>
<!-- KeywordToken&#45;&gt;ThenKeyword -->
<g id="edge2" class="edge">
<title>KeywordToken&#45;&gt;ThenKeyword</title>
<path fill="none" stroke="black" stroke-width="0.5" d="M450.29,-593560.09C460.07,-593560.09 470.32,-593560.09 480.16,-593560.09"/>
<polygon fill="black" stroke="black" stroke-width="0.5" points="480.9,-593561.84 485.9,-593560.09 480.9,-593558.34 480.9,-593561.84"/>
</g>
<!-- VHDLToken -->
<g id="node2" class="node">
<title>VHDLToken</title>
<g id="a_node2"><a xlink:href="../pyVHDLParser.Token.html#pyVHDLParser.Token.VHDLToken" xlink:title="Base&#45;class for all VHDL specific tokens." target="_top">
<polygon fill="white" stroke="#1e90ff" points="308,-593569.34 224.5,-593569.34 224.5,-593550.84 308,-593550.84 308,-593569.34"/>
<text text-anchor="middle" x="266.25" y="-593555.84" font-family="Vera Sans, DejaVu Sans, Liberation Sans, Arial, Helvetica, sans" font-size="10.00">VHDLToken</text>
</a>
</g>
</g>
<!-- VHDLToken&#45;&gt;KeywordToken -->
<g id="edge1" class="edge">
<title>VHDLToken&#45;&gt;KeywordToken</title>
<path fill="none" stroke="black" stroke-width="0.5" d="M308.34,-593560.09C317.69,-593560.09 327.8,-593560.09 337.71,-593560.09"/>
<polygon fill="black" stroke="black" stroke-width="0.5" points="338.52,-593561.84 343.52,-593560.09 338.52,-593558.34 338.52,-593561.84"/>
</g>
<!-- Token -->
<g id="node4" class="node">
<title>Token</title>
<g id="a_node4"><a xlink:href="../pyVHDLParser.Token.html#pyVHDLParser.Token.Token" xlink:title="Base&#45;class for all token classes." target="_top">
<polygon fill="white" stroke="#1e90ff" points="54,-1187120.18 0,-1187120.18 0,0 54,0 54,-1187120.18"/>
<text text-anchor="middle" x="27" y="-1187106.68" font-family="Vera Sans, DejaVu Sans, Liberation Sans, Arial, Helvetica, sans" font-size="10.00">Token</text>
</a>
</g>
</g>
<!-- ValuedToken -->
<g id="node5" class="node">
<title>ValuedToken</title>
<g id="a_node5"><a xlink:href="../pyVHDLParser.Token.html#pyVHDLParser.Token.ValuedToken" xlink:title="Base&#45;class for all *valued* token." target="_top">
<polygon fill="white" stroke="#1e90ff" points="188.5,-593569.34 90,-593569.34 90,-593550.84 188.5,-593550.84 188.5,-593569.34"/>
<text text-anchor="middle" x="139.25" y="-593555.84" font-family="Vera Sans, DejaVu Sans, Liberation Sans, Arial, Helvetica, sans" font-size="10.00">ValuedToken</text>
</a>
</g>
</g>
<!-- Token&#45;&gt;ValuedToken -->
<g id="edge4" class="edge">
<title>Token&#45;&gt;ValuedToken</title>
<path fill="none" stroke="black" stroke-width="0.5" d="M54.41,-593560.09C63.25,-593560.09 73.45,-593560.09 83.64,-593560.09"/>
<polygon fill="black" stroke="black" stroke-width="0.5" points="84.62,-593561.84 89.62,-593560.09 84.62,-593558.34 84.62,-593561.84"/>
</g>
<!-- ValuedToken&#45;&gt;VHDLToken -->
<g id="edge3" class="edge">
<title>ValuedToken&#45;&gt;VHDLToken</title>
<path fill="none" stroke="black" stroke-width="0.5" d="M188.94,-593560.09C198.59,-593560.09 208.7,-593560.09 218.29,-593560.09"/>
<polygon fill="black" stroke="black" stroke-width="0.5" points="219.19,-593561.84 224.19,-593560.09 219.19,-593558.34 219.19,-593561.84"/>
</g>
</g>
</svg>
