<?xml version="1.0" encoding="UTF-8" standalone="no"?>
<!DOCTYPE svg PUBLIC "-//W3C//DTD SVG 1.1//EN"
 "http://www.w3.org/Graphics/SVG/1.1/DTD/svg11.dtd">
<!-- Generated by graphviz version 8.0.5 (20230430.1635)
 -->
<!-- Title: inheritance9ec783f417 Pages: 1 -->
<svg width="0pt" height="864pt"
 viewBox="0.00 0.00 0.39 864.00" xmlns="http://www.w3.org/2000/svg" xmlns:xlink="http://www.w3.org/1999/xlink">
<g id="graph0" class="graph" transform="scale(0.000639126 0.000639126) rotate(0) translate(4 1351842.54)">
<title>inheritance9ec783f417</title>
<!-- AccessKeyword -->
<g id="node1" class="node">
<title>AccessKeyword</title>
<g id="a_node1"><a xlink:href="../pyVHDLParser/pyVHDLParser.Token.Keywords.html#pyVHDLParser.Token.Keywords.AccessKeyword" xlink:title="Reserved word &#39;access&#39; to defined access types." target="_top">
<polygon fill="white" stroke="#1e90ff" points="599.5,-675928.52 486,-675928.52 486,-675910.02 599.5,-675910.02 599.5,-675928.52"/>
<text text-anchor="middle" x="542.75" y="-675915.02" font-family="Vera Sans, DejaVu Sans, Liberation Sans, Arial, Helvetica, sans" font-size="10.00">AccessKeyword</text>
</a>
</g>
</g>
<!-- KeywordToken -->
<g id="node2" class="node">
<title>KeywordToken</title>
<g id="a_node2"><a xlink:href="../pyVHDLParser/pyVHDLParser.Token.Keywords.html#pyVHDLParser.Token.Keywords.KeywordToken" xlink:title="KeywordToken" target="_top">
<polygon fill="white" stroke="#1e90ff" points="450,-675928.52 344,-675928.52 344,-675910.02 450,-675910.02 450,-675928.52"/>
<text text-anchor="middle" x="397" y="-675915.02" font-family="Vera Sans, DejaVu Sans, Liberation Sans, Arial, Helvetica, sans" font-size="10.00">KeywordToken</text>
</a>
</g>
</g>
<!-- KeywordToken&#45;&gt;AccessKeyword -->
<g id="edge1" class="edge">
<title>KeywordToken&#45;&gt;AccessKeyword</title>
<path fill="none" stroke="black" stroke-width="0.5" d="M450.3,-675919.27C459.97,-675919.27 470.14,-675919.27 480.05,-675919.27"/>
<polygon fill="black" stroke="black" stroke-width="0.5" points="480.85,-675921.02 485.85,-675919.27 480.85,-675917.52 480.85,-675921.02"/>
</g>
<!-- VHDLToken -->
<g id="node3" class="node">
<title>VHDLToken</title>
<g id="a_node3"><a xlink:href="../pyVHDLParser.Token.html#pyVHDLParser.Token.VHDLToken" xlink:title="Base&#45;class for all VHDL specific tokens." target="_top">
<polygon fill="white" stroke="#1e90ff" points="308,-1351838.49 224.5,-1351838.49 224.5,-0.05 308,-0.05 308,-1351838.49"/>
<text text-anchor="middle" x="266.25" y="-1351824.99" font-family="Vera Sans, DejaVu Sans, Liberation Sans, Arial, Helvetica, sans" font-size="10.00">VHDLToken</text>
</a>
</g>
</g>
<!-- VHDLToken&#45;&gt;KeywordToken -->
<g id="edge2" class="edge">
<title>VHDLToken&#45;&gt;KeywordToken</title>
<path fill="none" stroke="black" stroke-width="0.5" d="M308.34,-675919.27C317.69,-675919.27 327.8,-675919.27 337.71,-675919.27"/>
<polygon fill="black" stroke="black" stroke-width="0.5" points="338.52,-675921.02 343.52,-675919.27 338.52,-675917.52 338.52,-675921.02"/>
</g>
<!-- Token -->
<g id="node4" class="node">
<title>Token</title>
<g id="a_node4"><a xlink:href="../pyVHDLParser.Token.html#pyVHDLParser.Token.Token" xlink:title="Base&#45;class for all token classes." target="_top">
<polygon fill="white" stroke="#1e90ff" points="54,-1351838.54 0,-1351838.54 0,0 54,0 54,-1351838.54"/>
<text text-anchor="middle" x="27" y="-1351825.04" font-family="Vera Sans, DejaVu Sans, Liberation Sans, Arial, Helvetica, sans" font-size="10.00">Token</text>
</a>
</g>
</g>
<!-- ValuedToken -->
<g id="node5" class="node">
<title>ValuedToken</title>
<g id="a_node5"><a xlink:href="../pyVHDLParser.Token.html#pyVHDLParser.Token.ValuedToken" xlink:title="Base&#45;class for all *valued* token." target="_top">
<polygon fill="white" stroke="#1e90ff" points="188.5,-675928.52 90,-675928.52 90,-675910.02 188.5,-675910.02 188.5,-675928.52"/>
<text text-anchor="middle" x="139.25" y="-675915.02" font-family="Vera Sans, DejaVu Sans, Liberation Sans, Arial, Helvetica, sans" font-size="10.00">ValuedToken</text>
</a>
</g>
</g>
<!-- Token&#45;&gt;ValuedToken -->
<g id="edge4" class="edge">
<title>Token&#45;&gt;ValuedToken</title>
<path fill="none" stroke="black" stroke-width="0.5" d="M54.41,-675919.27C63.25,-675919.27 73.45,-675919.27 83.64,-675919.27"/>
<polygon fill="black" stroke="black" stroke-width="0.5" points="84.62,-675921.02 89.62,-675919.27 84.62,-675917.52 84.62,-675921.02"/>
</g>
<!-- ValuedToken&#45;&gt;VHDLToken -->
<g id="edge3" class="edge">
<title>ValuedToken&#45;&gt;VHDLToken</title>
<path fill="none" stroke="black" stroke-width="0.5" d="M188.94,-675919.27C198.59,-675919.27 208.7,-675919.27 218.29,-675919.27"/>
<polygon fill="black" stroke="black" stroke-width="0.5" points="219.19,-675921.02 224.19,-675919.27 219.19,-675917.52 219.19,-675921.02"/>
</g>
</g>
</svg>
