<?xml version="1.0" encoding="UTF-8" standalone="no"?>
<!DOCTYPE svg PUBLIC "-//W3C//DTD SVG 1.1//EN"
 "http://www.w3.org/Graphics/SVG/1.1/DTD/svg11.dtd">
<!-- Generated by graphviz version 8.0.5 (20230430.1635)
 -->
<!-- Title: inheritanceb381748d80 Pages: 1 -->
<svg width="1pt" height="864pt"
 viewBox="0.00 0.00 1.33 864.00" xmlns="http://www.w3.org/2000/svg" xmlns:xlink="http://www.w3.org/1999/xlink">
<g id="graph0" class="graph" transform="scale(0.00153555 0.00153555) rotate(0) translate(4 562659.06)">
<title>inheritanceb381748d80</title>
<!-- KeywordToken -->
<g id="node1" class="node">
<title>KeywordToken</title>
<g id="a_node1"><a xlink:href="../pyVHDLParser/pyVHDLParser.Token.Keywords.html#pyVHDLParser.Token.Keywords.KeywordToken" xlink:title="KeywordToken" target="_top">
<polygon fill="white" stroke="#1e90ff" points="450,-281336.78 344,-281336.78 344,-281318.28 450,-281318.28 450,-281336.78"/>
<text text-anchor="middle" x="397" y="-281323.28" font-family="Vera Sans, DejaVu Sans, Liberation Sans, Arial, Helvetica, sans" font-size="10.00">KeywordToken</text>
</a>
</g>
</g>
<!-- Operator -->
<g id="node4" class="node">
<title>Operator</title>
<g id="a_node4"><a xlink:href="../pyVHDLParser/pyVHDLParser.Token.Keywords.html#pyVHDLParser.Token.Keywords.Operator" xlink:title="Operator" target="_top">
<polygon fill="white" stroke="#1e90ff" points="562,-281336.78 486,-281336.78 486,-281318.28 562,-281318.28 562,-281336.78"/>
<text text-anchor="middle" x="524" y="-281323.28" font-family="Vera Sans, DejaVu Sans, Liberation Sans, Arial, Helvetica, sans" font-size="10.00">Operator</text>
</a>
</g>
</g>
<!-- KeywordToken&#45;&gt;Operator -->
<g id="edge4" class="edge">
<title>KeywordToken&#45;&gt;Operator</title>
<path fill="none" stroke="black" stroke-width="0.5" d="M450.29,-281327.53C460.15,-281327.53 470.36,-281327.53 479.9,-281327.53"/>
<polygon fill="black" stroke="black" stroke-width="0.5" points="480.74,-281329.28 485.74,-281327.53 480.74,-281325.78 480.74,-281329.28"/>
</g>
<!-- VHDLToken -->
<g id="node2" class="node">
<title>VHDLToken</title>
<g id="a_node2"><a xlink:href="../pyVHDLParser.Token.html#pyVHDLParser.Token.VHDLToken" xlink:title="Base&#45;class for all VHDL specific tokens." target="_top">
<polygon fill="white" stroke="#1e90ff" points="308,-562655.06 224.5,-562655.06 224.5,0 308,0 308,-562655.06"/>
<text text-anchor="middle" x="266.25" y="-562641.56" font-family="Vera Sans, DejaVu Sans, Liberation Sans, Arial, Helvetica, sans" font-size="10.00">VHDLToken</text>
</a>
</g>
</g>
<!-- VHDLToken&#45;&gt;KeywordToken -->
<g id="edge1" class="edge">
<title>VHDLToken&#45;&gt;KeywordToken</title>
<path fill="none" stroke="black" stroke-width="0.5" d="M308.34,-281327.53C317.69,-281327.53 327.8,-281327.53 337.71,-281327.53"/>
<polygon fill="black" stroke="black" stroke-width="0.5" points="338.52,-281329.28 343.52,-281327.53 338.52,-281325.78 338.52,-281329.28"/>
</g>
<!-- LogicalOperator -->
<g id="node3" class="node">
<title>LogicalOperator</title>
<g id="a_node3"><a xlink:href="../pyVHDLParser/pyVHDLParser.Token.Keywords.html#pyVHDLParser.Token.Keywords.LogicalOperator" xlink:title="LogicalOperator" target="_top">
<polygon fill="white" stroke="#1e90ff" points="726.5,-562650.47 598,-562650.47 598,-4.59 726.5,-4.59 726.5,-562650.47"/>
<text text-anchor="middle" x="662.25" y="-562636.97" font-family="Vera Sans, DejaVu Sans, Liberation Sans, Arial, Helvetica, sans" font-size="10.00">LogicalOperator</text>
</a>
</g>
</g>
<!-- NotOperator -->
<g id="node5" class="node">
<title>NotOperator</title>
<g id="a_node5"><a xlink:href="../pyVHDLParser/pyVHDLParser.Token.Keywords.html#pyVHDLParser.Token.Keywords.NotOperator" xlink:title="NotOperator" target="_top">
<polygon fill="white" stroke="#1e90ff" points="861,-281336.78 762.5,-281336.78 762.5,-281318.28 861,-281318.28 861,-281336.78"/>
<text text-anchor="middle" x="811.75" y="-281323.28" font-family="Vera Sans, DejaVu Sans, Liberation Sans, Arial, Helvetica, sans" font-size="10.00">NotOperator</text>
</a>
</g>
</g>
<!-- LogicalOperator&#45;&gt;NotOperator -->
<g id="edge3" class="edge">
<title>LogicalOperator&#45;&gt;NotOperator</title>
<path fill="none" stroke="black" stroke-width="0.5" d="M726.66,-281327.53C736.49,-281327.53 746.57,-281327.53 756.18,-281327.53"/>
<polygon fill="black" stroke="black" stroke-width="0.5" points="757.1,-281329.28 762.1,-281327.53 757.1,-281325.78 757.1,-281329.28"/>
</g>
<!-- Operator&#45;&gt;LogicalOperator -->
<g id="edge2" class="edge">
<title>Operator&#45;&gt;LogicalOperator</title>
<path fill="none" stroke="black" stroke-width="0.5" d="M562.23,-281327.53C571.39,-281327.53 581.49,-281327.53 591.63,-281327.53"/>
<polygon fill="black" stroke="black" stroke-width="0.5" points="592.6,-281329.28 597.6,-281327.53 592.6,-281325.78 592.6,-281329.28"/>
</g>
<!-- Token -->
<g id="node6" class="node">
<title>Token</title>
<g id="a_node6"><a xlink:href="../pyVHDLParser.Token.html#pyVHDLParser.Token.Token" xlink:title="Base&#45;class for all token classes." target="_top">
<polygon fill="white" stroke="#1e90ff" points="54,-281336.78 0,-281336.78 0,-281318.28 54,-281318.28 54,-281336.78"/>
<text text-anchor="middle" x="27" y="-281323.28" font-family="Vera Sans, DejaVu Sans, Liberation Sans, Arial, Helvetica, sans" font-size="10.00">Token</text>
</a>
</g>
</g>
<!-- ValuedToken -->
<g id="node7" class="node">
<title>ValuedToken</title>
<g id="a_node7"><a xlink:href="../pyVHDLParser.Token.html#pyVHDLParser.Token.ValuedToken" xlink:title="Base&#45;class for all *valued* token." target="_top">
<polygon fill="white" stroke="#1e90ff" points="188.5,-281336.78 90,-281336.78 90,-281318.28 188.5,-281318.28 188.5,-281336.78"/>
<text text-anchor="middle" x="139.25" y="-281323.28" font-family="Vera Sans, DejaVu Sans, Liberation Sans, Arial, Helvetica, sans" font-size="10.00">ValuedToken</text>
</a>
</g>
</g>
<!-- Token&#45;&gt;ValuedToken -->
<g id="edge6" class="edge">
<title>Token&#45;&gt;ValuedToken</title>
<path fill="none" stroke="black" stroke-width="0.5" d="M54.41,-281327.53C63.25,-281327.53 73.45,-281327.53 83.64,-281327.53"/>
<polygon fill="black" stroke="black" stroke-width="0.5" points="84.62,-281329.28 89.62,-281327.53 84.62,-281325.78 84.62,-281329.28"/>
</g>
<!-- ValuedToken&#45;&gt;VHDLToken -->
<g id="edge5" class="edge">
<title>ValuedToken&#45;&gt;VHDLToken</title>
<path fill="none" stroke="black" stroke-width="0.5" d="M188.94,-281327.53C198.59,-281327.53 208.7,-281327.53 218.29,-281327.53"/>
<polygon fill="black" stroke="black" stroke-width="0.5" points="219.19,-281329.28 224.19,-281327.53 219.19,-281325.78 219.19,-281329.28"/>
</g>
</g>
</svg>
