<?xml version="1.0" encoding="UTF-8" standalone="no"?>
<!DOCTYPE svg PUBLIC "-//W3C//DTD SVG 1.1//EN"
 "http://www.w3.org/Graphics/SVG/1.1/DTD/svg11.dtd">
<!-- Generated by graphviz version 8.0.5 (20230430.1635)
 -->
<!-- Title: inheritancee8be8aecf3 Pages: 1 -->
<svg width="496pt" height="34pt"
 viewBox="0.00 0.00 495.50 34.00" xmlns="http://www.w3.org/2000/svg" xmlns:xlink="http://www.w3.org/1999/xlink">
<g id="graph0" class="graph" transform="scale(1 1) rotate(0) translate(4 30)">
<title>inheritancee8be8aecf3</title>
<!-- IndentationToken -->
<g id="node1" class="node">
<title>IndentationToken</title>
<g id="a_node1"><a xlink:href="../pyVHDLParser/pyVHDLParser.Token.html#pyVHDLParser.Token.IndentationToken" xlink:title="Token representing an indentation in a source code line." target="_top">
<polygon fill="white" stroke="#1e90ff" points="487.5,-22.25 351.5,-22.25 351.5,-3.75 487.5,-3.75 487.5,-22.25"/>
<text text-anchor="middle" x="419.5" y="-8.75" font-family="Vera Sans, DejaVu Sans, Liberation Sans, Arial, Helvetica, sans" font-size="10.00">IndentationToken</text>
</a>
</g>
</g>
<!-- SpaceToken -->
<g id="node2" class="node">
<title>SpaceToken</title>
<g id="a_node2"><a xlink:href="../pyVHDLParser/pyVHDLParser.Token.html#pyVHDLParser.Token.SpaceToken" xlink:title="Token representing a space (space or tab)." target="_top">
<polygon fill="white" stroke="#1e90ff" points="315.5,-22.25 224.5,-22.25 224.5,-3.75 315.5,-3.75 315.5,-22.25"/>
<text text-anchor="middle" x="270" y="-8.75" font-family="Vera Sans, DejaVu Sans, Liberation Sans, Arial, Helvetica, sans" font-size="10.00">SpaceToken</text>
</a>
</g>
</g>
<!-- SpaceToken&#45;&gt;IndentationToken -->
<g id="edge1" class="edge">
<title>SpaceToken&#45;&gt;IndentationToken</title>
<path fill="none" stroke="black" stroke-width="0.5" d="M315.66,-13C325.01,-13 335.11,-13 345.2,-13"/>
<polygon fill="black" stroke="black" stroke-width="0.5" points="346.13,-14.75 351.13,-13 346.13,-11.25 346.13,-14.75"/>
</g>
<!-- ValuedToken -->
<g id="node3" class="node">
<title>ValuedToken</title>
<g id="a_node3"><a xlink:href="../pyVHDLParser/pyVHDLParser.Token.html#pyVHDLParser.Token.ValuedToken" xlink:title="Base&#45;class for all *valued* token." target="_top">
<polygon fill="white" stroke="#1e90ff" points="188.5,-22.25 90,-22.25 90,-3.75 188.5,-3.75 188.5,-22.25"/>
<text text-anchor="middle" x="139.25" y="-8.75" font-family="Vera Sans, DejaVu Sans, Liberation Sans, Arial, Helvetica, sans" font-size="10.00">ValuedToken</text>
</a>
</g>
</g>
<!-- ValuedToken&#45;&gt;SpaceToken -->
<g id="edge2" class="edge">
<title>ValuedToken&#45;&gt;SpaceToken</title>
<path fill="none" stroke="black" stroke-width="0.5" d="M188.92,-13C198.48,-13 208.52,-13 218.15,-13"/>
<polygon fill="black" stroke="black" stroke-width="0.5" points="219.07,-14.75 224.07,-13 219.07,-11.25 219.07,-14.75"/>
</g>
<!-- Token -->
<g id="node4" class="node">
<title>Token</title>
<g id="a_node4"><a xlink:href="../pyVHDLParser/pyVHDLParser.Token.html#pyVHDLParser.Token.Token" xlink:title="Base&#45;class for all token classes." target="_top">
<polygon fill="white" stroke="#1e90ff" points="54,-26 0,-26 0,0 54,0 54,-26"/>
<text text-anchor="middle" x="27" y="-12.5" font-family="Vera Sans, DejaVu Sans, Liberation Sans, Arial, Helvetica, sans" font-size="10.00">Token</text>
</a>
</g>
</g>
<!-- Token&#45;&gt;ValuedToken -->
<g id="edge3" class="edge">
<title>Token&#45;&gt;ValuedToken</title>
<path fill="none" stroke="black" stroke-width="0.5" d="M54.41,-13C63.25,-13 73.45,-13 83.64,-13"/>
<polygon fill="black" stroke="black" stroke-width="0.5" points="84.62,-14.75 89.62,-13 84.62,-11.25 84.62,-14.75"/>
</g>
</g>
</svg>
