<?xml version="1.0" encoding="UTF-8" standalone="no"?>
<!DOCTYPE svg PUBLIC "-//W3C//DTD SVG 1.1//EN"
 "http://www.w3.org/Graphics/SVG/1.1/DTD/svg11.dtd">
<!-- Generated by graphviz version 8.0.5 (20230430.1635)
 -->
<!-- Title: inheritancee840b28669 Pages: 1 -->
<svg width="1pt" height="864pt"
 viewBox="0.00 0.00 0.64 864.00" xmlns="http://www.w3.org/2000/svg" xmlns:xlink="http://www.w3.org/1999/xlink">
<g id="graph0" class="graph" transform="scale(0.000819051 0.000819051) rotate(0) translate(4 1054875.76)">
<title>inheritancee840b28669</title>
<!-- DirectionKeyword -->
<g id="node1" class="node">
<title>DirectionKeyword</title>
<g id="a_node1"><a xlink:href="../pyVHDLParser/pyVHDLParser.Token.Keywords.html#pyVHDLParser.Token.Keywords.DirectionKeyword" xlink:title="DirectionKeyword" target="_top">
<polygon fill="white" stroke="#1e90ff" points="622,-527445.13 486,-527445.13 486,-527426.63 622,-527426.63 622,-527445.13"/>
<text text-anchor="middle" x="554" y="-527431.63" font-family="Vera Sans, DejaVu Sans, Liberation Sans, Arial, Helvetica, sans" font-size="10.00">DirectionKeyword</text>
</a>
</g>
</g>
<!-- DowntoKeyword -->
<g id="node3" class="node">
<title>DowntoKeyword</title>
<g id="a_node3"><a xlink:href="../pyVHDLParser/pyVHDLParser.Token.Keywords.html#pyVHDLParser.Token.Keywords.DowntoKeyword" xlink:title="DowntoKeyword" target="_top">
<polygon fill="white" stroke="#1e90ff" points="771.5,-1054871.76 658,-1054871.76 658,0 771.5,0 771.5,-1054871.76"/>
<text text-anchor="middle" x="714.75" y="-1054858.26" font-family="Vera Sans, DejaVu Sans, Liberation Sans, Arial, Helvetica, sans" font-size="10.00">DowntoKeyword</text>
</a>
</g>
</g>
<!-- DirectionKeyword&#45;&gt;DowntoKeyword -->
<g id="edge2" class="edge">
<title>DirectionKeyword&#45;&gt;DowntoKeyword</title>
<path fill="none" stroke="black" stroke-width="0.5" d="M622.32,-527435.88C632.12,-527435.88 642.17,-527435.88 651.85,-527435.88"/>
<polygon fill="black" stroke="black" stroke-width="0.5" points="652.83,-527437.63 657.83,-527435.88 652.83,-527434.13 652.83,-527437.63"/>
</g>
<!-- KeywordToken -->
<g id="node2" class="node">
<title>KeywordToken</title>
<g id="a_node2"><a xlink:href="../pyVHDLParser/pyVHDLParser.Token.Keywords.html#pyVHDLParser.Token.Keywords.KeywordToken" xlink:title="KeywordToken" target="_top">
<polygon fill="white" stroke="#1e90ff" points="450,-527445.13 344,-527445.13 344,-527426.63 450,-527426.63 450,-527445.13"/>
<text text-anchor="middle" x="397" y="-527431.63" font-family="Vera Sans, DejaVu Sans, Liberation Sans, Arial, Helvetica, sans" font-size="10.00">KeywordToken</text>
</a>
</g>
</g>
<!-- KeywordToken&#45;&gt;DirectionKeyword -->
<g id="edge1" class="edge">
<title>KeywordToken&#45;&gt;DirectionKeyword</title>
<path fill="none" stroke="black" stroke-width="0.5" d="M450.48,-527435.88C459.95,-527435.88 469.98,-527435.88 479.91,-527435.88"/>
<polygon fill="black" stroke="black" stroke-width="0.5" points="480.74,-527437.63 485.74,-527435.88 480.74,-527434.13 480.74,-527437.63"/>
</g>
<!-- VHDLToken -->
<g id="node4" class="node">
<title>VHDLToken</title>
<g id="a_node4"><a xlink:href="../pyVHDLParser.Token.html#pyVHDLParser.Token.VHDLToken" xlink:title="Base&#45;class for all VHDL specific tokens." target="_top">
<polygon fill="white" stroke="#1e90ff" points="308,-527445.17 224.5,-527445.17 224.5,-527426.59 308,-527426.59 308,-527445.17"/>
<text text-anchor="middle" x="266.25" y="-527431.67" font-family="Vera Sans, DejaVu Sans, Liberation Sans, Arial, Helvetica, sans" font-size="10.00">VHDLToken</text>
</a>
</g>
</g>
<!-- VHDLToken&#45;&gt;KeywordToken -->
<g id="edge3" class="edge">
<title>VHDLToken&#45;&gt;KeywordToken</title>
<path fill="none" stroke="black" stroke-width="0.5" d="M308.34,-527435.88C317.69,-527435.88 327.8,-527435.88 337.71,-527435.88"/>
<polygon fill="black" stroke="black" stroke-width="0.5" points="338.52,-527437.63 343.52,-527435.88 338.52,-527434.13 338.52,-527437.63"/>
</g>
<!-- Token -->
<g id="node5" class="node">
<title>Token</title>
<g id="a_node5"><a xlink:href="../pyVHDLParser.Token.html#pyVHDLParser.Token.Token" xlink:title="Base&#45;class for all token classes." target="_top">
<polygon fill="white" stroke="#1e90ff" points="54,-527448.88 0,-527448.88 0,-527422.88 54,-527422.88 54,-527448.88"/>
<text text-anchor="middle" x="27" y="-527435.38" font-family="Vera Sans, DejaVu Sans, Liberation Sans, Arial, Helvetica, sans" font-size="10.00">Token</text>
</a>
</g>
</g>
<!-- ValuedToken -->
<g id="node6" class="node">
<title>ValuedToken</title>
<g id="a_node6"><a xlink:href="../pyVHDLParser.Token.html#pyVHDLParser.Token.ValuedToken" xlink:title="Base&#45;class for all *valued* token." target="_top">
<polygon fill="white" stroke="#1e90ff" points="188.5,-527445.13 90,-527445.13 90,-527426.63 188.5,-527426.63 188.5,-527445.13"/>
<text text-anchor="middle" x="139.25" y="-527431.63" font-family="Vera Sans, DejaVu Sans, Liberation Sans, Arial, Helvetica, sans" font-size="10.00">ValuedToken</text>
</a>
</g>
</g>
<!-- Token&#45;&gt;ValuedToken -->
<g id="edge5" class="edge">
<title>Token&#45;&gt;ValuedToken</title>
<path fill="none" stroke="black" stroke-width="0.5" d="M54.41,-527435.88C63.25,-527435.88 73.45,-527435.88 83.64,-527435.88"/>
<polygon fill="black" stroke="black" stroke-width="0.5" points="84.62,-527437.63 89.62,-527435.88 84.62,-527434.13 84.62,-527437.63"/>
</g>
<!-- ValuedToken&#45;&gt;VHDLToken -->
<g id="edge4" class="edge">
<title>ValuedToken&#45;&gt;VHDLToken</title>
<path fill="none" stroke="black" stroke-width="0.5" d="M188.94,-527435.88C198.59,-527435.88 208.7,-527435.88 218.29,-527435.88"/>
<polygon fill="black" stroke="black" stroke-width="0.5" points="219.19,-527437.63 224.19,-527435.88 219.19,-527434.13 219.19,-527437.63"/>
</g>
</g>
</svg>
