<?xml version="1.0" encoding="UTF-8" standalone="no"?>
<!DOCTYPE svg PUBLIC "-//W3C//DTD SVG 1.1//EN"
 "http://www.w3.org/Graphics/SVG/1.1/DTD/svg11.dtd">
<!-- Generated by graphviz version 8.0.5 (20230430.1635)
 -->
<!-- Title: inheritance1a6228f0a6 Pages: 1 -->
<svg width="1pt" height="864pt"
 viewBox="0.00 0.00 0.95 864.00" xmlns="http://www.w3.org/2000/svg" xmlns:xlink="http://www.w3.org/1999/xlink">
<g id="graph0" class="graph" transform="scale(0.000875489 0.000875489) rotate(0) translate(4 986873.5)">
<title>inheritance1a6228f0a6</title>
<!-- MatchingGreaterThanOperator -->
<g id="node1" class="node">
<title>MatchingGreaterThanOperator</title>
<g id="a_node1"><a xlink:href="../pyVHDLParser/pyVHDLParser.Token.Keywords.html#pyVHDLParser.Token.Keywords.MatchingGreaterThanOperator" xlink:title="MatchingGreaterThanOperator" target="_top">
<polygon fill="white" stroke="#1e90ff" points="1078.5,-493444 860,-493444 860,-493425.5 1078.5,-493425.5 1078.5,-493444"/>
<text text-anchor="middle" x="969.25" y="-493430.5" font-family="Vera Sans, DejaVu Sans, Liberation Sans, Arial, Helvetica, sans" font-size="10.00">MatchingGreaterThanOperator</text>
</a>
</g>
</g>
<!-- RelationalOperator -->
<g id="node2" class="node">
<title>RelationalOperator</title>
<g id="a_node2"><a xlink:href="../pyVHDLParser/pyVHDLParser.Token.Keywords.html#pyVHDLParser.Token.Keywords.RelationalOperator" xlink:title="Base&#45;class for all relational operator tokens." target="_top">
<polygon fill="white" stroke="#1e90ff" points="824,-986869.5 673,-986869.5 673,0 824,0 824,-986869.5"/>
<text text-anchor="middle" x="748.5" y="-986856" font-family="Vera Sans, DejaVu Sans, Liberation Sans, Arial, Helvetica, sans" font-size="10.00">RelationalOperator</text>
</a>
</g>
</g>
<!-- RelationalOperator&#45;&gt;MatchingGreaterThanOperator -->
<g id="edge1" class="edge">
<title>RelationalOperator&#45;&gt;MatchingGreaterThanOperator</title>
<path fill="none" stroke="black" stroke-width="0.5" d="M824.48,-493434.75C833.99,-493434.75 843.89,-493434.75 853.84,-493434.75"/>
<polygon fill="black" stroke="black" stroke-width="0.5" points="854.7,-493436.5 859.7,-493434.75 854.7,-493433 854.7,-493436.5"/>
</g>
<!-- OperatorToken -->
<g id="node3" class="node">
<title>OperatorToken</title>
<g id="a_node3"><a xlink:href="../pyVHDLParser/pyVHDLParser.Token.Keywords.html#pyVHDLParser.Token.Keywords.OperatorToken" xlink:title="Base&#45;class for all operator tokens." target="_top">
<polygon fill="white" stroke="#1e90ff" points="637,-986865.93 523.5,-986865.93 523.5,-3.56 637,-3.56 637,-986865.93"/>
<text text-anchor="middle" x="580.25" y="-986852.43" font-family="Vera Sans, DejaVu Sans, Liberation Sans, Arial, Helvetica, sans" font-size="10.00">OperatorToken</text>
</a>
</g>
</g>
<!-- OperatorToken&#45;&gt;RelationalOperator -->
<g id="edge3" class="edge">
<title>OperatorToken&#45;&gt;RelationalOperator</title>
<path fill="none" stroke="black" stroke-width="0.5" d="M637.07,-493434.75C646.61,-493434.75 656.69,-493434.75 666.73,-493434.75"/>
<polygon fill="black" stroke="black" stroke-width="0.5" points="667.63,-493436.5 672.63,-493434.75 667.63,-493433 667.63,-493436.5"/>
</g>
<!-- SpecificVHDLToken -->
<g id="node4" class="node">
<title>SpecificVHDLToken</title>
<g id="a_node4"><a xlink:href="../pyVHDLParser/pyVHDLParser.Token.Keywords.html#pyVHDLParser.Token.Keywords.SpecificVHDLToken" xlink:title="Base&#45;class for all specific tokens." target="_top">
<polygon fill="white" stroke="#1e90ff" points="487.5,-493444 344,-493444 344,-493425.5 487.5,-493425.5 487.5,-493444"/>
<text text-anchor="middle" x="415.75" y="-493430.5" font-family="Vera Sans, DejaVu Sans, Liberation Sans, Arial, Helvetica, sans" font-size="10.00">SpecificVHDLToken</text>
</a>
</g>
</g>
<!-- SpecificVHDLToken&#45;&gt;OperatorToken -->
<g id="edge2" class="edge">
<title>SpecificVHDLToken&#45;&gt;OperatorToken</title>
<path fill="none" stroke="black" stroke-width="0.5" d="M487.55,-493434.75C497.56,-493434.75 507.79,-493434.75 517.6,-493434.75"/>
<polygon fill="black" stroke="black" stroke-width="0.5" points="518.33,-493436.5 523.33,-493434.75 518.33,-493433 518.33,-493436.5"/>
</g>
<!-- VHDLToken -->
<g id="node5" class="node">
<title>VHDLToken</title>
<g id="a_node5"><a xlink:href="../pyVHDLParser.Token.html#pyVHDLParser.Token.VHDLToken" xlink:title="Base&#45;class for all VHDL specific tokens." target="_top">
<polygon fill="white" stroke="#1e90ff" points="308,-493444 224.5,-493444 224.5,-493425.5 308,-493425.5 308,-493444"/>
<text text-anchor="middle" x="266.25" y="-493430.5" font-family="Vera Sans, DejaVu Sans, Liberation Sans, Arial, Helvetica, sans" font-size="10.00">VHDLToken</text>
</a>
</g>
</g>
<!-- VHDLToken&#45;&gt;SpecificVHDLToken -->
<g id="edge4" class="edge">
<title>VHDLToken&#45;&gt;SpecificVHDLToken</title>
<path fill="none" stroke="black" stroke-width="0.5" d="M308.34,-493434.75C317.53,-493434.75 327.57,-493434.75 337.69,-493434.75"/>
<polygon fill="black" stroke="black" stroke-width="0.5" points="338.66,-493436.5 343.66,-493434.75 338.66,-493433 338.66,-493436.5"/>
</g>
<!-- Token -->
<g id="node6" class="node">
<title>Token</title>
<g id="a_node6"><a xlink:href="../pyVHDLParser.Token.html#pyVHDLParser.Token.Token" xlink:title="Base&#45;class for all token classes." target="_top">
<polygon fill="white" stroke="#1e90ff" points="54,-493444 0,-493444 0,-493425.5 54,-493425.5 54,-493444"/>
<text text-anchor="middle" x="27" y="-493430.5" font-family="Vera Sans, DejaVu Sans, Liberation Sans, Arial, Helvetica, sans" font-size="10.00">Token</text>
</a>
</g>
</g>
<!-- ValuedToken -->
<g id="node7" class="node">
<title>ValuedToken</title>
<g id="a_node7"><a xlink:href="../pyVHDLParser.Token.html#pyVHDLParser.Token.ValuedToken" xlink:title="Base&#45;class for all *valued* token." target="_top">
<polygon fill="white" stroke="#1e90ff" points="188.5,-493455.96 90,-493455.96 90,-493413.54 188.5,-493413.54 188.5,-493455.96"/>
<text text-anchor="middle" x="139.25" y="-493442.46" font-family="Vera Sans, DejaVu Sans, Liberation Sans, Arial, Helvetica, sans" font-size="10.00">ValuedToken</text>
</a>
</g>
</g>
<!-- Token&#45;&gt;ValuedToken -->
<g id="edge6" class="edge">
<title>Token&#45;&gt;ValuedToken</title>
<path fill="none" stroke="black" stroke-width="0.5" d="M54.41,-493434.75C63.25,-493434.75 73.45,-493434.75 83.64,-493434.75"/>
<polygon fill="black" stroke="black" stroke-width="0.5" points="84.62,-493436.5 89.62,-493434.75 84.62,-493433 84.62,-493436.5"/>
</g>
<!-- ValuedToken&#45;&gt;VHDLToken -->
<g id="edge5" class="edge">
<title>ValuedToken&#45;&gt;VHDLToken</title>
<path fill="none" stroke="black" stroke-width="0.5" d="M188.94,-493434.75C198.59,-493434.75 208.7,-493434.75 218.29,-493434.75"/>
<polygon fill="black" stroke="black" stroke-width="0.5" points="219.19,-493436.5 224.19,-493434.75 219.19,-493433 219.19,-493436.5"/>
</g>
</g>
</svg>
