<?xml version="1.0" encoding="UTF-8" standalone="no"?>
<!DOCTYPE svg PUBLIC "-//W3C//DTD SVG 1.1//EN"
 "http://www.w3.org/Graphics/SVG/1.1/DTD/svg11.dtd">
<!-- Generated by graphviz version 8.0.5 (20230430.1635)
 -->
<!-- Title: inheritance9ecbbb7768 Pages: 1 -->
<svg width="2pt" height="864pt"
 viewBox="0.00 0.00 1.69 864.00" xmlns="http://www.w3.org/2000/svg" xmlns:xlink="http://www.w3.org/1999/xlink">
<g id="graph0" class="graph" transform="scale(0.00278625 0.00278625) rotate(0) translate(4 310089.9)">
<title>inheritance9ecbbb7768</title>
<!-- EndToken -->
<g id="node1" class="node">
<title>EndToken</title>
<g id="a_node1"><a xlink:href="../pyVHDLParser/pyVHDLParser.Token.Keywords.html#pyVHDLParser.Token.Keywords.EndToken" xlink:title="Token representing an end of a statement." target="_top">
<polygon fill="white" stroke="#1e90ff" points="599.5,-155052.2 523.5,-155052.2 523.5,-155033.7 599.5,-155033.7 599.5,-155052.2"/>
<text text-anchor="middle" x="561.5" y="-155038.7" font-family="Vera Sans, DejaVu Sans, Liberation Sans, Arial, Helvetica, sans" font-size="10.00">EndToken</text>
</a>
</g>
</g>
<!-- SpecificVHDLToken -->
<g id="node2" class="node">
<title>SpecificVHDLToken</title>
<g id="a_node2"><a xlink:href="../pyVHDLParser/pyVHDLParser.Token.Keywords.html#pyVHDLParser.Token.Keywords.SpecificVHDLToken" xlink:title="Base&#45;class for all specific tokens." target="_top">
<polygon fill="white" stroke="#1e90ff" points="487.5,-155052.2 344,-155052.2 344,-155033.7 487.5,-155033.7 487.5,-155052.2"/>
<text text-anchor="middle" x="415.75" y="-155038.7" font-family="Vera Sans, DejaVu Sans, Liberation Sans, Arial, Helvetica, sans" font-size="10.00">SpecificVHDLToken</text>
</a>
</g>
</g>
<!-- SpecificVHDLToken&#45;&gt;EndToken -->
<g id="edge1" class="edge">
<title>SpecificVHDLToken&#45;&gt;EndToken</title>
<path fill="none" stroke="black" stroke-width="0.5" d="M487.78,-155042.95C497.98,-155042.95 508.19,-155042.95 517.61,-155042.95"/>
<polygon fill="black" stroke="black" stroke-width="0.5" points="518.36,-155044.7 523.36,-155042.95 518.36,-155041.2 518.36,-155044.7"/>
</g>
<!-- VHDLToken -->
<g id="node3" class="node">
<title>VHDLToken</title>
<g id="a_node3"><a xlink:href="../pyVHDLParser.Token.html#pyVHDLParser.Token.VHDLToken" xlink:title="Base&#45;class for all VHDL specific tokens." target="_top">
<polygon fill="white" stroke="#1e90ff" points="308,-310085.9 224.5,-310085.9 224.5,0 308,0 308,-310085.9"/>
<text text-anchor="middle" x="266.25" y="-310072.4" font-family="Vera Sans, DejaVu Sans, Liberation Sans, Arial, Helvetica, sans" font-size="10.00">VHDLToken</text>
</a>
</g>
</g>
<!-- VHDLToken&#45;&gt;SpecificVHDLToken -->
<g id="edge2" class="edge">
<title>VHDLToken&#45;&gt;SpecificVHDLToken</title>
<path fill="none" stroke="black" stroke-width="0.5" d="M308.34,-155042.95C317.53,-155042.95 327.57,-155042.95 337.69,-155042.95"/>
<polygon fill="black" stroke="black" stroke-width="0.5" points="338.66,-155044.7 343.66,-155042.95 338.66,-155041.2 338.66,-155044.7"/>
</g>
<!-- Token -->
<g id="node4" class="node">
<title>Token</title>
<g id="a_node4"><a xlink:href="../pyVHDLParser.Token.html#pyVHDLParser.Token.Token" xlink:title="Base&#45;class for all token classes." target="_top">
<polygon fill="white" stroke="#1e90ff" points="54,-310080.1 0,-310080.1 0,-5.8 54,-5.8 54,-310080.1"/>
<text text-anchor="middle" x="27" y="-310066.6" font-family="Vera Sans, DejaVu Sans, Liberation Sans, Arial, Helvetica, sans" font-size="10.00">Token</text>
</a>
</g>
</g>
<!-- ValuedToken -->
<g id="node5" class="node">
<title>ValuedToken</title>
<g id="a_node5"><a xlink:href="../pyVHDLParser.Token.html#pyVHDLParser.Token.ValuedToken" xlink:title="Base&#45;class for all *valued* token." target="_top">
<polygon fill="white" stroke="#1e90ff" points="188.5,-155052.2 90,-155052.2 90,-155033.7 188.5,-155033.7 188.5,-155052.2"/>
<text text-anchor="middle" x="139.25" y="-155038.7" font-family="Vera Sans, DejaVu Sans, Liberation Sans, Arial, Helvetica, sans" font-size="10.00">ValuedToken</text>
</a>
</g>
</g>
<!-- Token&#45;&gt;ValuedToken -->
<g id="edge4" class="edge">
<title>Token&#45;&gt;ValuedToken</title>
<path fill="none" stroke="black" stroke-width="0.5" d="M54.41,-155042.95C63.25,-155042.95 73.45,-155042.95 83.64,-155042.95"/>
<polygon fill="black" stroke="black" stroke-width="0.5" points="84.62,-155044.7 89.62,-155042.95 84.62,-155041.2 84.62,-155044.7"/>
</g>
<!-- ValuedToken&#45;&gt;VHDLToken -->
<g id="edge3" class="edge">
<title>ValuedToken&#45;&gt;VHDLToken</title>
<path fill="none" stroke="black" stroke-width="0.5" d="M188.94,-155042.95C198.59,-155042.95 208.7,-155042.95 218.29,-155042.95"/>
<polygon fill="black" stroke="black" stroke-width="0.5" points="219.19,-155044.7 224.19,-155042.95 219.19,-155041.2 219.19,-155044.7"/>
</g>
</g>
</svg>
