<?xml version="1.0" encoding="UTF-8" standalone="no"?>
<!DOCTYPE svg PUBLIC "-//W3C//DTD SVG 1.1//EN"
 "http://www.w3.org/Graphics/SVG/1.1/DTD/svg11.dtd">
<!-- Generated by graphviz version 8.0.5 (20230430.1635)
 -->
<!-- Title: inheritancea5b802e7c1 Pages: 1 -->
<svg width="1pt" height="864pt"
 viewBox="0.00 0.00 0.52 864.00" xmlns="http://www.w3.org/2000/svg" xmlns:xlink="http://www.w3.org/1999/xlink">
<g id="graph0" class="graph" transform="scale(0.00080739 0.00080739) rotate(0) translate(4 1070111.24)">
<title>inheritancea5b802e7c1</title>
<!-- LiteralToken -->
<g id="node1" class="node">
<title>LiteralToken</title>
<g id="a_node1"><a xlink:href="../pyVHDLParser/pyVHDLParser.Token.html#pyVHDLParser.Token.LiteralToken" xlink:title="Base&#45;class for all literals in VHDL." target="_top">
<polygon fill="white" stroke="#1e90ff" points="450,-535062.87 344,-535062.87 344,-535044.37 450,-535044.37 450,-535062.87"/>
<text text-anchor="middle" x="397" y="-535049.37" font-family="Vera Sans, DejaVu Sans, Liberation Sans, Arial, Helvetica, sans" font-size="10.00">LiteralToken</text>
</a>
</g>
</g>
<!-- StringLiteralToken -->
<g id="node3" class="node">
<title>StringLiteralToken</title>
<g id="a_node3"><a xlink:href="../pyVHDLParser/pyVHDLParser.Token.html#pyVHDLParser.Token.StringLiteralToken" xlink:title="Token representing a string literal in VHDL." target="_top">
<polygon fill="white" stroke="#1e90ff" points="637,-1070107.24 486,-1070107.24 486,0 637,0 637,-1070107.24"/>
<text text-anchor="middle" x="561.5" y="-1070093.74" font-family="Vera Sans, DejaVu Sans, Liberation Sans, Arial, Helvetica, sans" font-size="10.00">StringLiteralToken</text>
</a>
</g>
</g>
<!-- LiteralToken&#45;&gt;StringLiteralToken -->
<g id="edge2" class="edge">
<title>LiteralToken&#45;&gt;StringLiteralToken</title>
<path fill="none" stroke="black" stroke-width="0.5" d="M450.31,-535053.62C459.7,-535053.62 469.67,-535053.62 479.64,-535053.62"/>
<polygon fill="black" stroke="black" stroke-width="0.5" points="480.51,-535055.37 485.51,-535053.62 480.51,-535051.87 480.51,-535055.37"/>
</g>
<!-- VHDLToken -->
<g id="node2" class="node">
<title>VHDLToken</title>
<g id="a_node2"><a xlink:href="../pyVHDLParser/pyVHDLParser.Token.html#pyVHDLParser.Token.VHDLToken" xlink:title="Base&#45;class for all VHDL specific tokens." target="_top">
<polygon fill="white" stroke="#1e90ff" points="308,-535062.87 224.5,-535062.87 224.5,-535044.37 308,-535044.37 308,-535062.87"/>
<text text-anchor="middle" x="266.25" y="-535049.37" font-family="Vera Sans, DejaVu Sans, Liberation Sans, Arial, Helvetica, sans" font-size="10.00">VHDLToken</text>
</a>
</g>
</g>
<!-- VHDLToken&#45;&gt;LiteralToken -->
<g id="edge1" class="edge">
<title>VHDLToken&#45;&gt;LiteralToken</title>
<path fill="none" stroke="black" stroke-width="0.5" d="M308.34,-535053.62C317.69,-535053.62 327.8,-535053.62 337.71,-535053.62"/>
<polygon fill="black" stroke="black" stroke-width="0.5" points="338.52,-535055.37 343.52,-535053.62 338.52,-535051.87 338.52,-535055.37"/>
</g>
<!-- Token -->
<g id="node4" class="node">
<title>Token</title>
<g id="a_node4"><a xlink:href="../pyVHDLParser/pyVHDLParser.Token.html#pyVHDLParser.Token.Token" xlink:title="Base&#45;class for all token classes." target="_top">
<polygon fill="white" stroke="#1e90ff" points="54,-1070107.19 0,-1070107.19 0,-0.05 54,-0.05 54,-1070107.19"/>
<text text-anchor="middle" x="27" y="-1070093.69" font-family="Vera Sans, DejaVu Sans, Liberation Sans, Arial, Helvetica, sans" font-size="10.00">Token</text>
</a>
</g>
</g>
<!-- ValuedToken -->
<g id="node5" class="node">
<title>ValuedToken</title>
<g id="a_node5"><a xlink:href="../pyVHDLParser/pyVHDLParser.Token.html#pyVHDLParser.Token.ValuedToken" xlink:title="Base&#45;class for all *valued* token." target="_top">
<polygon fill="white" stroke="#1e90ff" points="188.5,-535062.87 90,-535062.87 90,-535044.37 188.5,-535044.37 188.5,-535062.87"/>
<text text-anchor="middle" x="139.25" y="-535049.37" font-family="Vera Sans, DejaVu Sans, Liberation Sans, Arial, Helvetica, sans" font-size="10.00">ValuedToken</text>
</a>
</g>
</g>
<!-- Token&#45;&gt;ValuedToken -->
<g id="edge4" class="edge">
<title>Token&#45;&gt;ValuedToken</title>
<path fill="none" stroke="black" stroke-width="0.5" d="M54.41,-535053.62C63.25,-535053.62 73.45,-535053.62 83.64,-535053.62"/>
<polygon fill="black" stroke="black" stroke-width="0.5" points="84.62,-535055.37 89.62,-535053.62 84.62,-535051.87 84.62,-535055.37"/>
</g>
<!-- ValuedToken&#45;&gt;VHDLToken -->
<g id="edge3" class="edge">
<title>ValuedToken&#45;&gt;VHDLToken</title>
<path fill="none" stroke="black" stroke-width="0.5" d="M188.94,-535053.62C198.59,-535053.62 208.7,-535053.62 218.29,-535053.62"/>
<polygon fill="black" stroke="black" stroke-width="0.5" points="219.19,-535055.37 224.19,-535053.62 219.19,-535051.87 219.19,-535055.37"/>
</g>
</g>
</svg>
