<?xml version="1.0" encoding="UTF-8" standalone="no"?>
<!DOCTYPE svg PUBLIC "-//W3C//DTD SVG 1.1//EN"
 "http://www.w3.org/Graphics/SVG/1.1/DTD/svg11.dtd">
<!-- Generated by graphviz version 8.0.5 (20230430.1635)
 -->
<!-- Title: inheritance4e0e4303f5 Pages: 1 -->
<svg width="2pt" height="864pt"
 viewBox="0.00 0.00 1.53 864.00" xmlns="http://www.w3.org/2000/svg" xmlns:xlink="http://www.w3.org/1999/xlink">
<g id="graph0" class="graph" transform="scale(0.00509123 0.00509123) rotate(0) translate(4 169699.69)">
<title>inheritance4e0e4303f5</title>
<!-- Block -->
<g id="node1" class="node">
<title>Block</title>
<g id="a_node1"><a xlink:href="../pyVHDLParser.Blocks.html#pyVHDLParser.Blocks.Block" xlink:title="Base&#45;class for all :term:`block` classes." target="_top">
<polygon fill="white" stroke="#1e90ff" points="54,-169695.69 0,-169695.69 0,0 54,0 54,-169695.69"/>
<text text-anchor="middle" x="27" y="-169682.19" font-family="Vera Sans, DejaVu Sans, Liberation Sans, Arial, Helvetica, sans" font-size="10.00">Block</text>
</a>
</g>
</g>
<!-- FinalBlock -->
<g id="node3" class="node">
<title>FinalBlock</title>
<g id="a_node3"><a xlink:href="../pyVHDLParser.Blocks.html#pyVHDLParser.Blocks.FinalBlock" xlink:title="Base&#45;class for blocks that are final in a fast&#45;forward scanning." target="_top">
<polygon fill="white" stroke="#1e90ff" points="181,-84857.09 90,-84857.09 90,-84838.59 181,-84838.59 181,-84857.09"/>
<text text-anchor="middle" x="135.5" y="-84843.59" font-family="Vera Sans, DejaVu Sans, Liberation Sans, Arial, Helvetica, sans" font-size="10.00">FinalBlock</text>
</a>
</g>
</g>
<!-- Block&#45;&gt;FinalBlock -->
<g id="edge2" class="edge">
<title>Block&#45;&gt;FinalBlock</title>
<path fill="none" stroke="black" stroke-width="0.5" d="M54.33,-84847.84C63.29,-84847.84 73.62,-84847.84 83.84,-84847.84"/>
<polygon fill="black" stroke="black" stroke-width="0.5" points="84.82,-84849.59 89.82,-84847.84 84.82,-84846.09 84.82,-84849.59"/>
</g>
<!-- EndBlock -->
<g id="node2" class="node">
<title>EndBlock</title>
<g id="a_node2"><a xlink:href="../pyVHDLParser/pyVHDLParser.Blocks.Instantiation.PackageInstantiation.html#pyVHDLParser.Blocks.Instantiation.PackageInstantiation.EndBlock" xlink:title="EndBlock" target="_top">
<polygon fill="white" stroke="#1e90ff" points="293,-84857.09 217,-84857.09 217,-84838.59 293,-84838.59 293,-84857.09"/>
<text text-anchor="middle" x="255" y="-84843.59" font-family="Vera Sans, DejaVu Sans, Liberation Sans, Arial, Helvetica, sans" font-size="10.00">EndBlock</text>
</a>
</g>
</g>
<!-- FinalBlock&#45;&gt;EndBlock -->
<g id="edge1" class="edge">
<title>FinalBlock&#45;&gt;EndBlock</title>
<path fill="none" stroke="black" stroke-width="0.5" d="M181.26,-84847.84C190.92,-84847.84 201.13,-84847.84 210.74,-84847.84"/>
<polygon fill="black" stroke="black" stroke-width="0.5" points="211.63,-84849.59 216.63,-84847.84 211.63,-84846.09 211.63,-84849.59"/>
</g>
</g>
</svg>
