<?xml version="1.0" encoding="UTF-8" standalone="no"?>
<!DOCTYPE svg PUBLIC "-//W3C//DTD SVG 1.1//EN"
 "http://www.w3.org/Graphics/SVG/1.1/DTD/svg11.dtd">
<!-- Generated by graphviz version 8.0.5 (20230430.1635)
 -->
<!-- Title: inheritance8fb946371b Pages: 1 -->
<svg width="1pt" height="864pt"
 viewBox="0.00 0.00 1.28 864.00" xmlns="http://www.w3.org/2000/svg" xmlns:xlink="http://www.w3.org/1999/xlink">
<g id="graph0" class="graph" transform="scale(0.00159608 0.00159608) rotate(0) translate(4 541320.74)">
<title>inheritance8fb946371b</title>
<!-- DivideOperator -->
<g id="node1" class="node">
<title>DivideOperator</title>
<g id="a_node1"><a xlink:href="../pyVHDLParser/pyVHDLParser.Token.Keywords.html#pyVHDLParser.Token.Keywords.DivideOperator" xlink:title="Token representing a divide operator: ``/``." target="_top">
<polygon fill="white" stroke="#1e90ff" points="794,-270667.62 673,-270667.62 673,-270649.12 794,-270649.12 794,-270667.62"/>
<text text-anchor="middle" x="733.5" y="-270654.12" font-family="Vera Sans, DejaVu Sans, Liberation Sans, Arial, Helvetica, sans" font-size="10.00">DivideOperator</text>
</a>
</g>
</g>
<!-- OperatorToken -->
<g id="node2" class="node">
<title>OperatorToken</title>
<g id="a_node2"><a xlink:href="../pyVHDLParser/pyVHDLParser.Token.Keywords.html#pyVHDLParser.Token.Keywords.OperatorToken" xlink:title="Base&#45;class for all operator tokens." target="_top">
<polygon fill="white" stroke="#1e90ff" points="637,-270667.62 523.5,-270667.62 523.5,-270649.12 637,-270649.12 637,-270667.62"/>
<text text-anchor="middle" x="580.25" y="-270654.12" font-family="Vera Sans, DejaVu Sans, Liberation Sans, Arial, Helvetica, sans" font-size="10.00">OperatorToken</text>
</a>
</g>
</g>
<!-- OperatorToken&#45;&gt;DivideOperator -->
<g id="edge1" class="edge">
<title>OperatorToken&#45;&gt;DivideOperator</title>
<path fill="none" stroke="black" stroke-width="0.5" d="M637.14,-270658.37C646.78,-270658.37 656.87,-270658.37 666.74,-270658.37"/>
<polygon fill="black" stroke="black" stroke-width="0.5" points="667.52,-270660.12 672.52,-270658.37 667.52,-270656.62 667.52,-270660.12"/>
</g>
<!-- SpecificVHDLToken -->
<g id="node3" class="node">
<title>SpecificVHDLToken</title>
<g id="a_node3"><a xlink:href="../pyVHDLParser/pyVHDLParser.Token.Keywords.html#pyVHDLParser.Token.Keywords.SpecificVHDLToken" xlink:title="Base&#45;class for all specific tokens." target="_top">
<polygon fill="white" stroke="#1e90ff" points="487.5,-541316.74 344,-541316.74 344,0 487.5,0 487.5,-541316.74"/>
<text text-anchor="middle" x="415.75" y="-541303.24" font-family="Vera Sans, DejaVu Sans, Liberation Sans, Arial, Helvetica, sans" font-size="10.00">SpecificVHDLToken</text>
</a>
</g>
</g>
<!-- SpecificVHDLToken&#45;&gt;OperatorToken -->
<g id="edge2" class="edge">
<title>SpecificVHDLToken&#45;&gt;OperatorToken</title>
<path fill="none" stroke="black" stroke-width="0.5" d="M487.55,-270658.37C497.56,-270658.37 507.79,-270658.37 517.6,-270658.37"/>
<polygon fill="black" stroke="black" stroke-width="0.5" points="518.33,-270660.12 523.33,-270658.37 518.33,-270656.62 518.33,-270660.12"/>
</g>
<!-- VHDLToken -->
<g id="node4" class="node">
<title>VHDLToken</title>
<g id="a_node4"><a xlink:href="../pyVHDLParser.Token.html#pyVHDLParser.Token.VHDLToken" xlink:title="Base&#45;class for all VHDL specific tokens." target="_top">
<polygon fill="white" stroke="#1e90ff" points="308,-270667.66 224.5,-270667.66 224.5,-270649.08 308,-270649.08 308,-270667.66"/>
<text text-anchor="middle" x="266.25" y="-270654.16" font-family="Vera Sans, DejaVu Sans, Liberation Sans, Arial, Helvetica, sans" font-size="10.00">VHDLToken</text>
</a>
</g>
</g>
<!-- VHDLToken&#45;&gt;SpecificVHDLToken -->
<g id="edge3" class="edge">
<title>VHDLToken&#45;&gt;SpecificVHDLToken</title>
<path fill="none" stroke="black" stroke-width="0.5" d="M308.34,-270658.37C317.53,-270658.37 327.57,-270658.37 337.69,-270658.37"/>
<polygon fill="black" stroke="black" stroke-width="0.5" points="338.66,-270660.12 343.66,-270658.37 338.66,-270656.62 338.66,-270660.12"/>
</g>
<!-- Token -->
<g id="node5" class="node">
<title>Token</title>
<g id="a_node5"><a xlink:href="../pyVHDLParser.Token.html#pyVHDLParser.Token.Token" xlink:title="Base&#45;class for all token classes." target="_top">
<polygon fill="white" stroke="#1e90ff" points="54,-270671.37 0,-270671.37 0,-270645.37 54,-270645.37 54,-270671.37"/>
<text text-anchor="middle" x="27" y="-270657.87" font-family="Vera Sans, DejaVu Sans, Liberation Sans, Arial, Helvetica, sans" font-size="10.00">Token</text>
</a>
</g>
</g>
<!-- ValuedToken -->
<g id="node6" class="node">
<title>ValuedToken</title>
<g id="a_node6"><a xlink:href="../pyVHDLParser.Token.html#pyVHDLParser.Token.ValuedToken" xlink:title="Base&#45;class for all *valued* token." target="_top">
<polygon fill="white" stroke="#1e90ff" points="188.5,-270667.62 90,-270667.62 90,-270649.12 188.5,-270649.12 188.5,-270667.62"/>
<text text-anchor="middle" x="139.25" y="-270654.12" font-family="Vera Sans, DejaVu Sans, Liberation Sans, Arial, Helvetica, sans" font-size="10.00">ValuedToken</text>
</a>
</g>
</g>
<!-- Token&#45;&gt;ValuedToken -->
<g id="edge5" class="edge">
<title>Token&#45;&gt;ValuedToken</title>
<path fill="none" stroke="black" stroke-width="0.5" d="M54.41,-270658.37C63.25,-270658.37 73.45,-270658.37 83.64,-270658.37"/>
<polygon fill="black" stroke="black" stroke-width="0.5" points="84.62,-270660.12 89.62,-270658.37 84.62,-270656.62 84.62,-270660.12"/>
</g>
<!-- ValuedToken&#45;&gt;VHDLToken -->
<g id="edge4" class="edge">
<title>ValuedToken&#45;&gt;VHDLToken</title>
<path fill="none" stroke="black" stroke-width="0.5" d="M188.94,-270658.37C198.59,-270658.37 208.7,-270658.37 218.29,-270658.37"/>
<polygon fill="black" stroke="black" stroke-width="0.5" points="219.19,-270660.12 224.19,-270658.37 219.19,-270656.62 219.19,-270660.12"/>
</g>
</g>
</svg>
