<?xml version="1.0" encoding="UTF-8" standalone="no"?>
<!DOCTYPE svg PUBLIC "-//W3C//DTD SVG 1.1//EN"
 "http://www.w3.org/Graphics/SVG/1.1/DTD/svg11.dtd">
<!-- Generated by graphviz version 8.0.5 (20230430.1635)
 -->
<!-- Title: inheritancef5e767ba7b Pages: 1 -->
<svg width="2pt" height="864pt"
 viewBox="0.00 0.00 2.21 864.00" xmlns="http://www.w3.org/2000/svg" xmlns:xlink="http://www.w3.org/1999/xlink">
<g id="graph0" class="graph" transform="scale(0.00439086 0.00439086) rotate(0) translate(4 196768.25)">
<title>inheritancef5e767ba7b</title>
<!-- ANTLRHandlers -->
<g id="node1" class="node">
<title>ANTLRHandlers</title>
<polygon fill="white" stroke="#1e90ff" points="338,-196764.25 224.5,-196764.25 224.5,-196745.75 338,-196745.75 338,-196764.25"/>
<text text-anchor="middle" x="281.25" y="-196750.75" font-family="Vera Sans, DejaVu Sans, Liberation Sans, Arial, Helvetica, sans" font-size="10.00">ANTLRHandlers</text>
</g>
<!-- Application -->
<g id="node2" class="node">
<title>Application</title>
<g id="a_node2"><a xlink:href="../pyVHDLParser/pyVHDLParser.CLI.VHDLParser.html#pyVHDLParser.CLI.VHDLParser.Application" xlink:title="Application" target="_top">
<polygon fill="white" stroke="#1e90ff" points="495,-159.25 396.5,-159.25 396.5,-140.75 495,-140.75 495,-159.25"/>
<text text-anchor="middle" x="445.75" y="-145.75" font-family="Vera Sans, DejaVu Sans, Liberation Sans, Arial, Helvetica, sans" font-size="10.00">Application</text>
</a>
</g>
</g>
<!-- ANTLRHandlers&#45;&gt;Application -->
<g id="edge7" class="edge">
<title>ANTLRHandlers&#45;&gt;Application</title>
<path fill="none" stroke="black" stroke-width="0.5" d="M338.26,-196755.49C346.82,-196753.03 354.71,-196748.83 360.5,-196742 360.5,-196742 443.89,-2158.94 444.74,-165.42"/>
<polygon fill="black" stroke="black" stroke-width="0.5" points="446.49,-164.55 444.75,-159.54 442.99,-164.54 446.49,-164.55"/>
</g>
<!-- LineTerminal -->
<g id="node3" class="node">
<title>LineTerminal</title>
<polygon fill="white" stroke="#1e90ff" points="334.25,-521190.33 228.25,-521190.33 228.25,258750.33 334.25,258750.33 334.25,-521190.33"/>
<text text-anchor="middle" x="281.25" y="-521176.83" font-family="Vera Sans, DejaVu Sans, Liberation Sans, Arial, Helvetica, sans" font-size="10.00">LineTerminal</text>
</g>
<!-- LineTerminal&#45;&gt;Application -->
<g id="edge1" class="edge">
<title>LineTerminal&#45;&gt;Application</title>
<path fill="none" stroke="black" stroke-width="0.5" d="M334.75,-88874.6C381.75,-50964.52 443.49,-1168.84 444.73,-165.41"/>
<polygon fill="black" stroke="black" stroke-width="0.5" points="446.48,-164.5 444.74,-159.49 442.98,-164.49 446.48,-164.5"/>
</g>
<!-- ArgParseMixin -->
<g id="node4" class="node">
<title>ArgParseMixin</title>
<g id="a_node4"><a xlink:title="Mixin&#45;class to implement an :mod:`argparse`&#45;base command line argument">
<polygon fill="white" stroke="#1e90ff" points="338,-455648.79 224.5,-455648.79 224.5,324278.79 338,324278.79 338,-455648.79"/>
<text text-anchor="middle" x="281.25" y="-455635.29" font-family="Vera Sans, DejaVu Sans, Liberation Sans, Arial, Helvetica, sans" font-size="10.00">ArgParseMixin</text>
</a>
</g>
</g>
<!-- ArgParseMixin&#45;&gt;Application -->
<g id="edge2" class="edge">
<title>ArgParseMixin&#45;&gt;Application</title>
<path fill="none" stroke="black" stroke-width="0.5" d="M338.5,-42999.99C384.77,-24340.36 443.02,-847.79 444.71,-165.23"/>
<polygon fill="black" stroke="black" stroke-width="0.5" points="446.46,-164.41 444.73,-159.4 442.96,-164.4 446.46,-164.41"/>
</g>
<!-- TokenStreamHandlers -->
<g id="node5" class="node">
<title>TokenStreamHandlers</title>
<polygon fill="white" stroke="#1e90ff" points="360.5,-159.25 202,-159.25 202,-140.75 360.5,-140.75 360.5,-159.25"/>
<text text-anchor="middle" x="281.25" y="-145.75" font-family="Vera Sans, DejaVu Sans, Liberation Sans, Arial, Helvetica, sans" font-size="10.00">TokenStreamHandlers</text>
</g>
<!-- TokenStreamHandlers&#45;&gt;Application -->
<g id="edge3" class="edge">
<title>TokenStreamHandlers&#45;&gt;Application</title>
<path fill="none" stroke="black" stroke-width="0.5" d="M360.64,-150C370.73,-150 380.87,-150 390.44,-150"/>
<polygon fill="black" stroke="black" stroke-width="0.5" points="391.33,-151.75 396.33,-150 391.33,-148.25 391.33,-151.75"/>
</g>
<!-- BlockStreamHandlers -->
<g id="node6" class="node">
<title>BlockStreamHandlers</title>
<polygon fill="white" stroke="#1e90ff" points="360.5,-122.25 202,-122.25 202,-103.75 360.5,-103.75 360.5,-122.25"/>
<text text-anchor="middle" x="281.25" y="-108.75" font-family="Vera Sans, DejaVu Sans, Liberation Sans, Arial, Helvetica, sans" font-size="10.00">BlockStreamHandlers</text>
</g>
<!-- BlockStreamHandlers&#45;&gt;Application -->
<g id="edge4" class="edge">
<title>BlockStreamHandlers&#45;&gt;Application</title>
<path fill="none" stroke="black" stroke-width="0.5" d="M324.94,-122.72C346.88,-127.72 373.69,-133.82 396.38,-138.99"/>
<polygon fill="black" stroke="black" stroke-width="0.5" points="396.79,-140.88 402.06,-140.28 397.57,-137.46 396.79,-140.88"/>
</g>
<!-- GroupStreamHandlers -->
<g id="node7" class="node">
<title>GroupStreamHandlers</title>
<polygon fill="white" stroke="#1e90ff" points="360.5,-86.23 202,-86.23 202,-43.77 360.5,-43.77 360.5,-86.23"/>
<text text-anchor="middle" x="281.25" y="-72.73" font-family="Vera Sans, DejaVu Sans, Liberation Sans, Arial, Helvetica, sans" font-size="10.00">GroupStreamHandlers</text>
</g>
<!-- GroupStreamHandlers&#45;&gt;Application -->
<g id="edge5" class="edge">
<title>GroupStreamHandlers&#45;&gt;Application</title>
<path fill="none" stroke="black" stroke-width="0.5" d="M342.63,-86.65C348.75,-89.29 354.8,-92.09 360.5,-95 384.61,-107.31 410.4,-124.87 427.01,-136.82"/>
<polygon fill="black" stroke="black" stroke-width="0.5" points="426.78,-138.81 431.85,-140.33 428.83,-135.98 426.78,-138.81"/>
</g>
<!-- CodeDOMHandlers -->
<g id="node8" class="node">
<title>CodeDOMHandlers</title>
<polygon fill="white" stroke="#1e90ff" points="345.5,-26 217,-26 217,0 345.5,0 345.5,-26"/>
<text text-anchor="middle" x="281.25" y="-12.5" font-family="Vera Sans, DejaVu Sans, Liberation Sans, Arial, Helvetica, sans" font-size="10.00">CodeDOMHandlers</text>
</g>
<!-- CodeDOMHandlers&#45;&gt;Application -->
<g id="edge6" class="edge">
<title>CodeDOMHandlers&#45;&gt;Application</title>
<path fill="none" stroke="black" stroke-width="0.5" d="M344.66,-26.34C350.25,-28.76 355.63,-31.62 360.5,-35 398.51,-61.35 425.92,-110.51 437.95,-135.14"/>
<polygon fill="black" stroke="black" stroke-width="0.5" points="436.68,-136.53 440.42,-140.28 439.83,-135.02 436.68,-136.53"/>
</g>
<!-- AttributeHelperMixin -->
<g id="node9" class="node">
<title>AttributeHelperMixin</title>
<g id="a_node9"><a xlink:title="A mixin class to ease finding methods with attached pyAttributes.">
<polygon fill="white" stroke="#1e90ff" points="166,-65694.25 0,-65694.25 0,-65675.75 166,-65675.75 166,-65694.25"/>
<text text-anchor="middle" x="83" y="-65680.75" font-family="Vera Sans, DejaVu Sans, Liberation Sans, Arial, Helvetica, sans" font-size="10.00">AttributeHelperMixin</text>
</a>
</g>
</g>
<!-- AttributeHelperMixin&#45;&gt;ArgParseMixin -->
<g id="edge8" class="edge">
<title>AttributeHelperMixin&#45;&gt;ArgParseMixin</title>
<path fill="none" stroke="black" stroke-width="0.5" d="M166.37,-65685C183.75,-65685 201.8,-65685 218.28,-65685"/>
<polygon fill="black" stroke="black" stroke-width="0.5" points="219.27,-65686.75 224.27,-65685 219.27,-65683.25 219.27,-65686.75"/>
</g>
<!-- ILineTerminal -->
<g id="node10" class="node">
<title>ILineTerminal</title>
<g id="a_node10"><a xlink:title="A mixin class (interface) to provide class&#45;local terminal writing methods.">
<polygon fill="white" stroke="#1e90ff" points="139.75,-196764.25 26.25,-196764.25 26.25,-196745.75 139.75,-196745.75 139.75,-196764.25"/>
<text text-anchor="middle" x="83" y="-196750.75" font-family="Vera Sans, DejaVu Sans, Liberation Sans, Arial, Helvetica, sans" font-size="10.00">ILineTerminal</text>
</a>
</g>
</g>
<!-- ILineTerminal&#45;&gt;LineTerminal -->
<g id="edge10" class="edge">
<title>ILineTerminal&#45;&gt;LineTerminal</title>
<path fill="none" stroke="black" stroke-width="0.5" d="M140.15,-196756.63C150.08,-196754.24 159.35,-196749.78 166,-196742 190.29,-196713.61 210.95,-189634.95 227.74,-180140.55"/>
<polygon fill="black" stroke="black" stroke-width="0.5" points="229.49,-180139.9 227.75,-180134.9 225.99,-180139.89 229.49,-180139.9"/>
</g>
<!-- Terminal -->
<g id="node11" class="node">
<title>Terminal</title>
<polygon fill="white" stroke="#1e90ff" points="121,-521184.11 45,-521184.11 45,258744.11 121,258744.11 121,-521184.11"/>
<text text-anchor="middle" x="83" y="-521170.61" font-family="Vera Sans, DejaVu Sans, Liberation Sans, Arial, Helvetica, sans" font-size="10.00">Terminal</text>
</g>
<!-- Terminal&#45;&gt;LineTerminal -->
<g id="edge9" class="edge">
<title>Terminal&#45;&gt;LineTerminal</title>
<path fill="none" stroke="black" stroke-width="0.5" d="M121.38,-131220C149.75,-131220 189.29,-131220 221.83,-131220"/>
<polygon fill="black" stroke="black" stroke-width="0.5" points="222.82,-131221.75 227.82,-131220 222.82,-131218.25 222.82,-131221.75"/>
</g>
</g>
</svg>
