<?xml version="1.0" encoding="UTF-8" standalone="no"?>
<!DOCTYPE svg PUBLIC "-//W3C//DTD SVG 1.1//EN"
 "http://www.w3.org/Graphics/SVG/1.1/DTD/svg11.dtd">
<!-- Generated by graphviz version 8.0.5 (20230430.1635)
 -->
<!-- Title: inheritancea01af75eeb Pages: 1 -->
<svg width="2pt" height="864pt"
 viewBox="0.00 0.00 1.60 864.00" xmlns="http://www.w3.org/2000/svg" xmlns:xlink="http://www.w3.org/1999/xlink">
<g id="graph0" class="graph" transform="scale(0.00192622 0.00192622) rotate(0) translate(4 448542.76)">
<title>inheritancea01af75eeb</title>
<!-- OperatorToken -->
<g id="node1" class="node">
<title>OperatorToken</title>
<g id="a_node1"><a xlink:href="../pyVHDLParser/pyVHDLParser.Token.Keywords.html#pyVHDLParser.Token.Keywords.OperatorToken" xlink:title="Base&#45;class for all operator tokens." target="_top">
<polygon fill="white" stroke="#1e90ff" points="637,-224278.63 523.5,-224278.63 523.5,-224260.13 637,-224260.13 637,-224278.63"/>
<text text-anchor="middle" x="580.25" y="-224265.13" font-family="Vera Sans, DejaVu Sans, Liberation Sans, Arial, Helvetica, sans" font-size="10.00">OperatorToken</text>
</a>
</g>
</g>
<!-- RelationalOperator -->
<g id="node3" class="node">
<title>RelationalOperator</title>
<g id="a_node3"><a xlink:href="../pyVHDLParser/pyVHDLParser.Token.Keywords.html#pyVHDLParser.Token.Keywords.RelationalOperator" xlink:title="Base&#45;class for all relational operator tokens." target="_top">
<polygon fill="white" stroke="#1e90ff" points="824,-448538.76 673,-448538.76 673,0 824,0 824,-448538.76"/>
<text text-anchor="middle" x="748.5" y="-448525.26" font-family="Vera Sans, DejaVu Sans, Liberation Sans, Arial, Helvetica, sans" font-size="10.00">RelationalOperator</text>
</a>
</g>
</g>
<!-- OperatorToken&#45;&gt;RelationalOperator -->
<g id="edge2" class="edge">
<title>OperatorToken&#45;&gt;RelationalOperator</title>
<path fill="none" stroke="black" stroke-width="0.5" d="M637.07,-224269.38C646.61,-224269.38 656.69,-224269.38 666.73,-224269.38"/>
<polygon fill="black" stroke="black" stroke-width="0.5" points="667.63,-224271.13 672.63,-224269.38 667.63,-224267.63 667.63,-224271.13"/>
</g>
<!-- SpecificVHDLToken -->
<g id="node2" class="node">
<title>SpecificVHDLToken</title>
<g id="a_node2"><a xlink:href="../pyVHDLParser/pyVHDLParser.Token.Keywords.html#pyVHDLParser.Token.Keywords.SpecificVHDLToken" xlink:title="Base&#45;class for all specific tokens." target="_top">
<polygon fill="white" stroke="#1e90ff" points="487.5,-224278.63 344,-224278.63 344,-224260.13 487.5,-224260.13 487.5,-224278.63"/>
<text text-anchor="middle" x="415.75" y="-224265.13" font-family="Vera Sans, DejaVu Sans, Liberation Sans, Arial, Helvetica, sans" font-size="10.00">SpecificVHDLToken</text>
</a>
</g>
</g>
<!-- SpecificVHDLToken&#45;&gt;OperatorToken -->
<g id="edge1" class="edge">
<title>SpecificVHDLToken&#45;&gt;OperatorToken</title>
<path fill="none" stroke="black" stroke-width="0.5" d="M487.55,-224269.38C497.56,-224269.38 507.79,-224269.38 517.6,-224269.38"/>
<polygon fill="black" stroke="black" stroke-width="0.5" points="518.33,-224271.13 523.33,-224269.38 518.33,-224267.63 518.33,-224271.13"/>
</g>
<!-- VHDLToken -->
<g id="node4" class="node">
<title>VHDLToken</title>
<g id="a_node4"><a xlink:href="../pyVHDLParser.Token.html#pyVHDLParser.Token.VHDLToken" xlink:title="Base&#45;class for all VHDL specific tokens." target="_top">
<polygon fill="white" stroke="#1e90ff" points="308,-224278.67 224.5,-224278.67 224.5,-224260.09 308,-224260.09 308,-224278.67"/>
<text text-anchor="middle" x="266.25" y="-224265.17" font-family="Vera Sans, DejaVu Sans, Liberation Sans, Arial, Helvetica, sans" font-size="10.00">VHDLToken</text>
</a>
</g>
</g>
<!-- VHDLToken&#45;&gt;SpecificVHDLToken -->
<g id="edge3" class="edge">
<title>VHDLToken&#45;&gt;SpecificVHDLToken</title>
<path fill="none" stroke="black" stroke-width="0.5" d="M308.34,-224269.38C317.53,-224269.38 327.57,-224269.38 337.69,-224269.38"/>
<polygon fill="black" stroke="black" stroke-width="0.5" points="338.66,-224271.13 343.66,-224269.38 338.66,-224267.63 338.66,-224271.13"/>
</g>
<!-- Token -->
<g id="node5" class="node">
<title>Token</title>
<g id="a_node5"><a xlink:href="../pyVHDLParser.Token.html#pyVHDLParser.Token.Token" xlink:title="Base&#45;class for all token classes." target="_top">
<polygon fill="white" stroke="#1e90ff" points="54,-224282.38 0,-224282.38 0,-224256.38 54,-224256.38 54,-224282.38"/>
<text text-anchor="middle" x="27" y="-224268.88" font-family="Vera Sans, DejaVu Sans, Liberation Sans, Arial, Helvetica, sans" font-size="10.00">Token</text>
</a>
</g>
</g>
<!-- ValuedToken -->
<g id="node6" class="node">
<title>ValuedToken</title>
<g id="a_node6"><a xlink:href="../pyVHDLParser.Token.html#pyVHDLParser.Token.ValuedToken" xlink:title="Base&#45;class for all *valued* token." target="_top">
<polygon fill="white" stroke="#1e90ff" points="188.5,-224278.63 90,-224278.63 90,-224260.13 188.5,-224260.13 188.5,-224278.63"/>
<text text-anchor="middle" x="139.25" y="-224265.13" font-family="Vera Sans, DejaVu Sans, Liberation Sans, Arial, Helvetica, sans" font-size="10.00">ValuedToken</text>
</a>
</g>
</g>
<!-- Token&#45;&gt;ValuedToken -->
<g id="edge5" class="edge">
<title>Token&#45;&gt;ValuedToken</title>
<path fill="none" stroke="black" stroke-width="0.5" d="M54.41,-224269.38C63.25,-224269.38 73.45,-224269.38 83.64,-224269.38"/>
<polygon fill="black" stroke="black" stroke-width="0.5" points="84.62,-224271.13 89.62,-224269.38 84.62,-224267.63 84.62,-224271.13"/>
</g>
<!-- ValuedToken&#45;&gt;VHDLToken -->
<g id="edge4" class="edge">
<title>ValuedToken&#45;&gt;VHDLToken</title>
<path fill="none" stroke="black" stroke-width="0.5" d="M188.94,-224269.38C198.59,-224269.38 208.7,-224269.38 218.29,-224269.38"/>
<polygon fill="black" stroke="black" stroke-width="0.5" points="219.19,-224271.13 224.19,-224269.38 219.19,-224267.63 219.19,-224271.13"/>
</g>
</g>
</svg>
