<?xml version="1.0" encoding="UTF-8" standalone="no"?>
<!DOCTYPE svg PUBLIC "-//W3C//DTD SVG 1.1//EN"
 "http://www.w3.org/Graphics/SVG/1.1/DTD/svg11.dtd">
<!-- Generated by graphviz version 8.0.5 (20230430.1635)
 -->
<!-- Title: inheritance1c2860595f Pages: 1 -->
<svg width="0pt" height="864pt"
 viewBox="0.00 0.00 0.36 864.00" xmlns="http://www.w3.org/2000/svg" xmlns:xlink="http://www.w3.org/1999/xlink">
<g id="graph0" class="graph" transform="scale(0.000602773 0.000602773) rotate(0) translate(4 1433371.41)">
<title>inheritance1c2860595f</title>
<!-- KeywordToken -->
<g id="node1" class="node">
<title>KeywordToken</title>
<g id="a_node1"><a xlink:href="../pyVHDLParser/pyVHDLParser.Token.Keywords.html#pyVHDLParser.Token.Keywords.KeywordToken" xlink:title="KeywordToken" target="_top">
<polygon fill="white" stroke="#1e90ff" points="450,-716692.95 344,-716692.95 344,-716674.45 450,-716674.45 450,-716692.95"/>
<text text-anchor="middle" x="397" y="-716679.45" font-family="Vera Sans, DejaVu Sans, Liberation Sans, Arial, Helvetica, sans" font-size="10.00">KeywordToken</text>
</a>
</g>
</g>
<!-- UntilKeyword -->
<g id="node4" class="node">
<title>UntilKeyword</title>
<g id="a_node4"><a xlink:href="../pyVHDLParser/pyVHDLParser.Token.Keywords.html#pyVHDLParser.Token.Keywords.UntilKeyword" xlink:title="UntilKeyword" target="_top">
<polygon fill="white" stroke="#1e90ff" points="592,-1433367.37 486,-1433367.37 486,-0.04 592,-0.04 592,-1433367.37"/>
<text text-anchor="middle" x="539" y="-1433353.87" font-family="Vera Sans, DejaVu Sans, Liberation Sans, Arial, Helvetica, sans" font-size="10.00">UntilKeyword</text>
</a>
</g>
</g>
<!-- KeywordToken&#45;&gt;UntilKeyword -->
<g id="edge2" class="edge">
<title>KeywordToken&#45;&gt;UntilKeyword</title>
<path fill="none" stroke="black" stroke-width="0.5" d="M450.13,-716683.7C459.88,-716683.7 470.12,-716683.7 480.03,-716683.7"/>
<polygon fill="black" stroke="black" stroke-width="0.5" points="480.83,-716685.45 485.83,-716683.7 480.83,-716681.95 480.83,-716685.45"/>
</g>
<!-- VHDLToken -->
<g id="node2" class="node">
<title>VHDLToken</title>
<g id="a_node2"><a xlink:href="../pyVHDLParser.Token.html#pyVHDLParser.Token.VHDLToken" xlink:title="Base&#45;class for all VHDL specific tokens." target="_top">
<polygon fill="white" stroke="#1e90ff" points="308,-716692.95 224.5,-716692.95 224.5,-716674.45 308,-716674.45 308,-716692.95"/>
<text text-anchor="middle" x="266.25" y="-716679.45" font-family="Vera Sans, DejaVu Sans, Liberation Sans, Arial, Helvetica, sans" font-size="10.00">VHDLToken</text>
</a>
</g>
</g>
<!-- VHDLToken&#45;&gt;KeywordToken -->
<g id="edge1" class="edge">
<title>VHDLToken&#45;&gt;KeywordToken</title>
<path fill="none" stroke="black" stroke-width="0.5" d="M308.34,-716683.7C317.69,-716683.7 327.8,-716683.7 337.71,-716683.7"/>
<polygon fill="black" stroke="black" stroke-width="0.5" points="338.52,-716685.45 343.52,-716683.7 338.52,-716681.95 338.52,-716685.45"/>
</g>
<!-- Token -->
<g id="node3" class="node">
<title>Token</title>
<g id="a_node3"><a xlink:href="../pyVHDLParser.Token.html#pyVHDLParser.Token.Token" xlink:title="Base&#45;class for all token classes." target="_top">
<polygon fill="white" stroke="#1e90ff" points="54,-1433367.41 0,-1433367.41 0,0 54,0 54,-1433367.41"/>
<text text-anchor="middle" x="27" y="-1433353.91" font-family="Vera Sans, DejaVu Sans, Liberation Sans, Arial, Helvetica, sans" font-size="10.00">Token</text>
</a>
</g>
</g>
<!-- ValuedToken -->
<g id="node5" class="node">
<title>ValuedToken</title>
<g id="a_node5"><a xlink:href="../pyVHDLParser.Token.html#pyVHDLParser.Token.ValuedToken" xlink:title="Base&#45;class for all *valued* token." target="_top">
<polygon fill="white" stroke="#1e90ff" points="188.5,-716692.95 90,-716692.95 90,-716674.45 188.5,-716674.45 188.5,-716692.95"/>
<text text-anchor="middle" x="139.25" y="-716679.45" font-family="Vera Sans, DejaVu Sans, Liberation Sans, Arial, Helvetica, sans" font-size="10.00">ValuedToken</text>
</a>
</g>
</g>
<!-- Token&#45;&gt;ValuedToken -->
<g id="edge4" class="edge">
<title>Token&#45;&gt;ValuedToken</title>
<path fill="none" stroke="black" stroke-width="0.5" d="M54.41,-716683.7C63.25,-716683.7 73.45,-716683.7 83.64,-716683.7"/>
<polygon fill="black" stroke="black" stroke-width="0.5" points="84.62,-716685.45 89.62,-716683.7 84.62,-716681.95 84.62,-716685.45"/>
</g>
<!-- ValuedToken&#45;&gt;VHDLToken -->
<g id="edge3" class="edge">
<title>ValuedToken&#45;&gt;VHDLToken</title>
<path fill="none" stroke="black" stroke-width="0.5" d="M188.94,-716683.7C198.59,-716683.7 208.7,-716683.7 218.29,-716683.7"/>
<polygon fill="black" stroke="black" stroke-width="0.5" points="219.19,-716685.45 224.19,-716683.7 219.19,-716681.95 219.19,-716685.45"/>
</g>
</g>
</svg>
