<?xml version="1.0" encoding="UTF-8" standalone="no"?>
<!DOCTYPE svg PUBLIC "-//W3C//DTD SVG 1.1//EN"
 "http://www.w3.org/Graphics/SVG/1.1/DTD/svg11.dtd">
<!-- Generated by graphviz version 8.0.5 (20230430.1635)
 -->
<!-- Title: inheritanceaa21bfb9dd Pages: 1 -->
<svg width="1pt" height="864pt"
 viewBox="0.00 0.00 0.66 864.00" xmlns="http://www.w3.org/2000/svg" xmlns:xlink="http://www.w3.org/1999/xlink">
<g id="graph0" class="graph" transform="scale(0.00077752 0.00077752) rotate(0) translate(4 1111221.15)">
<title>inheritanceaa21bfb9dd</title>
<!-- KeywordToken -->
<g id="node1" class="node">
<title>KeywordToken</title>
<g id="a_node1"><a xlink:href="../pyVHDLParser/pyVHDLParser.Token.Keywords.html#pyVHDLParser.Token.Keywords.KeywordToken" xlink:title="KeywordToken" target="_top">
<polygon fill="white" stroke="#1e90ff" points="450,-555617.83 344,-555617.83 344,-555599.33 450,-555599.33 450,-555617.83"/>
<text text-anchor="middle" x="397" y="-555604.33" font-family="Vera Sans, DejaVu Sans, Liberation Sans, Arial, Helvetica, sans" font-size="10.00">KeywordToken</text>
</a>
</g>
</g>
<!-- Operator -->
<g id="node3" class="node">
<title>Operator</title>
<g id="a_node3"><a xlink:href="../pyVHDLParser/pyVHDLParser.Token.Keywords.html#pyVHDLParser.Token.Keywords.Operator" xlink:title="Operator" target="_top">
<polygon fill="white" stroke="#1e90ff" points="562,-1111217.15 486,-1111217.15 486,0 562,0 562,-1111217.15"/>
<text text-anchor="middle" x="524" y="-1111203.65" font-family="Vera Sans, DejaVu Sans, Liberation Sans, Arial, Helvetica, sans" font-size="10.00">Operator</text>
</a>
</g>
</g>
<!-- KeywordToken&#45;&gt;Operator -->
<g id="edge2" class="edge">
<title>KeywordToken&#45;&gt;Operator</title>
<path fill="none" stroke="black" stroke-width="0.5" d="M450.29,-555608.58C460.15,-555608.58 470.36,-555608.58 479.9,-555608.58"/>
<polygon fill="black" stroke="black" stroke-width="0.5" points="480.74,-555610.33 485.74,-555608.58 480.74,-555606.83 480.74,-555610.33"/>
</g>
<!-- VHDLToken -->
<g id="node2" class="node">
<title>VHDLToken</title>
<g id="a_node2"><a xlink:href="../pyVHDLParser.Token.html#pyVHDLParser.Token.VHDLToken" xlink:title="Base&#45;class for all VHDL specific tokens." target="_top">
<polygon fill="white" stroke="#1e90ff" points="308,-1111217.11 224.5,-1111217.11 224.5,-0.05 308,-0.05 308,-1111217.11"/>
<text text-anchor="middle" x="266.25" y="-1111203.61" font-family="Vera Sans, DejaVu Sans, Liberation Sans, Arial, Helvetica, sans" font-size="10.00">VHDLToken</text>
</a>
</g>
</g>
<!-- VHDLToken&#45;&gt;KeywordToken -->
<g id="edge1" class="edge">
<title>VHDLToken&#45;&gt;KeywordToken</title>
<path fill="none" stroke="black" stroke-width="0.5" d="M308.34,-555608.58C317.69,-555608.58 327.8,-555608.58 337.71,-555608.58"/>
<polygon fill="black" stroke="black" stroke-width="0.5" points="338.52,-555610.33 343.52,-555608.58 338.52,-555606.83 338.52,-555610.33"/>
</g>
<!-- ShiftOperator -->
<g id="node4" class="node">
<title>ShiftOperator</title>
<g id="a_node4"><a xlink:href="../pyVHDLParser/pyVHDLParser.Token.Keywords.html#pyVHDLParser.Token.Keywords.ShiftOperator" xlink:title="ShiftOperator" target="_top">
<polygon fill="white" stroke="#1e90ff" points="711.5,-555617.83 598,-555617.83 598,-555599.33 711.5,-555599.33 711.5,-555617.83"/>
<text text-anchor="middle" x="654.75" y="-555604.33" font-family="Vera Sans, DejaVu Sans, Liberation Sans, Arial, Helvetica, sans" font-size="10.00">ShiftOperator</text>
</a>
</g>
</g>
<!-- Operator&#45;&gt;ShiftOperator -->
<g id="edge3" class="edge">
<title>Operator&#45;&gt;ShiftOperator</title>
<path fill="none" stroke="black" stroke-width="0.5" d="M562.24,-555608.58C571.55,-555608.58 581.79,-555608.58 591.95,-555608.58"/>
<polygon fill="black" stroke="black" stroke-width="0.5" points="592.91,-555610.33 597.91,-555608.58 592.91,-555606.83 592.91,-555610.33"/>
</g>
<!-- SlaOperator -->
<g id="node5" class="node">
<title>SlaOperator</title>
<g id="a_node5"><a xlink:href="../pyVHDLParser/pyVHDLParser.Token.Keywords.html#pyVHDLParser.Token.Keywords.SlaOperator" xlink:title="SlaOperator" target="_top">
<polygon fill="white" stroke="#1e90ff" points="846,-555617.83 747.5,-555617.83 747.5,-555599.33 846,-555599.33 846,-555617.83"/>
<text text-anchor="middle" x="796.75" y="-555604.33" font-family="Vera Sans, DejaVu Sans, Liberation Sans, Arial, Helvetica, sans" font-size="10.00">SlaOperator</text>
</a>
</g>
</g>
<!-- ShiftOperator&#45;&gt;SlaOperator -->
<g id="edge4" class="edge">
<title>ShiftOperator&#45;&gt;SlaOperator</title>
<path fill="none" stroke="black" stroke-width="0.5" d="M711.89,-555608.58C721.59,-555608.58 731.66,-555608.58 741.32,-555608.58"/>
<polygon fill="black" stroke="black" stroke-width="0.5" points="742.27,-555610.33 747.27,-555608.58 742.27,-555606.83 742.27,-555610.33"/>
</g>
<!-- Token -->
<g id="node6" class="node">
<title>Token</title>
<g id="a_node6"><a xlink:href="../pyVHDLParser.Token.html#pyVHDLParser.Token.Token" xlink:title="Base&#45;class for all token classes." target="_top">
<polygon fill="white" stroke="#1e90ff" points="54,-555617.83 0,-555617.83 0,-555599.33 54,-555599.33 54,-555617.83"/>
<text text-anchor="middle" x="27" y="-555604.33" font-family="Vera Sans, DejaVu Sans, Liberation Sans, Arial, Helvetica, sans" font-size="10.00">Token</text>
</a>
</g>
</g>
<!-- ValuedToken -->
<g id="node7" class="node">
<title>ValuedToken</title>
<g id="a_node7"><a xlink:href="../pyVHDLParser.Token.html#pyVHDLParser.Token.ValuedToken" xlink:title="Base&#45;class for all *valued* token." target="_top">
<polygon fill="white" stroke="#1e90ff" points="188.5,-555617.83 90,-555617.83 90,-555599.33 188.5,-555599.33 188.5,-555617.83"/>
<text text-anchor="middle" x="139.25" y="-555604.33" font-family="Vera Sans, DejaVu Sans, Liberation Sans, Arial, Helvetica, sans" font-size="10.00">ValuedToken</text>
</a>
</g>
</g>
<!-- Token&#45;&gt;ValuedToken -->
<g id="edge6" class="edge">
<title>Token&#45;&gt;ValuedToken</title>
<path fill="none" stroke="black" stroke-width="0.5" d="M54.41,-555608.58C63.25,-555608.58 73.45,-555608.58 83.64,-555608.58"/>
<polygon fill="black" stroke="black" stroke-width="0.5" points="84.62,-555610.33 89.62,-555608.58 84.62,-555606.83 84.62,-555610.33"/>
</g>
<!-- ValuedToken&#45;&gt;VHDLToken -->
<g id="edge5" class="edge">
<title>ValuedToken&#45;&gt;VHDLToken</title>
<path fill="none" stroke="black" stroke-width="0.5" d="M188.94,-555608.58C198.59,-555608.58 208.7,-555608.58 218.29,-555608.58"/>
<polygon fill="black" stroke="black" stroke-width="0.5" points="219.19,-555610.33 224.19,-555608.58 219.19,-555606.83 219.19,-555610.33"/>
</g>
</g>
</svg>
