<?xml version="1.0" encoding="UTF-8" standalone="no"?>
<!DOCTYPE svg PUBLIC "-//W3C//DTD SVG 1.1//EN"
 "http://www.w3.org/Graphics/SVG/1.1/DTD/svg11.dtd">
<!-- Generated by graphviz version 8.0.5 (20230430.1635)
 -->
<!-- Title: inheritance57fe81b8ef Pages: 1 -->
<svg width="1pt" height="864pt"
 viewBox="0.00 0.00 0.70 864.00" xmlns="http://www.w3.org/2000/svg" xmlns:xlink="http://www.w3.org/1999/xlink">
<g id="graph0" class="graph" transform="scale(0.00069399 0.00069399) rotate(0) translate(4 1244970.26)">
<title>inheritance57fe81b8ef</title>
<!-- LessThanOperator -->
<g id="node1" class="node">
<title>LessThanOperator</title>
<g id="a_node1"><a xlink:href="../pyVHDLParser/pyVHDLParser.Token.Keywords.html#pyVHDLParser.Token.Keywords.LessThanOperator" xlink:title="LessThanOperator" target="_top">
<polygon fill="white" stroke="#1e90ff" points="996,-622492.38 860,-622492.38 860,-622473.88 996,-622473.88 996,-622492.38"/>
<text text-anchor="middle" x="928" y="-622478.88" font-family="Vera Sans, DejaVu Sans, Liberation Sans, Arial, Helvetica, sans" font-size="10.00">LessThanOperator</text>
</a>
</g>
</g>
<!-- RelationalOperator -->
<g id="node2" class="node">
<title>RelationalOperator</title>
<g id="a_node2"><a xlink:href="../pyVHDLParser/pyVHDLParser.Token.Keywords.html#pyVHDLParser.Token.Keywords.RelationalOperator" xlink:title="Base&#45;class for all relational operator tokens." target="_top">
<polygon fill="white" stroke="#1e90ff" points="824,-1244966.26 673,-1244966.26 673,0 824,0 824,-1244966.26"/>
<text text-anchor="middle" x="748.5" y="-1244952.76" font-family="Vera Sans, DejaVu Sans, Liberation Sans, Arial, Helvetica, sans" font-size="10.00">RelationalOperator</text>
</a>
</g>
</g>
<!-- RelationalOperator&#45;&gt;LessThanOperator -->
<g id="edge1" class="edge">
<title>RelationalOperator&#45;&gt;LessThanOperator</title>
<path fill="none" stroke="black" stroke-width="0.5" d="M824.26,-622483.13C834.08,-622483.13 844.14,-622483.13 853.93,-622483.13"/>
<polygon fill="black" stroke="black" stroke-width="0.5" points="854.66,-622484.88 859.66,-622483.13 854.66,-622481.38 854.66,-622484.88"/>
</g>
<!-- OperatorToken -->
<g id="node3" class="node">
<title>OperatorToken</title>
<g id="a_node3"><a xlink:href="../pyVHDLParser/pyVHDLParser.Token.Keywords.html#pyVHDLParser.Token.Keywords.OperatorToken" xlink:title="Base&#45;class for all operator tokens." target="_top">
<polygon fill="white" stroke="#1e90ff" points="637,-1244962.31 523.5,-1244962.31 523.5,-3.94 637,-3.94 637,-1244962.31"/>
<text text-anchor="middle" x="580.25" y="-1244948.81" font-family="Vera Sans, DejaVu Sans, Liberation Sans, Arial, Helvetica, sans" font-size="10.00">OperatorToken</text>
</a>
</g>
</g>
<!-- OperatorToken&#45;&gt;RelationalOperator -->
<g id="edge3" class="edge">
<title>OperatorToken&#45;&gt;RelationalOperator</title>
<path fill="none" stroke="black" stroke-width="0.5" d="M637.07,-622483.13C646.61,-622483.13 656.69,-622483.13 666.73,-622483.13"/>
<polygon fill="black" stroke="black" stroke-width="0.5" points="667.63,-622484.88 672.63,-622483.13 667.63,-622481.38 667.63,-622484.88"/>
</g>
<!-- SpecificVHDLToken -->
<g id="node4" class="node">
<title>SpecificVHDLToken</title>
<g id="a_node4"><a xlink:href="../pyVHDLParser/pyVHDLParser.Token.Keywords.html#pyVHDLParser.Token.Keywords.SpecificVHDLToken" xlink:title="Base&#45;class for all specific tokens." target="_top">
<polygon fill="white" stroke="#1e90ff" points="487.5,-622492.38 344,-622492.38 344,-622473.88 487.5,-622473.88 487.5,-622492.38"/>
<text text-anchor="middle" x="415.75" y="-622478.88" font-family="Vera Sans, DejaVu Sans, Liberation Sans, Arial, Helvetica, sans" font-size="10.00">SpecificVHDLToken</text>
</a>
</g>
</g>
<!-- SpecificVHDLToken&#45;&gt;OperatorToken -->
<g id="edge2" class="edge">
<title>SpecificVHDLToken&#45;&gt;OperatorToken</title>
<path fill="none" stroke="black" stroke-width="0.5" d="M487.55,-622483.13C497.56,-622483.13 507.79,-622483.13 517.6,-622483.13"/>
<polygon fill="black" stroke="black" stroke-width="0.5" points="518.33,-622484.88 523.33,-622483.13 518.33,-622481.38 518.33,-622484.88"/>
</g>
<!-- VHDLToken -->
<g id="node5" class="node">
<title>VHDLToken</title>
<g id="a_node5"><a xlink:href="../pyVHDLParser.Token.html#pyVHDLParser.Token.VHDLToken" xlink:title="Base&#45;class for all VHDL specific tokens." target="_top">
<polygon fill="white" stroke="#1e90ff" points="308,-622492.38 224.5,-622492.38 224.5,-622473.88 308,-622473.88 308,-622492.38"/>
<text text-anchor="middle" x="266.25" y="-622478.88" font-family="Vera Sans, DejaVu Sans, Liberation Sans, Arial, Helvetica, sans" font-size="10.00">VHDLToken</text>
</a>
</g>
</g>
<!-- VHDLToken&#45;&gt;SpecificVHDLToken -->
<g id="edge4" class="edge">
<title>VHDLToken&#45;&gt;SpecificVHDLToken</title>
<path fill="none" stroke="black" stroke-width="0.5" d="M308.34,-622483.13C317.53,-622483.13 327.57,-622483.13 337.69,-622483.13"/>
<polygon fill="black" stroke="black" stroke-width="0.5" points="338.66,-622484.88 343.66,-622483.13 338.66,-622481.38 338.66,-622484.88"/>
</g>
<!-- Token -->
<g id="node6" class="node">
<title>Token</title>
<g id="a_node6"><a xlink:href="../pyVHDLParser.Token.html#pyVHDLParser.Token.Token" xlink:title="Base&#45;class for all token classes." target="_top">
<polygon fill="white" stroke="#1e90ff" points="54,-622492.38 0,-622492.38 0,-622473.88 54,-622473.88 54,-622492.38"/>
<text text-anchor="middle" x="27" y="-622478.88" font-family="Vera Sans, DejaVu Sans, Liberation Sans, Arial, Helvetica, sans" font-size="10.00">Token</text>
</a>
</g>
</g>
<!-- ValuedToken -->
<g id="node7" class="node">
<title>ValuedToken</title>
<g id="a_node7"><a xlink:href="../pyVHDLParser.Token.html#pyVHDLParser.Token.ValuedToken" xlink:title="Base&#45;class for all *valued* token." target="_top">
<polygon fill="white" stroke="#1e90ff" points="188.5,-622504.35 90,-622504.35 90,-622461.91 188.5,-622461.91 188.5,-622504.35"/>
<text text-anchor="middle" x="139.25" y="-622490.85" font-family="Vera Sans, DejaVu Sans, Liberation Sans, Arial, Helvetica, sans" font-size="10.00">ValuedToken</text>
</a>
</g>
</g>
<!-- Token&#45;&gt;ValuedToken -->
<g id="edge6" class="edge">
<title>Token&#45;&gt;ValuedToken</title>
<path fill="none" stroke="black" stroke-width="0.5" d="M54.41,-622483.13C63.25,-622483.13 73.45,-622483.13 83.64,-622483.13"/>
<polygon fill="black" stroke="black" stroke-width="0.5" points="84.62,-622484.88 89.62,-622483.13 84.62,-622481.38 84.62,-622484.88"/>
</g>
<!-- ValuedToken&#45;&gt;VHDLToken -->
<g id="edge5" class="edge">
<title>ValuedToken&#45;&gt;VHDLToken</title>
<path fill="none" stroke="black" stroke-width="0.5" d="M188.94,-622483.13C198.59,-622483.13 208.7,-622483.13 218.29,-622483.13"/>
<polygon fill="black" stroke="black" stroke-width="0.5" points="219.19,-622484.88 224.19,-622483.13 219.19,-622481.38 219.19,-622484.88"/>
</g>
</g>
</svg>
