<?xml version="1.0" encoding="UTF-8" standalone="no"?>
<!DOCTYPE svg PUBLIC "-//W3C//DTD SVG 1.1//EN"
 "http://www.w3.org/Graphics/SVG/1.1/DTD/svg11.dtd">
<!-- Generated by graphviz version 8.0.5 (20230430.1635)
 -->
<!-- Title: inheritance082620010a Pages: 1 -->
<svg width="0pt" height="864pt"
 viewBox="0.00 0.00 0.39 864.00" xmlns="http://www.w3.org/2000/svg" xmlns:xlink="http://www.w3.org/1999/xlink">
<g id="graph0" class="graph" transform="scale(0.000644688 0.000644688) rotate(0) translate(4 1340178.18)">
<title>inheritance082620010a</title>
<!-- KeywordToken -->
<g id="node1" class="node">
<title>KeywordToken</title>
<g id="a_node1"><a xlink:href="../pyVHDLParser/pyVHDLParser.Token.Keywords.html#pyVHDLParser.Token.Keywords.KeywordToken" xlink:title="KeywordToken" target="_top">
<polygon fill="white" stroke="#1e90ff" points="450,-670096.34 344,-670096.34 344,-670077.84 450,-670077.84 450,-670096.34"/>
<text text-anchor="middle" x="397" y="-670082.84" font-family="Vera Sans, DejaVu Sans, Liberation Sans, Arial, Helvetica, sans" font-size="10.00">KeywordToken</text>
</a>
</g>
</g>
<!-- ReportKeyword -->
<g id="node3" class="node">
<title>ReportKeyword</title>
<g id="a_node3"><a xlink:href="../pyVHDLParser/pyVHDLParser.Token.Keywords.html#pyVHDLParser.Token.Keywords.ReportKeyword" xlink:title="ReportKeyword" target="_top">
<polygon fill="white" stroke="#1e90ff" points="599.5,-1340174.13 486,-1340174.13 486,-0.05 599.5,-0.05 599.5,-1340174.13"/>
<text text-anchor="middle" x="542.75" y="-1340160.63" font-family="Vera Sans, DejaVu Sans, Liberation Sans, Arial, Helvetica, sans" font-size="10.00">ReportKeyword</text>
</a>
</g>
</g>
<!-- KeywordToken&#45;&gt;ReportKeyword -->
<g id="edge2" class="edge">
<title>KeywordToken&#45;&gt;ReportKeyword</title>
<path fill="none" stroke="black" stroke-width="0.5" d="M450.3,-670087.09C459.97,-670087.09 470.14,-670087.09 480.05,-670087.09"/>
<polygon fill="black" stroke="black" stroke-width="0.5" points="480.85,-670088.84 485.85,-670087.09 480.85,-670085.34 480.85,-670088.84"/>
</g>
<!-- VHDLToken -->
<g id="node2" class="node">
<title>VHDLToken</title>
<g id="a_node2"><a xlink:href="../pyVHDLParser.Token.html#pyVHDLParser.Token.VHDLToken" xlink:title="Base&#45;class for all VHDL specific tokens." target="_top">
<polygon fill="white" stroke="#1e90ff" points="308,-670096.34 224.5,-670096.34 224.5,-670077.84 308,-670077.84 308,-670096.34"/>
<text text-anchor="middle" x="266.25" y="-670082.84" font-family="Vera Sans, DejaVu Sans, Liberation Sans, Arial, Helvetica, sans" font-size="10.00">VHDLToken</text>
</a>
</g>
</g>
<!-- VHDLToken&#45;&gt;KeywordToken -->
<g id="edge1" class="edge">
<title>VHDLToken&#45;&gt;KeywordToken</title>
<path fill="none" stroke="black" stroke-width="0.5" d="M308.34,-670087.09C317.69,-670087.09 327.8,-670087.09 337.71,-670087.09"/>
<polygon fill="black" stroke="black" stroke-width="0.5" points="338.52,-670088.84 343.52,-670087.09 338.52,-670085.34 338.52,-670088.84"/>
</g>
<!-- Token -->
<g id="node4" class="node">
<title>Token</title>
<g id="a_node4"><a xlink:href="../pyVHDLParser.Token.html#pyVHDLParser.Token.Token" xlink:title="Base&#45;class for all token classes." target="_top">
<polygon fill="white" stroke="#1e90ff" points="54,-1340174.18 0,-1340174.18 0,0 54,0 54,-1340174.18"/>
<text text-anchor="middle" x="27" y="-1340160.68" font-family="Vera Sans, DejaVu Sans, Liberation Sans, Arial, Helvetica, sans" font-size="10.00">Token</text>
</a>
</g>
</g>
<!-- ValuedToken -->
<g id="node5" class="node">
<title>ValuedToken</title>
<g id="a_node5"><a xlink:href="../pyVHDLParser.Token.html#pyVHDLParser.Token.ValuedToken" xlink:title="Base&#45;class for all *valued* token." target="_top">
<polygon fill="white" stroke="#1e90ff" points="188.5,-670096.34 90,-670096.34 90,-670077.84 188.5,-670077.84 188.5,-670096.34"/>
<text text-anchor="middle" x="139.25" y="-670082.84" font-family="Vera Sans, DejaVu Sans, Liberation Sans, Arial, Helvetica, sans" font-size="10.00">ValuedToken</text>
</a>
</g>
</g>
<!-- Token&#45;&gt;ValuedToken -->
<g id="edge4" class="edge">
<title>Token&#45;&gt;ValuedToken</title>
<path fill="none" stroke="black" stroke-width="0.5" d="M54.41,-670087.09C63.25,-670087.09 73.45,-670087.09 83.64,-670087.09"/>
<polygon fill="black" stroke="black" stroke-width="0.5" points="84.62,-670088.84 89.62,-670087.09 84.62,-670085.34 84.62,-670088.84"/>
</g>
<!-- ValuedToken&#45;&gt;VHDLToken -->
<g id="edge3" class="edge">
<title>ValuedToken&#45;&gt;VHDLToken</title>
<path fill="none" stroke="black" stroke-width="0.5" d="M188.94,-670087.09C198.59,-670087.09 208.7,-670087.09 218.29,-670087.09"/>
<polygon fill="black" stroke="black" stroke-width="0.5" points="219.19,-670088.84 224.19,-670087.09 219.19,-670085.34 219.19,-670088.84"/>
</g>
</g>
</svg>
