<?xml version="1.0" encoding="UTF-8" standalone="no"?>
<!DOCTYPE svg PUBLIC "-//W3C//DTD SVG 1.1//EN"
 "http://www.w3.org/Graphics/SVG/1.1/DTD/svg11.dtd">
<!-- Generated by graphviz version 8.0.5 (20230430.1635)
 -->
<!-- Title: inheritance6ecc41ac36 Pages: 1 -->
<svg width="0pt" height="864pt"
 viewBox="0.00 0.00 0.48 864.00" xmlns="http://www.w3.org/2000/svg" xmlns:xlink="http://www.w3.org/1999/xlink">
<g id="graph0" class="graph" transform="scale(0.00101795 0.00101795) rotate(0) translate(4 848760.87)">
<title>inheritance6ecc41ac36</title>
<!-- Block -->
<g id="node1" class="node">
<title>Block</title>
<g id="a_node1"><a xlink:href="../pyVHDLParser.Blocks.html#pyVHDLParser.Blocks.Block" xlink:title="Base&#45;class for all :term:`block` classes." target="_top">
<polygon fill="white" stroke="#1e90ff" points="54,-424387.68 0,-424387.68 0,-424369.18 54,-424369.18 54,-424387.68"/>
<text text-anchor="middle" x="27" y="-424374.18" font-family="Vera Sans, DejaVu Sans, Liberation Sans, Arial, Helvetica, sans" font-size="10.00">Block</text>
</a>
</g>
</g>
<!-- FinalBlock -->
<g id="node3" class="node">
<title>FinalBlock</title>
<g id="a_node3"><a xlink:href="../pyVHDLParser.Blocks.html#pyVHDLParser.Blocks.FinalBlock" xlink:title="Base&#45;class for blocks that are final in a fast&#45;forward scanning." target="_top">
<polygon fill="white" stroke="#1e90ff" points="181,-424387.68 90,-424387.68 90,-424369.18 181,-424369.18 181,-424387.68"/>
<text text-anchor="middle" x="135.5" y="-424374.18" font-family="Vera Sans, DejaVu Sans, Liberation Sans, Arial, Helvetica, sans" font-size="10.00">FinalBlock</text>
</a>
</g>
</g>
<!-- Block&#45;&gt;FinalBlock -->
<g id="edge3" class="edge">
<title>Block&#45;&gt;FinalBlock</title>
<path fill="none" stroke="black" stroke-width="0.5" d="M54.33,-424378.43C63.29,-424378.43 73.62,-424378.43 83.84,-424378.43"/>
<polygon fill="black" stroke="black" stroke-width="0.5" points="84.82,-424380.18 89.82,-424378.43 84.82,-424376.68 84.82,-424380.18"/>
</g>
<!-- EndBlock -->
<g id="node2" class="node">
<title>EndBlock</title>
<g id="a_node2"><a xlink:href="../pyVHDLParser.Blocks.Generic1.html#pyVHDLParser.Blocks.Generic1.EndBlock" xlink:title="EndBlock" target="_top">
<polygon fill="white" stroke="#1e90ff" points="293,-848756.87 217,-848756.87 217,0 293,0 293,-848756.87"/>
<text text-anchor="middle" x="255" y="-848743.37" font-family="Vera Sans, DejaVu Sans, Liberation Sans, Arial, Helvetica, sans" font-size="10.00">EndBlock</text>
</a>
</g>
</g>
<!-- EndGenerateBlock -->
<g id="node4" class="node">
<title>EndGenerateBlock</title>
<g id="a_node4"><a xlink:href="../pyVHDLParser/pyVHDLParser.Blocks.Generate.html#pyVHDLParser.Blocks.Generate.EndGenerateBlock" xlink:title="EndGenerateBlock" target="_top">
<polygon fill="white" stroke="#1e90ff" points="465,-848681.7 329,-848681.7 329,-75.16 465,-75.16 465,-848681.7"/>
<text text-anchor="middle" x="397" y="-848668.2" font-family="Vera Sans, DejaVu Sans, Liberation Sans, Arial, Helvetica, sans" font-size="10.00">EndGenerateBlock</text>
</a>
</g>
</g>
<!-- EndBlock&#45;&gt;EndGenerateBlock -->
<g id="edge2" class="edge">
<title>EndBlock&#45;&gt;EndGenerateBlock</title>
<path fill="none" stroke="black" stroke-width="0.5" d="M293.15,-424378.43C302.38,-424378.43 312.59,-424378.43 322.89,-424378.43"/>
<polygon fill="black" stroke="black" stroke-width="0.5" points="323.62,-424380.18 328.62,-424378.43 323.62,-424376.68 323.62,-424380.18"/>
</g>
<!-- FinalBlock&#45;&gt;EndBlock -->
<g id="edge1" class="edge">
<title>FinalBlock&#45;&gt;EndBlock</title>
<path fill="none" stroke="black" stroke-width="0.5" d="M181.26,-424378.43C190.92,-424378.43 201.13,-424378.43 210.74,-424378.43"/>
<polygon fill="black" stroke="black" stroke-width="0.5" points="211.63,-424380.18 216.63,-424378.43 211.63,-424376.68 211.63,-424380.18"/>
</g>
</g>
</svg>
