<?xml version="1.0" encoding="UTF-8" standalone="no"?>
<!DOCTYPE svg PUBLIC "-//W3C//DTD SVG 1.1//EN"
 "http://www.w3.org/Graphics/SVG/1.1/DTD/svg11.dtd">
<!-- Generated by graphviz version 8.0.5 (20230430.1635)
 -->
<!-- Title: inheritanceda90ef410c Pages: 1 -->
<svg width="3pt" height="864pt"
 viewBox="0.00 0.00 2.65 864.00" xmlns="http://www.w3.org/2000/svg" xmlns:xlink="http://www.w3.org/1999/xlink">
<g id="graph0" class="graph" transform="scale(0.00330935 0.00330935) rotate(0) translate(4 261074.36)">
<title>inheritanceda90ef410c</title>
<!-- ModuloOperator -->
<g id="node1" class="node">
<title>ModuloOperator</title>
<g id="a_node1"><a xlink:href="../pyVHDLParser/pyVHDLParser.Token.Keywords.html#pyVHDLParser.Token.Keywords.ModuloOperator" xlink:title="ModuloOperator" target="_top">
<polygon fill="white" stroke="#1e90ff" points="794,-130544.43 673,-130544.43 673,-130525.93 794,-130525.93 794,-130544.43"/>
<text text-anchor="middle" x="733.5" y="-130530.93" font-family="Vera Sans, DejaVu Sans, Liberation Sans, Arial, Helvetica, sans" font-size="10.00">ModuloOperator</text>
</a>
</g>
</g>
<!-- OperatorToken -->
<g id="node2" class="node">
<title>OperatorToken</title>
<g id="a_node2"><a xlink:href="../pyVHDLParser/pyVHDLParser.Token.Keywords.html#pyVHDLParser.Token.Keywords.OperatorToken" xlink:title="Base&#45;class for all operator tokens." target="_top">
<polygon fill="white" stroke="#1e90ff" points="637,-130544.43 523.5,-130544.43 523.5,-130525.93 637,-130525.93 637,-130544.43"/>
<text text-anchor="middle" x="580.25" y="-130530.93" font-family="Vera Sans, DejaVu Sans, Liberation Sans, Arial, Helvetica, sans" font-size="10.00">OperatorToken</text>
</a>
</g>
</g>
<!-- OperatorToken&#45;&gt;ModuloOperator -->
<g id="edge1" class="edge">
<title>OperatorToken&#45;&gt;ModuloOperator</title>
<path fill="none" stroke="black" stroke-width="0.5" d="M637.14,-130535.18C646.78,-130535.18 656.87,-130535.18 666.74,-130535.18"/>
<polygon fill="black" stroke="black" stroke-width="0.5" points="667.52,-130536.93 672.52,-130535.18 667.52,-130533.43 667.52,-130536.93"/>
</g>
<!-- SpecificVHDLToken -->
<g id="node3" class="node">
<title>SpecificVHDLToken</title>
<g id="a_node3"><a xlink:href="../pyVHDLParser/pyVHDLParser.Token.Keywords.html#pyVHDLParser.Token.Keywords.SpecificVHDLToken" xlink:title="Base&#45;class for all specific tokens." target="_top">
<polygon fill="white" stroke="#1e90ff" points="487.5,-261070.36 344,-261070.36 344,0 487.5,0 487.5,-261070.36"/>
<text text-anchor="middle" x="415.75" y="-261056.86" font-family="Vera Sans, DejaVu Sans, Liberation Sans, Arial, Helvetica, sans" font-size="10.00">SpecificVHDLToken</text>
</a>
</g>
</g>
<!-- SpecificVHDLToken&#45;&gt;OperatorToken -->
<g id="edge2" class="edge">
<title>SpecificVHDLToken&#45;&gt;OperatorToken</title>
<path fill="none" stroke="black" stroke-width="0.5" d="M487.55,-130535.18C497.56,-130535.18 507.79,-130535.18 517.6,-130535.18"/>
<polygon fill="black" stroke="black" stroke-width="0.5" points="518.33,-130536.93 523.33,-130535.18 518.33,-130533.43 518.33,-130536.93"/>
</g>
<!-- VHDLToken -->
<g id="node4" class="node">
<title>VHDLToken</title>
<g id="a_node4"><a xlink:href="../pyVHDLParser.Token.html#pyVHDLParser.Token.VHDLToken" xlink:title="Base&#45;class for all VHDL specific tokens." target="_top">
<polygon fill="white" stroke="#1e90ff" points="308,-130544.46 224.5,-130544.46 224.5,-130525.89 308,-130525.89 308,-130544.46"/>
<text text-anchor="middle" x="266.25" y="-130530.96" font-family="Vera Sans, DejaVu Sans, Liberation Sans, Arial, Helvetica, sans" font-size="10.00">VHDLToken</text>
</a>
</g>
</g>
<!-- VHDLToken&#45;&gt;SpecificVHDLToken -->
<g id="edge3" class="edge">
<title>VHDLToken&#45;&gt;SpecificVHDLToken</title>
<path fill="none" stroke="black" stroke-width="0.5" d="M308.34,-130535.18C317.53,-130535.18 327.57,-130535.18 337.69,-130535.18"/>
<polygon fill="black" stroke="black" stroke-width="0.5" points="338.66,-130536.93 343.66,-130535.18 338.66,-130533.43 338.66,-130536.93"/>
</g>
<!-- Token -->
<g id="node5" class="node">
<title>Token</title>
<g id="a_node5"><a xlink:href="../pyVHDLParser.Token.html#pyVHDLParser.Token.Token" xlink:title="Base&#45;class for all token classes." target="_top">
<polygon fill="white" stroke="#1e90ff" points="54,-130548.18 0,-130548.18 0,-130522.18 54,-130522.18 54,-130548.18"/>
<text text-anchor="middle" x="27" y="-130534.68" font-family="Vera Sans, DejaVu Sans, Liberation Sans, Arial, Helvetica, sans" font-size="10.00">Token</text>
</a>
</g>
</g>
<!-- ValuedToken -->
<g id="node6" class="node">
<title>ValuedToken</title>
<g id="a_node6"><a xlink:href="../pyVHDLParser.Token.html#pyVHDLParser.Token.ValuedToken" xlink:title="Base&#45;class for all *valued* token." target="_top">
<polygon fill="white" stroke="#1e90ff" points="188.5,-130544.43 90,-130544.43 90,-130525.93 188.5,-130525.93 188.5,-130544.43"/>
<text text-anchor="middle" x="139.25" y="-130530.93" font-family="Vera Sans, DejaVu Sans, Liberation Sans, Arial, Helvetica, sans" font-size="10.00">ValuedToken</text>
</a>
</g>
</g>
<!-- Token&#45;&gt;ValuedToken -->
<g id="edge5" class="edge">
<title>Token&#45;&gt;ValuedToken</title>
<path fill="none" stroke="black" stroke-width="0.5" d="M54.41,-130535.18C63.25,-130535.18 73.45,-130535.18 83.64,-130535.18"/>
<polygon fill="black" stroke="black" stroke-width="0.5" points="84.62,-130536.93 89.62,-130535.18 84.62,-130533.43 84.62,-130536.93"/>
</g>
<!-- ValuedToken&#45;&gt;VHDLToken -->
<g id="edge4" class="edge">
<title>ValuedToken&#45;&gt;VHDLToken</title>
<path fill="none" stroke="black" stroke-width="0.5" d="M188.94,-130535.18C198.59,-130535.18 208.7,-130535.18 218.29,-130535.18"/>
<polygon fill="black" stroke="black" stroke-width="0.5" points="219.19,-130536.93 224.19,-130535.18 219.19,-130533.43 219.19,-130536.93"/>
</g>
</g>
</svg>
