<?xml version="1.0" encoding="UTF-8" standalone="no"?>
<!DOCTYPE svg PUBLIC "-//W3C//DTD SVG 1.1//EN"
 "http://www.w3.org/Graphics/SVG/1.1/DTD/svg11.dtd">
<!-- Generated by graphviz version 8.0.5 (20230430.1635)
 -->
<!-- Title: inheritance3c00de65e5 Pages: 1 -->
<svg width="1pt" height="864pt"
 viewBox="0.00 0.00 1.34 864.00" xmlns="http://www.w3.org/2000/svg" xmlns:xlink="http://www.w3.org/1999/xlink">
<g id="graph0" class="graph" transform="scale(0.0021489 0.0021489) rotate(0) translate(4 402061.42)">
<title>inheritance3c00de65e5</title>
<!-- GenerateKeyword -->
<g id="node1" class="node">
<title>GenerateKeyword</title>
<g id="a_node1"><a xlink:href="../pyVHDLParser/pyVHDLParser.Token.Keywords.html#pyVHDLParser.Token.Keywords.GenerateKeyword" xlink:title="GenerateKeyword" target="_top">
<polygon fill="white" stroke="#1e90ff" points="614.5,-201037.96 486,-201037.96 486,-201019.46 614.5,-201019.46 614.5,-201037.96"/>
<text text-anchor="middle" x="550.25" y="-201024.46" font-family="Vera Sans, DejaVu Sans, Liberation Sans, Arial, Helvetica, sans" font-size="10.00">GenerateKeyword</text>
</a>
</g>
</g>
<!-- KeywordToken -->
<g id="node2" class="node">
<title>KeywordToken</title>
<g id="a_node2"><a xlink:href="../pyVHDLParser/pyVHDLParser.Token.Keywords.html#pyVHDLParser.Token.Keywords.KeywordToken" xlink:title="KeywordToken" target="_top">
<polygon fill="white" stroke="#1e90ff" points="450,-201037.96 344,-201037.96 344,-201019.46 450,-201019.46 450,-201037.96"/>
<text text-anchor="middle" x="397" y="-201024.46" font-family="Vera Sans, DejaVu Sans, Liberation Sans, Arial, Helvetica, sans" font-size="10.00">KeywordToken</text>
</a>
</g>
</g>
<!-- KeywordToken&#45;&gt;GenerateKeyword -->
<g id="edge1" class="edge">
<title>KeywordToken&#45;&gt;GenerateKeyword</title>
<path fill="none" stroke="black" stroke-width="0.5" d="M450.48,-201028.71C459.96,-201028.71 469.99,-201028.71 479.87,-201028.71"/>
<polygon fill="black" stroke="black" stroke-width="0.5" points="480.66,-201030.46 485.66,-201028.71 480.66,-201026.96 480.66,-201030.46"/>
</g>
<!-- VHDLToken -->
<g id="node3" class="node">
<title>VHDLToken</title>
<g id="a_node3"><a xlink:href="../pyVHDLParser.Token.html#pyVHDLParser.Token.VHDLToken" xlink:title="Base&#45;class for all VHDL specific tokens." target="_top">
<polygon fill="white" stroke="#1e90ff" points="308,-402057.42 224.5,-402057.42 224.5,0 308,0 308,-402057.42"/>
<text text-anchor="middle" x="266.25" y="-402043.92" font-family="Vera Sans, DejaVu Sans, Liberation Sans, Arial, Helvetica, sans" font-size="10.00">VHDLToken</text>
</a>
</g>
</g>
<!-- VHDLToken&#45;&gt;KeywordToken -->
<g id="edge2" class="edge">
<title>VHDLToken&#45;&gt;KeywordToken</title>
<path fill="none" stroke="black" stroke-width="0.5" d="M308.34,-201028.71C317.69,-201028.71 327.8,-201028.71 337.71,-201028.71"/>
<polygon fill="black" stroke="black" stroke-width="0.5" points="338.52,-201030.46 343.52,-201028.71 338.52,-201026.96 338.52,-201030.46"/>
</g>
<!-- Token -->
<g id="node4" class="node">
<title>Token</title>
<g id="a_node4"><a xlink:href="../pyVHDLParser.Token.html#pyVHDLParser.Token.Token" xlink:title="Base&#45;class for all token classes." target="_top">
<polygon fill="white" stroke="#1e90ff" points="54,-402057.37 0,-402057.37 0,-0.05 54,-0.05 54,-402057.37"/>
<text text-anchor="middle" x="27" y="-402043.87" font-family="Vera Sans, DejaVu Sans, Liberation Sans, Arial, Helvetica, sans" font-size="10.00">Token</text>
</a>
</g>
</g>
<!-- ValuedToken -->
<g id="node5" class="node">
<title>ValuedToken</title>
<g id="a_node5"><a xlink:href="../pyVHDLParser.Token.html#pyVHDLParser.Token.ValuedToken" xlink:title="Base&#45;class for all *valued* token." target="_top">
<polygon fill="white" stroke="#1e90ff" points="188.5,-201037.96 90,-201037.96 90,-201019.46 188.5,-201019.46 188.5,-201037.96"/>
<text text-anchor="middle" x="139.25" y="-201024.46" font-family="Vera Sans, DejaVu Sans, Liberation Sans, Arial, Helvetica, sans" font-size="10.00">ValuedToken</text>
</a>
</g>
</g>
<!-- Token&#45;&gt;ValuedToken -->
<g id="edge4" class="edge">
<title>Token&#45;&gt;ValuedToken</title>
<path fill="none" stroke="black" stroke-width="0.5" d="M54.41,-201028.71C63.25,-201028.71 73.45,-201028.71 83.64,-201028.71"/>
<polygon fill="black" stroke="black" stroke-width="0.5" points="84.62,-201030.46 89.62,-201028.71 84.62,-201026.96 84.62,-201030.46"/>
</g>
<!-- ValuedToken&#45;&gt;VHDLToken -->
<g id="edge3" class="edge">
<title>ValuedToken&#45;&gt;VHDLToken</title>
<path fill="none" stroke="black" stroke-width="0.5" d="M188.94,-201028.71C198.59,-201028.71 208.7,-201028.71 218.29,-201028.71"/>
<polygon fill="black" stroke="black" stroke-width="0.5" points="219.19,-201030.46 224.19,-201028.71 219.19,-201026.96 219.19,-201030.46"/>
</g>
</g>
</svg>
