<?xml version="1.0" encoding="UTF-8" standalone="no"?>
<!DOCTYPE svg PUBLIC "-//W3C//DTD SVG 1.1//EN"
 "http://www.w3.org/Graphics/SVG/1.1/DTD/svg11.dtd">
<!-- Generated by graphviz version 8.0.5 (20230430.1635)
 -->
<!-- Title: inheritance4e0e4303f5 Pages: 1 -->
<svg width="0pt" height="864pt"
 viewBox="0.00 0.00 0.35 864.00" xmlns="http://www.w3.org/2000/svg" xmlns:xlink="http://www.w3.org/1999/xlink">
<g id="graph0" class="graph" transform="scale(0.000936718 0.000936718) rotate(0) translate(4 922365.81)">
<title>inheritance4e0e4303f5</title>
<!-- Block -->
<g id="node1" class="node">
<title>Block</title>
<g id="a_node1"><a xlink:href="../pyVHDLParser.Blocks.html#pyVHDLParser.Blocks.Block" xlink:title="Base&#45;class for all :term:`block` classes." target="_top">
<polygon fill="white" stroke="#1e90ff" points="54,-922359.22 0,-922359.22 0,-2.58 54,-2.58 54,-922359.22"/>
<text text-anchor="middle" x="27" y="-922345.72" font-family="Vera Sans, DejaVu Sans, Liberation Sans, Arial, Helvetica, sans" font-size="10.00">Block</text>
</a>
</g>
</g>
<!-- EndOfStatementBlock -->
<g id="node3" class="node">
<title>EndOfStatementBlock</title>
<g id="a_node3"><a xlink:href="../pyVHDLParser.Blocks.Generic1.html#pyVHDLParser.Blocks.Generic1.EndOfStatementBlock" xlink:title="EndOfStatementBlock" target="_top">
<polygon fill="white" stroke="#1e90ff" points="248.5,-922361.81 90,-922361.81 90,0 248.5,0 248.5,-922361.81"/>
<text text-anchor="middle" x="169.25" y="-922348.31" font-family="Vera Sans, DejaVu Sans, Liberation Sans, Arial, Helvetica, sans" font-size="10.00">EndOfStatementBlock</text>
</a>
</g>
</g>
<!-- Block&#45;&gt;EndOfStatementBlock -->
<g id="edge2" class="edge">
<title>Block&#45;&gt;EndOfStatementBlock</title>
<path fill="none" stroke="black" stroke-width="0.5" d="M54.38,-461180.9C63.02,-461180.9 73.13,-461180.9 83.7,-461180.9"/>
<polygon fill="black" stroke="black" stroke-width="0.5" points="84.61,-461182.65 89.61,-461180.9 84.61,-461179.15 84.61,-461182.65"/>
</g>
<!-- EndBlock -->
<g id="node2" class="node">
<title>EndBlock</title>
<g id="a_node2"><a xlink:href="../pyVHDLParser/pyVHDLParser.Blocks.ControlStructure.Return.html#pyVHDLParser.Blocks.ControlStructure.Return.EndBlock" xlink:title="EndBlock" target="_top">
<polygon fill="white" stroke="#1e90ff" points="360.5,-461190.15 284.5,-461190.15 284.5,-461171.65 360.5,-461171.65 360.5,-461190.15"/>
<text text-anchor="middle" x="322.5" y="-461176.65" font-family="Vera Sans, DejaVu Sans, Liberation Sans, Arial, Helvetica, sans" font-size="10.00">EndBlock</text>
</a>
</g>
</g>
<!-- EndOfStatementBlock&#45;&gt;EndBlock -->
<g id="edge1" class="edge">
<title>EndOfStatementBlock&#45;&gt;EndBlock</title>
<path fill="none" stroke="black" stroke-width="0.5" d="M248.98,-461180.9C259.1,-461180.9 269.16,-461180.9 278.41,-461180.9"/>
<polygon fill="black" stroke="black" stroke-width="0.5" points="279.36,-461182.65 284.36,-461180.9 279.36,-461179.15 279.36,-461182.65"/>
</g>
</g>
</svg>
