<?xml version="1.0" encoding="UTF-8" standalone="no"?>
<!DOCTYPE svg PUBLIC "-//W3C//DTD SVG 1.1//EN"
 "http://www.w3.org/Graphics/SVG/1.1/DTD/svg11.dtd">
<!-- Generated by graphviz version 8.0.5 (20230430.1635)
 -->
<!-- Title: inheritancee388f23632 Pages: 1 -->
<svg width="0pt" height="864pt"
 viewBox="0.00 0.00 0.41 864.00" xmlns="http://www.w3.org/2000/svg" xmlns:xlink="http://www.w3.org/1999/xlink">
<g id="graph0" class="graph" transform="scale(0.00055965 0.00055965) rotate(0) translate(4 1543816.7)">
<title>inheritancee388f23632</title>
<!-- Block -->
<g id="node1" class="node">
<title>Block</title>
<g id="a_node1"><a xlink:href="../pyVHDLParser.Blocks.html#pyVHDLParser.Blocks.Block" xlink:title="Base&#45;class for all :term:`block` classes." target="_top">
<polygon fill="white" stroke="#1e90ff" points="54,-771915.6 0,-771915.6 0,-771897.1 54,-771897.1 54,-771915.6"/>
<text text-anchor="middle" x="27" y="-771902.1" font-family="Vera Sans, DejaVu Sans, Liberation Sans, Arial, Helvetica, sans" font-size="10.00">Block</text>
</a>
</g>
</g>
<!-- InterfaceObjectBlock -->
<g id="node2" class="node">
<title>InterfaceObjectBlock</title>
<g id="a_node2"><a xlink:href="../pyVHDLParser.Blocks.InterfaceObject.html#pyVHDLParser.Blocks.InterfaceObject.InterfaceObjectBlock" xlink:title="InterfaceObjectBlock" target="_top">
<polygon fill="white" stroke="#1e90ff" points="256,-771915.6 90,-771915.6 90,-771897.1 256,-771897.1 256,-771915.6"/>
<text text-anchor="middle" x="173" y="-771902.1" font-family="Vera Sans, DejaVu Sans, Liberation Sans, Arial, Helvetica, sans" font-size="10.00">InterfaceObjectBlock</text>
</a>
</g>
</g>
<!-- Block&#45;&gt;InterfaceObjectBlock -->
<g id="edge1" class="edge">
<title>Block&#45;&gt;InterfaceObjectBlock</title>
<path fill="none" stroke="black" stroke-width="0.5" d="M54.41,-771906.35C63.04,-771906.35 73.16,-771906.35 83.77,-771906.35"/>
<polygon fill="black" stroke="black" stroke-width="0.5" points="84.72,-771908.1 89.72,-771906.35 84.72,-771904.6 84.72,-771908.1"/>
</g>
<!-- InterfaceSignalBlock -->
<g id="node3" class="node">
<title>InterfaceSignalBlock</title>
<g id="a_node3"><a xlink:href="../pyVHDLParser.Blocks.InterfaceObject.html#pyVHDLParser.Blocks.InterfaceObject.InterfaceSignalBlock" xlink:title="InterfaceSignalBlock" target="_top">
<polygon fill="white" stroke="#1e90ff" points="458,-771915.6 292,-771915.6 292,-771897.1 458,-771897.1 458,-771915.6"/>
<text text-anchor="middle" x="375" y="-771902.1" font-family="Vera Sans, DejaVu Sans, Liberation Sans, Arial, Helvetica, sans" font-size="10.00">InterfaceSignalBlock</text>
</a>
</g>
</g>
<!-- InterfaceObjectBlock&#45;&gt;InterfaceSignalBlock -->
<g id="edge2" class="edge">
<title>InterfaceObjectBlock&#45;&gt;InterfaceSignalBlock</title>
<path fill="none" stroke="black" stroke-width="0.5" d="M256.21,-771906.35C266.03,-771906.35 276.08,-771906.35 285.98,-771906.35"/>
<polygon fill="black" stroke="black" stroke-width="0.5" points="286.78,-771908.1 291.78,-771906.35 286.78,-771904.6 286.78,-771908.1"/>
</g>
<!-- PortListInterfaceSignalBlock -->
<g id="node4" class="node">
<title>PortListInterfaceSignalBlock</title>
<g id="a_node4"><a xlink:href="../pyVHDLParser/pyVHDLParser.Blocks.List.PortList.html#pyVHDLParser.Blocks.List.PortList.PortListInterfaceSignalBlock" xlink:title="PortListInterfaceSignalBlock" target="_top">
<polygon fill="white" stroke="#1e90ff" points="720,-1543812.7 494,-1543812.7 494,0 720,0 720,-1543812.7"/>
<text text-anchor="middle" x="607" y="-1543799.2" font-family="Vera Sans, DejaVu Sans, Liberation Sans, Arial, Helvetica, sans" font-size="10.00">PortListInterfaceSignalBlock</text>
</a>
</g>
</g>
<!-- InterfaceSignalBlock&#45;&gt;PortListInterfaceSignalBlock -->
<g id="edge3" class="edge">
<title>InterfaceSignalBlock&#45;&gt;PortListInterfaceSignalBlock</title>
<path fill="none" stroke="black" stroke-width="0.5" d="M458.39,-771906.35C467.98,-771906.35 477.9,-771906.35 487.85,-771906.35"/>
<polygon fill="black" stroke="black" stroke-width="0.5" points="488.71,-771908.1 493.71,-771906.35 488.71,-771904.6 488.71,-771908.1"/>
</g>
</g>
</svg>
