<?xml version="1.0" encoding="UTF-8" standalone="no"?>
<!DOCTYPE svg PUBLIC "-//W3C//DTD SVG 1.1//EN"
 "http://www.w3.org/Graphics/SVG/1.1/DTD/svg11.dtd">
<!-- Generated by graphviz version 8.0.5 (20230430.1635)
 -->
<!-- Title: inheritance953873d1d9 Pages: 1 -->
<svg width="0pt" height="864pt"
 viewBox="0.00 0.00 0.30 864.00" xmlns="http://www.w3.org/2000/svg" xmlns:xlink="http://www.w3.org/1999/xlink">
<g id="graph0" class="graph" transform="scale(0.000544646 0.000544646) rotate(0) translate(4 1586347.28)">
<title>inheritance953873d1d9</title>
<!-- Context -->
<g id="node1" class="node">
<title>Context</title>
<g id="a_node1"><a xlink:href="../pyVHDLParser/pyVHDLParser.LanguageModel.DesignUnit.html#pyVHDLParser.LanguageModel.DesignUnit.Context" xlink:title="Context" target="_top">
<polygon fill="white" stroke="#1e90ff" points="539.5,-1520807.58 471,-1520807.58 471,-0.29 539.5,-0.29 539.5,-1520807.58"/>
<text text-anchor="middle" x="505.25" y="-1520794.08" font-family="Vera Sans, DejaVu Sans, Liberation Sans, Arial, Helvetica, sans" font-size="10.00">Context</text>
</a>
</g>
</g>
<!-- Context&#45;&gt;Context -->
<g id="edge2" class="edge">
<title>Context&#45;&gt;Context</title>
<path fill="none" stroke="black" stroke-width="0.5" d="M504.94,-1520807.84C505.05,-1520819.66 505.15,-1520825.58 505.25,-1520825.58 505.33,-1520825.58 505.42,-1520821.52 505.5,-1520813.41"/>
<polygon fill="black" stroke="black" stroke-width="0.5" points="507.26,-1520812.86 505.56,-1520807.84 503.76,-1520812.83 507.26,-1520812.86"/>
</g>
<!-- PrimaryUnit -->
<g id="node2" class="node">
<title>PrimaryUnit</title>
<g id="a_node2"><a xlink:title="A ``PrimaryUnit`` is a base&#45;class for all primary units.">
<polygon fill="white" stroke="#1e90ff" points="435,-1520807.83 336.5,-1520807.83 336.5,-0.04 435,-0.04 435,-1520807.83"/>
<text text-anchor="middle" x="385.75" y="-1520794.33" font-family="Vera Sans, DejaVu Sans, Liberation Sans, Arial, Helvetica, sans" font-size="10.00">PrimaryUnit</text>
</a>
</g>
</g>
<!-- PrimaryUnit&#45;&gt;Context -->
<g id="edge1" class="edge">
<title>PrimaryUnit&#45;&gt;Context</title>
<path fill="none" stroke="black" stroke-width="0.5" d="M435.22,-760403.93C445.06,-760403.93 455.3,-760403.93 464.79,-760403.93"/>
<polygon fill="black" stroke="black" stroke-width="0.5" points="465.58,-760405.68 470.58,-760403.93 465.58,-760402.18 465.58,-760405.68"/>
</g>
<!-- DesignUnit -->
<g id="node3" class="node">
<title>DesignUnit</title>
<g id="a_node3"><a xlink:title="A ``DesignUnit`` is a base&#45;class for all design units.">
<polygon fill="white" stroke="#1e90ff" points="300.5,-1520807.87 209.5,-1520807.87 209.5,0 300.5,0 300.5,-1520807.87"/>
<text text-anchor="middle" x="255" y="-1520794.37" font-family="Vera Sans, DejaVu Sans, Liberation Sans, Arial, Helvetica, sans" font-size="10.00">DesignUnit</text>
</a>
</g>
</g>
<!-- DesignUnit&#45;&gt;PrimaryUnit -->
<g id="edge6" class="edge">
<title>DesignUnit&#45;&gt;PrimaryUnit</title>
<path fill="none" stroke="black" stroke-width="0.5" d="M300.67,-760403.93C310.26,-760403.93 320.5,-760403.93 330.41,-760403.93"/>
<polygon fill="black" stroke="black" stroke-width="0.5" points="331.21,-760405.68 336.21,-760403.93 331.21,-760402.18 331.21,-760405.68"/>
</g>
<!-- ModelEntity -->
<g id="node4" class="node">
<title>ModelEntity</title>
<g id="a_node4"><a xlink:title="``ModelEntity`` is the base&#45;class for all classes in the VHDL language model, except for mixin classes (see multiple">
<polygon fill="white" stroke="#1e90ff" points="136,-1586343.28 37.5,-1586343.28 37.5,-65534.58 136,-65534.58 136,-1586343.28"/>
<text text-anchor="middle" x="86.75" y="-1586329.78" font-family="Vera Sans, DejaVu Sans, Liberation Sans, Arial, Helvetica, sans" font-size="10.00">ModelEntity</text>
</a>
</g>
</g>
<!-- ModelEntity&#45;&gt;DesignUnit -->
<g id="edge3" class="edge">
<title>ModelEntity&#45;&gt;DesignUnit</title>
<path fill="none" stroke="black" stroke-width="0.5" d="M136.5,-806722.18C159.42,-797688.77 186.56,-786987.55 208.99,-778147.98"/>
<polygon fill="black" stroke="black" stroke-width="0.5" points="210.74,-778147.32 209,-778142.32 207.24,-778147.31 210.74,-778147.32"/>
</g>
<!-- NamedEntityMixin -->
<g id="node5" class="node">
<title>NamedEntityMixin</title>
<g id="a_node5"><a xlink:title="A ``NamedEntityMixin`` is a mixin class for all VHDL entities that have identifiers.">
<polygon fill="white" stroke="#1e90ff" points="154.75,-760413.18 18.75,-760413.18 18.75,-760394.68 154.75,-760394.68 154.75,-760413.18"/>
<text text-anchor="middle" x="86.75" y="-760399.68" font-family="Vera Sans, DejaVu Sans, Liberation Sans, Arial, Helvetica, sans" font-size="10.00">NamedEntityMixin</text>
</a>
</g>
</g>
<!-- NamedEntityMixin&#45;&gt;DesignUnit -->
<g id="edge4" class="edge">
<title>NamedEntityMixin&#45;&gt;DesignUnit</title>
<path fill="none" stroke="black" stroke-width="0.5" d="M154.89,-760403.93C170.96,-760403.93 187.86,-760403.93 203.06,-760403.93"/>
<polygon fill="black" stroke="black" stroke-width="0.5" points="204.02,-760405.68 209.02,-760403.93 204.02,-760402.18 204.02,-760405.68"/>
</g>
<!-- DocumentedEntityMixin -->
<g id="node6" class="node">
<title>DocumentedEntityMixin</title>
<g id="a_node6"><a xlink:title="A ``DocumentedEntityMixin`` is a mixin class for all VHDL entities that can have an associated documentation.">
<polygon fill="white" stroke="#1e90ff" points="173.5,-760376.18 0,-760376.18 0,-760357.68 173.5,-760357.68 173.5,-760376.18"/>
<text text-anchor="middle" x="86.75" y="-760362.68" font-family="Vera Sans, DejaVu Sans, Liberation Sans, Arial, Helvetica, sans" font-size="10.00">DocumentedEntityMixin</text>
</a>
</g>
</g>
<!-- DocumentedEntityMixin&#45;&gt;DesignUnit -->
<g id="edge5" class="edge">
<title>DocumentedEntityMixin&#45;&gt;DesignUnit</title>
<path fill="none" stroke="black" stroke-width="0.5" d="M131.82,-760376.68C145.21,-760379.65 159.96,-760382.92 173.5,-760385.93 183.2,-760388.09 193.55,-760390.4 203.5,-760392.63"/>
<polygon fill="black" stroke="black" stroke-width="0.5" points="204.03,-760394.54 209.29,-760393.92 204.8,-760391.12 204.03,-760394.54"/>
</g>
</g>
</svg>
