<?xml version="1.0" encoding="UTF-8" standalone="no"?>
<!DOCTYPE svg PUBLIC "-//W3C//DTD SVG 1.1//EN"
 "http://www.w3.org/Graphics/SVG/1.1/DTD/svg11.dtd">
<!-- Generated by graphviz version 8.0.5 (20230430.1635)
 -->
<!-- Title: inheritanceb66c0c19c1 Pages: 1 -->
<svg width="1pt" height="864pt"
 viewBox="0.00 0.00 0.88 864.00" xmlns="http://www.w3.org/2000/svg" xmlns:xlink="http://www.w3.org/1999/xlink">
<g id="graph0" class="graph" transform="scale(0.00127629 0.00127629) rotate(0) translate(4 676956.56)">
<title>inheritanceb66c0c19c1</title>
<!-- DesignUnit -->
<g id="node1" class="node">
<title>DesignUnit</title>
<g id="a_node1"><a xlink:title="A ``DesignUnit`` is a base&#45;class for all design units.">
<polygon fill="white" stroke="#1e90ff" points="300.5,-55.5 209.5,-55.5 209.5,-37 300.5,-37 300.5,-55.5"/>
<text text-anchor="middle" x="255" y="-42" font-family="Vera Sans, DejaVu Sans, Liberation Sans, Arial, Helvetica, sans" font-size="10.00">DesignUnit</text>
</a>
</g>
</g>
<!-- SecondaryUnit -->
<g id="node7" class="node">
<title>SecondaryUnit</title>
<g id="a_node7"><a xlink:title="A ``SecondaryUnit`` is a base&#45;class for all secondary units.">
<polygon fill="white" stroke="#1e90ff" points="498.75,-55.5 385.25,-55.5 385.25,-37 498.75,-37 498.75,-55.5"/>
<text text-anchor="middle" x="442" y="-42" font-family="Vera Sans, DejaVu Sans, Liberation Sans, Arial, Helvetica, sans" font-size="10.00">SecondaryUnit</text>
</a>
</g>
</g>
<!-- DesignUnit&#45;&gt;SecondaryUnit -->
<g id="edge7" class="edge">
<title>DesignUnit&#45;&gt;SecondaryUnit</title>
<path fill="none" stroke="black" stroke-width="0.5" d="M300.78,-46.25C324.35,-46.25 353.6,-46.25 379.27,-46.25"/>
<polygon fill="black" stroke="black" stroke-width="0.5" points="380.04,-48 385.04,-46.25 380.04,-44.5 380.04,-48"/>
</g>
<!-- ModelEntity -->
<g id="node2" class="node">
<title>ModelEntity</title>
<g id="a_node2"><a xlink:title="``ModelEntity`` is the base&#45;class for all classes in the VHDL language model, except for mixin classes (see multiple">
<polygon fill="white" stroke="#1e90ff" points="136,-676952.56 37.5,-676952.56 37.5,545790.06 136,545790.06 136,-676952.56"/>
<text text-anchor="middle" x="86.75" y="-676939.06" font-family="Vera Sans, DejaVu Sans, Liberation Sans, Arial, Helvetica, sans" font-size="10.00">ModelEntity</text>
</a>
</g>
</g>
<!-- ModelEntity&#45;&gt;DesignUnit -->
<g id="edge1" class="edge">
<title>ModelEntity&#45;&gt;DesignUnit</title>
<path fill="none" stroke="black" stroke-width="0.5" d="M136.5,-46364.5C184.87,-27295.27 252.1,-793.96 253.96,-61.76"/>
<polygon fill="black" stroke="black" stroke-width="0.5" points="255.71,-60.98 253.98,-55.97 252.21,-60.97 255.71,-60.98"/>
</g>
<!-- NamedEntityMixin -->
<g id="node3" class="node">
<title>NamedEntityMixin</title>
<g id="a_node3"><a xlink:title="A ``NamedEntityMixin`` is a mixin class for all VHDL entities that have identifiers.">
<polygon fill="white" stroke="#1e90ff" points="154.75,-55.5 18.75,-55.5 18.75,-37 154.75,-37 154.75,-55.5"/>
<text text-anchor="middle" x="86.75" y="-42" font-family="Vera Sans, DejaVu Sans, Liberation Sans, Arial, Helvetica, sans" font-size="10.00">NamedEntityMixin</text>
</a>
</g>
</g>
<!-- NamedEntityMixin&#45;&gt;DesignUnit -->
<g id="edge2" class="edge">
<title>NamedEntityMixin&#45;&gt;DesignUnit</title>
<path fill="none" stroke="black" stroke-width="0.5" d="M154.89,-46.25C170.96,-46.25 187.86,-46.25 203.06,-46.25"/>
<polygon fill="black" stroke="black" stroke-width="0.5" points="204.02,-48 209.02,-46.25 204.02,-44.5 204.02,-48"/>
</g>
<!-- DocumentedEntityMixin -->
<g id="node4" class="node">
<title>DocumentedEntityMixin</title>
<g id="a_node4"><a xlink:title="A ``DocumentedEntityMixin`` is a mixin class for all VHDL entities that can have an associated documentation.">
<polygon fill="white" stroke="#1e90ff" points="173.5,-18.5 0,-18.5 0,0 173.5,0 173.5,-18.5"/>
<text text-anchor="middle" x="86.75" y="-5" font-family="Vera Sans, DejaVu Sans, Liberation Sans, Arial, Helvetica, sans" font-size="10.00">DocumentedEntityMixin</text>
</a>
</g>
</g>
<!-- DocumentedEntityMixin&#45;&gt;DesignUnit -->
<g id="edge3" class="edge">
<title>DocumentedEntityMixin&#45;&gt;DesignUnit</title>
<path fill="none" stroke="black" stroke-width="0.5" d="M131.82,-19C145.21,-21.96 159.96,-25.24 173.5,-28.25 183.64,-30.51 194.5,-32.93 204.86,-35.25"/>
<polygon fill="black" stroke="black" stroke-width="0.5" points="205.29,-37.14 210.55,-36.52 206.06,-33.72 205.29,-37.14"/>
</g>
<!-- DesignUnitWithContextMixin -->
<g id="node5" class="node">
<title>DesignUnitWithContextMixin</title>
<polygon fill="white" stroke="#1e90ff" points="547.5,-92.5 336.5,-92.5 336.5,-74 547.5,-74 547.5,-92.5"/>
<text text-anchor="middle" x="442" y="-79" font-family="Vera Sans, DejaVu Sans, Liberation Sans, Arial, Helvetica, sans" font-size="10.00">DesignUnitWithContextMixin</text>
</g>
<!-- PackageBody -->
<g id="node6" class="node">
<title>PackageBody</title>
<g id="a_node6"><a xlink:href="../pyVHDLParser/pyVHDLParser.LanguageModel.DesignUnit.html#pyVHDLParser.LanguageModel.DesignUnit.PackageBody" xlink:title="PackageBody" target="_top">
<polygon fill="white" stroke="#1e90ff" points="682,-73.5 583.5,-73.5 583.5,-55 682,-55 682,-73.5"/>
<text text-anchor="middle" x="632.75" y="-60" font-family="Vera Sans, DejaVu Sans, Liberation Sans, Arial, Helvetica, sans" font-size="10.00">PackageBody</text>
</a>
</g>
</g>
<!-- DesignUnitWithContextMixin&#45;&gt;PackageBody -->
<g id="edge5" class="edge">
<title>DesignUnitWithContextMixin&#45;&gt;PackageBody</title>
<path fill="none" stroke="black" stroke-width="0.5" d="M539.59,-73.53C552.68,-72.21 565.72,-70.9 577.69,-69.69"/>
<polygon fill="black" stroke="black" stroke-width="0.5" points="578.68,-71.35 583.48,-69.11 578.33,-67.87 578.68,-71.35"/>
</g>
<!-- PackageBody&#45;&gt;PackageBody -->
<g id="edge6" class="edge">
<title>PackageBody&#45;&gt;PackageBody</title>
<path fill="none" stroke="black" stroke-width="0.5" d="M603.35,-73.75C589.05,-82.32 598.85,-91.5 632.75,-91.5 661.89,-91.5 673.22,-84.72 666.75,-77.37"/>
<polygon fill="black" stroke="black" stroke-width="0.5" points="667.16,-75.46 662.15,-73.75 665,-78.21 667.16,-75.46"/>
</g>
<!-- SecondaryUnit&#45;&gt;PackageBody -->
<g id="edge4" class="edge">
<title>SecondaryUnit&#45;&gt;PackageBody</title>
<path fill="none" stroke="black" stroke-width="0.5" d="M499.12,-51.6C523.87,-53.96 552.84,-56.72 577.38,-59.07"/>
<polygon fill="black" stroke="black" stroke-width="0.5" points="578.05,-60.89 583.2,-59.62 578.39,-57.4 578.05,-60.89"/>
</g>
</g>
</svg>
