<?xml version="1.0" encoding="UTF-8" standalone="no"?>
<!DOCTYPE svg PUBLIC "-//W3C//DTD SVG 1.1//EN"
 "http://www.w3.org/Graphics/SVG/1.1/DTD/svg11.dtd">
<!-- Generated by graphviz version 8.0.5 (20230430.1635)
 -->
<!-- Title: inheritance10300d4785 Pages: 1 -->
<svg width="1pt" height="864pt"
 viewBox="0.00 0.00 0.77 864.00" xmlns="http://www.w3.org/2000/svg" xmlns:xlink="http://www.w3.org/1999/xlink">
<g id="graph0" class="graph" transform="scale(0.00118433 0.00118433) rotate(0) translate(4 729523.05)">
<title>inheritance10300d4785</title>
<!-- DelimiterToken -->
<g id="node1" class="node">
<title>DelimiterToken</title>
<g id="a_node1"><a xlink:href="../pyVHDLParser/pyVHDLParser.Token.Keywords.html#pyVHDLParser.Token.Keywords.DelimiterToken" xlink:title="Token representing a delimiter sign in between list items." target="_top">
<polygon fill="white" stroke="#1e90ff" points="644.5,-364768.78 523.5,-364768.78 523.5,-364750.28 644.5,-364750.28 644.5,-364768.78"/>
<text text-anchor="middle" x="584" y="-364755.28" font-family="Vera Sans, DejaVu Sans, Liberation Sans, Arial, Helvetica, sans" font-size="10.00">DelimiterToken</text>
</a>
</g>
</g>
<!-- SpecificVHDLToken -->
<g id="node2" class="node">
<title>SpecificVHDLToken</title>
<g id="a_node2"><a xlink:href="../pyVHDLParser/pyVHDLParser.Token.Keywords.html#pyVHDLParser.Token.Keywords.SpecificVHDLToken" xlink:title="Base&#45;class for all specific tokens." target="_top">
<polygon fill="white" stroke="#1e90ff" points="487.5,-364768.78 344,-364768.78 344,-364750.28 487.5,-364750.28 487.5,-364768.78"/>
<text text-anchor="middle" x="415.75" y="-364755.28" font-family="Vera Sans, DejaVu Sans, Liberation Sans, Arial, Helvetica, sans" font-size="10.00">SpecificVHDLToken</text>
</a>
</g>
</g>
<!-- SpecificVHDLToken&#45;&gt;DelimiterToken -->
<g id="edge1" class="edge">
<title>SpecificVHDLToken&#45;&gt;DelimiterToken</title>
<path fill="none" stroke="black" stroke-width="0.5" d="M487.74,-364759.53C497.53,-364759.53 507.55,-364759.53 517.25,-364759.53"/>
<polygon fill="black" stroke="black" stroke-width="0.5" points="518.24,-364761.28 523.23,-364759.53 518.23,-364757.78 518.24,-364761.28"/>
</g>
<!-- VHDLToken -->
<g id="node3" class="node">
<title>VHDLToken</title>
<g id="a_node3"><a xlink:href="../pyVHDLParser.Token.html#pyVHDLParser.Token.VHDLToken" xlink:title="Base&#45;class for all VHDL specific tokens." target="_top">
<polygon fill="white" stroke="#1e90ff" points="308,-729519.05 224.5,-729519.05 224.5,0 308,0 308,-729519.05"/>
<text text-anchor="middle" x="266.25" y="-729505.55" font-family="Vera Sans, DejaVu Sans, Liberation Sans, Arial, Helvetica, sans" font-size="10.00">VHDLToken</text>
</a>
</g>
</g>
<!-- VHDLToken&#45;&gt;SpecificVHDLToken -->
<g id="edge2" class="edge">
<title>VHDLToken&#45;&gt;SpecificVHDLToken</title>
<path fill="none" stroke="black" stroke-width="0.5" d="M308.34,-364759.53C317.53,-364759.53 327.57,-364759.53 337.69,-364759.53"/>
<polygon fill="black" stroke="black" stroke-width="0.5" points="338.66,-364761.28 343.66,-364759.53 338.66,-364757.78 338.66,-364761.28"/>
</g>
<!-- Token -->
<g id="node4" class="node">
<title>Token</title>
<g id="a_node4"><a xlink:href="../pyVHDLParser.Token.html#pyVHDLParser.Token.Token" xlink:title="Base&#45;class for all token classes." target="_top">
<polygon fill="white" stroke="#1e90ff" points="54,-729519.01 0,-729519.01 0,-0.05 54,-0.05 54,-729519.01"/>
<text text-anchor="middle" x="27" y="-729505.51" font-family="Vera Sans, DejaVu Sans, Liberation Sans, Arial, Helvetica, sans" font-size="10.00">Token</text>
</a>
</g>
</g>
<!-- ValuedToken -->
<g id="node5" class="node">
<title>ValuedToken</title>
<g id="a_node5"><a xlink:href="../pyVHDLParser.Token.html#pyVHDLParser.Token.ValuedToken" xlink:title="Base&#45;class for all *valued* token." target="_top">
<polygon fill="white" stroke="#1e90ff" points="188.5,-364768.78 90,-364768.78 90,-364750.28 188.5,-364750.28 188.5,-364768.78"/>
<text text-anchor="middle" x="139.25" y="-364755.28" font-family="Vera Sans, DejaVu Sans, Liberation Sans, Arial, Helvetica, sans" font-size="10.00">ValuedToken</text>
</a>
</g>
</g>
<!-- Token&#45;&gt;ValuedToken -->
<g id="edge4" class="edge">
<title>Token&#45;&gt;ValuedToken</title>
<path fill="none" stroke="black" stroke-width="0.5" d="M54.41,-364759.53C63.25,-364759.53 73.45,-364759.53 83.64,-364759.53"/>
<polygon fill="black" stroke="black" stroke-width="0.5" points="84.62,-364761.28 89.62,-364759.53 84.62,-364757.78 84.62,-364761.28"/>
</g>
<!-- ValuedToken&#45;&gt;VHDLToken -->
<g id="edge3" class="edge">
<title>ValuedToken&#45;&gt;VHDLToken</title>
<path fill="none" stroke="black" stroke-width="0.5" d="M188.94,-364759.53C198.59,-364759.53 208.7,-364759.53 218.29,-364759.53"/>
<polygon fill="black" stroke="black" stroke-width="0.5" points="219.19,-364761.28 224.19,-364759.53 219.19,-364757.78 219.19,-364761.28"/>
</g>
</g>
</svg>
