<?xml version="1.0" encoding="UTF-8" standalone="no"?>
<!DOCTYPE svg PUBLIC "-//W3C//DTD SVG 1.1//EN"
 "http://www.w3.org/Graphics/SVG/1.1/DTD/svg11.dtd">
<!-- Generated by graphviz version 8.0.5 (20230430.1635)
 -->
<!-- Title: inheritance446fea3401 Pages: 1 -->
<svg width="0pt" height="864pt"
 viewBox="0.00 0.00 0.39 864.00" xmlns="http://www.w3.org/2000/svg" xmlns:xlink="http://www.w3.org/1999/xlink">
<g id="graph0" class="graph" transform="scale(0.000650009 0.000650009) rotate(0) translate(4 1329208.04)">
<title>inheritance446fea3401</title>
<!-- KeywordToken -->
<g id="node1" class="node">
<title>KeywordToken</title>
<g id="a_node1"><a xlink:href="../pyVHDLParser/pyVHDLParser.Token.Keywords.html#pyVHDLParser.Token.Keywords.KeywordToken" xlink:title="KeywordToken" target="_top">
<polygon fill="white" stroke="#1e90ff" points="450,-664611.27 344,-664611.27 344,-664592.77 450,-664592.77 450,-664611.27"/>
<text text-anchor="middle" x="397" y="-664597.77" font-family="Vera Sans, DejaVu Sans, Liberation Sans, Arial, Helvetica, sans" font-size="10.00">KeywordToken</text>
</a>
</g>
</g>
<!-- TypeKeyword -->
<g id="node4" class="node">
<title>TypeKeyword</title>
<g id="a_node4"><a xlink:href="../pyVHDLParser/pyVHDLParser.Token.Keywords.html#pyVHDLParser.Token.Keywords.TypeKeyword" xlink:title="TypeKeyword" target="_top">
<polygon fill="white" stroke="#1e90ff" points="584.5,-1329204 486,-1329204 486,-0.04 584.5,-0.04 584.5,-1329204"/>
<text text-anchor="middle" x="535.25" y="-1329190.5" font-family="Vera Sans, DejaVu Sans, Liberation Sans, Arial, Helvetica, sans" font-size="10.00">TypeKeyword</text>
</a>
</g>
</g>
<!-- KeywordToken&#45;&gt;TypeKeyword -->
<g id="edge2" class="edge">
<title>KeywordToken&#45;&gt;TypeKeyword</title>
<path fill="none" stroke="black" stroke-width="0.5" d="M450.29,-664602.02C460.07,-664602.02 470.32,-664602.02 480.16,-664602.02"/>
<polygon fill="black" stroke="black" stroke-width="0.5" points="480.9,-664603.77 485.9,-664602.02 480.9,-664600.27 480.9,-664603.77"/>
</g>
<!-- VHDLToken -->
<g id="node2" class="node">
<title>VHDLToken</title>
<g id="a_node2"><a xlink:href="../pyVHDLParser.Token.html#pyVHDLParser.Token.VHDLToken" xlink:title="Base&#45;class for all VHDL specific tokens." target="_top">
<polygon fill="white" stroke="#1e90ff" points="308,-664611.27 224.5,-664611.27 224.5,-664592.77 308,-664592.77 308,-664611.27"/>
<text text-anchor="middle" x="266.25" y="-664597.77" font-family="Vera Sans, DejaVu Sans, Liberation Sans, Arial, Helvetica, sans" font-size="10.00">VHDLToken</text>
</a>
</g>
</g>
<!-- VHDLToken&#45;&gt;KeywordToken -->
<g id="edge1" class="edge">
<title>VHDLToken&#45;&gt;KeywordToken</title>
<path fill="none" stroke="black" stroke-width="0.5" d="M308.34,-664602.02C317.69,-664602.02 327.8,-664602.02 337.71,-664602.02"/>
<polygon fill="black" stroke="black" stroke-width="0.5" points="338.52,-664603.77 343.52,-664602.02 338.52,-664600.27 338.52,-664603.77"/>
</g>
<!-- Token -->
<g id="node3" class="node">
<title>Token</title>
<g id="a_node3"><a xlink:href="../pyVHDLParser.Token.html#pyVHDLParser.Token.Token" xlink:title="Base&#45;class for all token classes." target="_top">
<polygon fill="white" stroke="#1e90ff" points="54,-1329204.04 0,-1329204.04 0,0 54,0 54,-1329204.04"/>
<text text-anchor="middle" x="27" y="-1329190.54" font-family="Vera Sans, DejaVu Sans, Liberation Sans, Arial, Helvetica, sans" font-size="10.00">Token</text>
</a>
</g>
</g>
<!-- ValuedToken -->
<g id="node5" class="node">
<title>ValuedToken</title>
<g id="a_node5"><a xlink:href="../pyVHDLParser.Token.html#pyVHDLParser.Token.ValuedToken" xlink:title="Base&#45;class for all *valued* token." target="_top">
<polygon fill="white" stroke="#1e90ff" points="188.5,-664611.27 90,-664611.27 90,-664592.77 188.5,-664592.77 188.5,-664611.27"/>
<text text-anchor="middle" x="139.25" y="-664597.77" font-family="Vera Sans, DejaVu Sans, Liberation Sans, Arial, Helvetica, sans" font-size="10.00">ValuedToken</text>
</a>
</g>
</g>
<!-- Token&#45;&gt;ValuedToken -->
<g id="edge4" class="edge">
<title>Token&#45;&gt;ValuedToken</title>
<path fill="none" stroke="black" stroke-width="0.5" d="M54.41,-664602.02C63.25,-664602.02 73.45,-664602.02 83.64,-664602.02"/>
<polygon fill="black" stroke="black" stroke-width="0.5" points="84.62,-664603.77 89.62,-664602.02 84.62,-664600.27 84.62,-664603.77"/>
</g>
<!-- ValuedToken&#45;&gt;VHDLToken -->
<g id="edge3" class="edge">
<title>ValuedToken&#45;&gt;VHDLToken</title>
<path fill="none" stroke="black" stroke-width="0.5" d="M188.94,-664602.02C198.59,-664602.02 208.7,-664602.02 218.29,-664602.02"/>
<polygon fill="black" stroke="black" stroke-width="0.5" points="219.19,-664603.77 224.19,-664602.02 219.19,-664600.27 219.19,-664603.77"/>
</g>
</g>
</svg>
