<?xml version="1.0" encoding="UTF-8" standalone="no"?>
<!DOCTYPE svg PUBLIC "-//W3C//DTD SVG 1.1//EN"
 "http://www.w3.org/Graphics/SVG/1.1/DTD/svg11.dtd">
<!-- Generated by graphviz version 8.0.5 (20230430.1635)
 -->
<!-- Title: inheritance9fafa9812e Pages: 1 -->
<svg width="2pt" height="864pt"
 viewBox="0.00 0.00 1.84 864.00" xmlns="http://www.w3.org/2000/svg" xmlns:xlink="http://www.w3.org/1999/xlink">
<g id="graph0" class="graph" transform="scale(0.00284727 0.00284727) rotate(0) translate(4 303445.05)">
<title>inheritance9fafa9812e</title>
<!-- CommentKeyword -->
<g id="node1" class="node">
<title>CommentKeyword</title>
<g id="a_node1"><a xlink:href="../pyVHDLParser/pyVHDLParser.Token.Keywords.html#pyVHDLParser.Token.Keywords.CommentKeyword" xlink:title="Base&#45;class for all comment keywords: ``&#45;&#45;``, ``/*`` and ``*/``." target="_top">
<polygon fill="white" stroke="#1e90ff" points="637,-151729.78 516,-151729.78 516,-151711.28 637,-151711.28 637,-151729.78"/>
<text text-anchor="middle" x="576.5" y="-151716.28" font-family="Vera Sans, DejaVu Sans, Liberation Sans, Arial, Helvetica, sans" font-size="10.00">CommentKeyword</text>
</a>
</g>
</g>
<!-- MultiCharKeyword -->
<g id="node2" class="node">
<title>MultiCharKeyword</title>
<g id="a_node2"><a xlink:href="../pyVHDLParser/pyVHDLParser.Token.Keywords.html#pyVHDLParser.Token.Keywords.MultiCharKeyword" xlink:title="MultiCharKeyword" target="_top">
<polygon fill="white" stroke="#1e90ff" points="480,-151729.78 344,-151729.78 344,-151711.28 480,-151711.28 480,-151729.78"/>
<text text-anchor="middle" x="412" y="-151716.28" font-family="Vera Sans, DejaVu Sans, Liberation Sans, Arial, Helvetica, sans" font-size="10.00">MultiCharKeyword</text>
</a>
</g>
</g>
<!-- MultiCharKeyword&#45;&gt;CommentKeyword -->
<g id="edge1" class="edge">
<title>MultiCharKeyword&#45;&gt;CommentKeyword</title>
<path fill="none" stroke="black" stroke-width="0.5" d="M480.03,-151720.53C489.9,-151720.53 500.05,-151720.53 509.89,-151720.53"/>
<polygon fill="black" stroke="black" stroke-width="0.5" points="510.64,-151722.28 515.64,-151720.53 510.64,-151718.78 510.64,-151722.28"/>
</g>
<!-- VHDLToken -->
<g id="node3" class="node">
<title>VHDLToken</title>
<g id="a_node3"><a xlink:href="../pyVHDLParser.Token.html#pyVHDLParser.Token.VHDLToken" xlink:title="Base&#45;class for all VHDL specific tokens." target="_top">
<polygon fill="white" stroke="#1e90ff" points="308,-303441.05 224.5,-303441.05 224.5,0 308,0 308,-303441.05"/>
<text text-anchor="middle" x="266.25" y="-303427.55" font-family="Vera Sans, DejaVu Sans, Liberation Sans, Arial, Helvetica, sans" font-size="10.00">VHDLToken</text>
</a>
</g>
</g>
<!-- VHDLToken&#45;&gt;MultiCharKeyword -->
<g id="edge2" class="edge">
<title>VHDLToken&#45;&gt;MultiCharKeyword</title>
<path fill="none" stroke="black" stroke-width="0.5" d="M308.44,-151720.53C317.67,-151720.53 327.72,-151720.53 337.81,-151720.53"/>
<polygon fill="black" stroke="black" stroke-width="0.5" points="338.75,-151722.28 343.75,-151720.53 338.75,-151718.78 338.75,-151722.28"/>
</g>
<!-- Token -->
<g id="node4" class="node">
<title>Token</title>
<g id="a_node4"><a xlink:href="../pyVHDLParser.Token.html#pyVHDLParser.Token.Token" xlink:title="Base&#45;class for all token classes." target="_top">
<polygon fill="white" stroke="#1e90ff" points="54,-303441.01 0,-303441.01 0,-0.05 54,-0.05 54,-303441.01"/>
<text text-anchor="middle" x="27" y="-303427.51" font-family="Vera Sans, DejaVu Sans, Liberation Sans, Arial, Helvetica, sans" font-size="10.00">Token</text>
</a>
</g>
</g>
<!-- ValuedToken -->
<g id="node5" class="node">
<title>ValuedToken</title>
<g id="a_node5"><a xlink:href="../pyVHDLParser.Token.html#pyVHDLParser.Token.ValuedToken" xlink:title="Base&#45;class for all *valued* token." target="_top">
<polygon fill="white" stroke="#1e90ff" points="188.5,-151729.78 90,-151729.78 90,-151711.28 188.5,-151711.28 188.5,-151729.78"/>
<text text-anchor="middle" x="139.25" y="-151716.28" font-family="Vera Sans, DejaVu Sans, Liberation Sans, Arial, Helvetica, sans" font-size="10.00">ValuedToken</text>
</a>
</g>
</g>
<!-- Token&#45;&gt;ValuedToken -->
<g id="edge4" class="edge">
<title>Token&#45;&gt;ValuedToken</title>
<path fill="none" stroke="black" stroke-width="0.5" d="M54.41,-151720.53C63.25,-151720.53 73.45,-151720.53 83.64,-151720.53"/>
<polygon fill="black" stroke="black" stroke-width="0.5" points="84.62,-151722.28 89.62,-151720.53 84.62,-151718.78 84.62,-151722.28"/>
</g>
<!-- ValuedToken&#45;&gt;VHDLToken -->
<g id="edge3" class="edge">
<title>ValuedToken&#45;&gt;VHDLToken</title>
<path fill="none" stroke="black" stroke-width="0.5" d="M188.94,-151720.53C198.59,-151720.53 208.7,-151720.53 218.29,-151720.53"/>
<polygon fill="black" stroke="black" stroke-width="0.5" points="219.19,-151722.28 224.19,-151720.53 219.19,-151718.78 219.19,-151722.28"/>
</g>
</g>
</svg>
