<?xml version="1.0" encoding="UTF-8" standalone="no"?>
<!DOCTYPE svg PUBLIC "-//W3C//DTD SVG 1.1//EN"
 "http://www.w3.org/Graphics/SVG/1.1/DTD/svg11.dtd">
<!-- Generated by graphviz version 8.0.5 (20230430.1635)
 -->
<!-- Title: inheritance8b7f5833ed Pages: 1 -->
<svg width="109pt" height="864pt"
 viewBox="0.00 0.00 109.20 864.00" xmlns="http://www.w3.org/2000/svg" xmlns:xlink="http://www.w3.org/1999/xlink">
<g id="graph0" class="graph" transform="scale(0.17543 0.17543) rotate(0) translate(4 4921.05)">
<title>inheritance8b7f5833ed</title>
<!-- FunctionKeyword -->
<g id="node1" class="node">
<title>FunctionKeyword</title>
<g id="a_node1"><a xlink:href="../pyVHDLParser/pyVHDLParser.Token.Keywords.html#pyVHDLParser.Token.Keywords.FunctionKeyword" xlink:title="FunctionKeyword" target="_top">
<polygon fill="white" stroke="#1e90ff" points="614.5,-2467.78 486,-2467.78 486,-2449.28 614.5,-2449.28 614.5,-2467.78"/>
<text text-anchor="middle" x="550.25" y="-2454.28" font-family="Vera Sans, DejaVu Sans, Liberation Sans, Arial, Helvetica, sans" font-size="10.00">FunctionKeyword</text>
</a>
</g>
</g>
<!-- KeywordToken -->
<g id="node2" class="node">
<title>KeywordToken</title>
<g id="a_node2"><a xlink:href="../pyVHDLParser/pyVHDLParser.Token.Keywords.html#pyVHDLParser.Token.Keywords.KeywordToken" xlink:title="KeywordToken" target="_top">
<polygon fill="white" stroke="#1e90ff" points="450,-2467.78 344,-2467.78 344,-2449.28 450,-2449.28 450,-2467.78"/>
<text text-anchor="middle" x="397" y="-2454.28" font-family="Vera Sans, DejaVu Sans, Liberation Sans, Arial, Helvetica, sans" font-size="10.00">KeywordToken</text>
</a>
</g>
</g>
<!-- KeywordToken&#45;&gt;FunctionKeyword -->
<g id="edge1" class="edge">
<title>KeywordToken&#45;&gt;FunctionKeyword</title>
<path fill="none" stroke="black" stroke-width="0.5" d="M450.48,-2458.53C459.96,-2458.53 469.99,-2458.53 479.87,-2458.53"/>
<polygon fill="black" stroke="black" stroke-width="0.5" points="480.66,-2460.28 485.66,-2458.53 480.66,-2456.78 480.66,-2460.28"/>
</g>
<!-- VHDLToken -->
<g id="node3" class="node">
<title>VHDLToken</title>
<g id="a_node3"><a xlink:href="../pyVHDLParser.Token.html#pyVHDLParser.Token.VHDLToken" xlink:title="Base&#45;class for all VHDL specific tokens." target="_top">
<polygon fill="white" stroke="#1e90ff" points="308,-4917.05 224.5,-4917.05 224.5,0 308,0 308,-4917.05"/>
<text text-anchor="middle" x="266.25" y="-4903.55" font-family="Vera Sans, DejaVu Sans, Liberation Sans, Arial, Helvetica, sans" font-size="10.00">VHDLToken</text>
</a>
</g>
</g>
<!-- VHDLToken&#45;&gt;KeywordToken -->
<g id="edge2" class="edge">
<title>VHDLToken&#45;&gt;KeywordToken</title>
<path fill="none" stroke="black" stroke-width="0.5" d="M308.34,-2458.53C317.69,-2458.53 327.8,-2458.53 337.71,-2458.53"/>
<polygon fill="black" stroke="black" stroke-width="0.5" points="338.52,-2460.28 343.52,-2458.53 338.52,-2456.78 338.52,-2460.28"/>
</g>
<!-- Token -->
<g id="node4" class="node">
<title>Token</title>
<g id="a_node4"><a xlink:href="../pyVHDLParser.Token.html#pyVHDLParser.Token.Token" xlink:title="Base&#45;class for all token classes." target="_top">
<polygon fill="white" stroke="#1e90ff" points="54,-4917.01 0,-4917.01 0,-0.05 54,-0.05 54,-4917.01"/>
<text text-anchor="middle" x="27" y="-4903.51" font-family="Vera Sans, DejaVu Sans, Liberation Sans, Arial, Helvetica, sans" font-size="10.00">Token</text>
</a>
</g>
</g>
<!-- ValuedToken -->
<g id="node5" class="node">
<title>ValuedToken</title>
<g id="a_node5"><a xlink:href="../pyVHDLParser.Token.html#pyVHDLParser.Token.ValuedToken" xlink:title="Base&#45;class for all *valued* token." target="_top">
<polygon fill="white" stroke="#1e90ff" points="188.5,-2467.78 90,-2467.78 90,-2449.28 188.5,-2449.28 188.5,-2467.78"/>
<text text-anchor="middle" x="139.25" y="-2454.28" font-family="Vera Sans, DejaVu Sans, Liberation Sans, Arial, Helvetica, sans" font-size="10.00">ValuedToken</text>
</a>
</g>
</g>
<!-- Token&#45;&gt;ValuedToken -->
<g id="edge4" class="edge">
<title>Token&#45;&gt;ValuedToken</title>
<path fill="none" stroke="black" stroke-width="0.5" d="M54.41,-2458.53C63.25,-2458.53 73.45,-2458.53 83.64,-2458.53"/>
<polygon fill="black" stroke="black" stroke-width="0.5" points="84.62,-2460.28 89.62,-2458.53 84.62,-2456.78 84.62,-2460.28"/>
</g>
<!-- ValuedToken&#45;&gt;VHDLToken -->
<g id="edge3" class="edge">
<title>ValuedToken&#45;&gt;VHDLToken</title>
<path fill="none" stroke="black" stroke-width="0.5" d="M188.94,-2458.53C198.59,-2458.53 208.7,-2458.53 218.29,-2458.53"/>
<polygon fill="black" stroke="black" stroke-width="0.5" points="219.19,-2460.28 224.19,-2458.53 219.19,-2456.78 219.19,-2460.28"/>
</g>
</g>
</svg>
