<?xml version="1.0" encoding="UTF-8" standalone="no"?>
<!DOCTYPE svg PUBLIC "-//W3C//DTD SVG 1.1//EN"
 "http://www.w3.org/Graphics/SVG/1.1/DTD/svg11.dtd">
<!-- Generated by graphviz version 8.0.5 (20230430.1635)
 -->
<!-- Title: inheritancee4a29086ea Pages: 1 -->
<svg width="0pt" height="864pt"
 viewBox="0.00 0.00 0.43 864.00" xmlns="http://www.w3.org/2000/svg" xmlns:xlink="http://www.w3.org/1999/xlink">
<g id="graph0" class="graph" transform="scale(0.00110648 0.00110648) rotate(0) translate(4 780851.86)">
<title>inheritancee4a29086ea</title>
<!-- BeginBlock -->
<g id="node1" class="node">
<title>BeginBlock</title>
<g id="a_node1"><a xlink:href="../pyVHDLParser.Blocks.Generic1.html#pyVHDLParser.Blocks.Generic1.BeginBlock" xlink:title="BeginBlock" target="_top">
<polygon fill="white" stroke="#1e90ff" points="181,-780847.86 90,-780847.86 90,0 181,0 181,-780847.86"/>
<text text-anchor="middle" x="135.5" y="-780834.36" font-family="Vera Sans, DejaVu Sans, Liberation Sans, Arial, Helvetica, sans" font-size="10.00">BeginBlock</text>
</a>
</g>
</g>
<!-- SequentialBeginBlock -->
<g id="node3" class="node">
<title>SequentialBeginBlock</title>
<g id="a_node3"><a xlink:href="../pyVHDLParser/pyVHDLParser.Blocks.Generic.html#pyVHDLParser.Blocks.Generic.SequentialBeginBlock" xlink:title="SequentialBeginBlock" target="_top">
<polygon fill="white" stroke="#1e90ff" points="383,-390433.18 217,-390433.18 217,-390414.68 383,-390414.68 383,-390433.18"/>
<text text-anchor="middle" x="300" y="-390419.68" font-family="Vera Sans, DejaVu Sans, Liberation Sans, Arial, Helvetica, sans" font-size="10.00">SequentialBeginBlock</text>
</a>
</g>
</g>
<!-- BeginBlock&#45;&gt;SequentialBeginBlock -->
<g id="edge2" class="edge">
<title>BeginBlock&#45;&gt;SequentialBeginBlock</title>
<path fill="none" stroke="black" stroke-width="0.5" d="M181.33,-390423.93C190.52,-390423.93 200.49,-390423.93 210.61,-390423.93"/>
<polygon fill="black" stroke="black" stroke-width="0.5" points="211.58,-390425.68 216.58,-390423.93 211.58,-390422.18 211.58,-390425.68"/>
</g>
<!-- Block -->
<g id="node2" class="node">
<title>Block</title>
<g id="a_node2"><a xlink:href="../pyVHDLParser.Blocks.html#pyVHDLParser.Blocks.Block" xlink:title="Base&#45;class for all :term:`block` classes." target="_top">
<polygon fill="white" stroke="#1e90ff" points="54,-390433.18 0,-390433.18 0,-390414.68 54,-390414.68 54,-390433.18"/>
<text text-anchor="middle" x="27" y="-390419.68" font-family="Vera Sans, DejaVu Sans, Liberation Sans, Arial, Helvetica, sans" font-size="10.00">Block</text>
</a>
</g>
</g>
<!-- Block&#45;&gt;BeginBlock -->
<g id="edge1" class="edge">
<title>Block&#45;&gt;BeginBlock</title>
<path fill="none" stroke="black" stroke-width="0.5" d="M54.33,-390423.93C63.29,-390423.93 73.62,-390423.93 83.84,-390423.93"/>
<polygon fill="black" stroke="black" stroke-width="0.5" points="84.82,-390425.68 89.82,-390423.93 84.82,-390422.18 84.82,-390425.68"/>
</g>
</g>
</svg>
