<?xml version="1.0" encoding="UTF-8" standalone="no"?>
<!DOCTYPE svg PUBLIC "-//W3C//DTD SVG 1.1//EN"
 "http://www.w3.org/Graphics/SVG/1.1/DTD/svg11.dtd">
<!-- Generated by graphviz version 8.0.5 (20230430.1635)
 -->
<!-- Title: inheritancefc96cc158b Pages: 1 -->
<svg width="0pt" height="864pt"
 viewBox="0.00 0.00 0.27 864.00" xmlns="http://www.w3.org/2000/svg" xmlns:xlink="http://www.w3.org/1999/xlink">
<g id="graph0" class="graph" transform="scale(0.000606171 0.000606171) rotate(0) translate(4 1425336.31)">
<title>inheritancefc96cc158b</title>
<!-- StartOf -->
<g id="node1" class="node">
<title>StartOf</title>
<g id="a_node1"><a xlink:title="Base&#45;class (mixin) for all StartOf*** classes.">
<polygon fill="white" stroke="#1e90ff" points="68.5,-761826.93 0,-761826.93 0,-761808.43 68.5,-761808.43 68.5,-761826.93"/>
<text text-anchor="middle" x="34.25" y="-761813.43" font-family="Vera Sans, DejaVu Sans, Liberation Sans, Arial, Helvetica, sans" font-size="10.00">StartOf</text>
</a>
</g>
</g>
<!-- StartOfDocument -->
<g id="node2" class="node">
<title>StartOfDocument</title>
<g id="a_node2"><a xlink:title="Base&#45;class (mixin) for all StartOf***Document classes.">
<polygon fill="white" stroke="#1e90ff" points="233,-761826.93 104.5,-761826.93 104.5,-761808.43 233,-761808.43 233,-761826.93"/>
<text text-anchor="middle" x="168.75" y="-761813.43" font-family="Vera Sans, DejaVu Sans, Liberation Sans, Arial, Helvetica, sans" font-size="10.00">StartOfDocument</text>
</a>
</g>
</g>
<!-- StartOf&#45;&gt;StartOfDocument -->
<g id="edge1" class="edge">
<title>StartOf&#45;&gt;StartOfDocument</title>
<path fill="none" stroke="black" stroke-width="0.5" d="M68.69,-761817.68C77.81,-761817.68 88.04,-761817.68 98.37,-761817.68"/>
<polygon fill="black" stroke="black" stroke-width="0.5" points="99.11,-761819.43 104.11,-761817.68 99.11,-761815.93 99.11,-761819.43"/>
</g>
<!-- StartOfDocumentToken -->
<g id="node3" class="node">
<title>StartOfDocumentToken</title>
<g id="a_node3"><a xlink:href="../../pyVHDLParser/pyVHDLParser.Token.html#pyVHDLParser.Token.StartOfDocumentToken" xlink:title="StartOfDocumentToken" target="_top">
<polygon fill="white" stroke="#1e90ff" points="435,-1425332.31 269,-1425332.31 269,-32767.04 435,-32767.04 435,-1425332.31"/>
<text text-anchor="middle" x="352" y="-1425318.81" font-family="Vera Sans, DejaVu Sans, Liberation Sans, Arial, Helvetica, sans" font-size="10.00">StartOfDocumentToken</text>
</a>
</g>
</g>
<!-- StartOfDocument&#45;&gt;StartOfDocumentToken -->
<g id="edge3" class="edge">
<title>StartOfDocument&#45;&gt;StartOfDocumentToken</title>
<path fill="none" stroke="black" stroke-width="0.5" d="M229.79,-761808.05C230.93,-761807.01 232.01,-761805.89 233,-761804.68 245.66,-761789.21 257.52,-760766.96 268.46,-759092.39"/>
<polygon fill="black" stroke="black" stroke-width="0.5" points="270.22,-759091.57 268.5,-759086.56 266.72,-759091.55 270.22,-759091.57"/>
</g>
<!-- StartOfToken -->
<g id="node4" class="node">
<title>StartOfToken</title>
<g id="a_node4"><a xlink:href="../../pyVHDLParser/pyVHDLParser.Token.html#pyVHDLParser.Token.StartOfToken" xlink:title="Base&#45;class for meta&#45;tokens representing the start of a token stream." target="_top">
<polygon fill="white" stroke="#1e90ff" points="221.75,-1392565.36 115.75,-1392565.36 115.75,0 221.75,0 221.75,-1392565.36"/>
<text text-anchor="middle" x="168.75" y="-1392551.86" font-family="Vera Sans, DejaVu Sans, Liberation Sans, Arial, Helvetica, sans" font-size="10.00">StartOfToken</text>
</a>
</g>
</g>
<!-- StartOfToken&#45;&gt;StartOfDocumentToken -->
<g id="edge2" class="edge">
<title>StartOfToken&#45;&gt;StartOfDocumentToken</title>
<path fill="none" stroke="black" stroke-width="0.5" d="M222.25,-705773.66C236.71,-708387.77 252.75,-711288.18 268.47,-714129.43"/>
<polygon fill="black" stroke="black" stroke-width="0.5" points="266.72,-714130.43 268.5,-714135.42 270.22,-714130.41 266.72,-714130.43"/>
</g>
<!-- Token -->
<g id="node5" class="node">
<title>Token</title>
<g id="a_node5"><a xlink:href="../../pyVHDLParser/pyVHDLParser.Token.html#pyVHDLParser.Token.Token" xlink:title="Base&#45;class for all token classes." target="_top">
<polygon fill="white" stroke="#1e90ff" points="61.25,-696297.43 7.25,-696297.43 7.25,-696267.93 61.25,-696267.93 61.25,-696297.43"/>
<text text-anchor="middle" x="34.25" y="-696283.93" font-family="Vera Sans, DejaVu Sans, Liberation Sans, Arial, Helvetica, sans" font-size="10.00">Token</text>
</a>
</g>
</g>
<!-- Token&#45;&gt;StartOfToken -->
<g id="edge4" class="edge">
<title>Token&#45;&gt;StartOfToken</title>
<path fill="none" stroke="black" stroke-width="0.5" d="M61.74,-696282.68C75.52,-696282.68 92.93,-696282.68 109.64,-696282.68"/>
<polygon fill="black" stroke="black" stroke-width="0.5" points="110.27,-696284.43 115.27,-696282.68 110.27,-696280.93 110.27,-696284.43"/>
</g>
</g>
</svg>
