<?xml version="1.0" encoding="UTF-8" standalone="no"?>
<!DOCTYPE svg PUBLIC "-//W3C//DTD SVG 1.1//EN"
 "http://www.w3.org/Graphics/SVG/1.1/DTD/svg11.dtd">
<!-- Generated by graphviz version 8.0.5 (20230430.1635)
 -->
<!-- Title: inheritanced410792e39 Pages: 1 -->
<svg width="1pt" height="864pt"
 viewBox="0.00 0.00 0.85 864.00" xmlns="http://www.w3.org/2000/svg" xmlns:xlink="http://www.w3.org/1999/xlink">
<g id="graph0" class="graph" transform="scale(0.000749237 0.000749237) rotate(0) translate(4 1153168.65)">
<title>inheritanced410792e39</title>
<!-- MatchingGreaterThanOrEqualOperator -->
<g id="node1" class="node">
<title>MatchingGreaterThanOrEqualOperator</title>
<g id="a_node1"><a xlink:href="../pyVHDLParser/pyVHDLParser.Token.Keywords.html#pyVHDLParser.Token.Keywords.MatchingGreaterThanOrEqualOperator" xlink:title="MatchingGreaterThanOrEqualOperator" target="_top">
<polygon fill="white" stroke="#1e90ff" points="1131,-1153163.96 860,-1153163.96 860,-0.7 1131,-0.7 1131,-1153163.96"/>
<text text-anchor="middle" x="995.5" y="-1153150.46" font-family="Vera Sans, DejaVu Sans, Liberation Sans, Arial, Helvetica, sans" font-size="10.00">MatchingGreaterThanOrEqualOperator</text>
</a>
</g>
</g>
<!-- RelationalOperator -->
<g id="node2" class="node">
<title>RelationalOperator</title>
<g id="a_node2"><a xlink:href="../pyVHDLParser/pyVHDLParser.Token.Keywords.html#pyVHDLParser.Token.Keywords.RelationalOperator" xlink:title="Base&#45;class for all relational operator tokens." target="_top">
<polygon fill="white" stroke="#1e90ff" points="824,-1153164.22 673,-1153164.22 673,-0.43 824,-0.43 824,-1153164.22"/>
<text text-anchor="middle" x="748.5" y="-1153150.72" font-family="Vera Sans, DejaVu Sans, Liberation Sans, Arial, Helvetica, sans" font-size="10.00">RelationalOperator</text>
</a>
</g>
</g>
<!-- RelationalOperator&#45;&gt;MatchingGreaterThanOrEqualOperator -->
<g id="edge1" class="edge">
<title>RelationalOperator&#45;&gt;MatchingGreaterThanOrEqualOperator</title>
<path fill="none" stroke="black" stroke-width="0.5" d="M824.34,-576582.33C833.75,-576582.33 843.61,-576582.33 853.63,-576582.33"/>
<polygon fill="black" stroke="black" stroke-width="0.5" points="854.55,-576584.08 859.55,-576582.33 854.55,-576580.58 854.55,-576584.08"/>
</g>
<!-- OperatorToken -->
<g id="node3" class="node">
<title>OperatorToken</title>
<g id="a_node3"><a xlink:href="../pyVHDLParser/pyVHDLParser.Token.Keywords.html#pyVHDLParser.Token.Keywords.OperatorToken" xlink:title="Base&#45;class for all operator tokens." target="_top">
<polygon fill="white" stroke="#1e90ff" points="637,-1153157.4 523.5,-1153157.4 523.5,-7.25 637,-7.25 637,-1153157.4"/>
<text text-anchor="middle" x="580.25" y="-1153143.9" font-family="Vera Sans, DejaVu Sans, Liberation Sans, Arial, Helvetica, sans" font-size="10.00">OperatorToken</text>
</a>
</g>
</g>
<!-- OperatorToken&#45;&gt;RelationalOperator -->
<g id="edge3" class="edge">
<title>OperatorToken&#45;&gt;RelationalOperator</title>
<path fill="none" stroke="black" stroke-width="0.5" d="M637.07,-576582.33C646.61,-576582.33 656.69,-576582.33 666.73,-576582.33"/>
<polygon fill="black" stroke="black" stroke-width="0.5" points="667.63,-576584.08 672.63,-576582.33 667.63,-576580.58 667.63,-576584.08"/>
</g>
<!-- SpecificVHDLToken -->
<g id="node4" class="node">
<title>SpecificVHDLToken</title>
<g id="a_node4"><a xlink:href="../pyVHDLParser/pyVHDLParser.Token.Keywords.html#pyVHDLParser.Token.Keywords.SpecificVHDLToken" xlink:title="Base&#45;class for all specific tokens." target="_top">
<polygon fill="white" stroke="#1e90ff" points="487.5,-1153164.65 344,-1153164.65 344,0 487.5,0 487.5,-1153164.65"/>
<text text-anchor="middle" x="415.75" y="-1153151.15" font-family="Vera Sans, DejaVu Sans, Liberation Sans, Arial, Helvetica, sans" font-size="10.00">SpecificVHDLToken</text>
</a>
</g>
</g>
<!-- SpecificVHDLToken&#45;&gt;OperatorToken -->
<g id="edge2" class="edge">
<title>SpecificVHDLToken&#45;&gt;OperatorToken</title>
<path fill="none" stroke="black" stroke-width="0.5" d="M487.55,-576582.33C497.56,-576582.33 507.79,-576582.33 517.6,-576582.33"/>
<polygon fill="black" stroke="black" stroke-width="0.5" points="518.33,-576584.08 523.33,-576582.33 518.33,-576580.58 518.33,-576584.08"/>
</g>
<!-- VHDLToken -->
<g id="node5" class="node">
<title>VHDLToken</title>
<g id="a_node5"><a xlink:href="../pyVHDLParser.Token.html#pyVHDLParser.Token.VHDLToken" xlink:title="Base&#45;class for all VHDL specific tokens." target="_top">
<polygon fill="white" stroke="#1e90ff" points="308,-576591.58 224.5,-576591.58 224.5,-576573.08 308,-576573.08 308,-576591.58"/>
<text text-anchor="middle" x="266.25" y="-576578.08" font-family="Vera Sans, DejaVu Sans, Liberation Sans, Arial, Helvetica, sans" font-size="10.00">VHDLToken</text>
</a>
</g>
</g>
<!-- VHDLToken&#45;&gt;SpecificVHDLToken -->
<g id="edge4" class="edge">
<title>VHDLToken&#45;&gt;SpecificVHDLToken</title>
<path fill="none" stroke="black" stroke-width="0.5" d="M308.34,-576582.33C317.53,-576582.33 327.57,-576582.33 337.69,-576582.33"/>
<polygon fill="black" stroke="black" stroke-width="0.5" points="338.66,-576584.08 343.66,-576582.33 338.66,-576580.58 338.66,-576584.08"/>
</g>
<!-- Token -->
<g id="node6" class="node">
<title>Token</title>
<g id="a_node6"><a xlink:href="../pyVHDLParser.Token.html#pyVHDLParser.Token.Token" xlink:title="Base&#45;class for all token classes." target="_top">
<polygon fill="white" stroke="#1e90ff" points="54,-576591.58 0,-576591.58 0,-576573.08 54,-576573.08 54,-576591.58"/>
<text text-anchor="middle" x="27" y="-576578.08" font-family="Vera Sans, DejaVu Sans, Liberation Sans, Arial, Helvetica, sans" font-size="10.00">Token</text>
</a>
</g>
</g>
<!-- ValuedToken -->
<g id="node7" class="node">
<title>ValuedToken</title>
<g id="a_node7"><a xlink:href="../pyVHDLParser.Token.html#pyVHDLParser.Token.ValuedToken" xlink:title="Base&#45;class for all *valued* token." target="_top">
<polygon fill="white" stroke="#1e90ff" points="188.5,-576591.58 90,-576591.58 90,-576573.08 188.5,-576573.08 188.5,-576591.58"/>
<text text-anchor="middle" x="139.25" y="-576578.08" font-family="Vera Sans, DejaVu Sans, Liberation Sans, Arial, Helvetica, sans" font-size="10.00">ValuedToken</text>
</a>
</g>
</g>
<!-- Token&#45;&gt;ValuedToken -->
<g id="edge6" class="edge">
<title>Token&#45;&gt;ValuedToken</title>
<path fill="none" stroke="black" stroke-width="0.5" d="M54.41,-576582.33C63.25,-576582.33 73.45,-576582.33 83.64,-576582.33"/>
<polygon fill="black" stroke="black" stroke-width="0.5" points="84.62,-576584.08 89.62,-576582.33 84.62,-576580.58 84.62,-576584.08"/>
</g>
<!-- ValuedToken&#45;&gt;VHDLToken -->
<g id="edge5" class="edge">
<title>ValuedToken&#45;&gt;VHDLToken</title>
<path fill="none" stroke="black" stroke-width="0.5" d="M188.94,-576582.33C198.59,-576582.33 208.7,-576582.33 218.29,-576582.33"/>
<polygon fill="black" stroke="black" stroke-width="0.5" points="219.19,-576584.08 224.19,-576582.33 219.19,-576580.58 219.19,-576584.08"/>
</g>
</g>
</svg>
