<?xml version="1.0" encoding="UTF-8" standalone="no"?>
<!DOCTYPE svg PUBLIC "-//W3C//DTD SVG 1.1//EN"
 "http://www.w3.org/Graphics/SVG/1.1/DTD/svg11.dtd">
<!-- Generated by graphviz version 8.0.5 (20230430.1635)
 -->
<!-- Title: inheritance7ce54a016e Pages: 1 -->
<svg width="0pt" height="864pt"
 viewBox="0.00 0.00 0.25 864.00" xmlns="http://www.w3.org/2000/svg" xmlns:xlink="http://www.w3.org/1999/xlink">
<g id="graph0" class="graph" transform="scale(0.000585429 0.000585429) rotate(0) translate(4 1475836.49)">
<title>inheritance7ce54a016e</title>
<!-- Block -->
<g id="node1" class="node">
<title>Block</title>
<g id="a_node1"><a xlink:href="../pyVHDLParser/pyVHDLParser.Blocks.html#pyVHDLParser.Blocks.Block" xlink:title="Base&#45;class for all :term:`block` classes." target="_top">
<polygon fill="white" stroke="#1e90ff" points="61.25,-770688.82 7.25,-770688.82 7.25,-770670.32 61.25,-770670.32 61.25,-770688.82"/>
<text text-anchor="middle" x="34.25" y="-770675.32" font-family="Vera Sans, DejaVu Sans, Liberation Sans, Arial, Helvetica, sans" font-size="10.00">Block</text>
</a>
</g>
</g>
<!-- StartOfBlock -->
<g id="node3" class="node">
<title>StartOfBlock</title>
<g id="a_node3"><a xlink:href="../pyVHDLParser/pyVHDLParser.Blocks.html#pyVHDLParser.Blocks.StartOfBlock" xlink:title="Base&#45;class for a first block in a sequence of double&#45;linked blocks." target="_top">
<polygon fill="white" stroke="#1e90ff" points="218,-1475832.49 112,-1475832.49 112,-65526.64 218,-65526.64 218,-1475832.49"/>
<text text-anchor="middle" x="165" y="-1475818.99" font-family="Vera Sans, DejaVu Sans, Liberation Sans, Arial, Helvetica, sans" font-size="10.00">StartOfBlock</text>
</a>
</g>
</g>
<!-- Block&#45;&gt;StartOfBlock -->
<g id="edge1" class="edge">
<title>Block&#45;&gt;StartOfBlock</title>
<path fill="none" stroke="black" stroke-width="0.5" d="M61.62,-770679.57C74.46,-770679.57 90.44,-770679.57 105.94,-770679.57"/>
<polygon fill="black" stroke="black" stroke-width="0.5" points="106.62,-770681.32 111.62,-770679.57 106.62,-770677.82 106.62,-770681.32"/>
</g>
<!-- StartOf -->
<g id="node2" class="node">
<title>StartOf</title>
<g id="a_node2"><a xlink:title="Base&#45;class (mixin) for all StartOf*** classes.">
<polygon fill="white" stroke="#1e90ff" points="68.5,-705153.82 0,-705153.82 0,-705135.32 68.5,-705135.32 68.5,-705153.82"/>
<text text-anchor="middle" x="34.25" y="-705140.32" font-family="Vera Sans, DejaVu Sans, Liberation Sans, Arial, Helvetica, sans" font-size="10.00">StartOf</text>
</a>
</g>
</g>
<!-- StartOfSnippet -->
<g id="node4" class="node">
<title>StartOfSnippet</title>
<g id="a_node4"><a xlink:title="Base&#45;class (mixin) for all StartOf***Snippet classes.">
<polygon fill="white" stroke="#1e90ff" points="225.5,-1410289.13 104.5,-1410289.13 104.5,0 225.5,0 225.5,-1410289.13"/>
<text text-anchor="middle" x="165" y="-1410275.63" font-family="Vera Sans, DejaVu Sans, Liberation Sans, Arial, Helvetica, sans" font-size="10.00">StartOfSnippet</text>
</a>
</g>
</g>
<!-- StartOf&#45;&gt;StartOfSnippet -->
<g id="edge2" class="edge">
<title>StartOf&#45;&gt;StartOfSnippet</title>
<path fill="none" stroke="black" stroke-width="0.5" d="M68.74,-705144.57C77.92,-705144.57 88.2,-705144.57 98.51,-705144.57"/>
<polygon fill="black" stroke="black" stroke-width="0.5" points="99.24,-705146.32 104.24,-705144.57 99.24,-705142.82 99.24,-705146.32"/>
</g>
<!-- StartOfSnippetBlock -->
<g id="node5" class="node">
<title>StartOfSnippetBlock</title>
<g id="a_node5"><a xlink:href="../pyVHDLParser/pyVHDLParser.Blocks.html#pyVHDLParser.Blocks.StartOfSnippetBlock" xlink:title="StartOfSnippetBlock" target="_top">
<polygon fill="white" stroke="#1e90ff" points="420,-737926.31 261.5,-737926.31 261.5,-737896.82 420,-737896.82 420,-737926.31"/>
<text text-anchor="middle" x="340.75" y="-737912.81" font-family="Vera Sans, DejaVu Sans, Liberation Sans, Arial, Helvetica, sans" font-size="10.00">StartOfSnippetBlock</text>
</a>
</g>
</g>
<!-- StartOfBlock&#45;&gt;StartOfSnippetBlock -->
<g id="edge3" class="edge">
<title>StartOfBlock&#45;&gt;StartOfSnippetBlock</title>
<path fill="none" stroke="black" stroke-width="0.5" d="M218.5,-760778.63C268.46,-751355.51 336.52,-738521.04 339.64,-737932.56"/>
<polygon fill="black" stroke="black" stroke-width="0.5" points="341.39,-737931.58 339.67,-737926.57 337.89,-737931.56 341.39,-737931.58"/>
</g>
<!-- StartOfSnippet&#45;&gt;StartOfSnippetBlock -->
<g id="edge4" class="edge">
<title>StartOfSnippet&#45;&gt;StartOfSnippetBlock</title>
<path fill="none" stroke="black" stroke-width="0.5" d="M226,-716459.46C275.02,-725703.57 336.7,-737335.72 339.64,-737890.9"/>
<polygon fill="black" stroke="black" stroke-width="0.5" points="337.89,-737891.59 339.67,-737896.58 341.39,-737891.57 337.89,-737891.59"/>
</g>
</g>
</svg>
