<?xml version="1.0" encoding="UTF-8" standalone="no"?>
<!DOCTYPE svg PUBLIC "-//W3C//DTD SVG 1.1//EN"
 "http://www.w3.org/Graphics/SVG/1.1/DTD/svg11.dtd">
<!-- Generated by graphviz version 8.0.5 (20230430.1635)
 -->
<!-- Title: inheritance0a1eb008d2 Pages: 1 -->
<svg width="2pt" height="864pt"
 viewBox="0.00 0.00 2.12 864.00" xmlns="http://www.w3.org/2000/svg" xmlns:xlink="http://www.w3.org/1999/xlink">
<g id="graph0" class="graph" transform="scale(0.00318031 0.00318031) rotate(0) translate(4 271667.36)">
<title>inheritance0a1eb008d2</title>
<!-- CharacterLiteralToken -->
<g id="node1" class="node">
<title>CharacterLiteralToken</title>
<g id="a_node1"><a xlink:href="../pyVHDLParser/pyVHDLParser.Token.html#pyVHDLParser.Token.CharacterLiteralToken" xlink:title="Token representing a character literal in VHDL." target="_top">
<polygon fill="white" stroke="#1e90ff" points="659.5,-135840.93 486,-135840.93 486,-135822.43 659.5,-135822.43 659.5,-135840.93"/>
<text text-anchor="middle" x="572.75" y="-135827.43" font-family="Vera Sans, DejaVu Sans, Liberation Sans, Arial, Helvetica, sans" font-size="10.00">CharacterLiteralToken</text>
</a>
</g>
</g>
<!-- LiteralToken -->
<g id="node2" class="node">
<title>LiteralToken</title>
<g id="a_node2"><a xlink:href="../pyVHDLParser/pyVHDLParser.Token.html#pyVHDLParser.Token.LiteralToken" xlink:title="Base&#45;class for all literals in VHDL." target="_top">
<polygon fill="white" stroke="#1e90ff" points="450,-135840.93 344,-135840.93 344,-135822.43 450,-135822.43 450,-135840.93"/>
<text text-anchor="middle" x="397" y="-135827.43" font-family="Vera Sans, DejaVu Sans, Liberation Sans, Arial, Helvetica, sans" font-size="10.00">LiteralToken</text>
</a>
</g>
</g>
<!-- LiteralToken&#45;&gt;CharacterLiteralToken -->
<g id="edge1" class="edge">
<title>LiteralToken&#45;&gt;CharacterLiteralToken</title>
<path fill="none" stroke="black" stroke-width="0.5" d="M450.13,-135831.68C459.49,-135831.68 469.49,-135831.68 479.59,-135831.68"/>
<polygon fill="black" stroke="black" stroke-width="0.5" points="480.54,-135833.43 485.54,-135831.68 480.54,-135829.93 480.54,-135833.43"/>
</g>
<!-- VHDLToken -->
<g id="node3" class="node">
<title>VHDLToken</title>
<g id="a_node3"><a xlink:href="../pyVHDLParser/pyVHDLParser.Token.html#pyVHDLParser.Token.VHDLToken" xlink:title="Base&#45;class for all VHDL specific tokens." target="_top">
<polygon fill="white" stroke="#1e90ff" points="308,-271663.31 224.5,-271663.31 224.5,-0.05 308,-0.05 308,-271663.31"/>
<text text-anchor="middle" x="266.25" y="-271649.81" font-family="Vera Sans, DejaVu Sans, Liberation Sans, Arial, Helvetica, sans" font-size="10.00">VHDLToken</text>
</a>
</g>
</g>
<!-- VHDLToken&#45;&gt;LiteralToken -->
<g id="edge2" class="edge">
<title>VHDLToken&#45;&gt;LiteralToken</title>
<path fill="none" stroke="black" stroke-width="0.5" d="M308.34,-135831.68C317.69,-135831.68 327.8,-135831.68 337.71,-135831.68"/>
<polygon fill="black" stroke="black" stroke-width="0.5" points="338.52,-135833.43 343.52,-135831.68 338.52,-135829.93 338.52,-135833.43"/>
</g>
<!-- Token -->
<g id="node4" class="node">
<title>Token</title>
<g id="a_node4"><a xlink:href="../pyVHDLParser/pyVHDLParser.Token.html#pyVHDLParser.Token.Token" xlink:title="Base&#45;class for all token classes." target="_top">
<polygon fill="white" stroke="#1e90ff" points="54,-271663.36 0,-271663.36 0,0 54,0 54,-271663.36"/>
<text text-anchor="middle" x="27" y="-271649.86" font-family="Vera Sans, DejaVu Sans, Liberation Sans, Arial, Helvetica, sans" font-size="10.00">Token</text>
</a>
</g>
</g>
<!-- ValuedToken -->
<g id="node5" class="node">
<title>ValuedToken</title>
<g id="a_node5"><a xlink:href="../pyVHDLParser/pyVHDLParser.Token.html#pyVHDLParser.Token.ValuedToken" xlink:title="Base&#45;class for all *valued* token." target="_top">
<polygon fill="white" stroke="#1e90ff" points="188.5,-135840.93 90,-135840.93 90,-135822.43 188.5,-135822.43 188.5,-135840.93"/>
<text text-anchor="middle" x="139.25" y="-135827.43" font-family="Vera Sans, DejaVu Sans, Liberation Sans, Arial, Helvetica, sans" font-size="10.00">ValuedToken</text>
</a>
</g>
</g>
<!-- Token&#45;&gt;ValuedToken -->
<g id="edge4" class="edge">
<title>Token&#45;&gt;ValuedToken</title>
<path fill="none" stroke="black" stroke-width="0.5" d="M54.41,-135831.68C63.25,-135831.68 73.45,-135831.68 83.64,-135831.68"/>
<polygon fill="black" stroke="black" stroke-width="0.5" points="84.62,-135833.43 89.62,-135831.68 84.62,-135829.93 84.62,-135833.43"/>
</g>
<!-- ValuedToken&#45;&gt;VHDLToken -->
<g id="edge3" class="edge">
<title>ValuedToken&#45;&gt;VHDLToken</title>
<path fill="none" stroke="black" stroke-width="0.5" d="M188.94,-135831.68C198.59,-135831.68 208.7,-135831.68 218.29,-135831.68"/>
<polygon fill="black" stroke="black" stroke-width="0.5" points="219.19,-135833.43 224.19,-135831.68 219.19,-135829.93 219.19,-135833.43"/>
</g>
</g>
</svg>
