<?xml version="1.0" encoding="UTF-8" standalone="no"?>
<!DOCTYPE svg PUBLIC "-//W3C//DTD SVG 1.1//EN"
 "http://www.w3.org/Graphics/SVG/1.1/DTD/svg11.dtd">
<!-- Generated by graphviz version 8.0.5 (20230430.1635)
 -->
<!-- Title: inheritancec49fb4b0f1 Pages: 1 -->
<svg width="0pt" height="864pt"
 viewBox="0.00 0.00 0.24 864.00" xmlns="http://www.w3.org/2000/svg" xmlns:xlink="http://www.w3.org/1999/xlink">
<g id="graph0" class="graph" transform="scale(0.000754933 0.000754933) rotate(0) translate(4 1144467.9)">
<title>inheritancec49fb4b0f1</title>
<!-- SpaceToken -->
<g id="node1" class="node">
<title>SpaceToken</title>
<g id="a_node1"><a xlink:href="../pyVHDLParser/pyVHDLParser.Token.html#pyVHDLParser.Token.SpaceToken" xlink:title="Token representing a space (space or tab)." target="_top">
<polygon fill="white" stroke="#1e90ff" points="315.5,-1144463.9 224.5,-1144463.9 224.5,0 315.5,0 315.5,-1144463.9"/>
<text text-anchor="middle" x="270" y="-1144450.4" font-family="Vera Sans, DejaVu Sans, Liberation Sans, Arial, Helvetica, sans" font-size="10.00">SpaceToken</text>
</a>
</g>
</g>
<!-- ValuedToken -->
<g id="node2" class="node">
<title>ValuedToken</title>
<g id="a_node2"><a xlink:href="../pyVHDLParser/pyVHDLParser.Token.html#pyVHDLParser.Token.ValuedToken" xlink:title="Base&#45;class for all *valued* token." target="_top">
<polygon fill="white" stroke="#1e90ff" points="188.5,-572241.2 90,-572241.2 90,-572222.7 188.5,-572222.7 188.5,-572241.2"/>
<text text-anchor="middle" x="139.25" y="-572227.7" font-family="Vera Sans, DejaVu Sans, Liberation Sans, Arial, Helvetica, sans" font-size="10.00">ValuedToken</text>
</a>
</g>
</g>
<!-- ValuedToken&#45;&gt;SpaceToken -->
<g id="edge1" class="edge">
<title>ValuedToken&#45;&gt;SpaceToken</title>
<path fill="none" stroke="black" stroke-width="0.5" d="M188.92,-572231.95C198.48,-572231.95 208.52,-572231.95 218.15,-572231.95"/>
<polygon fill="black" stroke="black" stroke-width="0.5" points="219.07,-572233.7 224.07,-572231.95 219.07,-572230.2 219.07,-572233.7"/>
</g>
<!-- Token -->
<g id="node3" class="node">
<title>Token</title>
<g id="a_node3"><a xlink:href="../pyVHDLParser/pyVHDLParser.Token.html#pyVHDLParser.Token.Token" xlink:title="Base&#45;class for all token classes." target="_top">
<polygon fill="white" stroke="#1e90ff" points="54,-1144455.13 0,-1144455.13 0,-8.77 54,-8.77 54,-1144455.13"/>
<text text-anchor="middle" x="27" y="-1144441.63" font-family="Vera Sans, DejaVu Sans, Liberation Sans, Arial, Helvetica, sans" font-size="10.00">Token</text>
</a>
</g>
</g>
<!-- Token&#45;&gt;ValuedToken -->
<g id="edge2" class="edge">
<title>Token&#45;&gt;ValuedToken</title>
<path fill="none" stroke="black" stroke-width="0.5" d="M54.41,-572231.95C63.25,-572231.95 73.45,-572231.95 83.64,-572231.95"/>
<polygon fill="black" stroke="black" stroke-width="0.5" points="84.62,-572233.7 89.62,-572231.95 84.62,-572230.2 84.62,-572233.7"/>
</g>
</g>
</svg>
