<?xml version="1.0" encoding="UTF-8" standalone="no"?>
<!DOCTYPE svg PUBLIC "-//W3C//DTD SVG 1.1//EN"
 "http://www.w3.org/Graphics/SVG/1.1/DTD/svg11.dtd">
<!-- Generated by graphviz version 8.0.5 (20230430.1635)
 -->
<!-- Title: inheritance2e9e33798c Pages: 1 -->
<svg width="1pt" height="864pt"
 viewBox="0.00 0.00 0.67 864.00" xmlns="http://www.w3.org/2000/svg" xmlns:xlink="http://www.w3.org/1999/xlink">
<g id="graph0" class="graph" transform="scale(0.00112484 0.00112484) rotate(0) translate(4 768102.54)">
<title>inheritance2e9e33798c</title>
<!-- KeywordToken -->
<g id="node1" class="node">
<title>KeywordToken</title>
<g id="a_node1"><a xlink:href="../pyVHDLParser/pyVHDLParser.Token.Keywords.html#pyVHDLParser.Token.Keywords.KeywordToken" xlink:title="KeywordToken" target="_top">
<polygon fill="white" stroke="#1e90ff" points="450,-384058.52 344,-384058.52 344,-384040.02 450,-384040.02 450,-384058.52"/>
<text text-anchor="middle" x="397" y="-384045.02" font-family="Vera Sans, DejaVu Sans, Liberation Sans, Arial, Helvetica, sans" font-size="10.00">KeywordToken</text>
</a>
</g>
</g>
<!-- RangeKeyword -->
<g id="node3" class="node">
<title>RangeKeyword</title>
<g id="a_node3"><a xlink:href="../pyVHDLParser/pyVHDLParser.Token.Keywords.html#pyVHDLParser.Token.Keywords.RangeKeyword" xlink:title="RangeKeyword" target="_top">
<polygon fill="white" stroke="#1e90ff" points="592,-768098.49 486,-768098.49 486,-0.05 592,-0.05 592,-768098.49"/>
<text text-anchor="middle" x="539" y="-768084.99" font-family="Vera Sans, DejaVu Sans, Liberation Sans, Arial, Helvetica, sans" font-size="10.00">RangeKeyword</text>
</a>
</g>
</g>
<!-- KeywordToken&#45;&gt;RangeKeyword -->
<g id="edge2" class="edge">
<title>KeywordToken&#45;&gt;RangeKeyword</title>
<path fill="none" stroke="black" stroke-width="0.5" d="M450.13,-384049.27C459.88,-384049.27 470.12,-384049.27 480.03,-384049.27"/>
<polygon fill="black" stroke="black" stroke-width="0.5" points="480.83,-384051.02 485.83,-384049.27 480.83,-384047.52 480.83,-384051.02"/>
</g>
<!-- VHDLToken -->
<g id="node2" class="node">
<title>VHDLToken</title>
<g id="a_node2"><a xlink:href="../pyVHDLParser.Token.html#pyVHDLParser.Token.VHDLToken" xlink:title="Base&#45;class for all VHDL specific tokens." target="_top">
<polygon fill="white" stroke="#1e90ff" points="308,-384058.52 224.5,-384058.52 224.5,-384040.02 308,-384040.02 308,-384058.52"/>
<text text-anchor="middle" x="266.25" y="-384045.02" font-family="Vera Sans, DejaVu Sans, Liberation Sans, Arial, Helvetica, sans" font-size="10.00">VHDLToken</text>
</a>
</g>
</g>
<!-- VHDLToken&#45;&gt;KeywordToken -->
<g id="edge1" class="edge">
<title>VHDLToken&#45;&gt;KeywordToken</title>
<path fill="none" stroke="black" stroke-width="0.5" d="M308.34,-384049.27C317.69,-384049.27 327.8,-384049.27 337.71,-384049.27"/>
<polygon fill="black" stroke="black" stroke-width="0.5" points="338.52,-384051.02 343.52,-384049.27 338.52,-384047.52 338.52,-384051.02"/>
</g>
<!-- Token -->
<g id="node4" class="node">
<title>Token</title>
<g id="a_node4"><a xlink:href="../pyVHDLParser.Token.html#pyVHDLParser.Token.Token" xlink:title="Base&#45;class for all token classes." target="_top">
<polygon fill="white" stroke="#1e90ff" points="54,-768098.54 0,-768098.54 0,0 54,0 54,-768098.54"/>
<text text-anchor="middle" x="27" y="-768085.04" font-family="Vera Sans, DejaVu Sans, Liberation Sans, Arial, Helvetica, sans" font-size="10.00">Token</text>
</a>
</g>
</g>
<!-- ValuedToken -->
<g id="node5" class="node">
<title>ValuedToken</title>
<g id="a_node5"><a xlink:href="../pyVHDLParser.Token.html#pyVHDLParser.Token.ValuedToken" xlink:title="Base&#45;class for all *valued* token." target="_top">
<polygon fill="white" stroke="#1e90ff" points="188.5,-384058.52 90,-384058.52 90,-384040.02 188.5,-384040.02 188.5,-384058.52"/>
<text text-anchor="middle" x="139.25" y="-384045.02" font-family="Vera Sans, DejaVu Sans, Liberation Sans, Arial, Helvetica, sans" font-size="10.00">ValuedToken</text>
</a>
</g>
</g>
<!-- Token&#45;&gt;ValuedToken -->
<g id="edge4" class="edge">
<title>Token&#45;&gt;ValuedToken</title>
<path fill="none" stroke="black" stroke-width="0.5" d="M54.41,-384049.27C63.25,-384049.27 73.45,-384049.27 83.64,-384049.27"/>
<polygon fill="black" stroke="black" stroke-width="0.5" points="84.62,-384051.02 89.62,-384049.27 84.62,-384047.52 84.62,-384051.02"/>
</g>
<!-- ValuedToken&#45;&gt;VHDLToken -->
<g id="edge3" class="edge">
<title>ValuedToken&#45;&gt;VHDLToken</title>
<path fill="none" stroke="black" stroke-width="0.5" d="M188.94,-384049.27C198.59,-384049.27 208.7,-384049.27 218.29,-384049.27"/>
<polygon fill="black" stroke="black" stroke-width="0.5" points="219.19,-384051.02 224.19,-384049.27 219.19,-384047.52 219.19,-384051.02"/>
</g>
</g>
</svg>
