<?xml version="1.0" encoding="UTF-8" standalone="no"?>
<!DOCTYPE svg PUBLIC "-//W3C//DTD SVG 1.1//EN"
 "http://www.w3.org/Graphics/SVG/1.1/DTD/svg11.dtd">
<!-- Generated by graphviz version 8.0.5 (20230430.1635)
 -->
<!-- Title: inheritance008ebaa2b2 Pages: 1 -->
<svg width="35pt" height="864pt"
 viewBox="0.00 0.00 34.59 864.00" xmlns="http://www.w3.org/2000/svg" xmlns:xlink="http://www.w3.org/1999/xlink">
<g id="graph0" class="graph" transform="scale(0.0919966 0.0919966) rotate(0) translate(4 9387.66)">
<title>inheritance008ebaa2b2</title>
<!-- Block -->
<g id="node1" class="node">
<title>Block</title>
<g id="a_node1"><a xlink:href="../pyVHDLParser.Blocks.html#pyVHDLParser.Blocks.Block" xlink:title="Base&#45;class for all :term:`block` classes." target="_top">
<polygon fill="white" stroke="#1e90ff" points="54,-9383.66 0,-9383.66 0,0 54,0 54,-9383.66"/>
<text text-anchor="middle" x="27" y="-9370.16" font-family="Vera Sans, DejaVu Sans, Liberation Sans, Arial, Helvetica, sans" font-size="10.00">Block</text>
</a>
</g>
</g>
<!-- SkipableBlock -->
<g id="node2" class="node">
<title>SkipableBlock</title>
<g id="a_node2"><a xlink:href="../pyVHDLParser.Blocks.html#pyVHDLParser.Blocks.SkipableBlock" xlink:title="Base&#45;class for blocks that can be skipped in fast&#45;forward scanning." target="_top">
<polygon fill="white" stroke="#1e90ff" points="203.5,-4700.83 90,-4700.83 90,-4682.83 203.5,-4682.83 203.5,-4700.83"/>
<text text-anchor="middle" x="146.75" y="-4682.33" font-family="Vera Sans, DejaVu Sans, Liberation Sans, Arial, Helvetica, sans" font-size="10.00">SkipableBlock</text>
</a>
</g>
</g>
<!-- Block&#45;&gt;SkipableBlock -->
<g id="edge1" class="edge">
<title>Block&#45;&gt;SkipableBlock</title>
<path fill="none" stroke="black" stroke-width="0.5" d="M54.43,-4691.83C63.24,-4691.83 73.46,-4691.83 83.8,-4691.83"/>
<polygon fill="black" stroke="black" stroke-width="0.5" points="84.56,-4693.58 89.56,-4691.83 84.56,-4690.08 84.56,-4693.58"/>
</g>
<!-- WhitespaceBlock -->
<g id="node3" class="node">
<title>WhitespaceBlock</title>
<g id="a_node3"><a xlink:href="../pyVHDLParser/pyVHDLParser.Blocks.Common.html#pyVHDLParser.Blocks.Common.WhitespaceBlock" xlink:title="WhitespaceBlock" target="_top">
<polygon fill="white" stroke="#1e90ff" points="368,-4706.58 239.5,-4706.58 239.5,-4677.08 368,-4677.08 368,-4706.58"/>
<text text-anchor="middle" x="303.75" y="-4693.08" font-family="Vera Sans, DejaVu Sans, Liberation Sans, Arial, Helvetica, sans" font-size="10.00">WhitespaceBlock</text>
</a>
</g>
</g>
<!-- SkipableBlock&#45;&gt;WhitespaceBlock -->
<g id="edge2" class="edge">
<title>SkipableBlock&#45;&gt;WhitespaceBlock</title>
<path fill="none" stroke="black" stroke-width="0.5" d="M203.71,-4691.83C213.35,-4691.83 223.47,-4691.83 233.42,-4691.83"/>
<polygon fill="black" stroke="black" stroke-width="0.5" points="234.24,-4693.58 239.24,-4691.83 234.24,-4690.08 234.24,-4693.58"/>
</g>
</g>
</svg>
