<?xml version="1.0" encoding="UTF-8" standalone="no"?>
<!DOCTYPE svg PUBLIC "-//W3C//DTD SVG 1.1//EN"
 "http://www.w3.org/Graphics/SVG/1.1/DTD/svg11.dtd">
<!-- Generated by graphviz version 8.0.5 (20230430.1635)
 -->
<!-- Title: inheritance01ac3a42c9 Pages: 1 -->
<svg width="0pt" height="864pt"
 viewBox="0.00 0.00 0.41 864.00" xmlns="http://www.w3.org/2000/svg" xmlns:xlink="http://www.w3.org/1999/xlink">
<g id="graph0" class="graph" transform="scale(0.000809402 0.000809402) rotate(0) translate(4 1067451.19)">
<title>inheritance01ac3a42c9</title>
<!-- BeginBlock -->
<g id="node1" class="node">
<title>BeginBlock</title>
<g id="a_node1"><a xlink:href="../pyVHDLParser.Blocks.Generic1.html#pyVHDLParser.Blocks.Generic1.BeginBlock" xlink:title="BeginBlock" target="_top">
<polygon fill="white" stroke="#1e90ff" points="181,-533732.84 90,-533732.84 90,-533714.34 181,-533714.34 181,-533732.84"/>
<text text-anchor="middle" x="135.5" y="-533719.34" font-family="Vera Sans, DejaVu Sans, Liberation Sans, Arial, Helvetica, sans" font-size="10.00">BeginBlock</text>
</a>
</g>
</g>
<!-- SequentialBeginBlock -->
<g id="node4" class="node">
<title>SequentialBeginBlock</title>
<g id="a_node4"><a xlink:href="../pyVHDLParser.Blocks.Generic.html#pyVHDLParser.Blocks.Generic.SequentialBeginBlock" xlink:title="SequentialBeginBlock" target="_top">
<polygon fill="white" stroke="#1e90ff" points="383,-533732.84 217,-533732.84 217,-533714.34 383,-533714.34 383,-533732.84"/>
<text text-anchor="middle" x="300" y="-533719.34" font-family="Vera Sans, DejaVu Sans, Liberation Sans, Arial, Helvetica, sans" font-size="10.00">SequentialBeginBlock</text>
</a>
</g>
</g>
<!-- BeginBlock&#45;&gt;SequentialBeginBlock -->
<g id="edge3" class="edge">
<title>BeginBlock&#45;&gt;SequentialBeginBlock</title>
<path fill="none" stroke="black" stroke-width="0.5" d="M181.33,-533723.59C190.52,-533723.59 200.49,-533723.59 210.61,-533723.59"/>
<polygon fill="black" stroke="black" stroke-width="0.5" points="211.58,-533725.34 216.58,-533723.59 211.58,-533721.84 211.58,-533725.34"/>
</g>
<!-- Block -->
<g id="node2" class="node">
<title>Block</title>
<g id="a_node2"><a xlink:href="../pyVHDLParser.Blocks.html#pyVHDLParser.Blocks.Block" xlink:title="Base&#45;class for all :term:`block` classes." target="_top">
<polygon fill="white" stroke="#1e90ff" points="54,-1067447.19 0,-1067447.19 0,0 54,0 54,-1067447.19"/>
<text text-anchor="middle" x="27" y="-1067433.69" font-family="Vera Sans, DejaVu Sans, Liberation Sans, Arial, Helvetica, sans" font-size="10.00">Block</text>
</a>
</g>
</g>
<!-- Block&#45;&gt;BeginBlock -->
<g id="edge1" class="edge">
<title>Block&#45;&gt;BeginBlock</title>
<path fill="none" stroke="black" stroke-width="0.5" d="M54.33,-533723.59C63.29,-533723.59 73.62,-533723.59 83.84,-533723.59"/>
<polygon fill="black" stroke="black" stroke-width="0.5" points="84.82,-533725.34 89.82,-533723.59 84.82,-533721.84 84.82,-533725.34"/>
</g>
<!-- ElseBlock -->
<g id="node3" class="node">
<title>ElseBlock</title>
<g id="a_node3"><a xlink:href="../pyVHDLParser/pyVHDLParser.Blocks.ControlStructure.If.html#pyVHDLParser.Blocks.ControlStructure.If.ElseBlock" xlink:title="ElseBlock" target="_top">
<polygon fill="white" stroke="#1e90ff" points="502.5,-533732.84 419,-533732.84 419,-533714.34 502.5,-533714.34 502.5,-533732.84"/>
<text text-anchor="middle" x="460.75" y="-533719.34" font-family="Vera Sans, DejaVu Sans, Liberation Sans, Arial, Helvetica, sans" font-size="10.00">ElseBlock</text>
</a>
</g>
</g>
<!-- SequentialBeginBlock&#45;&gt;ElseBlock -->
<g id="edge2" class="edge">
<title>SequentialBeginBlock&#45;&gt;ElseBlock</title>
<path fill="none" stroke="black" stroke-width="0.5" d="M383.17,-533723.59C393.44,-533723.59 403.65,-533723.59 413.11,-533723.59"/>
<polygon fill="black" stroke="black" stroke-width="0.5" points="413.9,-533725.34 418.9,-533723.59 413.9,-533721.84 413.9,-533725.34"/>
</g>
</g>
</svg>
