<?xml version="1.0" encoding="UTF-8" standalone="no"?>
<!DOCTYPE svg PUBLIC "-//W3C//DTD SVG 1.1//EN"
 "http://www.w3.org/Graphics/SVG/1.1/DTD/svg11.dtd">
<!-- Generated by graphviz version 8.0.5 (20230430.1635)
 -->
<!-- Title: inheritance6719634e0e Pages: 1 -->
<svg width="3pt" height="864pt"
 viewBox="0.00 0.00 3.07 864.00" xmlns="http://www.w3.org/2000/svg" xmlns:xlink="http://www.w3.org/1999/xlink">
<g id="graph0" class="graph" transform="scale(0.00359202 0.00359202) rotate(0) translate(4 240529.08)">
<title>inheritance6719634e0e</title>
<!-- KeywordToken -->
<g id="node1" class="node">
<title>KeywordToken</title>
<g id="a_node1"><a xlink:href="../pyVHDLParser/pyVHDLParser.Token.Keywords.html#pyVHDLParser.Token.Keywords.KeywordToken" xlink:title="KeywordToken" target="_top">
<polygon fill="white" stroke="#1e90ff" points="450,-120271.79 344,-120271.79 344,-120253.29 450,-120253.29 450,-120271.79"/>
<text text-anchor="middle" x="397" y="-120258.29" font-family="Vera Sans, DejaVu Sans, Liberation Sans, Arial, Helvetica, sans" font-size="10.00">KeywordToken</text>
</a>
</g>
</g>
<!-- Operator -->
<g id="node3" class="node">
<title>Operator</title>
<g id="a_node3"><a xlink:href="../pyVHDLParser/pyVHDLParser.Token.Keywords.html#pyVHDLParser.Token.Keywords.Operator" xlink:title="Operator" target="_top">
<polygon fill="white" stroke="#1e90ff" points="562,-240525.03 486,-240525.03 486,-0.05 562,-0.05 562,-240525.03"/>
<text text-anchor="middle" x="524" y="-240511.53" font-family="Vera Sans, DejaVu Sans, Liberation Sans, Arial, Helvetica, sans" font-size="10.00">Operator</text>
</a>
</g>
</g>
<!-- KeywordToken&#45;&gt;Operator -->
<g id="edge2" class="edge">
<title>KeywordToken&#45;&gt;Operator</title>
<path fill="none" stroke="black" stroke-width="0.5" d="M450.29,-120262.54C460.15,-120262.54 470.36,-120262.54 479.9,-120262.54"/>
<polygon fill="black" stroke="black" stroke-width="0.5" points="480.74,-120264.29 485.74,-120262.54 480.74,-120260.79 480.74,-120264.29"/>
</g>
<!-- VHDLToken -->
<g id="node2" class="node">
<title>VHDLToken</title>
<g id="a_node2"><a xlink:href="../pyVHDLParser.Token.html#pyVHDLParser.Token.VHDLToken" xlink:title="Base&#45;class for all VHDL specific tokens." target="_top">
<polygon fill="white" stroke="#1e90ff" points="308,-240525.08 224.5,-240525.08 224.5,0 308,0 308,-240525.08"/>
<text text-anchor="middle" x="266.25" y="-240511.58" font-family="Vera Sans, DejaVu Sans, Liberation Sans, Arial, Helvetica, sans" font-size="10.00">VHDLToken</text>
</a>
</g>
</g>
<!-- VHDLToken&#45;&gt;KeywordToken -->
<g id="edge1" class="edge">
<title>VHDLToken&#45;&gt;KeywordToken</title>
<path fill="none" stroke="black" stroke-width="0.5" d="M308.34,-120262.54C317.69,-120262.54 327.8,-120262.54 337.71,-120262.54"/>
<polygon fill="black" stroke="black" stroke-width="0.5" points="338.52,-120264.29 343.52,-120262.54 338.52,-120260.79 338.52,-120264.29"/>
</g>
<!-- ShiftOperator -->
<g id="node5" class="node">
<title>ShiftOperator</title>
<g id="a_node5"><a xlink:href="../pyVHDLParser/pyVHDLParser.Token.Keywords.html#pyVHDLParser.Token.Keywords.ShiftOperator" xlink:title="ShiftOperator" target="_top">
<polygon fill="white" stroke="#1e90ff" points="711.5,-120271.79 598,-120271.79 598,-120253.29 711.5,-120253.29 711.5,-120271.79"/>
<text text-anchor="middle" x="654.75" y="-120258.29" font-family="Vera Sans, DejaVu Sans, Liberation Sans, Arial, Helvetica, sans" font-size="10.00">ShiftOperator</text>
</a>
</g>
</g>
<!-- Operator&#45;&gt;ShiftOperator -->
<g id="edge4" class="edge">
<title>Operator&#45;&gt;ShiftOperator</title>
<path fill="none" stroke="black" stroke-width="0.5" d="M562.24,-120262.54C571.55,-120262.54 581.79,-120262.54 591.95,-120262.54"/>
<polygon fill="black" stroke="black" stroke-width="0.5" points="592.91,-120264.29 597.91,-120262.54 592.91,-120260.79 592.91,-120264.29"/>
</g>
<!-- RorOperator -->
<g id="node4" class="node">
<title>RorOperator</title>
<g id="a_node4"><a xlink:href="../pyVHDLParser/pyVHDLParser.Token.Keywords.html#pyVHDLParser.Token.Keywords.RorOperator" xlink:title="RorOperator" target="_top">
<polygon fill="white" stroke="#1e90ff" points="846,-120271.79 747.5,-120271.79 747.5,-120253.29 846,-120253.29 846,-120271.79"/>
<text text-anchor="middle" x="796.75" y="-120258.29" font-family="Vera Sans, DejaVu Sans, Liberation Sans, Arial, Helvetica, sans" font-size="10.00">RorOperator</text>
</a>
</g>
</g>
<!-- ShiftOperator&#45;&gt;RorOperator -->
<g id="edge3" class="edge">
<title>ShiftOperator&#45;&gt;RorOperator</title>
<path fill="none" stroke="black" stroke-width="0.5" d="M711.89,-120262.54C721.59,-120262.54 731.66,-120262.54 741.32,-120262.54"/>
<polygon fill="black" stroke="black" stroke-width="0.5" points="742.27,-120264.29 747.27,-120262.54 742.27,-120260.79 742.27,-120264.29"/>
</g>
<!-- Token -->
<g id="node6" class="node">
<title>Token</title>
<g id="a_node6"><a xlink:href="../pyVHDLParser.Token.html#pyVHDLParser.Token.Token" xlink:title="Base&#45;class for all token classes." target="_top">
<polygon fill="white" stroke="#1e90ff" points="54,-120271.79 0,-120271.79 0,-120253.29 54,-120253.29 54,-120271.79"/>
<text text-anchor="middle" x="27" y="-120258.29" font-family="Vera Sans, DejaVu Sans, Liberation Sans, Arial, Helvetica, sans" font-size="10.00">Token</text>
</a>
</g>
</g>
<!-- ValuedToken -->
<g id="node7" class="node">
<title>ValuedToken</title>
<g id="a_node7"><a xlink:href="../pyVHDLParser.Token.html#pyVHDLParser.Token.ValuedToken" xlink:title="Base&#45;class for all *valued* token." target="_top">
<polygon fill="white" stroke="#1e90ff" points="188.5,-120271.79 90,-120271.79 90,-120253.29 188.5,-120253.29 188.5,-120271.79"/>
<text text-anchor="middle" x="139.25" y="-120258.29" font-family="Vera Sans, DejaVu Sans, Liberation Sans, Arial, Helvetica, sans" font-size="10.00">ValuedToken</text>
</a>
</g>
</g>
<!-- Token&#45;&gt;ValuedToken -->
<g id="edge6" class="edge">
<title>Token&#45;&gt;ValuedToken</title>
<path fill="none" stroke="black" stroke-width="0.5" d="M54.41,-120262.54C63.25,-120262.54 73.45,-120262.54 83.64,-120262.54"/>
<polygon fill="black" stroke="black" stroke-width="0.5" points="84.62,-120264.29 89.62,-120262.54 84.62,-120260.79 84.62,-120264.29"/>
</g>
<!-- ValuedToken&#45;&gt;VHDLToken -->
<g id="edge5" class="edge">
<title>ValuedToken&#45;&gt;VHDLToken</title>
<path fill="none" stroke="black" stroke-width="0.5" d="M188.94,-120262.54C198.59,-120262.54 208.7,-120262.54 218.29,-120262.54"/>
<polygon fill="black" stroke="black" stroke-width="0.5" points="219.19,-120264.29 224.19,-120262.54 219.19,-120260.79 219.19,-120264.29"/>
</g>
</g>
</svg>
