<?xml version="1.0" encoding="UTF-8" standalone="no"?>
<!DOCTYPE svg PUBLIC "-//W3C//DTD SVG 1.1//EN"
 "http://www.w3.org/Graphics/SVG/1.1/DTD/svg11.dtd">
<!-- Generated by graphviz version 8.0.5 (20230430.1635)
 -->
<!-- Title: inheritancedd6813cd34 Pages: 1 -->
<svg width="1pt" height="864pt"
 viewBox="0.00 0.00 0.84 864.00" xmlns="http://www.w3.org/2000/svg" xmlns:xlink="http://www.w3.org/1999/xlink">
<g id="graph0" class="graph" transform="scale(0.00138659 0.00138659) rotate(0) translate(4 623109.18)">
<title>inheritancedd6813cd34</title>
<!-- KeywordToken -->
<g id="node1" class="node">
<title>KeywordToken</title>
<g id="a_node1"><a xlink:href="../pyVHDLParser/pyVHDLParser.Token.Keywords.html#pyVHDLParser.Token.Keywords.KeywordToken" xlink:title="KeywordToken" target="_top">
<polygon fill="white" stroke="#1e90ff" points="450,-311561.84 344,-311561.84 344,-311543.34 450,-311543.34 450,-311561.84"/>
<text text-anchor="middle" x="397" y="-311548.34" font-family="Vera Sans, DejaVu Sans, Liberation Sans, Arial, Helvetica, sans" font-size="10.00">KeywordToken</text>
</a>
</g>
</g>
<!-- SelectKeyword -->
<g id="node3" class="node">
<title>SelectKeyword</title>
<g id="a_node3"><a xlink:href="../pyVHDLParser/pyVHDLParser.Token.Keywords.html#pyVHDLParser.Token.Keywords.SelectKeyword" xlink:title="SelectKeyword" target="_top">
<polygon fill="white" stroke="#1e90ff" points="599.5,-623105.13 486,-623105.13 486,-0.05 599.5,-0.05 599.5,-623105.13"/>
<text text-anchor="middle" x="542.75" y="-623091.63" font-family="Vera Sans, DejaVu Sans, Liberation Sans, Arial, Helvetica, sans" font-size="10.00">SelectKeyword</text>
</a>
</g>
</g>
<!-- KeywordToken&#45;&gt;SelectKeyword -->
<g id="edge2" class="edge">
<title>KeywordToken&#45;&gt;SelectKeyword</title>
<path fill="none" stroke="black" stroke-width="0.5" d="M450.3,-311552.59C459.97,-311552.59 470.14,-311552.59 480.05,-311552.59"/>
<polygon fill="black" stroke="black" stroke-width="0.5" points="480.85,-311554.34 485.85,-311552.59 480.85,-311550.84 480.85,-311554.34"/>
</g>
<!-- VHDLToken -->
<g id="node2" class="node">
<title>VHDLToken</title>
<g id="a_node2"><a xlink:href="../pyVHDLParser.Token.html#pyVHDLParser.Token.VHDLToken" xlink:title="Base&#45;class for all VHDL specific tokens." target="_top">
<polygon fill="white" stroke="#1e90ff" points="308,-311561.84 224.5,-311561.84 224.5,-311543.34 308,-311543.34 308,-311561.84"/>
<text text-anchor="middle" x="266.25" y="-311548.34" font-family="Vera Sans, DejaVu Sans, Liberation Sans, Arial, Helvetica, sans" font-size="10.00">VHDLToken</text>
</a>
</g>
</g>
<!-- VHDLToken&#45;&gt;KeywordToken -->
<g id="edge1" class="edge">
<title>VHDLToken&#45;&gt;KeywordToken</title>
<path fill="none" stroke="black" stroke-width="0.5" d="M308.34,-311552.59C317.69,-311552.59 327.8,-311552.59 337.71,-311552.59"/>
<polygon fill="black" stroke="black" stroke-width="0.5" points="338.52,-311554.34 343.52,-311552.59 338.52,-311550.84 338.52,-311554.34"/>
</g>
<!-- Token -->
<g id="node4" class="node">
<title>Token</title>
<g id="a_node4"><a xlink:href="../pyVHDLParser.Token.html#pyVHDLParser.Token.Token" xlink:title="Base&#45;class for all token classes." target="_top">
<polygon fill="white" stroke="#1e90ff" points="54,-623105.18 0,-623105.18 0,0 54,0 54,-623105.18"/>
<text text-anchor="middle" x="27" y="-623091.68" font-family="Vera Sans, DejaVu Sans, Liberation Sans, Arial, Helvetica, sans" font-size="10.00">Token</text>
</a>
</g>
</g>
<!-- ValuedToken -->
<g id="node5" class="node">
<title>ValuedToken</title>
<g id="a_node5"><a xlink:href="../pyVHDLParser.Token.html#pyVHDLParser.Token.ValuedToken" xlink:title="Base&#45;class for all *valued* token." target="_top">
<polygon fill="white" stroke="#1e90ff" points="188.5,-311561.84 90,-311561.84 90,-311543.34 188.5,-311543.34 188.5,-311561.84"/>
<text text-anchor="middle" x="139.25" y="-311548.34" font-family="Vera Sans, DejaVu Sans, Liberation Sans, Arial, Helvetica, sans" font-size="10.00">ValuedToken</text>
</a>
</g>
</g>
<!-- Token&#45;&gt;ValuedToken -->
<g id="edge4" class="edge">
<title>Token&#45;&gt;ValuedToken</title>
<path fill="none" stroke="black" stroke-width="0.5" d="M54.41,-311552.59C63.25,-311552.59 73.45,-311552.59 83.64,-311552.59"/>
<polygon fill="black" stroke="black" stroke-width="0.5" points="84.62,-311554.34 89.62,-311552.59 84.62,-311550.84 84.62,-311554.34"/>
</g>
<!-- ValuedToken&#45;&gt;VHDLToken -->
<g id="edge3" class="edge">
<title>ValuedToken&#45;&gt;VHDLToken</title>
<path fill="none" stroke="black" stroke-width="0.5" d="M188.94,-311552.59C198.59,-311552.59 208.7,-311552.59 218.29,-311552.59"/>
<polygon fill="black" stroke="black" stroke-width="0.5" points="219.19,-311554.34 224.19,-311552.59 219.19,-311550.84 219.19,-311554.34"/>
</g>
</g>
</svg>
