<?xml version="1.0" encoding="UTF-8" standalone="no"?>
<!DOCTYPE svg PUBLIC "-//W3C//DTD SVG 1.1//EN"
 "http://www.w3.org/Graphics/SVG/1.1/DTD/svg11.dtd">
<!-- Generated by graphviz version 8.0.5 (20230430.1635)
 -->
<!-- Title: inheritance1e3cd39b13 Pages: 1 -->
<svg width="1pt" height="864pt"
 viewBox="0.00 0.00 0.75 864.00" xmlns="http://www.w3.org/2000/svg" xmlns:xlink="http://www.w3.org/1999/xlink">
<g id="graph0" class="graph" transform="scale(0.00124586 0.00124586) rotate(0) translate(4 693490.42)">
<title>inheritance1e3cd39b13</title>
<!-- KeywordToken -->
<g id="node1" class="node">
<title>KeywordToken</title>
<g id="a_node1"><a xlink:href="../pyVHDLParser/pyVHDLParser.Token.Keywords.html#pyVHDLParser.Token.Keywords.KeywordToken" xlink:title="KeywordToken" target="_top">
<polygon fill="white" stroke="#1e90ff" points="450,-346752.46 344,-346752.46 344,-346733.96 450,-346733.96 450,-346752.46"/>
<text text-anchor="middle" x="397" y="-346738.96" font-family="Vera Sans, DejaVu Sans, Liberation Sans, Arial, Helvetica, sans" font-size="10.00">KeywordToken</text>
</a>
</g>
</g>
<!-- LabelKeyword -->
<g id="node3" class="node">
<title>LabelKeyword</title>
<g id="a_node3"><a xlink:href="../pyVHDLParser/pyVHDLParser.Token.Keywords.html#pyVHDLParser.Token.Keywords.LabelKeyword" xlink:title="LabelKeyword" target="_top">
<polygon fill="white" stroke="#1e90ff" points="592,-693486.42 486,-693486.42 486,0 592,0 592,-693486.42"/>
<text text-anchor="middle" x="539" y="-693472.92" font-family="Vera Sans, DejaVu Sans, Liberation Sans, Arial, Helvetica, sans" font-size="10.00">LabelKeyword</text>
</a>
</g>
</g>
<!-- KeywordToken&#45;&gt;LabelKeyword -->
<g id="edge2" class="edge">
<title>KeywordToken&#45;&gt;LabelKeyword</title>
<path fill="none" stroke="black" stroke-width="0.5" d="M450.13,-346743.21C459.88,-346743.21 470.12,-346743.21 480.03,-346743.21"/>
<polygon fill="black" stroke="black" stroke-width="0.5" points="480.83,-346744.96 485.83,-346743.21 480.83,-346741.46 480.83,-346744.96"/>
</g>
<!-- VHDLToken -->
<g id="node2" class="node">
<title>VHDLToken</title>
<g id="a_node2"><a xlink:href="../pyVHDLParser.Token.html#pyVHDLParser.Token.VHDLToken" xlink:title="Base&#45;class for all VHDL specific tokens." target="_top">
<polygon fill="white" stroke="#1e90ff" points="308,-346752.46 224.5,-346752.46 224.5,-346733.96 308,-346733.96 308,-346752.46"/>
<text text-anchor="middle" x="266.25" y="-346738.96" font-family="Vera Sans, DejaVu Sans, Liberation Sans, Arial, Helvetica, sans" font-size="10.00">VHDLToken</text>
</a>
</g>
</g>
<!-- VHDLToken&#45;&gt;KeywordToken -->
<g id="edge1" class="edge">
<title>VHDLToken&#45;&gt;KeywordToken</title>
<path fill="none" stroke="black" stroke-width="0.5" d="M308.34,-346743.21C317.69,-346743.21 327.8,-346743.21 337.71,-346743.21"/>
<polygon fill="black" stroke="black" stroke-width="0.5" points="338.52,-346744.96 343.52,-346743.21 338.52,-346741.46 338.52,-346744.96"/>
</g>
<!-- Token -->
<g id="node4" class="node">
<title>Token</title>
<g id="a_node4"><a xlink:href="../pyVHDLParser.Token.html#pyVHDLParser.Token.Token" xlink:title="Base&#45;class for all token classes." target="_top">
<polygon fill="white" stroke="#1e90ff" points="54,-693486.37 0,-693486.37 0,-0.05 54,-0.05 54,-693486.37"/>
<text text-anchor="middle" x="27" y="-693472.87" font-family="Vera Sans, DejaVu Sans, Liberation Sans, Arial, Helvetica, sans" font-size="10.00">Token</text>
</a>
</g>
</g>
<!-- ValuedToken -->
<g id="node5" class="node">
<title>ValuedToken</title>
<g id="a_node5"><a xlink:href="../pyVHDLParser.Token.html#pyVHDLParser.Token.ValuedToken" xlink:title="Base&#45;class for all *valued* token." target="_top">
<polygon fill="white" stroke="#1e90ff" points="188.5,-346752.46 90,-346752.46 90,-346733.96 188.5,-346733.96 188.5,-346752.46"/>
<text text-anchor="middle" x="139.25" y="-346738.96" font-family="Vera Sans, DejaVu Sans, Liberation Sans, Arial, Helvetica, sans" font-size="10.00">ValuedToken</text>
</a>
</g>
</g>
<!-- Token&#45;&gt;ValuedToken -->
<g id="edge4" class="edge">
<title>Token&#45;&gt;ValuedToken</title>
<path fill="none" stroke="black" stroke-width="0.5" d="M54.41,-346743.21C63.25,-346743.21 73.45,-346743.21 83.64,-346743.21"/>
<polygon fill="black" stroke="black" stroke-width="0.5" points="84.62,-346744.96 89.62,-346743.21 84.62,-346741.46 84.62,-346744.96"/>
</g>
<!-- ValuedToken&#45;&gt;VHDLToken -->
<g id="edge3" class="edge">
<title>ValuedToken&#45;&gt;VHDLToken</title>
<path fill="none" stroke="black" stroke-width="0.5" d="M188.94,-346743.21C198.59,-346743.21 208.7,-346743.21 218.29,-346743.21"/>
<polygon fill="black" stroke="black" stroke-width="0.5" points="219.19,-346744.96 224.19,-346743.21 219.19,-346741.46 219.19,-346744.96"/>
</g>
</g>
</svg>
