<?xml version="1.0" encoding="UTF-8" standalone="no"?>
<!DOCTYPE svg PUBLIC "-//W3C//DTD SVG 1.1//EN"
 "http://www.w3.org/Graphics/SVG/1.1/DTD/svg11.dtd">
<!-- Generated by graphviz version 8.0.5 (20230430.1635)
 -->
<!-- Title: inheritance44dbb5e7f6 Pages: 1 -->
<svg width="1pt" height="864pt"
 viewBox="0.00 0.00 0.50 864.00" xmlns="http://www.w3.org/2000/svg" xmlns:xlink="http://www.w3.org/1999/xlink">
<g id="graph0" class="graph" transform="scale(0.000806939 0.000806939) rotate(0) translate(4 1070709.54)">
<title>inheritance44dbb5e7f6</title>
<!-- InertialKeyword -->
<g id="node1" class="node">
<title>InertialKeyword</title>
<g id="a_node1"><a xlink:href="../pyVHDLParser/pyVHDLParser.Token.Keywords.html#pyVHDLParser.Token.Keywords.InertialKeyword" xlink:title="InertialKeyword" target="_top">
<polygon fill="white" stroke="#1e90ff" points="614.5,-535362.02 486,-535362.02 486,-535343.52 614.5,-535343.52 614.5,-535362.02"/>
<text text-anchor="middle" x="550.25" y="-535348.52" font-family="Vera Sans, DejaVu Sans, Liberation Sans, Arial, Helvetica, sans" font-size="10.00">InertialKeyword</text>
</a>
</g>
</g>
<!-- KeywordToken -->
<g id="node2" class="node">
<title>KeywordToken</title>
<g id="a_node2"><a xlink:href="../pyVHDLParser/pyVHDLParser.Token.Keywords.html#pyVHDLParser.Token.Keywords.KeywordToken" xlink:title="KeywordToken" target="_top">
<polygon fill="white" stroke="#1e90ff" points="450,-535362.02 344,-535362.02 344,-535343.52 450,-535343.52 450,-535362.02"/>
<text text-anchor="middle" x="397" y="-535348.52" font-family="Vera Sans, DejaVu Sans, Liberation Sans, Arial, Helvetica, sans" font-size="10.00">KeywordToken</text>
</a>
</g>
</g>
<!-- KeywordToken&#45;&gt;InertialKeyword -->
<g id="edge1" class="edge">
<title>KeywordToken&#45;&gt;InertialKeyword</title>
<path fill="none" stroke="black" stroke-width="0.5" d="M450.48,-535352.77C459.96,-535352.77 469.99,-535352.77 479.87,-535352.77"/>
<polygon fill="black" stroke="black" stroke-width="0.5" points="480.66,-535354.52 485.66,-535352.77 480.66,-535351.02 480.66,-535354.52"/>
</g>
<!-- VHDLToken -->
<g id="node3" class="node">
<title>VHDLToken</title>
<g id="a_node3"><a xlink:href="../pyVHDLParser.Token.html#pyVHDLParser.Token.VHDLToken" xlink:title="Base&#45;class for all VHDL specific tokens." target="_top">
<polygon fill="white" stroke="#1e90ff" points="308,-1070705.49 224.5,-1070705.49 224.5,-0.05 308,-0.05 308,-1070705.49"/>
<text text-anchor="middle" x="266.25" y="-1070691.99" font-family="Vera Sans, DejaVu Sans, Liberation Sans, Arial, Helvetica, sans" font-size="10.00">VHDLToken</text>
</a>
</g>
</g>
<!-- VHDLToken&#45;&gt;KeywordToken -->
<g id="edge2" class="edge">
<title>VHDLToken&#45;&gt;KeywordToken</title>
<path fill="none" stroke="black" stroke-width="0.5" d="M308.34,-535352.77C317.69,-535352.77 327.8,-535352.77 337.71,-535352.77"/>
<polygon fill="black" stroke="black" stroke-width="0.5" points="338.52,-535354.52 343.52,-535352.77 338.52,-535351.02 338.52,-535354.52"/>
</g>
<!-- Token -->
<g id="node4" class="node">
<title>Token</title>
<g id="a_node4"><a xlink:href="../pyVHDLParser.Token.html#pyVHDLParser.Token.Token" xlink:title="Base&#45;class for all token classes." target="_top">
<polygon fill="white" stroke="#1e90ff" points="54,-1070705.54 0,-1070705.54 0,0 54,0 54,-1070705.54"/>
<text text-anchor="middle" x="27" y="-1070692.04" font-family="Vera Sans, DejaVu Sans, Liberation Sans, Arial, Helvetica, sans" font-size="10.00">Token</text>
</a>
</g>
</g>
<!-- ValuedToken -->
<g id="node5" class="node">
<title>ValuedToken</title>
<g id="a_node5"><a xlink:href="../pyVHDLParser.Token.html#pyVHDLParser.Token.ValuedToken" xlink:title="Base&#45;class for all *valued* token." target="_top">
<polygon fill="white" stroke="#1e90ff" points="188.5,-535362.02 90,-535362.02 90,-535343.52 188.5,-535343.52 188.5,-535362.02"/>
<text text-anchor="middle" x="139.25" y="-535348.52" font-family="Vera Sans, DejaVu Sans, Liberation Sans, Arial, Helvetica, sans" font-size="10.00">ValuedToken</text>
</a>
</g>
</g>
<!-- Token&#45;&gt;ValuedToken -->
<g id="edge4" class="edge">
<title>Token&#45;&gt;ValuedToken</title>
<path fill="none" stroke="black" stroke-width="0.5" d="M54.41,-535352.77C63.25,-535352.77 73.45,-535352.77 83.64,-535352.77"/>
<polygon fill="black" stroke="black" stroke-width="0.5" points="84.62,-535354.52 89.62,-535352.77 84.62,-535351.02 84.62,-535354.52"/>
</g>
<!-- ValuedToken&#45;&gt;VHDLToken -->
<g id="edge3" class="edge">
<title>ValuedToken&#45;&gt;VHDLToken</title>
<path fill="none" stroke="black" stroke-width="0.5" d="M188.94,-535352.77C198.59,-535352.77 208.7,-535352.77 218.29,-535352.77"/>
<polygon fill="black" stroke="black" stroke-width="0.5" points="219.19,-535354.52 224.19,-535352.77 219.19,-535351.02 219.19,-535354.52"/>
</g>
</g>
</svg>
