<?xml version="1.0" encoding="UTF-8" standalone="no"?>
<!DOCTYPE svg PUBLIC "-//W3C//DTD SVG 1.1//EN"
 "http://www.w3.org/Graphics/SVG/1.1/DTD/svg11.dtd">
<!-- Generated by graphviz version 8.0.5 (20230430.1635)
 -->
<!-- Title: inheritance3f6311c6ca Pages: 1 -->
<svg width="1pt" height="864pt"
 viewBox="0.00 0.00 0.76 864.00" xmlns="http://www.w3.org/2000/svg" xmlns:xlink="http://www.w3.org/1999/xlink">
<g id="graph0" class="graph" transform="scale(0.000935236 0.000935236) rotate(0) translate(4 923826.83)">
<title>inheritance3f6311c6ca</title>
<!-- MultiplyOperator -->
<g id="node1" class="node">
<title>MultiplyOperator</title>
<g id="a_node1"><a xlink:href="../pyVHDLParser/pyVHDLParser.Token.Keywords.html#pyVHDLParser.Token.Keywords.MultiplyOperator" xlink:title="Token representing a multiply operator: ``*``." target="_top">
<polygon fill="white" stroke="#1e90ff" points="809,-461920.67 673,-461920.67 673,-461902.17 809,-461902.17 809,-461920.67"/>
<text text-anchor="middle" x="741" y="-461907.17" font-family="Vera Sans, DejaVu Sans, Liberation Sans, Arial, Helvetica, sans" font-size="10.00">MultiplyOperator</text>
</a>
</g>
</g>
<!-- OperatorToken -->
<g id="node2" class="node">
<title>OperatorToken</title>
<g id="a_node2"><a xlink:href="../pyVHDLParser/pyVHDLParser.Token.Keywords.html#pyVHDLParser.Token.Keywords.OperatorToken" xlink:title="Base&#45;class for all operator tokens." target="_top">
<polygon fill="white" stroke="#1e90ff" points="637,-461920.67 523.5,-461920.67 523.5,-461902.17 637,-461902.17 637,-461920.67"/>
<text text-anchor="middle" x="580.25" y="-461907.17" font-family="Vera Sans, DejaVu Sans, Liberation Sans, Arial, Helvetica, sans" font-size="10.00">OperatorToken</text>
</a>
</g>
</g>
<!-- OperatorToken&#45;&gt;MultiplyOperator -->
<g id="edge1" class="edge">
<title>OperatorToken&#45;&gt;MultiplyOperator</title>
<path fill="none" stroke="black" stroke-width="0.5" d="M637.22,-461911.42C646.77,-461911.42 656.82,-461911.42 666.74,-461911.42"/>
<polygon fill="black" stroke="black" stroke-width="0.5" points="667.56,-461913.17 672.56,-461911.42 667.56,-461909.67 667.56,-461913.17"/>
</g>
<!-- SpecificVHDLToken -->
<g id="node3" class="node">
<title>SpecificVHDLToken</title>
<g id="a_node3"><a xlink:href="../pyVHDLParser/pyVHDLParser.Token.Keywords.html#pyVHDLParser.Token.Keywords.SpecificVHDLToken" xlink:title="Base&#45;class for all specific tokens." target="_top">
<polygon fill="white" stroke="#1e90ff" points="487.5,-923822.83 344,-923822.83 344,0 487.5,0 487.5,-923822.83"/>
<text text-anchor="middle" x="415.75" y="-923809.33" font-family="Vera Sans, DejaVu Sans, Liberation Sans, Arial, Helvetica, sans" font-size="10.00">SpecificVHDLToken</text>
</a>
</g>
</g>
<!-- SpecificVHDLToken&#45;&gt;OperatorToken -->
<g id="edge2" class="edge">
<title>SpecificVHDLToken&#45;&gt;OperatorToken</title>
<path fill="none" stroke="black" stroke-width="0.5" d="M487.55,-461911.42C497.56,-461911.42 507.79,-461911.42 517.6,-461911.42"/>
<polygon fill="black" stroke="black" stroke-width="0.5" points="518.33,-461913.17 523.33,-461911.42 518.33,-461909.67 518.33,-461913.17"/>
</g>
<!-- VHDLToken -->
<g id="node4" class="node">
<title>VHDLToken</title>
<g id="a_node4"><a xlink:href="../pyVHDLParser.Token.html#pyVHDLParser.Token.VHDLToken" xlink:title="Base&#45;class for all VHDL specific tokens." target="_top">
<polygon fill="white" stroke="#1e90ff" points="308,-461920.71 224.5,-461920.71 224.5,-461902.12 308,-461902.12 308,-461920.71"/>
<text text-anchor="middle" x="266.25" y="-461907.21" font-family="Vera Sans, DejaVu Sans, Liberation Sans, Arial, Helvetica, sans" font-size="10.00">VHDLToken</text>
</a>
</g>
</g>
<!-- VHDLToken&#45;&gt;SpecificVHDLToken -->
<g id="edge3" class="edge">
<title>VHDLToken&#45;&gt;SpecificVHDLToken</title>
<path fill="none" stroke="black" stroke-width="0.5" d="M308.34,-461911.42C317.53,-461911.42 327.57,-461911.42 337.69,-461911.42"/>
<polygon fill="black" stroke="black" stroke-width="0.5" points="338.66,-461913.17 343.66,-461911.42 338.66,-461909.67 338.66,-461913.17"/>
</g>
<!-- Token -->
<g id="node5" class="node">
<title>Token</title>
<g id="a_node5"><a xlink:href="../pyVHDLParser.Token.html#pyVHDLParser.Token.Token" xlink:title="Base&#45;class for all token classes." target="_top">
<polygon fill="white" stroke="#1e90ff" points="54,-461924.42 0,-461924.42 0,-461898.42 54,-461898.42 54,-461924.42"/>
<text text-anchor="middle" x="27" y="-461910.92" font-family="Vera Sans, DejaVu Sans, Liberation Sans, Arial, Helvetica, sans" font-size="10.00">Token</text>
</a>
</g>
</g>
<!-- ValuedToken -->
<g id="node6" class="node">
<title>ValuedToken</title>
<g id="a_node6"><a xlink:href="../pyVHDLParser.Token.html#pyVHDLParser.Token.ValuedToken" xlink:title="Base&#45;class for all *valued* token." target="_top">
<polygon fill="white" stroke="#1e90ff" points="188.5,-461920.67 90,-461920.67 90,-461902.17 188.5,-461902.17 188.5,-461920.67"/>
<text text-anchor="middle" x="139.25" y="-461907.17" font-family="Vera Sans, DejaVu Sans, Liberation Sans, Arial, Helvetica, sans" font-size="10.00">ValuedToken</text>
</a>
</g>
</g>
<!-- Token&#45;&gt;ValuedToken -->
<g id="edge5" class="edge">
<title>Token&#45;&gt;ValuedToken</title>
<path fill="none" stroke="black" stroke-width="0.5" d="M54.41,-461911.42C63.25,-461911.42 73.45,-461911.42 83.64,-461911.42"/>
<polygon fill="black" stroke="black" stroke-width="0.5" points="84.62,-461913.17 89.62,-461911.42 84.62,-461909.67 84.62,-461913.17"/>
</g>
<!-- ValuedToken&#45;&gt;VHDLToken -->
<g id="edge4" class="edge">
<title>ValuedToken&#45;&gt;VHDLToken</title>
<path fill="none" stroke="black" stroke-width="0.5" d="M188.94,-461911.42C198.59,-461911.42 208.7,-461911.42 218.29,-461911.42"/>
<polygon fill="black" stroke="black" stroke-width="0.5" points="219.19,-461913.17 224.19,-461911.42 219.19,-461909.67 219.19,-461913.17"/>
</g>
</g>
</svg>
