<?xml version="1.0" encoding="UTF-8" standalone="no"?>
<!DOCTYPE svg PUBLIC "-//W3C//DTD SVG 1.1//EN"
 "http://www.w3.org/Graphics/SVG/1.1/DTD/svg11.dtd">
<!-- Generated by graphviz version 8.0.5 (20230430.1635)
 -->
<!-- Title: inheritance5302579079 Pages: 1 -->
<svg width="1pt" height="864pt"
 viewBox="0.00 0.00 0.92 864.00" xmlns="http://www.w3.org/2000/svg" xmlns:xlink="http://www.w3.org/1999/xlink">
<g id="graph0" class="graph" transform="scale(0.0014964 0.0014964) rotate(0) translate(4 577383.26)">
<title>inheritance5302579079</title>
<!-- GenericKeyword -->
<g id="node1" class="node">
<title>GenericKeyword</title>
<g id="a_node1"><a xlink:href="../pyVHDLParser/pyVHDLParser.Token.Keywords.html#pyVHDLParser.Token.Keywords.GenericKeyword" xlink:title="GenericKeyword" target="_top">
<polygon fill="white" stroke="#1e90ff" points="607,-577369.94 486,-577369.94 486,-9.32 607,-9.32 607,-577369.94"/>
<text text-anchor="middle" x="546.5" y="-577356.44" font-family="Vera Sans, DejaVu Sans, Liberation Sans, Arial, Helvetica, sans" font-size="10.00">GenericKeyword</text>
</a>
</g>
</g>
<!-- KeywordToken -->
<g id="node2" class="node">
<title>KeywordToken</title>
<g id="a_node2"><a xlink:href="../pyVHDLParser/pyVHDLParser.Token.Keywords.html#pyVHDLParser.Token.Keywords.KeywordToken" xlink:title="KeywordToken" target="_top">
<polygon fill="white" stroke="#1e90ff" points="450,-577211.38 344,-577211.38 344,-167.88 450,-167.88 450,-577211.38"/>
<text text-anchor="middle" x="397" y="-577197.88" font-family="Vera Sans, DejaVu Sans, Liberation Sans, Arial, Helvetica, sans" font-size="10.00">KeywordToken</text>
</a>
</g>
</g>
<!-- KeywordToken&#45;&gt;GenericKeyword -->
<g id="edge1" class="edge">
<title>KeywordToken&#45;&gt;GenericKeyword</title>
<path fill="none" stroke="black" stroke-width="0.5" d="M450.42,-288689.63C459.97,-288689.63 470.05,-288689.63 479.92,-288689.63"/>
<polygon fill="black" stroke="black" stroke-width="0.5" points="480.71,-288691.38 485.71,-288689.63 480.71,-288687.88 480.71,-288691.38"/>
</g>
<!-- VHDLToken -->
<g id="node3" class="node">
<title>VHDLToken</title>
<g id="a_node3"><a xlink:href="../pyVHDLParser.Token.html#pyVHDLParser.Token.VHDLToken" xlink:title="Base&#45;class for all VHDL specific tokens." target="_top">
<polygon fill="white" stroke="#1e90ff" points="308,-577379.18 224.5,-577379.18 224.5,-0.08 308,-0.08 308,-577379.18"/>
<text text-anchor="middle" x="266.25" y="-577365.68" font-family="Vera Sans, DejaVu Sans, Liberation Sans, Arial, Helvetica, sans" font-size="10.00">VHDLToken</text>
</a>
</g>
</g>
<!-- VHDLToken&#45;&gt;KeywordToken -->
<g id="edge2" class="edge">
<title>VHDLToken&#45;&gt;KeywordToken</title>
<path fill="none" stroke="black" stroke-width="0.5" d="M308.34,-288689.63C317.69,-288689.63 327.8,-288689.63 337.71,-288689.63"/>
<polygon fill="black" stroke="black" stroke-width="0.5" points="338.52,-288691.38 343.52,-288689.63 338.52,-288687.88 338.52,-288691.38"/>
</g>
<!-- Token -->
<g id="node4" class="node">
<title>Token</title>
<g id="a_node4"><a xlink:href="../pyVHDLParser.Token.html#pyVHDLParser.Token.Token" xlink:title="Base&#45;class for all token classes." target="_top">
<polygon fill="white" stroke="#1e90ff" points="54,-577379.26 0,-577379.26 0,0 54,0 54,-577379.26"/>
<text text-anchor="middle" x="27" y="-577365.76" font-family="Vera Sans, DejaVu Sans, Liberation Sans, Arial, Helvetica, sans" font-size="10.00">Token</text>
</a>
</g>
</g>
<!-- ValuedToken -->
<g id="node5" class="node">
<title>ValuedToken</title>
<g id="a_node5"><a xlink:href="../pyVHDLParser.Token.html#pyVHDLParser.Token.ValuedToken" xlink:title="Base&#45;class for all *valued* token." target="_top">
<polygon fill="white" stroke="#1e90ff" points="188.5,-288698.88 90,-288698.88 90,-288680.38 188.5,-288680.38 188.5,-288698.88"/>
<text text-anchor="middle" x="139.25" y="-288685.38" font-family="Vera Sans, DejaVu Sans, Liberation Sans, Arial, Helvetica, sans" font-size="10.00">ValuedToken</text>
</a>
</g>
</g>
<!-- Token&#45;&gt;ValuedToken -->
<g id="edge4" class="edge">
<title>Token&#45;&gt;ValuedToken</title>
<path fill="none" stroke="black" stroke-width="0.5" d="M54.41,-288689.63C63.25,-288689.63 73.45,-288689.63 83.64,-288689.63"/>
<polygon fill="black" stroke="black" stroke-width="0.5" points="84.62,-288691.38 89.62,-288689.63 84.62,-288687.88 84.62,-288691.38"/>
</g>
<!-- ValuedToken&#45;&gt;VHDLToken -->
<g id="edge3" class="edge">
<title>ValuedToken&#45;&gt;VHDLToken</title>
<path fill="none" stroke="black" stroke-width="0.5" d="M188.94,-288689.63C198.59,-288689.63 208.7,-288689.63 218.29,-288689.63"/>
<polygon fill="black" stroke="black" stroke-width="0.5" points="219.19,-288691.38 224.19,-288689.63 219.19,-288687.88 219.19,-288691.38"/>
</g>
</g>
</svg>
