<?xml version="1.0" encoding="UTF-8" standalone="no"?>
<!DOCTYPE svg PUBLIC "-//W3C//DTD SVG 1.1//EN"
 "http://www.w3.org/Graphics/SVG/1.1/DTD/svg11.dtd">
<!-- Generated by graphviz version 8.0.5 (20230430.1635)
 -->
<!-- Title: inheritance60df39e48f Pages: 1 -->
<svg width="1pt" height="864pt"
 viewBox="0.00 0.00 0.63 864.00" xmlns="http://www.w3.org/2000/svg" xmlns:xlink="http://www.w3.org/1999/xlink">
<g id="graph0" class="graph" transform="scale(0.000727052 0.000727052) rotate(0) translate(4 1188357.11)">
<title>inheritance60df39e48f</title>
<!-- CommentKeyword -->
<g id="node1" class="node">
<title>CommentKeyword</title>
<g id="a_node1"><a xlink:href="../pyVHDLParser/pyVHDLParser.Token.Keywords.html#pyVHDLParser.Token.Keywords.CommentKeyword" xlink:title="Base&#45;class for all comment keywords: ``&#45;&#45;``, ``/*`` and ``*/``." target="_top">
<polygon fill="white" stroke="#1e90ff" points="637,-594185.8 516,-594185.8 516,-594167.3 637,-594167.3 637,-594185.8"/>
<text text-anchor="middle" x="576.5" y="-594172.3" font-family="Vera Sans, DejaVu Sans, Liberation Sans, Arial, Helvetica, sans" font-size="10.00">CommentKeyword</text>
</a>
</g>
</g>
<!-- MultiLineCommentKeyword -->
<g id="node4" class="node">
<title>MultiLineCommentKeyword</title>
<g id="a_node4"><a xlink:href="../pyVHDLParser/pyVHDLParser.Token.Keywords.html#pyVHDLParser.Token.Keywords.MultiLineCommentKeyword" xlink:title="Base&#45;class for all tokens related to multi&#45;line comments: ``/*`` and ``*/``." target="_top">
<polygon fill="white" stroke="#1e90ff" points="861.5,-594185.85 673,-594185.85 673,-594167.26 861.5,-594167.26 861.5,-594185.85"/>
<text text-anchor="middle" x="767.25" y="-594172.35" font-family="Vera Sans, DejaVu Sans, Liberation Sans, Arial, Helvetica, sans" font-size="10.00">MultiLineCommentKeyword</text>
</a>
</g>
</g>
<!-- CommentKeyword&#45;&gt;MultiLineCommentKeyword -->
<g id="edge3" class="edge">
<title>CommentKeyword&#45;&gt;MultiLineCommentKeyword</title>
<path fill="none" stroke="black" stroke-width="0.5" d="M637.48,-594176.55C646.87,-594176.55 656.78,-594176.55 666.76,-594176.55"/>
<polygon fill="black" stroke="black" stroke-width="0.5" points="667.65,-594178.3 672.65,-594176.55 667.65,-594174.8 667.65,-594178.3"/>
</g>
<!-- MultiCharKeyword -->
<g id="node2" class="node">
<title>MultiCharKeyword</title>
<g id="a_node2"><a xlink:href="../pyVHDLParser/pyVHDLParser.Token.Keywords.html#pyVHDLParser.Token.Keywords.MultiCharKeyword" xlink:title="MultiCharKeyword" target="_top">
<polygon fill="white" stroke="#1e90ff" points="480,-594185.8 344,-594185.8 344,-594167.3 480,-594167.3 480,-594185.8"/>
<text text-anchor="middle" x="412" y="-594172.3" font-family="Vera Sans, DejaVu Sans, Liberation Sans, Arial, Helvetica, sans" font-size="10.00">MultiCharKeyword</text>
</a>
</g>
</g>
<!-- MultiCharKeyword&#45;&gt;CommentKeyword -->
<g id="edge1" class="edge">
<title>MultiCharKeyword&#45;&gt;CommentKeyword</title>
<path fill="none" stroke="black" stroke-width="0.5" d="M480.03,-594176.55C489.9,-594176.55 500.05,-594176.55 509.89,-594176.55"/>
<polygon fill="black" stroke="black" stroke-width="0.5" points="510.64,-594178.3 515.64,-594176.55 510.64,-594174.8 510.64,-594178.3"/>
</g>
<!-- VHDLToken -->
<g id="node3" class="node">
<title>VHDLToken</title>
<g id="a_node3"><a xlink:href="../pyVHDLParser.Token.html#pyVHDLParser.Token.VHDLToken" xlink:title="Base&#45;class for all VHDL specific tokens." target="_top">
<polygon fill="white" stroke="#1e90ff" points="308,-1188353.11 224.5,-1188353.11 224.5,0 308,0 308,-1188353.11"/>
<text text-anchor="middle" x="266.25" y="-1188339.61" font-family="Vera Sans, DejaVu Sans, Liberation Sans, Arial, Helvetica, sans" font-size="10.00">VHDLToken</text>
</a>
</g>
</g>
<!-- VHDLToken&#45;&gt;MultiCharKeyword -->
<g id="edge2" class="edge">
<title>VHDLToken&#45;&gt;MultiCharKeyword</title>
<path fill="none" stroke="black" stroke-width="0.5" d="M308.44,-594176.55C317.67,-594176.55 327.72,-594176.55 337.81,-594176.55"/>
<polygon fill="black" stroke="black" stroke-width="0.5" points="338.75,-594178.3 343.75,-594176.55 338.75,-594174.8 338.75,-594178.3"/>
</g>
<!-- Token -->
<g id="node5" class="node">
<title>Token</title>
<g id="a_node5"><a xlink:href="../pyVHDLParser.Token.html#pyVHDLParser.Token.Token" xlink:title="Base&#45;class for all token classes." target="_top">
<polygon fill="white" stroke="#1e90ff" points="54,-594189.55 0,-594189.55 0,-594163.55 54,-594163.55 54,-594189.55"/>
<text text-anchor="middle" x="27" y="-594176.05" font-family="Vera Sans, DejaVu Sans, Liberation Sans, Arial, Helvetica, sans" font-size="10.00">Token</text>
</a>
</g>
</g>
<!-- ValuedToken -->
<g id="node6" class="node">
<title>ValuedToken</title>
<g id="a_node6"><a xlink:href="../pyVHDLParser.Token.html#pyVHDLParser.Token.ValuedToken" xlink:title="Base&#45;class for all *valued* token." target="_top">
<polygon fill="white" stroke="#1e90ff" points="188.5,-594185.8 90,-594185.8 90,-594167.3 188.5,-594167.3 188.5,-594185.8"/>
<text text-anchor="middle" x="139.25" y="-594172.3" font-family="Vera Sans, DejaVu Sans, Liberation Sans, Arial, Helvetica, sans" font-size="10.00">ValuedToken</text>
</a>
</g>
</g>
<!-- Token&#45;&gt;ValuedToken -->
<g id="edge5" class="edge">
<title>Token&#45;&gt;ValuedToken</title>
<path fill="none" stroke="black" stroke-width="0.5" d="M54.41,-594176.55C63.25,-594176.55 73.45,-594176.55 83.64,-594176.55"/>
<polygon fill="black" stroke="black" stroke-width="0.5" points="84.62,-594178.3 89.62,-594176.55 84.62,-594174.8 84.62,-594178.3"/>
</g>
<!-- ValuedToken&#45;&gt;VHDLToken -->
<g id="edge4" class="edge">
<title>ValuedToken&#45;&gt;VHDLToken</title>
<path fill="none" stroke="black" stroke-width="0.5" d="M188.94,-594176.55C198.59,-594176.55 208.7,-594176.55 218.29,-594176.55"/>
<polygon fill="black" stroke="black" stroke-width="0.5" points="219.19,-594178.3 224.19,-594176.55 219.19,-594174.8 219.19,-594178.3"/>
</g>
</g>
</svg>
