<?xml version="1.0" encoding="UTF-8" standalone="no"?>
<!DOCTYPE svg PUBLIC "-//W3C//DTD SVG 1.1//EN"
 "http://www.w3.org/Graphics/SVG/1.1/DTD/svg11.dtd">
<!-- Generated by graphviz version 8.0.5 (20230430.1635)
 -->
<!-- Title: inheritance39b5c0176a Pages: 1 -->
<svg width="1pt" height="864pt"
 viewBox="0.00 0.00 1.35 864.00" xmlns="http://www.w3.org/2000/svg" xmlns:xlink="http://www.w3.org/1999/xlink">
<g id="graph0" class="graph" transform="scale(0.00219796 0.00219796) rotate(0) translate(4 393087.54)">
<title>inheritance39b5c0176a</title>
<!-- KeywordToken -->
<g id="node1" class="node">
<title>KeywordToken</title>
<g id="a_node1"><a xlink:href="../pyVHDLParser/pyVHDLParser.Token.Keywords.html#pyVHDLParser.Token.Keywords.KeywordToken" xlink:title="KeywordToken" target="_top">
<polygon fill="white" stroke="#1e90ff" points="450,-196551.02 344,-196551.02 344,-196532.52 450,-196532.52 450,-196551.02"/>
<text text-anchor="middle" x="397" y="-196537.52" font-family="Vera Sans, DejaVu Sans, Liberation Sans, Arial, Helvetica, sans" font-size="10.00">KeywordToken</text>
</a>
</g>
</g>
<!-- PrivateKeyword -->
<g id="node3" class="node">
<title>PrivateKeyword</title>
<g id="a_node3"><a xlink:href="../pyVHDLParser/pyVHDLParser.Token.Keywords.html#pyVHDLParser.Token.Keywords.PrivateKeyword" xlink:title="PrivateKeyword" target="_top">
<polygon fill="white" stroke="#1e90ff" points="607,-393083.49 486,-393083.49 486,-0.05 607,-0.05 607,-393083.49"/>
<text text-anchor="middle" x="546.5" y="-393069.99" font-family="Vera Sans, DejaVu Sans, Liberation Sans, Arial, Helvetica, sans" font-size="10.00">PrivateKeyword</text>
</a>
</g>
</g>
<!-- KeywordToken&#45;&gt;PrivateKeyword -->
<g id="edge2" class="edge">
<title>KeywordToken&#45;&gt;PrivateKeyword</title>
<path fill="none" stroke="black" stroke-width="0.5" d="M450.42,-196541.77C459.97,-196541.77 470.05,-196541.77 479.92,-196541.77"/>
<polygon fill="black" stroke="black" stroke-width="0.5" points="480.71,-196543.52 485.71,-196541.77 480.71,-196540.02 480.71,-196543.52"/>
</g>
<!-- VHDLToken -->
<g id="node2" class="node">
<title>VHDLToken</title>
<g id="a_node2"><a xlink:href="../pyVHDLParser.Token.html#pyVHDLParser.Token.VHDLToken" xlink:title="Base&#45;class for all VHDL specific tokens." target="_top">
<polygon fill="white" stroke="#1e90ff" points="308,-196551.02 224.5,-196551.02 224.5,-196532.52 308,-196532.52 308,-196551.02"/>
<text text-anchor="middle" x="266.25" y="-196537.52" font-family="Vera Sans, DejaVu Sans, Liberation Sans, Arial, Helvetica, sans" font-size="10.00">VHDLToken</text>
</a>
</g>
</g>
<!-- VHDLToken&#45;&gt;KeywordToken -->
<g id="edge1" class="edge">
<title>VHDLToken&#45;&gt;KeywordToken</title>
<path fill="none" stroke="black" stroke-width="0.5" d="M308.34,-196541.77C317.69,-196541.77 327.8,-196541.77 337.71,-196541.77"/>
<polygon fill="black" stroke="black" stroke-width="0.5" points="338.52,-196543.52 343.52,-196541.77 338.52,-196540.02 338.52,-196543.52"/>
</g>
<!-- Token -->
<g id="node4" class="node">
<title>Token</title>
<g id="a_node4"><a xlink:href="../pyVHDLParser.Token.html#pyVHDLParser.Token.Token" xlink:title="Base&#45;class for all token classes." target="_top">
<polygon fill="white" stroke="#1e90ff" points="54,-393083.54 0,-393083.54 0,0 54,0 54,-393083.54"/>
<text text-anchor="middle" x="27" y="-393070.04" font-family="Vera Sans, DejaVu Sans, Liberation Sans, Arial, Helvetica, sans" font-size="10.00">Token</text>
</a>
</g>
</g>
<!-- ValuedToken -->
<g id="node5" class="node">
<title>ValuedToken</title>
<g id="a_node5"><a xlink:href="../pyVHDLParser.Token.html#pyVHDLParser.Token.ValuedToken" xlink:title="Base&#45;class for all *valued* token." target="_top">
<polygon fill="white" stroke="#1e90ff" points="188.5,-196551.02 90,-196551.02 90,-196532.52 188.5,-196532.52 188.5,-196551.02"/>
<text text-anchor="middle" x="139.25" y="-196537.52" font-family="Vera Sans, DejaVu Sans, Liberation Sans, Arial, Helvetica, sans" font-size="10.00">ValuedToken</text>
</a>
</g>
</g>
<!-- Token&#45;&gt;ValuedToken -->
<g id="edge4" class="edge">
<title>Token&#45;&gt;ValuedToken</title>
<path fill="none" stroke="black" stroke-width="0.5" d="M54.41,-196541.77C63.25,-196541.77 73.45,-196541.77 83.64,-196541.77"/>
<polygon fill="black" stroke="black" stroke-width="0.5" points="84.62,-196543.52 89.62,-196541.77 84.62,-196540.02 84.62,-196543.52"/>
</g>
<!-- ValuedToken&#45;&gt;VHDLToken -->
<g id="edge3" class="edge">
<title>ValuedToken&#45;&gt;VHDLToken</title>
<path fill="none" stroke="black" stroke-width="0.5" d="M188.94,-196541.77C198.59,-196541.77 208.7,-196541.77 218.29,-196541.77"/>
<polygon fill="black" stroke="black" stroke-width="0.5" points="219.19,-196543.52 224.19,-196541.77 219.19,-196540.02 219.19,-196543.52"/>
</g>
</g>
</svg>
