<?xml version="1.0" encoding="UTF-8" standalone="no"?>
<!DOCTYPE svg PUBLIC "-//W3C//DTD SVG 1.1//EN"
 "http://www.w3.org/Graphics/SVG/1.1/DTD/svg11.dtd">
<!-- Generated by graphviz version 8.0.5 (20230430.1635)
 -->
<!-- Title: inheritanceab8688acb3 Pages: 1 -->
<svg width="0pt" height="864pt"
 viewBox="0.00 0.00 0.47 864.00" xmlns="http://www.w3.org/2000/svg" xmlns:xlink="http://www.w3.org/1999/xlink">
<g id="graph0" class="graph" transform="scale(0.000790916 0.000790916) rotate(0) translate(4 1092400.42)">
<title>inheritanceab8688acb3</title>
<!-- BeginKeyword -->
<g id="node1" class="node">
<title>BeginKeyword</title>
<g id="a_node1"><a xlink:href="../pyVHDLParser/pyVHDLParser.Token.Keywords.html#pyVHDLParser.Token.Keywords.BeginKeyword" xlink:title="Reserved word &#39;begin&#39; to distinguish declarative regions from statements regions." target="_top">
<polygon fill="white" stroke="#1e90ff" points="592,-546207.46 486,-546207.46 486,-546188.96 592,-546188.96 592,-546207.46"/>
<text text-anchor="middle" x="539" y="-546193.96" font-family="Vera Sans, DejaVu Sans, Liberation Sans, Arial, Helvetica, sans" font-size="10.00">BeginKeyword</text>
</a>
</g>
</g>
<!-- KeywordToken -->
<g id="node2" class="node">
<title>KeywordToken</title>
<g id="a_node2"><a xlink:href="../pyVHDLParser/pyVHDLParser.Token.Keywords.html#pyVHDLParser.Token.Keywords.KeywordToken" xlink:title="KeywordToken" target="_top">
<polygon fill="white" stroke="#1e90ff" points="450,-546207.46 344,-546207.46 344,-546188.96 450,-546188.96 450,-546207.46"/>
<text text-anchor="middle" x="397" y="-546193.96" font-family="Vera Sans, DejaVu Sans, Liberation Sans, Arial, Helvetica, sans" font-size="10.00">KeywordToken</text>
</a>
</g>
</g>
<!-- KeywordToken&#45;&gt;BeginKeyword -->
<g id="edge1" class="edge">
<title>KeywordToken&#45;&gt;BeginKeyword</title>
<path fill="none" stroke="black" stroke-width="0.5" d="M450.13,-546198.21C459.88,-546198.21 470.12,-546198.21 480.03,-546198.21"/>
<polygon fill="black" stroke="black" stroke-width="0.5" points="480.83,-546199.96 485.83,-546198.21 480.83,-546196.46 480.83,-546199.96"/>
</g>
<!-- VHDLToken -->
<g id="node3" class="node">
<title>VHDLToken</title>
<g id="a_node3"><a xlink:href="../pyVHDLParser.Token.html#pyVHDLParser.Token.VHDLToken" xlink:title="Base&#45;class for all VHDL specific tokens." target="_top">
<polygon fill="white" stroke="#1e90ff" points="308,-1092396.42 224.5,-1092396.42 224.5,0 308,0 308,-1092396.42"/>
<text text-anchor="middle" x="266.25" y="-1092382.92" font-family="Vera Sans, DejaVu Sans, Liberation Sans, Arial, Helvetica, sans" font-size="10.00">VHDLToken</text>
</a>
</g>
</g>
<!-- VHDLToken&#45;&gt;KeywordToken -->
<g id="edge2" class="edge">
<title>VHDLToken&#45;&gt;KeywordToken</title>
<path fill="none" stroke="black" stroke-width="0.5" d="M308.34,-546198.21C317.69,-546198.21 327.8,-546198.21 337.71,-546198.21"/>
<polygon fill="black" stroke="black" stroke-width="0.5" points="338.52,-546199.96 343.52,-546198.21 338.52,-546196.46 338.52,-546199.96"/>
</g>
<!-- Token -->
<g id="node4" class="node">
<title>Token</title>
<g id="a_node4"><a xlink:href="../pyVHDLParser.Token.html#pyVHDLParser.Token.Token" xlink:title="Base&#45;class for all token classes." target="_top">
<polygon fill="white" stroke="#1e90ff" points="54,-1092396.37 0,-1092396.37 0,-0.05 54,-0.05 54,-1092396.37"/>
<text text-anchor="middle" x="27" y="-1092382.87" font-family="Vera Sans, DejaVu Sans, Liberation Sans, Arial, Helvetica, sans" font-size="10.00">Token</text>
</a>
</g>
</g>
<!-- ValuedToken -->
<g id="node5" class="node">
<title>ValuedToken</title>
<g id="a_node5"><a xlink:href="../pyVHDLParser.Token.html#pyVHDLParser.Token.ValuedToken" xlink:title="Base&#45;class for all *valued* token." target="_top">
<polygon fill="white" stroke="#1e90ff" points="188.5,-546207.46 90,-546207.46 90,-546188.96 188.5,-546188.96 188.5,-546207.46"/>
<text text-anchor="middle" x="139.25" y="-546193.96" font-family="Vera Sans, DejaVu Sans, Liberation Sans, Arial, Helvetica, sans" font-size="10.00">ValuedToken</text>
</a>
</g>
</g>
<!-- Token&#45;&gt;ValuedToken -->
<g id="edge4" class="edge">
<title>Token&#45;&gt;ValuedToken</title>
<path fill="none" stroke="black" stroke-width="0.5" d="M54.41,-546198.21C63.25,-546198.21 73.45,-546198.21 83.64,-546198.21"/>
<polygon fill="black" stroke="black" stroke-width="0.5" points="84.62,-546199.96 89.62,-546198.21 84.62,-546196.46 84.62,-546199.96"/>
</g>
<!-- ValuedToken&#45;&gt;VHDLToken -->
<g id="edge3" class="edge">
<title>ValuedToken&#45;&gt;VHDLToken</title>
<path fill="none" stroke="black" stroke-width="0.5" d="M188.94,-546198.21C198.59,-546198.21 208.7,-546198.21 218.29,-546198.21"/>
<polygon fill="black" stroke="black" stroke-width="0.5" points="219.19,-546199.96 224.19,-546198.21 219.19,-546196.46 219.19,-546199.96"/>
</g>
</g>
</svg>
