<?xml version="1.0" encoding="UTF-8" standalone="no"?>
<!DOCTYPE svg PUBLIC "-//W3C//DTD SVG 1.1//EN"
 "http://www.w3.org/Graphics/SVG/1.1/DTD/svg11.dtd">
<!-- Generated by graphviz version 8.0.5 (20230430.1635)
 -->
<!-- Title: inheritanceffc4a11050 Pages: 1 -->
<svg width="533pt" height="27pt"
 viewBox="0.00 0.00 533.00 26.57" xmlns="http://www.w3.org/2000/svg" xmlns:xlink="http://www.w3.org/1999/xlink">
<g id="graph0" class="graph" transform="scale(1 1) rotate(0) translate(4 22.57)">
<title>inheritanceffc4a11050</title>
<!-- Block -->
<g id="node1" class="node">
<title>Block</title>
<g id="a_node1"><a xlink:href="../pyVHDLParser.Blocks.html#pyVHDLParser.Blocks.Block" xlink:title="Base&#45;class for all :term:`block` classes." target="_top">
<polygon fill="white" stroke="#1e90ff" points="54,-18.54 0,-18.54 0,-0.04 54,-0.04 54,-18.54"/>
<text text-anchor="middle" x="27" y="-5.04" font-family="Vera Sans, DejaVu Sans, Liberation Sans, Arial, Helvetica, sans" font-size="10.00">Block</text>
</a>
</g>
</g>
<!-- SkipableBlock -->
<g id="node4" class="node">
<title>SkipableBlock</title>
<g id="a_node4"><a xlink:href="../pyVHDLParser.Blocks.html#pyVHDLParser.Blocks.SkipableBlock" xlink:title="Base&#45;class for blocks that can be skipped in fast&#45;forward scanning." target="_top">
<polygon fill="white" stroke="#1e90ff" points="203.5,-18.54 90,-18.54 90,-0.04 203.5,-0.04 203.5,-18.54"/>
<text text-anchor="middle" x="146.75" y="-5.04" font-family="Vera Sans, DejaVu Sans, Liberation Sans, Arial, Helvetica, sans" font-size="10.00">SkipableBlock</text>
</a>
</g>
</g>
<!-- Block&#45;&gt;SkipableBlock -->
<g id="edge2" class="edge">
<title>Block&#45;&gt;SkipableBlock</title>
<path fill="none" stroke="black" stroke-width="0.5" d="M54.43,-9.29C63.24,-9.29 73.46,-9.29 83.8,-9.29"/>
<polygon fill="black" stroke="black" stroke-width="0.5" points="84.56,-11.04 89.56,-9.29 84.56,-7.54 84.56,-11.04"/>
</g>
<!-- LinebreakBlock -->
<g id="node2" class="node">
<title>LinebreakBlock</title>
<g id="a_node2"><a xlink:href="../pyVHDLParser/pyVHDLParser.Blocks.Common.html#pyVHDLParser.Blocks.Common.LinebreakBlock" xlink:title="LinebreakBlock" target="_top">
<polygon fill="white" stroke="#1e90ff" points="525,-18.54 404,-18.54 404,-0.04 525,-0.04 525,-18.54"/>
<text text-anchor="middle" x="464.5" y="-5.04" font-family="Vera Sans, DejaVu Sans, Liberation Sans, Arial, Helvetica, sans" font-size="10.00">LinebreakBlock</text>
</a>
</g>
</g>
<!-- WhitespaceBlock -->
<g id="node3" class="node">
<title>WhitespaceBlock</title>
<g id="a_node3"><a xlink:href="../pyVHDLParser/pyVHDLParser.Blocks.Common.html#pyVHDLParser.Blocks.Common.WhitespaceBlock" xlink:title="WhitespaceBlock" target="_top">
<polygon fill="white" stroke="#1e90ff" points="368,-18.57 239.5,-18.57 239.5,0 368,0 368,-18.57"/>
<text text-anchor="middle" x="303.75" y="-5.07" font-family="Vera Sans, DejaVu Sans, Liberation Sans, Arial, Helvetica, sans" font-size="10.00">WhitespaceBlock</text>
</a>
</g>
</g>
<!-- WhitespaceBlock&#45;&gt;LinebreakBlock -->
<g id="edge1" class="edge">
<title>WhitespaceBlock&#45;&gt;LinebreakBlock</title>
<path fill="none" stroke="black" stroke-width="0.5" d="M368.4,-9.29C378.05,-9.29 388.01,-9.29 397.7,-9.29"/>
<polygon fill="black" stroke="black" stroke-width="0.5" points="398.69,-11.04 403.69,-9.29 398.69,-7.54 398.69,-11.04"/>
</g>
<!-- SkipableBlock&#45;&gt;WhitespaceBlock -->
<g id="edge3" class="edge">
<title>SkipableBlock&#45;&gt;WhitespaceBlock</title>
<path fill="none" stroke="black" stroke-width="0.5" d="M203.71,-9.29C213.35,-9.29 223.47,-9.29 233.42,-9.29"/>
<polygon fill="black" stroke="black" stroke-width="0.5" points="234.24,-11.04 239.24,-9.29 234.24,-7.54 234.24,-11.04"/>
</g>
</g>
</svg>
