<?xml version="1.0" encoding="UTF-8" standalone="no"?>
<!DOCTYPE svg PUBLIC "-//W3C//DTD SVG 1.1//EN"
 "http://www.w3.org/Graphics/SVG/1.1/DTD/svg11.dtd">
<!-- Generated by graphviz version 8.0.5 (20230430.1635)
 -->
<!-- Title: inheritance84462197bf Pages: 1 -->
<svg width="1pt" height="864pt"
 viewBox="0.00 0.00 0.61 864.00" xmlns="http://www.w3.org/2000/svg" xmlns:xlink="http://www.w3.org/1999/xlink">
<g id="graph0" class="graph" transform="scale(0.000750935 0.000750935) rotate(0) translate(4 1150561.39)">
<title>inheritance84462197bf</title>
<!-- LabelToken -->
<g id="node1" class="node">
<title>LabelToken</title>
<g id="a_node1"><a xlink:href="../pyVHDLParser/pyVHDLParser.Token.Keywords.html#pyVHDLParser.Token.Keywords.LabelToken" xlink:title="Token representing a label." target="_top">
<polygon fill="white" stroke="#1e90ff" points="614.5,-575287.95 523.5,-575287.95 523.5,-575269.45 614.5,-575269.45 614.5,-575287.95"/>
<text text-anchor="middle" x="569" y="-575274.45" font-family="Vera Sans, DejaVu Sans, Liberation Sans, Arial, Helvetica, sans" font-size="10.00">LabelToken</text>
</a>
</g>
</g>
<!-- RepeatedLabelToken -->
<g id="node3" class="node">
<title>RepeatedLabelToken</title>
<g id="a_node3"><a xlink:href="../pyVHDLParser/pyVHDLParser.Token.Keywords.html#pyVHDLParser.Token.Keywords.RepeatedLabelToken" xlink:title="Token representing a repeated label." target="_top">
<polygon fill="white" stroke="#1e90ff" points="801.5,-1150557.39 650.5,-1150557.39 650.5,0 801.5,0 801.5,-1150557.39"/>
<text text-anchor="middle" x="726" y="-1150543.89" font-family="Vera Sans, DejaVu Sans, Liberation Sans, Arial, Helvetica, sans" font-size="10.00">RepeatedLabelToken</text>
</a>
</g>
</g>
<!-- LabelToken&#45;&gt;RepeatedLabelToken -->
<g id="edge2" class="edge">
<title>LabelToken&#45;&gt;RepeatedLabelToken</title>
<path fill="none" stroke="black" stroke-width="0.5" d="M614.83,-575278.7C624.1,-575278.7 634.13,-575278.7 644.24,-575278.7"/>
<polygon fill="black" stroke="black" stroke-width="0.5" points="645.19,-575280.45 650.19,-575278.7 645.19,-575276.95 645.19,-575280.45"/>
</g>
<!-- SpecificVHDLToken -->
<g id="node2" class="node">
<title>SpecificVHDLToken</title>
<g id="a_node2"><a xlink:href="../pyVHDLParser/pyVHDLParser.Token.Keywords.html#pyVHDLParser.Token.Keywords.SpecificVHDLToken" xlink:title="Base&#45;class for all specific tokens." target="_top">
<polygon fill="white" stroke="#1e90ff" points="487.5,-575287.95 344,-575287.95 344,-575269.45 487.5,-575269.45 487.5,-575287.95"/>
<text text-anchor="middle" x="415.75" y="-575274.45" font-family="Vera Sans, DejaVu Sans, Liberation Sans, Arial, Helvetica, sans" font-size="10.00">SpecificVHDLToken</text>
</a>
</g>
</g>
<!-- SpecificVHDLToken&#45;&gt;LabelToken -->
<g id="edge1" class="edge">
<title>SpecificVHDLToken&#45;&gt;LabelToken</title>
<path fill="none" stroke="black" stroke-width="0.5" d="M487.95,-575278.7C497.84,-575278.7 507.84,-575278.7 517.26,-575278.7"/>
<polygon fill="black" stroke="black" stroke-width="0.5" points="518.05,-575280.45 523.05,-575278.7 518.05,-575276.95 518.05,-575280.45"/>
</g>
<!-- VHDLToken -->
<g id="node4" class="node">
<title>VHDLToken</title>
<g id="a_node4"><a xlink:href="../pyVHDLParser.Token.html#pyVHDLParser.Token.VHDLToken" xlink:title="Base&#45;class for all VHDL specific tokens." target="_top">
<polygon fill="white" stroke="#1e90ff" points="308,-575287.95 224.5,-575287.95 224.5,-575269.45 308,-575269.45 308,-575287.95"/>
<text text-anchor="middle" x="266.25" y="-575274.45" font-family="Vera Sans, DejaVu Sans, Liberation Sans, Arial, Helvetica, sans" font-size="10.00">VHDLToken</text>
</a>
</g>
</g>
<!-- VHDLToken&#45;&gt;SpecificVHDLToken -->
<g id="edge3" class="edge">
<title>VHDLToken&#45;&gt;SpecificVHDLToken</title>
<path fill="none" stroke="black" stroke-width="0.5" d="M308.34,-575278.7C317.53,-575278.7 327.57,-575278.7 337.69,-575278.7"/>
<polygon fill="black" stroke="black" stroke-width="0.5" points="338.66,-575280.45 343.66,-575278.7 338.66,-575276.95 338.66,-575280.45"/>
</g>
<!-- Token -->
<g id="node5" class="node">
<title>Token</title>
<g id="a_node5"><a xlink:href="../pyVHDLParser.Token.html#pyVHDLParser.Token.Token" xlink:title="Base&#45;class for all token classes." target="_top">
<polygon fill="white" stroke="#1e90ff" points="54,-575299.85 0,-575299.85 0,-575257.54 54,-575257.54 54,-575299.85"/>
<text text-anchor="middle" x="27" y="-575286.35" font-family="Vera Sans, DejaVu Sans, Liberation Sans, Arial, Helvetica, sans" font-size="10.00">Token</text>
</a>
</g>
</g>
<!-- ValuedToken -->
<g id="node6" class="node">
<title>ValuedToken</title>
<g id="a_node6"><a xlink:href="../pyVHDLParser.Token.html#pyVHDLParser.Token.ValuedToken" xlink:title="Base&#45;class for all *valued* token." target="_top">
<polygon fill="white" stroke="#1e90ff" points="188.5,-575291.7 90,-575291.7 90,-575265.7 188.5,-575265.7 188.5,-575291.7"/>
<text text-anchor="middle" x="139.25" y="-575278.2" font-family="Vera Sans, DejaVu Sans, Liberation Sans, Arial, Helvetica, sans" font-size="10.00">ValuedToken</text>
</a>
</g>
</g>
<!-- Token&#45;&gt;ValuedToken -->
<g id="edge5" class="edge">
<title>Token&#45;&gt;ValuedToken</title>
<path fill="none" stroke="black" stroke-width="0.5" d="M54.41,-575278.7C63.25,-575278.7 73.45,-575278.7 83.64,-575278.7"/>
<polygon fill="black" stroke="black" stroke-width="0.5" points="84.62,-575280.45 89.62,-575278.7 84.62,-575276.95 84.62,-575280.45"/>
</g>
<!-- ValuedToken&#45;&gt;VHDLToken -->
<g id="edge4" class="edge">
<title>ValuedToken&#45;&gt;VHDLToken</title>
<path fill="none" stroke="black" stroke-width="0.5" d="M188.94,-575278.7C198.59,-575278.7 208.7,-575278.7 218.29,-575278.7"/>
<polygon fill="black" stroke="black" stroke-width="0.5" points="219.19,-575280.45 224.19,-575278.7 219.19,-575276.95 219.19,-575280.45"/>
</g>
</g>
</svg>
