<?xml version="1.0" encoding="UTF-8" standalone="no"?>
<!DOCTYPE svg PUBLIC "-//W3C//DTD SVG 1.1//EN"
 "http://www.w3.org/Graphics/SVG/1.1/DTD/svg11.dtd">
<!-- Generated by graphviz version 8.0.5 (20230430.1635)
 -->
<!-- Title: inheritance40d708a1b9 Pages: 1 -->
<svg width="2pt" height="864pt"
 viewBox="0.00 0.00 2.49 864.00" xmlns="http://www.w3.org/2000/svg" xmlns:xlink="http://www.w3.org/1999/xlink">
<g id="graph0" class="graph" transform="scale(0.00420513 0.00420513) rotate(0) translate(4 205459.42)">
<title>inheritance40d708a1b9</title>
<!-- KeywordToken -->
<g id="node1" class="node">
<title>KeywordToken</title>
<g id="a_node1"><a xlink:href="../pyVHDLParser/pyVHDLParser.Token.Keywords.html#pyVHDLParser.Token.Keywords.KeywordToken" xlink:title="KeywordToken" target="_top">
<polygon fill="white" stroke="#1e90ff" points="450,-102736.96 344,-102736.96 344,-102718.46 450,-102718.46 450,-102736.96"/>
<text text-anchor="middle" x="397" y="-102723.46" font-family="Vera Sans, DejaVu Sans, Liberation Sans, Arial, Helvetica, sans" font-size="10.00">KeywordToken</text>
</a>
</g>
</g>
<!-- NextKeyword -->
<g id="node3" class="node">
<title>NextKeyword</title>
<g id="a_node3"><a xlink:href="../pyVHDLParser/pyVHDLParser.Token.Keywords.html#pyVHDLParser.Token.Keywords.NextKeyword" xlink:title="NextKeyword" target="_top">
<polygon fill="white" stroke="#1e90ff" points="584.5,-205455.42 486,-205455.42 486,0 584.5,0 584.5,-205455.42"/>
<text text-anchor="middle" x="535.25" y="-205441.92" font-family="Vera Sans, DejaVu Sans, Liberation Sans, Arial, Helvetica, sans" font-size="10.00">NextKeyword</text>
</a>
</g>
</g>
<!-- KeywordToken&#45;&gt;NextKeyword -->
<g id="edge2" class="edge">
<title>KeywordToken&#45;&gt;NextKeyword</title>
<path fill="none" stroke="black" stroke-width="0.5" d="M450.29,-102727.71C460.07,-102727.71 470.32,-102727.71 480.16,-102727.71"/>
<polygon fill="black" stroke="black" stroke-width="0.5" points="480.9,-102729.46 485.9,-102727.71 480.9,-102725.96 480.9,-102729.46"/>
</g>
<!-- VHDLToken -->
<g id="node2" class="node">
<title>VHDLToken</title>
<g id="a_node2"><a xlink:href="../pyVHDLParser.Token.html#pyVHDLParser.Token.VHDLToken" xlink:title="Base&#45;class for all VHDL specific tokens." target="_top">
<polygon fill="white" stroke="#1e90ff" points="308,-102736.96 224.5,-102736.96 224.5,-102718.46 308,-102718.46 308,-102736.96"/>
<text text-anchor="middle" x="266.25" y="-102723.46" font-family="Vera Sans, DejaVu Sans, Liberation Sans, Arial, Helvetica, sans" font-size="10.00">VHDLToken</text>
</a>
</g>
</g>
<!-- VHDLToken&#45;&gt;KeywordToken -->
<g id="edge1" class="edge">
<title>VHDLToken&#45;&gt;KeywordToken</title>
<path fill="none" stroke="black" stroke-width="0.5" d="M308.34,-102727.71C317.69,-102727.71 327.8,-102727.71 337.71,-102727.71"/>
<polygon fill="black" stroke="black" stroke-width="0.5" points="338.52,-102729.46 343.52,-102727.71 338.52,-102725.96 338.52,-102729.46"/>
</g>
<!-- Token -->
<g id="node4" class="node">
<title>Token</title>
<g id="a_node4"><a xlink:href="../pyVHDLParser.Token.html#pyVHDLParser.Token.Token" xlink:title="Base&#45;class for all token classes." target="_top">
<polygon fill="white" stroke="#1e90ff" points="54,-205455.37 0,-205455.37 0,-0.05 54,-0.05 54,-205455.37"/>
<text text-anchor="middle" x="27" y="-205441.87" font-family="Vera Sans, DejaVu Sans, Liberation Sans, Arial, Helvetica, sans" font-size="10.00">Token</text>
</a>
</g>
</g>
<!-- ValuedToken -->
<g id="node5" class="node">
<title>ValuedToken</title>
<g id="a_node5"><a xlink:href="../pyVHDLParser.Token.html#pyVHDLParser.Token.ValuedToken" xlink:title="Base&#45;class for all *valued* token." target="_top">
<polygon fill="white" stroke="#1e90ff" points="188.5,-102736.96 90,-102736.96 90,-102718.46 188.5,-102718.46 188.5,-102736.96"/>
<text text-anchor="middle" x="139.25" y="-102723.46" font-family="Vera Sans, DejaVu Sans, Liberation Sans, Arial, Helvetica, sans" font-size="10.00">ValuedToken</text>
</a>
</g>
</g>
<!-- Token&#45;&gt;ValuedToken -->
<g id="edge4" class="edge">
<title>Token&#45;&gt;ValuedToken</title>
<path fill="none" stroke="black" stroke-width="0.5" d="M54.41,-102727.71C63.25,-102727.71 73.45,-102727.71 83.64,-102727.71"/>
<polygon fill="black" stroke="black" stroke-width="0.5" points="84.62,-102729.46 89.62,-102727.71 84.62,-102725.96 84.62,-102729.46"/>
</g>
<!-- ValuedToken&#45;&gt;VHDLToken -->
<g id="edge3" class="edge">
<title>ValuedToken&#45;&gt;VHDLToken</title>
<path fill="none" stroke="black" stroke-width="0.5" d="M188.94,-102727.71C198.59,-102727.71 208.7,-102727.71 218.29,-102727.71"/>
<polygon fill="black" stroke="black" stroke-width="0.5" points="219.19,-102729.46 224.19,-102727.71 219.19,-102725.96 219.19,-102729.46"/>
</g>
</g>
</svg>
