<?xml version="1.0" encoding="UTF-8" standalone="no"?>
<!DOCTYPE svg PUBLIC "-//W3C//DTD SVG 1.1//EN"
 "http://www.w3.org/Graphics/SVG/1.1/DTD/svg11.dtd">
<!-- Generated by graphviz version 8.0.5 (20230430.1635)
 -->
<!-- Title: inheritance3b0adbc73f Pages: 1 -->
<svg width="1pt" height="864pt"
 viewBox="0.00 0.00 0.51 864.00" xmlns="http://www.w3.org/2000/svg" xmlns:xlink="http://www.w3.org/1999/xlink">
<g id="graph0" class="graph" transform="scale(0.00100313 0.00100313) rotate(0) translate(4 861303.19)">
<title>inheritance3b0adbc73f</title>
<!-- BeginBlock -->
<g id="node1" class="node">
<title>BeginBlock</title>
<g id="a_node1"><a xlink:href="../pyVHDLParser.Blocks.Generic1.html#pyVHDLParser.Blocks.Generic1.BeginBlock" xlink:title="BeginBlock" target="_top">
<polygon fill="white" stroke="#1e90ff" points="181,-430658.84 90,-430658.84 90,-430640.34 181,-430640.34 181,-430658.84"/>
<text text-anchor="middle" x="135.5" y="-430645.34" font-family="Vera Sans, DejaVu Sans, Liberation Sans, Arial, Helvetica, sans" font-size="10.00">BeginBlock</text>
</a>
</g>
</g>
<!-- SequentialBeginBlock -->
<g id="node3" class="node">
<title>SequentialBeginBlock</title>
<g id="a_node3"><a xlink:href="../pyVHDLParser.Blocks.Generic.html#pyVHDLParser.Blocks.Generic.SequentialBeginBlock" xlink:title="SequentialBeginBlock" target="_top">
<polygon fill="white" stroke="#1e90ff" points="383,-430658.84 217,-430658.84 217,-430640.34 383,-430640.34 383,-430658.84"/>
<text text-anchor="middle" x="300" y="-430645.34" font-family="Vera Sans, DejaVu Sans, Liberation Sans, Arial, Helvetica, sans" font-size="10.00">SequentialBeginBlock</text>
</a>
</g>
</g>
<!-- BeginBlock&#45;&gt;SequentialBeginBlock -->
<g id="edge2" class="edge">
<title>BeginBlock&#45;&gt;SequentialBeginBlock</title>
<path fill="none" stroke="black" stroke-width="0.5" d="M181.33,-430649.59C190.52,-430649.59 200.49,-430649.59 210.61,-430649.59"/>
<polygon fill="black" stroke="black" stroke-width="0.5" points="211.58,-430651.34 216.58,-430649.59 211.58,-430647.84 211.58,-430651.34"/>
</g>
<!-- Block -->
<g id="node2" class="node">
<title>Block</title>
<g id="a_node2"><a xlink:href="../pyVHDLParser.Blocks.html#pyVHDLParser.Blocks.Block" xlink:title="Base&#45;class for all :term:`block` classes." target="_top">
<polygon fill="white" stroke="#1e90ff" points="54,-861299.19 0,-861299.19 0,0 54,0 54,-861299.19"/>
<text text-anchor="middle" x="27" y="-861285.69" font-family="Vera Sans, DejaVu Sans, Liberation Sans, Arial, Helvetica, sans" font-size="10.00">Block</text>
</a>
</g>
</g>
<!-- Block&#45;&gt;BeginBlock -->
<g id="edge1" class="edge">
<title>Block&#45;&gt;BeginBlock</title>
<path fill="none" stroke="black" stroke-width="0.5" d="M54.33,-430649.59C63.29,-430649.59 73.62,-430649.59 83.84,-430649.59"/>
<polygon fill="black" stroke="black" stroke-width="0.5" points="84.82,-430651.34 89.82,-430649.59 84.82,-430647.84 84.82,-430651.34"/>
</g>
<!-- WhenBlock -->
<g id="node4" class="node">
<title>WhenBlock</title>
<g id="a_node4"><a xlink:href="../pyVHDLParser/pyVHDLParser.Blocks.ControlStructure.Case.html#pyVHDLParser.Blocks.ControlStructure.Case.WhenBlock" xlink:title="WhenBlock" target="_top">
<polygon fill="white" stroke="#1e90ff" points="502.5,-430658.84 419,-430658.84 419,-430640.34 502.5,-430640.34 502.5,-430658.84"/>
<text text-anchor="middle" x="460.75" y="-430645.34" font-family="Vera Sans, DejaVu Sans, Liberation Sans, Arial, Helvetica, sans" font-size="10.00">WhenBlock</text>
</a>
</g>
</g>
<!-- SequentialBeginBlock&#45;&gt;WhenBlock -->
<g id="edge3" class="edge">
<title>SequentialBeginBlock&#45;&gt;WhenBlock</title>
<path fill="none" stroke="black" stroke-width="0.5" d="M383.17,-430649.59C393.44,-430649.59 403.65,-430649.59 413.11,-430649.59"/>
<polygon fill="black" stroke="black" stroke-width="0.5" points="413.9,-430651.34 418.9,-430649.59 413.9,-430647.84 413.9,-430651.34"/>
</g>
</g>
</svg>
