<?xml version="1.0" encoding="UTF-8" standalone="no"?>
<!DOCTYPE svg PUBLIC "-//W3C//DTD SVG 1.1//EN"
 "http://www.w3.org/Graphics/SVG/1.1/DTD/svg11.dtd">
<!-- Generated by graphviz version 8.0.5 (20230430.1635)
 -->
<!-- Title: inheritancec154c7b220 Pages: 1 -->
<svg width="0pt" height="864pt"
 viewBox="0.00 0.00 0.47 864.00" xmlns="http://www.w3.org/2000/svg" xmlns:xlink="http://www.w3.org/1999/xlink">
<g id="graph0" class="graph" transform="scale(0.00105768 0.00105768) rotate(0) translate(4 816881.49)">
<title>inheritancec154c7b220</title>
<!-- Group -->
<g id="node1" class="node">
<title>Group</title>
<g id="a_node1"><a xlink:href="../../pyVHDLParser/pyVHDLParser.Groups.html#pyVHDLParser.Groups.Group" xlink:title="Group" target="_top">
<polygon fill="white" stroke="#1e90ff" points="61.25,-457603.68 7.25,-457603.68 7.25,-457585.18 61.25,-457585.18 61.25,-457603.68"/>
<text text-anchor="middle" x="34.25" y="-457590.18" font-family="Vera Sans, DejaVu Sans, Liberation Sans, Arial, Helvetica, sans" font-size="10.00">Group</text>
</a>
</g>
</g>
<!-- StartOfGroup -->
<g id="node5" class="node">
<title>StartOfGroup</title>
<g id="a_node5"><a xlink:href="../../pyVHDLParser/pyVHDLParser.Groups.html#pyVHDLParser.Groups.StartOfGroup" xlink:title="StartOfGroup" target="_top">
<polygon fill="white" stroke="#1e90ff" points="221.75,-457609.18 115.75,-457609.18 115.75,-457579.68 221.75,-457579.68 221.75,-457609.18"/>
<text text-anchor="middle" x="168.75" y="-457595.68" font-family="Vera Sans, DejaVu Sans, Liberation Sans, Arial, Helvetica, sans" font-size="10.00">StartOfGroup</text>
</a>
</g>
</g>
<!-- Group&#45;&gt;StartOfGroup -->
<g id="edge4" class="edge">
<title>Group&#45;&gt;StartOfGroup</title>
<path fill="none" stroke="black" stroke-width="0.5" d="M61.74,-457594.43C75.52,-457594.43 92.93,-457594.43 109.64,-457594.43"/>
<polygon fill="black" stroke="black" stroke-width="0.5" points="110.27,-457596.18 115.27,-457594.43 110.27,-457592.68 110.27,-457596.18"/>
</g>
<!-- StartOf -->
<g id="node2" class="node">
<title>StartOf</title>
<g id="a_node2"><a xlink:title="Base&#45;class (mixin) for all StartOf*** classes.">
<polygon fill="white" stroke="#1e90ff" points="68.5,-392068.68 0,-392068.68 0,-392050.18 68.5,-392050.18 68.5,-392068.68"/>
<text text-anchor="middle" x="34.25" y="-392055.18" font-family="Vera Sans, DejaVu Sans, Liberation Sans, Arial, Helvetica, sans" font-size="10.00">StartOf</text>
</a>
</g>
</g>
<!-- StartOfDocument -->
<g id="node3" class="node">
<title>StartOfDocument</title>
<g id="a_node3"><a xlink:title="Base&#45;class (mixin) for all StartOf***Document classes.">
<polygon fill="white" stroke="#1e90ff" points="233,-784118.86 104.5,-784118.86 104.5,0 233,0 233,-784118.86"/>
<text text-anchor="middle" x="168.75" y="-784105.36" font-family="Vera Sans, DejaVu Sans, Liberation Sans, Arial, Helvetica, sans" font-size="10.00">StartOfDocument</text>
</a>
</g>
</g>
<!-- StartOf&#45;&gt;StartOfDocument -->
<g id="edge1" class="edge">
<title>StartOf&#45;&gt;StartOfDocument</title>
<path fill="none" stroke="black" stroke-width="0.5" d="M68.69,-392059.43C77.81,-392059.43 88.04,-392059.43 98.37,-392059.43"/>
<polygon fill="black" stroke="black" stroke-width="0.5" points="99.11,-392061.18 104.11,-392059.43 99.11,-392057.68 99.11,-392061.18"/>
</g>
<!-- StartOfDocumentGroup -->
<g id="node4" class="node">
<title>StartOfDocumentGroup</title>
<g id="a_node4"><a xlink:href="../../pyVHDLParser/pyVHDLParser.Groups.html#pyVHDLParser.Groups.StartOfDocumentGroup" xlink:title="StartOfDocumentGroup" target="_top">
<polygon fill="white" stroke="#1e90ff" points="435,-816877.49 269,-816877.49 269,-32775.36 435,-32775.36 435,-816877.49"/>
<text text-anchor="middle" x="352" y="-816863.99" font-family="Vera Sans, DejaVu Sans, Liberation Sans, Arial, Helvetica, sans" font-size="10.00">StartOfDocumentGroup</text>
</a>
</g>
</g>
<!-- StartOfDocument&#45;&gt;StartOfDocumentGroup -->
<g id="edge3" class="edge">
<title>StartOfDocument&#45;&gt;StartOfDocumentGroup</title>
<path fill="none" stroke="black" stroke-width="0.5" d="M233.5,-403584.12C244.81,-405628.48 256.73,-407783.8 268.47,-409906.11"/>
<polygon fill="black" stroke="black" stroke-width="0.5" points="266.72,-409906.96 268.5,-409911.95 270.22,-409906.94 266.72,-409906.96"/>
</g>
<!-- StartOfGroup&#45;&gt;StartOfDocumentGroup -->
<g id="edge2" class="edge">
<title>StartOfGroup&#45;&gt;StartOfDocumentGroup</title>
<path fill="none" stroke="black" stroke-width="0.5" d="M222.12,-457585.06C226.31,-457582.54 230.05,-457579.38 233,-457575.43 246.2,-457557.75 257.94,-457235.45 268.39,-456667.77"/>
<polygon fill="black" stroke="black" stroke-width="0.5" points="270.16,-456666.95 268.5,-456661.92 266.66,-456666.89 270.16,-456666.95"/>
</g>
</g>
</svg>
