<?xml version="1.0" encoding="UTF-8" standalone="no"?>
<!DOCTYPE svg PUBLIC "-//W3C//DTD SVG 1.1//EN"
 "http://www.w3.org/Graphics/SVG/1.1/DTD/svg11.dtd">
<!-- Generated by graphviz version 8.0.5 (20230430.1635)
 -->
<!-- Title: inheritancec00f293e8f Pages: 1 -->
<svg width="1pt" height="864pt"
 viewBox="0.00 0.00 0.53 864.00" xmlns="http://www.w3.org/2000/svg" xmlns:xlink="http://www.w3.org/1999/xlink">
<g id="graph0" class="graph" transform="scale(0.000799121 0.000799121) rotate(0) translate(4 1081183.42)">
<title>inheritancec00f293e8f</title>
<!-- IdentifierToken -->
<g id="node1" class="node">
<title>IdentifierToken</title>
<g id="a_node1"><a xlink:href="../pyVHDLParser/pyVHDLParser.Token.Keywords.html#pyVHDLParser.Token.Keywords.IdentifierToken" xlink:title="Token representing an identifier." target="_top">
<polygon fill="white" stroke="#1e90ff" points="652,-540598.96 523.5,-540598.96 523.5,-540580.46 652,-540580.46 652,-540598.96"/>
<text text-anchor="middle" x="587.75" y="-540585.46" font-family="Vera Sans, DejaVu Sans, Liberation Sans, Arial, Helvetica, sans" font-size="10.00">IdentifierToken</text>
</a>
</g>
</g>
<!-- SpecificVHDLToken -->
<g id="node2" class="node">
<title>SpecificVHDLToken</title>
<g id="a_node2"><a xlink:href="../pyVHDLParser/pyVHDLParser.Token.Keywords.html#pyVHDLParser.Token.Keywords.SpecificVHDLToken" xlink:title="Base&#45;class for all specific tokens." target="_top">
<polygon fill="white" stroke="#1e90ff" points="487.5,-540598.96 344,-540598.96 344,-540580.46 487.5,-540580.46 487.5,-540598.96"/>
<text text-anchor="middle" x="415.75" y="-540585.46" font-family="Vera Sans, DejaVu Sans, Liberation Sans, Arial, Helvetica, sans" font-size="10.00">SpecificVHDLToken</text>
</a>
</g>
</g>
<!-- SpecificVHDLToken&#45;&gt;IdentifierToken -->
<g id="edge1" class="edge">
<title>SpecificVHDLToken&#45;&gt;IdentifierToken</title>
<path fill="none" stroke="black" stroke-width="0.5" d="M487.86,-540589.71C497.58,-540589.71 507.55,-540589.71 517.24,-540589.71"/>
<polygon fill="black" stroke="black" stroke-width="0.5" points="518.23,-540591.46 523.23,-540589.71 518.23,-540587.96 518.23,-540591.46"/>
</g>
<!-- VHDLToken -->
<g id="node3" class="node">
<title>VHDLToken</title>
<g id="a_node3"><a xlink:href="../pyVHDLParser.Token.html#pyVHDLParser.Token.VHDLToken" xlink:title="Base&#45;class for all VHDL specific tokens." target="_top">
<polygon fill="white" stroke="#1e90ff" points="308,-1081179.42 224.5,-1081179.42 224.5,0 308,0 308,-1081179.42"/>
<text text-anchor="middle" x="266.25" y="-1081165.92" font-family="Vera Sans, DejaVu Sans, Liberation Sans, Arial, Helvetica, sans" font-size="10.00">VHDLToken</text>
</a>
</g>
</g>
<!-- VHDLToken&#45;&gt;SpecificVHDLToken -->
<g id="edge2" class="edge">
<title>VHDLToken&#45;&gt;SpecificVHDLToken</title>
<path fill="none" stroke="black" stroke-width="0.5" d="M308.34,-540589.71C317.53,-540589.71 327.57,-540589.71 337.69,-540589.71"/>
<polygon fill="black" stroke="black" stroke-width="0.5" points="338.66,-540591.46 343.66,-540589.71 338.66,-540587.96 338.66,-540591.46"/>
</g>
<!-- Token -->
<g id="node4" class="node">
<title>Token</title>
<g id="a_node4"><a xlink:href="../pyVHDLParser.Token.html#pyVHDLParser.Token.Token" xlink:title="Base&#45;class for all token classes." target="_top">
<polygon fill="white" stroke="#1e90ff" points="54,-1081179.37 0,-1081179.37 0,-0.05 54,-0.05 54,-1081179.37"/>
<text text-anchor="middle" x="27" y="-1081165.87" font-family="Vera Sans, DejaVu Sans, Liberation Sans, Arial, Helvetica, sans" font-size="10.00">Token</text>
</a>
</g>
</g>
<!-- ValuedToken -->
<g id="node5" class="node">
<title>ValuedToken</title>
<g id="a_node5"><a xlink:href="../pyVHDLParser.Token.html#pyVHDLParser.Token.ValuedToken" xlink:title="Base&#45;class for all *valued* token." target="_top">
<polygon fill="white" stroke="#1e90ff" points="188.5,-540598.96 90,-540598.96 90,-540580.46 188.5,-540580.46 188.5,-540598.96"/>
<text text-anchor="middle" x="139.25" y="-540585.46" font-family="Vera Sans, DejaVu Sans, Liberation Sans, Arial, Helvetica, sans" font-size="10.00">ValuedToken</text>
</a>
</g>
</g>
<!-- Token&#45;&gt;ValuedToken -->
<g id="edge4" class="edge">
<title>Token&#45;&gt;ValuedToken</title>
<path fill="none" stroke="black" stroke-width="0.5" d="M54.41,-540589.71C63.25,-540589.71 73.45,-540589.71 83.64,-540589.71"/>
<polygon fill="black" stroke="black" stroke-width="0.5" points="84.62,-540591.46 89.62,-540589.71 84.62,-540587.96 84.62,-540591.46"/>
</g>
<!-- ValuedToken&#45;&gt;VHDLToken -->
<g id="edge3" class="edge">
<title>ValuedToken&#45;&gt;VHDLToken</title>
<path fill="none" stroke="black" stroke-width="0.5" d="M188.94,-540589.71C198.59,-540589.71 208.7,-540589.71 218.29,-540589.71"/>
<polygon fill="black" stroke="black" stroke-width="0.5" points="219.19,-540591.46 224.19,-540589.71 219.19,-540587.96 219.19,-540591.46"/>
</g>
</g>
</svg>
