<?xml version="1.0" encoding="UTF-8" standalone="no"?>
<!DOCTYPE svg PUBLIC "-//W3C//DTD SVG 1.1//EN"
 "http://www.w3.org/Graphics/SVG/1.1/DTD/svg11.dtd">
<!-- Generated by graphviz version 8.0.5 (20230430.1635)
 -->
<!-- Title: inheritance0d778f4709 Pages: 1 -->
<svg width="1pt" height="864pt"
 viewBox="0.00 0.00 0.84 864.00" xmlns="http://www.w3.org/2000/svg" xmlns:xlink="http://www.w3.org/1999/xlink">
<g id="graph0" class="graph" transform="scale(0.00169906 0.00169906) rotate(0) translate(4 508513.31)">
<title>inheritance0d778f4709</title>
<!-- BeginBlock -->
<g id="node1" class="node">
<title>BeginBlock</title>
<g id="a_node1"><a xlink:href="../pyVHDLParser.Blocks.Generic1.html#pyVHDLParser.Blocks.Generic1.BeginBlock" xlink:title="BeginBlock" target="_top">
<polygon fill="white" stroke="#1e90ff" points="181,-254263.91 90,-254263.91 90,-254245.41 181,-254245.41 181,-254263.91"/>
<text text-anchor="middle" x="135.5" y="-254250.41" font-family="Vera Sans, DejaVu Sans, Liberation Sans, Arial, Helvetica, sans" font-size="10.00">BeginBlock</text>
</a>
</g>
</g>
<!-- SequentialBeginBlock -->
<g id="node4" class="node">
<title>SequentialBeginBlock</title>
<g id="a_node4"><a xlink:href="../pyVHDLParser.Blocks.Generic.html#pyVHDLParser.Blocks.Generic.SequentialBeginBlock" xlink:title="SequentialBeginBlock" target="_top">
<polygon fill="white" stroke="#1e90ff" points="383,-254263.91 217,-254263.91 217,-254245.41 383,-254245.41 383,-254263.91"/>
<text text-anchor="middle" x="300" y="-254250.41" font-family="Vera Sans, DejaVu Sans, Liberation Sans, Arial, Helvetica, sans" font-size="10.00">SequentialBeginBlock</text>
</a>
</g>
</g>
<!-- BeginBlock&#45;&gt;SequentialBeginBlock -->
<g id="edge3" class="edge">
<title>BeginBlock&#45;&gt;SequentialBeginBlock</title>
<path fill="none" stroke="black" stroke-width="0.5" d="M181.33,-254254.66C190.52,-254254.66 200.49,-254254.66 210.61,-254254.66"/>
<polygon fill="black" stroke="black" stroke-width="0.5" points="211.58,-254256.41 216.58,-254254.66 211.58,-254252.91 211.58,-254256.41"/>
</g>
<!-- Block -->
<g id="node2" class="node">
<title>Block</title>
<g id="a_node2"><a xlink:href="../pyVHDLParser.Blocks.html#pyVHDLParser.Blocks.Block" xlink:title="Base&#45;class for all :term:`block` classes." target="_top">
<polygon fill="white" stroke="#1e90ff" points="54,-508509.31 0,-508509.31 0,0 54,0 54,-508509.31"/>
<text text-anchor="middle" x="27" y="-508495.81" font-family="Vera Sans, DejaVu Sans, Liberation Sans, Arial, Helvetica, sans" font-size="10.00">Block</text>
</a>
</g>
</g>
<!-- Block&#45;&gt;BeginBlock -->
<g id="edge1" class="edge">
<title>Block&#45;&gt;BeginBlock</title>
<path fill="none" stroke="black" stroke-width="0.5" d="M54.33,-254254.66C63.29,-254254.66 73.62,-254254.66 83.84,-254254.66"/>
<polygon fill="black" stroke="black" stroke-width="0.5" points="84.82,-254256.41 89.82,-254254.66 84.82,-254252.91 84.82,-254256.41"/>
</g>
<!-- IsBlock -->
<g id="node3" class="node">
<title>IsBlock</title>
<g id="a_node3"><a xlink:href="../pyVHDLParser/pyVHDLParser.Blocks.ControlStructure.Case.html#pyVHDLParser.Blocks.ControlStructure.Case.IsBlock" xlink:title="IsBlock" target="_top">
<polygon fill="white" stroke="#1e90ff" points="487.5,-254263.91 419,-254263.91 419,-254245.41 487.5,-254245.41 487.5,-254263.91"/>
<text text-anchor="middle" x="453.25" y="-254250.41" font-family="Vera Sans, DejaVu Sans, Liberation Sans, Arial, Helvetica, sans" font-size="10.00">IsBlock</text>
</a>
</g>
</g>
<!-- SequentialBeginBlock&#45;&gt;IsBlock -->
<g id="edge2" class="edge">
<title>SequentialBeginBlock&#45;&gt;IsBlock</title>
<path fill="none" stroke="black" stroke-width="0.5" d="M383.26,-254254.66C393.49,-254254.66 403.56,-254254.66 412.71,-254254.66"/>
<polygon fill="black" stroke="black" stroke-width="0.5" points="413.58,-254256.41 418.58,-254254.66 413.58,-254252.91 413.58,-254256.41"/>
</g>
</g>
</svg>
