<?xml version="1.0" encoding="UTF-8" standalone="no"?>
<!DOCTYPE svg PUBLIC "-//W3C//DTD SVG 1.1//EN"
 "http://www.w3.org/Graphics/SVG/1.1/DTD/svg11.dtd">
<!-- Generated by graphviz version 8.0.5 (20230430.1635)
 -->
<!-- Title: inheritance1c0f3a4066 Pages: 1 -->
<svg width="0pt" height="864pt"
 viewBox="0.00 0.00 0.50 864.00" xmlns="http://www.w3.org/2000/svg" xmlns:xlink="http://www.w3.org/1999/xlink">
<g id="graph0" class="graph" transform="scale(0.000846727 0.000846727) rotate(0) translate(4 1020396.19)">
<title>inheritance1c0f3a4066</title>
<!-- KeywordToken -->
<g id="node1" class="node">
<title>KeywordToken</title>
<g id="a_node1"><a xlink:href="../pyVHDLParser/pyVHDLParser.Token.Keywords.html#pyVHDLParser.Token.Keywords.KeywordToken" xlink:title="KeywordToken" target="_top">
<polygon fill="white" stroke="#1e90ff" points="450,-510205.34 344,-510205.34 344,-510186.84 450,-510186.84 450,-510205.34"/>
<text text-anchor="middle" x="397" y="-510191.84" font-family="Vera Sans, DejaVu Sans, Liberation Sans, Arial, Helvetica, sans" font-size="10.00">KeywordToken</text>
</a>
</g>
</g>
<!-- MapKeyword -->
<g id="node3" class="node">
<title>MapKeyword</title>
<g id="a_node3"><a xlink:href="../pyVHDLParser/pyVHDLParser.Token.Keywords.html#pyVHDLParser.Token.Keywords.MapKeyword" xlink:title="MapKeyword" target="_top">
<polygon fill="white" stroke="#1e90ff" points="577,-1020392.14 486,-1020392.14 486,-0.05 577,-0.05 577,-1020392.14"/>
<text text-anchor="middle" x="531.5" y="-1020378.64" font-family="Vera Sans, DejaVu Sans, Liberation Sans, Arial, Helvetica, sans" font-size="10.00">MapKeyword</text>
</a>
</g>
</g>
<!-- KeywordToken&#45;&gt;MapKeyword -->
<g id="edge2" class="edge">
<title>KeywordToken&#45;&gt;MapKeyword</title>
<path fill="none" stroke="black" stroke-width="0.5" d="M450.37,-510196.09C460.07,-510196.09 470.19,-510196.09 479.84,-510196.09"/>
<polygon fill="black" stroke="black" stroke-width="0.5" points="480.79,-510197.84 485.79,-510196.09 480.79,-510194.34 480.79,-510197.84"/>
</g>
<!-- VHDLToken -->
<g id="node2" class="node">
<title>VHDLToken</title>
<g id="a_node2"><a xlink:href="../pyVHDLParser.Token.html#pyVHDLParser.Token.VHDLToken" xlink:title="Base&#45;class for all VHDL specific tokens." target="_top">
<polygon fill="white" stroke="#1e90ff" points="308,-510205.34 224.5,-510205.34 224.5,-510186.84 308,-510186.84 308,-510205.34"/>
<text text-anchor="middle" x="266.25" y="-510191.84" font-family="Vera Sans, DejaVu Sans, Liberation Sans, Arial, Helvetica, sans" font-size="10.00">VHDLToken</text>
</a>
</g>
</g>
<!-- VHDLToken&#45;&gt;KeywordToken -->
<g id="edge1" class="edge">
<title>VHDLToken&#45;&gt;KeywordToken</title>
<path fill="none" stroke="black" stroke-width="0.5" d="M308.34,-510196.09C317.69,-510196.09 327.8,-510196.09 337.71,-510196.09"/>
<polygon fill="black" stroke="black" stroke-width="0.5" points="338.52,-510197.84 343.52,-510196.09 338.52,-510194.34 338.52,-510197.84"/>
</g>
<!-- Token -->
<g id="node4" class="node">
<title>Token</title>
<g id="a_node4"><a xlink:href="../pyVHDLParser.Token.html#pyVHDLParser.Token.Token" xlink:title="Base&#45;class for all token classes." target="_top">
<polygon fill="white" stroke="#1e90ff" points="54,-1020392.19 0,-1020392.19 0,0 54,0 54,-1020392.19"/>
<text text-anchor="middle" x="27" y="-1020378.69" font-family="Vera Sans, DejaVu Sans, Liberation Sans, Arial, Helvetica, sans" font-size="10.00">Token</text>
</a>
</g>
</g>
<!-- ValuedToken -->
<g id="node5" class="node">
<title>ValuedToken</title>
<g id="a_node5"><a xlink:href="../pyVHDLParser.Token.html#pyVHDLParser.Token.ValuedToken" xlink:title="Base&#45;class for all *valued* token." target="_top">
<polygon fill="white" stroke="#1e90ff" points="188.5,-510210.84 90,-510210.84 90,-510181.35 188.5,-510181.35 188.5,-510210.84"/>
<text text-anchor="middle" x="139.25" y="-510197.34" font-family="Vera Sans, DejaVu Sans, Liberation Sans, Arial, Helvetica, sans" font-size="10.00">ValuedToken</text>
</a>
</g>
</g>
<!-- Token&#45;&gt;ValuedToken -->
<g id="edge4" class="edge">
<title>Token&#45;&gt;ValuedToken</title>
<path fill="none" stroke="black" stroke-width="0.5" d="M54.41,-510196.09C63.25,-510196.09 73.45,-510196.09 83.64,-510196.09"/>
<polygon fill="black" stroke="black" stroke-width="0.5" points="84.62,-510197.84 89.62,-510196.09 84.62,-510194.34 84.62,-510197.84"/>
</g>
<!-- ValuedToken&#45;&gt;VHDLToken -->
<g id="edge3" class="edge">
<title>ValuedToken&#45;&gt;VHDLToken</title>
<path fill="none" stroke="black" stroke-width="0.5" d="M188.94,-510196.09C198.59,-510196.09 208.7,-510196.09 218.29,-510196.09"/>
<polygon fill="black" stroke="black" stroke-width="0.5" points="219.19,-510197.84 224.19,-510196.09 219.19,-510194.34 219.19,-510197.84"/>
</g>
</g>
</svg>
