<?xml version="1.0" encoding="UTF-8" standalone="no"?>
<!DOCTYPE svg PUBLIC "-//W3C//DTD SVG 1.1//EN"
 "http://www.w3.org/Graphics/SVG/1.1/DTD/svg11.dtd">
<!-- Generated by graphviz version 8.0.5 (20230430.1635)
 -->
<!-- Title: inheritance78cfd3407b Pages: 1 -->
<svg width="576pt" height="18pt"
 viewBox="0.00 0.00 576.00 18.00" xmlns="http://www.w3.org/2000/svg" xmlns:xlink="http://www.w3.org/1999/xlink">
<g id="graph0" class="graph" transform="scale(0.679245 0.679245) rotate(0) translate(4 22.5)">
<title>inheritance78cfd3407b</title>
<!-- Block -->
<g id="node1" class="node">
<title>Block</title>
<g id="a_node1"><a xlink:href="../pyVHDLParser.Blocks.html#pyVHDLParser.Blocks.Block" xlink:title="Base&#45;class for all :term:`block` classes." target="_top">
<polygon fill="white" stroke="#1e90ff" points="54,-18.5 0,-18.5 0,0 54,0 54,-18.5"/>
<text text-anchor="middle" x="27" y="-5" font-family="Vera Sans, DejaVu Sans, Liberation Sans, Arial, Helvetica, sans" font-size="10.00">Block</text>
</a>
</g>
</g>
<!-- ExpressionBlock -->
<g id="node4" class="node">
<title>ExpressionBlock</title>
<g id="a_node4"><a xlink:href="../pyVHDLParser.Blocks.Expression.html#pyVHDLParser.Blocks.Expression.ExpressionBlock" xlink:title="ExpressionBlock" target="_top">
<polygon fill="white" stroke="#1e90ff" points="218.5,-18.5 90,-18.5 90,0 218.5,0 218.5,-18.5"/>
<text text-anchor="middle" x="154.25" y="-5" font-family="Vera Sans, DejaVu Sans, Liberation Sans, Arial, Helvetica, sans" font-size="10.00">ExpressionBlock</text>
</a>
</g>
</g>
<!-- Block&#45;&gt;ExpressionBlock -->
<g id="edge2" class="edge">
<title>Block&#45;&gt;ExpressionBlock</title>
<path fill="none" stroke="black" stroke-width="0.5" d="M54.26,-9.25C63.03,-9.25 73.27,-9.25 83.76,-9.25"/>
<polygon fill="black" stroke="black" stroke-width="0.5" points="84.61,-11 89.61,-9.25 84.61,-7.5 84.61,-11"/>
</g>
<!-- CaseExpressionBlock -->
<g id="node2" class="node">
<title>CaseExpressionBlock</title>
<g id="a_node2"><a xlink:href="../pyVHDLParser/pyVHDLParser.Blocks.ControlStructure.Case.html#pyVHDLParser.Blocks.ControlStructure.Case.CaseExpressionBlock" xlink:title="CaseExpressionBlock" target="_top">
<polygon fill="white" stroke="#1e90ff" points="840,-18.5 681.5,-18.5 681.5,0 840,0 840,-18.5"/>
<text text-anchor="middle" x="760.75" y="-5" font-family="Vera Sans, DejaVu Sans, Liberation Sans, Arial, Helvetica, sans" font-size="10.00">CaseExpressionBlock</text>
</a>
</g>
</g>
<!-- ExpressionBlockEndedByKeywordORClosingRoundBracket -->
<g id="node3" class="node">
<title>ExpressionBlockEndedByKeywordORClosingRoundBracket</title>
<g id="a_node3"><a xlink:href="../pyVHDLParser.Blocks.Expression.html#pyVHDLParser.Blocks.Expression.ExpressionBlockEndedByKeywordORClosingRoundBracket" xlink:title="ExpressionBlockEndedByKeywordORClosingRoundBracket" target="_top">
<polygon fill="white" stroke="#1e90ff" points="645.5,-18.5 254.5,-18.5 254.5,0 645.5,0 645.5,-18.5"/>
<text text-anchor="middle" x="450" y="-5" font-family="Vera Sans, DejaVu Sans, Liberation Sans, Arial, Helvetica, sans" font-size="10.00">ExpressionBlockEndedByKeywordORClosingRoundBracket</text>
</a>
</g>
</g>
<!-- ExpressionBlockEndedByKeywordORClosingRoundBracket&#45;&gt;CaseExpressionBlock -->
<g id="edge1" class="edge">
<title>ExpressionBlockEndedByKeywordORClosingRoundBracket&#45;&gt;CaseExpressionBlock</title>
<path fill="none" stroke="black" stroke-width="0.5" d="M645.66,-9.25C655.83,-9.25 665.75,-9.25 675.23,-9.25"/>
<polygon fill="black" stroke="black" stroke-width="0.5" points="676.07,-11 681.07,-9.25 676.07,-7.5 676.07,-11"/>
</g>
<!-- ExpressionBlock&#45;&gt;ExpressionBlockEndedByKeywordORClosingRoundBracket -->
<g id="edge3" class="edge">
<title>ExpressionBlock&#45;&gt;ExpressionBlockEndedByKeywordORClosingRoundBracket</title>
<path fill="none" stroke="black" stroke-width="0.5" d="M218.99,-9.25C228.24,-9.25 238.15,-9.25 248.48,-9.25"/>
<polygon fill="black" stroke="black" stroke-width="0.5" points="249.25,-11 254.25,-9.25 249.25,-7.5 249.25,-11"/>
</g>
</g>
</svg>
