<?xml version="1.0" encoding="UTF-8" standalone="no"?>
<!DOCTYPE svg PUBLIC "-//W3C//DTD SVG 1.1//EN"
 "http://www.w3.org/Graphics/SVG/1.1/DTD/svg11.dtd">
<!-- Generated by graphviz version 8.0.5 (20230430.1635)
 -->
<!-- Title: inheritancee3541863dd Pages: 1 -->
<svg width="1pt" height="864pt"
 viewBox="0.00 0.00 0.70 864.00" xmlns="http://www.w3.org/2000/svg" xmlns:xlink="http://www.w3.org/1999/xlink">
<g id="graph0" class="graph" transform="scale(0.00111348 0.00111348) rotate(0) translate(4 775943.36)">
<title>inheritancee3541863dd</title>
<!-- LiteralToken -->
<g id="node1" class="node">
<title>LiteralToken</title>
<g id="a_node1"><a xlink:href="../pyVHDLParser/pyVHDLParser.Token.html#pyVHDLParser.Token.LiteralToken" xlink:title="Base&#45;class for all literals in VHDL." target="_top">
<polygon fill="white" stroke="#1e90ff" points="450,-387978.93 344,-387978.93 344,-387960.43 450,-387960.43 450,-387978.93"/>
<text text-anchor="middle" x="397" y="-387965.43" font-family="Vera Sans, DejaVu Sans, Liberation Sans, Arial, Helvetica, sans" font-size="10.00">LiteralToken</text>
</a>
</g>
</g>
<!-- RealLiteralToken -->
<g id="node3" class="node">
<title>RealLiteralToken</title>
<g id="a_node3"><a xlink:href="../pyVHDLParser/pyVHDLParser.Token.html#pyVHDLParser.Token.RealLiteralToken" xlink:title="Token representing a real literal." target="_top">
<polygon fill="white" stroke="#1e90ff" points="622,-775939.31 486,-775939.31 486,-0.05 622,-0.05 622,-775939.31"/>
<text text-anchor="middle" x="554" y="-775925.81" font-family="Vera Sans, DejaVu Sans, Liberation Sans, Arial, Helvetica, sans" font-size="10.00">RealLiteralToken</text>
</a>
</g>
</g>
<!-- LiteralToken&#45;&gt;RealLiteralToken -->
<g id="edge2" class="edge">
<title>LiteralToken&#45;&gt;RealLiteralToken</title>
<path fill="none" stroke="black" stroke-width="0.5" d="M450.48,-387969.68C459.95,-387969.68 469.98,-387969.68 479.91,-387969.68"/>
<polygon fill="black" stroke="black" stroke-width="0.5" points="480.74,-387971.43 485.74,-387969.68 480.74,-387967.93 480.74,-387971.43"/>
</g>
<!-- VHDLToken -->
<g id="node2" class="node">
<title>VHDLToken</title>
<g id="a_node2"><a xlink:href="../pyVHDLParser/pyVHDLParser.Token.html#pyVHDLParser.Token.VHDLToken" xlink:title="Base&#45;class for all VHDL specific tokens." target="_top">
<polygon fill="white" stroke="#1e90ff" points="308,-387978.93 224.5,-387978.93 224.5,-387960.43 308,-387960.43 308,-387978.93"/>
<text text-anchor="middle" x="266.25" y="-387965.43" font-family="Vera Sans, DejaVu Sans, Liberation Sans, Arial, Helvetica, sans" font-size="10.00">VHDLToken</text>
</a>
</g>
</g>
<!-- VHDLToken&#45;&gt;LiteralToken -->
<g id="edge1" class="edge">
<title>VHDLToken&#45;&gt;LiteralToken</title>
<path fill="none" stroke="black" stroke-width="0.5" d="M308.34,-387969.68C317.69,-387969.68 327.8,-387969.68 337.71,-387969.68"/>
<polygon fill="black" stroke="black" stroke-width="0.5" points="338.52,-387971.43 343.52,-387969.68 338.52,-387967.93 338.52,-387971.43"/>
</g>
<!-- Token -->
<g id="node4" class="node">
<title>Token</title>
<g id="a_node4"><a xlink:href="../pyVHDLParser/pyVHDLParser.Token.html#pyVHDLParser.Token.Token" xlink:title="Base&#45;class for all token classes." target="_top">
<polygon fill="white" stroke="#1e90ff" points="54,-775939.36 0,-775939.36 0,0 54,0 54,-775939.36"/>
<text text-anchor="middle" x="27" y="-775925.86" font-family="Vera Sans, DejaVu Sans, Liberation Sans, Arial, Helvetica, sans" font-size="10.00">Token</text>
</a>
</g>
</g>
<!-- ValuedToken -->
<g id="node5" class="node">
<title>ValuedToken</title>
<g id="a_node5"><a xlink:href="../pyVHDLParser/pyVHDLParser.Token.html#pyVHDLParser.Token.ValuedToken" xlink:title="Base&#45;class for all *valued* token." target="_top">
<polygon fill="white" stroke="#1e90ff" points="188.5,-387978.93 90,-387978.93 90,-387960.43 188.5,-387960.43 188.5,-387978.93"/>
<text text-anchor="middle" x="139.25" y="-387965.43" font-family="Vera Sans, DejaVu Sans, Liberation Sans, Arial, Helvetica, sans" font-size="10.00">ValuedToken</text>
</a>
</g>
</g>
<!-- Token&#45;&gt;ValuedToken -->
<g id="edge4" class="edge">
<title>Token&#45;&gt;ValuedToken</title>
<path fill="none" stroke="black" stroke-width="0.5" d="M54.41,-387969.68C63.25,-387969.68 73.45,-387969.68 83.64,-387969.68"/>
<polygon fill="black" stroke="black" stroke-width="0.5" points="84.62,-387971.43 89.62,-387969.68 84.62,-387967.93 84.62,-387971.43"/>
</g>
<!-- ValuedToken&#45;&gt;VHDLToken -->
<g id="edge3" class="edge">
<title>ValuedToken&#45;&gt;VHDLToken</title>
<path fill="none" stroke="black" stroke-width="0.5" d="M188.94,-387969.68C198.59,-387969.68 208.7,-387969.68 218.29,-387969.68"/>
<polygon fill="black" stroke="black" stroke-width="0.5" points="219.19,-387971.43 224.19,-387969.68 219.19,-387967.93 219.19,-387971.43"/>
</g>
</g>
</svg>
