<?xml version="1.0" encoding="UTF-8" standalone="no"?>
<!DOCTYPE svg PUBLIC "-//W3C//DTD SVG 1.1//EN"
 "http://www.w3.org/Graphics/SVG/1.1/DTD/svg11.dtd">
<!-- Generated by graphviz version 8.0.5 (20230430.1635)
 -->
<!-- Title: inheritancee25dc43af8 Pages: 1 -->
<svg width="1pt" height="864pt"
 viewBox="0.00 0.00 0.52 864.00" xmlns="http://www.w3.org/2000/svg" xmlns:xlink="http://www.w3.org/1999/xlink">
<g id="graph0" class="graph" transform="scale(0.00086414 0.00086414) rotate(0) translate(4 999834.18)">
<title>inheritancee25dc43af8</title>
<!-- AfterKeyword -->
<g id="node1" class="node">
<title>AfterKeyword</title>
<g id="a_node1"><a xlink:href="../pyVHDLParser/pyVHDLParser.Token.Keywords.html#pyVHDLParser.Token.Keywords.AfterKeyword" xlink:title="Reserved word &#39;after&#39;." target="_top">
<polygon fill="white" stroke="#1e90ff" points="592,-499924.34 486,-499924.34 486,-499905.84 592,-499905.84 592,-499924.34"/>
<text text-anchor="middle" x="539" y="-499910.84" font-family="Vera Sans, DejaVu Sans, Liberation Sans, Arial, Helvetica, sans" font-size="10.00">AfterKeyword</text>
</a>
</g>
</g>
<!-- KeywordToken -->
<g id="node2" class="node">
<title>KeywordToken</title>
<g id="a_node2"><a xlink:href="../pyVHDLParser/pyVHDLParser.Token.Keywords.html#pyVHDLParser.Token.Keywords.KeywordToken" xlink:title="KeywordToken" target="_top">
<polygon fill="white" stroke="#1e90ff" points="450,-499924.34 344,-499924.34 344,-499905.84 450,-499905.84 450,-499924.34"/>
<text text-anchor="middle" x="397" y="-499910.84" font-family="Vera Sans, DejaVu Sans, Liberation Sans, Arial, Helvetica, sans" font-size="10.00">KeywordToken</text>
</a>
</g>
</g>
<!-- KeywordToken&#45;&gt;AfterKeyword -->
<g id="edge1" class="edge">
<title>KeywordToken&#45;&gt;AfterKeyword</title>
<path fill="none" stroke="black" stroke-width="0.5" d="M450.13,-499915.09C459.88,-499915.09 470.12,-499915.09 480.03,-499915.09"/>
<polygon fill="black" stroke="black" stroke-width="0.5" points="480.83,-499916.84 485.83,-499915.09 480.83,-499913.34 480.83,-499916.84"/>
</g>
<!-- VHDLToken -->
<g id="node3" class="node">
<title>VHDLToken</title>
<g id="a_node3"><a xlink:href="../pyVHDLParser.Token.html#pyVHDLParser.Token.VHDLToken" xlink:title="Base&#45;class for all VHDL specific tokens." target="_top">
<polygon fill="white" stroke="#1e90ff" points="308,-999830.13 224.5,-999830.13 224.5,-0.05 308,-0.05 308,-999830.13"/>
<text text-anchor="middle" x="266.25" y="-999816.63" font-family="Vera Sans, DejaVu Sans, Liberation Sans, Arial, Helvetica, sans" font-size="10.00">VHDLToken</text>
</a>
</g>
</g>
<!-- VHDLToken&#45;&gt;KeywordToken -->
<g id="edge2" class="edge">
<title>VHDLToken&#45;&gt;KeywordToken</title>
<path fill="none" stroke="black" stroke-width="0.5" d="M308.34,-499915.09C317.69,-499915.09 327.8,-499915.09 337.71,-499915.09"/>
<polygon fill="black" stroke="black" stroke-width="0.5" points="338.52,-499916.84 343.52,-499915.09 338.52,-499913.34 338.52,-499916.84"/>
</g>
<!-- Token -->
<g id="node4" class="node">
<title>Token</title>
<g id="a_node4"><a xlink:href="../pyVHDLParser.Token.html#pyVHDLParser.Token.Token" xlink:title="Base&#45;class for all token classes." target="_top">
<polygon fill="white" stroke="#1e90ff" points="54,-999830.18 0,-999830.18 0,0 54,0 54,-999830.18"/>
<text text-anchor="middle" x="27" y="-999816.68" font-family="Vera Sans, DejaVu Sans, Liberation Sans, Arial, Helvetica, sans" font-size="10.00">Token</text>
</a>
</g>
</g>
<!-- ValuedToken -->
<g id="node5" class="node">
<title>ValuedToken</title>
<g id="a_node5"><a xlink:href="../pyVHDLParser.Token.html#pyVHDLParser.Token.ValuedToken" xlink:title="Base&#45;class for all *valued* token." target="_top">
<polygon fill="white" stroke="#1e90ff" points="188.5,-499924.34 90,-499924.34 90,-499905.84 188.5,-499905.84 188.5,-499924.34"/>
<text text-anchor="middle" x="139.25" y="-499910.84" font-family="Vera Sans, DejaVu Sans, Liberation Sans, Arial, Helvetica, sans" font-size="10.00">ValuedToken</text>
</a>
</g>
</g>
<!-- Token&#45;&gt;ValuedToken -->
<g id="edge4" class="edge">
<title>Token&#45;&gt;ValuedToken</title>
<path fill="none" stroke="black" stroke-width="0.5" d="M54.41,-499915.09C63.25,-499915.09 73.45,-499915.09 83.64,-499915.09"/>
<polygon fill="black" stroke="black" stroke-width="0.5" points="84.62,-499916.84 89.62,-499915.09 84.62,-499913.34 84.62,-499916.84"/>
</g>
<!-- ValuedToken&#45;&gt;VHDLToken -->
<g id="edge3" class="edge">
<title>ValuedToken&#45;&gt;VHDLToken</title>
<path fill="none" stroke="black" stroke-width="0.5" d="M188.94,-499915.09C198.59,-499915.09 208.7,-499915.09 218.29,-499915.09"/>
<polygon fill="black" stroke="black" stroke-width="0.5" points="219.19,-499916.84 224.19,-499915.09 219.19,-499913.34 219.19,-499916.84"/>
</g>
</g>
</svg>
