<?xml version="1.0" encoding="UTF-8" standalone="no"?>
<!DOCTYPE svg PUBLIC "-//W3C//DTD SVG 1.1//EN"
 "http://www.w3.org/Graphics/SVG/1.1/DTD/svg11.dtd">
<!-- Generated by graphviz version 8.0.5 (20230430.1635)
 -->
<!-- Title: inheritance0218c3db43 Pages: 1 -->
<svg width="1pt" height="864pt"
 viewBox="0.00 0.00 1.28 864.00" xmlns="http://www.w3.org/2000/svg" xmlns:xlink="http://www.w3.org/1999/xlink">
<g id="graph0" class="graph" transform="scale(0.00122124 0.00122124) rotate(0) translate(4 707474.52)">
<title>inheritance0218c3db43</title>
<!-- BracketToken -->
<g id="node1" class="node">
<title>BracketToken</title>
<g id="a_node1"><a xlink:href="../pyVHDLParser/pyVHDLParser.Token.Keywords.html#pyVHDLParser.Token.Keywords.BracketToken" xlink:title="Base&#45;class for all bracket tokens: ``(``, ``)``, ``[``, ``]``, ``{``, ``}``, ``&lt;`` and ``&gt;``." target="_top">
<polygon fill="white" stroke="#1e90ff" points="629.5,-353744.51 523.5,-353744.51 523.5,-353726.01 629.5,-353726.01 629.5,-353744.51"/>
<text text-anchor="middle" x="576.5" y="-353731.01" font-family="Vera Sans, DejaVu Sans, Liberation Sans, Arial, Helvetica, sans" font-size="10.00">BracketToken</text>
</a>
</g>
</g>
<!-- RoundBracketToken -->
<g id="node4" class="node">
<title>RoundBracketToken</title>
<g id="a_node4"><a xlink:href="../pyVHDLParser/pyVHDLParser.Token.Keywords.html#pyVHDLParser.Token.Keywords.RoundBracketToken" xlink:title="Base&#45;class for all round bracket tokens: ``(`` and ``)``." target="_top">
<polygon fill="white" stroke="#1e90ff" points="809,-353744.51 665.5,-353744.51 665.5,-353726.01 809,-353726.01 809,-353744.51"/>
<text text-anchor="middle" x="737.25" y="-353731.01" font-family="Vera Sans, DejaVu Sans, Liberation Sans, Arial, Helvetica, sans" font-size="10.00">RoundBracketToken</text>
</a>
</g>
</g>
<!-- BracketToken&#45;&gt;RoundBracketToken -->
<g id="edge3" class="edge">
<title>BracketToken&#45;&gt;RoundBracketToken</title>
<path fill="none" stroke="black" stroke-width="0.5" d="M629.92,-353735.26C639.36,-353735.26 649.37,-353735.26 659.33,-353735.26"/>
<polygon fill="black" stroke="black" stroke-width="0.5" points="660.19,-353737.01 665.19,-353735.26 660.19,-353733.51 660.19,-353737.01"/>
</g>
<!-- SpecificVHDLToken -->
<g id="node2" class="node">
<title>SpecificVHDLToken</title>
<g id="a_node2"><a xlink:href="../pyVHDLParser/pyVHDLParser.Token.Keywords.html#pyVHDLParser.Token.Keywords.SpecificVHDLToken" xlink:title="Base&#45;class for all specific tokens." target="_top">
<polygon fill="white" stroke="#1e90ff" points="487.5,-707470.52 344,-707470.52 344,0 487.5,0 487.5,-707470.52"/>
<text text-anchor="middle" x="415.75" y="-707457.02" font-family="Vera Sans, DejaVu Sans, Liberation Sans, Arial, Helvetica, sans" font-size="10.00">SpecificVHDLToken</text>
</a>
</g>
</g>
<!-- SpecificVHDLToken&#45;&gt;BracketToken -->
<g id="edge1" class="edge">
<title>SpecificVHDLToken&#45;&gt;BracketToken</title>
<path fill="none" stroke="black" stroke-width="0.5" d="M487.77,-353735.26C497.61,-353735.26 507.63,-353735.26 517.21,-353735.26"/>
<polygon fill="black" stroke="black" stroke-width="0.5" points="518.11,-353737.01 523.11,-353735.26 518.11,-353733.51 518.11,-353737.01"/>
</g>
<!-- ClosingRoundBracketToken -->
<g id="node3" class="node">
<title>ClosingRoundBracketToken</title>
<g id="a_node3"><a xlink:href="../pyVHDLParser/pyVHDLParser.Token.Keywords.html#pyVHDLParser.Token.Keywords.ClosingRoundBracketToken" xlink:title="Token representing a closing round bracket: ``)``." target="_top">
<polygon fill="white" stroke="#1e90ff" points="1041,-707466.95 845,-707466.95 845,-3.57 1041,-3.57 1041,-707466.95"/>
<text text-anchor="middle" x="943" y="-707453.45" font-family="Vera Sans, DejaVu Sans, Liberation Sans, Arial, Helvetica, sans" font-size="10.00">ClosingRoundBracketToken</text>
</a>
</g>
</g>
<!-- RoundBracketToken&#45;&gt;ClosingRoundBracketToken -->
<g id="edge2" class="edge">
<title>RoundBracketToken&#45;&gt;ClosingRoundBracketToken</title>
<path fill="none" stroke="black" stroke-width="0.5" d="M809.23,-353735.26C818.83,-353735.26 828.83,-353735.26 838.85,-353735.26"/>
<polygon fill="black" stroke="black" stroke-width="0.5" points="839.75,-353737.01 844.75,-353735.26 839.75,-353733.51 839.75,-353737.01"/>
</g>
<!-- VHDLToken -->
<g id="node5" class="node">
<title>VHDLToken</title>
<g id="a_node5"><a xlink:href="../pyVHDLParser.Token.html#pyVHDLParser.Token.VHDLToken" xlink:title="Base&#45;class for all VHDL specific tokens." target="_top">
<polygon fill="white" stroke="#1e90ff" points="308,-353744.51 224.5,-353744.51 224.5,-353726.01 308,-353726.01 308,-353744.51"/>
<text text-anchor="middle" x="266.25" y="-353731.01" font-family="Vera Sans, DejaVu Sans, Liberation Sans, Arial, Helvetica, sans" font-size="10.00">VHDLToken</text>
</a>
</g>
</g>
<!-- VHDLToken&#45;&gt;SpecificVHDLToken -->
<g id="edge4" class="edge">
<title>VHDLToken&#45;&gt;SpecificVHDLToken</title>
<path fill="none" stroke="black" stroke-width="0.5" d="M308.34,-353735.26C317.53,-353735.26 327.57,-353735.26 337.69,-353735.26"/>
<polygon fill="black" stroke="black" stroke-width="0.5" points="338.66,-353737.01 343.66,-353735.26 338.66,-353733.51 338.66,-353737.01"/>
</g>
<!-- Token -->
<g id="node6" class="node">
<title>Token</title>
<g id="a_node6"><a xlink:href="../pyVHDLParser.Token.html#pyVHDLParser.Token.Token" xlink:title="Base&#45;class for all token classes." target="_top">
<polygon fill="white" stroke="#1e90ff" points="54,-353744.51 0,-353744.51 0,-353726.01 54,-353726.01 54,-353744.51"/>
<text text-anchor="middle" x="27" y="-353731.01" font-family="Vera Sans, DejaVu Sans, Liberation Sans, Arial, Helvetica, sans" font-size="10.00">Token</text>
</a>
</g>
</g>
<!-- ValuedToken -->
<g id="node7" class="node">
<title>ValuedToken</title>
<g id="a_node7"><a xlink:href="../pyVHDLParser.Token.html#pyVHDLParser.Token.ValuedToken" xlink:title="Base&#45;class for all *valued* token." target="_top">
<polygon fill="white" stroke="#1e90ff" points="188.5,-353756.49 90,-353756.49 90,-353714.03 188.5,-353714.03 188.5,-353756.49"/>
<text text-anchor="middle" x="139.25" y="-353742.99" font-family="Vera Sans, DejaVu Sans, Liberation Sans, Arial, Helvetica, sans" font-size="10.00">ValuedToken</text>
</a>
</g>
</g>
<!-- Token&#45;&gt;ValuedToken -->
<g id="edge6" class="edge">
<title>Token&#45;&gt;ValuedToken</title>
<path fill="none" stroke="black" stroke-width="0.5" d="M54.41,-353735.26C63.25,-353735.26 73.45,-353735.26 83.64,-353735.26"/>
<polygon fill="black" stroke="black" stroke-width="0.5" points="84.62,-353737.01 89.62,-353735.26 84.62,-353733.51 84.62,-353737.01"/>
</g>
<!-- ValuedToken&#45;&gt;VHDLToken -->
<g id="edge5" class="edge">
<title>ValuedToken&#45;&gt;VHDLToken</title>
<path fill="none" stroke="black" stroke-width="0.5" d="M188.94,-353735.26C198.59,-353735.26 208.7,-353735.26 218.29,-353735.26"/>
<polygon fill="black" stroke="black" stroke-width="0.5" points="219.19,-353737.01 224.19,-353735.26 219.19,-353733.51 219.19,-353737.01"/>
</g>
</g>
</svg>
