<?xml version="1.0" encoding="UTF-8" standalone="no"?>
<!DOCTYPE svg PUBLIC "-//W3C//DTD SVG 1.1//EN"
 "http://www.w3.org/Graphics/SVG/1.1/DTD/svg11.dtd">
<!-- Generated by graphviz version 8.0.5 (20230430.1635)
 -->
<!-- Title: inheritance946a684f6e Pages: 1 -->
<svg width="7pt" height="864pt"
 viewBox="0.00 0.00 6.83 864.00" xmlns="http://www.w3.org/2000/svg" xmlns:xlink="http://www.w3.org/1999/xlink">
<g id="graph0" class="graph" transform="scale(0.0108492 0.0108492) rotate(0) translate(4 79633.42)">
<title>inheritance946a684f6e</title>
<!-- KeywordToken -->
<g id="node1" class="node">
<title>KeywordToken</title>
<g id="a_node1"><a xlink:href="../pyVHDLParser/pyVHDLParser.Token.Keywords.html#pyVHDLParser.Token.Keywords.KeywordToken" xlink:title="KeywordToken" target="_top">
<polygon fill="white" stroke="#1e90ff" points="450,-39823.96 344,-39823.96 344,-39805.46 450,-39805.46 450,-39823.96"/>
<text text-anchor="middle" x="397" y="-39810.46" font-family="Vera Sans, DejaVu Sans, Liberation Sans, Arial, Helvetica, sans" font-size="10.00">KeywordToken</text>
</a>
</g>
</g>
<!-- ProcedureKeyword -->
<g id="node3" class="node">
<title>ProcedureKeyword</title>
<g id="a_node3"><a xlink:href="../pyVHDLParser/pyVHDLParser.Token.Keywords.html#pyVHDLParser.Token.Keywords.ProcedureKeyword" xlink:title="ProcedureKeyword" target="_top">
<polygon fill="white" stroke="#1e90ff" points="622,-79629.42 486,-79629.42 486,0 622,0 622,-79629.42"/>
<text text-anchor="middle" x="554" y="-79615.92" font-family="Vera Sans, DejaVu Sans, Liberation Sans, Arial, Helvetica, sans" font-size="10.00">ProcedureKeyword</text>
</a>
</g>
</g>
<!-- KeywordToken&#45;&gt;ProcedureKeyword -->
<g id="edge2" class="edge">
<title>KeywordToken&#45;&gt;ProcedureKeyword</title>
<path fill="none" stroke="black" stroke-width="0.5" d="M450.48,-39814.71C459.95,-39814.71 469.98,-39814.71 479.91,-39814.71"/>
<polygon fill="black" stroke="black" stroke-width="0.5" points="480.74,-39816.46 485.74,-39814.71 480.74,-39812.96 480.74,-39816.46"/>
</g>
<!-- VHDLToken -->
<g id="node2" class="node">
<title>VHDLToken</title>
<g id="a_node2"><a xlink:href="../pyVHDLParser.Token.html#pyVHDLParser.Token.VHDLToken" xlink:title="Base&#45;class for all VHDL specific tokens." target="_top">
<polygon fill="white" stroke="#1e90ff" points="308,-39823.96 224.5,-39823.96 224.5,-39805.46 308,-39805.46 308,-39823.96"/>
<text text-anchor="middle" x="266.25" y="-39810.46" font-family="Vera Sans, DejaVu Sans, Liberation Sans, Arial, Helvetica, sans" font-size="10.00">VHDLToken</text>
</a>
</g>
</g>
<!-- VHDLToken&#45;&gt;KeywordToken -->
<g id="edge1" class="edge">
<title>VHDLToken&#45;&gt;KeywordToken</title>
<path fill="none" stroke="black" stroke-width="0.5" d="M308.34,-39814.71C317.69,-39814.71 327.8,-39814.71 337.71,-39814.71"/>
<polygon fill="black" stroke="black" stroke-width="0.5" points="338.52,-39816.46 343.52,-39814.71 338.52,-39812.96 338.52,-39816.46"/>
</g>
<!-- Token -->
<g id="node4" class="node">
<title>Token</title>
<g id="a_node4"><a xlink:href="../pyVHDLParser.Token.html#pyVHDLParser.Token.Token" xlink:title="Base&#45;class for all token classes." target="_top">
<polygon fill="white" stroke="#1e90ff" points="54,-79629.37 0,-79629.37 0,-0.05 54,-0.05 54,-79629.37"/>
<text text-anchor="middle" x="27" y="-79615.87" font-family="Vera Sans, DejaVu Sans, Liberation Sans, Arial, Helvetica, sans" font-size="10.00">Token</text>
</a>
</g>
</g>
<!-- ValuedToken -->
<g id="node5" class="node">
<title>ValuedToken</title>
<g id="a_node5"><a xlink:href="../pyVHDLParser.Token.html#pyVHDLParser.Token.ValuedToken" xlink:title="Base&#45;class for all *valued* token." target="_top">
<polygon fill="white" stroke="#1e90ff" points="188.5,-39823.96 90,-39823.96 90,-39805.46 188.5,-39805.46 188.5,-39823.96"/>
<text text-anchor="middle" x="139.25" y="-39810.46" font-family="Vera Sans, DejaVu Sans, Liberation Sans, Arial, Helvetica, sans" font-size="10.00">ValuedToken</text>
</a>
</g>
</g>
<!-- Token&#45;&gt;ValuedToken -->
<g id="edge4" class="edge">
<title>Token&#45;&gt;ValuedToken</title>
<path fill="none" stroke="black" stroke-width="0.5" d="M54.41,-39814.71C63.25,-39814.71 73.45,-39814.71 83.64,-39814.71"/>
<polygon fill="black" stroke="black" stroke-width="0.5" points="84.62,-39816.46 89.62,-39814.71 84.62,-39812.96 84.62,-39816.46"/>
</g>
<!-- ValuedToken&#45;&gt;VHDLToken -->
<g id="edge3" class="edge">
<title>ValuedToken&#45;&gt;VHDLToken</title>
<path fill="none" stroke="black" stroke-width="0.5" d="M188.94,-39814.71C198.59,-39814.71 208.7,-39814.71 218.29,-39814.71"/>
<polygon fill="black" stroke="black" stroke-width="0.5" points="219.19,-39816.46 224.19,-39814.71 219.19,-39812.96 219.19,-39816.46"/>
</g>
</g>
</svg>
