<?xml version="1.0" encoding="UTF-8" standalone="no"?>
<!DOCTYPE svg PUBLIC "-//W3C//DTD SVG 1.1//EN"
 "http://www.w3.org/Graphics/SVG/1.1/DTD/svg11.dtd">
<!-- Generated by graphviz version 8.0.5 (20230430.1635)
 -->
<!-- Title: inheritance4e0e4303f5 Pages: 1 -->
<svg width="1pt" height="864pt"
 viewBox="0.00 0.00 0.74 864.00" xmlns="http://www.w3.org/2000/svg" xmlns:xlink="http://www.w3.org/1999/xlink">
<g id="graph0" class="graph" transform="scale(0.00244481 0.00244481) rotate(0) translate(4 353398.07)">
<title>inheritance4e0e4303f5</title>
<!-- Block -->
<g id="node1" class="node">
<title>Block</title>
<g id="a_node1"><a xlink:href="../pyVHDLParser.Blocks.html#pyVHDLParser.Blocks.Block" xlink:title="Base&#45;class for all :term:`block` classes." target="_top">
<polygon fill="white" stroke="#1e90ff" points="54,-353394.07 0,-353394.07 0,0 54,0 54,-353394.07"/>
<text text-anchor="middle" x="27" y="-353380.57" font-family="Vera Sans, DejaVu Sans, Liberation Sans, Arial, Helvetica, sans" font-size="10.00">Block</text>
</a>
</g>
</g>
<!-- FinalBlock -->
<g id="node3" class="node">
<title>FinalBlock</title>
<g id="a_node3"><a xlink:href="../pyVHDLParser.Blocks.html#pyVHDLParser.Blocks.FinalBlock" xlink:title="Base&#45;class for blocks that are final in a fast&#45;forward scanning." target="_top">
<polygon fill="white" stroke="#1e90ff" points="181,-176706.28 90,-176706.28 90,-176687.78 181,-176687.78 181,-176706.28"/>
<text text-anchor="middle" x="135.5" y="-176692.78" font-family="Vera Sans, DejaVu Sans, Liberation Sans, Arial, Helvetica, sans" font-size="10.00">FinalBlock</text>
</a>
</g>
</g>
<!-- Block&#45;&gt;FinalBlock -->
<g id="edge3" class="edge">
<title>Block&#45;&gt;FinalBlock</title>
<path fill="none" stroke="black" stroke-width="0.5" d="M54.33,-176697.03C63.29,-176697.03 73.62,-176697.03 83.84,-176697.03"/>
<polygon fill="black" stroke="black" stroke-width="0.5" points="84.82,-176698.78 89.82,-176697.03 84.82,-176695.28 84.82,-176698.78"/>
</g>
<!-- EndBlock -->
<g id="node2" class="node">
<title>EndBlock</title>
<g id="a_node2"><a xlink:href="../pyVHDLParser/pyVHDLParser.Blocks.Sequential.Package.html#pyVHDLParser.Blocks.Sequential.Package.EndBlock" xlink:title="EndBlock" target="_top">
<polygon fill="white" stroke="#1e90ff" points="293,-176706.28 217,-176706.28 217,-176687.78 293,-176687.78 293,-176706.28"/>
<text text-anchor="middle" x="255" y="-176692.78" font-family="Vera Sans, DejaVu Sans, Liberation Sans, Arial, Helvetica, sans" font-size="10.00">EndBlock</text>
</a>
</g>
</g>
<!-- EndBlock&#45;&gt;EndBlock -->
<g id="edge2" class="edge">
<title>EndBlock&#45;&gt;EndBlock</title>
<path fill="none" stroke="black" stroke-width="0.5" d="M236.58,-176706.53C227.62,-176715.1 233.76,-176724.28 255,-176724.28 272.26,-176724.28 279.55,-176718.22 276.87,-176711.35"/>
<polygon fill="black" stroke="black" stroke-width="0.5" points="277.75,-176709.58 273.42,-176706.53 274.9,-176711.61 277.75,-176709.58"/>
</g>
<!-- FinalBlock&#45;&gt;EndBlock -->
<g id="edge1" class="edge">
<title>FinalBlock&#45;&gt;EndBlock</title>
<path fill="none" stroke="black" stroke-width="0.5" d="M181.26,-176697.03C190.92,-176697.03 201.13,-176697.03 210.74,-176697.03"/>
<polygon fill="black" stroke="black" stroke-width="0.5" points="211.63,-176698.78 216.63,-176697.03 211.63,-176695.28 211.63,-176698.78"/>
</g>
</g>
</svg>
