<?xml version="1.0" encoding="UTF-8" standalone="no"?>
<!DOCTYPE svg PUBLIC "-//W3C//DTD SVG 1.1//EN"
 "http://www.w3.org/Graphics/SVG/1.1/DTD/svg11.dtd">
<!-- Generated by graphviz version 8.0.5 (20230430.1635)
 -->
<!-- Title: inheritance9d69fa5ae8 Pages: 1 -->
<svg width="1pt" height="864pt"
 viewBox="0.00 0.00 1.05 864.00" xmlns="http://www.w3.org/2000/svg" xmlns:xlink="http://www.w3.org/1999/xlink">
<g id="graph0" class="graph" transform="scale(0.000999759 0.000999759) rotate(0) translate(4 864204.13)">
<title>inheritance9d69fa5ae8</title>
<!-- AngleBracketToken -->
<g id="node1" class="node">
<title>AngleBracketToken</title>
<g id="a_node1"><a xlink:href="../pyVHDLParser/pyVHDLParser.Token.Keywords.html#pyVHDLParser.Token.Keywords.AngleBracketToken" xlink:title="Base&#45;class for all angle bracket tokens: ``&lt;`` and ``&gt;``." target="_top">
<polygon fill="white" stroke="#1e90ff" points="809,-432109.31 665.5,-432109.31 665.5,-432090.81 809,-432090.81 809,-432109.31"/>
<text text-anchor="middle" x="737.25" y="-432095.81" font-family="Vera Sans, DejaVu Sans, Liberation Sans, Arial, Helvetica, sans" font-size="10.00">AngleBracketToken</text>
</a>
</g>
</g>
<!-- ClosingAngleBracketToken -->
<g id="node4" class="node">
<title>ClosingAngleBracketToken</title>
<g id="a_node4"><a xlink:href="../pyVHDLParser/pyVHDLParser.Token.Keywords.html#pyVHDLParser.Token.Keywords.ClosingAngleBracketToken" xlink:title="Token representing a closing angle bracket: ``&gt;``." target="_top">
<polygon fill="white" stroke="#1e90ff" points="1041,-432109.31 845,-432109.31 845,-432090.81 1041,-432090.81 1041,-432109.31"/>
<text text-anchor="middle" x="943" y="-432095.81" font-family="Vera Sans, DejaVu Sans, Liberation Sans, Arial, Helvetica, sans" font-size="10.00">ClosingAngleBracketToken</text>
</a>
</g>
</g>
<!-- AngleBracketToken&#45;&gt;ClosingAngleBracketToken -->
<g id="edge3" class="edge">
<title>AngleBracketToken&#45;&gt;ClosingAngleBracketToken</title>
<path fill="none" stroke="black" stroke-width="0.5" d="M809.23,-432100.06C818.83,-432100.06 828.83,-432100.06 838.85,-432100.06"/>
<polygon fill="black" stroke="black" stroke-width="0.5" points="839.75,-432101.81 844.75,-432100.06 839.75,-432098.31 839.75,-432101.81"/>
</g>
<!-- BracketToken -->
<g id="node2" class="node">
<title>BracketToken</title>
<g id="a_node2"><a xlink:href="../pyVHDLParser/pyVHDLParser.Token.Keywords.html#pyVHDLParser.Token.Keywords.BracketToken" xlink:title="Base&#45;class for all bracket tokens: ``(``, ``)``, ``[``, ``]``, ``{``, ``}``, ``&lt;`` and ``&gt;``." target="_top">
<polygon fill="white" stroke="#1e90ff" points="629.5,-864193.61 523.5,-864193.61 523.5,-6.52 629.5,-6.52 629.5,-864193.61"/>
<text text-anchor="middle" x="576.5" y="-864180.11" font-family="Vera Sans, DejaVu Sans, Liberation Sans, Arial, Helvetica, sans" font-size="10.00">BracketToken</text>
</a>
</g>
</g>
<!-- BracketToken&#45;&gt;AngleBracketToken -->
<g id="edge1" class="edge">
<title>BracketToken&#45;&gt;AngleBracketToken</title>
<path fill="none" stroke="black" stroke-width="0.5" d="M629.92,-432100.06C639.36,-432100.06 649.37,-432100.06 659.33,-432100.06"/>
<polygon fill="black" stroke="black" stroke-width="0.5" points="660.19,-432101.81 665.19,-432100.06 660.19,-432098.31 660.19,-432101.81"/>
</g>
<!-- SpecificVHDLToken -->
<g id="node3" class="node">
<title>SpecificVHDLToken</title>
<g id="a_node3"><a xlink:href="../pyVHDLParser/pyVHDLParser.Token.Keywords.html#pyVHDLParser.Token.Keywords.SpecificVHDLToken" xlink:title="Base&#45;class for all specific tokens." target="_top">
<polygon fill="white" stroke="#1e90ff" points="487.5,-864200.13 344,-864200.13 344,0 487.5,0 487.5,-864200.13"/>
<text text-anchor="middle" x="415.75" y="-864186.63" font-family="Vera Sans, DejaVu Sans, Liberation Sans, Arial, Helvetica, sans" font-size="10.00">SpecificVHDLToken</text>
</a>
</g>
</g>
<!-- SpecificVHDLToken&#45;&gt;BracketToken -->
<g id="edge2" class="edge">
<title>SpecificVHDLToken&#45;&gt;BracketToken</title>
<path fill="none" stroke="black" stroke-width="0.5" d="M487.77,-432100.06C497.61,-432100.06 507.63,-432100.06 517.21,-432100.06"/>
<polygon fill="black" stroke="black" stroke-width="0.5" points="518.11,-432101.81 523.11,-432100.06 518.11,-432098.31 518.11,-432101.81"/>
</g>
<!-- VHDLToken -->
<g id="node5" class="node">
<title>VHDLToken</title>
<g id="a_node5"><a xlink:href="../pyVHDLParser.Token.html#pyVHDLParser.Token.VHDLToken" xlink:title="Base&#45;class for all VHDL specific tokens." target="_top">
<polygon fill="white" stroke="#1e90ff" points="308,-432109.31 224.5,-432109.31 224.5,-432090.81 308,-432090.81 308,-432109.31"/>
<text text-anchor="middle" x="266.25" y="-432095.81" font-family="Vera Sans, DejaVu Sans, Liberation Sans, Arial, Helvetica, sans" font-size="10.00">VHDLToken</text>
</a>
</g>
</g>
<!-- VHDLToken&#45;&gt;SpecificVHDLToken -->
<g id="edge4" class="edge">
<title>VHDLToken&#45;&gt;SpecificVHDLToken</title>
<path fill="none" stroke="black" stroke-width="0.5" d="M308.34,-432100.06C317.53,-432100.06 327.57,-432100.06 337.69,-432100.06"/>
<polygon fill="black" stroke="black" stroke-width="0.5" points="338.66,-432101.81 343.66,-432100.06 338.66,-432098.31 338.66,-432101.81"/>
</g>
<!-- Token -->
<g id="node6" class="node">
<title>Token</title>
<g id="a_node6"><a xlink:href="../pyVHDLParser.Token.html#pyVHDLParser.Token.Token" xlink:title="Base&#45;class for all token classes." target="_top">
<polygon fill="white" stroke="#1e90ff" points="54,-432109.31 0,-432109.31 0,-432090.81 54,-432090.81 54,-432109.31"/>
<text text-anchor="middle" x="27" y="-432095.81" font-family="Vera Sans, DejaVu Sans, Liberation Sans, Arial, Helvetica, sans" font-size="10.00">Token</text>
</a>
</g>
</g>
<!-- ValuedToken -->
<g id="node7" class="node">
<title>ValuedToken</title>
<g id="a_node7"><a xlink:href="../pyVHDLParser.Token.html#pyVHDLParser.Token.ValuedToken" xlink:title="Base&#45;class for all *valued* token." target="_top">
<polygon fill="white" stroke="#1e90ff" points="188.5,-432121.26 90,-432121.26 90,-432078.87 188.5,-432078.87 188.5,-432121.26"/>
<text text-anchor="middle" x="139.25" y="-432107.76" font-family="Vera Sans, DejaVu Sans, Liberation Sans, Arial, Helvetica, sans" font-size="10.00">ValuedToken</text>
</a>
</g>
</g>
<!-- Token&#45;&gt;ValuedToken -->
<g id="edge6" class="edge">
<title>Token&#45;&gt;ValuedToken</title>
<path fill="none" stroke="black" stroke-width="0.5" d="M54.41,-432100.06C63.25,-432100.06 73.45,-432100.06 83.64,-432100.06"/>
<polygon fill="black" stroke="black" stroke-width="0.5" points="84.62,-432101.81 89.62,-432100.06 84.62,-432098.31 84.62,-432101.81"/>
</g>
<!-- ValuedToken&#45;&gt;VHDLToken -->
<g id="edge5" class="edge">
<title>ValuedToken&#45;&gt;VHDLToken</title>
<path fill="none" stroke="black" stroke-width="0.5" d="M188.94,-432100.06C198.59,-432100.06 208.7,-432100.06 218.29,-432100.06"/>
<polygon fill="black" stroke="black" stroke-width="0.5" points="219.19,-432101.81 224.19,-432100.06 219.19,-432098.31 219.19,-432101.81"/>
</g>
</g>
</svg>
