<?xml version="1.0" encoding="UTF-8" standalone="no"?>
<!DOCTYPE svg PUBLIC "-//W3C//DTD SVG 1.1//EN"
 "http://www.w3.org/Graphics/SVG/1.1/DTD/svg11.dtd">
<!-- Generated by graphviz version 8.0.5 (20230430.1635)
 -->
<!-- Title: inheritanceb4f0c336d9 Pages: 1 -->
<svg width="2pt" height="864pt"
 viewBox="0.00 0.00 1.68 864.00" xmlns="http://www.w3.org/2000/svg" xmlns:xlink="http://www.w3.org/1999/xlink">
<g id="graph0" class="graph" transform="scale(0.00273675 0.00273675) rotate(0) translate(4 315699.18)">
<title>inheritanceb4f0c336d9</title>
<!-- DefaultKeyword -->
<g id="node1" class="node">
<title>DefaultKeyword</title>
<g id="a_node1"><a xlink:href="../pyVHDLParser/pyVHDLParser.Token.Keywords.html#pyVHDLParser.Token.Keywords.DefaultKeyword" xlink:title="DefaultKeyword" target="_top">
<polygon fill="white" stroke="#1e90ff" points="607,-157856.84 486,-157856.84 486,-157838.34 607,-157838.34 607,-157856.84"/>
<text text-anchor="middle" x="546.5" y="-157843.34" font-family="Vera Sans, DejaVu Sans, Liberation Sans, Arial, Helvetica, sans" font-size="10.00">DefaultKeyword</text>
</a>
</g>
</g>
<!-- KeywordToken -->
<g id="node2" class="node">
<title>KeywordToken</title>
<g id="a_node2"><a xlink:href="../pyVHDLParser/pyVHDLParser.Token.Keywords.html#pyVHDLParser.Token.Keywords.KeywordToken" xlink:title="KeywordToken" target="_top">
<polygon fill="white" stroke="#1e90ff" points="450,-315688.62 344,-315688.62 344,-6.55 450,-6.55 450,-315688.62"/>
<text text-anchor="middle" x="397" y="-315675.12" font-family="Vera Sans, DejaVu Sans, Liberation Sans, Arial, Helvetica, sans" font-size="10.00">KeywordToken</text>
</a>
</g>
</g>
<!-- KeywordToken&#45;&gt;DefaultKeyword -->
<g id="edge1" class="edge">
<title>KeywordToken&#45;&gt;DefaultKeyword</title>
<path fill="none" stroke="black" stroke-width="0.5" d="M450.42,-157847.59C459.97,-157847.59 470.05,-157847.59 479.92,-157847.59"/>
<polygon fill="black" stroke="black" stroke-width="0.5" points="480.71,-157849.34 485.71,-157847.59 480.71,-157845.84 480.71,-157849.34"/>
</g>
<!-- VHDLToken -->
<g id="node3" class="node">
<title>VHDLToken</title>
<g id="a_node3"><a xlink:href="../pyVHDLParser.Token.html#pyVHDLParser.Token.VHDLToken" xlink:title="Base&#45;class for all VHDL specific tokens." target="_top">
<polygon fill="white" stroke="#1e90ff" points="308,-315695.13 224.5,-315695.13 224.5,-0.05 308,-0.05 308,-315695.13"/>
<text text-anchor="middle" x="266.25" y="-315681.63" font-family="Vera Sans, DejaVu Sans, Liberation Sans, Arial, Helvetica, sans" font-size="10.00">VHDLToken</text>
</a>
</g>
</g>
<!-- VHDLToken&#45;&gt;KeywordToken -->
<g id="edge2" class="edge">
<title>VHDLToken&#45;&gt;KeywordToken</title>
<path fill="none" stroke="black" stroke-width="0.5" d="M308.34,-157847.59C317.69,-157847.59 327.8,-157847.59 337.71,-157847.59"/>
<polygon fill="black" stroke="black" stroke-width="0.5" points="338.52,-157849.34 343.52,-157847.59 338.52,-157845.84 338.52,-157849.34"/>
</g>
<!-- Token -->
<g id="node4" class="node">
<title>Token</title>
<g id="a_node4"><a xlink:href="../pyVHDLParser.Token.html#pyVHDLParser.Token.Token" xlink:title="Base&#45;class for all token classes." target="_top">
<polygon fill="white" stroke="#1e90ff" points="54,-315695.18 0,-315695.18 0,0 54,0 54,-315695.18"/>
<text text-anchor="middle" x="27" y="-315681.68" font-family="Vera Sans, DejaVu Sans, Liberation Sans, Arial, Helvetica, sans" font-size="10.00">Token</text>
</a>
</g>
</g>
<!-- ValuedToken -->
<g id="node5" class="node">
<title>ValuedToken</title>
<g id="a_node5"><a xlink:href="../pyVHDLParser.Token.html#pyVHDLParser.Token.ValuedToken" xlink:title="Base&#45;class for all *valued* token." target="_top">
<polygon fill="white" stroke="#1e90ff" points="188.5,-157856.84 90,-157856.84 90,-157838.34 188.5,-157838.34 188.5,-157856.84"/>
<text text-anchor="middle" x="139.25" y="-157843.34" font-family="Vera Sans, DejaVu Sans, Liberation Sans, Arial, Helvetica, sans" font-size="10.00">ValuedToken</text>
</a>
</g>
</g>
<!-- Token&#45;&gt;ValuedToken -->
<g id="edge4" class="edge">
<title>Token&#45;&gt;ValuedToken</title>
<path fill="none" stroke="black" stroke-width="0.5" d="M54.41,-157847.59C63.25,-157847.59 73.45,-157847.59 83.64,-157847.59"/>
<polygon fill="black" stroke="black" stroke-width="0.5" points="84.62,-157849.34 89.62,-157847.59 84.62,-157845.84 84.62,-157849.34"/>
</g>
<!-- ValuedToken&#45;&gt;VHDLToken -->
<g id="edge3" class="edge">
<title>ValuedToken&#45;&gt;VHDLToken</title>
<path fill="none" stroke="black" stroke-width="0.5" d="M188.94,-157847.59C198.59,-157847.59 208.7,-157847.59 218.29,-157847.59"/>
<polygon fill="black" stroke="black" stroke-width="0.5" points="219.19,-157849.34 224.19,-157847.59 219.19,-157845.84 219.19,-157849.34"/>
</g>
</g>
</svg>
