<?xml version="1.0" encoding="UTF-8" standalone="no"?>
<!DOCTYPE svg PUBLIC "-//W3C//DTD SVG 1.1//EN"
 "http://www.w3.org/Graphics/SVG/1.1/DTD/svg11.dtd">
<!-- Generated by graphviz version 8.0.5 (20230430.1635)
 -->
<!-- Title: inheritance736b1fc086 Pages: 1 -->
<svg width="0pt" height="864pt"
 viewBox="0.00 0.00 0.34 864.00" xmlns="http://www.w3.org/2000/svg" xmlns:xlink="http://www.w3.org/1999/xlink">
<g id="graph0" class="graph" transform="scale(0.000852577 0.000852577) rotate(0) translate(4 1013394.26)">
<title>inheritance736b1fc086</title>
<!-- EndOf -->
<g id="node1" class="node">
<title>EndOf</title>
<g id="a_node1"><a xlink:title="Base&#45;class (mixin) for all EndOf*** classes.">
<polygon fill="white" stroke="#1e90ff" points="54,-665987.34 0,-665987.34 0,-65521.8 54,-65521.8 54,-665987.34"/>
<text text-anchor="middle" x="27" y="-665973.84" font-family="Vera Sans, DejaVu Sans, Liberation Sans, Arial, Helvetica, sans" font-size="10.00">EndOf</text>
</a>
</g>
</g>
<!-- EndOfDocument -->
<g id="node2" class="node">
<title>EndOfDocument</title>
<g id="a_node2"><a xlink:title="Base&#45;class (mixin) for all EndOf***Document classes.">
<polygon fill="white" stroke="#1e90ff" points="203.5,-1013390.26 90,-1013390.26 90,281881.11 203.5,281881.11 203.5,-1013390.26"/>
<text text-anchor="middle" x="146.75" y="-1013376.76" font-family="Vera Sans, DejaVu Sans, Liberation Sans, Arial, Helvetica, sans" font-size="10.00">EndOfDocument</text>
</a>
</g>
</g>
<!-- EndOf&#45;&gt;EndOfDocument -->
<g id="edge1" class="edge">
<title>EndOf&#45;&gt;EndOfDocument</title>
<path fill="none" stroke="black" stroke-width="0.5" d="M54.43,-365754.57C63.24,-365754.57 73.46,-365754.57 83.8,-365754.57"/>
<polygon fill="black" stroke="black" stroke-width="0.5" points="84.56,-365756.32 89.56,-365754.57 84.56,-365752.82 84.56,-365756.32"/>
</g>
<!-- EndOfDocumentGroup -->
<g id="node3" class="node">
<title>EndOfDocumentGroup</title>
<g id="a_node3"><a xlink:href="../pyVHDLParser/pyVHDLParser.Groups.html#pyVHDLParser.Groups.EndOfDocumentGroup" xlink:title="EndOfDocumentGroup" target="_top">
<polygon fill="white" stroke="#1e90ff" points="390.5,-633206.19 239.5,-633206.19 239.5,-32766.95 390.5,-32766.95 390.5,-633206.19"/>
<text text-anchor="middle" x="315" y="-633192.69" font-family="Vera Sans, DejaVu Sans, Liberation Sans, Arial, Helvetica, sans" font-size="10.00">EndOfDocumentGroup</text>
</a>
</g>
</g>
<!-- EndOfDocument&#45;&gt;EndOfDocumentGroup -->
<g id="edge3" class="edge">
<title>EndOfDocument&#45;&gt;EndOfDocumentGroup</title>
<path fill="none" stroke="black" stroke-width="0.5" d="M204,-354667.96C215.24,-352452.47 227.21,-350092.15 238.97,-347774.82"/>
<polygon fill="black" stroke="black" stroke-width="0.5" points="240.73,-347773.89 239,-347768.88 237.23,-347773.87 240.73,-347773.89"/>
</g>
<!-- EndOfGroup -->
<g id="node4" class="node">
<title>EndOfGroup</title>
<g id="a_node4"><a xlink:href="../pyVHDLParser/pyVHDLParser.Groups.html#pyVHDLParser.Groups.EndOfGroup" xlink:title="EndOfGroup" target="_top">
<polygon fill="white" stroke="#1e90ff" points="192.25,-600439.14 101.25,-600439.14 101.25,0 192.25,0 192.25,-600439.14"/>
<text text-anchor="middle" x="146.75" y="-600425.64" font-family="Vera Sans, DejaVu Sans, Liberation Sans, Arial, Helvetica, sans" font-size="10.00">EndOfGroup</text>
</a>
</g>
</g>
<!-- EndOfGroup&#45;&gt;EndOfDocumentGroup -->
<g id="edge2" class="edge">
<title>EndOfGroup&#45;&gt;EndOfDocumentGroup</title>
<path fill="none" stroke="black" stroke-width="0.5" d="M192.75,-309088.82C207.01,-311900.09 223.19,-315088.15 238.97,-318198.77"/>
<polygon fill="black" stroke="black" stroke-width="0.5" points="237.23,-318199.76 239,-318204.75 240.73,-318199.74 237.23,-318199.76"/>
</g>
<!-- Group -->
<g id="node5" class="node">
<title>Group</title>
<g id="a_node5"><a xlink:href="../pyVHDLParser/pyVHDLParser.Groups.html#pyVHDLParser.Groups.Group" xlink:title="Group" target="_top">
<polygon fill="white" stroke="#1e90ff" points="54,-300234.32 0,-300234.32 0,-300204.82 54,-300204.82 54,-300234.32"/>
<text text-anchor="middle" x="27" y="-300220.82" font-family="Vera Sans, DejaVu Sans, Liberation Sans, Arial, Helvetica, sans" font-size="10.00">Group</text>
</a>
</g>
</g>
<!-- Group&#45;&gt;EndOfGroup -->
<g id="edge4" class="edge">
<title>Group&#45;&gt;EndOfGroup</title>
<path fill="none" stroke="black" stroke-width="0.5" d="M54.43,-300219.57C66.41,-300219.57 81,-300219.57 94.98,-300219.57"/>
<polygon fill="black" stroke="black" stroke-width="0.5" points="95.92,-300221.32 100.92,-300219.57 95.92,-300217.82 95.92,-300221.32"/>
</g>
</g>
</svg>
