<?xml version="1.0" encoding="UTF-8" standalone="no"?>
<!DOCTYPE svg PUBLIC "-//W3C//DTD SVG 1.1//EN"
 "http://www.w3.org/Graphics/SVG/1.1/DTD/svg11.dtd">
<!-- Generated by graphviz version 8.0.5 (20230430.1635)
 -->
<!-- Title: inheritance4e0e4303f5 Pages: 1 -->
<svg width="0pt" height="864pt"
 viewBox="0.00 0.00 0.20 864.00" xmlns="http://www.w3.org/2000/svg" xmlns:xlink="http://www.w3.org/1999/xlink">
<g id="graph0" class="graph" transform="scale(0.000680884 0.000680884) rotate(0) translate(4 1268935.43)">
<title>inheritance4e0e4303f5</title>
<!-- Block -->
<g id="node1" class="node">
<title>Block</title>
<g id="a_node1"><a xlink:href="../pyVHDLParser.Blocks.html#pyVHDLParser.Blocks.Block" xlink:title="Base&#45;class for all :term:`block` classes." target="_top">
<polygon fill="white" stroke="#1e90ff" points="54,-1268931.43 0,-1268931.43 0,0 54,0 54,-1268931.43"/>
<text text-anchor="middle" x="27" y="-1268917.93" font-family="Vera Sans, DejaVu Sans, Liberation Sans, Arial, Helvetica, sans" font-size="10.00">Block</text>
</a>
</g>
</g>
<!-- FinalBlock -->
<g id="node3" class="node">
<title>FinalBlock</title>
<g id="a_node3"><a xlink:href="../pyVHDLParser.Blocks.html#pyVHDLParser.Blocks.FinalBlock" xlink:title="Base&#45;class for blocks that are final in a fast&#45;forward scanning." target="_top">
<polygon fill="white" stroke="#1e90ff" points="181,-634474.96 90,-634474.96 90,-634456.46 181,-634456.46 181,-634474.96"/>
<text text-anchor="middle" x="135.5" y="-634461.46" font-family="Vera Sans, DejaVu Sans, Liberation Sans, Arial, Helvetica, sans" font-size="10.00">FinalBlock</text>
</a>
</g>
</g>
<!-- Block&#45;&gt;FinalBlock -->
<g id="edge3" class="edge">
<title>Block&#45;&gt;FinalBlock</title>
<path fill="none" stroke="black" stroke-width="0.5" d="M54.33,-634465.71C63.29,-634465.71 73.62,-634465.71 83.84,-634465.71"/>
<polygon fill="black" stroke="black" stroke-width="0.5" points="84.82,-634467.46 89.82,-634465.71 84.82,-634463.96 84.82,-634467.46"/>
</g>
<!-- EndBlock -->
<g id="node2" class="node">
<title>EndBlock</title>
<g id="a_node2"><a xlink:href="../pyVHDLParser/pyVHDLParser.Blocks.Sequential.PackageBody.html#pyVHDLParser.Blocks.Sequential.PackageBody.EndBlock" xlink:title="EndBlock" target="_top">
<polygon fill="white" stroke="#1e90ff" points="293,-634474.97 217,-634474.97 217,-634456.46 293,-634456.46 293,-634474.97"/>
<text text-anchor="middle" x="255" y="-634461.47" font-family="Vera Sans, DejaVu Sans, Liberation Sans, Arial, Helvetica, sans" font-size="10.00">EndBlock</text>
</a>
</g>
</g>
<!-- EndBlock&#45;&gt;EndBlock -->
<g id="edge2" class="edge">
<title>EndBlock&#45;&gt;EndBlock</title>
<path fill="none" stroke="black" stroke-width="0.5" d="M236.58,-634475.21C227.62,-634483.78 233.76,-634492.97 255,-634492.97 272.26,-634492.97 279.55,-634486.9 276.87,-634480.03"/>
<polygon fill="black" stroke="black" stroke-width="0.5" points="277.75,-634478.26 273.42,-634475.21 274.9,-634480.3 277.75,-634478.26"/>
</g>
<!-- FinalBlock&#45;&gt;EndBlock -->
<g id="edge1" class="edge">
<title>FinalBlock&#45;&gt;EndBlock</title>
<path fill="none" stroke="black" stroke-width="0.5" d="M181.26,-634465.71C190.92,-634465.71 201.13,-634465.71 210.74,-634465.71"/>
<polygon fill="black" stroke="black" stroke-width="0.5" points="211.63,-634467.46 216.63,-634465.71 211.63,-634463.96 211.63,-634467.46"/>
</g>
</g>
</svg>
