<?xml version="1.0" encoding="UTF-8" standalone="no"?>
<!DOCTYPE svg PUBLIC "-//W3C//DTD SVG 1.1//EN"
 "http://www.w3.org/Graphics/SVG/1.1/DTD/svg11.dtd">
<!-- Generated by graphviz version 8.0.5 (20230430.1635)
 -->
<!-- Title: inheritancef34f674b13 Pages: 1 -->
<svg width="1pt" height="864pt"
 viewBox="0.00 0.00 0.55 864.00" xmlns="http://www.w3.org/2000/svg" xmlns:xlink="http://www.w3.org/1999/xlink">
<g id="graph0" class="graph" transform="scale(0.000698453 0.000698453) rotate(0) translate(4 1237015.57)">
<title>inheritancef34f674b13</title>
<!-- OperatorToken -->
<g id="node1" class="node">
<title>OperatorToken</title>
<g id="a_node1"><a xlink:href="../pyVHDLParser/pyVHDLParser.Token.Keywords.html#pyVHDLParser.Token.Keywords.OperatorToken" xlink:title="Base&#45;class for all operator tokens." target="_top">
<polygon fill="white" stroke="#1e90ff" points="637,-618515.04 523.5,-618515.04 523.5,-618496.54 637,-618496.54 637,-618515.04"/>
<text text-anchor="middle" x="580.25" y="-618501.54" font-family="Vera Sans, DejaVu Sans, Liberation Sans, Arial, Helvetica, sans" font-size="10.00">OperatorToken</text>
</a>
</g>
</g>
<!-- PowerOperator -->
<g id="node3" class="node">
<title>PowerOperator</title>
<g id="a_node3"><a xlink:href="../pyVHDLParser/pyVHDLParser.Token.Keywords.html#pyVHDLParser.Token.Keywords.PowerOperator" xlink:title="Token representing a power operator: ``**``." target="_top">
<polygon fill="white" stroke="#1e90ff" points="786.5,-1237011.57 673,-1237011.57 673,0 786.5,0 786.5,-1237011.57"/>
<text text-anchor="middle" x="729.75" y="-1236998.07" font-family="Vera Sans, DejaVu Sans, Liberation Sans, Arial, Helvetica, sans" font-size="10.00">PowerOperator</text>
</a>
</g>
</g>
<!-- OperatorToken&#45;&gt;PowerOperator -->
<g id="edge2" class="edge">
<title>OperatorToken&#45;&gt;PowerOperator</title>
<path fill="none" stroke="black" stroke-width="0.5" d="M637.43,-618505.79C647.1,-618505.79 657.19,-618505.79 666.99,-618505.79"/>
<polygon fill="black" stroke="black" stroke-width="0.5" points="667.72,-618507.54 672.72,-618505.79 667.72,-618504.04 667.72,-618507.54"/>
</g>
<!-- SpecificVHDLToken -->
<g id="node2" class="node">
<title>SpecificVHDLToken</title>
<g id="a_node2"><a xlink:href="../pyVHDLParser/pyVHDLParser.Token.Keywords.html#pyVHDLParser.Token.Keywords.SpecificVHDLToken" xlink:title="Base&#45;class for all specific tokens." target="_top">
<polygon fill="white" stroke="#1e90ff" points="487.5,-618515.04 344,-618515.04 344,-618496.54 487.5,-618496.54 487.5,-618515.04"/>
<text text-anchor="middle" x="415.75" y="-618501.54" font-family="Vera Sans, DejaVu Sans, Liberation Sans, Arial, Helvetica, sans" font-size="10.00">SpecificVHDLToken</text>
</a>
</g>
</g>
<!-- SpecificVHDLToken&#45;&gt;OperatorToken -->
<g id="edge1" class="edge">
<title>SpecificVHDLToken&#45;&gt;OperatorToken</title>
<path fill="none" stroke="black" stroke-width="0.5" d="M487.55,-618505.79C497.56,-618505.79 507.79,-618505.79 517.6,-618505.79"/>
<polygon fill="black" stroke="black" stroke-width="0.5" points="518.33,-618507.54 523.33,-618505.79 518.33,-618504.04 518.33,-618507.54"/>
</g>
<!-- VHDLToken -->
<g id="node4" class="node">
<title>VHDLToken</title>
<g id="a_node4"><a xlink:href="../pyVHDLParser.Token.html#pyVHDLParser.Token.VHDLToken" xlink:title="Base&#45;class for all VHDL specific tokens." target="_top">
<polygon fill="white" stroke="#1e90ff" points="308,-618515.08 224.5,-618515.08 224.5,-618496.49 308,-618496.49 308,-618515.08"/>
<text text-anchor="middle" x="266.25" y="-618501.58" font-family="Vera Sans, DejaVu Sans, Liberation Sans, Arial, Helvetica, sans" font-size="10.00">VHDLToken</text>
</a>
</g>
</g>
<!-- VHDLToken&#45;&gt;SpecificVHDLToken -->
<g id="edge3" class="edge">
<title>VHDLToken&#45;&gt;SpecificVHDLToken</title>
<path fill="none" stroke="black" stroke-width="0.5" d="M308.34,-618505.79C317.53,-618505.79 327.57,-618505.79 337.69,-618505.79"/>
<polygon fill="black" stroke="black" stroke-width="0.5" points="338.66,-618507.54 343.66,-618505.79 338.66,-618504.04 338.66,-618507.54"/>
</g>
<!-- Token -->
<g id="node5" class="node">
<title>Token</title>
<g id="a_node5"><a xlink:href="../pyVHDLParser.Token.html#pyVHDLParser.Token.Token" xlink:title="Base&#45;class for all token classes." target="_top">
<polygon fill="white" stroke="#1e90ff" points="54,-618518.79 0,-618518.79 0,-618492.79 54,-618492.79 54,-618518.79"/>
<text text-anchor="middle" x="27" y="-618505.29" font-family="Vera Sans, DejaVu Sans, Liberation Sans, Arial, Helvetica, sans" font-size="10.00">Token</text>
</a>
</g>
</g>
<!-- ValuedToken -->
<g id="node6" class="node">
<title>ValuedToken</title>
<g id="a_node6"><a xlink:href="../pyVHDLParser.Token.html#pyVHDLParser.Token.ValuedToken" xlink:title="Base&#45;class for all *valued* token." target="_top">
<polygon fill="white" stroke="#1e90ff" points="188.5,-618515.04 90,-618515.04 90,-618496.54 188.5,-618496.54 188.5,-618515.04"/>
<text text-anchor="middle" x="139.25" y="-618501.54" font-family="Vera Sans, DejaVu Sans, Liberation Sans, Arial, Helvetica, sans" font-size="10.00">ValuedToken</text>
</a>
</g>
</g>
<!-- Token&#45;&gt;ValuedToken -->
<g id="edge5" class="edge">
<title>Token&#45;&gt;ValuedToken</title>
<path fill="none" stroke="black" stroke-width="0.5" d="M54.41,-618505.79C63.25,-618505.79 73.45,-618505.79 83.64,-618505.79"/>
<polygon fill="black" stroke="black" stroke-width="0.5" points="84.62,-618507.54 89.62,-618505.79 84.62,-618504.04 84.62,-618507.54"/>
</g>
<!-- ValuedToken&#45;&gt;VHDLToken -->
<g id="edge4" class="edge">
<title>ValuedToken&#45;&gt;VHDLToken</title>
<path fill="none" stroke="black" stroke-width="0.5" d="M188.94,-618505.79C198.59,-618505.79 208.7,-618505.79 218.29,-618505.79"/>
<polygon fill="black" stroke="black" stroke-width="0.5" points="219.19,-618507.54 224.19,-618505.79 219.19,-618504.04 219.19,-618507.54"/>
</g>
</g>
</svg>
