<?xml version="1.0" encoding="UTF-8" standalone="no"?>
<!DOCTYPE svg PUBLIC "-//W3C//DTD SVG 1.1//EN"
 "http://www.w3.org/Graphics/SVG/1.1/DTD/svg11.dtd">
<!-- Generated by graphviz version 8.0.5 (20230430.1635)
 -->
<!-- Title: inheritance6dd8ceea40 Pages: 1 -->
<svg width="1pt" height="864pt"
 viewBox="0.00 0.00 1.18 864.00" xmlns="http://www.w3.org/2000/svg" xmlns:xlink="http://www.w3.org/1999/xlink">
<g id="graph0" class="graph" transform="scale(0.00177413 0.00177413) rotate(0) translate(4 486994.42)">
<title>inheritance6dd8ceea40</title>
<!-- AssignmentKeyword -->
<g id="node1" class="node">
<title>AssignmentKeyword</title>
<g id="a_node1"><a xlink:href="../pyVHDLParser/pyVHDLParser.Token.Keywords.html#pyVHDLParser.Token.Keywords.AssignmentKeyword" xlink:title="Base&#45;class for all assignment keywords: ``:=`` and ``&lt;=``." target="_top">
<polygon fill="white" stroke="#1e90ff" points="659.5,-243504.46 516,-243504.46 516,-243485.96 659.5,-243485.96 659.5,-243504.46"/>
<text text-anchor="middle" x="587.75" y="-243490.96" font-family="Vera Sans, DejaVu Sans, Liberation Sans, Arial, Helvetica, sans" font-size="10.00">AssignmentKeyword</text>
</a>
</g>
</g>
<!-- MultiCharKeyword -->
<g id="node2" class="node">
<title>MultiCharKeyword</title>
<g id="a_node2"><a xlink:href="../pyVHDLParser/pyVHDLParser.Token.Keywords.html#pyVHDLParser.Token.Keywords.MultiCharKeyword" xlink:title="MultiCharKeyword" target="_top">
<polygon fill="white" stroke="#1e90ff" points="480,-243504.46 344,-243504.46 344,-243485.96 480,-243485.96 480,-243504.46"/>
<text text-anchor="middle" x="412" y="-243490.96" font-family="Vera Sans, DejaVu Sans, Liberation Sans, Arial, Helvetica, sans" font-size="10.00">MultiCharKeyword</text>
</a>
</g>
</g>
<!-- MultiCharKeyword&#45;&gt;AssignmentKeyword -->
<g id="edge1" class="edge">
<title>MultiCharKeyword&#45;&gt;AssignmentKeyword</title>
<path fill="none" stroke="black" stroke-width="0.5" d="M480.18,-243495.21C489.92,-243495.21 500,-243495.21 509.91,-243495.21"/>
<polygon fill="black" stroke="black" stroke-width="0.5" points="510.72,-243496.96 515.72,-243495.21 510.72,-243493.46 510.72,-243496.96"/>
</g>
<!-- VHDLToken -->
<g id="node3" class="node">
<title>VHDLToken</title>
<g id="a_node3"><a xlink:href="../pyVHDLParser.Token.html#pyVHDLParser.Token.VHDLToken" xlink:title="Base&#45;class for all VHDL specific tokens." target="_top">
<polygon fill="white" stroke="#1e90ff" points="308,-486990.42 224.5,-486990.42 224.5,0 308,0 308,-486990.42"/>
<text text-anchor="middle" x="266.25" y="-486976.92" font-family="Vera Sans, DejaVu Sans, Liberation Sans, Arial, Helvetica, sans" font-size="10.00">VHDLToken</text>
</a>
</g>
</g>
<!-- VHDLToken&#45;&gt;MultiCharKeyword -->
<g id="edge2" class="edge">
<title>VHDLToken&#45;&gt;MultiCharKeyword</title>
<path fill="none" stroke="black" stroke-width="0.5" d="M308.44,-243495.21C317.67,-243495.21 327.72,-243495.21 337.81,-243495.21"/>
<polygon fill="black" stroke="black" stroke-width="0.5" points="338.75,-243496.96 343.75,-243495.21 338.75,-243493.46 338.75,-243496.96"/>
</g>
<!-- Token -->
<g id="node4" class="node">
<title>Token</title>
<g id="a_node4"><a xlink:href="../pyVHDLParser.Token.html#pyVHDLParser.Token.Token" xlink:title="Base&#45;class for all token classes." target="_top">
<polygon fill="white" stroke="#1e90ff" points="54,-486990.37 0,-486990.37 0,-0.05 54,-0.05 54,-486990.37"/>
<text text-anchor="middle" x="27" y="-486976.87" font-family="Vera Sans, DejaVu Sans, Liberation Sans, Arial, Helvetica, sans" font-size="10.00">Token</text>
</a>
</g>
</g>
<!-- ValuedToken -->
<g id="node5" class="node">
<title>ValuedToken</title>
<g id="a_node5"><a xlink:href="../pyVHDLParser.Token.html#pyVHDLParser.Token.ValuedToken" xlink:title="Base&#45;class for all *valued* token." target="_top">
<polygon fill="white" stroke="#1e90ff" points="188.5,-243504.46 90,-243504.46 90,-243485.96 188.5,-243485.96 188.5,-243504.46"/>
<text text-anchor="middle" x="139.25" y="-243490.96" font-family="Vera Sans, DejaVu Sans, Liberation Sans, Arial, Helvetica, sans" font-size="10.00">ValuedToken</text>
</a>
</g>
</g>
<!-- Token&#45;&gt;ValuedToken -->
<g id="edge4" class="edge">
<title>Token&#45;&gt;ValuedToken</title>
<path fill="none" stroke="black" stroke-width="0.5" d="M54.41,-243495.21C63.25,-243495.21 73.45,-243495.21 83.64,-243495.21"/>
<polygon fill="black" stroke="black" stroke-width="0.5" points="84.62,-243496.96 89.62,-243495.21 84.62,-243493.46 84.62,-243496.96"/>
</g>
<!-- ValuedToken&#45;&gt;VHDLToken -->
<g id="edge3" class="edge">
<title>ValuedToken&#45;&gt;VHDLToken</title>
<path fill="none" stroke="black" stroke-width="0.5" d="M188.94,-243495.21C198.59,-243495.21 208.7,-243495.21 218.29,-243495.21"/>
<polygon fill="black" stroke="black" stroke-width="0.5" points="219.19,-243496.96 224.19,-243495.21 219.19,-243493.46 219.19,-243496.96"/>
</g>
</g>
</svg>
