<?xml version="1.0" encoding="UTF-8" standalone="no"?>
<!DOCTYPE svg PUBLIC "-//W3C//DTD SVG 1.1//EN"
 "http://www.w3.org/Graphics/SVG/1.1/DTD/svg11.dtd">
<!-- Generated by graphviz version 8.0.5 (20230430.1635)
 -->
<!-- Title: inheritance9d067213e0 Pages: 1 -->
<svg width="1pt" height="864pt"
 viewBox="0.00 0.00 0.58 864.00" xmlns="http://www.w3.org/2000/svg" xmlns:xlink="http://www.w3.org/1999/xlink">
<g id="graph0" class="graph" transform="scale(0.00098075 0.00098075) rotate(0) translate(4 880954.65)">
<title>inheritance9d067213e0</title>
<!-- FileKeyword -->
<g id="node1" class="node">
<title>FileKeyword</title>
<g id="a_node1"><a xlink:href="../pyVHDLParser/pyVHDLParser.Token.Keywords.html#pyVHDLParser.Token.Keywords.FileKeyword" xlink:title="FileKeyword" target="_top">
<polygon fill="white" stroke="#1e90ff" points="584.5,-440484.58 486,-440484.58 486,-440466.08 584.5,-440466.08 584.5,-440484.58"/>
<text text-anchor="middle" x="535.25" y="-440471.08" font-family="Vera Sans, DejaVu Sans, Liberation Sans, Arial, Helvetica, sans" font-size="10.00">FileKeyword</text>
</a>
</g>
</g>
<!-- KeywordToken -->
<g id="node2" class="node">
<title>KeywordToken</title>
<g id="a_node2"><a xlink:href="../pyVHDLParser/pyVHDLParser.Token.Keywords.html#pyVHDLParser.Token.Keywords.KeywordToken" xlink:title="KeywordToken" target="_top">
<polygon fill="white" stroke="#1e90ff" points="450,-880950.65 344,-880950.65 344,0 450,0 450,-880950.65"/>
<text text-anchor="middle" x="397" y="-880937.15" font-family="Vera Sans, DejaVu Sans, Liberation Sans, Arial, Helvetica, sans" font-size="10.00">KeywordToken</text>
</a>
</g>
</g>
<!-- KeywordToken&#45;&gt;FileKeyword -->
<g id="edge1" class="edge">
<title>KeywordToken&#45;&gt;FileKeyword</title>
<path fill="none" stroke="black" stroke-width="0.5" d="M450.29,-440475.33C460.07,-440475.33 470.32,-440475.33 480.16,-440475.33"/>
<polygon fill="black" stroke="black" stroke-width="0.5" points="480.9,-440477.08 485.9,-440475.33 480.9,-440473.58 480.9,-440477.08"/>
</g>
<!-- VHDLToken -->
<g id="node3" class="node">
<title>VHDLToken</title>
<g id="a_node3"><a xlink:href="../pyVHDLParser.Token.html#pyVHDLParser.Token.VHDLToken" xlink:title="Base&#45;class for all VHDL specific tokens." target="_top">
<polygon fill="white" stroke="#1e90ff" points="308,-880950.54 224.5,-880950.54 224.5,-0.12 308,-0.12 308,-880950.54"/>
<text text-anchor="middle" x="266.25" y="-880937.04" font-family="Vera Sans, DejaVu Sans, Liberation Sans, Arial, Helvetica, sans" font-size="10.00">VHDLToken</text>
</a>
</g>
</g>
<!-- VHDLToken&#45;&gt;KeywordToken -->
<g id="edge2" class="edge">
<title>VHDLToken&#45;&gt;KeywordToken</title>
<path fill="none" stroke="black" stroke-width="0.5" d="M308.34,-440475.33C317.69,-440475.33 327.8,-440475.33 337.71,-440475.33"/>
<polygon fill="black" stroke="black" stroke-width="0.5" points="338.52,-440477.08 343.52,-440475.33 338.52,-440473.58 338.52,-440477.08"/>
</g>
<!-- Token -->
<g id="node4" class="node">
<title>Token</title>
<g id="a_node4"><a xlink:href="../pyVHDLParser.Token.html#pyVHDLParser.Token.Token" xlink:title="Base&#45;class for all token classes." target="_top">
<polygon fill="white" stroke="#1e90ff" points="54,-880950.49 0,-880950.49 0,-0.16 54,-0.16 54,-880950.49"/>
<text text-anchor="middle" x="27" y="-880936.99" font-family="Vera Sans, DejaVu Sans, Liberation Sans, Arial, Helvetica, sans" font-size="10.00">Token</text>
</a>
</g>
</g>
<!-- ValuedToken -->
<g id="node5" class="node">
<title>ValuedToken</title>
<g id="a_node5"><a xlink:href="../pyVHDLParser.Token.html#pyVHDLParser.Token.ValuedToken" xlink:title="Base&#45;class for all *valued* token." target="_top">
<polygon fill="white" stroke="#1e90ff" points="188.5,-440484.58 90,-440484.58 90,-440466.08 188.5,-440466.08 188.5,-440484.58"/>
<text text-anchor="middle" x="139.25" y="-440471.08" font-family="Vera Sans, DejaVu Sans, Liberation Sans, Arial, Helvetica, sans" font-size="10.00">ValuedToken</text>
</a>
</g>
</g>
<!-- Token&#45;&gt;ValuedToken -->
<g id="edge4" class="edge">
<title>Token&#45;&gt;ValuedToken</title>
<path fill="none" stroke="black" stroke-width="0.5" d="M54.41,-440475.33C63.25,-440475.33 73.45,-440475.33 83.64,-440475.33"/>
<polygon fill="black" stroke="black" stroke-width="0.5" points="84.62,-440477.08 89.62,-440475.33 84.62,-440473.58 84.62,-440477.08"/>
</g>
<!-- ValuedToken&#45;&gt;VHDLToken -->
<g id="edge3" class="edge">
<title>ValuedToken&#45;&gt;VHDLToken</title>
<path fill="none" stroke="black" stroke-width="0.5" d="M188.94,-440475.33C198.59,-440475.33 208.7,-440475.33 218.29,-440475.33"/>
<polygon fill="black" stroke="black" stroke-width="0.5" points="219.19,-440477.08 224.19,-440475.33 219.19,-440473.58 219.19,-440477.08"/>
</g>
</g>
</svg>
