<?xml version="1.0" encoding="UTF-8" standalone="no"?>
<!DOCTYPE svg PUBLIC "-//W3C//DTD SVG 1.1//EN"
 "http://www.w3.org/Graphics/SVG/1.1/DTD/svg11.dtd">
<!-- Generated by graphviz version 8.0.5 (20230430.1635)
 -->
<!-- Title: inheritance1fd07c4019 Pages: 1 -->
<svg width="576pt" height="18pt"
 viewBox="0.00 0.00 576.00 17.54" xmlns="http://www.w3.org/2000/svg" xmlns:xlink="http://www.w3.org/1999/xlink">
<g id="graph0" class="graph" transform="scale(0.661689 0.661689) rotate(0) translate(4 22.5)">
<title>inheritance1fd07c4019</title>
<!-- Block -->
<g id="node1" class="node">
<title>Block</title>
<g id="a_node1"><a xlink:href="../pyVHDLParser.Blocks.html#pyVHDLParser.Blocks.Block" xlink:title="Base&#45;class for all :term:`block` classes." target="_top">
<polygon fill="white" stroke="#1e90ff" points="54,-18.5 0,-18.5 0,0 54,0 54,-18.5"/>
<text text-anchor="middle" x="27" y="-5" font-family="Vera Sans, DejaVu Sans, Liberation Sans, Arial, Helvetica, sans" font-size="10.00">Block</text>
</a>
</g>
</g>
<!-- ExpressionBlock -->
<g id="node2" class="node">
<title>ExpressionBlock</title>
<g id="a_node2"><a xlink:href="../pyVHDLParser.Blocks.Expression.html#pyVHDLParser.Blocks.Expression.ExpressionBlock" xlink:title="ExpressionBlock" target="_top">
<polygon fill="white" stroke="#1e90ff" points="218.5,-18.5 90,-18.5 90,0 218.5,0 218.5,-18.5"/>
<text text-anchor="middle" x="154.25" y="-5" font-family="Vera Sans, DejaVu Sans, Liberation Sans, Arial, Helvetica, sans" font-size="10.00">ExpressionBlock</text>
</a>
</g>
</g>
<!-- Block&#45;&gt;ExpressionBlock -->
<g id="edge1" class="edge">
<title>Block&#45;&gt;ExpressionBlock</title>
<path fill="none" stroke="black" stroke-width="0.5" d="M54.26,-9.25C63.03,-9.25 73.27,-9.25 83.76,-9.25"/>
<polygon fill="black" stroke="black" stroke-width="0.5" points="84.61,-11 89.61,-9.25 84.61,-7.5 84.61,-11"/>
</g>
<!-- ExpressionBlockEndedBySemicolon -->
<g id="node3" class="node">
<title>ExpressionBlockEndedBySemicolon</title>
<g id="a_node3"><a xlink:href="../pyVHDLParser.Blocks.Expression.html#pyVHDLParser.Blocks.Expression.ExpressionBlockEndedBySemicolon" xlink:title="ExpressionBlockEndedBySemicolon" target="_top">
<polygon fill="white" stroke="#1e90ff" points="503,-18.5 254.5,-18.5 254.5,0 503,0 503,-18.5"/>
<text text-anchor="middle" x="378.75" y="-5" font-family="Vera Sans, DejaVu Sans, Liberation Sans, Arial, Helvetica, sans" font-size="10.00">ExpressionBlockEndedBySemicolon</text>
</a>
</g>
</g>
<!-- ExpressionBlock&#45;&gt;ExpressionBlockEndedBySemicolon -->
<g id="edge2" class="edge">
<title>ExpressionBlock&#45;&gt;ExpressionBlockEndedBySemicolon</title>
<path fill="none" stroke="black" stroke-width="0.5" d="M218.71,-9.25C228.05,-9.25 237.95,-9.25 248.06,-9.25"/>
<polygon fill="black" stroke="black" stroke-width="0.5" points="249.03,-11 254.03,-9.25 249.03,-7.5 249.03,-11"/>
</g>
<!-- VariableDeclarationDefaultExpressionBlock -->
<g id="node4" class="node">
<title>VariableDeclarationDefaultExpressionBlock</title>
<g id="a_node4"><a xlink:href="../pyVHDLParser/pyVHDLParser.Blocks.Object.Variable.html#pyVHDLParser.Blocks.Object.Variable.VariableDeclarationDefaultExpressionBlock" xlink:title="VariableDeclarationDefaultExpressionBlock" target="_top">
<polygon fill="white" stroke="#1e90ff" points="862.5,-18.5 539,-18.5 539,0 862.5,0 862.5,-18.5"/>
<text text-anchor="middle" x="700.75" y="-5" font-family="Vera Sans, DejaVu Sans, Liberation Sans, Arial, Helvetica, sans" font-size="10.00">VariableDeclarationDefaultExpressionBlock</text>
</a>
</g>
</g>
<!-- ExpressionBlockEndedBySemicolon&#45;&gt;VariableDeclarationDefaultExpressionBlock -->
<g id="edge3" class="edge">
<title>ExpressionBlockEndedBySemicolon&#45;&gt;VariableDeclarationDefaultExpressionBlock</title>
<path fill="none" stroke="black" stroke-width="0.5" d="M503.47,-9.25C513.1,-9.25 522.92,-9.25 532.77,-9.25"/>
<polygon fill="black" stroke="black" stroke-width="0.5" points="533.57,-11 538.57,-9.25 533.57,-7.5 533.57,-11"/>
</g>
</g>
</svg>
