<?xml version="1.0" encoding="UTF-8" standalone="no"?>
<!DOCTYPE svg PUBLIC "-//W3C//DTD SVG 1.1//EN"
 "http://www.w3.org/Graphics/SVG/1.1/DTD/svg11.dtd">
<!-- Generated by graphviz version 8.0.5 (20230430.1635)
 -->
<!-- Title: inheritance43e7c4c307 Pages: 1 -->
<svg width="1pt" height="864pt"
 viewBox="0.00 0.00 1.21 864.00" xmlns="http://www.w3.org/2000/svg" xmlns:xlink="http://www.w3.org/1999/xlink">
<g id="graph0" class="graph" transform="scale(0.00200848 0.00200848) rotate(0) translate(4 430171.42)">
<title>inheritance43e7c4c307</title>
<!-- ForceKeyword -->
<g id="node1" class="node">
<title>ForceKeyword</title>
<g id="a_node1"><a xlink:href="../pyVHDLParser/pyVHDLParser.Token.Keywords.html#pyVHDLParser.Token.Keywords.ForceKeyword" xlink:title="ForceKeyword" target="_top">
<polygon fill="white" stroke="#1e90ff" points="592,-215092.96 486,-215092.96 486,-215074.46 592,-215074.46 592,-215092.96"/>
<text text-anchor="middle" x="539" y="-215079.46" font-family="Vera Sans, DejaVu Sans, Liberation Sans, Arial, Helvetica, sans" font-size="10.00">ForceKeyword</text>
</a>
</g>
</g>
<!-- KeywordToken -->
<g id="node2" class="node">
<title>KeywordToken</title>
<g id="a_node2"><a xlink:href="../pyVHDLParser/pyVHDLParser.Token.Keywords.html#pyVHDLParser.Token.Keywords.KeywordToken" xlink:title="KeywordToken" target="_top">
<polygon fill="white" stroke="#1e90ff" points="450,-215092.96 344,-215092.96 344,-215074.46 450,-215074.46 450,-215092.96"/>
<text text-anchor="middle" x="397" y="-215079.46" font-family="Vera Sans, DejaVu Sans, Liberation Sans, Arial, Helvetica, sans" font-size="10.00">KeywordToken</text>
</a>
</g>
</g>
<!-- KeywordToken&#45;&gt;ForceKeyword -->
<g id="edge1" class="edge">
<title>KeywordToken&#45;&gt;ForceKeyword</title>
<path fill="none" stroke="black" stroke-width="0.5" d="M450.13,-215083.71C459.88,-215083.71 470.12,-215083.71 480.03,-215083.71"/>
<polygon fill="black" stroke="black" stroke-width="0.5" points="480.83,-215085.46 485.83,-215083.71 480.83,-215081.96 480.83,-215085.46"/>
</g>
<!-- VHDLToken -->
<g id="node3" class="node">
<title>VHDLToken</title>
<g id="a_node3"><a xlink:href="../pyVHDLParser.Token.html#pyVHDLParser.Token.VHDLToken" xlink:title="Base&#45;class for all VHDL specific tokens." target="_top">
<polygon fill="white" stroke="#1e90ff" points="308,-430167.42 224.5,-430167.42 224.5,0 308,0 308,-430167.42"/>
<text text-anchor="middle" x="266.25" y="-430153.92" font-family="Vera Sans, DejaVu Sans, Liberation Sans, Arial, Helvetica, sans" font-size="10.00">VHDLToken</text>
</a>
</g>
</g>
<!-- VHDLToken&#45;&gt;KeywordToken -->
<g id="edge2" class="edge">
<title>VHDLToken&#45;&gt;KeywordToken</title>
<path fill="none" stroke="black" stroke-width="0.5" d="M308.34,-215083.71C317.69,-215083.71 327.8,-215083.71 337.71,-215083.71"/>
<polygon fill="black" stroke="black" stroke-width="0.5" points="338.52,-215085.46 343.52,-215083.71 338.52,-215081.96 338.52,-215085.46"/>
</g>
<!-- Token -->
<g id="node4" class="node">
<title>Token</title>
<g id="a_node4"><a xlink:href="../pyVHDLParser.Token.html#pyVHDLParser.Token.Token" xlink:title="Base&#45;class for all token classes." target="_top">
<polygon fill="white" stroke="#1e90ff" points="54,-430167.37 0,-430167.37 0,-0.05 54,-0.05 54,-430167.37"/>
<text text-anchor="middle" x="27" y="-430153.87" font-family="Vera Sans, DejaVu Sans, Liberation Sans, Arial, Helvetica, sans" font-size="10.00">Token</text>
</a>
</g>
</g>
<!-- ValuedToken -->
<g id="node5" class="node">
<title>ValuedToken</title>
<g id="a_node5"><a xlink:href="../pyVHDLParser.Token.html#pyVHDLParser.Token.ValuedToken" xlink:title="Base&#45;class for all *valued* token." target="_top">
<polygon fill="white" stroke="#1e90ff" points="188.5,-215092.96 90,-215092.96 90,-215074.46 188.5,-215074.46 188.5,-215092.96"/>
<text text-anchor="middle" x="139.25" y="-215079.46" font-family="Vera Sans, DejaVu Sans, Liberation Sans, Arial, Helvetica, sans" font-size="10.00">ValuedToken</text>
</a>
</g>
</g>
<!-- Token&#45;&gt;ValuedToken -->
<g id="edge4" class="edge">
<title>Token&#45;&gt;ValuedToken</title>
<path fill="none" stroke="black" stroke-width="0.5" d="M54.41,-215083.71C63.25,-215083.71 73.45,-215083.71 83.64,-215083.71"/>
<polygon fill="black" stroke="black" stroke-width="0.5" points="84.62,-215085.46 89.62,-215083.71 84.62,-215081.96 84.62,-215085.46"/>
</g>
<!-- ValuedToken&#45;&gt;VHDLToken -->
<g id="edge3" class="edge">
<title>ValuedToken&#45;&gt;VHDLToken</title>
<path fill="none" stroke="black" stroke-width="0.5" d="M188.94,-215083.71C198.59,-215083.71 208.7,-215083.71 218.29,-215083.71"/>
<polygon fill="black" stroke="black" stroke-width="0.5" points="219.19,-215085.46 224.19,-215083.71 219.19,-215081.96 219.19,-215085.46"/>
</g>
</g>
</svg>
