<?xml version="1.0" encoding="UTF-8" standalone="no"?>
<!DOCTYPE svg PUBLIC "-//W3C//DTD SVG 1.1//EN"
 "http://www.w3.org/Graphics/SVG/1.1/DTD/svg11.dtd">
<!-- Generated by graphviz version 8.0.5 (20230430.1635)
 -->
<!-- Title: inheritance6b896ff808 Pages: 1 -->
<svg width="2pt" height="864pt"
 viewBox="0.00 0.00 1.56 864.00" xmlns="http://www.w3.org/2000/svg" xmlns:xlink="http://www.w3.org/1999/xlink">
<g id="graph0" class="graph" transform="scale(0.00269415 0.00269415) rotate(0) translate(4 320691.19)">
<title>inheritance6b896ff808</title>
<!-- IsKeyword -->
<g id="node1" class="node">
<title>IsKeyword</title>
<g id="a_node1"><a xlink:href="../pyVHDLParser/pyVHDLParser.Token.Keywords.html#pyVHDLParser.Token.Keywords.IsKeyword" xlink:title="IsKeyword" target="_top">
<polygon fill="white" stroke="#1e90ff" points="569.5,-160352.84 486,-160352.84 486,-160334.34 569.5,-160334.34 569.5,-160352.84"/>
<text text-anchor="middle" x="527.75" y="-160339.34" font-family="Vera Sans, DejaVu Sans, Liberation Sans, Arial, Helvetica, sans" font-size="10.00">IsKeyword</text>
</a>
</g>
</g>
<!-- KeywordToken -->
<g id="node2" class="node">
<title>KeywordToken</title>
<g id="a_node2"><a xlink:href="../pyVHDLParser/pyVHDLParser.Token.Keywords.html#pyVHDLParser.Token.Keywords.KeywordToken" xlink:title="KeywordToken" target="_top">
<polygon fill="white" stroke="#1e90ff" points="450,-160352.84 344,-160352.84 344,-160334.34 450,-160334.34 450,-160352.84"/>
<text text-anchor="middle" x="397" y="-160339.34" font-family="Vera Sans, DejaVu Sans, Liberation Sans, Arial, Helvetica, sans" font-size="10.00">KeywordToken</text>
</a>
</g>
</g>
<!-- KeywordToken&#45;&gt;IsKeyword -->
<g id="edge1" class="edge">
<title>KeywordToken&#45;&gt;IsKeyword</title>
<path fill="none" stroke="black" stroke-width="0.5" d="M450.37,-160343.59C460.17,-160343.59 470.35,-160343.59 479.97,-160343.59"/>
<polygon fill="black" stroke="black" stroke-width="0.5" points="480.88,-160345.34 485.88,-160343.59 480.88,-160341.84 480.88,-160345.34"/>
</g>
<!-- VHDLToken -->
<g id="node3" class="node">
<title>VHDLToken</title>
<g id="a_node3"><a xlink:href="../pyVHDLParser.Token.html#pyVHDLParser.Token.VHDLToken" xlink:title="Base&#45;class for all VHDL specific tokens." target="_top">
<polygon fill="white" stroke="#1e90ff" points="308,-320687.14 224.5,-320687.14 224.5,-0.05 308,-0.05 308,-320687.14"/>
<text text-anchor="middle" x="266.25" y="-320673.64" font-family="Vera Sans, DejaVu Sans, Liberation Sans, Arial, Helvetica, sans" font-size="10.00">VHDLToken</text>
</a>
</g>
</g>
<!-- VHDLToken&#45;&gt;KeywordToken -->
<g id="edge2" class="edge">
<title>VHDLToken&#45;&gt;KeywordToken</title>
<path fill="none" stroke="black" stroke-width="0.5" d="M308.34,-160343.59C317.69,-160343.59 327.8,-160343.59 337.71,-160343.59"/>
<polygon fill="black" stroke="black" stroke-width="0.5" points="338.52,-160345.34 343.52,-160343.59 338.52,-160341.84 338.52,-160345.34"/>
</g>
<!-- Token -->
<g id="node4" class="node">
<title>Token</title>
<g id="a_node4"><a xlink:href="../pyVHDLParser.Token.html#pyVHDLParser.Token.Token" xlink:title="Base&#45;class for all token classes." target="_top">
<polygon fill="white" stroke="#1e90ff" points="54,-320687.19 0,-320687.19 0,0 54,0 54,-320687.19"/>
<text text-anchor="middle" x="27" y="-320673.69" font-family="Vera Sans, DejaVu Sans, Liberation Sans, Arial, Helvetica, sans" font-size="10.00">Token</text>
</a>
</g>
</g>
<!-- ValuedToken -->
<g id="node5" class="node">
<title>ValuedToken</title>
<g id="a_node5"><a xlink:href="../pyVHDLParser.Token.html#pyVHDLParser.Token.ValuedToken" xlink:title="Base&#45;class for all *valued* token." target="_top">
<polygon fill="white" stroke="#1e90ff" points="188.5,-160358.34 90,-160358.34 90,-160328.85 188.5,-160328.85 188.5,-160358.34"/>
<text text-anchor="middle" x="139.25" y="-160344.84" font-family="Vera Sans, DejaVu Sans, Liberation Sans, Arial, Helvetica, sans" font-size="10.00">ValuedToken</text>
</a>
</g>
</g>
<!-- Token&#45;&gt;ValuedToken -->
<g id="edge4" class="edge">
<title>Token&#45;&gt;ValuedToken</title>
<path fill="none" stroke="black" stroke-width="0.5" d="M54.41,-160343.59C63.25,-160343.59 73.45,-160343.59 83.64,-160343.59"/>
<polygon fill="black" stroke="black" stroke-width="0.5" points="84.62,-160345.34 89.62,-160343.59 84.62,-160341.84 84.62,-160345.34"/>
</g>
<!-- ValuedToken&#45;&gt;VHDLToken -->
<g id="edge3" class="edge">
<title>ValuedToken&#45;&gt;VHDLToken</title>
<path fill="none" stroke="black" stroke-width="0.5" d="M188.94,-160343.59C198.59,-160343.59 208.7,-160343.59 218.29,-160343.59"/>
<polygon fill="black" stroke="black" stroke-width="0.5" points="219.19,-160345.34 224.19,-160343.59 219.19,-160341.84 219.19,-160345.34"/>
</g>
</g>
</svg>
