<?xml version="1.0" encoding="UTF-8" standalone="no"?>
<!DOCTYPE svg PUBLIC "-//W3C//DTD SVG 1.1//EN"
 "http://www.w3.org/Graphics/SVG/1.1/DTD/svg11.dtd">
<!-- Generated by graphviz version 8.0.5 (20230430.1635)
 -->
<!-- Title: inheritancea1a89f3de4 Pages: 1 -->
<svg width="2pt" height="864pt"
 viewBox="0.00 0.00 1.51 864.00" xmlns="http://www.w3.org/2000/svg" xmlns:xlink="http://www.w3.org/1999/xlink">
<g id="graph0" class="graph" transform="scale(0.0022644 0.0022644) rotate(0) translate(4 381554.36)">
<title>inheritancea1a89f3de4</title>
<!-- CommentToken -->
<g id="node1" class="node">
<title>CommentToken</title>
<g id="a_node1"><a xlink:href="../pyVHDLParser/pyVHDLParser.Token.html#pyVHDLParser.Token.CommentToken" xlink:title="Base&#45;class for comment tokens." target="_top">
<polygon fill="white" stroke="#1e90ff" points="450,-190784.43 344,-190784.43 344,-190765.93 450,-190765.93 450,-190784.43"/>
<text text-anchor="middle" x="397" y="-190770.93" font-family="Vera Sans, DejaVu Sans, Liberation Sans, Arial, Helvetica, sans" font-size="10.00">CommentToken</text>
</a>
</g>
</g>
<!-- MultiLineCommentToken -->
<g id="node3" class="node">
<title>MultiLineCommentToken</title>
<g id="a_node3"><a xlink:href="../pyVHDLParser/pyVHDLParser.Token.html#pyVHDLParser.Token.MultiLineCommentToken" xlink:title="Token representing a multi&#45;line comment." target="_top">
<polygon fill="white" stroke="#1e90ff" points="659.5,-381550.31 486,-381550.31 486,-0.05 659.5,-0.05 659.5,-381550.31"/>
<text text-anchor="middle" x="572.75" y="-381536.81" font-family="Vera Sans, DejaVu Sans, Liberation Sans, Arial, Helvetica, sans" font-size="10.00">MultiLineCommentToken</text>
</a>
</g>
</g>
<!-- CommentToken&#45;&gt;MultiLineCommentToken -->
<g id="edge2" class="edge">
<title>CommentToken&#45;&gt;MultiLineCommentToken</title>
<path fill="none" stroke="black" stroke-width="0.5" d="M450.13,-190775.18C459.49,-190775.18 469.49,-190775.18 479.59,-190775.18"/>
<polygon fill="black" stroke="black" stroke-width="0.5" points="480.54,-190776.93 485.54,-190775.18 480.54,-190773.43 480.54,-190776.93"/>
</g>
<!-- VHDLToken -->
<g id="node2" class="node">
<title>VHDLToken</title>
<g id="a_node2"><a xlink:href="../pyVHDLParser/pyVHDLParser.Token.html#pyVHDLParser.Token.VHDLToken" xlink:title="Base&#45;class for all VHDL specific tokens." target="_top">
<polygon fill="white" stroke="#1e90ff" points="308,-190784.43 224.5,-190784.43 224.5,-190765.93 308,-190765.93 308,-190784.43"/>
<text text-anchor="middle" x="266.25" y="-190770.93" font-family="Vera Sans, DejaVu Sans, Liberation Sans, Arial, Helvetica, sans" font-size="10.00">VHDLToken</text>
</a>
</g>
</g>
<!-- VHDLToken&#45;&gt;CommentToken -->
<g id="edge1" class="edge">
<title>VHDLToken&#45;&gt;CommentToken</title>
<path fill="none" stroke="black" stroke-width="0.5" d="M308.34,-190775.18C317.69,-190775.18 327.8,-190775.18 337.71,-190775.18"/>
<polygon fill="black" stroke="black" stroke-width="0.5" points="338.52,-190776.93 343.52,-190775.18 338.52,-190773.43 338.52,-190776.93"/>
</g>
<!-- Token -->
<g id="node4" class="node">
<title>Token</title>
<g id="a_node4"><a xlink:href="../pyVHDLParser/pyVHDLParser.Token.html#pyVHDLParser.Token.Token" xlink:title="Base&#45;class for all token classes." target="_top">
<polygon fill="white" stroke="#1e90ff" points="54,-381550.36 0,-381550.36 0,0 54,0 54,-381550.36"/>
<text text-anchor="middle" x="27" y="-381536.86" font-family="Vera Sans, DejaVu Sans, Liberation Sans, Arial, Helvetica, sans" font-size="10.00">Token</text>
</a>
</g>
</g>
<!-- ValuedToken -->
<g id="node5" class="node">
<title>ValuedToken</title>
<g id="a_node5"><a xlink:href="../pyVHDLParser/pyVHDLParser.Token.html#pyVHDLParser.Token.ValuedToken" xlink:title="Base&#45;class for all *valued* token." target="_top">
<polygon fill="white" stroke="#1e90ff" points="188.5,-190784.43 90,-190784.43 90,-190765.93 188.5,-190765.93 188.5,-190784.43"/>
<text text-anchor="middle" x="139.25" y="-190770.93" font-family="Vera Sans, DejaVu Sans, Liberation Sans, Arial, Helvetica, sans" font-size="10.00">ValuedToken</text>
</a>
</g>
</g>
<!-- Token&#45;&gt;ValuedToken -->
<g id="edge4" class="edge">
<title>Token&#45;&gt;ValuedToken</title>
<path fill="none" stroke="black" stroke-width="0.5" d="M54.41,-190775.18C63.25,-190775.18 73.45,-190775.18 83.64,-190775.18"/>
<polygon fill="black" stroke="black" stroke-width="0.5" points="84.62,-190776.93 89.62,-190775.18 84.62,-190773.43 84.62,-190776.93"/>
</g>
<!-- ValuedToken&#45;&gt;VHDLToken -->
<g id="edge3" class="edge">
<title>ValuedToken&#45;&gt;VHDLToken</title>
<path fill="none" stroke="black" stroke-width="0.5" d="M188.94,-190775.18C198.59,-190775.18 208.7,-190775.18 218.29,-190775.18"/>
<polygon fill="black" stroke="black" stroke-width="0.5" points="219.19,-190776.93 224.19,-190775.18 219.19,-190773.43 219.19,-190776.93"/>
</g>
</g>
</svg>
