<?xml version="1.0" encoding="UTF-8" standalone="no"?>
<!DOCTYPE svg PUBLIC "-//W3C//DTD SVG 1.1//EN"
 "http://www.w3.org/Graphics/SVG/1.1/DTD/svg11.dtd">
<!-- Generated by graphviz version 8.0.5 (20230430.1635)
 -->
<!-- Title: inheritanceebd581d25c Pages: 1 -->
<svg width="0pt" height="864pt"
 viewBox="0.00 0.00 0.25 864.00" xmlns="http://www.w3.org/2000/svg" xmlns:xlink="http://www.w3.org/1999/xlink">
<g id="graph0" class="graph" transform="scale(0.000567547 0.000567547) rotate(0) translate(4 1522337.43)">
<title>inheritanceebd581d25c</title>
<!-- StartOf -->
<g id="node1" class="node">
<title>StartOf</title>
<g id="a_node1"><a xlink:title="Base&#45;class (mixin) for all StartOf*** classes.">
<polygon fill="white" stroke="#1e90ff" points="68.5,-1514407.13 0,-1514407.13 0,-73461.01 68.5,-73461.01 68.5,-1514407.13"/>
<text text-anchor="middle" x="34.25" y="-1514393.63" font-family="Vera Sans, DejaVu Sans, Liberation Sans, Arial, Helvetica, sans" font-size="10.00">StartOf</text>
</a>
</g>
</g>
<!-- StartOfDocument -->
<g id="node2" class="node">
<title>StartOfDocument</title>
<g id="a_node2"><a xlink:title="Base&#45;class (mixin) for all StartOf***Document classes.">
<polygon fill="white" stroke="#1e90ff" points="233,-1522333.43 104.5,-1522333.43 104.5,-65534.72 233,-65534.72 233,-1522333.43"/>
<text text-anchor="middle" x="168.75" y="-1522319.93" font-family="Vera Sans, DejaVu Sans, Liberation Sans, Arial, Helvetica, sans" font-size="10.00">StartOfDocument</text>
</a>
</g>
</g>
<!-- StartOf&#45;&gt;StartOfDocument -->
<g id="edge1" class="edge">
<title>StartOf&#45;&gt;StartOfDocument</title>
<path fill="none" stroke="black" stroke-width="0.5" d="M68.69,-793934.07C77.81,-793934.07 88.04,-793934.07 98.37,-793934.07"/>
<polygon fill="black" stroke="black" stroke-width="0.5" points="99.11,-793935.82 104.11,-793934.07 99.11,-793932.32 99.11,-793935.82"/>
</g>
<!-- StartOfDocumentToken -->
<g id="node3" class="node">
<title>StartOfDocumentToken</title>
<g id="a_node3"><a xlink:href="../pyVHDLParser/pyVHDLParser.Token.html#pyVHDLParser.Token.StartOfDocumentToken" xlink:title="StartOfDocumentToken" target="_top">
<polygon fill="white" stroke="#1e90ff" points="435,-1489565.19 269,-1489565.19 269,-32766.96 435,-32766.96 435,-1489565.19"/>
<text text-anchor="middle" x="352" y="-1489551.69" font-family="Vera Sans, DejaVu Sans, Liberation Sans, Arial, Helvetica, sans" font-size="10.00">StartOfDocumentToken</text>
</a>
</g>
</g>
<!-- StartOfDocument&#45;&gt;StartOfDocumentToken -->
<g id="edge3" class="edge">
<title>StartOfDocument&#45;&gt;StartOfDocumentToken</title>
<path fill="none" stroke="black" stroke-width="0.5" d="M233.5,-782409.02C244.81,-780364.61 256.73,-778209.22 268.47,-776086.84"/>
<polygon fill="black" stroke="black" stroke-width="0.5" points="270.22,-776086.02 268.5,-776081.01 266.72,-776086 270.22,-776086.02"/>
</g>
<!-- StartOfToken -->
<g id="node4" class="node">
<title>StartOfToken</title>
<g id="a_node4"><a xlink:href="../pyVHDLParser/pyVHDLParser.Token.html#pyVHDLParser.Token.StartOfToken" xlink:title="Base&#45;class for meta&#45;tokens representing the start of a token stream." target="_top">
<polygon fill="white" stroke="#1e90ff" points="221.75,-1456798.14 115.75,-1456798.14 115.75,0 221.75,0 221.75,-1456798.14"/>
<text text-anchor="middle" x="168.75" y="-1456784.64" font-family="Vera Sans, DejaVu Sans, Liberation Sans, Arial, Helvetica, sans" font-size="10.00">StartOfToken</text>
</a>
</g>
</g>
<!-- StartOfToken&#45;&gt;StartOfDocumentToken -->
<g id="edge2" class="edge">
<title>StartOfToken&#45;&gt;StartOfDocumentToken</title>
<path fill="none" stroke="black" stroke-width="0.5" d="M222.25,-737890.05C236.71,-740504.16 252.75,-743404.58 268.47,-746245.83"/>
<polygon fill="black" stroke="black" stroke-width="0.5" points="266.72,-746246.82 268.5,-746251.81 270.22,-746246.8 266.72,-746246.82"/>
</g>
<!-- Token -->
<g id="node5" class="node">
<title>Token</title>
<g id="a_node5"><a xlink:href="../pyVHDLParser/pyVHDLParser.Token.html#pyVHDLParser.Token.Token" xlink:title="Base&#45;class for all token classes." target="_top">
<polygon fill="white" stroke="#1e90ff" points="61.25,-728413.82 7.25,-728413.82 7.25,-728384.32 61.25,-728384.32 61.25,-728413.82"/>
<text text-anchor="middle" x="34.25" y="-728400.32" font-family="Vera Sans, DejaVu Sans, Liberation Sans, Arial, Helvetica, sans" font-size="10.00">Token</text>
</a>
</g>
</g>
<!-- Token&#45;&gt;StartOfToken -->
<g id="edge4" class="edge">
<title>Token&#45;&gt;StartOfToken</title>
<path fill="none" stroke="black" stroke-width="0.5" d="M61.74,-728399.07C75.52,-728399.07 92.93,-728399.07 109.64,-728399.07"/>
<polygon fill="black" stroke="black" stroke-width="0.5" points="110.27,-728400.82 115.27,-728399.07 110.27,-728397.32 110.27,-728400.82"/>
</g>
</g>
</svg>
