<?xml version="1.0" encoding="UTF-8" standalone="no"?>
<!DOCTYPE svg PUBLIC "-//W3C//DTD SVG 1.1//EN"
 "http://www.w3.org/Graphics/SVG/1.1/DTD/svg11.dtd">
<!-- Generated by graphviz version 8.0.5 (20230430.1635)
 -->
<!-- Title: inheritanceb99bceb158 Pages: 1 -->
<svg width="0pt" height="864pt"
 viewBox="0.00 0.00 0.23 864.00" xmlns="http://www.w3.org/2000/svg" xmlns:xlink="http://www.w3.org/1999/xlink">
<g id="graph0" class="graph" transform="scale(0.000596267 0.000596267) rotate(0) translate(4 1449010.12)">
<title>inheritanceb99bceb158</title>
<!-- Block -->
<g id="node1" class="node">
<title>Block</title>
<g id="a_node1"><a xlink:href="../pyVHDLParser/pyVHDLParser.Blocks.html#pyVHDLParser.Blocks.Block" xlink:title="Base&#45;class for all :term:`block` classes." target="_top">
<polygon fill="white" stroke="#1e90ff" points="54,-757275.82 0,-757275.82 0,-757257.32 54,-757257.32 54,-757275.82"/>
<text text-anchor="middle" x="27" y="-757262.32" font-family="Vera Sans, DejaVu Sans, Liberation Sans, Arial, Helvetica, sans" font-size="10.00">Block</text>
</a>
</g>
</g>
<!-- EndOfBlock -->
<g id="node3" class="node">
<title>EndOfBlock</title>
<g id="a_node3"><a xlink:href="../pyVHDLParser/pyVHDLParser.Blocks.html#pyVHDLParser.Blocks.EndOfBlock" xlink:title="Base&#45;class for a last block in a sequence of double&#45;linked blocks." target="_top">
<polygon fill="white" stroke="#1e90ff" points="188.5,-1449006.12 97.5,-1449006.12 97.5,-65527.01 188.5,-65527.01 188.5,-1449006.12"/>
<text text-anchor="middle" x="143" y="-1448992.62" font-family="Vera Sans, DejaVu Sans, Liberation Sans, Arial, Helvetica, sans" font-size="10.00">EndOfBlock</text>
</a>
</g>
</g>
<!-- Block&#45;&gt;EndOfBlock -->
<g id="edge1" class="edge">
<title>Block&#45;&gt;EndOfBlock</title>
<path fill="none" stroke="black" stroke-width="0.5" d="M54.44,-757266.57C65.51,-757266.57 78.75,-757266.57 91.55,-757266.57"/>
<polygon fill="black" stroke="black" stroke-width="0.5" points="92.39,-757268.32 97.39,-757266.57 92.39,-757264.82 92.39,-757268.32"/>
</g>
<!-- EndOf -->
<g id="node2" class="node">
<title>EndOf</title>
<g id="a_node2"><a xlink:title="Base&#45;class (mixin) for all EndOf*** classes.">
<polygon fill="white" stroke="#1e90ff" points="54,-691740.82 0,-691740.82 0,-691722.32 54,-691722.32 54,-691740.82"/>
<text text-anchor="middle" x="27" y="-691727.32" font-family="Vera Sans, DejaVu Sans, Liberation Sans, Arial, Helvetica, sans" font-size="10.00">EndOf</text>
</a>
</g>
</g>
<!-- EndOfSnippet -->
<g id="node4" class="node">
<title>EndOfSnippet</title>
<g id="a_node4"><a xlink:title="Base&#45;class (mixin) for all EndOf***Snippet classes.">
<polygon fill="white" stroke="#1e90ff" points="196,-1383463.13 90,-1383463.13 90,0 196,0 196,-1383463.13"/>
<text text-anchor="middle" x="143" y="-1383449.63" font-family="Vera Sans, DejaVu Sans, Liberation Sans, Arial, Helvetica, sans" font-size="10.00">EndOfSnippet</text>
</a>
</g>
</g>
<!-- EndOf&#45;&gt;EndOfSnippet -->
<g id="edge2" class="edge">
<title>EndOf&#45;&gt;EndOfSnippet</title>
<path fill="none" stroke="black" stroke-width="0.5" d="M54.44,-691731.57C63.32,-691731.57 73.6,-691731.57 83.94,-691731.57"/>
<polygon fill="black" stroke="black" stroke-width="0.5" points="84.67,-691733.32 89.67,-691731.57 84.67,-691729.82 84.67,-691733.32"/>
</g>
<!-- EndOfSnippetBlock -->
<g id="node5" class="node">
<title>EndOfSnippetBlock</title>
<g id="a_node5"><a xlink:href="../pyVHDLParser/pyVHDLParser.Blocks.html#pyVHDLParser.Blocks.EndOfSnippetBlock" xlink:title="EndOfSnippetBlock" target="_top">
<polygon fill="white" stroke="#1e90ff" points="375.5,-724513.31 232,-724513.31 232,-724483.82 375.5,-724483.82 375.5,-724513.31"/>
<text text-anchor="middle" x="303.75" y="-724499.81" font-family="Vera Sans, DejaVu Sans, Liberation Sans, Arial, Helvetica, sans" font-size="10.00">EndOfSnippetBlock</text>
</a>
</g>
</g>
<!-- EndOfBlock&#45;&gt;EndOfSnippetBlock -->
<g id="edge3" class="edge">
<title>EndOfBlock&#45;&gt;EndOfSnippetBlock</title>
<path fill="none" stroke="black" stroke-width="0.5" d="M189,-747978.24C234.88,-738506.84 299.77,-725114.24 302.65,-724519.12"/>
<polygon fill="black" stroke="black" stroke-width="0.5" points="304.4,-724518.45 302.68,-724513.45 300.9,-724518.44 304.4,-724518.45"/>
</g>
<!-- EndOfSnippet&#45;&gt;EndOfSnippetBlock -->
<g id="edge4" class="edge">
<title>EndOfSnippet&#45;&gt;EndOfSnippetBlock</title>
<path fill="none" stroke="black" stroke-width="0.5" d="M196.5,-702567.85C241.63,-711882.37 299.89,-723909.21 302.65,-724477.63"/>
<polygon fill="black" stroke="black" stroke-width="0.5" points="300.9,-724478.44 302.68,-724483.43 304.4,-724478.42 300.9,-724478.44"/>
</g>
</g>
</svg>
