<?xml version="1.0" encoding="UTF-8" standalone="no"?>
<!DOCTYPE svg PUBLIC "-//W3C//DTD SVG 1.1//EN"
 "http://www.w3.org/Graphics/SVG/1.1/DTD/svg11.dtd">
<!-- Generated by graphviz version 8.0.5 (20230430.1635)
 -->
<!-- Title: inheritance098c9ab13c Pages: 1 -->
<svg width="0pt" height="864pt"
 viewBox="0.00 0.00 0.36 864.00" xmlns="http://www.w3.org/2000/svg" xmlns:xlink="http://www.w3.org/1999/xlink">
<g id="graph0" class="graph" transform="scale(0.000611278 0.000611278) rotate(0) translate(4 1413429.18)">
<title>inheritance098c9ab13c</title>
<!-- ElseKeyword -->
<g id="node1" class="node">
<title>ElseKeyword</title>
<g id="a_node1"><a xlink:href="../pyVHDLParser/pyVHDLParser.Token.Keywords.html#pyVHDLParser.Token.Keywords.ElseKeyword" xlink:title="ElseKeyword" target="_top">
<polygon fill="white" stroke="#1e90ff" points="584.5,-706721.84 486,-706721.84 486,-706703.34 584.5,-706703.34 584.5,-706721.84"/>
<text text-anchor="middle" x="535.25" y="-706708.34" font-family="Vera Sans, DejaVu Sans, Liberation Sans, Arial, Helvetica, sans" font-size="10.00">ElseKeyword</text>
</a>
</g>
</g>
<!-- KeywordToken -->
<g id="node2" class="node">
<title>KeywordToken</title>
<g id="a_node2"><a xlink:href="../pyVHDLParser/pyVHDLParser.Token.Keywords.html#pyVHDLParser.Token.Keywords.KeywordToken" xlink:title="KeywordToken" target="_top">
<polygon fill="white" stroke="#1e90ff" points="450,-706721.84 344,-706721.84 344,-706703.34 450,-706703.34 450,-706721.84"/>
<text text-anchor="middle" x="397" y="-706708.34" font-family="Vera Sans, DejaVu Sans, Liberation Sans, Arial, Helvetica, sans" font-size="10.00">KeywordToken</text>
</a>
</g>
</g>
<!-- KeywordToken&#45;&gt;ElseKeyword -->
<g id="edge1" class="edge">
<title>KeywordToken&#45;&gt;ElseKeyword</title>
<path fill="none" stroke="black" stroke-width="0.5" d="M450.29,-706712.59C460.07,-706712.59 470.32,-706712.59 480.16,-706712.59"/>
<polygon fill="black" stroke="black" stroke-width="0.5" points="480.9,-706714.34 485.9,-706712.59 480.9,-706710.84 480.9,-706714.34"/>
</g>
<!-- VHDLToken -->
<g id="node3" class="node">
<title>VHDLToken</title>
<g id="a_node3"><a xlink:href="../pyVHDLParser.Token.html#pyVHDLParser.Token.VHDLToken" xlink:title="Base&#45;class for all VHDL specific tokens." target="_top">
<polygon fill="white" stroke="#1e90ff" points="308,-1413425.13 224.5,-1413425.13 224.5,-0.05 308,-0.05 308,-1413425.13"/>
<text text-anchor="middle" x="266.25" y="-1413411.63" font-family="Vera Sans, DejaVu Sans, Liberation Sans, Arial, Helvetica, sans" font-size="10.00">VHDLToken</text>
</a>
</g>
</g>
<!-- VHDLToken&#45;&gt;KeywordToken -->
<g id="edge2" class="edge">
<title>VHDLToken&#45;&gt;KeywordToken</title>
<path fill="none" stroke="black" stroke-width="0.5" d="M308.34,-706712.59C317.69,-706712.59 327.8,-706712.59 337.71,-706712.59"/>
<polygon fill="black" stroke="black" stroke-width="0.5" points="338.52,-706714.34 343.52,-706712.59 338.52,-706710.84 338.52,-706714.34"/>
</g>
<!-- Token -->
<g id="node4" class="node">
<title>Token</title>
<g id="a_node4"><a xlink:href="../pyVHDLParser.Token.html#pyVHDLParser.Token.Token" xlink:title="Base&#45;class for all token classes." target="_top">
<polygon fill="white" stroke="#1e90ff" points="54,-1413425.18 0,-1413425.18 0,0 54,0 54,-1413425.18"/>
<text text-anchor="middle" x="27" y="-1413411.68" font-family="Vera Sans, DejaVu Sans, Liberation Sans, Arial, Helvetica, sans" font-size="10.00">Token</text>
</a>
</g>
</g>
<!-- ValuedToken -->
<g id="node5" class="node">
<title>ValuedToken</title>
<g id="a_node5"><a xlink:href="../pyVHDLParser.Token.html#pyVHDLParser.Token.ValuedToken" xlink:title="Base&#45;class for all *valued* token." target="_top">
<polygon fill="white" stroke="#1e90ff" points="188.5,-706721.84 90,-706721.84 90,-706703.34 188.5,-706703.34 188.5,-706721.84"/>
<text text-anchor="middle" x="139.25" y="-706708.34" font-family="Vera Sans, DejaVu Sans, Liberation Sans, Arial, Helvetica, sans" font-size="10.00">ValuedToken</text>
</a>
</g>
</g>
<!-- Token&#45;&gt;ValuedToken -->
<g id="edge4" class="edge">
<title>Token&#45;&gt;ValuedToken</title>
<path fill="none" stroke="black" stroke-width="0.5" d="M54.41,-706712.59C63.25,-706712.59 73.45,-706712.59 83.64,-706712.59"/>
<polygon fill="black" stroke="black" stroke-width="0.5" points="84.62,-706714.34 89.62,-706712.59 84.62,-706710.84 84.62,-706714.34"/>
</g>
<!-- ValuedToken&#45;&gt;VHDLToken -->
<g id="edge3" class="edge">
<title>ValuedToken&#45;&gt;VHDLToken</title>
<path fill="none" stroke="black" stroke-width="0.5" d="M188.94,-706712.59C198.59,-706712.59 208.7,-706712.59 218.29,-706712.59"/>
<polygon fill="black" stroke="black" stroke-width="0.5" points="219.19,-706714.34 224.19,-706712.59 219.19,-706710.84 219.19,-706714.34"/>
</g>
</g>
</svg>
