<?xml version="1.0" encoding="UTF-8" standalone="no"?>
<!DOCTYPE svg PUBLIC "-//W3C//DTD SVG 1.1//EN"
 "http://www.w3.org/Graphics/SVG/1.1/DTD/svg11.dtd">
<!-- Generated by graphviz version 8.0.5 (20230430.1635)
 -->
<!-- Title: inheritanced422b077a0 Pages: 1 -->
<svg width="1pt" height="864pt"
 viewBox="0.00 0.00 1.36 864.00" xmlns="http://www.w3.org/2000/svg" xmlns:xlink="http://www.w3.org/1999/xlink">
<g id="graph0" class="graph" transform="scale(0.0018839 0.0018839) rotate(0) translate(4 458619.49)">
<title>inheritanced422b077a0</title>
<!-- KeywordToken -->
<g id="node1" class="node">
<title>KeywordToken</title>
<g id="a_node1"><a xlink:href="../pyVHDLParser/pyVHDLParser.Token.Keywords.html#pyVHDLParser.Token.Keywords.KeywordToken" xlink:title="KeywordToken" target="_top">
<polygon fill="white" stroke="#1e90ff" points="450,-229317 344,-229317 344,-229298.5 450,-229298.5 450,-229317"/>
<text text-anchor="middle" x="397" y="-229303.5" font-family="Vera Sans, DejaVu Sans, Liberation Sans, Arial, Helvetica, sans" font-size="10.00">KeywordToken</text>
</a>
</g>
</g>
<!-- Operator -->
<g id="node3" class="node">
<title>Operator</title>
<g id="a_node3"><a xlink:href="../pyVHDLParser/pyVHDLParser.Token.Keywords.html#pyVHDLParser.Token.Keywords.Operator" xlink:title="Operator" target="_top">
<polygon fill="white" stroke="#1e90ff" points="562,-458615.49 486,-458615.49 486,0 562,0 562,-458615.49"/>
<text text-anchor="middle" x="524" y="-458601.99" font-family="Vera Sans, DejaVu Sans, Liberation Sans, Arial, Helvetica, sans" font-size="10.00">Operator</text>
</a>
</g>
</g>
<!-- KeywordToken&#45;&gt;Operator -->
<g id="edge2" class="edge">
<title>KeywordToken&#45;&gt;Operator</title>
<path fill="none" stroke="black" stroke-width="0.5" d="M450.29,-229307.75C460.15,-229307.75 470.36,-229307.75 479.9,-229307.75"/>
<polygon fill="black" stroke="black" stroke-width="0.5" points="480.74,-229309.5 485.74,-229307.75 480.74,-229306 480.74,-229309.5"/>
</g>
<!-- VHDLToken -->
<g id="node2" class="node">
<title>VHDLToken</title>
<g id="a_node2"><a xlink:href="../pyVHDLParser.Token.html#pyVHDLParser.Token.VHDLToken" xlink:title="Base&#45;class for all VHDL specific tokens." target="_top">
<polygon fill="white" stroke="#1e90ff" points="308,-229317 224.5,-229317 224.5,-229298.5 308,-229298.5 308,-229317"/>
<text text-anchor="middle" x="266.25" y="-229303.5" font-family="Vera Sans, DejaVu Sans, Liberation Sans, Arial, Helvetica, sans" font-size="10.00">VHDLToken</text>
</a>
</g>
</g>
<!-- VHDLToken&#45;&gt;KeywordToken -->
<g id="edge1" class="edge">
<title>VHDLToken&#45;&gt;KeywordToken</title>
<path fill="none" stroke="black" stroke-width="0.5" d="M308.34,-229307.75C317.69,-229307.75 327.8,-229307.75 337.71,-229307.75"/>
<polygon fill="black" stroke="black" stroke-width="0.5" points="338.52,-229309.5 343.52,-229307.75 338.52,-229306 338.52,-229309.5"/>
</g>
<!-- ShiftOperator -->
<g id="node4" class="node">
<title>ShiftOperator</title>
<g id="a_node4"><a xlink:href="../pyVHDLParser/pyVHDLParser.Token.Keywords.html#pyVHDLParser.Token.Keywords.ShiftOperator" xlink:title="ShiftOperator" target="_top">
<polygon fill="white" stroke="#1e90ff" points="711.5,-229317 598,-229317 598,-229298.5 711.5,-229298.5 711.5,-229317"/>
<text text-anchor="middle" x="654.75" y="-229303.5" font-family="Vera Sans, DejaVu Sans, Liberation Sans, Arial, Helvetica, sans" font-size="10.00">ShiftOperator</text>
</a>
</g>
</g>
<!-- Operator&#45;&gt;ShiftOperator -->
<g id="edge3" class="edge">
<title>Operator&#45;&gt;ShiftOperator</title>
<path fill="none" stroke="black" stroke-width="0.5" d="M562.24,-229307.75C571.55,-229307.75 581.79,-229307.75 591.95,-229307.75"/>
<polygon fill="black" stroke="black" stroke-width="0.5" points="592.91,-229309.5 597.91,-229307.75 592.91,-229306 592.91,-229309.5"/>
</g>
<!-- Token -->
<g id="node5" class="node">
<title>Token</title>
<g id="a_node5"><a xlink:href="../pyVHDLParser.Token.html#pyVHDLParser.Token.Token" xlink:title="Base&#45;class for all token classes." target="_top">
<polygon fill="white" stroke="#1e90ff" points="54,-229317 0,-229317 0,-229298.5 54,-229298.5 54,-229317"/>
<text text-anchor="middle" x="27" y="-229303.5" font-family="Vera Sans, DejaVu Sans, Liberation Sans, Arial, Helvetica, sans" font-size="10.00">Token</text>
</a>
</g>
</g>
<!-- ValuedToken -->
<g id="node6" class="node">
<title>ValuedToken</title>
<g id="a_node6"><a xlink:href="../pyVHDLParser.Token.html#pyVHDLParser.Token.ValuedToken" xlink:title="Base&#45;class for all *valued* token." target="_top">
<polygon fill="white" stroke="#1e90ff" points="188.5,-229328.95 90,-229328.95 90,-229286.54 188.5,-229286.54 188.5,-229328.95"/>
<text text-anchor="middle" x="139.25" y="-229315.45" font-family="Vera Sans, DejaVu Sans, Liberation Sans, Arial, Helvetica, sans" font-size="10.00">ValuedToken</text>
</a>
</g>
</g>
<!-- Token&#45;&gt;ValuedToken -->
<g id="edge5" class="edge">
<title>Token&#45;&gt;ValuedToken</title>
<path fill="none" stroke="black" stroke-width="0.5" d="M54.41,-229307.75C63.25,-229307.75 73.45,-229307.75 83.64,-229307.75"/>
<polygon fill="black" stroke="black" stroke-width="0.5" points="84.62,-229309.5 89.62,-229307.75 84.62,-229306 84.62,-229309.5"/>
</g>
<!-- ValuedToken&#45;&gt;VHDLToken -->
<g id="edge4" class="edge">
<title>ValuedToken&#45;&gt;VHDLToken</title>
<path fill="none" stroke="black" stroke-width="0.5" d="M188.94,-229307.75C198.59,-229307.75 208.7,-229307.75 218.29,-229307.75"/>
<polygon fill="black" stroke="black" stroke-width="0.5" points="219.19,-229309.5 224.19,-229307.75 219.19,-229306 219.19,-229309.5"/>
</g>
</g>
</svg>
