<?xml version="1.0" encoding="UTF-8" standalone="no"?>
<!DOCTYPE svg PUBLIC "-//W3C//DTD SVG 1.1//EN"
 "http://www.w3.org/Graphics/SVG/1.1/DTD/svg11.dtd">
<!-- Generated by graphviz version 8.0.5 (20230430.1635)
 -->
<!-- Title: inheritancee6c5c86a75 Pages: 1 -->
<svg width="0pt" height="864pt"
 viewBox="0.00 0.00 0.48 864.00" xmlns="http://www.w3.org/2000/svg" xmlns:xlink="http://www.w3.org/1999/xlink">
<g id="graph0" class="graph" transform="scale(0.000799386 0.000799386) rotate(0) translate(4 1080825.18)">
<title>inheritancee6c5c86a75</title>
<!-- GroupKeyword -->
<g id="node1" class="node">
<title>GroupKeyword</title>
<g id="a_node1"><a xlink:href="../pyVHDLParser/pyVHDLParser.Token.Keywords.html#pyVHDLParser.Token.Keywords.GroupKeyword" xlink:title="GroupKeyword" target="_top">
<polygon fill="white" stroke="#1e90ff" points="592,-540419.84 486,-540419.84 486,-540401.34 592,-540401.34 592,-540419.84"/>
<text text-anchor="middle" x="539" y="-540406.34" font-family="Vera Sans, DejaVu Sans, Liberation Sans, Arial, Helvetica, sans" font-size="10.00">GroupKeyword</text>
</a>
</g>
</g>
<!-- KeywordToken -->
<g id="node2" class="node">
<title>KeywordToken</title>
<g id="a_node2"><a xlink:href="../pyVHDLParser/pyVHDLParser.Token.Keywords.html#pyVHDLParser.Token.Keywords.KeywordToken" xlink:title="KeywordToken" target="_top">
<polygon fill="white" stroke="#1e90ff" points="450,-540419.84 344,-540419.84 344,-540401.34 450,-540401.34 450,-540419.84"/>
<text text-anchor="middle" x="397" y="-540406.34" font-family="Vera Sans, DejaVu Sans, Liberation Sans, Arial, Helvetica, sans" font-size="10.00">KeywordToken</text>
</a>
</g>
</g>
<!-- KeywordToken&#45;&gt;GroupKeyword -->
<g id="edge1" class="edge">
<title>KeywordToken&#45;&gt;GroupKeyword</title>
<path fill="none" stroke="black" stroke-width="0.5" d="M450.13,-540410.59C459.88,-540410.59 470.12,-540410.59 480.03,-540410.59"/>
<polygon fill="black" stroke="black" stroke-width="0.5" points="480.83,-540412.34 485.83,-540410.59 480.83,-540408.84 480.83,-540412.34"/>
</g>
<!-- VHDLToken -->
<g id="node3" class="node">
<title>VHDLToken</title>
<g id="a_node3"><a xlink:href="../pyVHDLParser.Token.html#pyVHDLParser.Token.VHDLToken" xlink:title="Base&#45;class for all VHDL specific tokens." target="_top">
<polygon fill="white" stroke="#1e90ff" points="308,-1080821.13 224.5,-1080821.13 224.5,-0.05 308,-0.05 308,-1080821.13"/>
<text text-anchor="middle" x="266.25" y="-1080807.63" font-family="Vera Sans, DejaVu Sans, Liberation Sans, Arial, Helvetica, sans" font-size="10.00">VHDLToken</text>
</a>
</g>
</g>
<!-- VHDLToken&#45;&gt;KeywordToken -->
<g id="edge2" class="edge">
<title>VHDLToken&#45;&gt;KeywordToken</title>
<path fill="none" stroke="black" stroke-width="0.5" d="M308.34,-540410.59C317.69,-540410.59 327.8,-540410.59 337.71,-540410.59"/>
<polygon fill="black" stroke="black" stroke-width="0.5" points="338.52,-540412.34 343.52,-540410.59 338.52,-540408.84 338.52,-540412.34"/>
</g>
<!-- Token -->
<g id="node4" class="node">
<title>Token</title>
<g id="a_node4"><a xlink:href="../pyVHDLParser.Token.html#pyVHDLParser.Token.Token" xlink:title="Base&#45;class for all token classes." target="_top">
<polygon fill="white" stroke="#1e90ff" points="54,-1080821.18 0,-1080821.18 0,0 54,0 54,-1080821.18"/>
<text text-anchor="middle" x="27" y="-1080807.68" font-family="Vera Sans, DejaVu Sans, Liberation Sans, Arial, Helvetica, sans" font-size="10.00">Token</text>
</a>
</g>
</g>
<!-- ValuedToken -->
<g id="node5" class="node">
<title>ValuedToken</title>
<g id="a_node5"><a xlink:href="../pyVHDLParser.Token.html#pyVHDLParser.Token.ValuedToken" xlink:title="Base&#45;class for all *valued* token." target="_top">
<polygon fill="white" stroke="#1e90ff" points="188.5,-540419.84 90,-540419.84 90,-540401.34 188.5,-540401.34 188.5,-540419.84"/>
<text text-anchor="middle" x="139.25" y="-540406.34" font-family="Vera Sans, DejaVu Sans, Liberation Sans, Arial, Helvetica, sans" font-size="10.00">ValuedToken</text>
</a>
</g>
</g>
<!-- Token&#45;&gt;ValuedToken -->
<g id="edge4" class="edge">
<title>Token&#45;&gt;ValuedToken</title>
<path fill="none" stroke="black" stroke-width="0.5" d="M54.41,-540410.59C63.25,-540410.59 73.45,-540410.59 83.64,-540410.59"/>
<polygon fill="black" stroke="black" stroke-width="0.5" points="84.62,-540412.34 89.62,-540410.59 84.62,-540408.84 84.62,-540412.34"/>
</g>
<!-- ValuedToken&#45;&gt;VHDLToken -->
<g id="edge3" class="edge">
<title>ValuedToken&#45;&gt;VHDLToken</title>
<path fill="none" stroke="black" stroke-width="0.5" d="M188.94,-540410.59C198.59,-540410.59 208.7,-540410.59 218.29,-540410.59"/>
<polygon fill="black" stroke="black" stroke-width="0.5" points="219.19,-540412.34 224.19,-540410.59 219.19,-540408.84 219.19,-540412.34"/>
</g>
</g>
</svg>
