<?xml version="1.0" encoding="UTF-8" standalone="no"?>
<!DOCTYPE svg PUBLIC "-//W3C//DTD SVG 1.1//EN"
 "http://www.w3.org/Graphics/SVG/1.1/DTD/svg11.dtd">
<!-- Generated by graphviz version 8.0.5 (20230430.1635)
 -->
<!-- Title: inheritance72f6e264b0 Pages: 1 -->
<svg width="576pt" height="25pt"
 viewBox="0.00 0.00 576.00 24.62" xmlns="http://www.w3.org/2000/svg" xmlns:xlink="http://www.w3.org/1999/xlink">
<g id="graph0" class="graph" transform="scale(0.724073 0.724073) rotate(0) translate(4 30)">
<title>inheritance72f6e264b0</title>
<!-- Block -->
<g id="node1" class="node">
<title>Block</title>
<g id="a_node1"><a xlink:href="../pyVHDLParser.Blocks.html#pyVHDLParser.Blocks.Block" xlink:title="Base&#45;class for all :term:`block` classes." target="_top">
<polygon fill="white" stroke="#1e90ff" points="54,-22.25 0,-22.25 0,-3.75 54,-3.75 54,-22.25"/>
<text text-anchor="middle" x="27" y="-8.75" font-family="Vera Sans, DejaVu Sans, Liberation Sans, Arial, Helvetica, sans" font-size="10.00">Block</text>
</a>
</g>
</g>
<!-- InterfaceObjectBlock -->
<g id="node3" class="node">
<title>InterfaceObjectBlock</title>
<g id="a_node3"><a xlink:href="../pyVHDLParser.Blocks.InterfaceObject.html#pyVHDLParser.Blocks.InterfaceObject.InterfaceObjectBlock" xlink:title="InterfaceObjectBlock" target="_top">
<polygon fill="white" stroke="#1e90ff" points="256,-22.29 90,-22.29 90,-3.71 256,-3.71 256,-22.29"/>
<text text-anchor="middle" x="173" y="-8.79" font-family="Vera Sans, DejaVu Sans, Liberation Sans, Arial, Helvetica, sans" font-size="10.00">InterfaceObjectBlock</text>
</a>
</g>
</g>
<!-- Block&#45;&gt;InterfaceObjectBlock -->
<g id="edge2" class="edge">
<title>Block&#45;&gt;InterfaceObjectBlock</title>
<path fill="none" stroke="black" stroke-width="0.5" d="M54.41,-13C63.04,-13 73.16,-13 83.77,-13"/>
<polygon fill="black" stroke="black" stroke-width="0.5" points="84.72,-14.75 89.72,-13 84.72,-11.25 84.72,-14.75"/>
</g>
<!-- InterfaceConstantBlock -->
<g id="node2" class="node">
<title>InterfaceConstantBlock</title>
<g id="a_node2"><a xlink:href="../pyVHDLParser.Blocks.InterfaceObject.html#pyVHDLParser.Blocks.InterfaceObject.InterfaceConstantBlock" xlink:title="InterfaceConstantBlock" target="_top">
<polygon fill="white" stroke="#1e90ff" points="473,-22.25 292,-22.25 292,-3.75 473,-3.75 473,-22.25"/>
<text text-anchor="middle" x="382.5" y="-8.75" font-family="Vera Sans, DejaVu Sans, Liberation Sans, Arial, Helvetica, sans" font-size="10.00">InterfaceConstantBlock</text>
</a>
</g>
</g>
<!-- ParameterListInterfaceConstantBlock -->
<g id="node4" class="node">
<title>ParameterListInterfaceConstantBlock</title>
<g id="a_node4"><a xlink:href="../pyVHDLParser/pyVHDLParser.Blocks.List.ParameterList.html#pyVHDLParser.Blocks.List.ParameterList.ParameterListInterfaceConstantBlock" xlink:title="ParameterListInterfaceConstantBlock" target="_top">
<polygon fill="white" stroke="#1e90ff" points="787.5,-26 509,-26 509,0 787.5,0 787.5,-26"/>
<text text-anchor="middle" x="648.25" y="-12.5" font-family="Vera Sans, DejaVu Sans, Liberation Sans, Arial, Helvetica, sans" font-size="10.00">ParameterListInterfaceConstantBlock</text>
</a>
</g>
</g>
<!-- InterfaceConstantBlock&#45;&gt;ParameterListInterfaceConstantBlock -->
<g id="edge3" class="edge">
<title>InterfaceConstantBlock&#45;&gt;ParameterListInterfaceConstantBlock</title>
<path fill="none" stroke="black" stroke-width="0.5" d="M473.16,-13C482.77,-13 492.72,-13 502.77,-13"/>
<polygon fill="black" stroke="black" stroke-width="0.5" points="503.69,-14.75 508.69,-13 503.69,-11.25 503.69,-14.75"/>
</g>
<!-- InterfaceObjectBlock&#45;&gt;InterfaceConstantBlock -->
<g id="edge1" class="edge">
<title>InterfaceObjectBlock&#45;&gt;InterfaceConstantBlock</title>
<path fill="none" stroke="black" stroke-width="0.5" d="M256.31,-13C266.05,-13 276.06,-13 285.96,-13"/>
<polygon fill="black" stroke="black" stroke-width="0.5" points="286.78,-14.75 291.78,-13 286.78,-11.25 286.78,-14.75"/>
</g>
</g>
</svg>
