<?xml version="1.0" encoding="UTF-8" standalone="no"?>
<!DOCTYPE svg PUBLIC "-//W3C//DTD SVG 1.1//EN"
 "http://www.w3.org/Graphics/SVG/1.1/DTD/svg11.dtd">
<!-- Generated by graphviz version 8.0.5 (20230430.1635)
 -->
<!-- Title: inheritance8f70c59159 Pages: 1 -->
<svg width="3pt" height="864pt"
 viewBox="0.00 0.00 3.35 864.00" xmlns="http://www.w3.org/2000/svg" xmlns:xlink="http://www.w3.org/1999/xlink">
<g id="graph0" class="graph" transform="scale(0.00406145 0.00406145) rotate(0) translate(4 212727.74)">
<title>inheritance8f70c59159</title>
<!-- OperatorToken -->
<g id="node1" class="node">
<title>OperatorToken</title>
<g id="a_node1"><a xlink:href="../pyVHDLParser/pyVHDLParser.Token.Keywords.html#pyVHDLParser.Token.Keywords.OperatorToken" xlink:title="Base&#45;class for all operator tokens." target="_top">
<polygon fill="white" stroke="#1e90ff" points="637,-106371.12 523.5,-106371.12 523.5,-106352.62 637,-106352.62 637,-106371.12"/>
<text text-anchor="middle" x="580.25" y="-106357.62" font-family="Vera Sans, DejaVu Sans, Liberation Sans, Arial, Helvetica, sans" font-size="10.00">OperatorToken</text>
</a>
</g>
</g>
<!-- RemainderOperator -->
<g id="node3" class="node">
<title>RemainderOperator</title>
<g id="a_node3"><a xlink:href="../pyVHDLParser/pyVHDLParser.Token.Keywords.html#pyVHDLParser.Token.Keywords.RemainderOperator" xlink:title="RemainderOperator" target="_top">
<polygon fill="white" stroke="#1e90ff" points="816.5,-212723.74 673,-212723.74 673,0 816.5,0 816.5,-212723.74"/>
<text text-anchor="middle" x="744.75" y="-212710.24" font-family="Vera Sans, DejaVu Sans, Liberation Sans, Arial, Helvetica, sans" font-size="10.00">RemainderOperator</text>
</a>
</g>
</g>
<!-- OperatorToken&#45;&gt;RemainderOperator -->
<g id="edge2" class="edge">
<title>OperatorToken&#45;&gt;RemainderOperator</title>
<path fill="none" stroke="black" stroke-width="0.5" d="M637.17,-106361.87C646.69,-106361.87 656.72,-106361.87 666.67,-106361.87"/>
<polygon fill="black" stroke="black" stroke-width="0.5" points="667.51,-106363.62 672.51,-106361.87 667.51,-106360.12 667.51,-106363.62"/>
</g>
<!-- SpecificVHDLToken -->
<g id="node2" class="node">
<title>SpecificVHDLToken</title>
<g id="a_node2"><a xlink:href="../pyVHDLParser/pyVHDLParser.Token.Keywords.html#pyVHDLParser.Token.Keywords.SpecificVHDLToken" xlink:title="Base&#45;class for all specific tokens." target="_top">
<polygon fill="white" stroke="#1e90ff" points="487.5,-106371.12 344,-106371.12 344,-106352.62 487.5,-106352.62 487.5,-106371.12"/>
<text text-anchor="middle" x="415.75" y="-106357.62" font-family="Vera Sans, DejaVu Sans, Liberation Sans, Arial, Helvetica, sans" font-size="10.00">SpecificVHDLToken</text>
</a>
</g>
</g>
<!-- SpecificVHDLToken&#45;&gt;OperatorToken -->
<g id="edge1" class="edge">
<title>SpecificVHDLToken&#45;&gt;OperatorToken</title>
<path fill="none" stroke="black" stroke-width="0.5" d="M487.55,-106361.87C497.56,-106361.87 507.79,-106361.87 517.6,-106361.87"/>
<polygon fill="black" stroke="black" stroke-width="0.5" points="518.33,-106363.62 523.33,-106361.87 518.33,-106360.12 518.33,-106363.62"/>
</g>
<!-- VHDLToken -->
<g id="node4" class="node">
<title>VHDLToken</title>
<g id="a_node4"><a xlink:href="../pyVHDLParser.Token.html#pyVHDLParser.Token.VHDLToken" xlink:title="Base&#45;class for all VHDL specific tokens." target="_top">
<polygon fill="white" stroke="#1e90ff" points="308,-106371.16 224.5,-106371.16 224.5,-106352.58 308,-106352.58 308,-106371.16"/>
<text text-anchor="middle" x="266.25" y="-106357.66" font-family="Vera Sans, DejaVu Sans, Liberation Sans, Arial, Helvetica, sans" font-size="10.00">VHDLToken</text>
</a>
</g>
</g>
<!-- VHDLToken&#45;&gt;SpecificVHDLToken -->
<g id="edge3" class="edge">
<title>VHDLToken&#45;&gt;SpecificVHDLToken</title>
<path fill="none" stroke="black" stroke-width="0.5" d="M308.34,-106361.87C317.53,-106361.87 327.57,-106361.87 337.69,-106361.87"/>
<polygon fill="black" stroke="black" stroke-width="0.5" points="338.66,-106363.62 343.66,-106361.87 338.66,-106360.12 338.66,-106363.62"/>
</g>
<!-- Token -->
<g id="node5" class="node">
<title>Token</title>
<g id="a_node5"><a xlink:href="../pyVHDLParser.Token.html#pyVHDLParser.Token.Token" xlink:title="Base&#45;class for all token classes." target="_top">
<polygon fill="white" stroke="#1e90ff" points="54,-106374.87 0,-106374.87 0,-106348.87 54,-106348.87 54,-106374.87"/>
<text text-anchor="middle" x="27" y="-106361.37" font-family="Vera Sans, DejaVu Sans, Liberation Sans, Arial, Helvetica, sans" font-size="10.00">Token</text>
</a>
</g>
</g>
<!-- ValuedToken -->
<g id="node6" class="node">
<title>ValuedToken</title>
<g id="a_node6"><a xlink:href="../pyVHDLParser.Token.html#pyVHDLParser.Token.ValuedToken" xlink:title="Base&#45;class for all *valued* token." target="_top">
<polygon fill="white" stroke="#1e90ff" points="188.5,-106371.12 90,-106371.12 90,-106352.62 188.5,-106352.62 188.5,-106371.12"/>
<text text-anchor="middle" x="139.25" y="-106357.62" font-family="Vera Sans, DejaVu Sans, Liberation Sans, Arial, Helvetica, sans" font-size="10.00">ValuedToken</text>
</a>
</g>
</g>
<!-- Token&#45;&gt;ValuedToken -->
<g id="edge5" class="edge">
<title>Token&#45;&gt;ValuedToken</title>
<path fill="none" stroke="black" stroke-width="0.5" d="M54.41,-106361.87C63.25,-106361.87 73.45,-106361.87 83.64,-106361.87"/>
<polygon fill="black" stroke="black" stroke-width="0.5" points="84.62,-106363.62 89.62,-106361.87 84.62,-106360.12 84.62,-106363.62"/>
</g>
<!-- ValuedToken&#45;&gt;VHDLToken -->
<g id="edge4" class="edge">
<title>ValuedToken&#45;&gt;VHDLToken</title>
<path fill="none" stroke="black" stroke-width="0.5" d="M188.94,-106361.87C198.59,-106361.87 208.7,-106361.87 218.29,-106361.87"/>
<polygon fill="black" stroke="black" stroke-width="0.5" points="219.19,-106363.62 224.19,-106361.87 219.19,-106360.12 219.19,-106363.62"/>
</g>
</g>
</svg>
