<?xml version="1.0" encoding="UTF-8" standalone="no"?>
<!DOCTYPE svg PUBLIC "-//W3C//DTD SVG 1.1//EN"
 "http://www.w3.org/Graphics/SVG/1.1/DTD/svg11.dtd">
<!-- Generated by graphviz version 8.0.5 (20230430.1635)
 -->
<!-- Title: inheritanceca535f21be Pages: 1 -->
<svg width="1pt" height="864pt"
 viewBox="0.00 0.00 0.70 864.00" xmlns="http://www.w3.org/2000/svg" xmlns:xlink="http://www.w3.org/1999/xlink">
<g id="graph0" class="graph" transform="scale(0.00105685 0.00105685) rotate(0) translate(4 817517.06)">
<title>inheritanceca535f21be</title>
<!-- DesignUnit -->
<g id="node1" class="node">
<title>DesignUnit</title>
<g id="a_node1"><a xlink:title="A ``DesignUnit`` is a base&#45;class for all design units.">
<polygon fill="white" stroke="#1e90ff" points="300.5,-55.5 209.5,-55.5 209.5,-37 300.5,-37 300.5,-55.5"/>
<text text-anchor="middle" x="255" y="-42" font-family="Vera Sans, DejaVu Sans, Liberation Sans, Arial, Helvetica, sans" font-size="10.00">DesignUnit</text>
</a>
</g>
</g>
<!-- PrimaryUnit -->
<g id="node7" class="node">
<title>PrimaryUnit</title>
<g id="a_node7"><a xlink:title="A ``PrimaryUnit`` is a base&#45;class for all primary units.">
<polygon fill="white" stroke="#1e90ff" points="491.25,-55.5 392.75,-55.5 392.75,-37 491.25,-37 491.25,-55.5"/>
<text text-anchor="middle" x="442" y="-42" font-family="Vera Sans, DejaVu Sans, Liberation Sans, Arial, Helvetica, sans" font-size="10.00">PrimaryUnit</text>
</a>
</g>
</g>
<!-- DesignUnit&#45;&gt;PrimaryUnit -->
<g id="edge7" class="edge">
<title>DesignUnit&#45;&gt;PrimaryUnit</title>
<path fill="none" stroke="black" stroke-width="0.5" d="M300.78,-46.25C326.64,-46.25 359.35,-46.25 386.67,-46.25"/>
<polygon fill="black" stroke="black" stroke-width="0.5" points="387.41,-48 392.41,-46.25 387.41,-44.5 387.41,-48"/>
</g>
<!-- ModelEntity -->
<g id="node2" class="node">
<title>ModelEntity</title>
<g id="a_node2"><a xlink:title="``ModelEntity`` is the base&#45;class for all classes in the VHDL language model, except for mixin classes (see multiple">
<polygon fill="white" stroke="#1e90ff" points="136,-817513.06 37.5,-817513.06 37.5,686350.56 136,686350.56 136,-817513.06"/>
<text text-anchor="middle" x="86.75" y="-817499.56" font-family="Vera Sans, DejaVu Sans, Liberation Sans, Arial, Helvetica, sans" font-size="10.00">ModelEntity</text>
</a>
</g>
</g>
<!-- ModelEntity&#45;&gt;DesignUnit -->
<g id="edge1" class="edge">
<title>ModelEntity&#45;&gt;DesignUnit</title>
<path fill="none" stroke="black" stroke-width="0.5" d="M136.5,-46364.5C184.87,-27295.27 252.1,-793.96 253.96,-61.76"/>
<polygon fill="black" stroke="black" stroke-width="0.5" points="255.71,-60.98 253.98,-55.97 252.21,-60.97 255.71,-60.98"/>
</g>
<!-- NamedEntityMixin -->
<g id="node3" class="node">
<title>NamedEntityMixin</title>
<g id="a_node3"><a xlink:title="A ``NamedEntityMixin`` is a mixin class for all VHDL entities that have identifiers.">
<polygon fill="white" stroke="#1e90ff" points="154.75,-55.5 18.75,-55.5 18.75,-37 154.75,-37 154.75,-55.5"/>
<text text-anchor="middle" x="86.75" y="-42" font-family="Vera Sans, DejaVu Sans, Liberation Sans, Arial, Helvetica, sans" font-size="10.00">NamedEntityMixin</text>
</a>
</g>
</g>
<!-- NamedEntityMixin&#45;&gt;DesignUnit -->
<g id="edge2" class="edge">
<title>NamedEntityMixin&#45;&gt;DesignUnit</title>
<path fill="none" stroke="black" stroke-width="0.5" d="M154.89,-46.25C170.96,-46.25 187.86,-46.25 203.06,-46.25"/>
<polygon fill="black" stroke="black" stroke-width="0.5" points="204.02,-48 209.02,-46.25 204.02,-44.5 204.02,-48"/>
</g>
<!-- DocumentedEntityMixin -->
<g id="node4" class="node">
<title>DocumentedEntityMixin</title>
<g id="a_node4"><a xlink:title="A ``DocumentedEntityMixin`` is a mixin class for all VHDL entities that can have an associated documentation.">
<polygon fill="white" stroke="#1e90ff" points="173.5,-18.5 0,-18.5 0,0 173.5,0 173.5,-18.5"/>
<text text-anchor="middle" x="86.75" y="-5" font-family="Vera Sans, DejaVu Sans, Liberation Sans, Arial, Helvetica, sans" font-size="10.00">DocumentedEntityMixin</text>
</a>
</g>
</g>
<!-- DocumentedEntityMixin&#45;&gt;DesignUnit -->
<g id="edge3" class="edge">
<title>DocumentedEntityMixin&#45;&gt;DesignUnit</title>
<path fill="none" stroke="black" stroke-width="0.5" d="M131.82,-19C145.21,-21.96 159.96,-25.24 173.5,-28.25 183.64,-30.51 194.5,-32.93 204.86,-35.25"/>
<polygon fill="black" stroke="black" stroke-width="0.5" points="205.29,-37.14 210.55,-36.52 206.06,-33.72 205.29,-37.14"/>
</g>
<!-- DesignUnitWithContextMixin -->
<g id="node5" class="node">
<title>DesignUnitWithContextMixin</title>
<polygon fill="white" stroke="#1e90ff" points="547.5,-92.5 336.5,-92.5 336.5,-74 547.5,-74 547.5,-92.5"/>
<text text-anchor="middle" x="442" y="-79" font-family="Vera Sans, DejaVu Sans, Liberation Sans, Arial, Helvetica, sans" font-size="10.00">DesignUnitWithContextMixin</text>
</g>
<!-- Package -->
<g id="node6" class="node">
<title>Package</title>
<g id="a_node6"><a xlink:href="../pyVHDLParser/pyVHDLParser.LanguageModel.DesignUnit.html#pyVHDLParser.LanguageModel.DesignUnit.Package" xlink:title="Package" target="_top">
<polygon fill="white" stroke="#1e90ff" points="652,-77.25 583.5,-77.25 583.5,-51.25 652,-51.25 652,-77.25"/>
<text text-anchor="middle" x="617.75" y="-63.75" font-family="Vera Sans, DejaVu Sans, Liberation Sans, Arial, Helvetica, sans" font-size="10.00">Package</text>
</a>
</g>
</g>
<!-- DesignUnitWithContextMixin&#45;&gt;Package -->
<g id="edge5" class="edge">
<title>DesignUnitWithContextMixin&#45;&gt;Package</title>
<path fill="none" stroke="black" stroke-width="0.5" d="M531.91,-73.53C547.98,-71.77 563.96,-70.02 577.65,-68.53"/>
<polygon fill="black" stroke="black" stroke-width="0.5" points="578.58,-70.18 583.36,-67.9 578.2,-66.7 578.58,-70.18"/>
</g>
<!-- Package&#45;&gt;Package -->
<g id="edge6" class="edge">
<title>Package&#45;&gt;Package</title>
<path fill="none" stroke="black" stroke-width="0.5" d="M587.7,-77.63C579.24,-86.56 589.26,-95.25 617.75,-95.25 640.9,-95.25 651.85,-89.51 650.61,-82.57"/>
<polygon fill="black" stroke="black" stroke-width="0.5" points="651.79,-81.11 647.8,-77.63 648.75,-82.84 651.79,-81.11"/>
</g>
<!-- PrimaryUnit&#45;&gt;Package -->
<g id="edge4" class="edge">
<title>PrimaryUnit&#45;&gt;Package</title>
<path fill="none" stroke="black" stroke-width="0.5" d="M491.4,-51.26C518.56,-54.08 552.02,-57.54 577.53,-60.19"/>
<polygon fill="black" stroke="black" stroke-width="0.5" points="578.03,-62 583.18,-60.77 578.39,-58.52 578.03,-62"/>
</g>
</g>
</svg>
