<?xml version="1.0" encoding="UTF-8" standalone="no"?>
<!DOCTYPE svg PUBLIC "-//W3C//DTD SVG 1.1//EN"
 "http://www.w3.org/Graphics/SVG/1.1/DTD/svg11.dtd">
<!-- Generated by graphviz version 8.0.5 (20230430.1635)
 -->
<!-- Title: inheritancee6beadf586 Pages: 1 -->
<svg width="1pt" height="864pt"
 viewBox="0.00 0.00 0.81 864.00" xmlns="http://www.w3.org/2000/svg" xmlns:xlink="http://www.w3.org/1999/xlink">
<g id="graph0" class="graph" transform="scale(0.0007213 0.0007213) rotate(0) translate(4 1197832.75)">
<title>inheritancee6beadf586</title>
<!-- CommentKeyword -->
<g id="node1" class="node">
<title>CommentKeyword</title>
<g id="a_node1"><a xlink:href="../pyVHDLParser/pyVHDLParser.Token.Keywords.html#pyVHDLParser.Token.Keywords.CommentKeyword" xlink:title="Base&#45;class for all comment keywords: ``&#45;&#45;``, ``/*`` and ``*/``." target="_top">
<polygon fill="white" stroke="#1e90ff" points="637,-1197828.75 516,-1197828.75 516,0 637,0 637,-1197828.75"/>
<text text-anchor="middle" x="576.5" y="-1197815.25" font-family="Vera Sans, DejaVu Sans, Liberation Sans, Arial, Helvetica, sans" font-size="10.00">CommentKeyword</text>
</a>
</g>
</g>
<!-- MultiLineCommentKeyword -->
<g id="node5" class="node">
<title>MultiLineCommentKeyword</title>
<g id="a_node5"><a xlink:href="../pyVHDLParser/pyVHDLParser.Token.Keywords.html#pyVHDLParser.Token.Keywords.MultiLineCommentKeyword" xlink:title="Base&#45;class for all tokens related to multi&#45;line comments: ``/*`` and ``*/``." target="_top">
<polygon fill="white" stroke="#1e90ff" points="861.5,-598923.62 673,-598923.62 673,-598905.12 861.5,-598905.12 861.5,-598923.62"/>
<text text-anchor="middle" x="767.25" y="-598910.12" font-family="Vera Sans, DejaVu Sans, Liberation Sans, Arial, Helvetica, sans" font-size="10.00">MultiLineCommentKeyword</text>
</a>
</g>
</g>
<!-- CommentKeyword&#45;&gt;MultiLineCommentKeyword -->
<g id="edge4" class="edge">
<title>CommentKeyword&#45;&gt;MultiLineCommentKeyword</title>
<path fill="none" stroke="black" stroke-width="0.5" d="M637.48,-598914.37C646.87,-598914.37 656.78,-598914.37 666.76,-598914.37"/>
<polygon fill="black" stroke="black" stroke-width="0.5" points="667.65,-598916.12 672.65,-598914.37 667.65,-598912.62 667.65,-598916.12"/>
</g>
<!-- MultiCharKeyword -->
<g id="node2" class="node">
<title>MultiCharKeyword</title>
<g id="a_node2"><a xlink:href="../pyVHDLParser/pyVHDLParser.Token.Keywords.html#pyVHDLParser.Token.Keywords.MultiCharKeyword" xlink:title="MultiCharKeyword" target="_top">
<polygon fill="white" stroke="#1e90ff" points="480,-886196.05 344,-886196.05 344,-311632.69 480,-311632.69 480,-886196.05"/>
<text text-anchor="middle" x="412" y="-886182.55" font-family="Vera Sans, DejaVu Sans, Liberation Sans, Arial, Helvetica, sans" font-size="10.00">MultiCharKeyword</text>
</a>
</g>
</g>
<!-- MultiCharKeyword&#45;&gt;CommentKeyword -->
<g id="edge1" class="edge">
<title>MultiCharKeyword&#45;&gt;CommentKeyword</title>
<path fill="none" stroke="black" stroke-width="0.5" d="M480.03,-598914.37C489.9,-598914.37 500.05,-598914.37 509.89,-598914.37"/>
<polygon fill="black" stroke="black" stroke-width="0.5" points="510.64,-598916.12 515.64,-598914.37 510.64,-598912.62 510.64,-598916.12"/>
</g>
<!-- VHDLToken -->
<g id="node3" class="node">
<title>VHDLToken</title>
<g id="a_node3"><a xlink:href="../pyVHDLParser.Token.html#pyVHDLParser.Token.VHDLToken" xlink:title="Base&#45;class for all VHDL specific tokens." target="_top">
<polygon fill="white" stroke="#1e90ff" points="308,-886196.09 224.5,-886196.09 224.5,-311632.66 308,-311632.66 308,-886196.09"/>
<text text-anchor="middle" x="266.25" y="-886182.59" font-family="Vera Sans, DejaVu Sans, Liberation Sans, Arial, Helvetica, sans" font-size="10.00">VHDLToken</text>
</a>
</g>
</g>
<!-- VHDLToken&#45;&gt;MultiCharKeyword -->
<g id="edge2" class="edge">
<title>VHDLToken&#45;&gt;MultiCharKeyword</title>
<path fill="none" stroke="black" stroke-width="0.5" d="M308.44,-598914.37C317.67,-598914.37 327.72,-598914.37 337.81,-598914.37"/>
<polygon fill="black" stroke="black" stroke-width="0.5" points="338.75,-598916.12 343.75,-598914.37 338.75,-598912.62 338.75,-598916.12"/>
</g>
<!-- MultiLineCommentEndKeyword -->
<g id="node4" class="node">
<title>MultiLineCommentEndKeyword</title>
<g id="a_node4"><a xlink:href="../pyVHDLParser/pyVHDLParser.Token.Keywords.html#pyVHDLParser.Token.Keywords.MultiLineCommentEndKeyword" xlink:title="Token representing a closing sequence for a multi&#45;line comment: ``*/``." target="_top">
<polygon fill="white" stroke="#1e90ff" points="1108.5,-886203.34 897.5,-886203.34 897.5,-311625.41 1108.5,-311625.41 1108.5,-886203.34"/>
<text text-anchor="middle" x="1003" y="-886189.84" font-family="Vera Sans, DejaVu Sans, Liberation Sans, Arial, Helvetica, sans" font-size="10.00">MultiLineCommentEndKeyword</text>
</a>
</g>
</g>
<!-- MultiLineCommentKeyword&#45;&gt;MultiLineCommentEndKeyword -->
<g id="edge3" class="edge">
<title>MultiLineCommentKeyword&#45;&gt;MultiLineCommentEndKeyword</title>
<path fill="none" stroke="black" stroke-width="0.5" d="M861.98,-598914.37C871.64,-598914.37 881.52,-598914.37 891.35,-598914.37"/>
<polygon fill="black" stroke="black" stroke-width="0.5" points="892.12,-598916.12 897.12,-598914.37 892.12,-598912.62 892.12,-598916.12"/>
</g>
<!-- Token -->
<g id="node6" class="node">
<title>Token</title>
<g id="a_node6"><a xlink:href="../pyVHDLParser.Token.html#pyVHDLParser.Token.Token" xlink:title="Base&#45;class for all token classes." target="_top">
<polygon fill="white" stroke="#1e90ff" points="54,-598923.62 0,-598923.62 0,-598905.12 54,-598905.12 54,-598923.62"/>
<text text-anchor="middle" x="27" y="-598910.12" font-family="Vera Sans, DejaVu Sans, Liberation Sans, Arial, Helvetica, sans" font-size="10.00">Token</text>
</a>
</g>
</g>
<!-- ValuedToken -->
<g id="node7" class="node">
<title>ValuedToken</title>
<g id="a_node7"><a xlink:href="../pyVHDLParser.Token.html#pyVHDLParser.Token.ValuedToken" xlink:title="Base&#45;class for all *valued* token." target="_top">
<polygon fill="white" stroke="#1e90ff" points="188.5,-598935.59 90,-598935.59 90,-598893.16 188.5,-598893.16 188.5,-598935.59"/>
<text text-anchor="middle" x="139.25" y="-598922.09" font-family="Vera Sans, DejaVu Sans, Liberation Sans, Arial, Helvetica, sans" font-size="10.00">ValuedToken</text>
</a>
</g>
</g>
<!-- Token&#45;&gt;ValuedToken -->
<g id="edge6" class="edge">
<title>Token&#45;&gt;ValuedToken</title>
<path fill="none" stroke="black" stroke-width="0.5" d="M54.41,-598914.37C63.25,-598914.37 73.45,-598914.37 83.64,-598914.37"/>
<polygon fill="black" stroke="black" stroke-width="0.5" points="84.62,-598916.12 89.62,-598914.37 84.62,-598912.62 84.62,-598916.12"/>
</g>
<!-- ValuedToken&#45;&gt;VHDLToken -->
<g id="edge5" class="edge">
<title>ValuedToken&#45;&gt;VHDLToken</title>
<path fill="none" stroke="black" stroke-width="0.5" d="M188.94,-598914.37C198.59,-598914.37 208.7,-598914.37 218.29,-598914.37"/>
<polygon fill="black" stroke="black" stroke-width="0.5" points="219.19,-598916.12 224.19,-598914.37 219.19,-598912.62 219.19,-598916.12"/>
</g>
</g>
</svg>
