<?xml version="1.0" encoding="UTF-8" standalone="no"?>
<!DOCTYPE svg PUBLIC "-//W3C//DTD SVG 1.1//EN"
 "http://www.w3.org/Graphics/SVG/1.1/DTD/svg11.dtd">
<!-- Generated by graphviz version 8.0.5 (20230430.1635)
 -->
<!-- Title: inheritance2f1158b7a4 Pages: 1 -->
<svg width="3pt" height="864pt"
 viewBox="0.00 0.00 2.66 864.00" xmlns="http://www.w3.org/2000/svg" xmlns:xlink="http://www.w3.org/1999/xlink">
<g id="graph0" class="graph" transform="scale(0.00303176 0.00303176) rotate(0) translate(4 284979.06)">
<title>inheritance2f1158b7a4</title>
<!-- KeywordToken -->
<g id="node1" class="node">
<title>KeywordToken</title>
<g id="a_node1"><a xlink:href="../pyVHDLParser/pyVHDLParser.Token.Keywords.html#pyVHDLParser.Token.Keywords.KeywordToken" xlink:title="KeywordToken" target="_top">
<polygon fill="white" stroke="#1e90ff" points="450,-142496.78 344,-142496.78 344,-142478.28 450,-142478.28 450,-142496.78"/>
<text text-anchor="middle" x="397" y="-142483.28" font-family="Vera Sans, DejaVu Sans, Liberation Sans, Arial, Helvetica, sans" font-size="10.00">KeywordToken</text>
</a>
</g>
</g>
<!-- Operator -->
<g id="node4" class="node">
<title>Operator</title>
<g id="a_node4"><a xlink:href="../pyVHDLParser/pyVHDLParser.Token.Keywords.html#pyVHDLParser.Token.Keywords.Operator" xlink:title="Operator" target="_top">
<polygon fill="white" stroke="#1e90ff" points="562,-142496.78 486,-142496.78 486,-142478.28 562,-142478.28 562,-142496.78"/>
<text text-anchor="middle" x="524" y="-142483.28" font-family="Vera Sans, DejaVu Sans, Liberation Sans, Arial, Helvetica, sans" font-size="10.00">Operator</text>
</a>
</g>
</g>
<!-- KeywordToken&#45;&gt;Operator -->
<g id="edge3" class="edge">
<title>KeywordToken&#45;&gt;Operator</title>
<path fill="none" stroke="black" stroke-width="0.5" d="M450.29,-142487.53C460.15,-142487.53 470.36,-142487.53 479.9,-142487.53"/>
<polygon fill="black" stroke="black" stroke-width="0.5" points="480.74,-142489.28 485.74,-142487.53 480.74,-142485.78 480.74,-142489.28"/>
</g>
<!-- VHDLToken -->
<g id="node2" class="node">
<title>VHDLToken</title>
<g id="a_node2"><a xlink:href="../pyVHDLParser.Token.html#pyVHDLParser.Token.VHDLToken" xlink:title="Base&#45;class for all VHDL specific tokens." target="_top">
<polygon fill="white" stroke="#1e90ff" points="308,-284975.06 224.5,-284975.06 224.5,0 308,0 308,-284975.06"/>
<text text-anchor="middle" x="266.25" y="-284961.56" font-family="Vera Sans, DejaVu Sans, Liberation Sans, Arial, Helvetica, sans" font-size="10.00">VHDLToken</text>
</a>
</g>
</g>
<!-- VHDLToken&#45;&gt;KeywordToken -->
<g id="edge1" class="edge">
<title>VHDLToken&#45;&gt;KeywordToken</title>
<path fill="none" stroke="black" stroke-width="0.5" d="M308.34,-142487.53C317.69,-142487.53 327.8,-142487.53 337.71,-142487.53"/>
<polygon fill="black" stroke="black" stroke-width="0.5" points="338.52,-142489.28 343.52,-142487.53 338.52,-142485.78 338.52,-142489.28"/>
</g>
<!-- LogicalOperator -->
<g id="node3" class="node">
<title>LogicalOperator</title>
<g id="a_node3"><a xlink:href="../pyVHDLParser/pyVHDLParser.Token.Keywords.html#pyVHDLParser.Token.Keywords.LogicalOperator" xlink:title="LogicalOperator" target="_top">
<polygon fill="white" stroke="#1e90ff" points="726.5,-284970.11 598,-284970.11 598,-4.95 726.5,-4.95 726.5,-284970.11"/>
<text text-anchor="middle" x="662.25" y="-284956.61" font-family="Vera Sans, DejaVu Sans, Liberation Sans, Arial, Helvetica, sans" font-size="10.00">LogicalOperator</text>
</a>
</g>
</g>
<!-- XnorOperator -->
<g id="node7" class="node">
<title>XnorOperator</title>
<g id="a_node7"><a xlink:href="../pyVHDLParser/pyVHDLParser.Token.Keywords.html#pyVHDLParser.Token.Keywords.XnorOperator" xlink:title="XnorOperator" target="_top">
<polygon fill="white" stroke="#1e90ff" points="868.5,-142496.78 762.5,-142496.78 762.5,-142478.28 868.5,-142478.28 868.5,-142496.78"/>
<text text-anchor="middle" x="815.5" y="-142483.28" font-family="Vera Sans, DejaVu Sans, Liberation Sans, Arial, Helvetica, sans" font-size="10.00">XnorOperator</text>
</a>
</g>
</g>
<!-- LogicalOperator&#45;&gt;XnorOperator -->
<g id="edge6" class="edge">
<title>LogicalOperator&#45;&gt;XnorOperator</title>
<path fill="none" stroke="black" stroke-width="0.5" d="M726.96,-142487.53C736.72,-142487.53 746.75,-142487.53 756.38,-142487.53"/>
<polygon fill="black" stroke="black" stroke-width="0.5" points="757.32,-142489.28 762.32,-142487.53 757.32,-142485.78 757.32,-142489.28"/>
</g>
<!-- Operator&#45;&gt;LogicalOperator -->
<g id="edge2" class="edge">
<title>Operator&#45;&gt;LogicalOperator</title>
<path fill="none" stroke="black" stroke-width="0.5" d="M562.23,-142487.53C571.39,-142487.53 581.49,-142487.53 591.63,-142487.53"/>
<polygon fill="black" stroke="black" stroke-width="0.5" points="592.6,-142489.28 597.6,-142487.53 592.6,-142485.78 592.6,-142489.28"/>
</g>
<!-- Token -->
<g id="node5" class="node">
<title>Token</title>
<g id="a_node5"><a xlink:href="../pyVHDLParser.Token.html#pyVHDLParser.Token.Token" xlink:title="Base&#45;class for all token classes." target="_top">
<polygon fill="white" stroke="#1e90ff" points="54,-142500.53 0,-142500.53 0,-142474.53 54,-142474.53 54,-142500.53"/>
<text text-anchor="middle" x="27" y="-142487.03" font-family="Vera Sans, DejaVu Sans, Liberation Sans, Arial, Helvetica, sans" font-size="10.00">Token</text>
</a>
</g>
</g>
<!-- ValuedToken -->
<g id="node6" class="node">
<title>ValuedToken</title>
<g id="a_node6"><a xlink:href="../pyVHDLParser.Token.html#pyVHDLParser.Token.ValuedToken" xlink:title="Base&#45;class for all *valued* token." target="_top">
<polygon fill="white" stroke="#1e90ff" points="188.5,-142496.78 90,-142496.78 90,-142478.28 188.5,-142478.28 188.5,-142496.78"/>
<text text-anchor="middle" x="139.25" y="-142483.28" font-family="Vera Sans, DejaVu Sans, Liberation Sans, Arial, Helvetica, sans" font-size="10.00">ValuedToken</text>
</a>
</g>
</g>
<!-- Token&#45;&gt;ValuedToken -->
<g id="edge5" class="edge">
<title>Token&#45;&gt;ValuedToken</title>
<path fill="none" stroke="black" stroke-width="0.5" d="M54.41,-142487.53C63.25,-142487.53 73.45,-142487.53 83.64,-142487.53"/>
<polygon fill="black" stroke="black" stroke-width="0.5" points="84.62,-142489.28 89.62,-142487.53 84.62,-142485.78 84.62,-142489.28"/>
</g>
<!-- ValuedToken&#45;&gt;VHDLToken -->
<g id="edge4" class="edge">
<title>ValuedToken&#45;&gt;VHDLToken</title>
<path fill="none" stroke="black" stroke-width="0.5" d="M188.94,-142487.53C198.59,-142487.53 208.7,-142487.53 218.29,-142487.53"/>
<polygon fill="black" stroke="black" stroke-width="0.5" points="219.19,-142489.28 224.19,-142487.53 219.19,-142485.78 219.19,-142489.28"/>
</g>
</g>
</svg>
