<?xml version="1.0" encoding="UTF-8" standalone="no"?>
<!DOCTYPE svg PUBLIC "-//W3C//DTD SVG 1.1//EN"
 "http://www.w3.org/Graphics/SVG/1.1/DTD/svg11.dtd">
<!-- Generated by graphviz version 8.0.5 (20230430.1635)
 -->
<!-- Title: inheritance1cf742d6ba Pages: 1 -->
<svg width="1pt" height="864pt"
 viewBox="0.00 0.00 0.88 864.00" xmlns="http://www.w3.org/2000/svg" xmlns:xlink="http://www.w3.org/1999/xlink">
<g id="graph0" class="graph" transform="scale(0.000994641 0.000994641) rotate(0) translate(4 868650.9)">
<title>inheritance1cf742d6ba</title>
<!-- AssociationKeyword -->
<g id="node1" class="node">
<title>AssociationKeyword</title>
<g id="a_node1"><a xlink:href="../pyVHDLParser/pyVHDLParser.Token.Keywords.html#pyVHDLParser.Token.Keywords.AssociationKeyword" xlink:title="AssociationKeyword" target="_top">
<polygon fill="white" stroke="#1e90ff" points="667,-434332.7 516,-434332.7 516,-434314.2 667,-434314.2 667,-434332.7"/>
<text text-anchor="middle" x="591.5" y="-434319.2" font-family="Vera Sans, DejaVu Sans, Liberation Sans, Arial, Helvetica, sans" font-size="10.00">AssociationKeyword</text>
</a>
</g>
</g>
<!-- MapAssociationKeyword -->
<g id="node3" class="node">
<title>MapAssociationKeyword</title>
<g id="a_node3"><a xlink:href="../pyVHDLParser/pyVHDLParser.Token.Keywords.html#pyVHDLParser.Token.Keywords.MapAssociationKeyword" xlink:title="MapAssociationKeyword" target="_top">
<polygon fill="white" stroke="#1e90ff" points="876.5,-868646.9 703,-868646.9 703,0 876.5,0 876.5,-868646.9"/>
<text text-anchor="middle" x="789.75" y="-868633.4" font-family="Vera Sans, DejaVu Sans, Liberation Sans, Arial, Helvetica, sans" font-size="10.00">MapAssociationKeyword</text>
</a>
</g>
</g>
<!-- AssociationKeyword&#45;&gt;MapAssociationKeyword -->
<g id="edge2" class="edge">
<title>AssociationKeyword&#45;&gt;MapAssociationKeyword</title>
<path fill="none" stroke="black" stroke-width="0.5" d="M667.25,-434323.45C676.94,-434323.45 686.95,-434323.45 696.88,-434323.45"/>
<polygon fill="black" stroke="black" stroke-width="0.5" points="697.71,-434325.2 702.71,-434323.45 697.71,-434321.7 697.71,-434325.2"/>
</g>
<!-- MultiCharKeyword -->
<g id="node2" class="node">
<title>MultiCharKeyword</title>
<g id="a_node2"><a xlink:href="../pyVHDLParser/pyVHDLParser.Token.Keywords.html#pyVHDLParser.Token.Keywords.MultiCharKeyword" xlink:title="MultiCharKeyword" target="_top">
<polygon fill="white" stroke="#1e90ff" points="480,-434332.7 344,-434332.7 344,-434314.2 480,-434314.2 480,-434332.7"/>
<text text-anchor="middle" x="412" y="-434319.2" font-family="Vera Sans, DejaVu Sans, Liberation Sans, Arial, Helvetica, sans" font-size="10.00">MultiCharKeyword</text>
</a>
</g>
</g>
<!-- MultiCharKeyword&#45;&gt;AssociationKeyword -->
<g id="edge1" class="edge">
<title>MultiCharKeyword&#45;&gt;AssociationKeyword</title>
<path fill="none" stroke="black" stroke-width="0.5" d="M480.36,-434323.45C490.03,-434323.45 500.07,-434323.45 509.96,-434323.45"/>
<polygon fill="black" stroke="black" stroke-width="0.5" points="510.77,-434325.2 515.77,-434323.45 510.77,-434321.7 510.77,-434325.2"/>
</g>
<!-- VHDLToken -->
<g id="node4" class="node">
<title>VHDLToken</title>
<g id="a_node4"><a xlink:href="../pyVHDLParser.Token.html#pyVHDLParser.Token.VHDLToken" xlink:title="Base&#45;class for all VHDL specific tokens." target="_top">
<polygon fill="white" stroke="#1e90ff" points="308,-434332.74 224.5,-434332.74 224.5,-434314.16 308,-434314.16 308,-434332.74"/>
<text text-anchor="middle" x="266.25" y="-434319.24" font-family="Vera Sans, DejaVu Sans, Liberation Sans, Arial, Helvetica, sans" font-size="10.00">VHDLToken</text>
</a>
</g>
</g>
<!-- VHDLToken&#45;&gt;MultiCharKeyword -->
<g id="edge3" class="edge">
<title>VHDLToken&#45;&gt;MultiCharKeyword</title>
<path fill="none" stroke="black" stroke-width="0.5" d="M308.44,-434323.45C317.67,-434323.45 327.72,-434323.45 337.81,-434323.45"/>
<polygon fill="black" stroke="black" stroke-width="0.5" points="338.75,-434325.2 343.75,-434323.45 338.75,-434321.7 338.75,-434325.2"/>
</g>
<!-- Token -->
<g id="node5" class="node">
<title>Token</title>
<g id="a_node5"><a xlink:href="../pyVHDLParser.Token.html#pyVHDLParser.Token.Token" xlink:title="Base&#45;class for all token classes." target="_top">
<polygon fill="white" stroke="#1e90ff" points="54,-434336.45 0,-434336.45 0,-434310.45 54,-434310.45 54,-434336.45"/>
<text text-anchor="middle" x="27" y="-434322.95" font-family="Vera Sans, DejaVu Sans, Liberation Sans, Arial, Helvetica, sans" font-size="10.00">Token</text>
</a>
</g>
</g>
<!-- ValuedToken -->
<g id="node6" class="node">
<title>ValuedToken</title>
<g id="a_node6"><a xlink:href="../pyVHDLParser.Token.html#pyVHDLParser.Token.ValuedToken" xlink:title="Base&#45;class for all *valued* token." target="_top">
<polygon fill="white" stroke="#1e90ff" points="188.5,-434332.7 90,-434332.7 90,-434314.2 188.5,-434314.2 188.5,-434332.7"/>
<text text-anchor="middle" x="139.25" y="-434319.2" font-family="Vera Sans, DejaVu Sans, Liberation Sans, Arial, Helvetica, sans" font-size="10.00">ValuedToken</text>
</a>
</g>
</g>
<!-- Token&#45;&gt;ValuedToken -->
<g id="edge5" class="edge">
<title>Token&#45;&gt;ValuedToken</title>
<path fill="none" stroke="black" stroke-width="0.5" d="M54.41,-434323.45C63.25,-434323.45 73.45,-434323.45 83.64,-434323.45"/>
<polygon fill="black" stroke="black" stroke-width="0.5" points="84.62,-434325.2 89.62,-434323.45 84.62,-434321.7 84.62,-434325.2"/>
</g>
<!-- ValuedToken&#45;&gt;VHDLToken -->
<g id="edge4" class="edge">
<title>ValuedToken&#45;&gt;VHDLToken</title>
<path fill="none" stroke="black" stroke-width="0.5" d="M188.94,-434323.45C198.59,-434323.45 208.7,-434323.45 218.29,-434323.45"/>
<polygon fill="black" stroke="black" stroke-width="0.5" points="219.19,-434325.2 224.19,-434323.45 219.19,-434321.7 219.19,-434325.2"/>
</g>
</g>
</svg>
