<?xml version="1.0" encoding="UTF-8" standalone="no"?>
<!DOCTYPE svg PUBLIC "-//W3C//DTD SVG 1.1//EN"
 "http://www.w3.org/Graphics/SVG/1.1/DTD/svg11.dtd">
<!-- Generated by graphviz version 8.0.5 (20230430.1635)
 -->
<!-- Title: inheritance93393aa97e Pages: 1 -->
<svg width="13pt" height="864pt"
 viewBox="0.00 0.00 13.20 864.00" xmlns="http://www.w3.org/2000/svg" xmlns:xlink="http://www.w3.org/1999/xlink">
<g id="graph0" class="graph" transform="scale(0.014922 0.014922) rotate(0) translate(4 57897.16)">
<title>inheritance93393aa97e</title>
<!-- IdentifierToken -->
<g id="node1" class="node">
<title>IdentifierToken</title>
<g id="a_node1"><a xlink:href="../pyVHDLParser/pyVHDLParser.Token.Keywords.html#pyVHDLParser.Token.Keywords.IdentifierToken" xlink:title="Token representing an identifier." target="_top">
<polygon fill="white" stroke="#1e90ff" points="652,-28955.83 523.5,-28955.83 523.5,-28937.33 652,-28937.33 652,-28955.83"/>
<text text-anchor="middle" x="587.75" y="-28942.33" font-family="Vera Sans, DejaVu Sans, Liberation Sans, Arial, Helvetica, sans" font-size="10.00">IdentifierToken</text>
</a>
</g>
</g>
<!-- RepeatedIdentifierToken -->
<g id="node3" class="node">
<title>RepeatedIdentifierToken</title>
<g id="a_node3"><a xlink:href="../pyVHDLParser/pyVHDLParser.Token.Keywords.html#pyVHDLParser.Token.Keywords.RepeatedIdentifierToken" xlink:title="Token representing a repeated identifier." target="_top">
<polygon fill="white" stroke="#1e90ff" points="876.5,-57893.16 688,-57893.16 688,0 876.5,0 876.5,-57893.16"/>
<text text-anchor="middle" x="782.25" y="-57879.66" font-family="Vera Sans, DejaVu Sans, Liberation Sans, Arial, Helvetica, sans" font-size="10.00">RepeatedIdentifierToken</text>
</a>
</g>
</g>
<!-- IdentifierToken&#45;&gt;RepeatedIdentifierToken -->
<g id="edge2" class="edge">
<title>IdentifierToken&#45;&gt;RepeatedIdentifierToken</title>
<path fill="none" stroke="black" stroke-width="0.5" d="M652.32,-28946.58C661.84,-28946.58 671.84,-28946.58 681.89,-28946.58"/>
<polygon fill="black" stroke="black" stroke-width="0.5" points="682.81,-28948.33 687.81,-28946.58 682.81,-28944.83 682.81,-28948.33"/>
</g>
<!-- SpecificVHDLToken -->
<g id="node2" class="node">
<title>SpecificVHDLToken</title>
<g id="a_node2"><a xlink:href="../pyVHDLParser/pyVHDLParser.Token.Keywords.html#pyVHDLParser.Token.Keywords.SpecificVHDLToken" xlink:title="Base&#45;class for all specific tokens." target="_top">
<polygon fill="white" stroke="#1e90ff" points="487.5,-28955.83 344,-28955.83 344,-28937.33 487.5,-28937.33 487.5,-28955.83"/>
<text text-anchor="middle" x="415.75" y="-28942.33" font-family="Vera Sans, DejaVu Sans, Liberation Sans, Arial, Helvetica, sans" font-size="10.00">SpecificVHDLToken</text>
</a>
</g>
</g>
<!-- SpecificVHDLToken&#45;&gt;IdentifierToken -->
<g id="edge1" class="edge">
<title>SpecificVHDLToken&#45;&gt;IdentifierToken</title>
<path fill="none" stroke="black" stroke-width="0.5" d="M487.86,-28946.58C497.58,-28946.58 507.55,-28946.58 517.24,-28946.58"/>
<polygon fill="black" stroke="black" stroke-width="0.5" points="518.23,-28948.33 523.23,-28946.58 518.23,-28944.83 518.23,-28948.33"/>
</g>
<!-- VHDLToken -->
<g id="node4" class="node">
<title>VHDLToken</title>
<g id="a_node4"><a xlink:href="../pyVHDLParser.Token.html#pyVHDLParser.Token.VHDLToken" xlink:title="Base&#45;class for all VHDL specific tokens." target="_top">
<polygon fill="white" stroke="#1e90ff" points="308,-28955.87 224.5,-28955.87 224.5,-28937.29 308,-28937.29 308,-28955.87"/>
<text text-anchor="middle" x="266.25" y="-28942.37" font-family="Vera Sans, DejaVu Sans, Liberation Sans, Arial, Helvetica, sans" font-size="10.00">VHDLToken</text>
</a>
</g>
</g>
<!-- VHDLToken&#45;&gt;SpecificVHDLToken -->
<g id="edge3" class="edge">
<title>VHDLToken&#45;&gt;SpecificVHDLToken</title>
<path fill="none" stroke="black" stroke-width="0.5" d="M308.34,-28946.58C317.53,-28946.58 327.57,-28946.58 337.69,-28946.58"/>
<polygon fill="black" stroke="black" stroke-width="0.5" points="338.66,-28948.33 343.66,-28946.58 338.66,-28944.83 338.66,-28948.33"/>
</g>
<!-- Token -->
<g id="node5" class="node">
<title>Token</title>
<g id="a_node5"><a xlink:href="../pyVHDLParser.Token.html#pyVHDLParser.Token.Token" xlink:title="Base&#45;class for all token classes." target="_top">
<polygon fill="white" stroke="#1e90ff" points="54,-28959.58 0,-28959.58 0,-28933.58 54,-28933.58 54,-28959.58"/>
<text text-anchor="middle" x="27" y="-28946.08" font-family="Vera Sans, DejaVu Sans, Liberation Sans, Arial, Helvetica, sans" font-size="10.00">Token</text>
</a>
</g>
</g>
<!-- ValuedToken -->
<g id="node6" class="node">
<title>ValuedToken</title>
<g id="a_node6"><a xlink:href="../pyVHDLParser.Token.html#pyVHDLParser.Token.ValuedToken" xlink:title="Base&#45;class for all *valued* token." target="_top">
<polygon fill="white" stroke="#1e90ff" points="188.5,-28955.83 90,-28955.83 90,-28937.33 188.5,-28937.33 188.5,-28955.83"/>
<text text-anchor="middle" x="139.25" y="-28942.33" font-family="Vera Sans, DejaVu Sans, Liberation Sans, Arial, Helvetica, sans" font-size="10.00">ValuedToken</text>
</a>
</g>
</g>
<!-- Token&#45;&gt;ValuedToken -->
<g id="edge5" class="edge">
<title>Token&#45;&gt;ValuedToken</title>
<path fill="none" stroke="black" stroke-width="0.5" d="M54.41,-28946.58C63.25,-28946.58 73.45,-28946.58 83.64,-28946.58"/>
<polygon fill="black" stroke="black" stroke-width="0.5" points="84.62,-28948.33 89.62,-28946.58 84.62,-28944.83 84.62,-28948.33"/>
</g>
<!-- ValuedToken&#45;&gt;VHDLToken -->
<g id="edge4" class="edge">
<title>ValuedToken&#45;&gt;VHDLToken</title>
<path fill="none" stroke="black" stroke-width="0.5" d="M188.94,-28946.58C198.59,-28946.58 208.7,-28946.58 218.29,-28946.58"/>
<polygon fill="black" stroke="black" stroke-width="0.5" points="219.19,-28948.33 224.19,-28946.58 219.19,-28944.83 219.19,-28948.33"/>
</g>
</g>
</svg>
