<?xml version="1.0" encoding="UTF-8" standalone="no"?>
<!DOCTYPE svg PUBLIC "-//W3C//DTD SVG 1.1//EN"
 "http://www.w3.org/Graphics/SVG/1.1/DTD/svg11.dtd">
<!-- Generated by graphviz version 8.0.5 (20230430.1635)
 -->
<!-- Title: inheritanceffa27ca0db Pages: 1 -->
<svg width="1pt" height="864pt"
 viewBox="0.00 0.00 1.08 864.00" xmlns="http://www.w3.org/2000/svg" xmlns:xlink="http://www.w3.org/1999/xlink">
<g id="graph0" class="graph" transform="scale(0.00180466 0.00180466) rotate(0) translate(4 478756.41)">
<title>inheritanceffa27ca0db</title>
<!-- KeywordToken -->
<g id="node1" class="node">
<title>KeywordToken</title>
<g id="a_node1"><a xlink:href="../pyVHDLParser/pyVHDLParser.Token.Keywords.html#pyVHDLParser.Token.Keywords.KeywordToken" xlink:title="KeywordToken" target="_top">
<polygon fill="white" stroke="#1e90ff" points="450,-239385.45 344,-239385.45 344,-239366.95 450,-239366.95 450,-239385.45"/>
<text text-anchor="middle" x="397" y="-239371.95" font-family="Vera Sans, DejaVu Sans, Liberation Sans, Arial, Helvetica, sans" font-size="10.00">KeywordToken</text>
</a>
</g>
</g>
<!-- UnitsKeyword -->
<g id="node4" class="node">
<title>UnitsKeyword</title>
<g id="a_node4"><a xlink:href="../pyVHDLParser/pyVHDLParser.Token.Keywords.html#pyVHDLParser.Token.Keywords.UnitsKeyword" xlink:title="UnitsKeyword" target="_top">
<polygon fill="white" stroke="#1e90ff" points="592,-478752.37 486,-478752.37 486,-0.04 592,-0.04 592,-478752.37"/>
<text text-anchor="middle" x="539" y="-478738.87" font-family="Vera Sans, DejaVu Sans, Liberation Sans, Arial, Helvetica, sans" font-size="10.00">UnitsKeyword</text>
</a>
</g>
</g>
<!-- KeywordToken&#45;&gt;UnitsKeyword -->
<g id="edge2" class="edge">
<title>KeywordToken&#45;&gt;UnitsKeyword</title>
<path fill="none" stroke="black" stroke-width="0.5" d="M450.13,-239376.2C459.88,-239376.2 470.12,-239376.2 480.03,-239376.2"/>
<polygon fill="black" stroke="black" stroke-width="0.5" points="480.83,-239377.95 485.83,-239376.2 480.83,-239374.45 480.83,-239377.95"/>
</g>
<!-- VHDLToken -->
<g id="node2" class="node">
<title>VHDLToken</title>
<g id="a_node2"><a xlink:href="../pyVHDLParser.Token.html#pyVHDLParser.Token.VHDLToken" xlink:title="Base&#45;class for all VHDL specific tokens." target="_top">
<polygon fill="white" stroke="#1e90ff" points="308,-239385.45 224.5,-239385.45 224.5,-239366.95 308,-239366.95 308,-239385.45"/>
<text text-anchor="middle" x="266.25" y="-239371.95" font-family="Vera Sans, DejaVu Sans, Liberation Sans, Arial, Helvetica, sans" font-size="10.00">VHDLToken</text>
</a>
</g>
</g>
<!-- VHDLToken&#45;&gt;KeywordToken -->
<g id="edge1" class="edge">
<title>VHDLToken&#45;&gt;KeywordToken</title>
<path fill="none" stroke="black" stroke-width="0.5" d="M308.34,-239376.2C317.69,-239376.2 327.8,-239376.2 337.71,-239376.2"/>
<polygon fill="black" stroke="black" stroke-width="0.5" points="338.52,-239377.95 343.52,-239376.2 338.52,-239374.45 338.52,-239377.95"/>
</g>
<!-- Token -->
<g id="node3" class="node">
<title>Token</title>
<g id="a_node3"><a xlink:href="../pyVHDLParser.Token.html#pyVHDLParser.Token.Token" xlink:title="Base&#45;class for all token classes." target="_top">
<polygon fill="white" stroke="#1e90ff" points="54,-478752.41 0,-478752.41 0,0 54,0 54,-478752.41"/>
<text text-anchor="middle" x="27" y="-478738.91" font-family="Vera Sans, DejaVu Sans, Liberation Sans, Arial, Helvetica, sans" font-size="10.00">Token</text>
</a>
</g>
</g>
<!-- ValuedToken -->
<g id="node5" class="node">
<title>ValuedToken</title>
<g id="a_node5"><a xlink:href="../pyVHDLParser.Token.html#pyVHDLParser.Token.ValuedToken" xlink:title="Base&#45;class for all *valued* token." target="_top">
<polygon fill="white" stroke="#1e90ff" points="188.5,-239385.45 90,-239385.45 90,-239366.95 188.5,-239366.95 188.5,-239385.45"/>
<text text-anchor="middle" x="139.25" y="-239371.95" font-family="Vera Sans, DejaVu Sans, Liberation Sans, Arial, Helvetica, sans" font-size="10.00">ValuedToken</text>
</a>
</g>
</g>
<!-- Token&#45;&gt;ValuedToken -->
<g id="edge4" class="edge">
<title>Token&#45;&gt;ValuedToken</title>
<path fill="none" stroke="black" stroke-width="0.5" d="M54.41,-239376.2C63.25,-239376.2 73.45,-239376.2 83.64,-239376.2"/>
<polygon fill="black" stroke="black" stroke-width="0.5" points="84.62,-239377.95 89.62,-239376.2 84.62,-239374.45 84.62,-239377.95"/>
</g>
<!-- ValuedToken&#45;&gt;VHDLToken -->
<g id="edge3" class="edge">
<title>ValuedToken&#45;&gt;VHDLToken</title>
<path fill="none" stroke="black" stroke-width="0.5" d="M188.94,-239376.2C198.59,-239376.2 208.7,-239376.2 218.29,-239376.2"/>
<polygon fill="black" stroke="black" stroke-width="0.5" points="219.19,-239377.95 224.19,-239376.2 219.19,-239374.45 219.19,-239377.95"/>
</g>
</g>
</svg>
