<?xml version="1.0" encoding="UTF-8" standalone="no"?>
<!DOCTYPE svg PUBLIC "-//W3C//DTD SVG 1.1//EN"
 "http://www.w3.org/Graphics/SVG/1.1/DTD/svg11.dtd">
<!-- Generated by graphviz version 8.0.5 (20230430.1635)
 -->
<!-- Title: inheritancea6b250df2d Pages: 1 -->
<svg width="1pt" height="864pt"
 viewBox="0.00 0.00 1.29 864.00" xmlns="http://www.w3.org/2000/svg" xmlns:xlink="http://www.w3.org/1999/xlink">
<g id="graph0" class="graph" transform="scale(0.00125939 0.00125939) rotate(0) translate(4 686044.62)">
<title>inheritancea6b250df2d</title>
<!-- GreaterThanOperator -->
<g id="node1" class="node">
<title>GreaterThanOperator</title>
<g id="a_node1"><a xlink:href="../pyVHDLParser/pyVHDLParser.Token.Keywords.html#pyVHDLParser.Token.Keywords.GreaterThanOperator" xlink:title="GreaterThanOperator" target="_top">
<polygon fill="white" stroke="#1e90ff" points="1018.5,-343029.56 860,-343029.56 860,-343011.06 1018.5,-343011.06 1018.5,-343029.56"/>
<text text-anchor="middle" x="939.25" y="-343016.06" font-family="Vera Sans, DejaVu Sans, Liberation Sans, Arial, Helvetica, sans" font-size="10.00">GreaterThanOperator</text>
</a>
</g>
</g>
<!-- RelationalOperator -->
<g id="node2" class="node">
<title>RelationalOperator</title>
<g id="a_node2"><a xlink:href="../pyVHDLParser/pyVHDLParser.Token.Keywords.html#pyVHDLParser.Token.Keywords.RelationalOperator" xlink:title="Base&#45;class for all relational operator tokens." target="_top">
<polygon fill="white" stroke="#1e90ff" points="824,-686040.62 673,-686040.62 673,0 824,0 824,-686040.62"/>
<text text-anchor="middle" x="748.5" y="-686027.12" font-family="Vera Sans, DejaVu Sans, Liberation Sans, Arial, Helvetica, sans" font-size="10.00">RelationalOperator</text>
</a>
</g>
</g>
<!-- RelationalOperator&#45;&gt;GreaterThanOperator -->
<g id="edge1" class="edge">
<title>RelationalOperator&#45;&gt;GreaterThanOperator</title>
<path fill="none" stroke="black" stroke-width="0.5" d="M824.37,-343020.31C834.09,-343020.31 844.1,-343020.31 853.97,-343020.31"/>
<polygon fill="black" stroke="black" stroke-width="0.5" points="854.75,-343022.06 859.75,-343020.31 854.75,-343018.56 854.75,-343022.06"/>
</g>
<!-- OperatorToken -->
<g id="node3" class="node">
<title>OperatorToken</title>
<g id="a_node3"><a xlink:href="../pyVHDLParser/pyVHDLParser.Token.Keywords.html#pyVHDLParser.Token.Keywords.OperatorToken" xlink:title="Base&#45;class for all operator tokens." target="_top">
<polygon fill="white" stroke="#1e90ff" points="637,-686032.99 523.5,-686032.99 523.5,-7.62 637,-7.62 637,-686032.99"/>
<text text-anchor="middle" x="580.25" y="-686019.49" font-family="Vera Sans, DejaVu Sans, Liberation Sans, Arial, Helvetica, sans" font-size="10.00">OperatorToken</text>
</a>
</g>
</g>
<!-- OperatorToken&#45;&gt;RelationalOperator -->
<g id="edge3" class="edge">
<title>OperatorToken&#45;&gt;RelationalOperator</title>
<path fill="none" stroke="black" stroke-width="0.5" d="M637.07,-343020.31C646.61,-343020.31 656.69,-343020.31 666.73,-343020.31"/>
<polygon fill="black" stroke="black" stroke-width="0.5" points="667.63,-343022.06 672.63,-343020.31 667.63,-343018.56 667.63,-343022.06"/>
</g>
<!-- SpecificVHDLToken -->
<g id="node4" class="node">
<title>SpecificVHDLToken</title>
<g id="a_node4"><a xlink:href="../pyVHDLParser/pyVHDLParser.Token.Keywords.html#pyVHDLParser.Token.Keywords.SpecificVHDLToken" xlink:title="Base&#45;class for all specific tokens." target="_top">
<polygon fill="white" stroke="#1e90ff" points="487.5,-343029.56 344,-343029.56 344,-343011.06 487.5,-343011.06 487.5,-343029.56"/>
<text text-anchor="middle" x="415.75" y="-343016.06" font-family="Vera Sans, DejaVu Sans, Liberation Sans, Arial, Helvetica, sans" font-size="10.00">SpecificVHDLToken</text>
</a>
</g>
</g>
<!-- SpecificVHDLToken&#45;&gt;OperatorToken -->
<g id="edge2" class="edge">
<title>SpecificVHDLToken&#45;&gt;OperatorToken</title>
<path fill="none" stroke="black" stroke-width="0.5" d="M487.55,-343020.31C497.56,-343020.31 507.79,-343020.31 517.6,-343020.31"/>
<polygon fill="black" stroke="black" stroke-width="0.5" points="518.33,-343022.06 523.33,-343020.31 518.33,-343018.56 518.33,-343022.06"/>
</g>
<!-- VHDLToken -->
<g id="node5" class="node">
<title>VHDLToken</title>
<g id="a_node5"><a xlink:href="../pyVHDLParser.Token.html#pyVHDLParser.Token.VHDLToken" xlink:title="Base&#45;class for all VHDL specific tokens." target="_top">
<polygon fill="white" stroke="#1e90ff" points="308,-343029.56 224.5,-343029.56 224.5,-343011.06 308,-343011.06 308,-343029.56"/>
<text text-anchor="middle" x="266.25" y="-343016.06" font-family="Vera Sans, DejaVu Sans, Liberation Sans, Arial, Helvetica, sans" font-size="10.00">VHDLToken</text>
</a>
</g>
</g>
<!-- VHDLToken&#45;&gt;SpecificVHDLToken -->
<g id="edge4" class="edge">
<title>VHDLToken&#45;&gt;SpecificVHDLToken</title>
<path fill="none" stroke="black" stroke-width="0.5" d="M308.34,-343020.31C317.53,-343020.31 327.57,-343020.31 337.69,-343020.31"/>
<polygon fill="black" stroke="black" stroke-width="0.5" points="338.66,-343022.06 343.66,-343020.31 338.66,-343018.56 338.66,-343022.06"/>
</g>
<!-- Token -->
<g id="node6" class="node">
<title>Token</title>
<g id="a_node6"><a xlink:href="../pyVHDLParser.Token.html#pyVHDLParser.Token.Token" xlink:title="Base&#45;class for all token classes." target="_top">
<polygon fill="white" stroke="#1e90ff" points="54,-343029.56 0,-343029.56 0,-343011.06 54,-343011.06 54,-343029.56"/>
<text text-anchor="middle" x="27" y="-343016.06" font-family="Vera Sans, DejaVu Sans, Liberation Sans, Arial, Helvetica, sans" font-size="10.00">Token</text>
</a>
</g>
</g>
<!-- ValuedToken -->
<g id="node7" class="node">
<title>ValuedToken</title>
<g id="a_node7"><a xlink:href="../pyVHDLParser.Token.html#pyVHDLParser.Token.ValuedToken" xlink:title="Base&#45;class for all *valued* token." target="_top">
<polygon fill="white" stroke="#1e90ff" points="188.5,-343041.47 90,-343041.47 90,-342999.15 188.5,-342999.15 188.5,-343041.47"/>
<text text-anchor="middle" x="139.25" y="-343027.97" font-family="Vera Sans, DejaVu Sans, Liberation Sans, Arial, Helvetica, sans" font-size="10.00">ValuedToken</text>
</a>
</g>
</g>
<!-- Token&#45;&gt;ValuedToken -->
<g id="edge6" class="edge">
<title>Token&#45;&gt;ValuedToken</title>
<path fill="none" stroke="black" stroke-width="0.5" d="M54.41,-343020.31C63.25,-343020.31 73.45,-343020.31 83.64,-343020.31"/>
<polygon fill="black" stroke="black" stroke-width="0.5" points="84.62,-343022.06 89.62,-343020.31 84.62,-343018.56 84.62,-343022.06"/>
</g>
<!-- ValuedToken&#45;&gt;VHDLToken -->
<g id="edge5" class="edge">
<title>ValuedToken&#45;&gt;VHDLToken</title>
<path fill="none" stroke="black" stroke-width="0.5" d="M188.94,-343020.31C198.59,-343020.31 208.7,-343020.31 218.29,-343020.31"/>
<polygon fill="black" stroke="black" stroke-width="0.5" points="219.19,-343022.06 224.19,-343020.31 219.19,-343018.56 219.19,-343022.06"/>
</g>
</g>
</svg>
