<?xml version="1.0" encoding="UTF-8" standalone="no"?>
<!DOCTYPE svg PUBLIC "-//W3C//DTD SVG 1.1//EN"
 "http://www.w3.org/Graphics/SVG/1.1/DTD/svg11.dtd">
<!-- Generated by graphviz version 8.0.5 (20230430.1635)
 -->
<!-- Title: inheritanced181c3443b Pages: 1 -->
<svg width="576pt" height="26pt"
 viewBox="0.00 0.00 576.00 25.76" xmlns="http://www.w3.org/2000/svg" xmlns:xlink="http://www.w3.org/1999/xlink">
<g id="graph0" class="graph" transform="scale(0.972152 0.972152) rotate(0) translate(4 22.5)">
<title>inheritanced181c3443b</title>
<!-- KeywordToken -->
<g id="node1" class="node">
<title>KeywordToken</title>
<g id="a_node1"><a xlink:href="../pyVHDLParser/pyVHDLParser.Token.Keywords.html#pyVHDLParser.Token.Keywords.KeywordToken" xlink:title="KeywordToken" target="_top">
<polygon fill="white" stroke="#1e90ff" points="450,-18.5 344,-18.5 344,0 450,0 450,-18.5"/>
<text text-anchor="middle" x="397" y="-5" font-family="Vera Sans, DejaVu Sans, Liberation Sans, Arial, Helvetica, sans" font-size="10.00">KeywordToken</text>
</a>
</g>
</g>
<!-- PortKeyword -->
<g id="node3" class="node">
<title>PortKeyword</title>
<g id="a_node3"><a xlink:href="../pyVHDLParser/pyVHDLParser.Token.Keywords.html#pyVHDLParser.Token.Keywords.PortKeyword" xlink:title="PortKeyword" target="_top">
<polygon fill="white" stroke="#1e90ff" points="584.5,-18.5 486,-18.5 486,0 584.5,0 584.5,-18.5"/>
<text text-anchor="middle" x="535.25" y="-5" font-family="Vera Sans, DejaVu Sans, Liberation Sans, Arial, Helvetica, sans" font-size="10.00">PortKeyword</text>
</a>
</g>
</g>
<!-- KeywordToken&#45;&gt;PortKeyword -->
<g id="edge2" class="edge">
<title>KeywordToken&#45;&gt;PortKeyword</title>
<path fill="none" stroke="black" stroke-width="0.5" d="M450.29,-9.25C460.07,-9.25 470.32,-9.25 480.16,-9.25"/>
<polygon fill="black" stroke="black" stroke-width="0.5" points="480.9,-11 485.9,-9.25 480.9,-7.5 480.9,-11"/>
</g>
<!-- VHDLToken -->
<g id="node2" class="node">
<title>VHDLToken</title>
<g id="a_node2"><a xlink:href="../pyVHDLParser.Token.html#pyVHDLParser.Token.VHDLToken" xlink:title="Base&#45;class for all VHDL specific tokens." target="_top">
<polygon fill="white" stroke="#1e90ff" points="308,-18.5 224.5,-18.5 224.5,0 308,0 308,-18.5"/>
<text text-anchor="middle" x="266.25" y="-5" font-family="Vera Sans, DejaVu Sans, Liberation Sans, Arial, Helvetica, sans" font-size="10.00">VHDLToken</text>
</a>
</g>
</g>
<!-- VHDLToken&#45;&gt;KeywordToken -->
<g id="edge1" class="edge">
<title>VHDLToken&#45;&gt;KeywordToken</title>
<path fill="none" stroke="black" stroke-width="0.5" d="M308.34,-9.25C317.69,-9.25 327.8,-9.25 337.71,-9.25"/>
<polygon fill="black" stroke="black" stroke-width="0.5" points="338.52,-11 343.52,-9.25 338.52,-7.5 338.52,-11"/>
</g>
<!-- Token -->
<g id="node4" class="node">
<title>Token</title>
<g id="a_node4"><a xlink:href="../pyVHDLParser.Token.html#pyVHDLParser.Token.Token" xlink:title="Base&#45;class for all token classes." target="_top">
<polygon fill="white" stroke="#1e90ff" points="54,-18.5 0,-18.5 0,0 54,0 54,-18.5"/>
<text text-anchor="middle" x="27" y="-5" font-family="Vera Sans, DejaVu Sans, Liberation Sans, Arial, Helvetica, sans" font-size="10.00">Token</text>
</a>
</g>
</g>
<!-- ValuedToken -->
<g id="node5" class="node">
<title>ValuedToken</title>
<g id="a_node5"><a xlink:href="../pyVHDLParser.Token.html#pyVHDLParser.Token.ValuedToken" xlink:title="Base&#45;class for all *valued* token." target="_top">
<polygon fill="white" stroke="#1e90ff" points="188.5,-18.5 90,-18.5 90,0 188.5,0 188.5,-18.5"/>
<text text-anchor="middle" x="139.25" y="-5" font-family="Vera Sans, DejaVu Sans, Liberation Sans, Arial, Helvetica, sans" font-size="10.00">ValuedToken</text>
</a>
</g>
</g>
<!-- Token&#45;&gt;ValuedToken -->
<g id="edge4" class="edge">
<title>Token&#45;&gt;ValuedToken</title>
<path fill="none" stroke="black" stroke-width="0.5" d="M54.41,-9.25C63.25,-9.25 73.45,-9.25 83.64,-9.25"/>
<polygon fill="black" stroke="black" stroke-width="0.5" points="84.62,-11 89.62,-9.25 84.62,-7.5 84.62,-11"/>
</g>
<!-- ValuedToken&#45;&gt;VHDLToken -->
<g id="edge3" class="edge">
<title>ValuedToken&#45;&gt;VHDLToken</title>
<path fill="none" stroke="black" stroke-width="0.5" d="M188.94,-9.25C198.59,-9.25 208.7,-9.25 218.29,-9.25"/>
<polygon fill="black" stroke="black" stroke-width="0.5" points="219.19,-11 224.19,-9.25 219.19,-7.5 219.19,-11"/>
</g>
</g>
</svg>
