<?xml version="1.0" encoding="UTF-8" standalone="no"?>
<!DOCTYPE svg PUBLIC "-//W3C//DTD SVG 1.1//EN"
 "http://www.w3.org/Graphics/SVG/1.1/DTD/svg11.dtd">
<!-- Generated by graphviz version 8.0.5 (20230430.1635)
 -->
<!-- Title: inheritance16c1ae79a9 Pages: 1 -->
<svg width="0pt" height="864pt"
 viewBox="0.00 0.00 0.44 864.00" xmlns="http://www.w3.org/2000/svg" xmlns:xlink="http://www.w3.org/1999/xlink">
<g id="graph0" class="graph" transform="scale(0.000757976 0.000757976) rotate(0) translate(4 1139874.19)">
<title>inheritance16c1ae79a9</title>
<!-- InKeyword -->
<g id="node1" class="node">
<title>InKeyword</title>
<g id="a_node1"><a xlink:href="../pyVHDLParser/pyVHDLParser.Token.Keywords.html#pyVHDLParser.Token.Keywords.InKeyword" xlink:title="InKeyword" target="_top">
<polygon fill="white" stroke="#1e90ff" points="569.5,-569944.34 486,-569944.34 486,-569925.84 569.5,-569925.84 569.5,-569944.34"/>
<text text-anchor="middle" x="527.75" y="-569930.84" font-family="Vera Sans, DejaVu Sans, Liberation Sans, Arial, Helvetica, sans" font-size="10.00">InKeyword</text>
</a>
</g>
</g>
<!-- KeywordToken -->
<g id="node2" class="node">
<title>KeywordToken</title>
<g id="a_node2"><a xlink:href="../pyVHDLParser/pyVHDLParser.Token.Keywords.html#pyVHDLParser.Token.Keywords.KeywordToken" xlink:title="KeywordToken" target="_top">
<polygon fill="white" stroke="#1e90ff" points="450,-569944.34 344,-569944.34 344,-569925.84 450,-569925.84 450,-569944.34"/>
<text text-anchor="middle" x="397" y="-569930.84" font-family="Vera Sans, DejaVu Sans, Liberation Sans, Arial, Helvetica, sans" font-size="10.00">KeywordToken</text>
</a>
</g>
</g>
<!-- KeywordToken&#45;&gt;InKeyword -->
<g id="edge1" class="edge">
<title>KeywordToken&#45;&gt;InKeyword</title>
<path fill="none" stroke="black" stroke-width="0.5" d="M450.37,-569935.09C460.17,-569935.09 470.35,-569935.09 479.97,-569935.09"/>
<polygon fill="black" stroke="black" stroke-width="0.5" points="480.88,-569936.84 485.88,-569935.09 480.88,-569933.34 480.88,-569936.84"/>
</g>
<!-- VHDLToken -->
<g id="node3" class="node">
<title>VHDLToken</title>
<g id="a_node3"><a xlink:href="../pyVHDLParser.Token.html#pyVHDLParser.Token.VHDLToken" xlink:title="Base&#45;class for all VHDL specific tokens." target="_top">
<polygon fill="white" stroke="#1e90ff" points="308,-1139870.14 224.5,-1139870.14 224.5,-0.05 308,-0.05 308,-1139870.14"/>
<text text-anchor="middle" x="266.25" y="-1139856.64" font-family="Vera Sans, DejaVu Sans, Liberation Sans, Arial, Helvetica, sans" font-size="10.00">VHDLToken</text>
</a>
</g>
</g>
<!-- VHDLToken&#45;&gt;KeywordToken -->
<g id="edge2" class="edge">
<title>VHDLToken&#45;&gt;KeywordToken</title>
<path fill="none" stroke="black" stroke-width="0.5" d="M308.34,-569935.09C317.69,-569935.09 327.8,-569935.09 337.71,-569935.09"/>
<polygon fill="black" stroke="black" stroke-width="0.5" points="338.52,-569936.84 343.52,-569935.09 338.52,-569933.34 338.52,-569936.84"/>
</g>
<!-- Token -->
<g id="node4" class="node">
<title>Token</title>
<g id="a_node4"><a xlink:href="../pyVHDLParser.Token.html#pyVHDLParser.Token.Token" xlink:title="Base&#45;class for all token classes." target="_top">
<polygon fill="white" stroke="#1e90ff" points="54,-1139870.19 0,-1139870.19 0,0 54,0 54,-1139870.19"/>
<text text-anchor="middle" x="27" y="-1139856.69" font-family="Vera Sans, DejaVu Sans, Liberation Sans, Arial, Helvetica, sans" font-size="10.00">Token</text>
</a>
</g>
</g>
<!-- ValuedToken -->
<g id="node5" class="node">
<title>ValuedToken</title>
<g id="a_node5"><a xlink:href="../pyVHDLParser.Token.html#pyVHDLParser.Token.ValuedToken" xlink:title="Base&#45;class for all *valued* token." target="_top">
<polygon fill="white" stroke="#1e90ff" points="188.5,-569949.84 90,-569949.84 90,-569920.35 188.5,-569920.35 188.5,-569949.84"/>
<text text-anchor="middle" x="139.25" y="-569936.34" font-family="Vera Sans, DejaVu Sans, Liberation Sans, Arial, Helvetica, sans" font-size="10.00">ValuedToken</text>
</a>
</g>
</g>
<!-- Token&#45;&gt;ValuedToken -->
<g id="edge4" class="edge">
<title>Token&#45;&gt;ValuedToken</title>
<path fill="none" stroke="black" stroke-width="0.5" d="M54.41,-569935.09C63.25,-569935.09 73.45,-569935.09 83.64,-569935.09"/>
<polygon fill="black" stroke="black" stroke-width="0.5" points="84.62,-569936.84 89.62,-569935.09 84.62,-569933.34 84.62,-569936.84"/>
</g>
<!-- ValuedToken&#45;&gt;VHDLToken -->
<g id="edge3" class="edge">
<title>ValuedToken&#45;&gt;VHDLToken</title>
<path fill="none" stroke="black" stroke-width="0.5" d="M188.94,-569935.09C198.59,-569935.09 208.7,-569935.09 218.29,-569935.09"/>
<polygon fill="black" stroke="black" stroke-width="0.5" points="219.19,-569936.84 224.19,-569935.09 219.19,-569933.34 219.19,-569936.84"/>
</g>
</g>
</svg>
