<?xml version="1.0" encoding="UTF-8" standalone="no"?>
<!DOCTYPE svg PUBLIC "-//W3C//DTD SVG 1.1//EN"
 "http://www.w3.org/Graphics/SVG/1.1/DTD/svg11.dtd">
<!-- Generated by graphviz version 8.0.5 (20230430.1635)
 -->
<!-- Title: inheritancebebf44ece9 Pages: 1 -->
<svg width="42pt" height="864pt"
 viewBox="0.00 0.00 42.30 864.00" xmlns="http://www.w3.org/2000/svg" xmlns:xlink="http://www.w3.org/1999/xlink">
<g id="graph0" class="graph" transform="scale(0.0687779 0.0687779) rotate(0) translate(4 12558.18)">
<title>inheritancebebf44ece9</title>
<!-- KeywordToken -->
<g id="node1" class="node">
<title>KeywordToken</title>
<g id="a_node1"><a xlink:href="../pyVHDLParser/pyVHDLParser.Token.Keywords.html#pyVHDLParser.Token.Keywords.KeywordToken" xlink:title="KeywordToken" target="_top">
<polygon fill="white" stroke="#1e90ff" points="450,-6286.34 344,-6286.34 344,-6267.84 450,-6267.84 450,-6286.34"/>
<text text-anchor="middle" x="397" y="-6272.84" font-family="Vera Sans, DejaVu Sans, Liberation Sans, Arial, Helvetica, sans" font-size="10.00">KeywordToken</text>
</a>
</g>
</g>
<!-- LinkageKeyword -->
<g id="node3" class="node">
<title>LinkageKeyword</title>
<g id="a_node3"><a xlink:href="../pyVHDLParser/pyVHDLParser.Token.Keywords.html#pyVHDLParser.Token.Keywords.LinkageKeyword" xlink:title="LinkageKeyword" target="_top">
<polygon fill="white" stroke="#1e90ff" points="607,-12554.13 486,-12554.13 486,-0.05 607,-0.05 607,-12554.13"/>
<text text-anchor="middle" x="546.5" y="-12540.63" font-family="Vera Sans, DejaVu Sans, Liberation Sans, Arial, Helvetica, sans" font-size="10.00">LinkageKeyword</text>
</a>
</g>
</g>
<!-- KeywordToken&#45;&gt;LinkageKeyword -->
<g id="edge2" class="edge">
<title>KeywordToken&#45;&gt;LinkageKeyword</title>
<path fill="none" stroke="black" stroke-width="0.5" d="M450.42,-6277.09C459.97,-6277.09 470.05,-6277.09 479.92,-6277.09"/>
<polygon fill="black" stroke="black" stroke-width="0.5" points="480.71,-6278.84 485.71,-6277.09 480.71,-6275.34 480.71,-6278.84"/>
</g>
<!-- VHDLToken -->
<g id="node2" class="node">
<title>VHDLToken</title>
<g id="a_node2"><a xlink:href="../pyVHDLParser.Token.html#pyVHDLParser.Token.VHDLToken" xlink:title="Base&#45;class for all VHDL specific tokens." target="_top">
<polygon fill="white" stroke="#1e90ff" points="308,-6286.34 224.5,-6286.34 224.5,-6267.84 308,-6267.84 308,-6286.34"/>
<text text-anchor="middle" x="266.25" y="-6272.84" font-family="Vera Sans, DejaVu Sans, Liberation Sans, Arial, Helvetica, sans" font-size="10.00">VHDLToken</text>
</a>
</g>
</g>
<!-- VHDLToken&#45;&gt;KeywordToken -->
<g id="edge1" class="edge">
<title>VHDLToken&#45;&gt;KeywordToken</title>
<path fill="none" stroke="black" stroke-width="0.5" d="M308.34,-6277.09C317.69,-6277.09 327.8,-6277.09 337.71,-6277.09"/>
<polygon fill="black" stroke="black" stroke-width="0.5" points="338.52,-6278.84 343.52,-6277.09 338.52,-6275.34 338.52,-6278.84"/>
</g>
<!-- Token -->
<g id="node4" class="node">
<title>Token</title>
<g id="a_node4"><a xlink:href="../pyVHDLParser.Token.html#pyVHDLParser.Token.Token" xlink:title="Base&#45;class for all token classes." target="_top">
<polygon fill="white" stroke="#1e90ff" points="54,-12554.18 0,-12554.18 0,0 54,0 54,-12554.18"/>
<text text-anchor="middle" x="27" y="-12540.68" font-family="Vera Sans, DejaVu Sans, Liberation Sans, Arial, Helvetica, sans" font-size="10.00">Token</text>
</a>
</g>
</g>
<!-- ValuedToken -->
<g id="node5" class="node">
<title>ValuedToken</title>
<g id="a_node5"><a xlink:href="../pyVHDLParser.Token.html#pyVHDLParser.Token.ValuedToken" xlink:title="Base&#45;class for all *valued* token." target="_top">
<polygon fill="white" stroke="#1e90ff" points="188.5,-6286.34 90,-6286.34 90,-6267.84 188.5,-6267.84 188.5,-6286.34"/>
<text text-anchor="middle" x="139.25" y="-6272.84" font-family="Vera Sans, DejaVu Sans, Liberation Sans, Arial, Helvetica, sans" font-size="10.00">ValuedToken</text>
</a>
</g>
</g>
<!-- Token&#45;&gt;ValuedToken -->
<g id="edge4" class="edge">
<title>Token&#45;&gt;ValuedToken</title>
<path fill="none" stroke="black" stroke-width="0.5" d="M54.41,-6277.09C63.25,-6277.09 73.45,-6277.09 83.64,-6277.09"/>
<polygon fill="black" stroke="black" stroke-width="0.5" points="84.62,-6278.84 89.62,-6277.09 84.62,-6275.34 84.62,-6278.84"/>
</g>
<!-- ValuedToken&#45;&gt;VHDLToken -->
<g id="edge3" class="edge">
<title>ValuedToken&#45;&gt;VHDLToken</title>
<path fill="none" stroke="black" stroke-width="0.5" d="M188.94,-6277.09C198.59,-6277.09 208.7,-6277.09 218.29,-6277.09"/>
<polygon fill="black" stroke="black" stroke-width="0.5" points="219.19,-6278.84 224.19,-6277.09 219.19,-6275.34 219.19,-6278.84"/>
</g>
</g>
</svg>
