<?xml version="1.0" encoding="UTF-8" standalone="no"?>
<!DOCTYPE svg PUBLIC "-//W3C//DTD SVG 1.1//EN"
 "http://www.w3.org/Graphics/SVG/1.1/DTD/svg11.dtd">
<!-- Generated by graphviz version 8.0.5 (20230430.1635)
 -->
<!-- Title: inheritanced308c485af Pages: 1 -->
<svg width="1pt" height="864pt"
 viewBox="0.00 0.00 0.54 864.00" xmlns="http://www.w3.org/2000/svg" xmlns:xlink="http://www.w3.org/1999/xlink">
<g id="graph0" class="graph" transform="scale(0.000637089 0.000637089) rotate(0) translate(4 1356163.44)">
<title>inheritanced308c485af</title>
<!-- KeywordToken -->
<g id="node1" class="node">
<title>KeywordToken</title>
<g id="a_node1"><a xlink:href="../pyVHDLParser/pyVHDLParser.Token.Keywords.html#pyVHDLParser.Token.Keywords.KeywordToken" xlink:title="KeywordToken" target="_top">
<polygon fill="white" stroke="#1e90ff" points="450,-678088.97 344,-678088.97 344,-678070.47 450,-678070.47 450,-678088.97"/>
<text text-anchor="middle" x="397" y="-678075.47" font-family="Vera Sans, DejaVu Sans, Liberation Sans, Arial, Helvetica, sans" font-size="10.00">KeywordToken</text>
</a>
</g>
</g>
<!-- Operator -->
<g id="node3" class="node">
<title>Operator</title>
<g id="a_node3"><a xlink:href="../pyVHDLParser/pyVHDLParser.Token.Keywords.html#pyVHDLParser.Token.Keywords.Operator" xlink:title="Operator" target="_top">
<polygon fill="white" stroke="#1e90ff" points="562,-1356159.39 486,-1356159.39 486,-0.05 562,-0.05 562,-1356159.39"/>
<text text-anchor="middle" x="524" y="-1356145.89" font-family="Vera Sans, DejaVu Sans, Liberation Sans, Arial, Helvetica, sans" font-size="10.00">Operator</text>
</a>
</g>
</g>
<!-- KeywordToken&#45;&gt;Operator -->
<g id="edge2" class="edge">
<title>KeywordToken&#45;&gt;Operator</title>
<path fill="none" stroke="black" stroke-width="0.5" d="M450.29,-678079.72C460.15,-678079.72 470.36,-678079.72 479.9,-678079.72"/>
<polygon fill="black" stroke="black" stroke-width="0.5" points="480.74,-678081.47 485.74,-678079.72 480.74,-678077.97 480.74,-678081.47"/>
</g>
<!-- VHDLToken -->
<g id="node2" class="node">
<title>VHDLToken</title>
<g id="a_node2"><a xlink:href="../pyVHDLParser.Token.html#pyVHDLParser.Token.VHDLToken" xlink:title="Base&#45;class for all VHDL specific tokens." target="_top">
<polygon fill="white" stroke="#1e90ff" points="308,-1356159.44 224.5,-1356159.44 224.5,0 308,0 308,-1356159.44"/>
<text text-anchor="middle" x="266.25" y="-1356145.94" font-family="Vera Sans, DejaVu Sans, Liberation Sans, Arial, Helvetica, sans" font-size="10.00">VHDLToken</text>
</a>
</g>
</g>
<!-- VHDLToken&#45;&gt;KeywordToken -->
<g id="edge1" class="edge">
<title>VHDLToken&#45;&gt;KeywordToken</title>
<path fill="none" stroke="black" stroke-width="0.5" d="M308.34,-678079.72C317.69,-678079.72 327.8,-678079.72 337.71,-678079.72"/>
<polygon fill="black" stroke="black" stroke-width="0.5" points="338.52,-678081.47 343.52,-678079.72 338.52,-678077.97 338.52,-678081.47"/>
</g>
<!-- ShiftOperator -->
<g id="node4" class="node">
<title>ShiftOperator</title>
<g id="a_node4"><a xlink:href="../pyVHDLParser/pyVHDLParser.Token.Keywords.html#pyVHDLParser.Token.Keywords.ShiftOperator" xlink:title="ShiftOperator" target="_top">
<polygon fill="white" stroke="#1e90ff" points="711.5,-678088.97 598,-678088.97 598,-678070.47 711.5,-678070.47 711.5,-678088.97"/>
<text text-anchor="middle" x="654.75" y="-678075.47" font-family="Vera Sans, DejaVu Sans, Liberation Sans, Arial, Helvetica, sans" font-size="10.00">ShiftOperator</text>
</a>
</g>
</g>
<!-- Operator&#45;&gt;ShiftOperator -->
<g id="edge3" class="edge">
<title>Operator&#45;&gt;ShiftOperator</title>
<path fill="none" stroke="black" stroke-width="0.5" d="M562.24,-678079.72C571.55,-678079.72 581.79,-678079.72 591.95,-678079.72"/>
<polygon fill="black" stroke="black" stroke-width="0.5" points="592.91,-678081.47 597.91,-678079.72 592.91,-678077.97 592.91,-678081.47"/>
</g>
<!-- SraOperator -->
<g id="node5" class="node">
<title>SraOperator</title>
<g id="a_node5"><a xlink:href="../pyVHDLParser/pyVHDLParser.Token.Keywords.html#pyVHDLParser.Token.Keywords.SraOperator" xlink:title="SraOperator" target="_top">
<polygon fill="white" stroke="#1e90ff" points="846,-678088.97 747.5,-678088.97 747.5,-678070.47 846,-678070.47 846,-678088.97"/>
<text text-anchor="middle" x="796.75" y="-678075.47" font-family="Vera Sans, DejaVu Sans, Liberation Sans, Arial, Helvetica, sans" font-size="10.00">SraOperator</text>
</a>
</g>
</g>
<!-- ShiftOperator&#45;&gt;SraOperator -->
<g id="edge4" class="edge">
<title>ShiftOperator&#45;&gt;SraOperator</title>
<path fill="none" stroke="black" stroke-width="0.5" d="M711.89,-678079.72C721.59,-678079.72 731.66,-678079.72 741.32,-678079.72"/>
<polygon fill="black" stroke="black" stroke-width="0.5" points="742.27,-678081.47 747.27,-678079.72 742.27,-678077.97 742.27,-678081.47"/>
</g>
<!-- Token -->
<g id="node6" class="node">
<title>Token</title>
<g id="a_node6"><a xlink:href="../pyVHDLParser.Token.html#pyVHDLParser.Token.Token" xlink:title="Base&#45;class for all token classes." target="_top">
<polygon fill="white" stroke="#1e90ff" points="54,-678088.97 0,-678088.97 0,-678070.47 54,-678070.47 54,-678088.97"/>
<text text-anchor="middle" x="27" y="-678075.47" font-family="Vera Sans, DejaVu Sans, Liberation Sans, Arial, Helvetica, sans" font-size="10.00">Token</text>
</a>
</g>
</g>
<!-- ValuedToken -->
<g id="node7" class="node">
<title>ValuedToken</title>
<g id="a_node7"><a xlink:href="../pyVHDLParser.Token.html#pyVHDLParser.Token.ValuedToken" xlink:title="Base&#45;class for all *valued* token." target="_top">
<polygon fill="white" stroke="#1e90ff" points="188.5,-678088.97 90,-678088.97 90,-678070.47 188.5,-678070.47 188.5,-678088.97"/>
<text text-anchor="middle" x="139.25" y="-678075.47" font-family="Vera Sans, DejaVu Sans, Liberation Sans, Arial, Helvetica, sans" font-size="10.00">ValuedToken</text>
</a>
</g>
</g>
<!-- Token&#45;&gt;ValuedToken -->
<g id="edge6" class="edge">
<title>Token&#45;&gt;ValuedToken</title>
<path fill="none" stroke="black" stroke-width="0.5" d="M54.41,-678079.72C63.25,-678079.72 73.45,-678079.72 83.64,-678079.72"/>
<polygon fill="black" stroke="black" stroke-width="0.5" points="84.62,-678081.47 89.62,-678079.72 84.62,-678077.97 84.62,-678081.47"/>
</g>
<!-- ValuedToken&#45;&gt;VHDLToken -->
<g id="edge5" class="edge">
<title>ValuedToken&#45;&gt;VHDLToken</title>
<path fill="none" stroke="black" stroke-width="0.5" d="M188.94,-678079.72C198.59,-678079.72 208.7,-678079.72 218.29,-678079.72"/>
<polygon fill="black" stroke="black" stroke-width="0.5" points="219.19,-678081.47 224.19,-678079.72 219.19,-678077.97 219.19,-678081.47"/>
</g>
</g>
</svg>
