<?xml version="1.0" encoding="UTF-8" standalone="no"?>
<!DOCTYPE svg PUBLIC "-//W3C//DTD SVG 1.1//EN"
 "http://www.w3.org/Graphics/SVG/1.1/DTD/svg11.dtd">
<!-- Generated by graphviz version 8.0.5 (20230430.1635)
 -->
<!-- Title: inheritanceec06cfea11 Pages: 1 -->
<svg width="1pt" height="864pt"
 viewBox="0.00 0.00 0.75 864.00" xmlns="http://www.w3.org/2000/svg" xmlns:xlink="http://www.w3.org/1999/xlink">
<g id="graph0" class="graph" transform="scale(0.00128674 0.00128674) rotate(0) translate(4 671460.19)">
<title>inheritanceec06cfea11</title>
<!-- KeywordToken -->
<g id="node1" class="node">
<title>KeywordToken</title>
<g id="a_node1"><a xlink:href="../pyVHDLParser/pyVHDLParser.Token.Keywords.html#pyVHDLParser.Token.Keywords.KeywordToken" xlink:title="KeywordToken" target="_top">
<polygon fill="white" stroke="#1e90ff" points="450,-335737.34 344,-335737.34 344,-335718.84 450,-335718.84 450,-335737.34"/>
<text text-anchor="middle" x="397" y="-335723.84" font-family="Vera Sans, DejaVu Sans, Liberation Sans, Arial, Helvetica, sans" font-size="10.00">KeywordToken</text>
</a>
</g>
</g>
<!-- UseKeyword -->
<g id="node4" class="node">
<title>UseKeyword</title>
<g id="a_node4"><a xlink:href="../pyVHDLParser/pyVHDLParser.Token.Keywords.html#pyVHDLParser.Token.Keywords.UseKeyword" xlink:title="UseKeyword" target="_top">
<polygon fill="white" stroke="#1e90ff" points="577,-671456.19 486,-671456.19 486,0 577,0 577,-671456.19"/>
<text text-anchor="middle" x="531.5" y="-671442.69" font-family="Vera Sans, DejaVu Sans, Liberation Sans, Arial, Helvetica, sans" font-size="10.00">UseKeyword</text>
</a>
</g>
</g>
<!-- KeywordToken&#45;&gt;UseKeyword -->
<g id="edge2" class="edge">
<title>KeywordToken&#45;&gt;UseKeyword</title>
<path fill="none" stroke="black" stroke-width="0.5" d="M450.37,-335728.09C460.07,-335728.09 470.19,-335728.09 479.84,-335728.09"/>
<polygon fill="black" stroke="black" stroke-width="0.5" points="480.79,-335729.84 485.79,-335728.09 480.79,-335726.34 480.79,-335729.84"/>
</g>
<!-- VHDLToken -->
<g id="node2" class="node">
<title>VHDLToken</title>
<g id="a_node2"><a xlink:href="../pyVHDLParser.Token.html#pyVHDLParser.Token.VHDLToken" xlink:title="Base&#45;class for all VHDL specific tokens." target="_top">
<polygon fill="white" stroke="#1e90ff" points="308,-335737.34 224.5,-335737.34 224.5,-335718.84 308,-335718.84 308,-335737.34"/>
<text text-anchor="middle" x="266.25" y="-335723.84" font-family="Vera Sans, DejaVu Sans, Liberation Sans, Arial, Helvetica, sans" font-size="10.00">VHDLToken</text>
</a>
</g>
</g>
<!-- VHDLToken&#45;&gt;KeywordToken -->
<g id="edge1" class="edge">
<title>VHDLToken&#45;&gt;KeywordToken</title>
<path fill="none" stroke="black" stroke-width="0.5" d="M308.34,-335728.09C317.69,-335728.09 327.8,-335728.09 337.71,-335728.09"/>
<polygon fill="black" stroke="black" stroke-width="0.5" points="338.52,-335729.84 343.52,-335728.09 338.52,-335726.34 338.52,-335729.84"/>
</g>
<!-- Token -->
<g id="node3" class="node">
<title>Token</title>
<g id="a_node3"><a xlink:href="../pyVHDLParser.Token.html#pyVHDLParser.Token.Token" xlink:title="Base&#45;class for all token classes." target="_top">
<polygon fill="white" stroke="#1e90ff" points="54,-671456.14 0,-671456.14 0,-0.05 54,-0.05 54,-671456.14"/>
<text text-anchor="middle" x="27" y="-671442.64" font-family="Vera Sans, DejaVu Sans, Liberation Sans, Arial, Helvetica, sans" font-size="10.00">Token</text>
</a>
</g>
</g>
<!-- ValuedToken -->
<g id="node5" class="node">
<title>ValuedToken</title>
<g id="a_node5"><a xlink:href="../pyVHDLParser.Token.html#pyVHDLParser.Token.ValuedToken" xlink:title="Base&#45;class for all *valued* token." target="_top">
<polygon fill="white" stroke="#1e90ff" points="188.5,-335742.84 90,-335742.84 90,-335713.35 188.5,-335713.35 188.5,-335742.84"/>
<text text-anchor="middle" x="139.25" y="-335729.34" font-family="Vera Sans, DejaVu Sans, Liberation Sans, Arial, Helvetica, sans" font-size="10.00">ValuedToken</text>
</a>
</g>
</g>
<!-- Token&#45;&gt;ValuedToken -->
<g id="edge4" class="edge">
<title>Token&#45;&gt;ValuedToken</title>
<path fill="none" stroke="black" stroke-width="0.5" d="M54.41,-335728.09C63.25,-335728.09 73.45,-335728.09 83.64,-335728.09"/>
<polygon fill="black" stroke="black" stroke-width="0.5" points="84.62,-335729.84 89.62,-335728.09 84.62,-335726.34 84.62,-335729.84"/>
</g>
<!-- ValuedToken&#45;&gt;VHDLToken -->
<g id="edge3" class="edge">
<title>ValuedToken&#45;&gt;VHDLToken</title>
<path fill="none" stroke="black" stroke-width="0.5" d="M188.94,-335728.09C198.59,-335728.09 208.7,-335728.09 218.29,-335728.09"/>
<polygon fill="black" stroke="black" stroke-width="0.5" points="219.19,-335729.84 224.19,-335728.09 219.19,-335726.34 219.19,-335729.84"/>
</g>
</g>
</svg>
