<?xml version="1.0" encoding="UTF-8" standalone="no"?>
<!DOCTYPE svg PUBLIC "-//W3C//DTD SVG 1.1//EN"
 "http://www.w3.org/Graphics/SVG/1.1/DTD/svg11.dtd">
<!-- Generated by graphviz version 8.0.5 (20230430.1635)
 -->
<!-- Title: inheritancec74d712283 Pages: 1 -->
<svg width="1pt" height="864pt"
 viewBox="0.00 0.00 1.11 864.00" xmlns="http://www.w3.org/2000/svg" xmlns:xlink="http://www.w3.org/1999/xlink">
<g id="graph0" class="graph" transform="scale(0.00158045 0.00158045) rotate(0) translate(4 546676.19)">
<title>inheritancec74d712283</title>
<!-- Configuration -->
<g id="node1" class="node">
<title>Configuration</title>
<g id="a_node1"><a xlink:href="../pyVHDLParser/pyVHDLParser.LanguageModel.DesignUnit.html#pyVHDLParser.LanguageModel.DesignUnit.Configuration" xlink:title="Configuration" target="_top">
<polygon fill="white" stroke="#1e90ff" points="697,-32785.54 583.5,-32785.54 583.5,-32767.04 697,-32767.04 697,-32785.54"/>
<text text-anchor="middle" x="640.25" y="-32772.04" font-family="Vera Sans, DejaVu Sans, Liberation Sans, Arial, Helvetica, sans" font-size="10.00">Configuration</text>
</a>
</g>
</g>
<!-- Configuration&#45;&gt;Configuration -->
<g id="edge3" class="edge">
<title>Configuration&#45;&gt;Configuration</title>
<path fill="none" stroke="black" stroke-width="0.5" d="M609.69,-32785.79C594.83,-32794.36 605.01,-32803.54 640.25,-32803.54 671.08,-32803.54 682.73,-32796.51 675.21,-32789.01"/>
<polygon fill="black" stroke="black" stroke-width="0.5" points="675.87,-32787.33 670.81,-32785.79 673.8,-32790.15 675.87,-32787.33"/>
</g>
<!-- PrimaryUnit -->
<g id="node2" class="node">
<title>PrimaryUnit</title>
<g id="a_node2"><a xlink:title="A ``PrimaryUnit`` is a base&#45;class for all primary units.">
<polygon fill="white" stroke="#1e90ff" points="491.25,-546672.19 392.75,-546672.19 392.75,415583.61 491.25,415583.61 491.25,-546672.19"/>
<text text-anchor="middle" x="442" y="-546658.69" font-family="Vera Sans, DejaVu Sans, Liberation Sans, Arial, Helvetica, sans" font-size="10.00">PrimaryUnit</text>
</a>
</g>
</g>
<!-- PrimaryUnit&#45;&gt;Configuration -->
<g id="edge1" class="edge">
<title>PrimaryUnit&#45;&gt;Configuration</title>
<path fill="none" stroke="black" stroke-width="0.5" d="M491.75,-57404.54C548.8,-47879.45 635.95,-33326.61 639.16,-32791.48"/>
<polygon fill="black" stroke="black" stroke-width="0.5" points="640.91,-32790.85 639.19,-32785.84 637.41,-32790.82 640.91,-32790.85"/>
</g>
<!-- DesignUnitWithContextMixin -->
<g id="node3" class="node">
<title>DesignUnitWithContextMixin</title>
<polygon fill="white" stroke="#1e90ff" points="547.5,-18.58 336.5,-18.58 336.5,0 547.5,0 547.5,-18.58"/>
<text text-anchor="middle" x="442" y="-5.08" font-family="Vera Sans, DejaVu Sans, Liberation Sans, Arial, Helvetica, sans" font-size="10.00">DesignUnitWithContextMixin</text>
</g>
<!-- DesignUnitWithContextMixin&#45;&gt;Configuration -->
<g id="edge2" class="edge">
<title>DesignUnitWithContextMixin&#45;&gt;Configuration</title>
<path fill="none" stroke="black" stroke-width="0.5" d="M544.07,-18.8C545.27,-19.9 546.41,-21.06 547.5,-22.29 621.97,-106.37 638.83,-31969.5 639.24,-32761.29"/>
<polygon fill="black" stroke="black" stroke-width="0.5" points="637.49,-32762.01 639.25,-32767.01 640.99,-32762 637.49,-32762.01"/>
</g>
<!-- DesignUnit -->
<g id="node4" class="node">
<title>DesignUnit</title>
<g id="a_node4"><a xlink:title="A ``DesignUnit`` is a base&#45;class for all design units.">
<polygon fill="white" stroke="#1e90ff" points="300.5,-65553.54 209.5,-65553.54 209.5,-65535.04 300.5,-65535.04 300.5,-65553.54"/>
<text text-anchor="middle" x="255" y="-65540.04" font-family="Vera Sans, DejaVu Sans, Liberation Sans, Arial, Helvetica, sans" font-size="10.00">DesignUnit</text>
</a>
</g>
</g>
<!-- DesignUnit&#45;&gt;PrimaryUnit -->
<g id="edge7" class="edge">
<title>DesignUnit&#45;&gt;PrimaryUnit</title>
<path fill="none" stroke="black" stroke-width="0.5" d="M300.78,-65544.29C326.64,-65544.29 359.35,-65544.29 386.67,-65544.29"/>
<polygon fill="black" stroke="black" stroke-width="0.5" points="387.41,-65546.04 392.41,-65544.29 387.41,-65542.54 387.41,-65546.04"/>
</g>
<!-- ModelEntity -->
<g id="node5" class="node">
<title>ModelEntity</title>
<g id="a_node5"><a xlink:title="``ModelEntity`` is the base&#45;class for all classes in the VHDL language model, except for mixin classes (see multiple">
<polygon fill="white" stroke="#1e90ff" points="136,-65590.54 37.5,-65590.54 37.5,-65572.04 136,-65572.04 136,-65590.54"/>
<text text-anchor="middle" x="86.75" y="-65577.04" font-family="Vera Sans, DejaVu Sans, Liberation Sans, Arial, Helvetica, sans" font-size="10.00">ModelEntity</text>
</a>
</g>
</g>
<!-- ModelEntity&#45;&gt;DesignUnit -->
<g id="edge4" class="edge">
<title>ModelEntity&#45;&gt;DesignUnit</title>
<path fill="none" stroke="black" stroke-width="0.5" d="M131.82,-65571.54C145.21,-65568.58 159.96,-65565.31 173.5,-65562.29 183.64,-65560.03 194.5,-65557.61 204.86,-65555.3"/>
<polygon fill="black" stroke="black" stroke-width="0.5" points="206.06,-65556.82 210.55,-65554.02 205.29,-65553.41 206.06,-65556.82"/>
</g>
<!-- NamedEntityMixin -->
<g id="node6" class="node">
<title>NamedEntityMixin</title>
<g id="a_node6"><a xlink:title="A ``NamedEntityMixin`` is a mixin class for all VHDL entities that have identifiers.">
<polygon fill="white" stroke="#1e90ff" points="154.75,-65553.54 18.75,-65553.54 18.75,-65535.04 154.75,-65535.04 154.75,-65553.54"/>
<text text-anchor="middle" x="86.75" y="-65540.04" font-family="Vera Sans, DejaVu Sans, Liberation Sans, Arial, Helvetica, sans" font-size="10.00">NamedEntityMixin</text>
</a>
</g>
</g>
<!-- NamedEntityMixin&#45;&gt;DesignUnit -->
<g id="edge5" class="edge">
<title>NamedEntityMixin&#45;&gt;DesignUnit</title>
<path fill="none" stroke="black" stroke-width="0.5" d="M154.89,-65544.29C170.96,-65544.29 187.86,-65544.29 203.06,-65544.29"/>
<polygon fill="black" stroke="black" stroke-width="0.5" points="204.02,-65546.04 209.02,-65544.29 204.02,-65542.54 204.02,-65546.04"/>
</g>
<!-- DocumentedEntityMixin -->
<g id="node7" class="node">
<title>DocumentedEntityMixin</title>
<g id="a_node7"><a xlink:title="A ``DocumentedEntityMixin`` is a mixin class for all VHDL entities that can have an associated documentation.">
<polygon fill="white" stroke="#1e90ff" points="173.5,-65516.54 0,-65516.54 0,-65498.04 173.5,-65498.04 173.5,-65516.54"/>
<text text-anchor="middle" x="86.75" y="-65503.04" font-family="Vera Sans, DejaVu Sans, Liberation Sans, Arial, Helvetica, sans" font-size="10.00">DocumentedEntityMixin</text>
</a>
</g>
</g>
<!-- DocumentedEntityMixin&#45;&gt;DesignUnit -->
<g id="edge6" class="edge">
<title>DocumentedEntityMixin&#45;&gt;DesignUnit</title>
<path fill="none" stroke="black" stroke-width="0.5" d="M131.82,-65517.04C145.21,-65520 159.96,-65523.28 173.5,-65526.29 183.64,-65528.55 194.5,-65530.97 204.86,-65533.29"/>
<polygon fill="black" stroke="black" stroke-width="0.5" points="205.29,-65535.18 210.55,-65534.56 206.06,-65531.76 205.29,-65535.18"/>
</g>
</g>
</svg>
