<?xml version="1.0" encoding="UTF-8" standalone="no"?>
<!DOCTYPE svg PUBLIC "-//W3C//DTD SVG 1.1//EN"
 "http://www.w3.org/Graphics/SVG/1.1/DTD/svg11.dtd">
<!-- Generated by graphviz version 8.0.5 (20230430.1635)
 -->
<!-- Title: inheritancea94ecf2810 Pages: 1 -->
<svg width="1pt" height="864pt"
 viewBox="0.00 0.00 1.10 864.00" xmlns="http://www.w3.org/2000/svg" xmlns:xlink="http://www.w3.org/1999/xlink">
<g id="graph0" class="graph" transform="scale(0.00173043 0.00173043) rotate(0) translate(4 499293.18)">
<title>inheritancea94ecf2810</title>
<!-- BracketToken -->
<g id="node1" class="node">
<title>BracketToken</title>
<g id="a_node1"><a xlink:href="../pyVHDLParser/pyVHDLParser.Token.Keywords.html#pyVHDLParser.Token.Keywords.BracketToken" xlink:title="Base&#45;class for all bracket tokens: ``(``, ``)``, ``[``, ``]``, ``{``, ``}``, ``&lt;`` and ``&gt;``." target="_top">
<polygon fill="white" stroke="#1e90ff" points="629.5,-249653.84 523.5,-249653.84 523.5,-249635.34 629.5,-249635.34 629.5,-249653.84"/>
<text text-anchor="middle" x="576.5" y="-249640.34" font-family="Vera Sans, DejaVu Sans, Liberation Sans, Arial, Helvetica, sans" font-size="10.00">BracketToken</text>
</a>
</g>
</g>
<!-- SpecificVHDLToken -->
<g id="node2" class="node">
<title>SpecificVHDLToken</title>
<g id="a_node2"><a xlink:href="../pyVHDLParser/pyVHDLParser.Token.Keywords.html#pyVHDLParser.Token.Keywords.SpecificVHDLToken" xlink:title="Base&#45;class for all specific tokens." target="_top">
<polygon fill="white" stroke="#1e90ff" points="487.5,-249653.84 344,-249653.84 344,-249635.34 487.5,-249635.34 487.5,-249653.84"/>
<text text-anchor="middle" x="415.75" y="-249640.34" font-family="Vera Sans, DejaVu Sans, Liberation Sans, Arial, Helvetica, sans" font-size="10.00">SpecificVHDLToken</text>
</a>
</g>
</g>
<!-- SpecificVHDLToken&#45;&gt;BracketToken -->
<g id="edge1" class="edge">
<title>SpecificVHDLToken&#45;&gt;BracketToken</title>
<path fill="none" stroke="black" stroke-width="0.5" d="M487.77,-249644.59C497.61,-249644.59 507.63,-249644.59 517.21,-249644.59"/>
<polygon fill="black" stroke="black" stroke-width="0.5" points="518.11,-249646.34 523.11,-249644.59 518.11,-249642.84 518.11,-249646.34"/>
</g>
<!-- VHDLToken -->
<g id="node3" class="node">
<title>VHDLToken</title>
<g id="a_node3"><a xlink:href="../pyVHDLParser.Token.html#pyVHDLParser.Token.VHDLToken" xlink:title="Base&#45;class for all VHDL specific tokens." target="_top">
<polygon fill="white" stroke="#1e90ff" points="308,-499289.13 224.5,-499289.13 224.5,-0.05 308,-0.05 308,-499289.13"/>
<text text-anchor="middle" x="266.25" y="-499275.63" font-family="Vera Sans, DejaVu Sans, Liberation Sans, Arial, Helvetica, sans" font-size="10.00">VHDLToken</text>
</a>
</g>
</g>
<!-- VHDLToken&#45;&gt;SpecificVHDLToken -->
<g id="edge2" class="edge">
<title>VHDLToken&#45;&gt;SpecificVHDLToken</title>
<path fill="none" stroke="black" stroke-width="0.5" d="M308.34,-249644.59C317.53,-249644.59 327.57,-249644.59 337.69,-249644.59"/>
<polygon fill="black" stroke="black" stroke-width="0.5" points="338.66,-249646.34 343.66,-249644.59 338.66,-249642.84 338.66,-249646.34"/>
</g>
<!-- Token -->
<g id="node4" class="node">
<title>Token</title>
<g id="a_node4"><a xlink:href="../pyVHDLParser.Token.html#pyVHDLParser.Token.Token" xlink:title="Base&#45;class for all token classes." target="_top">
<polygon fill="white" stroke="#1e90ff" points="54,-499289.18 0,-499289.18 0,0 54,0 54,-499289.18"/>
<text text-anchor="middle" x="27" y="-499275.68" font-family="Vera Sans, DejaVu Sans, Liberation Sans, Arial, Helvetica, sans" font-size="10.00">Token</text>
</a>
</g>
</g>
<!-- ValuedToken -->
<g id="node5" class="node">
<title>ValuedToken</title>
<g id="a_node5"><a xlink:href="../pyVHDLParser.Token.html#pyVHDLParser.Token.ValuedToken" xlink:title="Base&#45;class for all *valued* token." target="_top">
<polygon fill="white" stroke="#1e90ff" points="188.5,-249653.84 90,-249653.84 90,-249635.34 188.5,-249635.34 188.5,-249653.84"/>
<text text-anchor="middle" x="139.25" y="-249640.34" font-family="Vera Sans, DejaVu Sans, Liberation Sans, Arial, Helvetica, sans" font-size="10.00">ValuedToken</text>
</a>
</g>
</g>
<!-- Token&#45;&gt;ValuedToken -->
<g id="edge4" class="edge">
<title>Token&#45;&gt;ValuedToken</title>
<path fill="none" stroke="black" stroke-width="0.5" d="M54.41,-249644.59C63.25,-249644.59 73.45,-249644.59 83.64,-249644.59"/>
<polygon fill="black" stroke="black" stroke-width="0.5" points="84.62,-249646.34 89.62,-249644.59 84.62,-249642.84 84.62,-249646.34"/>
</g>
<!-- ValuedToken&#45;&gt;VHDLToken -->
<g id="edge3" class="edge">
<title>ValuedToken&#45;&gt;VHDLToken</title>
<path fill="none" stroke="black" stroke-width="0.5" d="M188.94,-249644.59C198.59,-249644.59 208.7,-249644.59 218.29,-249644.59"/>
<polygon fill="black" stroke="black" stroke-width="0.5" points="219.19,-249646.34 224.19,-249644.59 219.19,-249642.84 219.19,-249646.34"/>
</g>
</g>
</svg>
