<?xml version="1.0" encoding="UTF-8" standalone="no"?>
<!DOCTYPE svg PUBLIC "-//W3C//DTD SVG 1.1//EN"
 "http://www.w3.org/Graphics/SVG/1.1/DTD/svg11.dtd">
<!-- Generated by graphviz version 8.0.5 (20230430.1635)
 -->
<!-- Title: inheritance1cdb75d5ee Pages: 1 -->
<svg width="1pt" height="864pt"
 viewBox="0.00 0.00 0.53 864.00" xmlns="http://www.w3.org/2000/svg" xmlns:xlink="http://www.w3.org/1999/xlink">
<g id="graph0" class="graph" transform="scale(0.00080009 0.00080009) rotate(0) translate(4 1079874.18)">
<title>inheritance1cdb75d5ee</title>
<!-- SimpleNameToken -->
<g id="node1" class="node">
<title>SimpleNameToken</title>
<g id="a_node1"><a xlink:href="../pyVHDLParser/pyVHDLParser.Token.Keywords.html#pyVHDLParser.Token.Keywords.SimpleNameToken" xlink:title="SimpleNameToken" target="_top">
<polygon fill="white" stroke="#1e90ff" points="652,-539944.34 523.5,-539944.34 523.5,-539925.84 652,-539925.84 652,-539944.34"/>
<text text-anchor="middle" x="587.75" y="-539930.84" font-family="Vera Sans, DejaVu Sans, Liberation Sans, Arial, Helvetica, sans" font-size="10.00">SimpleNameToken</text>
</a>
</g>
</g>
<!-- SpecificVHDLToken -->
<g id="node2" class="node">
<title>SpecificVHDLToken</title>
<g id="a_node2"><a xlink:href="../pyVHDLParser/pyVHDLParser.Token.Keywords.html#pyVHDLParser.Token.Keywords.SpecificVHDLToken" xlink:title="Base&#45;class for all specific tokens." target="_top">
<polygon fill="white" stroke="#1e90ff" points="487.5,-539944.34 344,-539944.34 344,-539925.84 487.5,-539925.84 487.5,-539944.34"/>
<text text-anchor="middle" x="415.75" y="-539930.84" font-family="Vera Sans, DejaVu Sans, Liberation Sans, Arial, Helvetica, sans" font-size="10.00">SpecificVHDLToken</text>
</a>
</g>
</g>
<!-- SpecificVHDLToken&#45;&gt;SimpleNameToken -->
<g id="edge1" class="edge">
<title>SpecificVHDLToken&#45;&gt;SimpleNameToken</title>
<path fill="none" stroke="black" stroke-width="0.5" d="M487.86,-539935.09C497.58,-539935.09 507.55,-539935.09 517.24,-539935.09"/>
<polygon fill="black" stroke="black" stroke-width="0.5" points="518.23,-539936.84 523.23,-539935.09 518.23,-539933.34 518.23,-539936.84"/>
</g>
<!-- VHDLToken -->
<g id="node3" class="node">
<title>VHDLToken</title>
<g id="a_node3"><a xlink:href="../pyVHDLParser.Token.html#pyVHDLParser.Token.VHDLToken" xlink:title="Base&#45;class for all VHDL specific tokens." target="_top">
<polygon fill="white" stroke="#1e90ff" points="308,-1079870.13 224.5,-1079870.13 224.5,-0.05 308,-0.05 308,-1079870.13"/>
<text text-anchor="middle" x="266.25" y="-1079856.63" font-family="Vera Sans, DejaVu Sans, Liberation Sans, Arial, Helvetica, sans" font-size="10.00">VHDLToken</text>
</a>
</g>
</g>
<!-- VHDLToken&#45;&gt;SpecificVHDLToken -->
<g id="edge2" class="edge">
<title>VHDLToken&#45;&gt;SpecificVHDLToken</title>
<path fill="none" stroke="black" stroke-width="0.5" d="M308.34,-539935.09C317.53,-539935.09 327.57,-539935.09 337.69,-539935.09"/>
<polygon fill="black" stroke="black" stroke-width="0.5" points="338.66,-539936.84 343.66,-539935.09 338.66,-539933.34 338.66,-539936.84"/>
</g>
<!-- Token -->
<g id="node4" class="node">
<title>Token</title>
<g id="a_node4"><a xlink:href="../pyVHDLParser.Token.html#pyVHDLParser.Token.Token" xlink:title="Base&#45;class for all token classes." target="_top">
<polygon fill="white" stroke="#1e90ff" points="54,-1079870.18 0,-1079870.18 0,0 54,0 54,-1079870.18"/>
<text text-anchor="middle" x="27" y="-1079856.68" font-family="Vera Sans, DejaVu Sans, Liberation Sans, Arial, Helvetica, sans" font-size="10.00">Token</text>
</a>
</g>
</g>
<!-- ValuedToken -->
<g id="node5" class="node">
<title>ValuedToken</title>
<g id="a_node5"><a xlink:href="../pyVHDLParser.Token.html#pyVHDLParser.Token.ValuedToken" xlink:title="Base&#45;class for all *valued* token." target="_top">
<polygon fill="white" stroke="#1e90ff" points="188.5,-539944.34 90,-539944.34 90,-539925.84 188.5,-539925.84 188.5,-539944.34"/>
<text text-anchor="middle" x="139.25" y="-539930.84" font-family="Vera Sans, DejaVu Sans, Liberation Sans, Arial, Helvetica, sans" font-size="10.00">ValuedToken</text>
</a>
</g>
</g>
<!-- Token&#45;&gt;ValuedToken -->
<g id="edge4" class="edge">
<title>Token&#45;&gt;ValuedToken</title>
<path fill="none" stroke="black" stroke-width="0.5" d="M54.41,-539935.09C63.25,-539935.09 73.45,-539935.09 83.64,-539935.09"/>
<polygon fill="black" stroke="black" stroke-width="0.5" points="84.62,-539936.84 89.62,-539935.09 84.62,-539933.34 84.62,-539936.84"/>
</g>
<!-- ValuedToken&#45;&gt;VHDLToken -->
<g id="edge3" class="edge">
<title>ValuedToken&#45;&gt;VHDLToken</title>
<path fill="none" stroke="black" stroke-width="0.5" d="M188.94,-539935.09C198.59,-539935.09 208.7,-539935.09 218.29,-539935.09"/>
<polygon fill="black" stroke="black" stroke-width="0.5" points="219.19,-539936.84 224.19,-539935.09 219.19,-539933.34 219.19,-539936.84"/>
</g>
</g>
</svg>
