<?xml version="1.0" encoding="UTF-8" standalone="no"?>
<!DOCTYPE svg PUBLIC "-//W3C//DTD SVG 1.1//EN"
 "http://www.w3.org/Graphics/SVG/1.1/DTD/svg11.dtd">
<!-- Generated by graphviz version 8.0.5 (20230430.1635)
 -->
<!-- Title: inheritancef7d2cb61ee Pages: 1 -->
<svg width="1pt" height="864pt"
 viewBox="0.00 0.00 0.65 864.00" xmlns="http://www.w3.org/2000/svg" xmlns:xlink="http://www.w3.org/1999/xlink">
<g id="graph0" class="graph" transform="scale(0.00110863 0.00110863) rotate(0) translate(4 779334.19)">
<title>inheritancef7d2cb61ee</title>
<!-- EndKeyword -->
<g id="node1" class="node">
<title>EndKeyword</title>
<g id="a_node1"><a xlink:href="../pyVHDLParser/pyVHDLParser.Token.Keywords.html#pyVHDLParser.Token.Keywords.EndKeyword" xlink:title="EndKeyword" target="_top">
<polygon fill="white" stroke="#1e90ff" points="577,-389674.34 486,-389674.34 486,-389655.84 577,-389655.84 577,-389674.34"/>
<text text-anchor="middle" x="531.5" y="-389660.84" font-family="Vera Sans, DejaVu Sans, Liberation Sans, Arial, Helvetica, sans" font-size="10.00">EndKeyword</text>
</a>
</g>
</g>
<!-- KeywordToken -->
<g id="node2" class="node">
<title>KeywordToken</title>
<g id="a_node2"><a xlink:href="../pyVHDLParser/pyVHDLParser.Token.Keywords.html#pyVHDLParser.Token.Keywords.KeywordToken" xlink:title="KeywordToken" target="_top">
<polygon fill="white" stroke="#1e90ff" points="450,-389674.34 344,-389674.34 344,-389655.84 450,-389655.84 450,-389674.34"/>
<text text-anchor="middle" x="397" y="-389660.84" font-family="Vera Sans, DejaVu Sans, Liberation Sans, Arial, Helvetica, sans" font-size="10.00">KeywordToken</text>
</a>
</g>
</g>
<!-- KeywordToken&#45;&gt;EndKeyword -->
<g id="edge1" class="edge">
<title>KeywordToken&#45;&gt;EndKeyword</title>
<path fill="none" stroke="black" stroke-width="0.5" d="M450.37,-389665.09C460.07,-389665.09 470.19,-389665.09 479.84,-389665.09"/>
<polygon fill="black" stroke="black" stroke-width="0.5" points="480.79,-389666.84 485.79,-389665.09 480.79,-389663.34 480.79,-389666.84"/>
</g>
<!-- VHDLToken -->
<g id="node3" class="node">
<title>VHDLToken</title>
<g id="a_node3"><a xlink:href="../pyVHDLParser.Token.html#pyVHDLParser.Token.VHDLToken" xlink:title="Base&#45;class for all VHDL specific tokens." target="_top">
<polygon fill="white" stroke="#1e90ff" points="308,-779330.14 224.5,-779330.14 224.5,-0.05 308,-0.05 308,-779330.14"/>
<text text-anchor="middle" x="266.25" y="-779316.64" font-family="Vera Sans, DejaVu Sans, Liberation Sans, Arial, Helvetica, sans" font-size="10.00">VHDLToken</text>
</a>
</g>
</g>
<!-- VHDLToken&#45;&gt;KeywordToken -->
<g id="edge2" class="edge">
<title>VHDLToken&#45;&gt;KeywordToken</title>
<path fill="none" stroke="black" stroke-width="0.5" d="M308.34,-389665.09C317.69,-389665.09 327.8,-389665.09 337.71,-389665.09"/>
<polygon fill="black" stroke="black" stroke-width="0.5" points="338.52,-389666.84 343.52,-389665.09 338.52,-389663.34 338.52,-389666.84"/>
</g>
<!-- Token -->
<g id="node4" class="node">
<title>Token</title>
<g id="a_node4"><a xlink:href="../pyVHDLParser.Token.html#pyVHDLParser.Token.Token" xlink:title="Base&#45;class for all token classes." target="_top">
<polygon fill="white" stroke="#1e90ff" points="54,-779330.19 0,-779330.19 0,0 54,0 54,-779330.19"/>
<text text-anchor="middle" x="27" y="-779316.69" font-family="Vera Sans, DejaVu Sans, Liberation Sans, Arial, Helvetica, sans" font-size="10.00">Token</text>
</a>
</g>
</g>
<!-- ValuedToken -->
<g id="node5" class="node">
<title>ValuedToken</title>
<g id="a_node5"><a xlink:href="../pyVHDLParser.Token.html#pyVHDLParser.Token.ValuedToken" xlink:title="Base&#45;class for all *valued* token." target="_top">
<polygon fill="white" stroke="#1e90ff" points="188.5,-389679.84 90,-389679.84 90,-389650.35 188.5,-389650.35 188.5,-389679.84"/>
<text text-anchor="middle" x="139.25" y="-389666.34" font-family="Vera Sans, DejaVu Sans, Liberation Sans, Arial, Helvetica, sans" font-size="10.00">ValuedToken</text>
</a>
</g>
</g>
<!-- Token&#45;&gt;ValuedToken -->
<g id="edge4" class="edge">
<title>Token&#45;&gt;ValuedToken</title>
<path fill="none" stroke="black" stroke-width="0.5" d="M54.41,-389665.09C63.25,-389665.09 73.45,-389665.09 83.64,-389665.09"/>
<polygon fill="black" stroke="black" stroke-width="0.5" points="84.62,-389666.84 89.62,-389665.09 84.62,-389663.34 84.62,-389666.84"/>
</g>
<!-- ValuedToken&#45;&gt;VHDLToken -->
<g id="edge3" class="edge">
<title>ValuedToken&#45;&gt;VHDLToken</title>
<path fill="none" stroke="black" stroke-width="0.5" d="M188.94,-389665.09C198.59,-389665.09 208.7,-389665.09 218.29,-389665.09"/>
<polygon fill="black" stroke="black" stroke-width="0.5" points="219.19,-389666.84 224.19,-389665.09 219.19,-389663.34 219.19,-389666.84"/>
</g>
</g>
</svg>
