<?xml version="1.0" encoding="UTF-8" standalone="no"?>
<!DOCTYPE svg PUBLIC "-//W3C//DTD SVG 1.1//EN"
 "http://www.w3.org/Graphics/SVG/1.1/DTD/svg11.dtd">
<!-- Generated by graphviz version 8.0.5 (20230430.1635)
 -->
<!-- Title: inheritance1e805d6b63 Pages: 1 -->
<svg width="1pt" height="864pt"
 viewBox="0.00 0.00 0.66 864.00" xmlns="http://www.w3.org/2000/svg" xmlns:xlink="http://www.w3.org/1999/xlink">
<g id="graph0" class="graph" transform="scale(0.000757665 0.000757665) rotate(0) translate(4 1140342.06)">
<title>inheritance1e805d6b63</title>
<!-- KeywordToken -->
<g id="node1" class="node">
<title>KeywordToken</title>
<g id="a_node1"><a xlink:href="../pyVHDLParser/pyVHDLParser.Token.Keywords.html#pyVHDLParser.Token.Keywords.KeywordToken" xlink:title="KeywordToken" target="_top">
<polygon fill="white" stroke="#1e90ff" points="450,-570178.28 344,-570178.28 344,-570159.78 450,-570159.78 450,-570178.28"/>
<text text-anchor="middle" x="397" y="-570164.78" font-family="Vera Sans, DejaVu Sans, Liberation Sans, Arial, Helvetica, sans" font-size="10.00">KeywordToken</text>
</a>
</g>
</g>
<!-- Operator -->
<g id="node4" class="node">
<title>Operator</title>
<g id="a_node4"><a xlink:href="../pyVHDLParser/pyVHDLParser.Token.Keywords.html#pyVHDLParser.Token.Keywords.Operator" xlink:title="Operator" target="_top">
<polygon fill="white" stroke="#1e90ff" points="562,-570178.28 486,-570178.28 486,-570159.78 562,-570159.78 562,-570178.28"/>
<text text-anchor="middle" x="524" y="-570164.78" font-family="Vera Sans, DejaVu Sans, Liberation Sans, Arial, Helvetica, sans" font-size="10.00">Operator</text>
</a>
</g>
</g>
<!-- KeywordToken&#45;&gt;Operator -->
<g id="edge4" class="edge">
<title>KeywordToken&#45;&gt;Operator</title>
<path fill="none" stroke="black" stroke-width="0.5" d="M450.29,-570169.03C460.15,-570169.03 470.36,-570169.03 479.9,-570169.03"/>
<polygon fill="black" stroke="black" stroke-width="0.5" points="480.74,-570170.78 485.74,-570169.03 480.74,-570167.28 480.74,-570170.78"/>
</g>
<!-- VHDLToken -->
<g id="node2" class="node">
<title>VHDLToken</title>
<g id="a_node2"><a xlink:href="../pyVHDLParser.Token.html#pyVHDLParser.Token.VHDLToken" xlink:title="Base&#45;class for all VHDL specific tokens." target="_top">
<polygon fill="white" stroke="#1e90ff" points="308,-1140338.06 224.5,-1140338.06 224.5,0 308,0 308,-1140338.06"/>
<text text-anchor="middle" x="266.25" y="-1140324.56" font-family="Vera Sans, DejaVu Sans, Liberation Sans, Arial, Helvetica, sans" font-size="10.00">VHDLToken</text>
</a>
</g>
</g>
<!-- VHDLToken&#45;&gt;KeywordToken -->
<g id="edge1" class="edge">
<title>VHDLToken&#45;&gt;KeywordToken</title>
<path fill="none" stroke="black" stroke-width="0.5" d="M308.34,-570169.03C317.69,-570169.03 327.8,-570169.03 337.71,-570169.03"/>
<polygon fill="black" stroke="black" stroke-width="0.5" points="338.52,-570170.78 343.52,-570169.03 338.52,-570167.28 338.52,-570170.78"/>
</g>
<!-- LogicalOperator -->
<g id="node3" class="node">
<title>LogicalOperator</title>
<g id="a_node3"><a xlink:href="../pyVHDLParser/pyVHDLParser.Token.Keywords.html#pyVHDLParser.Token.Keywords.LogicalOperator" xlink:title="LogicalOperator" target="_top">
<polygon fill="white" stroke="#1e90ff" points="726.5,-1140333.86 598,-1140333.86 598,-4.2 726.5,-4.2 726.5,-1140333.86"/>
<text text-anchor="middle" x="662.25" y="-1140320.36" font-family="Vera Sans, DejaVu Sans, Liberation Sans, Arial, Helvetica, sans" font-size="10.00">LogicalOperator</text>
</a>
</g>
</g>
<!-- NorOperator -->
<g id="node5" class="node">
<title>NorOperator</title>
<g id="a_node5"><a xlink:href="../pyVHDLParser/pyVHDLParser.Token.Keywords.html#pyVHDLParser.Token.Keywords.NorOperator" xlink:title="NorOperator" target="_top">
<polygon fill="white" stroke="#1e90ff" points="861,-570178.28 762.5,-570178.28 762.5,-570159.78 861,-570159.78 861,-570178.28"/>
<text text-anchor="middle" x="811.75" y="-570164.78" font-family="Vera Sans, DejaVu Sans, Liberation Sans, Arial, Helvetica, sans" font-size="10.00">NorOperator</text>
</a>
</g>
</g>
<!-- LogicalOperator&#45;&gt;NorOperator -->
<g id="edge3" class="edge">
<title>LogicalOperator&#45;&gt;NorOperator</title>
<path fill="none" stroke="black" stroke-width="0.5" d="M726.66,-570169.03C736.49,-570169.03 746.57,-570169.03 756.18,-570169.03"/>
<polygon fill="black" stroke="black" stroke-width="0.5" points="757.1,-570170.78 762.1,-570169.03 757.1,-570167.28 757.1,-570170.78"/>
</g>
<!-- Operator&#45;&gt;LogicalOperator -->
<g id="edge2" class="edge">
<title>Operator&#45;&gt;LogicalOperator</title>
<path fill="none" stroke="black" stroke-width="0.5" d="M562.23,-570169.03C571.39,-570169.03 581.49,-570169.03 591.63,-570169.03"/>
<polygon fill="black" stroke="black" stroke-width="0.5" points="592.6,-570170.78 597.6,-570169.03 592.6,-570167.28 592.6,-570170.78"/>
</g>
<!-- Token -->
<g id="node6" class="node">
<title>Token</title>
<g id="a_node6"><a xlink:href="../pyVHDLParser.Token.html#pyVHDLParser.Token.Token" xlink:title="Base&#45;class for all token classes." target="_top">
<polygon fill="white" stroke="#1e90ff" points="54,-570178.28 0,-570178.28 0,-570159.78 54,-570159.78 54,-570178.28"/>
<text text-anchor="middle" x="27" y="-570164.78" font-family="Vera Sans, DejaVu Sans, Liberation Sans, Arial, Helvetica, sans" font-size="10.00">Token</text>
</a>
</g>
</g>
<!-- ValuedToken -->
<g id="node7" class="node">
<title>ValuedToken</title>
<g id="a_node7"><a xlink:href="../pyVHDLParser.Token.html#pyVHDLParser.Token.ValuedToken" xlink:title="Base&#45;class for all *valued* token." target="_top">
<polygon fill="white" stroke="#1e90ff" points="188.5,-570178.28 90,-570178.28 90,-570159.78 188.5,-570159.78 188.5,-570178.28"/>
<text text-anchor="middle" x="139.25" y="-570164.78" font-family="Vera Sans, DejaVu Sans, Liberation Sans, Arial, Helvetica, sans" font-size="10.00">ValuedToken</text>
</a>
</g>
</g>
<!-- Token&#45;&gt;ValuedToken -->
<g id="edge6" class="edge">
<title>Token&#45;&gt;ValuedToken</title>
<path fill="none" stroke="black" stroke-width="0.5" d="M54.41,-570169.03C63.25,-570169.03 73.45,-570169.03 83.64,-570169.03"/>
<polygon fill="black" stroke="black" stroke-width="0.5" points="84.62,-570170.78 89.62,-570169.03 84.62,-570167.28 84.62,-570170.78"/>
</g>
<!-- ValuedToken&#45;&gt;VHDLToken -->
<g id="edge5" class="edge">
<title>ValuedToken&#45;&gt;VHDLToken</title>
<path fill="none" stroke="black" stroke-width="0.5" d="M188.94,-570169.03C198.59,-570169.03 208.7,-570169.03 218.29,-570169.03"/>
<polygon fill="black" stroke="black" stroke-width="0.5" points="219.19,-570170.78 224.19,-570169.03 219.19,-570167.28 219.19,-570170.78"/>
</g>
</g>
</svg>
