<?xml version="1.0" encoding="UTF-8" standalone="no"?>
<!DOCTYPE svg PUBLIC "-//W3C//DTD SVG 1.1//EN"
 "http://www.w3.org/Graphics/SVG/1.1/DTD/svg11.dtd">
<!-- Generated by graphviz version 8.0.5 (20230430.1635)
 -->
<!-- Title: inheritancefb6d47ad79 Pages: 1 -->
<svg width="1pt" height="864pt"
 viewBox="0.00 0.00 1.15 864.00" xmlns="http://www.w3.org/2000/svg" xmlns:xlink="http://www.w3.org/1999/xlink">
<g id="graph0" class="graph" transform="scale(0.00127126 0.00127126) rotate(0) translate(4 679638.11)">
<title>inheritancefb6d47ad79</title>
<!-- AssociationKeyword -->
<g id="node1" class="node">
<title>AssociationKeyword</title>
<g id="a_node1"><a xlink:href="../pyVHDLParser/pyVHDLParser.Token.Keywords.html#pyVHDLParser.Token.Keywords.AssociationKeyword" xlink:title="AssociationKeyword" target="_top">
<polygon fill="white" stroke="#1e90ff" points="667,-339826.3 516,-339826.3 516,-339807.8 667,-339807.8 667,-339826.3"/>
<text text-anchor="middle" x="591.5" y="-339812.8" font-family="Vera Sans, DejaVu Sans, Liberation Sans, Arial, Helvetica, sans" font-size="10.00">AssociationKeyword</text>
</a>
</g>
</g>
<!-- SignalAssociationKeyword -->
<g id="node4" class="node">
<title>SignalAssociationKeyword</title>
<g id="a_node4"><a xlink:href="../pyVHDLParser/pyVHDLParser.Token.Keywords.html#pyVHDLParser.Token.Keywords.SignalAssociationKeyword" xlink:title="SignalAssociationKeyword" target="_top">
<polygon fill="white" stroke="#1e90ff" points="899,-339826.34 703,-339826.34 703,-339807.77 899,-339807.77 899,-339826.34"/>
<text text-anchor="middle" x="801" y="-339812.84" font-family="Vera Sans, DejaVu Sans, Liberation Sans, Arial, Helvetica, sans" font-size="10.00">SignalAssociationKeyword</text>
</a>
</g>
</g>
<!-- AssociationKeyword&#45;&gt;SignalAssociationKeyword -->
<g id="edge3" class="edge">
<title>AssociationKeyword&#45;&gt;SignalAssociationKeyword</title>
<path fill="none" stroke="black" stroke-width="0.5" d="M667.41,-339817.05C677.02,-339817.05 686.98,-339817.05 696.94,-339817.05"/>
<polygon fill="black" stroke="black" stroke-width="0.5" points="697.8,-339818.8 702.8,-339817.05 697.8,-339815.3 697.8,-339818.8"/>
</g>
<!-- MultiCharKeyword -->
<g id="node2" class="node">
<title>MultiCharKeyword</title>
<g id="a_node2"><a xlink:href="../pyVHDLParser/pyVHDLParser.Token.Keywords.html#pyVHDLParser.Token.Keywords.MultiCharKeyword" xlink:title="MultiCharKeyword" target="_top">
<polygon fill="white" stroke="#1e90ff" points="480,-339826.3 344,-339826.3 344,-339807.8 480,-339807.8 480,-339826.3"/>
<text text-anchor="middle" x="412" y="-339812.8" font-family="Vera Sans, DejaVu Sans, Liberation Sans, Arial, Helvetica, sans" font-size="10.00">MultiCharKeyword</text>
</a>
</g>
</g>
<!-- MultiCharKeyword&#45;&gt;AssociationKeyword -->
<g id="edge1" class="edge">
<title>MultiCharKeyword&#45;&gt;AssociationKeyword</title>
<path fill="none" stroke="black" stroke-width="0.5" d="M480.36,-339817.05C490.03,-339817.05 500.07,-339817.05 509.96,-339817.05"/>
<polygon fill="black" stroke="black" stroke-width="0.5" points="510.77,-339818.8 515.77,-339817.05 510.77,-339815.3 510.77,-339818.8"/>
</g>
<!-- VHDLToken -->
<g id="node3" class="node">
<title>VHDLToken</title>
<g id="a_node3"><a xlink:href="../pyVHDLParser.Token.html#pyVHDLParser.Token.VHDLToken" xlink:title="Base&#45;class for all VHDL specific tokens." target="_top">
<polygon fill="white" stroke="#1e90ff" points="308,-679634.11 224.5,-679634.11 224.5,0 308,0 308,-679634.11"/>
<text text-anchor="middle" x="266.25" y="-679620.61" font-family="Vera Sans, DejaVu Sans, Liberation Sans, Arial, Helvetica, sans" font-size="10.00">VHDLToken</text>
</a>
</g>
</g>
<!-- VHDLToken&#45;&gt;MultiCharKeyword -->
<g id="edge2" class="edge">
<title>VHDLToken&#45;&gt;MultiCharKeyword</title>
<path fill="none" stroke="black" stroke-width="0.5" d="M308.44,-339817.05C317.67,-339817.05 327.72,-339817.05 337.81,-339817.05"/>
<polygon fill="black" stroke="black" stroke-width="0.5" points="338.75,-339818.8 343.75,-339817.05 338.75,-339815.3 338.75,-339818.8"/>
</g>
<!-- Token -->
<g id="node5" class="node">
<title>Token</title>
<g id="a_node5"><a xlink:href="../pyVHDLParser.Token.html#pyVHDLParser.Token.Token" xlink:title="Base&#45;class for all token classes." target="_top">
<polygon fill="white" stroke="#1e90ff" points="54,-339830.05 0,-339830.05 0,-339804.05 54,-339804.05 54,-339830.05"/>
<text text-anchor="middle" x="27" y="-339816.55" font-family="Vera Sans, DejaVu Sans, Liberation Sans, Arial, Helvetica, sans" font-size="10.00">Token</text>
</a>
</g>
</g>
<!-- ValuedToken -->
<g id="node6" class="node">
<title>ValuedToken</title>
<g id="a_node6"><a xlink:href="../pyVHDLParser.Token.html#pyVHDLParser.Token.ValuedToken" xlink:title="Base&#45;class for all *valued* token." target="_top">
<polygon fill="white" stroke="#1e90ff" points="188.5,-339826.3 90,-339826.3 90,-339807.8 188.5,-339807.8 188.5,-339826.3"/>
<text text-anchor="middle" x="139.25" y="-339812.8" font-family="Vera Sans, DejaVu Sans, Liberation Sans, Arial, Helvetica, sans" font-size="10.00">ValuedToken</text>
</a>
</g>
</g>
<!-- Token&#45;&gt;ValuedToken -->
<g id="edge5" class="edge">
<title>Token&#45;&gt;ValuedToken</title>
<path fill="none" stroke="black" stroke-width="0.5" d="M54.41,-339817.05C63.25,-339817.05 73.45,-339817.05 83.64,-339817.05"/>
<polygon fill="black" stroke="black" stroke-width="0.5" points="84.62,-339818.8 89.62,-339817.05 84.62,-339815.3 84.62,-339818.8"/>
</g>
<!-- ValuedToken&#45;&gt;VHDLToken -->
<g id="edge4" class="edge">
<title>ValuedToken&#45;&gt;VHDLToken</title>
<path fill="none" stroke="black" stroke-width="0.5" d="M188.94,-339817.05C198.59,-339817.05 208.7,-339817.05 218.29,-339817.05"/>
<polygon fill="black" stroke="black" stroke-width="0.5" points="219.19,-339818.8 224.19,-339817.05 219.19,-339815.3 219.19,-339818.8"/>
</g>
</g>
</svg>
