<?xml version="1.0" encoding="UTF-8" standalone="no"?>
<!DOCTYPE svg PUBLIC "-//W3C//DTD SVG 1.1//EN"
 "http://www.w3.org/Graphics/SVG/1.1/DTD/svg11.dtd">
<!-- Generated by graphviz version 8.0.5 (20230430.1635)
 -->
<!-- Title: inheritancea6fe3d3aa5 Pages: 1 -->
<svg width="1pt" height="864pt"
 viewBox="0.00 0.00 1.11 864.00" xmlns="http://www.w3.org/2000/svg" xmlns:xlink="http://www.w3.org/1999/xlink">
<g id="graph0" class="graph" transform="scale(0.00183234 0.00183234) rotate(0) translate(4 471523.05)">
<title>inheritancea6fe3d3aa5</title>
<!-- AssertKeyword -->
<g id="node1" class="node">
<title>AssertKeyword</title>
<g id="a_node1"><a xlink:href="../pyVHDLParser/pyVHDLParser.Token.Keywords.html#pyVHDLParser.Token.Keywords.AssertKeyword" xlink:title="Reserved word &#39;assert&#39; for *assert*&#45;statements." target="_top">
<polygon fill="white" stroke="#1e90ff" points="599.5,-235768.78 486,-235768.78 486,-235750.28 599.5,-235750.28 599.5,-235768.78"/>
<text text-anchor="middle" x="542.75" y="-235755.28" font-family="Vera Sans, DejaVu Sans, Liberation Sans, Arial, Helvetica, sans" font-size="10.00">AssertKeyword</text>
</a>
</g>
</g>
<!-- KeywordToken -->
<g id="node2" class="node">
<title>KeywordToken</title>
<g id="a_node2"><a xlink:href="../pyVHDLParser/pyVHDLParser.Token.Keywords.html#pyVHDLParser.Token.Keywords.KeywordToken" xlink:title="KeywordToken" target="_top">
<polygon fill="white" stroke="#1e90ff" points="450,-235768.78 344,-235768.78 344,-235750.28 450,-235750.28 450,-235768.78"/>
<text text-anchor="middle" x="397" y="-235755.28" font-family="Vera Sans, DejaVu Sans, Liberation Sans, Arial, Helvetica, sans" font-size="10.00">KeywordToken</text>
</a>
</g>
</g>
<!-- KeywordToken&#45;&gt;AssertKeyword -->
<g id="edge1" class="edge">
<title>KeywordToken&#45;&gt;AssertKeyword</title>
<path fill="none" stroke="black" stroke-width="0.5" d="M450.3,-235759.53C459.97,-235759.53 470.14,-235759.53 480.05,-235759.53"/>
<polygon fill="black" stroke="black" stroke-width="0.5" points="480.85,-235761.28 485.85,-235759.53 480.85,-235757.78 480.85,-235761.28"/>
</g>
<!-- VHDLToken -->
<g id="node3" class="node">
<title>VHDLToken</title>
<g id="a_node3"><a xlink:href="../pyVHDLParser.Token.html#pyVHDLParser.Token.VHDLToken" xlink:title="Base&#45;class for all VHDL specific tokens." target="_top">
<polygon fill="white" stroke="#1e90ff" points="308,-471519.05 224.5,-471519.05 224.5,0 308,0 308,-471519.05"/>
<text text-anchor="middle" x="266.25" y="-471505.55" font-family="Vera Sans, DejaVu Sans, Liberation Sans, Arial, Helvetica, sans" font-size="10.00">VHDLToken</text>
</a>
</g>
</g>
<!-- VHDLToken&#45;&gt;KeywordToken -->
<g id="edge2" class="edge">
<title>VHDLToken&#45;&gt;KeywordToken</title>
<path fill="none" stroke="black" stroke-width="0.5" d="M308.34,-235759.53C317.69,-235759.53 327.8,-235759.53 337.71,-235759.53"/>
<polygon fill="black" stroke="black" stroke-width="0.5" points="338.52,-235761.28 343.52,-235759.53 338.52,-235757.78 338.52,-235761.28"/>
</g>
<!-- Token -->
<g id="node4" class="node">
<title>Token</title>
<g id="a_node4"><a xlink:href="../pyVHDLParser.Token.html#pyVHDLParser.Token.Token" xlink:title="Base&#45;class for all token classes." target="_top">
<polygon fill="white" stroke="#1e90ff" points="54,-471519.01 0,-471519.01 0,-0.05 54,-0.05 54,-471519.01"/>
<text text-anchor="middle" x="27" y="-471505.51" font-family="Vera Sans, DejaVu Sans, Liberation Sans, Arial, Helvetica, sans" font-size="10.00">Token</text>
</a>
</g>
</g>
<!-- ValuedToken -->
<g id="node5" class="node">
<title>ValuedToken</title>
<g id="a_node5"><a xlink:href="../pyVHDLParser.Token.html#pyVHDLParser.Token.ValuedToken" xlink:title="Base&#45;class for all *valued* token." target="_top">
<polygon fill="white" stroke="#1e90ff" points="188.5,-235768.78 90,-235768.78 90,-235750.28 188.5,-235750.28 188.5,-235768.78"/>
<text text-anchor="middle" x="139.25" y="-235755.28" font-family="Vera Sans, DejaVu Sans, Liberation Sans, Arial, Helvetica, sans" font-size="10.00">ValuedToken</text>
</a>
</g>
</g>
<!-- Token&#45;&gt;ValuedToken -->
<g id="edge4" class="edge">
<title>Token&#45;&gt;ValuedToken</title>
<path fill="none" stroke="black" stroke-width="0.5" d="M54.41,-235759.53C63.25,-235759.53 73.45,-235759.53 83.64,-235759.53"/>
<polygon fill="black" stroke="black" stroke-width="0.5" points="84.62,-235761.28 89.62,-235759.53 84.62,-235757.78 84.62,-235761.28"/>
</g>
<!-- ValuedToken&#45;&gt;VHDLToken -->
<g id="edge3" class="edge">
<title>ValuedToken&#45;&gt;VHDLToken</title>
<path fill="none" stroke="black" stroke-width="0.5" d="M188.94,-235759.53C198.59,-235759.53 208.7,-235759.53 218.29,-235759.53"/>
<polygon fill="black" stroke="black" stroke-width="0.5" points="219.19,-235761.28 224.19,-235759.53 219.19,-235757.78 219.19,-235761.28"/>
</g>
</g>
</svg>
