<?xml version="1.0" encoding="UTF-8" standalone="no"?>
<!DOCTYPE svg PUBLIC "-//W3C//DTD SVG 1.1//EN"
 "http://www.w3.org/Graphics/SVG/1.1/DTD/svg11.dtd">
<!-- Generated by graphviz version 8.0.5 (20230430.1635)
 -->
<!-- Title: inheritance4e0e4303f5 Pages: 1 -->
<svg width="58pt" height="864pt"
 viewBox="0.00 0.00 57.78 864.00" xmlns="http://www.w3.org/2000/svg" xmlns:xlink="http://www.w3.org/1999/xlink">
<g id="graph0" class="graph" transform="scale(0.191954 0.191954) rotate(0) translate(4 4497.07)">
<title>inheritance4e0e4303f5</title>
<!-- Block -->
<g id="node1" class="node">
<title>Block</title>
<g id="a_node1"><a xlink:href="../pyVHDLParser.Blocks.html#pyVHDLParser.Blocks.Block" xlink:title="Base&#45;class for all :term:`block` classes." target="_top">
<polygon fill="white" stroke="#1e90ff" points="54,-4493.07 0,-4493.07 0,0 54,0 54,-4493.07"/>
<text text-anchor="middle" x="27" y="-4479.57" font-family="Vera Sans, DejaVu Sans, Liberation Sans, Arial, Helvetica, sans" font-size="10.00">Block</text>
</a>
</g>
</g>
<!-- FinalBlock -->
<g id="node3" class="node">
<title>FinalBlock</title>
<g id="a_node3"><a xlink:href="../pyVHDLParser.Blocks.html#pyVHDLParser.Blocks.FinalBlock" xlink:title="Base&#45;class for blocks that are final in a fast&#45;forward scanning." target="_top">
<polygon fill="white" stroke="#1e90ff" points="181,-2255.79 90,-2255.79 90,-2237.29 181,-2237.29 181,-2255.79"/>
<text text-anchor="middle" x="135.5" y="-2242.29" font-family="Vera Sans, DejaVu Sans, Liberation Sans, Arial, Helvetica, sans" font-size="10.00">FinalBlock</text>
</a>
</g>
</g>
<!-- Block&#45;&gt;FinalBlock -->
<g id="edge3" class="edge">
<title>Block&#45;&gt;FinalBlock</title>
<path fill="none" stroke="black" stroke-width="0.5" d="M54.33,-2246.54C63.29,-2246.54 73.62,-2246.54 83.84,-2246.54"/>
<polygon fill="black" stroke="black" stroke-width="0.5" points="84.82,-2248.29 89.82,-2246.54 84.82,-2244.79 84.82,-2248.29"/>
</g>
<!-- EndBlock -->
<g id="node2" class="node">
<title>EndBlock</title>
<g id="a_node2"><a xlink:href="../pyVHDLParser/pyVHDLParser.Blocks.Reference.Context.html#pyVHDLParser.Blocks.Reference.Context.EndBlock" xlink:title="EndBlock" target="_top">
<polygon fill="white" stroke="#1e90ff" points="293,-2255.79 217,-2255.79 217,-2237.28 293,-2237.28 293,-2255.79"/>
<text text-anchor="middle" x="255" y="-2242.29" font-family="Vera Sans, DejaVu Sans, Liberation Sans, Arial, Helvetica, sans" font-size="10.00">EndBlock</text>
</a>
</g>
</g>
<!-- EndBlock&#45;&gt;EndBlock -->
<g id="edge2" class="edge">
<title>EndBlock&#45;&gt;EndBlock</title>
<path fill="none" stroke="black" stroke-width="0.5" d="M236.58,-2256.03C227.62,-2264.6 233.76,-2273.79 255,-2273.79 272.26,-2273.79 279.55,-2267.72 276.87,-2260.85"/>
<polygon fill="black" stroke="black" stroke-width="0.5" points="277.75,-2259.08 273.42,-2256.03 274.9,-2261.12 277.75,-2259.08"/>
</g>
<!-- FinalBlock&#45;&gt;EndBlock -->
<g id="edge1" class="edge">
<title>FinalBlock&#45;&gt;EndBlock</title>
<path fill="none" stroke="black" stroke-width="0.5" d="M181.26,-2246.54C190.92,-2246.54 201.13,-2246.54 210.74,-2246.54"/>
<polygon fill="black" stroke="black" stroke-width="0.5" points="211.63,-2248.29 216.63,-2246.54 211.63,-2244.79 211.63,-2248.29"/>
</g>
</g>
</svg>
