<?xml version="1.0" encoding="UTF-8" standalone="no"?>
<!DOCTYPE svg PUBLIC "-//W3C//DTD SVG 1.1//EN"
 "http://www.w3.org/Graphics/SVG/1.1/DTD/svg11.dtd">
<!-- Generated by graphviz version 8.0.5 (20230430.1635)
 -->
<!-- Title: inheritance4946b76910 Pages: 1 -->
<svg width="1pt" height="864pt"
 viewBox="0.00 0.00 0.76 864.00" xmlns="http://www.w3.org/2000/svg" xmlns:xlink="http://www.w3.org/1999/xlink">
<g id="graph0" class="graph" transform="scale(0.0007213 0.0007213) rotate(0) translate(4 1197832.75)">
<title>inheritance4946b76910</title>
<!-- BracketToken -->
<g id="node1" class="node">
<title>BracketToken</title>
<g id="a_node1"><a xlink:href="../pyVHDLParser/pyVHDLParser.Token.Keywords.html#pyVHDLParser.Token.Keywords.BracketToken" xlink:title="Base&#45;class for all bracket tokens: ``(``, ``)``, ``[``, ``]``, ``{``, ``}``, ``&lt;`` and ``&gt;``." target="_top">
<polygon fill="white" stroke="#1e90ff" points="629.5,-1197828.75 523.5,-1197828.75 523.5,0 629.5,0 629.5,-1197828.75"/>
<text text-anchor="middle" x="576.5" y="-1197815.25" font-family="Vera Sans, DejaVu Sans, Liberation Sans, Arial, Helvetica, sans" font-size="10.00">BracketToken</text>
</a>
</g>
</g>
<!-- CurlyBracketToken -->
<g id="node3" class="node">
<title>CurlyBracketToken</title>
<g id="a_node3"><a xlink:href="../pyVHDLParser/pyVHDLParser.Token.Keywords.html#pyVHDLParser.Token.Keywords.CurlyBracketToken" xlink:title="Base&#45;class for all curly bracket tokens: ``{`` and ``}``." target="_top">
<polygon fill="white" stroke="#1e90ff" points="809,-976903.62 665.5,-976903.62 665.5,-220925.13 809,-220925.13 809,-976903.62"/>
<text text-anchor="middle" x="737.25" y="-976890.12" font-family="Vera Sans, DejaVu Sans, Liberation Sans, Arial, Helvetica, sans" font-size="10.00">CurlyBracketToken</text>
</a>
</g>
</g>
<!-- BracketToken&#45;&gt;CurlyBracketToken -->
<g id="edge2" class="edge">
<title>BracketToken&#45;&gt;CurlyBracketToken</title>
<path fill="none" stroke="black" stroke-width="0.5" d="M629.92,-598914.37C639.36,-598914.37 649.37,-598914.37 659.33,-598914.37"/>
<polygon fill="black" stroke="black" stroke-width="0.5" points="660.19,-598916.12 665.19,-598914.37 660.19,-598912.62 660.19,-598916.12"/>
</g>
<!-- SpecificVHDLToken -->
<g id="node2" class="node">
<title>SpecificVHDLToken</title>
<g id="a_node2"><a xlink:href="../pyVHDLParser/pyVHDLParser.Token.Keywords.html#pyVHDLParser.Token.Keywords.SpecificVHDLToken" xlink:title="Base&#45;class for all specific tokens." target="_top">
<polygon fill="white" stroke="#1e90ff" points="487.5,-976896.92 344,-976896.92 344,-220931.83 487.5,-220931.83 487.5,-976896.92"/>
<text text-anchor="middle" x="415.75" y="-976883.42" font-family="Vera Sans, DejaVu Sans, Liberation Sans, Arial, Helvetica, sans" font-size="10.00">SpecificVHDLToken</text>
</a>
</g>
</g>
<!-- SpecificVHDLToken&#45;&gt;BracketToken -->
<g id="edge1" class="edge">
<title>SpecificVHDLToken&#45;&gt;BracketToken</title>
<path fill="none" stroke="black" stroke-width="0.5" d="M487.77,-598914.37C497.61,-598914.37 507.63,-598914.37 517.21,-598914.37"/>
<polygon fill="black" stroke="black" stroke-width="0.5" points="518.11,-598916.12 523.11,-598914.37 518.11,-598912.62 518.11,-598916.12"/>
</g>
<!-- OpeningCurlyBracketToken -->
<g id="node4" class="node">
<title>OpeningCurlyBracketToken</title>
<g id="a_node4"><a xlink:href="../pyVHDLParser/pyVHDLParser.Token.Keywords.html#pyVHDLParser.Token.Keywords.OpeningCurlyBracketToken" xlink:title="Token representing an opening curly bracket: ``{``." target="_top">
<polygon fill="white" stroke="#1e90ff" points="1041,-598923.62 845,-598923.62 845,-598905.12 1041,-598905.12 1041,-598923.62"/>
<text text-anchor="middle" x="943" y="-598910.12" font-family="Vera Sans, DejaVu Sans, Liberation Sans, Arial, Helvetica, sans" font-size="10.00">OpeningCurlyBracketToken</text>
</a>
</g>
</g>
<!-- CurlyBracketToken&#45;&gt;OpeningCurlyBracketToken -->
<g id="edge3" class="edge">
<title>CurlyBracketToken&#45;&gt;OpeningCurlyBracketToken</title>
<path fill="none" stroke="black" stroke-width="0.5" d="M809.23,-598914.37C818.83,-598914.37 828.83,-598914.37 838.85,-598914.37"/>
<polygon fill="black" stroke="black" stroke-width="0.5" points="839.75,-598916.12 844.75,-598914.37 839.75,-598912.62 839.75,-598916.12"/>
</g>
<!-- VHDLToken -->
<g id="node5" class="node">
<title>VHDLToken</title>
<g id="a_node5"><a xlink:href="../pyVHDLParser.Token.html#pyVHDLParser.Token.VHDLToken" xlink:title="Base&#45;class for all VHDL specific tokens." target="_top">
<polygon fill="white" stroke="#1e90ff" points="308,-598923.62 224.5,-598923.62 224.5,-598905.12 308,-598905.12 308,-598923.62"/>
<text text-anchor="middle" x="266.25" y="-598910.12" font-family="Vera Sans, DejaVu Sans, Liberation Sans, Arial, Helvetica, sans" font-size="10.00">VHDLToken</text>
</a>
</g>
</g>
<!-- VHDLToken&#45;&gt;SpecificVHDLToken -->
<g id="edge4" class="edge">
<title>VHDLToken&#45;&gt;SpecificVHDLToken</title>
<path fill="none" stroke="black" stroke-width="0.5" d="M308.34,-598914.37C317.53,-598914.37 327.57,-598914.37 337.69,-598914.37"/>
<polygon fill="black" stroke="black" stroke-width="0.5" points="338.66,-598916.12 343.66,-598914.37 338.66,-598912.62 338.66,-598916.12"/>
</g>
<!-- Token -->
<g id="node6" class="node">
<title>Token</title>
<g id="a_node6"><a xlink:href="../pyVHDLParser.Token.html#pyVHDLParser.Token.Token" xlink:title="Base&#45;class for all token classes." target="_top">
<polygon fill="white" stroke="#1e90ff" points="54,-598923.62 0,-598923.62 0,-598905.12 54,-598905.12 54,-598923.62"/>
<text text-anchor="middle" x="27" y="-598910.12" font-family="Vera Sans, DejaVu Sans, Liberation Sans, Arial, Helvetica, sans" font-size="10.00">Token</text>
</a>
</g>
</g>
<!-- ValuedToken -->
<g id="node7" class="node">
<title>ValuedToken</title>
<g id="a_node7"><a xlink:href="../pyVHDLParser.Token.html#pyVHDLParser.Token.ValuedToken" xlink:title="Base&#45;class for all *valued* token." target="_top">
<polygon fill="white" stroke="#1e90ff" points="188.5,-598935.57 90,-598935.57 90,-598893.18 188.5,-598893.18 188.5,-598935.57"/>
<text text-anchor="middle" x="139.25" y="-598922.07" font-family="Vera Sans, DejaVu Sans, Liberation Sans, Arial, Helvetica, sans" font-size="10.00">ValuedToken</text>
</a>
</g>
</g>
<!-- Token&#45;&gt;ValuedToken -->
<g id="edge6" class="edge">
<title>Token&#45;&gt;ValuedToken</title>
<path fill="none" stroke="black" stroke-width="0.5" d="M54.41,-598914.37C63.25,-598914.37 73.45,-598914.37 83.64,-598914.37"/>
<polygon fill="black" stroke="black" stroke-width="0.5" points="84.62,-598916.12 89.62,-598914.37 84.62,-598912.62 84.62,-598916.12"/>
</g>
<!-- ValuedToken&#45;&gt;VHDLToken -->
<g id="edge5" class="edge">
<title>ValuedToken&#45;&gt;VHDLToken</title>
<path fill="none" stroke="black" stroke-width="0.5" d="M188.94,-598914.37C198.59,-598914.37 208.7,-598914.37 218.29,-598914.37"/>
<polygon fill="black" stroke="black" stroke-width="0.5" points="219.19,-598916.12 224.19,-598914.37 219.19,-598912.62 219.19,-598916.12"/>
</g>
</g>
</svg>
