<?xml version="1.0" encoding="UTF-8" standalone="no"?>
<!DOCTYPE svg PUBLIC "-//W3C//DTD SVG 1.1//EN"
 "http://www.w3.org/Graphics/SVG/1.1/DTD/svg11.dtd">
<!-- Generated by graphviz version 8.0.5 (20230430.1635)
 -->
<!-- Title: inheritancec8c8e365bc Pages: 1 -->
<svg width="473pt" height="27pt"
 viewBox="0.00 0.00 473.00 26.50" xmlns="http://www.w3.org/2000/svg" xmlns:xlink="http://www.w3.org/1999/xlink">
<g id="graph0" class="graph" transform="scale(1 1) rotate(0) translate(4 22.5)">
<title>inheritancec8c8e365bc</title>
<!-- ExceptionBase -->
<g id="node1" class="node">
<title>ExceptionBase</title>
<polygon fill="white" stroke="#1e90ff" points="113.5,-18.5 0,-18.5 0,0 113.5,0 113.5,-18.5"/>
<text text-anchor="middle" x="56.75" y="-5" font-family="Vera Sans, DejaVu Sans, Liberation Sans, Arial, Helvetica, sans" font-size="10.00">ExceptionBase</text>
</g>
<!-- ParserException -->
<g id="node2" class="node">
<title>ParserException</title>
<polygon fill="white" stroke="#1e90ff" points="278,-18.5 149.5,-18.5 149.5,0 278,0 278,-18.5"/>
<text text-anchor="middle" x="213.75" y="-5" font-family="Vera Sans, DejaVu Sans, Liberation Sans, Arial, Helvetica, sans" font-size="10.00">ParserException</text>
</g>
<!-- ExceptionBase&#45;&gt;ParserException -->
<g id="edge1" class="edge">
<title>ExceptionBase&#45;&gt;ParserException</title>
<path fill="none" stroke="black" stroke-width="0.5" d="M113.71,-9.25C123.35,-9.25 133.47,-9.25 143.42,-9.25"/>
<polygon fill="black" stroke="black" stroke-width="0.5" points="144.24,-11 149.24,-9.25 144.24,-7.5 144.24,-11"/>
</g>
<!-- TokenizerException -->
<g id="node3" class="node">
<title>TokenizerException</title>
<g id="a_node3"><a xlink:href="../pyVHDLParser/pyVHDLParser.Token.Parser.html#pyVHDLParser.Token.Parser.TokenizerException" xlink:title="A :exc:`~pyVHDLParser.Base.ParserException` generated by the :class:`~pyVHDLParser.Token.Parser.Tokenizer`." target="_top">
<polygon fill="white" stroke="#1e90ff" points="465,-18.5 314,-18.5 314,0 465,0 465,-18.5"/>
<text text-anchor="middle" x="389.5" y="-5" font-family="Vera Sans, DejaVu Sans, Liberation Sans, Arial, Helvetica, sans" font-size="10.00">TokenizerException</text>
</a>
</g>
</g>
<!-- ParserException&#45;&gt;TokenizerException -->
<g id="edge2" class="edge">
<title>ParserException&#45;&gt;TokenizerException</title>
<path fill="none" stroke="black" stroke-width="0.5" d="M278.46,-9.25C288.02,-9.25 297.97,-9.25 307.82,-9.25"/>
<polygon fill="black" stroke="black" stroke-width="0.5" points="308.6,-11 313.6,-9.25 308.6,-7.5 308.6,-11"/>
</g>
</g>
</svg>
