<?xml version="1.0" encoding="UTF-8" standalone="no"?>
<!DOCTYPE svg PUBLIC "-//W3C//DTD SVG 1.1//EN"
 "http://www.w3.org/Graphics/SVG/1.1/DTD/svg11.dtd">
<!-- Generated by graphviz version 8.0.5 (20230430.1635)
 -->
<!-- Title: inheritance93cba77a7d Pages: 1 -->
<svg width="391pt" height="27pt"
 viewBox="0.00 0.00 391.00 26.50" xmlns="http://www.w3.org/2000/svg" xmlns:xlink="http://www.w3.org/1999/xlink">
<g id="graph0" class="graph" transform="scale(1 1) rotate(0) translate(4 22.5)">
<title>inheritance93cba77a7d</title>
<!-- BeginBlock -->
<g id="node1" class="node">
<title>BeginBlock</title>
<g id="a_node1"><a xlink:href="../pyVHDLParser/pyVHDLParser.Blocks.Sequential.Function.html#pyVHDLParser.Blocks.Sequential.Function.BeginBlock" xlink:title="BeginBlock" target="_top">
<polygon fill="white" stroke="#1e90ff" points="181,-18.5 90,-18.5 90,0 181,0 181,-18.5"/>
<text text-anchor="middle" x="135.5" y="-5" font-family="Vera Sans, DejaVu Sans, Liberation Sans, Arial, Helvetica, sans" font-size="10.00">BeginBlock</text>
</a>
</g>
</g>
<!-- SequentialBeginBlock -->
<g id="node3" class="node">
<title>SequentialBeginBlock</title>
<g id="a_node3"><a xlink:href="../pyVHDLParser.Blocks.Generic.html#pyVHDLParser.Blocks.Generic.SequentialBeginBlock" xlink:title="SequentialBeginBlock" target="_top">
<polygon fill="white" stroke="#1e90ff" points="383,-18.5 217,-18.5 217,0 383,0 383,-18.5"/>
<text text-anchor="middle" x="300" y="-5" font-family="Vera Sans, DejaVu Sans, Liberation Sans, Arial, Helvetica, sans" font-size="10.00">SequentialBeginBlock</text>
</a>
</g>
</g>
<!-- BeginBlock&#45;&gt;SequentialBeginBlock -->
<g id="edge3" class="edge">
<title>BeginBlock&#45;&gt;SequentialBeginBlock</title>
<path fill="none" stroke="black" stroke-width="0.5" d="M181.33,-3.14C190.52,-2.8 200.49,-2.59 210.61,-2.52"/>
<polygon fill="black" stroke="black" stroke-width="0.5" points="211.59,-4.27 216.58,-2.5 211.58,-0.77 211.59,-4.27"/>
</g>
<!-- Block -->
<g id="node2" class="node">
<title>Block</title>
<g id="a_node2"><a xlink:href="../pyVHDLParser.Blocks.html#pyVHDLParser.Blocks.Block" xlink:title="Base&#45;class for all :term:`block` classes." target="_top">
<polygon fill="white" stroke="#1e90ff" points="54,-18.5 0,-18.5 0,0 54,0 54,-18.5"/>
<text text-anchor="middle" x="27" y="-5" font-family="Vera Sans, DejaVu Sans, Liberation Sans, Arial, Helvetica, sans" font-size="10.00">Block</text>
</a>
</g>
</g>
<!-- Block&#45;&gt;BeginBlock -->
<g id="edge1" class="edge">
<title>Block&#45;&gt;BeginBlock</title>
<path fill="none" stroke="black" stroke-width="0.5" d="M54.33,-9.25C63.29,-9.25 73.62,-9.25 83.84,-9.25"/>
<polygon fill="black" stroke="black" stroke-width="0.5" points="84.82,-11 89.82,-9.25 84.82,-7.5 84.82,-11"/>
</g>
<!-- SequentialBeginBlock&#45;&gt;BeginBlock -->
<g id="edge2" class="edge">
<title>SequentialBeginBlock&#45;&gt;BeginBlock</title>
<path fill="none" stroke="black" stroke-width="0.5" d="M216.58,-16C206.53,-15.99 196.49,-15.84 187.1,-15.55"/>
<polygon fill="black" stroke="black" stroke-width="0.5" points="186.39,-13.78 181.33,-15.36 186.27,-17.28 186.39,-13.78"/>
</g>
</g>
</svg>
