<?xml version="1.0" encoding="UTF-8" standalone="no"?>
<!DOCTYPE svg PUBLIC "-//W3C//DTD SVG 1.1//EN"
 "http://www.w3.org/Graphics/SVG/1.1/DTD/svg11.dtd">
<!-- Generated by graphviz version 8.0.5 (20230430.1635)
 -->
<!-- Title: inheritance465261a0db Pages: 1 -->
<svg width="1pt" height="864pt"
 viewBox="0.00 0.00 1.27 864.00" xmlns="http://www.w3.org/2000/svg" xmlns:xlink="http://www.w3.org/1999/xlink">
<g id="graph0" class="graph" transform="scale(0.00214071 0.00214071) rotate(0) translate(4 403600.04)">
<title>inheritance465261a0db</title>
<!-- KeywordToken -->
<g id="node1" class="node">
<title>KeywordToken</title>
<g id="a_node1"><a xlink:href="../pyVHDLParser/pyVHDLParser.Token.Keywords.html#pyVHDLParser.Token.Keywords.KeywordToken" xlink:title="KeywordToken" target="_top">
<polygon fill="white" stroke="#1e90ff" points="450,-201807.27 344,-201807.27 344,-201788.77 450,-201788.77 450,-201807.27"/>
<text text-anchor="middle" x="397" y="-201793.77" font-family="Vera Sans, DejaVu Sans, Liberation Sans, Arial, Helvetica, sans" font-size="10.00">KeywordToken</text>
</a>
</g>
</g>
<!-- WaitKeyword -->
<g id="node5" class="node">
<title>WaitKeyword</title>
<g id="a_node5"><a xlink:href="../pyVHDLParser/pyVHDLParser.Token.Keywords.html#pyVHDLParser.Token.Keywords.WaitKeyword" xlink:title="WaitKeyword" target="_top">
<polygon fill="white" stroke="#1e90ff" points="584.5,-201807.27 486,-201807.27 486,-201788.77 584.5,-201788.77 584.5,-201807.27"/>
<text text-anchor="middle" x="535.25" y="-201793.77" font-family="Vera Sans, DejaVu Sans, Liberation Sans, Arial, Helvetica, sans" font-size="10.00">WaitKeyword</text>
</a>
</g>
</g>
<!-- KeywordToken&#45;&gt;WaitKeyword -->
<g id="edge4" class="edge">
<title>KeywordToken&#45;&gt;WaitKeyword</title>
<path fill="none" stroke="black" stroke-width="0.5" d="M450.29,-201798.02C460.07,-201798.02 470.32,-201798.02 480.16,-201798.02"/>
<polygon fill="black" stroke="black" stroke-width="0.5" points="480.9,-201799.77 485.9,-201798.02 480.9,-201796.27 480.9,-201799.77"/>
</g>
<!-- VHDLToken -->
<g id="node2" class="node">
<title>VHDLToken</title>
<g id="a_node2"><a xlink:href="../pyVHDLParser.Token.html#pyVHDLParser.Token.VHDLToken" xlink:title="Base&#45;class for all VHDL specific tokens." target="_top">
<polygon fill="white" stroke="#1e90ff" points="308,-201807.27 224.5,-201807.27 224.5,-201788.77 308,-201788.77 308,-201807.27"/>
<text text-anchor="middle" x="266.25" y="-201793.77" font-family="Vera Sans, DejaVu Sans, Liberation Sans, Arial, Helvetica, sans" font-size="10.00">VHDLToken</text>
</a>
</g>
</g>
<!-- VHDLToken&#45;&gt;KeywordToken -->
<g id="edge1" class="edge">
<title>VHDLToken&#45;&gt;KeywordToken</title>
<path fill="none" stroke="black" stroke-width="0.5" d="M308.34,-201798.02C317.69,-201798.02 327.8,-201798.02 337.71,-201798.02"/>
<polygon fill="black" stroke="black" stroke-width="0.5" points="338.52,-201799.77 343.52,-201798.02 338.52,-201796.27 338.52,-201799.77"/>
</g>
<!-- Token -->
<g id="node3" class="node">
<title>Token</title>
<g id="a_node3"><a xlink:href="../pyVHDLParser.Token.html#pyVHDLParser.Token.Token" xlink:title="Base&#45;class for all token classes." target="_top">
<polygon fill="white" stroke="#1e90ff" points="54,-403596.04 0,-403596.04 0,0 54,0 54,-403596.04"/>
<text text-anchor="middle" x="27" y="-403582.54" font-family="Vera Sans, DejaVu Sans, Liberation Sans, Arial, Helvetica, sans" font-size="10.00">Token</text>
</a>
</g>
</g>
<!-- ValuedToken -->
<g id="node4" class="node">
<title>ValuedToken</title>
<g id="a_node4"><a xlink:href="../pyVHDLParser.Token.html#pyVHDLParser.Token.ValuedToken" xlink:title="Base&#45;class for all *valued* token." target="_top">
<polygon fill="white" stroke="#1e90ff" points="188.5,-403596 90,-403596 90,-0.04 188.5,-0.04 188.5,-403596"/>
<text text-anchor="middle" x="139.25" y="-403582.5" font-family="Vera Sans, DejaVu Sans, Liberation Sans, Arial, Helvetica, sans" font-size="10.00">ValuedToken</text>
</a>
</g>
</g>
<!-- Token&#45;&gt;ValuedToken -->
<g id="edge3" class="edge">
<title>Token&#45;&gt;ValuedToken</title>
<path fill="none" stroke="black" stroke-width="0.5" d="M54.41,-201798.02C63.25,-201798.02 73.45,-201798.02 83.64,-201798.02"/>
<polygon fill="black" stroke="black" stroke-width="0.5" points="84.62,-201799.77 89.62,-201798.02 84.62,-201796.27 84.62,-201799.77"/>
</g>
<!-- ValuedToken&#45;&gt;VHDLToken -->
<g id="edge2" class="edge">
<title>ValuedToken&#45;&gt;VHDLToken</title>
<path fill="none" stroke="black" stroke-width="0.5" d="M188.94,-201798.02C198.59,-201798.02 208.7,-201798.02 218.29,-201798.02"/>
<polygon fill="black" stroke="black" stroke-width="0.5" points="219.19,-201799.77 224.19,-201798.02 219.19,-201796.27 219.19,-201799.77"/>
</g>
</g>
</svg>
