<?xml version="1.0" encoding="UTF-8" standalone="no"?>
<!DOCTYPE svg PUBLIC "-//W3C//DTD SVG 1.1//EN"
 "http://www.w3.org/Graphics/SVG/1.1/DTD/svg11.dtd">
<!-- Generated by graphviz version 8.0.5 (20230430.1635)
 -->
<!-- Title: inheritancedf722b96fa Pages: 1 -->
<svg width="1pt" height="864pt"
 viewBox="0.00 0.00 0.52 864.00" xmlns="http://www.w3.org/2000/svg" xmlns:xlink="http://www.w3.org/1999/xlink">
<g id="graph0" class="graph" transform="scale(0.000595098 0.000595098) rotate(0) translate(4 1451856.83)">
<title>inheritancedf722b96fa</title>
<!-- KeywordToken -->
<g id="node1" class="node">
<title>KeywordToken</title>
<g id="a_node1"><a xlink:href="../pyVHDLParser/pyVHDLParser.Token.Keywords.html#pyVHDLParser.Token.Keywords.KeywordToken" xlink:title="KeywordToken" target="_top">
<polygon fill="white" stroke="#1e90ff" points="450,-725935.67 344,-725935.67 344,-725917.17 450,-725917.17 450,-725935.67"/>
<text text-anchor="middle" x="397" y="-725922.17" font-family="Vera Sans, DejaVu Sans, Liberation Sans, Arial, Helvetica, sans" font-size="10.00">KeywordToken</text>
</a>
</g>
</g>
<!-- Operator -->
<g id="node4" class="node">
<title>Operator</title>
<g id="a_node4"><a xlink:href="../pyVHDLParser/pyVHDLParser.Token.Keywords.html#pyVHDLParser.Token.Keywords.Operator" xlink:title="Operator" target="_top">
<polygon fill="white" stroke="#1e90ff" points="562,-725935.67 486,-725935.67 486,-725917.17 562,-725917.17 562,-725935.67"/>
<text text-anchor="middle" x="524" y="-725922.17" font-family="Vera Sans, DejaVu Sans, Liberation Sans, Arial, Helvetica, sans" font-size="10.00">Operator</text>
</a>
</g>
</g>
<!-- KeywordToken&#45;&gt;Operator -->
<g id="edge4" class="edge">
<title>KeywordToken&#45;&gt;Operator</title>
<path fill="none" stroke="black" stroke-width="0.5" d="M450.29,-725926.42C460.15,-725926.42 470.36,-725926.42 479.9,-725926.42"/>
<polygon fill="black" stroke="black" stroke-width="0.5" points="480.74,-725928.17 485.74,-725926.42 480.74,-725924.67 480.74,-725928.17"/>
</g>
<!-- VHDLToken -->
<g id="node2" class="node">
<title>VHDLToken</title>
<g id="a_node2"><a xlink:href="../pyVHDLParser.Token.html#pyVHDLParser.Token.VHDLToken" xlink:title="Base&#45;class for all VHDL specific tokens." target="_top">
<polygon fill="white" stroke="#1e90ff" points="308,-1451848.64 224.5,-1451848.64 224.5,-4.2 308,-4.2 308,-1451848.64"/>
<text text-anchor="middle" x="266.25" y="-1451835.14" font-family="Vera Sans, DejaVu Sans, Liberation Sans, Arial, Helvetica, sans" font-size="10.00">VHDLToken</text>
</a>
</g>
</g>
<!-- VHDLToken&#45;&gt;KeywordToken -->
<g id="edge1" class="edge">
<title>VHDLToken&#45;&gt;KeywordToken</title>
<path fill="none" stroke="black" stroke-width="0.5" d="M308.34,-725926.42C317.69,-725926.42 327.8,-725926.42 337.71,-725926.42"/>
<polygon fill="black" stroke="black" stroke-width="0.5" points="338.52,-725928.17 343.52,-725926.42 338.52,-725924.67 338.52,-725928.17"/>
</g>
<!-- LogicalOperator -->
<g id="node3" class="node">
<title>LogicalOperator</title>
<g id="a_node3"><a xlink:href="../pyVHDLParser/pyVHDLParser.Token.Keywords.html#pyVHDLParser.Token.Keywords.LogicalOperator" xlink:title="LogicalOperator" target="_top">
<polygon fill="white" stroke="#1e90ff" points="726.5,-1451852.83 598,-1451852.83 598,0 726.5,0 726.5,-1451852.83"/>
<text text-anchor="middle" x="662.25" y="-1451839.33" font-family="Vera Sans, DejaVu Sans, Liberation Sans, Arial, Helvetica, sans" font-size="10.00">LogicalOperator</text>
</a>
</g>
</g>
<!-- NandOperator -->
<g id="node5" class="node">
<title>NandOperator</title>
<g id="a_node5"><a xlink:href="../pyVHDLParser/pyVHDLParser.Token.Keywords.html#pyVHDLParser.Token.Keywords.NandOperator" xlink:title="NandOperator" target="_top">
<polygon fill="white" stroke="#1e90ff" points="868.5,-725935.67 762.5,-725935.67 762.5,-725917.17 868.5,-725917.17 868.5,-725935.67"/>
<text text-anchor="middle" x="815.5" y="-725922.17" font-family="Vera Sans, DejaVu Sans, Liberation Sans, Arial, Helvetica, sans" font-size="10.00">NandOperator</text>
</a>
</g>
</g>
<!-- LogicalOperator&#45;&gt;NandOperator -->
<g id="edge3" class="edge">
<title>LogicalOperator&#45;&gt;NandOperator</title>
<path fill="none" stroke="black" stroke-width="0.5" d="M726.96,-725926.42C736.72,-725926.42 746.75,-725926.42 756.38,-725926.42"/>
<polygon fill="black" stroke="black" stroke-width="0.5" points="757.32,-725928.17 762.32,-725926.42 757.32,-725924.67 757.32,-725928.17"/>
</g>
<!-- Operator&#45;&gt;LogicalOperator -->
<g id="edge2" class="edge">
<title>Operator&#45;&gt;LogicalOperator</title>
<path fill="none" stroke="black" stroke-width="0.5" d="M562.23,-725926.42C571.39,-725926.42 581.49,-725926.42 591.63,-725926.42"/>
<polygon fill="black" stroke="black" stroke-width="0.5" points="592.6,-725928.17 597.6,-725926.42 592.6,-725924.67 592.6,-725928.17"/>
</g>
<!-- Token -->
<g id="node6" class="node">
<title>Token</title>
<g id="a_node6"><a xlink:href="../pyVHDLParser.Token.html#pyVHDLParser.Token.Token" xlink:title="Base&#45;class for all token classes." target="_top">
<polygon fill="white" stroke="#1e90ff" points="54,-725935.67 0,-725935.67 0,-725917.17 54,-725917.17 54,-725935.67"/>
<text text-anchor="middle" x="27" y="-725922.17" font-family="Vera Sans, DejaVu Sans, Liberation Sans, Arial, Helvetica, sans" font-size="10.00">Token</text>
</a>
</g>
</g>
<!-- ValuedToken -->
<g id="node7" class="node">
<title>ValuedToken</title>
<g id="a_node7"><a xlink:href="../pyVHDLParser.Token.html#pyVHDLParser.Token.ValuedToken" xlink:title="Base&#45;class for all *valued* token." target="_top">
<polygon fill="white" stroke="#1e90ff" points="188.5,-725935.67 90,-725935.67 90,-725917.17 188.5,-725917.17 188.5,-725935.67"/>
<text text-anchor="middle" x="139.25" y="-725922.17" font-family="Vera Sans, DejaVu Sans, Liberation Sans, Arial, Helvetica, sans" font-size="10.00">ValuedToken</text>
</a>
</g>
</g>
<!-- Token&#45;&gt;ValuedToken -->
<g id="edge6" class="edge">
<title>Token&#45;&gt;ValuedToken</title>
<path fill="none" stroke="black" stroke-width="0.5" d="M54.41,-725926.42C63.25,-725926.42 73.45,-725926.42 83.64,-725926.42"/>
<polygon fill="black" stroke="black" stroke-width="0.5" points="84.62,-725928.17 89.62,-725926.42 84.62,-725924.67 84.62,-725928.17"/>
</g>
<!-- ValuedToken&#45;&gt;VHDLToken -->
<g id="edge5" class="edge">
<title>ValuedToken&#45;&gt;VHDLToken</title>
<path fill="none" stroke="black" stroke-width="0.5" d="M188.94,-725926.42C198.59,-725926.42 208.7,-725926.42 218.29,-725926.42"/>
<polygon fill="black" stroke="black" stroke-width="0.5" points="219.19,-725928.17 224.19,-725926.42 219.19,-725924.67 219.19,-725928.17"/>
</g>
</g>
</svg>
