<?xml version="1.0" encoding="UTF-8" standalone="no"?>
<!DOCTYPE svg PUBLIC "-//W3C//DTD SVG 1.1//EN"
 "http://www.w3.org/Graphics/SVG/1.1/DTD/svg11.dtd">
<!-- Generated by graphviz version 8.0.5 (20230430.1635)
 -->
<!-- Title: inheritanceb432523d18 Pages: 1 -->
<svg width="571pt" height="27pt"
 viewBox="0.00 0.00 570.50 26.50" xmlns="http://www.w3.org/2000/svg" xmlns:xlink="http://www.w3.org/1999/xlink">
<g id="graph0" class="graph" transform="scale(1 1) rotate(0) translate(4 22.5)">
<title>inheritanceb432523d18</title>
<!-- Block -->
<g id="node1" class="node">
<title>Block</title>
<g id="a_node1"><a xlink:href="../pyVHDLParser.Blocks.html#pyVHDLParser.Blocks.Block" xlink:title="Base&#45;class for all :term:`block` classes." target="_top">
<polygon fill="white" stroke="#1e90ff" points="54,-18.5 0,-18.5 0,0 54,0 54,-18.5"/>
<text text-anchor="middle" x="27" y="-5" font-family="Vera Sans, DejaVu Sans, Liberation Sans, Arial, Helvetica, sans" font-size="10.00">Block</text>
</a>
</g>
</g>
<!-- SkipableBlock -->
<g id="node3" class="node">
<title>SkipableBlock</title>
<g id="a_node3"><a xlink:href="../pyVHDLParser.Blocks.html#pyVHDLParser.Blocks.SkipableBlock" xlink:title="Base&#45;class for blocks that can be skipped in fast&#45;forward scanning." target="_top">
<polygon fill="white" stroke="#1e90ff" points="203.5,-18.5 90,-18.5 90,0 203.5,0 203.5,-18.5"/>
<text text-anchor="middle" x="146.75" y="-5" font-family="Vera Sans, DejaVu Sans, Liberation Sans, Arial, Helvetica, sans" font-size="10.00">SkipableBlock</text>
</a>
</g>
</g>
<!-- Block&#45;&gt;SkipableBlock -->
<g id="edge3" class="edge">
<title>Block&#45;&gt;SkipableBlock</title>
<path fill="none" stroke="black" stroke-width="0.5" d="M54.43,-9.25C63.24,-9.25 73.46,-9.25 83.8,-9.25"/>
<polygon fill="black" stroke="black" stroke-width="0.5" points="84.56,-11 89.56,-9.25 84.56,-7.5 84.56,-11"/>
</g>
<!-- CommentBlock -->
<g id="node2" class="node">
<title>CommentBlock</title>
<g id="a_node2"><a xlink:href="../pyVHDLParser.Blocks.html#pyVHDLParser.Blocks.CommentBlock" xlink:title="Base&#45;class for all comment blocks." target="_top">
<polygon fill="white" stroke="#1e90ff" points="345.5,-18.5 239.5,-18.5 239.5,0 345.5,0 345.5,-18.5"/>
<text text-anchor="middle" x="292.5" y="-5" font-family="Vera Sans, DejaVu Sans, Liberation Sans, Arial, Helvetica, sans" font-size="10.00">CommentBlock</text>
</a>
</g>
</g>
<!-- SingleLineCommentBlock -->
<g id="node4" class="node">
<title>SingleLineCommentBlock</title>
<g id="a_node4"><a xlink:href="../pyVHDLParser/pyVHDLParser.Blocks.Comment.html#pyVHDLParser.Blocks.Comment.SingleLineCommentBlock" xlink:title="SingleLineCommentBlock" target="_top">
<polygon fill="white" stroke="#1e90ff" points="562.5,-18.5 381.5,-18.5 381.5,0 562.5,0 562.5,-18.5"/>
<text text-anchor="middle" x="472" y="-5" font-family="Vera Sans, DejaVu Sans, Liberation Sans, Arial, Helvetica, sans" font-size="10.00">SingleLineCommentBlock</text>
</a>
</g>
</g>
<!-- CommentBlock&#45;&gt;SingleLineCommentBlock -->
<g id="edge2" class="edge">
<title>CommentBlock&#45;&gt;SingleLineCommentBlock</title>
<path fill="none" stroke="black" stroke-width="0.5" d="M345.8,-9.25C355.11,-9.25 365.08,-9.25 375.17,-9.25"/>
<polygon fill="black" stroke="black" stroke-width="0.5" points="376.12,-11 381.12,-9.25 376.12,-7.5 376.12,-11"/>
</g>
<!-- SkipableBlock&#45;&gt;CommentBlock -->
<g id="edge1" class="edge">
<title>SkipableBlock&#45;&gt;CommentBlock</title>
<path fill="none" stroke="black" stroke-width="0.5" d="M203.74,-9.25C213.49,-9.25 223.66,-9.25 233.46,-9.25"/>
<polygon fill="black" stroke="black" stroke-width="0.5" points="234.19,-11 239.19,-9.25 234.19,-7.5 234.19,-11"/>
</g>
</g>
</svg>
