<?xml version="1.0" encoding="UTF-8" standalone="no"?>
<!DOCTYPE svg PUBLIC "-//W3C//DTD SVG 1.1//EN"
 "http://www.w3.org/Graphics/SVG/1.1/DTD/svg11.dtd">
<!-- Generated by graphviz version 8.0.5 (20230430.1635)
 -->
<!-- Title: inheritance6dc543b4c5 Pages: 1 -->
<svg width="0pt" height="864pt"
 viewBox="0.00 0.00 0.45 864.00" xmlns="http://www.w3.org/2000/svg" xmlns:xlink="http://www.w3.org/1999/xlink">
<g id="graph0" class="graph" transform="scale(0.000747489 0.000747489) rotate(0) translate(4 1155866.36)">
<title>inheritance6dc543b4c5</title>
<!-- KeywordToken -->
<g id="node1" class="node">
<title>KeywordToken</title>
<g id="a_node1"><a xlink:href="../pyVHDLParser/pyVHDLParser.Token.Keywords.html#pyVHDLParser.Token.Keywords.KeywordToken" xlink:title="KeywordToken" target="_top">
<polygon fill="white" stroke="#1e90ff" points="450,-577940.43 344,-577940.43 344,-577921.93 450,-577921.93 450,-577940.43"/>
<text text-anchor="middle" x="397" y="-577926.93" font-family="Vera Sans, DejaVu Sans, Liberation Sans, Arial, Helvetica, sans" font-size="10.00">KeywordToken</text>
</a>
</g>
</g>
<!-- OthersKeyword -->
<g id="node3" class="node">
<title>OthersKeyword</title>
<g id="a_node3"><a xlink:href="../pyVHDLParser/pyVHDLParser.Token.Keywords.html#pyVHDLParser.Token.Keywords.OthersKeyword" xlink:title="OthersKeyword" target="_top">
<polygon fill="white" stroke="#1e90ff" points="599.5,-1155857.39 486,-1155857.39 486,-4.97 599.5,-4.97 599.5,-1155857.39"/>
<text text-anchor="middle" x="542.75" y="-1155843.89" font-family="Vera Sans, DejaVu Sans, Liberation Sans, Arial, Helvetica, sans" font-size="10.00">OthersKeyword</text>
</a>
</g>
</g>
<!-- KeywordToken&#45;&gt;OthersKeyword -->
<g id="edge2" class="edge">
<title>KeywordToken&#45;&gt;OthersKeyword</title>
<path fill="none" stroke="black" stroke-width="0.5" d="M450.3,-577931.18C459.97,-577931.18 470.14,-577931.18 480.05,-577931.18"/>
<polygon fill="black" stroke="black" stroke-width="0.5" points="480.85,-577932.93 485.85,-577931.18 480.85,-577929.43 480.85,-577932.93"/>
</g>
<!-- VHDLToken -->
<g id="node2" class="node">
<title>VHDLToken</title>
<g id="a_node2"><a xlink:href="../pyVHDLParser.Token.html#pyVHDLParser.Token.VHDLToken" xlink:title="Base&#45;class for all VHDL specific tokens." target="_top">
<polygon fill="white" stroke="#1e90ff" points="308,-1155862.36 224.5,-1155862.36 224.5,0 308,0 308,-1155862.36"/>
<text text-anchor="middle" x="266.25" y="-1155848.86" font-family="Vera Sans, DejaVu Sans, Liberation Sans, Arial, Helvetica, sans" font-size="10.00">VHDLToken</text>
</a>
</g>
</g>
<!-- VHDLToken&#45;&gt;KeywordToken -->
<g id="edge1" class="edge">
<title>VHDLToken&#45;&gt;KeywordToken</title>
<path fill="none" stroke="black" stroke-width="0.5" d="M308.34,-577931.18C317.69,-577931.18 327.8,-577931.18 337.71,-577931.18"/>
<polygon fill="black" stroke="black" stroke-width="0.5" points="338.52,-577932.93 343.52,-577931.18 338.52,-577929.43 338.52,-577932.93"/>
</g>
<!-- Token -->
<g id="node4" class="node">
<title>Token</title>
<g id="a_node4"><a xlink:href="../pyVHDLParser.Token.html#pyVHDLParser.Token.Token" xlink:title="Base&#45;class for all token classes." target="_top">
<polygon fill="white" stroke="#1e90ff" points="54,-1155857.34 0,-1155857.34 0,-5.02 54,-5.02 54,-1155857.34"/>
<text text-anchor="middle" x="27" y="-1155843.84" font-family="Vera Sans, DejaVu Sans, Liberation Sans, Arial, Helvetica, sans" font-size="10.00">Token</text>
</a>
</g>
</g>
<!-- ValuedToken -->
<g id="node5" class="node">
<title>ValuedToken</title>
<g id="a_node5"><a xlink:href="../pyVHDLParser.Token.html#pyVHDLParser.Token.ValuedToken" xlink:title="Base&#45;class for all *valued* token." target="_top">
<polygon fill="white" stroke="#1e90ff" points="188.5,-577940.43 90,-577940.43 90,-577921.93 188.5,-577921.93 188.5,-577940.43"/>
<text text-anchor="middle" x="139.25" y="-577926.93" font-family="Vera Sans, DejaVu Sans, Liberation Sans, Arial, Helvetica, sans" font-size="10.00">ValuedToken</text>
</a>
</g>
</g>
<!-- Token&#45;&gt;ValuedToken -->
<g id="edge4" class="edge">
<title>Token&#45;&gt;ValuedToken</title>
<path fill="none" stroke="black" stroke-width="0.5" d="M54.41,-577931.18C63.25,-577931.18 73.45,-577931.18 83.64,-577931.18"/>
<polygon fill="black" stroke="black" stroke-width="0.5" points="84.62,-577932.93 89.62,-577931.18 84.62,-577929.43 84.62,-577932.93"/>
</g>
<!-- ValuedToken&#45;&gt;VHDLToken -->
<g id="edge3" class="edge">
<title>ValuedToken&#45;&gt;VHDLToken</title>
<path fill="none" stroke="black" stroke-width="0.5" d="M188.94,-577931.18C198.59,-577931.18 208.7,-577931.18 218.29,-577931.18"/>
<polygon fill="black" stroke="black" stroke-width="0.5" points="219.19,-577932.93 224.19,-577931.18 219.19,-577929.43 219.19,-577932.93"/>
</g>
</g>
</svg>
