<?xml version="1.0" encoding="UTF-8" standalone="no"?>
<!DOCTYPE svg PUBLIC "-//W3C//DTD SVG 1.1//EN"
 "http://www.w3.org/Graphics/SVG/1.1/DTD/svg11.dtd">
<!-- Generated by graphviz version 8.0.5 (20230430.1635)
 -->
<!-- Title: inheritancef69c4f1311 Pages: 1 -->
<svg width="2pt" height="864pt"
 viewBox="0.00 0.00 2.03 864.00" xmlns="http://www.w3.org/2000/svg" xmlns:xlink="http://www.w3.org/1999/xlink">
<g id="graph0" class="graph" transform="scale(0.0020721 0.0020721) rotate(0) translate(4 416964.95)">
<title>inheritancef69c4f1311</title>
<!-- EqualOperator -->
<g id="node1" class="node">
<title>EqualOperator</title>
<g id="a_node1"><a xlink:href="../pyVHDLParser/pyVHDLParser.Token.Keywords.html#pyVHDLParser.Token.Keywords.EqualOperator" xlink:title="EqualOperator" target="_top">
<polygon fill="white" stroke="#1e90ff" points="973.5,-208489.72 860,-208489.72 860,-208471.22 973.5,-208471.22 973.5,-208489.72"/>
<text text-anchor="middle" x="916.75" y="-208476.22" font-family="Vera Sans, DejaVu Sans, Liberation Sans, Arial, Helvetica, sans" font-size="10.00">EqualOperator</text>
</a>
</g>
</g>
<!-- RelationalOperator -->
<g id="node2" class="node">
<title>RelationalOperator</title>
<g id="a_node2"><a xlink:href="../pyVHDLParser/pyVHDLParser.Token.Keywords.html#pyVHDLParser.Token.Keywords.RelationalOperator" xlink:title="Base&#45;class for all relational operator tokens." target="_top">
<polygon fill="white" stroke="#1e90ff" points="824,-416960.95 673,-416960.95 673,0 824,0 824,-416960.95"/>
<text text-anchor="middle" x="748.5" y="-416947.45" font-family="Vera Sans, DejaVu Sans, Liberation Sans, Arial, Helvetica, sans" font-size="10.00">RelationalOperator</text>
</a>
</g>
</g>
<!-- RelationalOperator&#45;&gt;EqualOperator -->
<g id="edge1" class="edge">
<title>RelationalOperator&#45;&gt;EqualOperator</title>
<path fill="none" stroke="black" stroke-width="0.5" d="M824.36,-208480.47C834.21,-208480.47 844.21,-208480.47 853.81,-208480.47"/>
<polygon fill="black" stroke="black" stroke-width="0.5" points="854.74,-208482.22 859.74,-208480.47 854.74,-208478.72 854.74,-208482.22"/>
</g>
<!-- OperatorToken -->
<g id="node3" class="node">
<title>OperatorToken</title>
<g id="a_node3"><a xlink:href="../pyVHDLParser/pyVHDLParser.Token.Keywords.html#pyVHDLParser.Token.Keywords.OperatorToken" xlink:title="Base&#45;class for all operator tokens." target="_top">
<polygon fill="white" stroke="#1e90ff" points="637,-416956.66 523.5,-416956.66 523.5,-4.29 637,-4.29 637,-416956.66"/>
<text text-anchor="middle" x="580.25" y="-416943.16" font-family="Vera Sans, DejaVu Sans, Liberation Sans, Arial, Helvetica, sans" font-size="10.00">OperatorToken</text>
</a>
</g>
</g>
<!-- OperatorToken&#45;&gt;RelationalOperator -->
<g id="edge3" class="edge">
<title>OperatorToken&#45;&gt;RelationalOperator</title>
<path fill="none" stroke="black" stroke-width="0.5" d="M637.07,-208480.47C646.61,-208480.47 656.69,-208480.47 666.73,-208480.47"/>
<polygon fill="black" stroke="black" stroke-width="0.5" points="667.63,-208482.22 672.63,-208480.47 667.63,-208478.72 667.63,-208482.22"/>
</g>
<!-- SpecificVHDLToken -->
<g id="node4" class="node">
<title>SpecificVHDLToken</title>
<g id="a_node4"><a xlink:href="../pyVHDLParser/pyVHDLParser.Token.Keywords.html#pyVHDLParser.Token.Keywords.SpecificVHDLToken" xlink:title="Base&#45;class for all specific tokens." target="_top">
<polygon fill="white" stroke="#1e90ff" points="487.5,-208489.72 344,-208489.72 344,-208471.22 487.5,-208471.22 487.5,-208489.72"/>
<text text-anchor="middle" x="415.75" y="-208476.22" font-family="Vera Sans, DejaVu Sans, Liberation Sans, Arial, Helvetica, sans" font-size="10.00">SpecificVHDLToken</text>
</a>
</g>
</g>
<!-- SpecificVHDLToken&#45;&gt;OperatorToken -->
<g id="edge2" class="edge">
<title>SpecificVHDLToken&#45;&gt;OperatorToken</title>
<path fill="none" stroke="black" stroke-width="0.5" d="M487.55,-208480.47C497.56,-208480.47 507.79,-208480.47 517.6,-208480.47"/>
<polygon fill="black" stroke="black" stroke-width="0.5" points="518.33,-208482.22 523.33,-208480.47 518.33,-208478.72 518.33,-208482.22"/>
</g>
<!-- VHDLToken -->
<g id="node5" class="node">
<title>VHDLToken</title>
<g id="a_node5"><a xlink:href="../pyVHDLParser.Token.html#pyVHDLParser.Token.VHDLToken" xlink:title="Base&#45;class for all VHDL specific tokens." target="_top">
<polygon fill="white" stroke="#1e90ff" points="308,-208489.72 224.5,-208489.72 224.5,-208471.22 308,-208471.22 308,-208489.72"/>
<text text-anchor="middle" x="266.25" y="-208476.22" font-family="Vera Sans, DejaVu Sans, Liberation Sans, Arial, Helvetica, sans" font-size="10.00">VHDLToken</text>
</a>
</g>
</g>
<!-- VHDLToken&#45;&gt;SpecificVHDLToken -->
<g id="edge4" class="edge">
<title>VHDLToken&#45;&gt;SpecificVHDLToken</title>
<path fill="none" stroke="black" stroke-width="0.5" d="M308.34,-208480.47C317.53,-208480.47 327.57,-208480.47 337.69,-208480.47"/>
<polygon fill="black" stroke="black" stroke-width="0.5" points="338.66,-208482.22 343.66,-208480.47 338.66,-208478.72 338.66,-208482.22"/>
</g>
<!-- Token -->
<g id="node6" class="node">
<title>Token</title>
<g id="a_node6"><a xlink:href="../pyVHDLParser.Token.html#pyVHDLParser.Token.Token" xlink:title="Base&#45;class for all token classes." target="_top">
<polygon fill="white" stroke="#1e90ff" points="54,-208489.72 0,-208489.72 0,-208471.22 54,-208471.22 54,-208489.72"/>
<text text-anchor="middle" x="27" y="-208476.22" font-family="Vera Sans, DejaVu Sans, Liberation Sans, Arial, Helvetica, sans" font-size="10.00">Token</text>
</a>
</g>
</g>
<!-- ValuedToken -->
<g id="node7" class="node">
<title>ValuedToken</title>
<g id="a_node7"><a xlink:href="../pyVHDLParser.Token.html#pyVHDLParser.Token.ValuedToken" xlink:title="Base&#45;class for all *valued* token." target="_top">
<polygon fill="white" stroke="#1e90ff" points="188.5,-208501.67 90,-208501.67 90,-208459.28 188.5,-208459.28 188.5,-208501.67"/>
<text text-anchor="middle" x="139.25" y="-208488.17" font-family="Vera Sans, DejaVu Sans, Liberation Sans, Arial, Helvetica, sans" font-size="10.00">ValuedToken</text>
</a>
</g>
</g>
<!-- Token&#45;&gt;ValuedToken -->
<g id="edge6" class="edge">
<title>Token&#45;&gt;ValuedToken</title>
<path fill="none" stroke="black" stroke-width="0.5" d="M54.41,-208480.47C63.25,-208480.47 73.45,-208480.47 83.64,-208480.47"/>
<polygon fill="black" stroke="black" stroke-width="0.5" points="84.62,-208482.22 89.62,-208480.47 84.62,-208478.72 84.62,-208482.22"/>
</g>
<!-- ValuedToken&#45;&gt;VHDLToken -->
<g id="edge5" class="edge">
<title>ValuedToken&#45;&gt;VHDLToken</title>
<path fill="none" stroke="black" stroke-width="0.5" d="M188.94,-208480.47C198.59,-208480.47 208.7,-208480.47 218.29,-208480.47"/>
<polygon fill="black" stroke="black" stroke-width="0.5" points="219.19,-208482.22 224.19,-208480.47 219.19,-208478.72 219.19,-208482.22"/>
</g>
</g>
</svg>
