<?xml version="1.0" encoding="UTF-8" standalone="no"?>
<!DOCTYPE svg PUBLIC "-//W3C//DTD SVG 1.1//EN"
 "http://www.w3.org/Graphics/SVG/1.1/DTD/svg11.dtd">
<!-- Generated by graphviz version 8.0.5 (20230430.1635)
 -->
<!-- Title: inheritance3a30f24683 Pages: 1 -->
<svg width="3pt" height="864pt"
 viewBox="0.00 0.00 2.69 864.00" xmlns="http://www.w3.org/2000/svg" xmlns:xlink="http://www.w3.org/1999/xlink">
<g id="graph0" class="graph" transform="scale(0.00335063 0.00335063) rotate(0) translate(4 257857.62)">
<title>inheritance3a30f24683</title>
<!-- ConcatOperator -->
<g id="node1" class="node">
<title>ConcatOperator</title>
<g id="a_node1"><a xlink:href="../pyVHDLParser/pyVHDLParser.Token.Keywords.html#pyVHDLParser.Token.Keywords.ConcatOperator" xlink:title="Token representing a concat operator: ``&amp;``." target="_top">
<polygon fill="white" stroke="#1e90ff" points="794,-128936.06 673,-128936.06 673,-128917.56 794,-128917.56 794,-128936.06"/>
<text text-anchor="middle" x="733.5" y="-128922.56" font-family="Vera Sans, DejaVu Sans, Liberation Sans, Arial, Helvetica, sans" font-size="10.00">ConcatOperator</text>
</a>
</g>
</g>
<!-- OperatorToken -->
<g id="node2" class="node">
<title>OperatorToken</title>
<g id="a_node2"><a xlink:href="../pyVHDLParser/pyVHDLParser.Token.Keywords.html#pyVHDLParser.Token.Keywords.OperatorToken" xlink:title="Base&#45;class for all operator tokens." target="_top">
<polygon fill="white" stroke="#1e90ff" points="637,-128936.06 523.5,-128936.06 523.5,-128917.56 637,-128917.56 637,-128936.06"/>
<text text-anchor="middle" x="580.25" y="-128922.56" font-family="Vera Sans, DejaVu Sans, Liberation Sans, Arial, Helvetica, sans" font-size="10.00">OperatorToken</text>
</a>
</g>
</g>
<!-- OperatorToken&#45;&gt;ConcatOperator -->
<g id="edge1" class="edge">
<title>OperatorToken&#45;&gt;ConcatOperator</title>
<path fill="none" stroke="black" stroke-width="0.5" d="M637.14,-128926.81C646.78,-128926.81 656.87,-128926.81 666.74,-128926.81"/>
<polygon fill="black" stroke="black" stroke-width="0.5" points="667.52,-128928.56 672.52,-128926.81 667.52,-128925.06 667.52,-128928.56"/>
</g>
<!-- SpecificVHDLToken -->
<g id="node3" class="node">
<title>SpecificVHDLToken</title>
<g id="a_node3"><a xlink:href="../pyVHDLParser/pyVHDLParser.Token.Keywords.html#pyVHDLParser.Token.Keywords.SpecificVHDLToken" xlink:title="Base&#45;class for all specific tokens." target="_top">
<polygon fill="white" stroke="#1e90ff" points="487.5,-257853.62 344,-257853.62 344,0 487.5,0 487.5,-257853.62"/>
<text text-anchor="middle" x="415.75" y="-257840.12" font-family="Vera Sans, DejaVu Sans, Liberation Sans, Arial, Helvetica, sans" font-size="10.00">SpecificVHDLToken</text>
</a>
</g>
</g>
<!-- SpecificVHDLToken&#45;&gt;OperatorToken -->
<g id="edge2" class="edge">
<title>SpecificVHDLToken&#45;&gt;OperatorToken</title>
<path fill="none" stroke="black" stroke-width="0.5" d="M487.55,-128926.81C497.56,-128926.81 507.79,-128926.81 517.6,-128926.81"/>
<polygon fill="black" stroke="black" stroke-width="0.5" points="518.33,-128928.56 523.33,-128926.81 518.33,-128925.06 518.33,-128928.56"/>
</g>
<!-- VHDLToken -->
<g id="node4" class="node">
<title>VHDLToken</title>
<g id="a_node4"><a xlink:href="../pyVHDLParser.Token.html#pyVHDLParser.Token.VHDLToken" xlink:title="Base&#45;class for all VHDL specific tokens." target="_top">
<polygon fill="white" stroke="#1e90ff" points="308,-128936.09 224.5,-128936.09 224.5,-128917.52 308,-128917.52 308,-128936.09"/>
<text text-anchor="middle" x="266.25" y="-128922.59" font-family="Vera Sans, DejaVu Sans, Liberation Sans, Arial, Helvetica, sans" font-size="10.00">VHDLToken</text>
</a>
</g>
</g>
<!-- VHDLToken&#45;&gt;SpecificVHDLToken -->
<g id="edge3" class="edge">
<title>VHDLToken&#45;&gt;SpecificVHDLToken</title>
<path fill="none" stroke="black" stroke-width="0.5" d="M308.34,-128926.81C317.53,-128926.81 327.57,-128926.81 337.69,-128926.81"/>
<polygon fill="black" stroke="black" stroke-width="0.5" points="338.66,-128928.56 343.66,-128926.81 338.66,-128925.06 338.66,-128928.56"/>
</g>
<!-- Token -->
<g id="node5" class="node">
<title>Token</title>
<g id="a_node5"><a xlink:href="../pyVHDLParser.Token.html#pyVHDLParser.Token.Token" xlink:title="Base&#45;class for all token classes." target="_top">
<polygon fill="white" stroke="#1e90ff" points="54,-128939.81 0,-128939.81 0,-128913.81 54,-128913.81 54,-128939.81"/>
<text text-anchor="middle" x="27" y="-128926.31" font-family="Vera Sans, DejaVu Sans, Liberation Sans, Arial, Helvetica, sans" font-size="10.00">Token</text>
</a>
</g>
</g>
<!-- ValuedToken -->
<g id="node6" class="node">
<title>ValuedToken</title>
<g id="a_node6"><a xlink:href="../pyVHDLParser.Token.html#pyVHDLParser.Token.ValuedToken" xlink:title="Base&#45;class for all *valued* token." target="_top">
<polygon fill="white" stroke="#1e90ff" points="188.5,-128936.06 90,-128936.06 90,-128917.56 188.5,-128917.56 188.5,-128936.06"/>
<text text-anchor="middle" x="139.25" y="-128922.56" font-family="Vera Sans, DejaVu Sans, Liberation Sans, Arial, Helvetica, sans" font-size="10.00">ValuedToken</text>
</a>
</g>
</g>
<!-- Token&#45;&gt;ValuedToken -->
<g id="edge5" class="edge">
<title>Token&#45;&gt;ValuedToken</title>
<path fill="none" stroke="black" stroke-width="0.5" d="M54.41,-128926.81C63.25,-128926.81 73.45,-128926.81 83.64,-128926.81"/>
<polygon fill="black" stroke="black" stroke-width="0.5" points="84.62,-128928.56 89.62,-128926.81 84.62,-128925.06 84.62,-128928.56"/>
</g>
<!-- ValuedToken&#45;&gt;VHDLToken -->
<g id="edge4" class="edge">
<title>ValuedToken&#45;&gt;VHDLToken</title>
<path fill="none" stroke="black" stroke-width="0.5" d="M188.94,-128926.81C198.59,-128926.81 208.7,-128926.81 218.29,-128926.81"/>
<polygon fill="black" stroke="black" stroke-width="0.5" points="219.19,-128928.56 224.19,-128926.81 219.19,-128925.06 219.19,-128928.56"/>
</g>
</g>
</svg>
