<?xml version="1.0" encoding="UTF-8" standalone="no"?>
<!DOCTYPE svg PUBLIC "-//W3C//DTD SVG 1.1//EN"
 "http://www.w3.org/Graphics/SVG/1.1/DTD/svg11.dtd">
<!-- Generated by graphviz version 8.0.5 (20230430.1635)
 -->
<!-- Title: inheritancefba3b9b126 Pages: 1 -->
<svg width="28pt" height="864pt"
 viewBox="0.00 0.00 28.34 864.00" xmlns="http://www.w3.org/2000/svg" xmlns:xlink="http://www.w3.org/1999/xlink">
<g id="graph0" class="graph" transform="scale(0.0490764 0.0490764) rotate(0) translate(4 17601.19)">
<title>inheritancefba3b9b126</title>
<!-- IfKeyword -->
<g id="node1" class="node">
<title>IfKeyword</title>
<g id="a_node1"><a xlink:href="../pyVHDLParser/pyVHDLParser.Token.Keywords.html#pyVHDLParser.Token.Keywords.IfKeyword" xlink:title="IfKeyword" target="_top">
<polygon fill="white" stroke="#1e90ff" points="569.5,-8807.84 486,-8807.84 486,-8789.34 569.5,-8789.34 569.5,-8807.84"/>
<text text-anchor="middle" x="527.75" y="-8794.34" font-family="Vera Sans, DejaVu Sans, Liberation Sans, Arial, Helvetica, sans" font-size="10.00">IfKeyword</text>
</a>
</g>
</g>
<!-- KeywordToken -->
<g id="node2" class="node">
<title>KeywordToken</title>
<g id="a_node2"><a xlink:href="../pyVHDLParser/pyVHDLParser.Token.Keywords.html#pyVHDLParser.Token.Keywords.KeywordToken" xlink:title="KeywordToken" target="_top">
<polygon fill="white" stroke="#1e90ff" points="450,-8807.84 344,-8807.84 344,-8789.34 450,-8789.34 450,-8807.84"/>
<text text-anchor="middle" x="397" y="-8794.34" font-family="Vera Sans, DejaVu Sans, Liberation Sans, Arial, Helvetica, sans" font-size="10.00">KeywordToken</text>
</a>
</g>
</g>
<!-- KeywordToken&#45;&gt;IfKeyword -->
<g id="edge1" class="edge">
<title>KeywordToken&#45;&gt;IfKeyword</title>
<path fill="none" stroke="black" stroke-width="0.5" d="M450.37,-8798.59C460.17,-8798.59 470.35,-8798.59 479.97,-8798.59"/>
<polygon fill="black" stroke="black" stroke-width="0.5" points="480.88,-8800.34 485.88,-8798.59 480.88,-8796.84 480.88,-8800.34"/>
</g>
<!-- VHDLToken -->
<g id="node3" class="node">
<title>VHDLToken</title>
<g id="a_node3"><a xlink:href="../pyVHDLParser.Token.html#pyVHDLParser.Token.VHDLToken" xlink:title="Base&#45;class for all VHDL specific tokens." target="_top">
<polygon fill="white" stroke="#1e90ff" points="308,-17597.14 224.5,-17597.14 224.5,-0.05 308,-0.05 308,-17597.14"/>
<text text-anchor="middle" x="266.25" y="-17583.64" font-family="Vera Sans, DejaVu Sans, Liberation Sans, Arial, Helvetica, sans" font-size="10.00">VHDLToken</text>
</a>
</g>
</g>
<!-- VHDLToken&#45;&gt;KeywordToken -->
<g id="edge2" class="edge">
<title>VHDLToken&#45;&gt;KeywordToken</title>
<path fill="none" stroke="black" stroke-width="0.5" d="M308.34,-8798.59C317.69,-8798.59 327.8,-8798.59 337.71,-8798.59"/>
<polygon fill="black" stroke="black" stroke-width="0.5" points="338.52,-8800.34 343.52,-8798.59 338.52,-8796.84 338.52,-8800.34"/>
</g>
<!-- Token -->
<g id="node4" class="node">
<title>Token</title>
<g id="a_node4"><a xlink:href="../pyVHDLParser.Token.html#pyVHDLParser.Token.Token" xlink:title="Base&#45;class for all token classes." target="_top">
<polygon fill="white" stroke="#1e90ff" points="54,-17597.19 0,-17597.19 0,0 54,0 54,-17597.19"/>
<text text-anchor="middle" x="27" y="-17583.69" font-family="Vera Sans, DejaVu Sans, Liberation Sans, Arial, Helvetica, sans" font-size="10.00">Token</text>
</a>
</g>
</g>
<!-- ValuedToken -->
<g id="node5" class="node">
<title>ValuedToken</title>
<g id="a_node5"><a xlink:href="../pyVHDLParser.Token.html#pyVHDLParser.Token.ValuedToken" xlink:title="Base&#45;class for all *valued* token." target="_top">
<polygon fill="white" stroke="#1e90ff" points="188.5,-8813.34 90,-8813.34 90,-8783.85 188.5,-8783.85 188.5,-8813.34"/>
<text text-anchor="middle" x="139.25" y="-8799.84" font-family="Vera Sans, DejaVu Sans, Liberation Sans, Arial, Helvetica, sans" font-size="10.00">ValuedToken</text>
</a>
</g>
</g>
<!-- Token&#45;&gt;ValuedToken -->
<g id="edge4" class="edge">
<title>Token&#45;&gt;ValuedToken</title>
<path fill="none" stroke="black" stroke-width="0.5" d="M54.41,-8798.59C63.25,-8798.59 73.45,-8798.59 83.64,-8798.59"/>
<polygon fill="black" stroke="black" stroke-width="0.5" points="84.62,-8800.34 89.62,-8798.59 84.62,-8796.84 84.62,-8800.34"/>
</g>
<!-- ValuedToken&#45;&gt;VHDLToken -->
<g id="edge3" class="edge">
<title>ValuedToken&#45;&gt;VHDLToken</title>
<path fill="none" stroke="black" stroke-width="0.5" d="M188.94,-8798.59C198.59,-8798.59 208.7,-8798.59 218.29,-8798.59"/>
<polygon fill="black" stroke="black" stroke-width="0.5" points="219.19,-8800.34 224.19,-8798.59 219.19,-8796.84 219.19,-8800.34"/>
</g>
</g>
</svg>
