<?xml version="1.0" encoding="UTF-8" standalone="no"?>
<!DOCTYPE svg PUBLIC "-//W3C//DTD SVG 1.1//EN"
 "http://www.w3.org/Graphics/SVG/1.1/DTD/svg11.dtd">
<!-- Generated by graphviz version 8.0.5 (20230430.1635)
 -->
<!-- Title: inheritancee92962b4e5 Pages: 1 -->
<svg width="1pt" height="864pt"
 viewBox="0.00 0.00 0.56 864.00" xmlns="http://www.w3.org/2000/svg" xmlns:xlink="http://www.w3.org/1999/xlink">
<g id="graph0" class="graph" transform="scale(0.000681975 0.000681975) rotate(0) translate(4 1266903.83)">
<title>inheritancee92962b4e5</title>
<!-- BracketToken -->
<g id="node1" class="node">
<title>BracketToken</title>
<g id="a_node1"><a xlink:href="../pyVHDLParser/pyVHDLParser.Token.Keywords.html#pyVHDLParser.Token.Keywords.BracketToken" xlink:title="Base&#45;class for all bracket tokens: ``(``, ``)``, ``[``, ``]``, ``{``, ``}``, ``&lt;`` and ``&gt;``." target="_top">
<polygon fill="white" stroke="#1e90ff" points="629.5,-633459.17 523.5,-633459.17 523.5,-633440.67 629.5,-633440.67 629.5,-633459.17"/>
<text text-anchor="middle" x="576.5" y="-633445.67" font-family="Vera Sans, DejaVu Sans, Liberation Sans, Arial, Helvetica, sans" font-size="10.00">BracketToken</text>
</a>
</g>
</g>
<!-- RoundBracketToken -->
<g id="node3" class="node">
<title>RoundBracketToken</title>
<g id="a_node3"><a xlink:href="../pyVHDLParser/pyVHDLParser.Token.Keywords.html#pyVHDLParser.Token.Keywords.RoundBracketToken" xlink:title="Base&#45;class for all round bracket tokens: ``(`` and ``)``." target="_top">
<polygon fill="white" stroke="#1e90ff" points="809,-1266899.83 665.5,-1266899.83 665.5,0 809,0 809,-1266899.83"/>
<text text-anchor="middle" x="737.25" y="-1266886.33" font-family="Vera Sans, DejaVu Sans, Liberation Sans, Arial, Helvetica, sans" font-size="10.00">RoundBracketToken</text>
</a>
</g>
</g>
<!-- BracketToken&#45;&gt;RoundBracketToken -->
<g id="edge2" class="edge">
<title>BracketToken&#45;&gt;RoundBracketToken</title>
<path fill="none" stroke="black" stroke-width="0.5" d="M629.92,-633449.92C639.36,-633449.92 649.37,-633449.92 659.33,-633449.92"/>
<polygon fill="black" stroke="black" stroke-width="0.5" points="660.19,-633451.67 665.19,-633449.92 660.19,-633448.17 660.19,-633451.67"/>
</g>
<!-- SpecificVHDLToken -->
<g id="node2" class="node">
<title>SpecificVHDLToken</title>
<g id="a_node2"><a xlink:href="../pyVHDLParser/pyVHDLParser.Token.Keywords.html#pyVHDLParser.Token.Keywords.SpecificVHDLToken" xlink:title="Base&#45;class for all specific tokens." target="_top">
<polygon fill="white" stroke="#1e90ff" points="487.5,-633459.17 344,-633459.17 344,-633440.67 487.5,-633440.67 487.5,-633459.17"/>
<text text-anchor="middle" x="415.75" y="-633445.67" font-family="Vera Sans, DejaVu Sans, Liberation Sans, Arial, Helvetica, sans" font-size="10.00">SpecificVHDLToken</text>
</a>
</g>
</g>
<!-- SpecificVHDLToken&#45;&gt;BracketToken -->
<g id="edge1" class="edge">
<title>SpecificVHDLToken&#45;&gt;BracketToken</title>
<path fill="none" stroke="black" stroke-width="0.5" d="M487.77,-633449.92C497.61,-633449.92 507.63,-633449.92 517.21,-633449.92"/>
<polygon fill="black" stroke="black" stroke-width="0.5" points="518.11,-633451.67 523.11,-633449.92 518.11,-633448.17 518.11,-633451.67"/>
</g>
<!-- VHDLToken -->
<g id="node4" class="node">
<title>VHDLToken</title>
<g id="a_node4"><a xlink:href="../pyVHDLParser.Token.html#pyVHDLParser.Token.VHDLToken" xlink:title="Base&#45;class for all VHDL specific tokens." target="_top">
<polygon fill="white" stroke="#1e90ff" points="308,-633459.2 224.5,-633459.2 224.5,-633440.63 308,-633440.63 308,-633459.2"/>
<text text-anchor="middle" x="266.25" y="-633445.7" font-family="Vera Sans, DejaVu Sans, Liberation Sans, Arial, Helvetica, sans" font-size="10.00">VHDLToken</text>
</a>
</g>
</g>
<!-- VHDLToken&#45;&gt;SpecificVHDLToken -->
<g id="edge3" class="edge">
<title>VHDLToken&#45;&gt;SpecificVHDLToken</title>
<path fill="none" stroke="black" stroke-width="0.5" d="M308.34,-633449.92C317.53,-633449.92 327.57,-633449.92 337.69,-633449.92"/>
<polygon fill="black" stroke="black" stroke-width="0.5" points="338.66,-633451.67 343.66,-633449.92 338.66,-633448.17 338.66,-633451.67"/>
</g>
<!-- Token -->
<g id="node5" class="node">
<title>Token</title>
<g id="a_node5"><a xlink:href="../pyVHDLParser.Token.html#pyVHDLParser.Token.Token" xlink:title="Base&#45;class for all token classes." target="_top">
<polygon fill="white" stroke="#1e90ff" points="54,-633462.92 0,-633462.92 0,-633436.92 54,-633436.92 54,-633462.92"/>
<text text-anchor="middle" x="27" y="-633449.42" font-family="Vera Sans, DejaVu Sans, Liberation Sans, Arial, Helvetica, sans" font-size="10.00">Token</text>
</a>
</g>
</g>
<!-- ValuedToken -->
<g id="node6" class="node">
<title>ValuedToken</title>
<g id="a_node6"><a xlink:href="../pyVHDLParser.Token.html#pyVHDLParser.Token.ValuedToken" xlink:title="Base&#45;class for all *valued* token." target="_top">
<polygon fill="white" stroke="#1e90ff" points="188.5,-633459.17 90,-633459.17 90,-633440.67 188.5,-633440.67 188.5,-633459.17"/>
<text text-anchor="middle" x="139.25" y="-633445.67" font-family="Vera Sans, DejaVu Sans, Liberation Sans, Arial, Helvetica, sans" font-size="10.00">ValuedToken</text>
</a>
</g>
</g>
<!-- Token&#45;&gt;ValuedToken -->
<g id="edge5" class="edge">
<title>Token&#45;&gt;ValuedToken</title>
<path fill="none" stroke="black" stroke-width="0.5" d="M54.41,-633449.92C63.25,-633449.92 73.45,-633449.92 83.64,-633449.92"/>
<polygon fill="black" stroke="black" stroke-width="0.5" points="84.62,-633451.67 89.62,-633449.92 84.62,-633448.17 84.62,-633451.67"/>
</g>
<!-- ValuedToken&#45;&gt;VHDLToken -->
<g id="edge4" class="edge">
<title>ValuedToken&#45;&gt;VHDLToken</title>
<path fill="none" stroke="black" stroke-width="0.5" d="M188.94,-633449.92C198.59,-633449.92 208.7,-633449.92 218.29,-633449.92"/>
<polygon fill="black" stroke="black" stroke-width="0.5" points="219.19,-633451.67 224.19,-633449.92 219.19,-633448.17 219.19,-633451.67"/>
</g>
</g>
</svg>
