<?xml version="1.0" encoding="UTF-8" standalone="no"?>
<!DOCTYPE svg PUBLIC "-//W3C//DTD SVG 1.1//EN"
 "http://www.w3.org/Graphics/SVG/1.1/DTD/svg11.dtd">
<!-- Generated by graphviz version 8.0.5 (20230430.1635)
 -->
<!-- Title: inheritance9f8df8056d Pages: 1 -->
<svg width="1pt" height="864pt"
 viewBox="0.00 0.00 0.69 864.00" xmlns="http://www.w3.org/2000/svg" xmlns:xlink="http://www.w3.org/1999/xlink">
<g id="graph0" class="graph" transform="scale(0.000691271 0.000691271) rotate(0) translate(4 1249866.93)">
<title>inheritance9f8df8056d</title>
<!-- OperatorToken -->
<g id="node1" class="node">
<title>OperatorToken</title>
<g id="a_node1"><a xlink:href="../pyVHDLParser/pyVHDLParser.Token.Keywords.html#pyVHDLParser.Token.Keywords.OperatorToken" xlink:title="Base&#45;class for all operator tokens." target="_top">
<polygon fill="white" stroke="#1e90ff" points="637,-624940.71 523.5,-624940.71 523.5,-624922.21 637,-624922.21 637,-624940.71"/>
<text text-anchor="middle" x="580.25" y="-624927.21" font-family="Vera Sans, DejaVu Sans, Liberation Sans, Arial, Helvetica, sans" font-size="10.00">OperatorToken</text>
</a>
</g>
</g>
<!-- RelationalOperator -->
<g id="node3" class="node">
<title>RelationalOperator</title>
<g id="a_node3"><a xlink:href="../pyVHDLParser/pyVHDLParser.Token.Keywords.html#pyVHDLParser.Token.Keywords.RelationalOperator" xlink:title="Base&#45;class for all relational operator tokens." target="_top">
<polygon fill="white" stroke="#1e90ff" points="824,-1249862.53 673,-1249862.53 673,-0.4 824,-0.4 824,-1249862.53"/>
<text text-anchor="middle" x="748.5" y="-1249849.03" font-family="Vera Sans, DejaVu Sans, Liberation Sans, Arial, Helvetica, sans" font-size="10.00">RelationalOperator</text>
</a>
</g>
</g>
<!-- OperatorToken&#45;&gt;RelationalOperator -->
<g id="edge2" class="edge">
<title>OperatorToken&#45;&gt;RelationalOperator</title>
<path fill="none" stroke="black" stroke-width="0.5" d="M637.07,-624931.46C646.61,-624931.46 656.69,-624931.46 666.73,-624931.46"/>
<polygon fill="black" stroke="black" stroke-width="0.5" points="667.63,-624933.21 672.63,-624931.46 667.63,-624929.71 667.63,-624933.21"/>
</g>
<!-- SpecificVHDLToken -->
<g id="node2" class="node">
<title>SpecificVHDLToken</title>
<g id="a_node2"><a xlink:href="../pyVHDLParser/pyVHDLParser.Token.Keywords.html#pyVHDLParser.Token.Keywords.SpecificVHDLToken" xlink:title="Base&#45;class for all specific tokens." target="_top">
<polygon fill="white" stroke="#1e90ff" points="487.5,-1249854.9 344,-1249854.9 344,-8.02 487.5,-8.02 487.5,-1249854.9"/>
<text text-anchor="middle" x="415.75" y="-1249841.4" font-family="Vera Sans, DejaVu Sans, Liberation Sans, Arial, Helvetica, sans" font-size="10.00">SpecificVHDLToken</text>
</a>
</g>
</g>
<!-- SpecificVHDLToken&#45;&gt;OperatorToken -->
<g id="edge1" class="edge">
<title>SpecificVHDLToken&#45;&gt;OperatorToken</title>
<path fill="none" stroke="black" stroke-width="0.5" d="M487.55,-624931.46C497.56,-624931.46 507.79,-624931.46 517.6,-624931.46"/>
<polygon fill="black" stroke="black" stroke-width="0.5" points="518.33,-624933.21 523.33,-624931.46 518.33,-624929.71 518.33,-624933.21"/>
</g>
<!-- UnequalOperator -->
<g id="node6" class="node">
<title>UnequalOperator</title>
<g id="a_node6"><a xlink:href="../pyVHDLParser/pyVHDLParser.Token.Keywords.html#pyVHDLParser.Token.Keywords.UnequalOperator" xlink:title="UnequalOperator" target="_top">
<polygon fill="white" stroke="#1e90ff" points="988.5,-624940.71 860,-624940.71 860,-624922.21 988.5,-624922.21 988.5,-624940.71"/>
<text text-anchor="middle" x="924.25" y="-624927.21" font-family="Vera Sans, DejaVu Sans, Liberation Sans, Arial, Helvetica, sans" font-size="10.00">UnequalOperator</text>
</a>
</g>
</g>
<!-- RelationalOperator&#45;&gt;UnequalOperator -->
<g id="edge4" class="edge">
<title>RelationalOperator&#45;&gt;UnequalOperator</title>
<path fill="none" stroke="black" stroke-width="0.5" d="M824.45,-624931.46C834.18,-624931.46 844.12,-624931.46 853.76,-624931.46"/>
<polygon fill="black" stroke="black" stroke-width="0.5" points="854.72,-624933.21 859.72,-624931.46 854.72,-624929.71 854.72,-624933.21"/>
</g>
<!-- VHDLToken -->
<g id="node4" class="node">
<title>VHDLToken</title>
<g id="a_node4"><a xlink:href="../pyVHDLParser.Token.html#pyVHDLParser.Token.VHDLToken" xlink:title="Base&#45;class for all VHDL specific tokens." target="_top">
<polygon fill="white" stroke="#1e90ff" points="308,-1249862.93 224.5,-1249862.93 224.5,0 308,0 308,-1249862.93"/>
<text text-anchor="middle" x="266.25" y="-1249849.43" font-family="Vera Sans, DejaVu Sans, Liberation Sans, Arial, Helvetica, sans" font-size="10.00">VHDLToken</text>
</a>
</g>
</g>
<!-- VHDLToken&#45;&gt;SpecificVHDLToken -->
<g id="edge3" class="edge">
<title>VHDLToken&#45;&gt;SpecificVHDLToken</title>
<path fill="none" stroke="black" stroke-width="0.5" d="M308.34,-624931.46C317.53,-624931.46 327.57,-624931.46 337.69,-624931.46"/>
<polygon fill="black" stroke="black" stroke-width="0.5" points="338.66,-624933.21 343.66,-624931.46 338.66,-624929.71 338.66,-624933.21"/>
</g>
<!-- Token -->
<g id="node5" class="node">
<title>Token</title>
<g id="a_node5"><a xlink:href="../pyVHDLParser.Token.html#pyVHDLParser.Token.Token" xlink:title="Base&#45;class for all token classes." target="_top">
<polygon fill="white" stroke="#1e90ff" points="54,-624940.71 0,-624940.71 0,-624922.21 54,-624922.21 54,-624940.71"/>
<text text-anchor="middle" x="27" y="-624927.21" font-family="Vera Sans, DejaVu Sans, Liberation Sans, Arial, Helvetica, sans" font-size="10.00">Token</text>
</a>
</g>
</g>
<!-- ValuedToken -->
<g id="node7" class="node">
<title>ValuedToken</title>
<g id="a_node7"><a xlink:href="../pyVHDLParser.Token.html#pyVHDLParser.Token.ValuedToken" xlink:title="Base&#45;class for all *valued* token." target="_top">
<polygon fill="white" stroke="#1e90ff" points="188.5,-624952.66 90,-624952.66 90,-624910.26 188.5,-624910.26 188.5,-624952.66"/>
<text text-anchor="middle" x="139.25" y="-624939.16" font-family="Vera Sans, DejaVu Sans, Liberation Sans, Arial, Helvetica, sans" font-size="10.00">ValuedToken</text>
</a>
</g>
</g>
<!-- Token&#45;&gt;ValuedToken -->
<g id="edge6" class="edge">
<title>Token&#45;&gt;ValuedToken</title>
<path fill="none" stroke="black" stroke-width="0.5" d="M54.41,-624931.46C63.25,-624931.46 73.45,-624931.46 83.64,-624931.46"/>
<polygon fill="black" stroke="black" stroke-width="0.5" points="84.62,-624933.21 89.62,-624931.46 84.62,-624929.71 84.62,-624933.21"/>
</g>
<!-- ValuedToken&#45;&gt;VHDLToken -->
<g id="edge5" class="edge">
<title>ValuedToken&#45;&gt;VHDLToken</title>
<path fill="none" stroke="black" stroke-width="0.5" d="M188.94,-624931.46C198.59,-624931.46 208.7,-624931.46 218.29,-624931.46"/>
<polygon fill="black" stroke="black" stroke-width="0.5" points="219.19,-624933.21 224.19,-624931.46 219.19,-624929.71 219.19,-624933.21"/>
</g>
</g>
</svg>
