<?xml version="1.0" encoding="UTF-8" standalone="no"?>
<!DOCTYPE svg PUBLIC "-//W3C//DTD SVG 1.1//EN"
 "http://www.w3.org/Graphics/SVG/1.1/DTD/svg11.dtd">
<!-- Generated by graphviz version 8.0.5 (20230430.1635)
 -->
<!-- Title: inheritance60a498c76a Pages: 1 -->
<svg width="3pt" height="864pt"
 viewBox="0.00 0.00 3.22 864.00" xmlns="http://www.w3.org/2000/svg" xmlns:xlink="http://www.w3.org/1999/xlink">
<g id="graph0" class="graph" transform="scale(0.00461926 0.00461926) rotate(0) translate(4 187038.79)">
<title>inheritance60a498c76a</title>
<!-- Architecture -->
<g id="node1" class="node">
<title>Architecture</title>
<g id="a_node1"><a xlink:href="../pyVHDLParser/pyVHDLParser.DocumentModel.DesignUnit.Architecture.html#pyVHDLParser.DocumentModel.DesignUnit.Architecture.Architecture" xlink:title="Architecture" target="_top">
<polygon fill="white" stroke="#1e90ff" points="689.5,-60720.5 583.5,-60720.5 583.5,-60702 689.5,-60702 689.5,-60720.5"/>
<text text-anchor="middle" x="636.5" y="-60707" font-family="Vera Sans, DejaVu Sans, Liberation Sans, Arial, Helvetica, sans" font-size="10.00">Architecture</text>
</a>
</g>
</g>
<!-- Architecture&#45;&gt;Architecture -->
<g id="edge5" class="edge">
<title>Architecture&#45;&gt;Architecture</title>
<path fill="none" stroke="black" stroke-width="0.5" d="M606.52,-60720.75C591.94,-60729.32 601.93,-60738.5 636.5,-60738.5 666.21,-60738.5 677.77,-60731.72 671.17,-60724.37"/>
<polygon fill="black" stroke="black" stroke-width="0.5" points="671.51,-60722.42 666.48,-60720.75 669.37,-60725.19 671.51,-60722.42"/>
</g>
<!-- SecondaryUnit -->
<g id="node2" class="node">
<title>SecondaryUnit</title>
<g id="a_node2"><a xlink:title="A ``SecondaryUnit`` is a base&#45;class for all secondary units.">
<polygon fill="white" stroke="#1e90ff" points="498.75,-60777.5 385.25,-60777.5 385.25,-60759 498.75,-60759 498.75,-60777.5"/>
<text text-anchor="middle" x="442" y="-60764" font-family="Vera Sans, DejaVu Sans, Liberation Sans, Arial, Helvetica, sans" font-size="10.00">SecondaryUnit</text>
</a>
</g>
</g>
<!-- SecondaryUnit&#45;&gt;Architecture -->
<g id="edge1" class="edge">
<title>SecondaryUnit&#45;&gt;Architecture</title>
<path fill="none" stroke="black" stroke-width="0.5" d="M499.15,-60760.46C514.96,-60757.62 532.06,-60753.92 547.5,-60749.25 569.87,-60742.48 594.19,-60731.7 611.58,-60723.35"/>
<polygon fill="black" stroke="black" stroke-width="0.5" points="613.01,-60724.6 616.74,-60720.84 611.48,-60721.45 613.01,-60724.6"/>
</g>
<!-- DesignUnitWithContextMixin -->
<g id="node3" class="node">
<title>DesignUnitWithContextMixin</title>
<polygon fill="white" stroke="#1e90ff" points="547.5,-60740.5 336.5,-60740.5 336.5,-60722 547.5,-60722 547.5,-60740.5"/>
<text text-anchor="middle" x="442" y="-60727" font-family="Vera Sans, DejaVu Sans, Liberation Sans, Arial, Helvetica, sans" font-size="10.00">DesignUnitWithContextMixin</text>
</g>
<!-- DesignUnitWithContextMixin&#45;&gt;Architecture -->
<g id="edge2" class="edge">
<title>DesignUnitWithContextMixin&#45;&gt;Architecture</title>
<path fill="none" stroke="black" stroke-width="0.5" d="M536.71,-60721.51C550.56,-60720.07 564.48,-60718.63 577.32,-60717.29"/>
<polygon fill="black" stroke="black" stroke-width="0.5" points="578.34,-60718.95 583.14,-60716.69 577.98,-60715.47 578.34,-60718.95"/>
</g>
<!-- ConcurrentDeclarations -->
<g id="node4" class="node">
<title>ConcurrentDeclarations</title>
<polygon fill="white" stroke="#1e90ff" points="532.5,-60704.25 351.5,-60704.25 351.5,-60678.25 532.5,-60678.25 532.5,-60704.25"/>
<text text-anchor="middle" x="442" y="-60690.75" font-family="Vera Sans, DejaVu Sans, Liberation Sans, Arial, Helvetica, sans" font-size="10.00">ConcurrentDeclarations</text>
</g>
<!-- ConcurrentDeclarations&#45;&gt;Architecture -->
<g id="edge3" class="edge">
<title>ConcurrentDeclarations&#45;&gt;Architecture</title>
<path fill="none" stroke="black" stroke-width="0.5" d="M532.77,-60700.58C547.86,-60702.14 563.17,-60703.74 577.2,-60705.19"/>
<polygon fill="black" stroke="black" stroke-width="0.5" points="577.97,-60707.03 583.13,-60705.81 578.34,-60703.55 577.97,-60707.03"/>
</g>
<!-- ConcurrentStatements -->
<g id="node5" class="node">
<title>ConcurrentStatements</title>
<polygon fill="white" stroke="#1e90ff" points="525,-60660.5 359,-60660.5 359,-60642 525,-60642 525,-60660.5"/>
<text text-anchor="middle" x="442" y="-60647" font-family="Vera Sans, DejaVu Sans, Liberation Sans, Arial, Helvetica, sans" font-size="10.00">ConcurrentStatements</text>
</g>
<!-- ConcurrentStatements&#45;&gt;Architecture -->
<g id="edge4" class="edge">
<title>ConcurrentStatements&#45;&gt;Architecture</title>
<path fill="none" stroke="black" stroke-width="0.5" d="M515.02,-60660.97C526.02,-60663.23 537.15,-60665.96 547.5,-60669.25 571.04,-60676.74 596.33,-60689.33 613.73,-60698.78"/>
<polygon fill="black" stroke="black" stroke-width="0.5" points="613.64,-60700.73 618.87,-60701.6 615.33,-60697.66 613.64,-60700.73"/>
</g>
<!-- DesignUnit -->
<g id="node6" class="node">
<title>DesignUnit</title>
<g id="a_node6"><a xlink:title="A ``DesignUnit`` is a base&#45;class for all design units.">
<polygon fill="white" stroke="#1e90ff" points="300.5,-60777.5 209.5,-60777.5 209.5,-60759 300.5,-60759 300.5,-60777.5"/>
<text text-anchor="middle" x="255" y="-60764" font-family="Vera Sans, DejaVu Sans, Liberation Sans, Arial, Helvetica, sans" font-size="10.00">DesignUnit</text>
</a>
</g>
</g>
<!-- DesignUnit&#45;&gt;SecondaryUnit -->
<g id="edge9" class="edge">
<title>DesignUnit&#45;&gt;SecondaryUnit</title>
<path fill="none" stroke="black" stroke-width="0.5" d="M300.78,-60768.25C324.35,-60768.25 353.6,-60768.25 379.27,-60768.25"/>
<polygon fill="black" stroke="black" stroke-width="0.5" points="380.04,-60770 385.04,-60768.25 380.04,-60766.5 380.04,-60770"/>
</g>
<!-- ModelEntity -->
<g id="node7" class="node">
<title>ModelEntity</title>
<g id="a_node7"><a xlink:title="``ModelEntity`` is the base&#45;class for all classes in the VHDL language model, except for mixin classes (see multiple">
<polygon fill="white" stroke="#1e90ff" points="136,-187034.79 37.5,-187034.79 37.5,-65571.71 136,-65571.71 136,-187034.79"/>
<text text-anchor="middle" x="86.75" y="-187021.29" font-family="Vera Sans, DejaVu Sans, Liberation Sans, Arial, Helvetica, sans" font-size="10.00">ModelEntity</text>
</a>
</g>
</g>
<!-- ModelEntity&#45;&gt;DesignUnit -->
<g id="edge6" class="edge">
<title>ModelEntity&#45;&gt;DesignUnit</title>
<path fill="none" stroke="black" stroke-width="0.5" d="M136.5,-107086.5C184.87,-88017.27 252.1,-61515.96 253.96,-60783.76"/>
<polygon fill="black" stroke="black" stroke-width="0.5" points="255.71,-60782.98 253.98,-60777.97 252.21,-60782.97 255.71,-60782.98"/>
</g>
<!-- NamedEntityMixin -->
<g id="node8" class="node">
<title>NamedEntityMixin</title>
<g id="a_node8"><a xlink:title="A ``NamedEntityMixin`` is a mixin class for all VHDL entities that have identifiers.">
<polygon fill="white" stroke="#1e90ff" points="154.75,-121499.84 18.75,-121499.84 18.75,-36.66 154.75,-36.66 154.75,-121499.84"/>
<text text-anchor="middle" x="86.75" y="-121486.34" font-family="Vera Sans, DejaVu Sans, Liberation Sans, Arial, Helvetica, sans" font-size="10.00">NamedEntityMixin</text>
</a>
</g>
</g>
<!-- NamedEntityMixin&#45;&gt;DesignUnit -->
<g id="edge7" class="edge">
<title>NamedEntityMixin&#45;&gt;DesignUnit</title>
<path fill="none" stroke="black" stroke-width="0.5" d="M154.89,-60768.25C170.96,-60768.25 187.86,-60768.25 203.06,-60768.25"/>
<polygon fill="black" stroke="black" stroke-width="0.5" points="204.02,-60770 209.02,-60768.25 204.02,-60766.5 204.02,-60770"/>
</g>
<!-- DocumentedEntityMixin -->
<g id="node9" class="node">
<title>DocumentedEntityMixin</title>
<g id="a_node9"><a xlink:title="A ``DocumentedEntityMixin`` is a mixin class for all VHDL entities that can have an associated documentation.">
<polygon fill="white" stroke="#1e90ff" points="173.5,-18.5 0,-18.5 0,0 173.5,0 173.5,-18.5"/>
<text text-anchor="middle" x="86.75" y="-5" font-family="Vera Sans, DejaVu Sans, Liberation Sans, Arial, Helvetica, sans" font-size="10.00">DocumentedEntityMixin</text>
</a>
</g>
</g>
<!-- DocumentedEntityMixin&#45;&gt;DesignUnit -->
<g id="edge8" class="edge">
<title>DocumentedEntityMixin&#45;&gt;DesignUnit</title>
<path fill="none" stroke="black" stroke-width="0.5" d="M164.25,-18.79C167.69,-21.15 170.81,-23.95 173.5,-27.25 239.41,-108.32 253.74,-59649.67 254,-60752.73"/>
<polygon fill="black" stroke="black" stroke-width="0.5" points="252.25,-60753.54 254,-60758.54 255.75,-60753.54 252.25,-60753.54"/>
</g>
</g>
</svg>
