<?xml version="1.0" encoding="UTF-8" standalone="no"?>
<!DOCTYPE svg PUBLIC "-//W3C//DTD SVG 1.1//EN"
 "http://www.w3.org/Graphics/SVG/1.1/DTD/svg11.dtd">
<!-- Generated by graphviz version 8.0.5 (20230430.1635)
 -->
<!-- Title: inheritancecedf3a01fb Pages: 1 -->
<svg width="0pt" height="864pt"
 viewBox="0.00 0.00 0.35 864.00" xmlns="http://www.w3.org/2000/svg" xmlns:xlink="http://www.w3.org/1999/xlink">
<g id="graph0" class="graph" transform="scale(0.000560849 0.000560849) rotate(0) translate(4 1540516.42)">
<title>inheritancecedf3a01fb</title>
<!-- KeywordToken -->
<g id="node1" class="node">
<title>KeywordToken</title>
<g id="a_node1"><a xlink:href="../pyVHDLParser/pyVHDLParser.Token.Keywords.html#pyVHDLParser.Token.Keywords.KeywordToken" xlink:title="KeywordToken" target="_top">
<polygon fill="white" stroke="#1e90ff" points="450,-770265.46 344,-770265.46 344,-770246.96 450,-770246.96 450,-770265.46"/>
<text text-anchor="middle" x="397" y="-770251.96" font-family="Vera Sans, DejaVu Sans, Liberation Sans, Arial, Helvetica, sans" font-size="10.00">KeywordToken</text>
</a>
</g>
</g>
<!-- PostponedKeyword -->
<g id="node3" class="node">
<title>PostponedKeyword</title>
<g id="a_node3"><a xlink:href="../pyVHDLParser/pyVHDLParser.Token.Keywords.html#pyVHDLParser.Token.Keywords.PostponedKeyword" xlink:title="PostponedKeyword" target="_top">
<polygon fill="white" stroke="#1e90ff" points="622,-1540512.42 486,-1540512.42 486,0 622,0 622,-1540512.42"/>
<text text-anchor="middle" x="554" y="-1540498.92" font-family="Vera Sans, DejaVu Sans, Liberation Sans, Arial, Helvetica, sans" font-size="10.00">PostponedKeyword</text>
</a>
</g>
</g>
<!-- KeywordToken&#45;&gt;PostponedKeyword -->
<g id="edge2" class="edge">
<title>KeywordToken&#45;&gt;PostponedKeyword</title>
<path fill="none" stroke="black" stroke-width="0.5" d="M450.48,-770256.21C459.95,-770256.21 469.98,-770256.21 479.91,-770256.21"/>
<polygon fill="black" stroke="black" stroke-width="0.5" points="480.74,-770257.96 485.74,-770256.21 480.74,-770254.46 480.74,-770257.96"/>
</g>
<!-- VHDLToken -->
<g id="node2" class="node">
<title>VHDLToken</title>
<g id="a_node2"><a xlink:href="../pyVHDLParser.Token.html#pyVHDLParser.Token.VHDLToken" xlink:title="Base&#45;class for all VHDL specific tokens." target="_top">
<polygon fill="white" stroke="#1e90ff" points="308,-770265.46 224.5,-770265.46 224.5,-770246.96 308,-770246.96 308,-770265.46"/>
<text text-anchor="middle" x="266.25" y="-770251.96" font-family="Vera Sans, DejaVu Sans, Liberation Sans, Arial, Helvetica, sans" font-size="10.00">VHDLToken</text>
</a>
</g>
</g>
<!-- VHDLToken&#45;&gt;KeywordToken -->
<g id="edge1" class="edge">
<title>VHDLToken&#45;&gt;KeywordToken</title>
<path fill="none" stroke="black" stroke-width="0.5" d="M308.34,-770256.21C317.69,-770256.21 327.8,-770256.21 337.71,-770256.21"/>
<polygon fill="black" stroke="black" stroke-width="0.5" points="338.52,-770257.96 343.52,-770256.21 338.52,-770254.46 338.52,-770257.96"/>
</g>
<!-- Token -->
<g id="node4" class="node">
<title>Token</title>
<g id="a_node4"><a xlink:href="../pyVHDLParser.Token.html#pyVHDLParser.Token.Token" xlink:title="Base&#45;class for all token classes." target="_top">
<polygon fill="white" stroke="#1e90ff" points="54,-1540512.37 0,-1540512.37 0,-0.05 54,-0.05 54,-1540512.37"/>
<text text-anchor="middle" x="27" y="-1540498.87" font-family="Vera Sans, DejaVu Sans, Liberation Sans, Arial, Helvetica, sans" font-size="10.00">Token</text>
</a>
</g>
</g>
<!-- ValuedToken -->
<g id="node5" class="node">
<title>ValuedToken</title>
<g id="a_node5"><a xlink:href="../pyVHDLParser.Token.html#pyVHDLParser.Token.ValuedToken" xlink:title="Base&#45;class for all *valued* token." target="_top">
<polygon fill="white" stroke="#1e90ff" points="188.5,-770265.46 90,-770265.46 90,-770246.96 188.5,-770246.96 188.5,-770265.46"/>
<text text-anchor="middle" x="139.25" y="-770251.96" font-family="Vera Sans, DejaVu Sans, Liberation Sans, Arial, Helvetica, sans" font-size="10.00">ValuedToken</text>
</a>
</g>
</g>
<!-- Token&#45;&gt;ValuedToken -->
<g id="edge4" class="edge">
<title>Token&#45;&gt;ValuedToken</title>
<path fill="none" stroke="black" stroke-width="0.5" d="M54.41,-770256.21C63.25,-770256.21 73.45,-770256.21 83.64,-770256.21"/>
<polygon fill="black" stroke="black" stroke-width="0.5" points="84.62,-770257.96 89.62,-770256.21 84.62,-770254.46 84.62,-770257.96"/>
</g>
<!-- ValuedToken&#45;&gt;VHDLToken -->
<g id="edge3" class="edge">
<title>ValuedToken&#45;&gt;VHDLToken</title>
<path fill="none" stroke="black" stroke-width="0.5" d="M188.94,-770256.21C198.59,-770256.21 208.7,-770256.21 218.29,-770256.21"/>
<polygon fill="black" stroke="black" stroke-width="0.5" points="219.19,-770257.96 224.19,-770256.21 219.19,-770254.46 219.19,-770257.96"/>
</g>
</g>
</svg>
