<?xml version="1.0" encoding="UTF-8" standalone="no"?>
<!DOCTYPE svg PUBLIC "-//W3C//DTD SVG 1.1//EN"
 "http://www.w3.org/Graphics/SVG/1.1/DTD/svg11.dtd">
<!-- Generated by graphviz version 8.0.5 (20230430.1635)
 -->
<!-- Title: inheritance7ca688954a Pages: 1 -->
<svg width="1pt" height="864pt"
 viewBox="0.00 0.00 1.04 864.00" xmlns="http://www.w3.org/2000/svg" xmlns:xlink="http://www.w3.org/1999/xlink">
<g id="graph0" class="graph" transform="scale(0.00169532 0.00169532) rotate(0) translate(4 509635.42)">
<title>inheritance7ca688954a</title>
<!-- KeywordToken -->
<g id="node1" class="node">
<title>KeywordToken</title>
<g id="a_node1"><a xlink:href="../pyVHDLParser/pyVHDLParser.Token.Keywords.html#pyVHDLParser.Token.Keywords.KeywordToken" xlink:title="KeywordToken" target="_top">
<polygon fill="white" stroke="#1e90ff" points="450,-254824.96 344,-254824.96 344,-254806.46 450,-254806.46 450,-254824.96"/>
<text text-anchor="middle" x="397" y="-254811.46" font-family="Vera Sans, DejaVu Sans, Liberation Sans, Arial, Helvetica, sans" font-size="10.00">KeywordToken</text>
</a>
</g>
</g>
<!-- LiteralKeyword -->
<g id="node3" class="node">
<title>LiteralKeyword</title>
<g id="a_node3"><a xlink:href="../pyVHDLParser/pyVHDLParser.Token.Keywords.html#pyVHDLParser.Token.Keywords.LiteralKeyword" xlink:title="LiteralKeyword" target="_top">
<polygon fill="white" stroke="#1e90ff" points="607,-509631.42 486,-509631.42 486,0 607,0 607,-509631.42"/>
<text text-anchor="middle" x="546.5" y="-509617.92" font-family="Vera Sans, DejaVu Sans, Liberation Sans, Arial, Helvetica, sans" font-size="10.00">LiteralKeyword</text>
</a>
</g>
</g>
<!-- KeywordToken&#45;&gt;LiteralKeyword -->
<g id="edge2" class="edge">
<title>KeywordToken&#45;&gt;LiteralKeyword</title>
<path fill="none" stroke="black" stroke-width="0.5" d="M450.42,-254815.71C459.97,-254815.71 470.05,-254815.71 479.92,-254815.71"/>
<polygon fill="black" stroke="black" stroke-width="0.5" points="480.71,-254817.46 485.71,-254815.71 480.71,-254813.96 480.71,-254817.46"/>
</g>
<!-- VHDLToken -->
<g id="node2" class="node">
<title>VHDLToken</title>
<g id="a_node2"><a xlink:href="../pyVHDLParser.Token.html#pyVHDLParser.Token.VHDLToken" xlink:title="Base&#45;class for all VHDL specific tokens." target="_top">
<polygon fill="white" stroke="#1e90ff" points="308,-254824.96 224.5,-254824.96 224.5,-254806.46 308,-254806.46 308,-254824.96"/>
<text text-anchor="middle" x="266.25" y="-254811.46" font-family="Vera Sans, DejaVu Sans, Liberation Sans, Arial, Helvetica, sans" font-size="10.00">VHDLToken</text>
</a>
</g>
</g>
<!-- VHDLToken&#45;&gt;KeywordToken -->
<g id="edge1" class="edge">
<title>VHDLToken&#45;&gt;KeywordToken</title>
<path fill="none" stroke="black" stroke-width="0.5" d="M308.34,-254815.71C317.69,-254815.71 327.8,-254815.71 337.71,-254815.71"/>
<polygon fill="black" stroke="black" stroke-width="0.5" points="338.52,-254817.46 343.52,-254815.71 338.52,-254813.96 338.52,-254817.46"/>
</g>
<!-- Token -->
<g id="node4" class="node">
<title>Token</title>
<g id="a_node4"><a xlink:href="../pyVHDLParser.Token.html#pyVHDLParser.Token.Token" xlink:title="Base&#45;class for all token classes." target="_top">
<polygon fill="white" stroke="#1e90ff" points="54,-509631.37 0,-509631.37 0,-0.05 54,-0.05 54,-509631.37"/>
<text text-anchor="middle" x="27" y="-509617.87" font-family="Vera Sans, DejaVu Sans, Liberation Sans, Arial, Helvetica, sans" font-size="10.00">Token</text>
</a>
</g>
</g>
<!-- ValuedToken -->
<g id="node5" class="node">
<title>ValuedToken</title>
<g id="a_node5"><a xlink:href="../pyVHDLParser.Token.html#pyVHDLParser.Token.ValuedToken" xlink:title="Base&#45;class for all *valued* token." target="_top">
<polygon fill="white" stroke="#1e90ff" points="188.5,-254824.96 90,-254824.96 90,-254806.46 188.5,-254806.46 188.5,-254824.96"/>
<text text-anchor="middle" x="139.25" y="-254811.46" font-family="Vera Sans, DejaVu Sans, Liberation Sans, Arial, Helvetica, sans" font-size="10.00">ValuedToken</text>
</a>
</g>
</g>
<!-- Token&#45;&gt;ValuedToken -->
<g id="edge4" class="edge">
<title>Token&#45;&gt;ValuedToken</title>
<path fill="none" stroke="black" stroke-width="0.5" d="M54.41,-254815.71C63.25,-254815.71 73.45,-254815.71 83.64,-254815.71"/>
<polygon fill="black" stroke="black" stroke-width="0.5" points="84.62,-254817.46 89.62,-254815.71 84.62,-254813.96 84.62,-254817.46"/>
</g>
<!-- ValuedToken&#45;&gt;VHDLToken -->
<g id="edge3" class="edge">
<title>ValuedToken&#45;&gt;VHDLToken</title>
<path fill="none" stroke="black" stroke-width="0.5" d="M188.94,-254815.71C198.59,-254815.71 208.7,-254815.71 218.29,-254815.71"/>
<polygon fill="black" stroke="black" stroke-width="0.5" points="219.19,-254817.46 224.19,-254815.71 219.19,-254813.96 219.19,-254817.46"/>
</g>
</g>
</svg>
