<?xml version="1.0" encoding="UTF-8" standalone="no"?>
<!DOCTYPE svg PUBLIC "-//W3C//DTD SVG 1.1//EN"
 "http://www.w3.org/Graphics/SVG/1.1/DTD/svg11.dtd">
<!-- Generated by graphviz version 8.0.5 (20230430.1635)
 -->
<!-- Title: inheritanced5ebce6976 Pages: 1 -->
<svg width="458pt" height="34pt"
 viewBox="0.00 0.00 458.00 34.00" xmlns="http://www.w3.org/2000/svg" xmlns:xlink="http://www.w3.org/1999/xlink">
<g id="graph0" class="graph" transform="scale(1 1) rotate(0) translate(4 30)">
<title>inheritanced5ebce6976</title>
<!-- CommentToken -->
<g id="node1" class="node">
<title>CommentToken</title>
<g id="a_node1"><a xlink:href="../pyVHDLParser/pyVHDLParser.Token.html#pyVHDLParser.Token.CommentToken" xlink:title="Base&#45;class for comment tokens." target="_top">
<polygon fill="white" stroke="#1e90ff" points="450,-22.25 344,-22.25 344,-3.75 450,-3.75 450,-22.25"/>
<text text-anchor="middle" x="397" y="-8.75" font-family="Vera Sans, DejaVu Sans, Liberation Sans, Arial, Helvetica, sans" font-size="10.00">CommentToken</text>
</a>
</g>
</g>
<!-- VHDLToken -->
<g id="node2" class="node">
<title>VHDLToken</title>
<g id="a_node2"><a xlink:href="../pyVHDLParser/pyVHDLParser.Token.html#pyVHDLParser.Token.VHDLToken" xlink:title="Base&#45;class for all VHDL specific tokens." target="_top">
<polygon fill="white" stroke="#1e90ff" points="308,-22.25 224.5,-22.25 224.5,-3.75 308,-3.75 308,-22.25"/>
<text text-anchor="middle" x="266.25" y="-8.75" font-family="Vera Sans, DejaVu Sans, Liberation Sans, Arial, Helvetica, sans" font-size="10.00">VHDLToken</text>
</a>
</g>
</g>
<!-- VHDLToken&#45;&gt;CommentToken -->
<g id="edge1" class="edge">
<title>VHDLToken&#45;&gt;CommentToken</title>
<path fill="none" stroke="black" stroke-width="0.5" d="M308.34,-13C317.69,-13 327.8,-13 337.71,-13"/>
<polygon fill="black" stroke="black" stroke-width="0.5" points="338.52,-14.75 343.52,-13 338.52,-11.25 338.52,-14.75"/>
</g>
<!-- Token -->
<g id="node3" class="node">
<title>Token</title>
<g id="a_node3"><a xlink:href="../pyVHDLParser/pyVHDLParser.Token.html#pyVHDLParser.Token.Token" xlink:title="Base&#45;class for all token classes." target="_top">
<polygon fill="white" stroke="#1e90ff" points="54,-22.25 0,-22.25 0,-3.75 54,-3.75 54,-22.25"/>
<text text-anchor="middle" x="27" y="-8.75" font-family="Vera Sans, DejaVu Sans, Liberation Sans, Arial, Helvetica, sans" font-size="10.00">Token</text>
</a>
</g>
</g>
<!-- ValuedToken -->
<g id="node4" class="node">
<title>ValuedToken</title>
<g id="a_node4"><a xlink:href="../pyVHDLParser/pyVHDLParser.Token.html#pyVHDLParser.Token.ValuedToken" xlink:title="Base&#45;class for all *valued* token." target="_top">
<polygon fill="white" stroke="#1e90ff" points="188.5,-26 90,-26 90,0 188.5,0 188.5,-26"/>
<text text-anchor="middle" x="139.25" y="-12.5" font-family="Vera Sans, DejaVu Sans, Liberation Sans, Arial, Helvetica, sans" font-size="10.00">ValuedToken</text>
</a>
</g>
</g>
<!-- Token&#45;&gt;ValuedToken -->
<g id="edge3" class="edge">
<title>Token&#45;&gt;ValuedToken</title>
<path fill="none" stroke="black" stroke-width="0.5" d="M54.41,-13C63.25,-13 73.45,-13 83.64,-13"/>
<polygon fill="black" stroke="black" stroke-width="0.5" points="84.62,-14.75 89.62,-13 84.62,-11.25 84.62,-14.75"/>
</g>
<!-- ValuedToken&#45;&gt;VHDLToken -->
<g id="edge2" class="edge">
<title>ValuedToken&#45;&gt;VHDLToken</title>
<path fill="none" stroke="black" stroke-width="0.5" d="M188.94,-13C198.59,-13 208.7,-13 218.29,-13"/>
<polygon fill="black" stroke="black" stroke-width="0.5" points="219.19,-14.75 224.19,-13 219.19,-11.25 219.19,-14.75"/>
</g>
</g>
</svg>
