<?xml version="1.0" encoding="UTF-8" standalone="no"?>
<!DOCTYPE svg PUBLIC "-//W3C//DTD SVG 1.1//EN"
 "http://www.w3.org/Graphics/SVG/1.1/DTD/svg11.dtd">
<!-- Generated by graphviz version 8.0.5 (20230430.1635)
 -->
<!-- Title: inheritancee698c170dd Pages: 1 -->
<svg width="576pt" height="22pt"
 viewBox="0.00 0.00 576.00 22.50" xmlns="http://www.w3.org/2000/svg" xmlns:xlink="http://www.w3.org/1999/xlink">
<g id="graph0" class="graph" transform="scale(0.661689 0.661689) rotate(0) translate(4 30)">
<title>inheritancee698c170dd</title>
<!-- Block -->
<g id="node1" class="node">
<title>Block</title>
<g id="a_node1"><a xlink:href="../pyVHDLParser.Blocks.html#pyVHDLParser.Blocks.Block" xlink:title="Base&#45;class for all :term:`block` classes." target="_top">
<polygon fill="white" stroke="#1e90ff" points="54,-22.25 0,-22.25 0,-3.75 54,-3.75 54,-22.25"/>
<text text-anchor="middle" x="27" y="-8.75" font-family="Vera Sans, DejaVu Sans, Liberation Sans, Arial, Helvetica, sans" font-size="10.00">Block</text>
</a>
</g>
</g>
<!-- ExpressionBlock -->
<g id="node4" class="node">
<title>ExpressionBlock</title>
<g id="a_node4"><a xlink:href="../pyVHDLParser.Blocks.Expression.html#pyVHDLParser.Blocks.Expression.ExpressionBlock" xlink:title="ExpressionBlock" target="_top">
<polygon fill="white" stroke="#1e90ff" points="218.5,-22.25 90,-22.25 90,-3.75 218.5,-3.75 218.5,-22.25"/>
<text text-anchor="middle" x="154.25" y="-8.75" font-family="Vera Sans, DejaVu Sans, Liberation Sans, Arial, Helvetica, sans" font-size="10.00">ExpressionBlock</text>
</a>
</g>
</g>
<!-- Block&#45;&gt;ExpressionBlock -->
<g id="edge2" class="edge">
<title>Block&#45;&gt;ExpressionBlock</title>
<path fill="none" stroke="black" stroke-width="0.5" d="M54.26,-13C63.03,-13 73.27,-13 83.76,-13"/>
<polygon fill="black" stroke="black" stroke-width="0.5" points="84.61,-14.75 89.61,-13 84.61,-11.25 84.61,-14.75"/>
</g>
<!-- ConstantDeclarationDefaultExpressionBlock -->
<g id="node2" class="node">
<title>ConstantDeclarationDefaultExpressionBlock</title>
<g id="a_node2"><a xlink:href="../pyVHDLParser/pyVHDLParser.Blocks.Object.Constant.html#pyVHDLParser.Blocks.Object.Constant.ConstantDeclarationDefaultExpressionBlock" xlink:title="ConstantDeclarationDefaultExpressionBlock" target="_top">
<polygon fill="white" stroke="#1e90ff" points="862.5,-22.25 539,-22.25 539,-3.75 862.5,-3.75 862.5,-22.25"/>
<text text-anchor="middle" x="700.75" y="-8.75" font-family="Vera Sans, DejaVu Sans, Liberation Sans, Arial, Helvetica, sans" font-size="10.00">ConstantDeclarationDefaultExpressionBlock</text>
</a>
</g>
</g>
<!-- ExpressionBlockEndedBySemicolon -->
<g id="node3" class="node">
<title>ExpressionBlockEndedBySemicolon</title>
<g id="a_node3"><a xlink:href="../pyVHDLParser.Blocks.Expression.html#pyVHDLParser.Blocks.Expression.ExpressionBlockEndedBySemicolon" xlink:title="ExpressionBlockEndedBySemicolon" target="_top">
<polygon fill="white" stroke="#1e90ff" points="503,-26 254.5,-26 254.5,0 503,0 503,-26"/>
<text text-anchor="middle" x="378.75" y="-12.5" font-family="Vera Sans, DejaVu Sans, Liberation Sans, Arial, Helvetica, sans" font-size="10.00">ExpressionBlockEndedBySemicolon</text>
</a>
</g>
</g>
<!-- ExpressionBlockEndedBySemicolon&#45;&gt;ConstantDeclarationDefaultExpressionBlock -->
<g id="edge1" class="edge">
<title>ExpressionBlockEndedBySemicolon&#45;&gt;ConstantDeclarationDefaultExpressionBlock</title>
<path fill="none" stroke="black" stroke-width="0.5" d="M503.47,-13C513.1,-13 522.92,-13 532.77,-13"/>
<polygon fill="black" stroke="black" stroke-width="0.5" points="533.57,-14.75 538.57,-13 533.57,-11.25 533.57,-14.75"/>
</g>
<!-- ExpressionBlock&#45;&gt;ExpressionBlockEndedBySemicolon -->
<g id="edge3" class="edge">
<title>ExpressionBlock&#45;&gt;ExpressionBlockEndedBySemicolon</title>
<path fill="none" stroke="black" stroke-width="0.5" d="M218.71,-13C228.05,-13 237.95,-13 248.06,-13"/>
<polygon fill="black" stroke="black" stroke-width="0.5" points="249.03,-14.75 254.03,-13 249.03,-11.25 249.03,-14.75"/>
</g>
</g>
</svg>
