<?xml version="1.0" encoding="UTF-8" standalone="no"?>
<!DOCTYPE svg PUBLIC "-//W3C//DTD SVG 1.1//EN"
 "http://www.w3.org/Graphics/SVG/1.1/DTD/svg11.dtd">
<!-- Generated by graphviz version 8.0.5 (20230430.1635)
 -->
<!-- Title: inheritance1f3eba86de Pages: 1 -->
<svg width="1pt" height="864pt"
 viewBox="0.00 0.00 1.34 864.00" xmlns="http://www.w3.org/2000/svg" xmlns:xlink="http://www.w3.org/1999/xlink">
<g id="graph0" class="graph" transform="scale(0.00222818 0.00222818) rotate(0) translate(4 387756.54)">
<title>inheritance1f3eba86de</title>
<!-- BlockKeyword -->
<g id="node1" class="node">
<title>BlockKeyword</title>
<g id="a_node1"><a xlink:href="../pyVHDLParser/pyVHDLParser.Token.Keywords.html#pyVHDLParser.Token.Keywords.BlockKeyword" xlink:title="Reserved word &#39;block&#39; for *block*&#45;statements." target="_top">
<polygon fill="white" stroke="#1e90ff" points="592,-193885.52 486,-193885.52 486,-193867.02 592,-193867.02 592,-193885.52"/>
<text text-anchor="middle" x="539" y="-193872.02" font-family="Vera Sans, DejaVu Sans, Liberation Sans, Arial, Helvetica, sans" font-size="10.00">BlockKeyword</text>
</a>
</g>
</g>
<!-- KeywordToken -->
<g id="node2" class="node">
<title>KeywordToken</title>
<g id="a_node2"><a xlink:href="../pyVHDLParser/pyVHDLParser.Token.Keywords.html#pyVHDLParser.Token.Keywords.KeywordToken" xlink:title="KeywordToken" target="_top">
<polygon fill="white" stroke="#1e90ff" points="450,-193885.52 344,-193885.52 344,-193867.02 450,-193867.02 450,-193885.52"/>
<text text-anchor="middle" x="397" y="-193872.02" font-family="Vera Sans, DejaVu Sans, Liberation Sans, Arial, Helvetica, sans" font-size="10.00">KeywordToken</text>
</a>
</g>
</g>
<!-- KeywordToken&#45;&gt;BlockKeyword -->
<g id="edge1" class="edge">
<title>KeywordToken&#45;&gt;BlockKeyword</title>
<path fill="none" stroke="black" stroke-width="0.5" d="M450.13,-193876.27C459.88,-193876.27 470.12,-193876.27 480.03,-193876.27"/>
<polygon fill="black" stroke="black" stroke-width="0.5" points="480.83,-193878.02 485.83,-193876.27 480.83,-193874.52 480.83,-193878.02"/>
</g>
<!-- VHDLToken -->
<g id="node3" class="node">
<title>VHDLToken</title>
<g id="a_node3"><a xlink:href="../pyVHDLParser.Token.html#pyVHDLParser.Token.VHDLToken" xlink:title="Base&#45;class for all VHDL specific tokens." target="_top">
<polygon fill="white" stroke="#1e90ff" points="308,-387752.49 224.5,-387752.49 224.5,-0.05 308,-0.05 308,-387752.49"/>
<text text-anchor="middle" x="266.25" y="-387738.99" font-family="Vera Sans, DejaVu Sans, Liberation Sans, Arial, Helvetica, sans" font-size="10.00">VHDLToken</text>
</a>
</g>
</g>
<!-- VHDLToken&#45;&gt;KeywordToken -->
<g id="edge2" class="edge">
<title>VHDLToken&#45;&gt;KeywordToken</title>
<path fill="none" stroke="black" stroke-width="0.5" d="M308.34,-193876.27C317.69,-193876.27 327.8,-193876.27 337.71,-193876.27"/>
<polygon fill="black" stroke="black" stroke-width="0.5" points="338.52,-193878.02 343.52,-193876.27 338.52,-193874.52 338.52,-193878.02"/>
</g>
<!-- Token -->
<g id="node4" class="node">
<title>Token</title>
<g id="a_node4"><a xlink:href="../pyVHDLParser.Token.html#pyVHDLParser.Token.Token" xlink:title="Base&#45;class for all token classes." target="_top">
<polygon fill="white" stroke="#1e90ff" points="54,-387752.54 0,-387752.54 0,0 54,0 54,-387752.54"/>
<text text-anchor="middle" x="27" y="-387739.04" font-family="Vera Sans, DejaVu Sans, Liberation Sans, Arial, Helvetica, sans" font-size="10.00">Token</text>
</a>
</g>
</g>
<!-- ValuedToken -->
<g id="node5" class="node">
<title>ValuedToken</title>
<g id="a_node5"><a xlink:href="../pyVHDLParser.Token.html#pyVHDLParser.Token.ValuedToken" xlink:title="Base&#45;class for all *valued* token." target="_top">
<polygon fill="white" stroke="#1e90ff" points="188.5,-193885.52 90,-193885.52 90,-193867.02 188.5,-193867.02 188.5,-193885.52"/>
<text text-anchor="middle" x="139.25" y="-193872.02" font-family="Vera Sans, DejaVu Sans, Liberation Sans, Arial, Helvetica, sans" font-size="10.00">ValuedToken</text>
</a>
</g>
</g>
<!-- Token&#45;&gt;ValuedToken -->
<g id="edge4" class="edge">
<title>Token&#45;&gt;ValuedToken</title>
<path fill="none" stroke="black" stroke-width="0.5" d="M54.41,-193876.27C63.25,-193876.27 73.45,-193876.27 83.64,-193876.27"/>
<polygon fill="black" stroke="black" stroke-width="0.5" points="84.62,-193878.02 89.62,-193876.27 84.62,-193874.52 84.62,-193878.02"/>
</g>
<!-- ValuedToken&#45;&gt;VHDLToken -->
<g id="edge3" class="edge">
<title>ValuedToken&#45;&gt;VHDLToken</title>
<path fill="none" stroke="black" stroke-width="0.5" d="M188.94,-193876.27C198.59,-193876.27 208.7,-193876.27 218.29,-193876.27"/>
<polygon fill="black" stroke="black" stroke-width="0.5" points="219.19,-193878.02 224.19,-193876.27 219.19,-193874.52 219.19,-193878.02"/>
</g>
</g>
</svg>
