<?xml version="1.0" encoding="UTF-8" standalone="no"?>
<!DOCTYPE svg PUBLIC "-//W3C//DTD SVG 1.1//EN"
 "http://www.w3.org/Graphics/SVG/1.1/DTD/svg11.dtd">
<!-- Generated by graphviz version 8.0.5 (20230430.1635)
 -->
<!-- Title: inheritance851412a156 Pages: 1 -->
<svg width="1pt" height="864pt"
 viewBox="0.00 0.00 0.65 864.00" xmlns="http://www.w3.org/2000/svg" xmlns:xlink="http://www.w3.org/1999/xlink">
<g id="graph0" class="graph" transform="scale(0.000828128 0.000828128) rotate(0) translate(4 1043313.11)">
<title>inheritance851412a156</title>
<!-- KeywordToken -->
<g id="node1" class="node">
<title>KeywordToken</title>
<g id="a_node1"><a xlink:href="../pyVHDLParser/pyVHDLParser.Token.Keywords.html#pyVHDLParser.Token.Keywords.KeywordToken" xlink:title="KeywordToken" target="_top">
<polygon fill="white" stroke="#1e90ff" points="450,-521663.8 344,-521663.8 344,-521645.3 450,-521645.3 450,-521663.8"/>
<text text-anchor="middle" x="397" y="-521650.3" font-family="Vera Sans, DejaVu Sans, Liberation Sans, Arial, Helvetica, sans" font-size="10.00">KeywordToken</text>
</a>
</g>
</g>
<!-- Operator -->
<g id="node4" class="node">
<title>Operator</title>
<g id="a_node4"><a xlink:href="../pyVHDLParser/pyVHDLParser.Token.Keywords.html#pyVHDLParser.Token.Keywords.Operator" xlink:title="Operator" target="_top">
<polygon fill="white" stroke="#1e90ff" points="562,-521663.8 486,-521663.8 486,-521645.3 562,-521645.3 562,-521663.8"/>
<text text-anchor="middle" x="524" y="-521650.3" font-family="Vera Sans, DejaVu Sans, Liberation Sans, Arial, Helvetica, sans" font-size="10.00">Operator</text>
</a>
</g>
</g>
<!-- KeywordToken&#45;&gt;Operator -->
<g id="edge3" class="edge">
<title>KeywordToken&#45;&gt;Operator</title>
<path fill="none" stroke="black" stroke-width="0.5" d="M450.29,-521654.55C460.15,-521654.55 470.36,-521654.55 479.9,-521654.55"/>
<polygon fill="black" stroke="black" stroke-width="0.5" points="480.74,-521656.3 485.74,-521654.55 480.74,-521652.8 480.74,-521656.3"/>
</g>
<!-- VHDLToken -->
<g id="node2" class="node">
<title>VHDLToken</title>
<g id="a_node2"><a xlink:href="../pyVHDLParser.Token.html#pyVHDLParser.Token.VHDLToken" xlink:title="Base&#45;class for all VHDL specific tokens." target="_top">
<polygon fill="white" stroke="#1e90ff" points="308,-521663.8 224.5,-521663.8 224.5,-521645.3 308,-521645.3 308,-521663.8"/>
<text text-anchor="middle" x="266.25" y="-521650.3" font-family="Vera Sans, DejaVu Sans, Liberation Sans, Arial, Helvetica, sans" font-size="10.00">VHDLToken</text>
</a>
</g>
</g>
<!-- VHDLToken&#45;&gt;KeywordToken -->
<g id="edge1" class="edge">
<title>VHDLToken&#45;&gt;KeywordToken</title>
<path fill="none" stroke="black" stroke-width="0.5" d="M308.34,-521654.55C317.69,-521654.55 327.8,-521654.55 337.71,-521654.55"/>
<polygon fill="black" stroke="black" stroke-width="0.5" points="338.52,-521656.3 343.52,-521654.55 338.52,-521652.8 338.52,-521656.3"/>
</g>
<!-- MiscellaneousOperator -->
<g id="node3" class="node">
<title>MiscellaneousOperator</title>
<g id="a_node3"><a xlink:href="../pyVHDLParser/pyVHDLParser.Token.Keywords.html#pyVHDLParser.Token.Keywords.MiscellaneousOperator" xlink:title="MiscellaneousOperator" target="_top">
<polygon fill="white" stroke="#1e90ff" points="771.5,-1043309.11 598,-1043309.11 598,0 771.5,0 771.5,-1043309.11"/>
<text text-anchor="middle" x="684.75" y="-1043295.61" font-family="Vera Sans, DejaVu Sans, Liberation Sans, Arial, Helvetica, sans" font-size="10.00">MiscellaneousOperator</text>
</a>
</g>
</g>
<!-- Operator&#45;&gt;MiscellaneousOperator -->
<g id="edge2" class="edge">
<title>Operator&#45;&gt;MiscellaneousOperator</title>
<path fill="none" stroke="black" stroke-width="0.5" d="M562.22,-521654.55C571.27,-521654.55 581.34,-521654.55 591.72,-521654.55"/>
<polygon fill="black" stroke="black" stroke-width="0.5" points="592.5,-521656.3 597.5,-521654.55 592.5,-521652.8 592.5,-521656.3"/>
</g>
<!-- Token -->
<g id="node5" class="node">
<title>Token</title>
<g id="a_node5"><a xlink:href="../pyVHDLParser.Token.html#pyVHDLParser.Token.Token" xlink:title="Base&#45;class for all token classes." target="_top">
<polygon fill="white" stroke="#1e90ff" points="54,-521663.8 0,-521663.8 0,-521645.3 54,-521645.3 54,-521663.8"/>
<text text-anchor="middle" x="27" y="-521650.3" font-family="Vera Sans, DejaVu Sans, Liberation Sans, Arial, Helvetica, sans" font-size="10.00">Token</text>
</a>
</g>
</g>
<!-- ValuedToken -->
<g id="node6" class="node">
<title>ValuedToken</title>
<g id="a_node6"><a xlink:href="../pyVHDLParser.Token.html#pyVHDLParser.Token.ValuedToken" xlink:title="Base&#45;class for all *valued* token." target="_top">
<polygon fill="white" stroke="#1e90ff" points="188.5,-521675.72 90,-521675.72 90,-521633.38 188.5,-521633.38 188.5,-521675.72"/>
<text text-anchor="middle" x="139.25" y="-521662.22" font-family="Vera Sans, DejaVu Sans, Liberation Sans, Arial, Helvetica, sans" font-size="10.00">ValuedToken</text>
</a>
</g>
</g>
<!-- Token&#45;&gt;ValuedToken -->
<g id="edge5" class="edge">
<title>Token&#45;&gt;ValuedToken</title>
<path fill="none" stroke="black" stroke-width="0.5" d="M54.41,-521654.55C63.25,-521654.55 73.45,-521654.55 83.64,-521654.55"/>
<polygon fill="black" stroke="black" stroke-width="0.5" points="84.62,-521656.3 89.62,-521654.55 84.62,-521652.8 84.62,-521656.3"/>
</g>
<!-- ValuedToken&#45;&gt;VHDLToken -->
<g id="edge4" class="edge">
<title>ValuedToken&#45;&gt;VHDLToken</title>
<path fill="none" stroke="black" stroke-width="0.5" d="M188.94,-521654.55C198.59,-521654.55 208.7,-521654.55 218.29,-521654.55"/>
<polygon fill="black" stroke="black" stroke-width="0.5" points="219.19,-521656.3 224.19,-521654.55 219.19,-521652.8 219.19,-521656.3"/>
</g>
</g>
</svg>
