<?xml version="1.0" encoding="UTF-8" standalone="no"?>
<!DOCTYPE svg PUBLIC "-//W3C//DTD SVG 1.1//EN"
 "http://www.w3.org/Graphics/SVG/1.1/DTD/svg11.dtd">
<!-- Generated by graphviz version 8.0.5 (20230430.1635)
 -->
<!-- Title: inheritance4e0e4303f5 Pages: 1 -->
<svg width="0pt" height="864pt"
 viewBox="0.00 0.00 0.20 864.00" xmlns="http://www.w3.org/2000/svg" xmlns:xlink="http://www.w3.org/1999/xlink">
<g id="graph0" class="graph" transform="scale(0.000672643 0.000672643) rotate(0) translate(4 1284481.43)">
<title>inheritance4e0e4303f5</title>
<!-- Block -->
<g id="node1" class="node">
<title>Block</title>
<g id="a_node1"><a xlink:href="../pyVHDLParser.Blocks.html#pyVHDLParser.Blocks.Block" xlink:title="Base&#45;class for all :term:`block` classes." target="_top">
<polygon fill="white" stroke="#1e90ff" points="54,-1284477.43 0,-1284477.43 0,0 54,0 54,-1284477.43"/>
<text text-anchor="middle" x="27" y="-1284463.93" font-family="Vera Sans, DejaVu Sans, Liberation Sans, Arial, Helvetica, sans" font-size="10.00">Block</text>
</a>
</g>
</g>
<!-- FinalBlock -->
<g id="node3" class="node">
<title>FinalBlock</title>
<g id="a_node3"><a xlink:href="../pyVHDLParser.Blocks.html#pyVHDLParser.Blocks.FinalBlock" xlink:title="Base&#45;class for blocks that are final in a fast&#45;forward scanning." target="_top">
<polygon fill="white" stroke="#1e90ff" points="181,-642247.96 90,-642247.96 90,-642229.46 181,-642229.46 181,-642247.96"/>
<text text-anchor="middle" x="135.5" y="-642234.46" font-family="Vera Sans, DejaVu Sans, Liberation Sans, Arial, Helvetica, sans" font-size="10.00">FinalBlock</text>
</a>
</g>
</g>
<!-- Block&#45;&gt;FinalBlock -->
<g id="edge3" class="edge">
<title>Block&#45;&gt;FinalBlock</title>
<path fill="none" stroke="black" stroke-width="0.5" d="M54.33,-642238.71C63.29,-642238.71 73.62,-642238.71 83.84,-642238.71"/>
<polygon fill="black" stroke="black" stroke-width="0.5" points="84.82,-642240.46 89.82,-642238.71 84.82,-642236.96 84.82,-642240.46"/>
</g>
<!-- EndBlock -->
<g id="node2" class="node">
<title>EndBlock</title>
<g id="a_node2"><a xlink:href="../pyVHDLParser/pyVHDLParser.Blocks.Sequential.Procedure.html#pyVHDLParser.Blocks.Sequential.Procedure.EndBlock" xlink:title="EndBlock" target="_top">
<polygon fill="white" stroke="#1e90ff" points="293,-642247.97 217,-642247.97 217,-642229.46 293,-642229.46 293,-642247.97"/>
<text text-anchor="middle" x="255" y="-642234.47" font-family="Vera Sans, DejaVu Sans, Liberation Sans, Arial, Helvetica, sans" font-size="10.00">EndBlock</text>
</a>
</g>
</g>
<!-- EndBlock&#45;&gt;EndBlock -->
<g id="edge2" class="edge">
<title>EndBlock&#45;&gt;EndBlock</title>
<path fill="none" stroke="black" stroke-width="0.5" d="M236.58,-642248.21C227.62,-642256.78 233.76,-642265.97 255,-642265.97 272.26,-642265.97 279.55,-642259.9 276.87,-642253.03"/>
<polygon fill="black" stroke="black" stroke-width="0.5" points="277.75,-642251.26 273.42,-642248.21 274.9,-642253.3 277.75,-642251.26"/>
</g>
<!-- FinalBlock&#45;&gt;EndBlock -->
<g id="edge1" class="edge">
<title>FinalBlock&#45;&gt;EndBlock</title>
<path fill="none" stroke="black" stroke-width="0.5" d="M181.26,-642238.71C190.92,-642238.71 201.13,-642238.71 210.74,-642238.71"/>
<polygon fill="black" stroke="black" stroke-width="0.5" points="211.63,-642240.46 216.63,-642238.71 211.63,-642236.96 211.63,-642240.46"/>
</g>
</g>
</svg>
