<?xml version="1.0" encoding="UTF-8" standalone="no"?>
<!DOCTYPE svg PUBLIC "-//W3C//DTD SVG 1.1//EN"
 "http://www.w3.org/Graphics/SVG/1.1/DTD/svg11.dtd">
<!-- Generated by graphviz version 8.0.5 (20230430.1635)
 -->
<!-- Title: inheritance20587f4c43 Pages: 1 -->
<svg width="0pt" height="864pt"
 viewBox="0.00 0.00 0.24 864.00" xmlns="http://www.w3.org/2000/svg" xmlns:xlink="http://www.w3.org/1999/xlink">
<g id="graph0" class="graph" transform="scale(0.000610996 0.000610996) rotate(0) translate(4 1414081.64)">
<title>inheritance20587f4c43</title>
<!-- BeginBlock -->
<g id="node1" class="node">
<title>BeginBlock</title>
<g id="a_node1"><a xlink:href="../pyVHDLParser.Blocks.Generic1.html#pyVHDLParser.Blocks.Generic1.BeginBlock" xlink:title="BeginBlock" target="_top">
<polygon fill="white" stroke="#1e90ff" points="181,-1414077.64 90,-1414077.64 90,0 181,0 181,-1414077.64"/>
<text text-anchor="middle" x="135.5" y="-1414064.14" font-family="Vera Sans, DejaVu Sans, Liberation Sans, Arial, Helvetica, sans" font-size="10.00">BeginBlock</text>
</a>
</g>
</g>
<!-- ConcurrentBeginBlock -->
<g id="node3" class="node">
<title>ConcurrentBeginBlock</title>
<g id="a_node3"><a xlink:href="../pyVHDLParser/pyVHDLParser.Blocks.Generic.html#pyVHDLParser.Blocks.Generic.ConcurrentBeginBlock" xlink:title="ConcurrentBeginBlock" target="_top">
<polygon fill="white" stroke="#1e90ff" points="383,-707048.07 217,-707048.07 217,-707029.57 383,-707029.57 383,-707048.07"/>
<text text-anchor="middle" x="300" y="-707034.57" font-family="Vera Sans, DejaVu Sans, Liberation Sans, Arial, Helvetica, sans" font-size="10.00">ConcurrentBeginBlock</text>
</a>
</g>
</g>
<!-- BeginBlock&#45;&gt;ConcurrentBeginBlock -->
<g id="edge2" class="edge">
<title>BeginBlock&#45;&gt;ConcurrentBeginBlock</title>
<path fill="none" stroke="black" stroke-width="0.5" d="M181.33,-707038.82C190.52,-707038.82 200.49,-707038.82 210.61,-707038.82"/>
<polygon fill="black" stroke="black" stroke-width="0.5" points="211.58,-707040.57 216.58,-707038.82 211.58,-707037.07 211.58,-707040.57"/>
</g>
<!-- Block -->
<g id="node2" class="node">
<title>Block</title>
<g id="a_node2"><a xlink:href="../pyVHDLParser.Blocks.html#pyVHDLParser.Blocks.Block" xlink:title="Base&#45;class for all :term:`block` classes." target="_top">
<polygon fill="white" stroke="#1e90ff" points="54,-707048.07 0,-707048.07 0,-707029.57 54,-707029.57 54,-707048.07"/>
<text text-anchor="middle" x="27" y="-707034.57" font-family="Vera Sans, DejaVu Sans, Liberation Sans, Arial, Helvetica, sans" font-size="10.00">Block</text>
</a>
</g>
</g>
<!-- Block&#45;&gt;BeginBlock -->
<g id="edge1" class="edge">
<title>Block&#45;&gt;BeginBlock</title>
<path fill="none" stroke="black" stroke-width="0.5" d="M54.33,-707038.82C63.29,-707038.82 73.62,-707038.82 83.84,-707038.82"/>
<polygon fill="black" stroke="black" stroke-width="0.5" points="84.82,-707040.57 89.82,-707038.82 84.82,-707037.07 84.82,-707040.57"/>
</g>
</g>
</svg>
