<?xml version="1.0" encoding="UTF-8" standalone="no"?>
<!DOCTYPE svg PUBLIC "-//W3C//DTD SVG 1.1//EN"
 "http://www.w3.org/Graphics/SVG/1.1/DTD/svg11.dtd">
<!-- Generated by graphviz version 8.0.5 (20230430.1635)
 -->
<!-- Title: inheritanceab600bebfd Pages: 1 -->
<svg width="0pt" height="864pt"
 viewBox="0.00 0.00 0.37 864.00" xmlns="http://www.w3.org/2000/svg" xmlns:xlink="http://www.w3.org/1999/xlink">
<g id="graph0" class="graph" transform="scale(0.000607721 0.000607721) rotate(0) translate(4 1421700.18)">
<title>inheritanceab600bebfd</title>
<!-- KeywordToken -->
<g id="node1" class="node">
<title>KeywordToken</title>
<g id="a_node1"><a xlink:href="../pyVHDLParser/pyVHDLParser.Token.Keywords.html#pyVHDLParser.Token.Keywords.KeywordToken" xlink:title="KeywordToken" target="_top">
<polygon fill="white" stroke="#1e90ff" points="450,-710857.34 344,-710857.34 344,-710838.84 450,-710838.84 450,-710857.34"/>
<text text-anchor="middle" x="397" y="-710843.84" font-family="Vera Sans, DejaVu Sans, Liberation Sans, Arial, Helvetica, sans" font-size="10.00">KeywordToken</text>
</a>
</g>
</g>
<!-- SubtypeKeyword -->
<g id="node3" class="node">
<title>SubtypeKeyword</title>
<g id="a_node3"><a xlink:href="../pyVHDLParser/pyVHDLParser.Token.Keywords.html#pyVHDLParser.Token.Keywords.SubtypeKeyword" xlink:title="SubtypeKeyword" target="_top">
<polygon fill="white" stroke="#1e90ff" points="607,-1421696.13 486,-1421696.13 486,-0.05 607,-0.05 607,-1421696.13"/>
<text text-anchor="middle" x="546.5" y="-1421682.63" font-family="Vera Sans, DejaVu Sans, Liberation Sans, Arial, Helvetica, sans" font-size="10.00">SubtypeKeyword</text>
</a>
</g>
</g>
<!-- KeywordToken&#45;&gt;SubtypeKeyword -->
<g id="edge2" class="edge">
<title>KeywordToken&#45;&gt;SubtypeKeyword</title>
<path fill="none" stroke="black" stroke-width="0.5" d="M450.42,-710848.09C459.97,-710848.09 470.05,-710848.09 479.92,-710848.09"/>
<polygon fill="black" stroke="black" stroke-width="0.5" points="480.71,-710849.84 485.71,-710848.09 480.71,-710846.34 480.71,-710849.84"/>
</g>
<!-- VHDLToken -->
<g id="node2" class="node">
<title>VHDLToken</title>
<g id="a_node2"><a xlink:href="../pyVHDLParser.Token.html#pyVHDLParser.Token.VHDLToken" xlink:title="Base&#45;class for all VHDL specific tokens." target="_top">
<polygon fill="white" stroke="#1e90ff" points="308,-710857.34 224.5,-710857.34 224.5,-710838.84 308,-710838.84 308,-710857.34"/>
<text text-anchor="middle" x="266.25" y="-710843.84" font-family="Vera Sans, DejaVu Sans, Liberation Sans, Arial, Helvetica, sans" font-size="10.00">VHDLToken</text>
</a>
</g>
</g>
<!-- VHDLToken&#45;&gt;KeywordToken -->
<g id="edge1" class="edge">
<title>VHDLToken&#45;&gt;KeywordToken</title>
<path fill="none" stroke="black" stroke-width="0.5" d="M308.34,-710848.09C317.69,-710848.09 327.8,-710848.09 337.71,-710848.09"/>
<polygon fill="black" stroke="black" stroke-width="0.5" points="338.52,-710849.84 343.52,-710848.09 338.52,-710846.34 338.52,-710849.84"/>
</g>
<!-- Token -->
<g id="node4" class="node">
<title>Token</title>
<g id="a_node4"><a xlink:href="../pyVHDLParser.Token.html#pyVHDLParser.Token.Token" xlink:title="Base&#45;class for all token classes." target="_top">
<polygon fill="white" stroke="#1e90ff" points="54,-1421696.18 0,-1421696.18 0,0 54,0 54,-1421696.18"/>
<text text-anchor="middle" x="27" y="-1421682.68" font-family="Vera Sans, DejaVu Sans, Liberation Sans, Arial, Helvetica, sans" font-size="10.00">Token</text>
</a>
</g>
</g>
<!-- ValuedToken -->
<g id="node5" class="node">
<title>ValuedToken</title>
<g id="a_node5"><a xlink:href="../pyVHDLParser.Token.html#pyVHDLParser.Token.ValuedToken" xlink:title="Base&#45;class for all *valued* token." target="_top">
<polygon fill="white" stroke="#1e90ff" points="188.5,-710857.34 90,-710857.34 90,-710838.84 188.5,-710838.84 188.5,-710857.34"/>
<text text-anchor="middle" x="139.25" y="-710843.84" font-family="Vera Sans, DejaVu Sans, Liberation Sans, Arial, Helvetica, sans" font-size="10.00">ValuedToken</text>
</a>
</g>
</g>
<!-- Token&#45;&gt;ValuedToken -->
<g id="edge4" class="edge">
<title>Token&#45;&gt;ValuedToken</title>
<path fill="none" stroke="black" stroke-width="0.5" d="M54.41,-710848.09C63.25,-710848.09 73.45,-710848.09 83.64,-710848.09"/>
<polygon fill="black" stroke="black" stroke-width="0.5" points="84.62,-710849.84 89.62,-710848.09 84.62,-710846.34 84.62,-710849.84"/>
</g>
<!-- ValuedToken&#45;&gt;VHDLToken -->
<g id="edge3" class="edge">
<title>ValuedToken&#45;&gt;VHDLToken</title>
<path fill="none" stroke="black" stroke-width="0.5" d="M188.94,-710848.09C198.59,-710848.09 208.7,-710848.09 218.29,-710848.09"/>
<polygon fill="black" stroke="black" stroke-width="0.5" points="219.19,-710849.84 224.19,-710848.09 219.19,-710846.34 219.19,-710849.84"/>
</g>
</g>
</svg>
