<?xml version="1.0" encoding="UTF-8" standalone="no"?>
<!DOCTYPE svg PUBLIC "-//W3C//DTD SVG 1.1//EN"
 "http://www.w3.org/Graphics/SVG/1.1/DTD/svg11.dtd">
<!-- Generated by graphviz version 8.0.5 (20230430.1635)
 -->
<!-- Title: inheritanced243b21235 Pages: 1 -->
<svg width="1pt" height="864pt"
 viewBox="0.00 0.00 1.21 864.00" xmlns="http://www.w3.org/2000/svg" xmlns:xlink="http://www.w3.org/1999/xlink">
<g id="graph0" class="graph" transform="scale(0.00192489 0.00192489) rotate(0) translate(4 448852.04)">
<title>inheritanced243b21235</title>
<!-- KeywordToken -->
<g id="node1" class="node">
<title>KeywordToken</title>
<g id="a_node1"><a xlink:href="../pyVHDLParser/pyVHDLParser.Token.Keywords.html#pyVHDLParser.Token.Keywords.KeywordToken" xlink:title="KeywordToken" target="_top">
<polygon fill="white" stroke="#1e90ff" points="450,-224433.27 344,-224433.27 344,-224414.77 450,-224414.77 450,-224433.27"/>
<text text-anchor="middle" x="397" y="-224419.77" font-family="Vera Sans, DejaVu Sans, Liberation Sans, Arial, Helvetica, sans" font-size="10.00">KeywordToken</text>
</a>
</g>
</g>
<!-- TransportKeyword -->
<g id="node4" class="node">
<title>TransportKeyword</title>
<g id="a_node4"><a xlink:href="../pyVHDLParser/pyVHDLParser.Token.Keywords.html#pyVHDLParser.Token.Keywords.TransportKeyword" xlink:title="TransportKeyword" target="_top">
<polygon fill="white" stroke="#1e90ff" points="622,-448848 486,-448848 486,-0.04 622,-0.04 622,-448848"/>
<text text-anchor="middle" x="554" y="-448834.5" font-family="Vera Sans, DejaVu Sans, Liberation Sans, Arial, Helvetica, sans" font-size="10.00">TransportKeyword</text>
</a>
</g>
</g>
<!-- KeywordToken&#45;&gt;TransportKeyword -->
<g id="edge2" class="edge">
<title>KeywordToken&#45;&gt;TransportKeyword</title>
<path fill="none" stroke="black" stroke-width="0.5" d="M450.48,-224424.02C459.95,-224424.02 469.98,-224424.02 479.91,-224424.02"/>
<polygon fill="black" stroke="black" stroke-width="0.5" points="480.74,-224425.77 485.74,-224424.02 480.74,-224422.27 480.74,-224425.77"/>
</g>
<!-- VHDLToken -->
<g id="node2" class="node">
<title>VHDLToken</title>
<g id="a_node2"><a xlink:href="../pyVHDLParser.Token.html#pyVHDLParser.Token.VHDLToken" xlink:title="Base&#45;class for all VHDL specific tokens." target="_top">
<polygon fill="white" stroke="#1e90ff" points="308,-224433.27 224.5,-224433.27 224.5,-224414.77 308,-224414.77 308,-224433.27"/>
<text text-anchor="middle" x="266.25" y="-224419.77" font-family="Vera Sans, DejaVu Sans, Liberation Sans, Arial, Helvetica, sans" font-size="10.00">VHDLToken</text>
</a>
</g>
</g>
<!-- VHDLToken&#45;&gt;KeywordToken -->
<g id="edge1" class="edge">
<title>VHDLToken&#45;&gt;KeywordToken</title>
<path fill="none" stroke="black" stroke-width="0.5" d="M308.34,-224424.02C317.69,-224424.02 327.8,-224424.02 337.71,-224424.02"/>
<polygon fill="black" stroke="black" stroke-width="0.5" points="338.52,-224425.77 343.52,-224424.02 338.52,-224422.27 338.52,-224425.77"/>
</g>
<!-- Token -->
<g id="node3" class="node">
<title>Token</title>
<g id="a_node3"><a xlink:href="../pyVHDLParser.Token.html#pyVHDLParser.Token.Token" xlink:title="Base&#45;class for all token classes." target="_top">
<polygon fill="white" stroke="#1e90ff" points="54,-448848.04 0,-448848.04 0,0 54,0 54,-448848.04"/>
<text text-anchor="middle" x="27" y="-448834.54" font-family="Vera Sans, DejaVu Sans, Liberation Sans, Arial, Helvetica, sans" font-size="10.00">Token</text>
</a>
</g>
</g>
<!-- ValuedToken -->
<g id="node5" class="node">
<title>ValuedToken</title>
<g id="a_node5"><a xlink:href="../pyVHDLParser.Token.html#pyVHDLParser.Token.ValuedToken" xlink:title="Base&#45;class for all *valued* token." target="_top">
<polygon fill="white" stroke="#1e90ff" points="188.5,-224433.27 90,-224433.27 90,-224414.77 188.5,-224414.77 188.5,-224433.27"/>
<text text-anchor="middle" x="139.25" y="-224419.77" font-family="Vera Sans, DejaVu Sans, Liberation Sans, Arial, Helvetica, sans" font-size="10.00">ValuedToken</text>
</a>
</g>
</g>
<!-- Token&#45;&gt;ValuedToken -->
<g id="edge4" class="edge">
<title>Token&#45;&gt;ValuedToken</title>
<path fill="none" stroke="black" stroke-width="0.5" d="M54.41,-224424.02C63.25,-224424.02 73.45,-224424.02 83.64,-224424.02"/>
<polygon fill="black" stroke="black" stroke-width="0.5" points="84.62,-224425.77 89.62,-224424.02 84.62,-224422.27 84.62,-224425.77"/>
</g>
<!-- ValuedToken&#45;&gt;VHDLToken -->
<g id="edge3" class="edge">
<title>ValuedToken&#45;&gt;VHDLToken</title>
<path fill="none" stroke="black" stroke-width="0.5" d="M188.94,-224424.02C198.59,-224424.02 208.7,-224424.02 218.29,-224424.02"/>
<polygon fill="black" stroke="black" stroke-width="0.5" points="219.19,-224425.77 224.19,-224424.02 219.19,-224422.27 219.19,-224425.77"/>
</g>
</g>
</svg>
