<?xml version="1.0" encoding="UTF-8" standalone="no"?>
<!DOCTYPE svg PUBLIC "-//W3C//DTD SVG 1.1//EN"
 "http://www.w3.org/Graphics/SVG/1.1/DTD/svg11.dtd">
<!-- Generated by graphviz version 8.0.5 (20230430.1635)
 -->
<!-- Title: inheritanced7fb4a05d0 Pages: 1 -->
<svg width="0pt" height="864pt"
 viewBox="0.00 0.00 0.33 864.00" xmlns="http://www.w3.org/2000/svg" xmlns:xlink="http://www.w3.org/1999/xlink">
<g id="graph0" class="graph" transform="scale(0.000550618 0.000550618) rotate(0) translate(4 1569141.18)">
<title>inheritanced7fb4a05d0</title>
<!-- AbsOperator -->
<g id="node1" class="node">
<title>AbsOperator</title>
<g id="a_node1"><a xlink:href="../pyVHDLParser/pyVHDLParser.Token.Keywords.html#pyVHDLParser.Token.Keywords.AbsOperator" xlink:title="Reserved word &#39;abs&#39; for unary operator *absolute value*." target="_top">
<polygon fill="white" stroke="#1e90ff" points="584.5,-784577.84 486,-784577.84 486,-784559.34 584.5,-784559.34 584.5,-784577.84"/>
<text text-anchor="middle" x="535.25" y="-784564.34" font-family="Vera Sans, DejaVu Sans, Liberation Sans, Arial, Helvetica, sans" font-size="10.00">AbsOperator</text>
</a>
</g>
</g>
<!-- KeywordToken -->
<g id="node2" class="node">
<title>KeywordToken</title>
<g id="a_node2"><a xlink:href="../pyVHDLParser/pyVHDLParser.Token.Keywords.html#pyVHDLParser.Token.Keywords.KeywordToken" xlink:title="KeywordToken" target="_top">
<polygon fill="white" stroke="#1e90ff" points="450,-1569137.01 344,-1569137.01 344,-0.16 450,-0.16 450,-1569137.01"/>
<text text-anchor="middle" x="397" y="-1569123.51" font-family="Vera Sans, DejaVu Sans, Liberation Sans, Arial, Helvetica, sans" font-size="10.00">KeywordToken</text>
</a>
</g>
</g>
<!-- KeywordToken&#45;&gt;AbsOperator -->
<g id="edge1" class="edge">
<title>KeywordToken&#45;&gt;AbsOperator</title>
<path fill="none" stroke="black" stroke-width="0.5" d="M450.29,-784568.59C460.07,-784568.59 470.32,-784568.59 480.16,-784568.59"/>
<polygon fill="black" stroke="black" stroke-width="0.5" points="480.9,-784570.34 485.9,-784568.59 480.9,-784566.84 480.9,-784570.34"/>
</g>
<!-- VHDLToken -->
<g id="node3" class="node">
<title>VHDLToken</title>
<g id="a_node3"><a xlink:href="../pyVHDLParser.Token.html#pyVHDLParser.Token.VHDLToken" xlink:title="Base&#45;class for all VHDL specific tokens." target="_top">
<polygon fill="white" stroke="#1e90ff" points="308,-1569137.13 224.5,-1569137.13 224.5,-0.05 308,-0.05 308,-1569137.13"/>
<text text-anchor="middle" x="266.25" y="-1569123.63" font-family="Vera Sans, DejaVu Sans, Liberation Sans, Arial, Helvetica, sans" font-size="10.00">VHDLToken</text>
</a>
</g>
</g>
<!-- VHDLToken&#45;&gt;KeywordToken -->
<g id="edge2" class="edge">
<title>VHDLToken&#45;&gt;KeywordToken</title>
<path fill="none" stroke="black" stroke-width="0.5" d="M308.34,-784568.59C317.69,-784568.59 327.8,-784568.59 337.71,-784568.59"/>
<polygon fill="black" stroke="black" stroke-width="0.5" points="338.52,-784570.34 343.52,-784568.59 338.52,-784566.84 338.52,-784570.34"/>
</g>
<!-- Token -->
<g id="node4" class="node">
<title>Token</title>
<g id="a_node4"><a xlink:href="../pyVHDLParser.Token.html#pyVHDLParser.Token.Token" xlink:title="Base&#45;class for all token classes." target="_top">
<polygon fill="white" stroke="#1e90ff" points="54,-1569137.18 0,-1569137.18 0,0 54,0 54,-1569137.18"/>
<text text-anchor="middle" x="27" y="-1569123.68" font-family="Vera Sans, DejaVu Sans, Liberation Sans, Arial, Helvetica, sans" font-size="10.00">Token</text>
</a>
</g>
</g>
<!-- ValuedToken -->
<g id="node5" class="node">
<title>ValuedToken</title>
<g id="a_node5"><a xlink:href="../pyVHDLParser.Token.html#pyVHDLParser.Token.ValuedToken" xlink:title="Base&#45;class for all *valued* token." target="_top">
<polygon fill="white" stroke="#1e90ff" points="188.5,-784577.84 90,-784577.84 90,-784559.34 188.5,-784559.34 188.5,-784577.84"/>
<text text-anchor="middle" x="139.25" y="-784564.34" font-family="Vera Sans, DejaVu Sans, Liberation Sans, Arial, Helvetica, sans" font-size="10.00">ValuedToken</text>
</a>
</g>
</g>
<!-- Token&#45;&gt;ValuedToken -->
<g id="edge4" class="edge">
<title>Token&#45;&gt;ValuedToken</title>
<path fill="none" stroke="black" stroke-width="0.5" d="M54.41,-784568.59C63.25,-784568.59 73.45,-784568.59 83.64,-784568.59"/>
<polygon fill="black" stroke="black" stroke-width="0.5" points="84.62,-784570.34 89.62,-784568.59 84.62,-784566.84 84.62,-784570.34"/>
</g>
<!-- ValuedToken&#45;&gt;VHDLToken -->
<g id="edge3" class="edge">
<title>ValuedToken&#45;&gt;VHDLToken</title>
<path fill="none" stroke="black" stroke-width="0.5" d="M188.94,-784568.59C198.59,-784568.59 208.7,-784568.59 218.29,-784568.59"/>
<polygon fill="black" stroke="black" stroke-width="0.5" points="219.19,-784570.34 224.19,-784568.59 219.19,-784566.84 219.19,-784570.34"/>
</g>
</g>
</svg>
