<?xml version="1.0" encoding="UTF-8" standalone="no"?>
<!DOCTYPE svg PUBLIC "-//W3C//DTD SVG 1.1//EN"
 "http://www.w3.org/Graphics/SVG/1.1/DTD/svg11.dtd">
<!-- Generated by graphviz version 8.0.5 (20230430.1635)
 -->
<!-- Title: inheritance4ca2a9f973 Pages: 1 -->
<svg width="0pt" height="864pt"
 viewBox="0.00 0.00 0.36 864.00" xmlns="http://www.w3.org/2000/svg" xmlns:xlink="http://www.w3.org/1999/xlink">
<g id="graph0" class="graph" transform="scale(0.00061005 0.00061005) rotate(0) translate(4 1416273.18)">
<title>inheritance4ca2a9f973</title>
<!-- BodyKeyword -->
<g id="node1" class="node">
<title>BodyKeyword</title>
<g id="a_node1"><a xlink:href="../pyVHDLParser/pyVHDLParser.Token.Keywords.html#pyVHDLParser.Token.Keywords.BodyKeyword" xlink:title="Reserved word &#39;body&#39; to distinguish declarations from implementations (bodies)." target="_top">
<polygon fill="white" stroke="#1e90ff" points="584.5,-708143.84 486,-708143.84 486,-708125.34 584.5,-708125.34 584.5,-708143.84"/>
<text text-anchor="middle" x="535.25" y="-708130.34" font-family="Vera Sans, DejaVu Sans, Liberation Sans, Arial, Helvetica, sans" font-size="10.00">BodyKeyword</text>
</a>
</g>
</g>
<!-- KeywordToken -->
<g id="node2" class="node">
<title>KeywordToken</title>
<g id="a_node2"><a xlink:href="../pyVHDLParser/pyVHDLParser.Token.Keywords.html#pyVHDLParser.Token.Keywords.KeywordToken" xlink:title="KeywordToken" target="_top">
<polygon fill="white" stroke="#1e90ff" points="450,-708143.84 344,-708143.84 344,-708125.34 450,-708125.34 450,-708143.84"/>
<text text-anchor="middle" x="397" y="-708130.34" font-family="Vera Sans, DejaVu Sans, Liberation Sans, Arial, Helvetica, sans" font-size="10.00">KeywordToken</text>
</a>
</g>
</g>
<!-- KeywordToken&#45;&gt;BodyKeyword -->
<g id="edge1" class="edge">
<title>KeywordToken&#45;&gt;BodyKeyword</title>
<path fill="none" stroke="black" stroke-width="0.5" d="M450.29,-708134.59C460.07,-708134.59 470.32,-708134.59 480.16,-708134.59"/>
<polygon fill="black" stroke="black" stroke-width="0.5" points="480.9,-708136.34 485.9,-708134.59 480.9,-708132.84 480.9,-708136.34"/>
</g>
<!-- VHDLToken -->
<g id="node3" class="node">
<title>VHDLToken</title>
<g id="a_node3"><a xlink:href="../pyVHDLParser.Token.html#pyVHDLParser.Token.VHDLToken" xlink:title="Base&#45;class for all VHDL specific tokens." target="_top">
<polygon fill="white" stroke="#1e90ff" points="308,-1416269.13 224.5,-1416269.13 224.5,-0.05 308,-0.05 308,-1416269.13"/>
<text text-anchor="middle" x="266.25" y="-1416255.63" font-family="Vera Sans, DejaVu Sans, Liberation Sans, Arial, Helvetica, sans" font-size="10.00">VHDLToken</text>
</a>
</g>
</g>
<!-- VHDLToken&#45;&gt;KeywordToken -->
<g id="edge2" class="edge">
<title>VHDLToken&#45;&gt;KeywordToken</title>
<path fill="none" stroke="black" stroke-width="0.5" d="M308.34,-708134.59C317.69,-708134.59 327.8,-708134.59 337.71,-708134.59"/>
<polygon fill="black" stroke="black" stroke-width="0.5" points="338.52,-708136.34 343.52,-708134.59 338.52,-708132.84 338.52,-708136.34"/>
</g>
<!-- Token -->
<g id="node4" class="node">
<title>Token</title>
<g id="a_node4"><a xlink:href="../pyVHDLParser.Token.html#pyVHDLParser.Token.Token" xlink:title="Base&#45;class for all token classes." target="_top">
<polygon fill="white" stroke="#1e90ff" points="54,-1416269.18 0,-1416269.18 0,0 54,0 54,-1416269.18"/>
<text text-anchor="middle" x="27" y="-1416255.68" font-family="Vera Sans, DejaVu Sans, Liberation Sans, Arial, Helvetica, sans" font-size="10.00">Token</text>
</a>
</g>
</g>
<!-- ValuedToken -->
<g id="node5" class="node">
<title>ValuedToken</title>
<g id="a_node5"><a xlink:href="../pyVHDLParser.Token.html#pyVHDLParser.Token.ValuedToken" xlink:title="Base&#45;class for all *valued* token." target="_top">
<polygon fill="white" stroke="#1e90ff" points="188.5,-708143.84 90,-708143.84 90,-708125.34 188.5,-708125.34 188.5,-708143.84"/>
<text text-anchor="middle" x="139.25" y="-708130.34" font-family="Vera Sans, DejaVu Sans, Liberation Sans, Arial, Helvetica, sans" font-size="10.00">ValuedToken</text>
</a>
</g>
</g>
<!-- Token&#45;&gt;ValuedToken -->
<g id="edge4" class="edge">
<title>Token&#45;&gt;ValuedToken</title>
<path fill="none" stroke="black" stroke-width="0.5" d="M54.41,-708134.59C63.25,-708134.59 73.45,-708134.59 83.64,-708134.59"/>
<polygon fill="black" stroke="black" stroke-width="0.5" points="84.62,-708136.34 89.62,-708134.59 84.62,-708132.84 84.62,-708136.34"/>
</g>
<!-- ValuedToken&#45;&gt;VHDLToken -->
<g id="edge3" class="edge">
<title>ValuedToken&#45;&gt;VHDLToken</title>
<path fill="none" stroke="black" stroke-width="0.5" d="M188.94,-708134.59C198.59,-708134.59 208.7,-708134.59 218.29,-708134.59"/>
<polygon fill="black" stroke="black" stroke-width="0.5" points="219.19,-708136.34 224.19,-708134.59 219.19,-708132.84 219.19,-708136.34"/>
</g>
</g>
</svg>
