<?xml version="1.0" encoding="UTF-8" standalone="no"?>
<!DOCTYPE svg PUBLIC "-//W3C//DTD SVG 1.1//EN"
 "http://www.w3.org/Graphics/SVG/1.1/DTD/svg11.dtd">
<!-- Generated by graphviz version 8.0.5 (20230430.1635)
 -->
<!-- Title: inheritanceab265fb581 Pages: 1 -->
<svg width="0pt" height="864pt"
 viewBox="0.00 0.00 0.21 864.00" xmlns="http://www.w3.org/2000/svg" xmlns:xlink="http://www.w3.org/1999/xlink">
<g id="graph0" class="graph" transform="scale(0.000679862 0.000679862) rotate(0) translate(4 1270842.28)">
<title>inheritanceab265fb581</title>
<!-- Token -->
<g id="node1" class="node">
<title>Token</title>
<g id="a_node1"><a xlink:href="../pyVHDLParser/pyVHDLParser.Token.html#pyVHDLParser.Token.Token" xlink:title="Base&#45;class for all token classes." target="_top">
<polygon fill="white" stroke="#1e90ff" points="54,-1270838.28 0,-1270838.28 0,0 54,0 54,-1270838.28"/>
<text text-anchor="middle" x="27" y="-1270824.78" font-family="Vera Sans, DejaVu Sans, Liberation Sans, Arial, Helvetica, sans" font-size="10.00">Token</text>
</a>
</g>
</g>
<!-- ValuedToken -->
<g id="node3" class="node">
<title>ValuedToken</title>
<g id="a_node3"><a xlink:href="../pyVHDLParser/pyVHDLParser.Token.html#pyVHDLParser.Token.ValuedToken" xlink:title="Base&#45;class for all *valued* token." target="_top">
<polygon fill="white" stroke="#1e90ff" points="188.5,-635433.89 90,-635433.89 90,-635404.39 188.5,-635404.39 188.5,-635433.89"/>
<text text-anchor="middle" x="139.25" y="-635420.39" font-family="Vera Sans, DejaVu Sans, Liberation Sans, Arial, Helvetica, sans" font-size="10.00">ValuedToken</text>
</a>
</g>
</g>
<!-- Token&#45;&gt;ValuedToken -->
<g id="edge2" class="edge">
<title>Token&#45;&gt;ValuedToken</title>
<path fill="none" stroke="black" stroke-width="0.5" d="M54.41,-635419.14C63.25,-635419.14 73.45,-635419.14 83.64,-635419.14"/>
<polygon fill="black" stroke="black" stroke-width="0.5" points="84.62,-635420.89 89.62,-635419.14 84.62,-635417.39 84.62,-635420.89"/>
</g>
<!-- VHDLToken -->
<g id="node2" class="node">
<title>VHDLToken</title>
<g id="a_node2"><a xlink:href="../pyVHDLParser/pyVHDLParser.Token.html#pyVHDLParser.Token.VHDLToken" xlink:title="Base&#45;class for all VHDL specific tokens." target="_top">
<polygon fill="white" stroke="#1e90ff" points="308,-635428.14 224.5,-635428.14 224.5,-635410.14 308,-635410.14 308,-635428.14"/>
<text text-anchor="middle" x="266.25" y="-635409.64" font-family="Vera Sans, DejaVu Sans, Liberation Sans, Arial, Helvetica, sans" font-size="10.00">VHDLToken</text>
</a>
</g>
</g>
<!-- ValuedToken&#45;&gt;VHDLToken -->
<g id="edge1" class="edge">
<title>ValuedToken&#45;&gt;VHDLToken</title>
<path fill="none" stroke="black" stroke-width="0.5" d="M188.94,-635419.14C198.59,-635419.14 208.7,-635419.14 218.29,-635419.14"/>
<polygon fill="black" stroke="black" stroke-width="0.5" points="219.19,-635420.89 224.19,-635419.14 219.19,-635417.39 219.19,-635420.89"/>
</g>
</g>
</svg>
