<?xml version="1.0" encoding="UTF-8" standalone="no"?>
<!DOCTYPE svg PUBLIC "-//W3C//DTD SVG 1.1//EN"
 "http://www.w3.org/Graphics/SVG/1.1/DTD/svg11.dtd">
<!-- Generated by graphviz version 8.0.5 (20230430.1635)
 -->
<!-- Title: inheritance65c9b39af2 Pages: 1 -->
<svg width="0pt" height="864pt"
 viewBox="0.00 0.00 0.27 864.00" xmlns="http://www.w3.org/2000/svg" xmlns:xlink="http://www.w3.org/1999/xlink">
<g id="graph0" class="graph" transform="scale(0.000602569 0.000602569) rotate(0) translate(4 1433855.66)">
<title>inheritance65c9b39af2</title>
<!-- Block -->
<g id="node1" class="node">
<title>Block</title>
<g id="a_node1"><a xlink:href="../../pyVHDLParser/pyVHDLParser.Blocks.html#pyVHDLParser.Blocks.Block" xlink:title="Base&#45;class for all :term:`block` classes." target="_top">
<polygon fill="white" stroke="#1e90ff" points="61.25,-749616.82 7.25,-749616.82 7.25,-749598.32 61.25,-749598.32 61.25,-749616.82"/>
<text text-anchor="middle" x="34.25" y="-749603.32" font-family="Vera Sans, DejaVu Sans, Liberation Sans, Arial, Helvetica, sans" font-size="10.00">Block</text>
</a>
</g>
</g>
<!-- StartOfBlock -->
<g id="node3" class="node">
<title>StartOfBlock</title>
<g id="a_node3"><a xlink:href="../../pyVHDLParser/pyVHDLParser.Blocks.html#pyVHDLParser.Blocks.StartOfBlock" xlink:title="Base&#45;class for a first block in a sequence of double&#45;linked blocks." target="_top">
<polygon fill="white" stroke="#1e90ff" points="221.75,-1433851.66 115.75,-1433851.66 115.75,-65363.47 221.75,-65363.47 221.75,-1433851.66"/>
<text text-anchor="middle" x="168.75" y="-1433838.16" font-family="Vera Sans, DejaVu Sans, Liberation Sans, Arial, Helvetica, sans" font-size="10.00">StartOfBlock</text>
</a>
</g>
</g>
<!-- Block&#45;&gt;StartOfBlock -->
<g id="edge1" class="edge">
<title>Block&#45;&gt;StartOfBlock</title>
<path fill="none" stroke="black" stroke-width="0.5" d="M61.74,-749607.57C75.52,-749607.57 92.93,-749607.57 109.64,-749607.57"/>
<polygon fill="black" stroke="black" stroke-width="0.5" points="110.27,-749609.32 115.27,-749607.57 110.27,-749605.82 110.27,-749609.32"/>
</g>
<!-- StartOf -->
<g id="node2" class="node">
<title>StartOf</title>
<g id="a_node2"><a xlink:title="Base&#45;class (mixin) for all StartOf*** classes.">
<polygon fill="white" stroke="#1e90ff" points="68.5,-684081.82 0,-684081.82 0,-684063.32 68.5,-684063.32 68.5,-684081.82"/>
<text text-anchor="middle" x="34.25" y="-684068.32" font-family="Vera Sans, DejaVu Sans, Liberation Sans, Arial, Helvetica, sans" font-size="10.00">StartOf</text>
</a>
</g>
</g>
<!-- StartOfDocument -->
<g id="node4" class="node">
<title>StartOfDocument</title>
<g id="a_node4"><a xlink:title="Base&#45;class (mixin) for all StartOf***Document classes.">
<polygon fill="white" stroke="#1e90ff" points="233,-1368145.13 104.5,-1368145.13 104.5,0 233,0 233,-1368145.13"/>
<text text-anchor="middle" x="168.75" y="-1368131.63" font-family="Vera Sans, DejaVu Sans, Liberation Sans, Arial, Helvetica, sans" font-size="10.00">StartOfDocument</text>
</a>
</g>
</g>
<!-- StartOf&#45;&gt;StartOfDocument -->
<g id="edge2" class="edge">
<title>StartOf&#45;&gt;StartOfDocument</title>
<path fill="none" stroke="black" stroke-width="0.5" d="M68.69,-684072.57C77.81,-684072.57 88.04,-684072.57 98.37,-684072.57"/>
<polygon fill="black" stroke="black" stroke-width="0.5" points="99.11,-684074.32 104.11,-684072.57 99.11,-684070.82 99.11,-684074.32"/>
</g>
<!-- StartOfDocumentBlock -->
<g id="node5" class="node">
<title>StartOfDocumentBlock</title>
<g id="a_node5"><a xlink:href="../../pyVHDLParser/pyVHDLParser.Blocks.html#pyVHDLParser.Blocks.StartOfDocumentBlock" xlink:title="First block in a sequence of double&#45;linked blocks." target="_top">
<polygon fill="white" stroke="#1e90ff" points="435,-716854.31 269,-716854.31 269,-716824.82 435,-716824.82 435,-716854.31"/>
<text text-anchor="middle" x="352" y="-716840.81" font-family="Vera Sans, DejaVu Sans, Liberation Sans, Arial, Helvetica, sans" font-size="10.00">StartOfDocumentBlock</text>
</a>
</g>
</g>
<!-- StartOfBlock&#45;&gt;StartOfDocumentBlock -->
<g id="edge3" class="edge">
<title>StartOfBlock&#45;&gt;StartOfDocumentBlock</title>
<path fill="none" stroke="black" stroke-width="0.5" d="M222.25,-740116.3C274.56,-730658.58 347.61,-717453.34 350.89,-716860.27"/>
<polygon fill="black" stroke="black" stroke-width="0.5" points="352.64,-716859.63 350.92,-716854.62 349.14,-716859.61 352.64,-716859.63"/>
</g>
<!-- StartOfDocument&#45;&gt;StartOfDocumentBlock -->
<g id="edge4" class="edge">
<title>StartOfDocument&#45;&gt;StartOfDocumentBlock</title>
<path fill="none" stroke="black" stroke-width="0.5" d="M233.5,-695597.26C284.44,-704805.99 347.83,-716266.4 350.89,-716818.79"/>
<polygon fill="black" stroke="black" stroke-width="0.5" points="349.14,-716819.45 350.92,-716824.44 352.64,-716819.43 349.14,-716819.45"/>
</g>
</g>
</svg>
