<?xml version="1.0" encoding="UTF-8" standalone="no"?>
<!DOCTYPE svg PUBLIC "-//W3C//DTD SVG 1.1//EN"
 "http://www.w3.org/Graphics/SVG/1.1/DTD/svg11.dtd">
<!-- Generated by graphviz version 8.0.5 (20230430.1635)
 -->
<!-- Title: inheritanceac177b3bdc Pages: 1 -->
<svg width="576pt" height="19pt"
 viewBox="0.00 0.00 576.00 18.54" xmlns="http://www.w3.org/2000/svg" xmlns:xlink="http://www.w3.org/1999/xlink">
<g id="graph0" class="graph" transform="scale(0.697759 0.697759) rotate(0) translate(4 22.57)">
<title>inheritanceac177b3bdc</title>
<!-- Block -->
<g id="node1" class="node">
<title>Block</title>
<g id="a_node1"><a xlink:href="../pyVHDLParser.Blocks.html#pyVHDLParser.Blocks.Block" xlink:title="Base&#45;class for all :term:`block` classes." target="_top">
<polygon fill="white" stroke="#1e90ff" points="54,-18.54 0,-18.54 0,-0.04 54,-0.04 54,-18.54"/>
<text text-anchor="middle" x="27" y="-5.04" font-family="Vera Sans, DejaVu Sans, Liberation Sans, Arial, Helvetica, sans" font-size="10.00">Block</text>
</a>
</g>
</g>
<!-- ExpressionBlock -->
<g id="node2" class="node">
<title>ExpressionBlock</title>
<g id="a_node2"><a xlink:href="../pyVHDLParser.Blocks.Expression.html#pyVHDLParser.Blocks.Expression.ExpressionBlock" xlink:title="ExpressionBlock" target="_top">
<polygon fill="white" stroke="#1e90ff" points="218.5,-18.54 90,-18.54 90,-0.04 218.5,-0.04 218.5,-18.54"/>
<text text-anchor="middle" x="154.25" y="-5.04" font-family="Vera Sans, DejaVu Sans, Liberation Sans, Arial, Helvetica, sans" font-size="10.00">ExpressionBlock</text>
</a>
</g>
</g>
<!-- Block&#45;&gt;ExpressionBlock -->
<g id="edge1" class="edge">
<title>Block&#45;&gt;ExpressionBlock</title>
<path fill="none" stroke="black" stroke-width="0.5" d="M54.26,-9.29C63.03,-9.29 73.27,-9.29 83.76,-9.29"/>
<polygon fill="black" stroke="black" stroke-width="0.5" points="84.61,-11.04 89.61,-9.29 84.61,-7.54 84.61,-11.04"/>
</g>
<!-- ExpressionBlockEndedByCharORClosingRoundBracket -->
<g id="node3" class="node">
<title>ExpressionBlockEndedByCharORClosingRoundBracket</title>
<g id="a_node3"><a xlink:href="../pyVHDLParser.Blocks.Expression.html#pyVHDLParser.Blocks.Expression.ExpressionBlockEndedByCharORClosingRoundBracket" xlink:title="ExpressionBlockEndedByCharORClosingRoundBracket" target="_top">
<polygon fill="white" stroke="#1e90ff" points="623,-18.57 254.5,-18.57 254.5,0 623,0 623,-18.57"/>
<text text-anchor="middle" x="438.75" y="-5.07" font-family="Vera Sans, DejaVu Sans, Liberation Sans, Arial, Helvetica, sans" font-size="10.00">ExpressionBlockEndedByCharORClosingRoundBracket</text>
</a>
</g>
</g>
<!-- ExpressionBlock&#45;&gt;ExpressionBlockEndedByCharORClosingRoundBracket -->
<g id="edge2" class="edge">
<title>ExpressionBlock&#45;&gt;ExpressionBlockEndedByCharORClosingRoundBracket</title>
<path fill="none" stroke="black" stroke-width="0.5" d="M218.65,-9.29C227.98,-9.29 237.98,-9.29 248.36,-9.29"/>
<polygon fill="black" stroke="black" stroke-width="0.5" points="249.17,-11.04 254.17,-9.29 249.17,-7.54 249.17,-11.04"/>
</g>
<!-- WhenExpressionBlock -->
<g id="node4" class="node">
<title>WhenExpressionBlock</title>
<g id="a_node4"><a xlink:href="../pyVHDLParser/pyVHDLParser.Blocks.ControlStructure.Case.html#pyVHDLParser.Blocks.ControlStructure.Case.WhenExpressionBlock" xlink:title="WhenExpressionBlock" target="_top">
<polygon fill="white" stroke="#1e90ff" points="817.5,-18.54 659,-18.54 659,-0.04 817.5,-0.04 817.5,-18.54"/>
<text text-anchor="middle" x="738.25" y="-5.04" font-family="Vera Sans, DejaVu Sans, Liberation Sans, Arial, Helvetica, sans" font-size="10.00">WhenExpressionBlock</text>
</a>
</g>
</g>
<!-- ExpressionBlockEndedByCharORClosingRoundBracket&#45;&gt;WhenExpressionBlock -->
<g id="edge3" class="edge">
<title>ExpressionBlockEndedByCharORClosingRoundBracket&#45;&gt;WhenExpressionBlock</title>
<path fill="none" stroke="black" stroke-width="0.5" d="M623.08,-9.29C633.28,-9.29 643.25,-9.29 652.78,-9.29"/>
<polygon fill="black" stroke="black" stroke-width="0.5" points="653.66,-11.04 658.66,-9.29 653.66,-7.54 653.66,-11.04"/>
</g>
</g>
</svg>
