<?xml version="1.0" encoding="UTF-8" standalone="no"?>
<!DOCTYPE svg PUBLIC "-//W3C//DTD SVG 1.1//EN"
 "http://www.w3.org/Graphics/SVG/1.1/DTD/svg11.dtd">
<!-- Generated by graphviz version 8.0.5 (20230430.1635)
 -->
<!-- Title: inheritance7b36a21e77 Pages: 1 -->
<svg width="1pt" height="864pt"
 viewBox="0.00 0.00 0.67 864.00" xmlns="http://www.w3.org/2000/svg" xmlns:xlink="http://www.w3.org/1999/xlink">
<g id="graph0" class="graph" transform="scale(0.00106886 0.00106886) rotate(0) translate(4 808335.18)">
<title>inheritance7b36a21e77</title>
<!-- KeywordToken -->
<g id="node1" class="node">
<title>KeywordToken</title>
<g id="a_node1"><a xlink:href="../pyVHDLParser/pyVHDLParser.Token.Keywords.html#pyVHDLParser.Token.Keywords.KeywordToken" xlink:title="KeywordToken" target="_top">
<polygon fill="white" stroke="#1e90ff" points="450,-404174.84 344,-404174.84 344,-404156.34 450,-404156.34 450,-404174.84"/>
<text text-anchor="middle" x="397" y="-404161.34" font-family="Vera Sans, DejaVu Sans, Liberation Sans, Arial, Helvetica, sans" font-size="10.00">KeywordToken</text>
</a>
</g>
</g>
<!-- RegisterKeyword -->
<g id="node3" class="node">
<title>RegisterKeyword</title>
<g id="a_node3"><a xlink:href="../pyVHDLParser/pyVHDLParser.Token.Keywords.html#pyVHDLParser.Token.Keywords.RegisterKeyword" xlink:title="RegisterKeyword" target="_top">
<polygon fill="white" stroke="#1e90ff" points="614.5,-808331.13 486,-808331.13 486,-0.05 614.5,-0.05 614.5,-808331.13"/>
<text text-anchor="middle" x="550.25" y="-808317.63" font-family="Vera Sans, DejaVu Sans, Liberation Sans, Arial, Helvetica, sans" font-size="10.00">RegisterKeyword</text>
</a>
</g>
</g>
<!-- KeywordToken&#45;&gt;RegisterKeyword -->
<g id="edge2" class="edge">
<title>KeywordToken&#45;&gt;RegisterKeyword</title>
<path fill="none" stroke="black" stroke-width="0.5" d="M450.48,-404165.59C459.96,-404165.59 469.99,-404165.59 479.87,-404165.59"/>
<polygon fill="black" stroke="black" stroke-width="0.5" points="480.66,-404167.34 485.66,-404165.59 480.66,-404163.84 480.66,-404167.34"/>
</g>
<!-- VHDLToken -->
<g id="node2" class="node">
<title>VHDLToken</title>
<g id="a_node2"><a xlink:href="../pyVHDLParser.Token.html#pyVHDLParser.Token.VHDLToken" xlink:title="Base&#45;class for all VHDL specific tokens." target="_top">
<polygon fill="white" stroke="#1e90ff" points="308,-404174.84 224.5,-404174.84 224.5,-404156.34 308,-404156.34 308,-404174.84"/>
<text text-anchor="middle" x="266.25" y="-404161.34" font-family="Vera Sans, DejaVu Sans, Liberation Sans, Arial, Helvetica, sans" font-size="10.00">VHDLToken</text>
</a>
</g>
</g>
<!-- VHDLToken&#45;&gt;KeywordToken -->
<g id="edge1" class="edge">
<title>VHDLToken&#45;&gt;KeywordToken</title>
<path fill="none" stroke="black" stroke-width="0.5" d="M308.34,-404165.59C317.69,-404165.59 327.8,-404165.59 337.71,-404165.59"/>
<polygon fill="black" stroke="black" stroke-width="0.5" points="338.52,-404167.34 343.52,-404165.59 338.52,-404163.84 338.52,-404167.34"/>
</g>
<!-- Token -->
<g id="node4" class="node">
<title>Token</title>
<g id="a_node4"><a xlink:href="../pyVHDLParser.Token.html#pyVHDLParser.Token.Token" xlink:title="Base&#45;class for all token classes." target="_top">
<polygon fill="white" stroke="#1e90ff" points="54,-808331.18 0,-808331.18 0,0 54,0 54,-808331.18"/>
<text text-anchor="middle" x="27" y="-808317.68" font-family="Vera Sans, DejaVu Sans, Liberation Sans, Arial, Helvetica, sans" font-size="10.00">Token</text>
</a>
</g>
</g>
<!-- ValuedToken -->
<g id="node5" class="node">
<title>ValuedToken</title>
<g id="a_node5"><a xlink:href="../pyVHDLParser.Token.html#pyVHDLParser.Token.ValuedToken" xlink:title="Base&#45;class for all *valued* token." target="_top">
<polygon fill="white" stroke="#1e90ff" points="188.5,-404174.84 90,-404174.84 90,-404156.34 188.5,-404156.34 188.5,-404174.84"/>
<text text-anchor="middle" x="139.25" y="-404161.34" font-family="Vera Sans, DejaVu Sans, Liberation Sans, Arial, Helvetica, sans" font-size="10.00">ValuedToken</text>
</a>
</g>
</g>
<!-- Token&#45;&gt;ValuedToken -->
<g id="edge4" class="edge">
<title>Token&#45;&gt;ValuedToken</title>
<path fill="none" stroke="black" stroke-width="0.5" d="M54.41,-404165.59C63.25,-404165.59 73.45,-404165.59 83.64,-404165.59"/>
<polygon fill="black" stroke="black" stroke-width="0.5" points="84.62,-404167.34 89.62,-404165.59 84.62,-404163.84 84.62,-404167.34"/>
</g>
<!-- ValuedToken&#45;&gt;VHDLToken -->
<g id="edge3" class="edge">
<title>ValuedToken&#45;&gt;VHDLToken</title>
<path fill="none" stroke="black" stroke-width="0.5" d="M188.94,-404165.59C198.59,-404165.59 208.7,-404165.59 218.29,-404165.59"/>
<polygon fill="black" stroke="black" stroke-width="0.5" points="219.19,-404167.34 224.19,-404165.59 219.19,-404163.84 219.19,-404167.34"/>
</g>
</g>
</svg>
