<?xml version="1.0" encoding="UTF-8" standalone="no"?>
<!DOCTYPE svg PUBLIC "-//W3C//DTD SVG 1.1//EN"
 "http://www.w3.org/Graphics/SVG/1.1/DTD/svg11.dtd">
<!-- Generated by graphviz version 8.0.5 (20230430.1635)
 -->
<!-- Title: inheritance155c3ebb1d Pages: 1 -->
<svg width="1pt" height="864pt"
 viewBox="0.00 0.00 0.50 864.00" xmlns="http://www.w3.org/2000/svg" xmlns:xlink="http://www.w3.org/1999/xlink">
<g id="graph0" class="graph" transform="scale(0.000862207 0.000862207) rotate(0) translate(4 1002075.19)">
<title>inheritance155c3ebb1d</title>
<!-- AllKeyword -->
<g id="node1" class="node">
<title>AllKeyword</title>
<g id="a_node1"><a xlink:href="../pyVHDLParser/pyVHDLParser.Token.Keywords.html#pyVHDLParser.Token.Keywords.AllKeyword" xlink:title="Reserved word &#39;all&#39;." target="_top">
<polygon fill="white" stroke="#1e90ff" points="577,-501044.84 486,-501044.84 486,-501026.34 577,-501026.34 577,-501044.84"/>
<text text-anchor="middle" x="531.5" y="-501031.34" font-family="Vera Sans, DejaVu Sans, Liberation Sans, Arial, Helvetica, sans" font-size="10.00">AllKeyword</text>
</a>
</g>
</g>
<!-- KeywordToken -->
<g id="node2" class="node">
<title>KeywordToken</title>
<g id="a_node2"><a xlink:href="../pyVHDLParser/pyVHDLParser.Token.Keywords.html#pyVHDLParser.Token.Keywords.KeywordToken" xlink:title="KeywordToken" target="_top">
<polygon fill="white" stroke="#1e90ff" points="450,-501044.84 344,-501044.84 344,-501026.34 450,-501026.34 450,-501044.84"/>
<text text-anchor="middle" x="397" y="-501031.34" font-family="Vera Sans, DejaVu Sans, Liberation Sans, Arial, Helvetica, sans" font-size="10.00">KeywordToken</text>
</a>
</g>
</g>
<!-- KeywordToken&#45;&gt;AllKeyword -->
<g id="edge1" class="edge">
<title>KeywordToken&#45;&gt;AllKeyword</title>
<path fill="none" stroke="black" stroke-width="0.5" d="M450.37,-501035.59C460.07,-501035.59 470.19,-501035.59 479.84,-501035.59"/>
<polygon fill="black" stroke="black" stroke-width="0.5" points="480.79,-501037.34 485.79,-501035.59 480.79,-501033.84 480.79,-501037.34"/>
</g>
<!-- VHDLToken -->
<g id="node3" class="node">
<title>VHDLToken</title>
<g id="a_node3"><a xlink:href="../pyVHDLParser.Token.html#pyVHDLParser.Token.VHDLToken" xlink:title="Base&#45;class for all VHDL specific tokens." target="_top">
<polygon fill="white" stroke="#1e90ff" points="308,-1002071.14 224.5,-1002071.14 224.5,-0.05 308,-0.05 308,-1002071.14"/>
<text text-anchor="middle" x="266.25" y="-1002057.64" font-family="Vera Sans, DejaVu Sans, Liberation Sans, Arial, Helvetica, sans" font-size="10.00">VHDLToken</text>
</a>
</g>
</g>
<!-- VHDLToken&#45;&gt;KeywordToken -->
<g id="edge2" class="edge">
<title>VHDLToken&#45;&gt;KeywordToken</title>
<path fill="none" stroke="black" stroke-width="0.5" d="M308.34,-501035.59C317.69,-501035.59 327.8,-501035.59 337.71,-501035.59"/>
<polygon fill="black" stroke="black" stroke-width="0.5" points="338.52,-501037.34 343.52,-501035.59 338.52,-501033.84 338.52,-501037.34"/>
</g>
<!-- Token -->
<g id="node4" class="node">
<title>Token</title>
<g id="a_node4"><a xlink:href="../pyVHDLParser.Token.html#pyVHDLParser.Token.Token" xlink:title="Base&#45;class for all token classes." target="_top">
<polygon fill="white" stroke="#1e90ff" points="54,-1002071.19 0,-1002071.19 0,0 54,0 54,-1002071.19"/>
<text text-anchor="middle" x="27" y="-1002057.69" font-family="Vera Sans, DejaVu Sans, Liberation Sans, Arial, Helvetica, sans" font-size="10.00">Token</text>
</a>
</g>
</g>
<!-- ValuedToken -->
<g id="node5" class="node">
<title>ValuedToken</title>
<g id="a_node5"><a xlink:href="../pyVHDLParser.Token.html#pyVHDLParser.Token.ValuedToken" xlink:title="Base&#45;class for all *valued* token." target="_top">
<polygon fill="white" stroke="#1e90ff" points="188.5,-501050.34 90,-501050.34 90,-501020.85 188.5,-501020.85 188.5,-501050.34"/>
<text text-anchor="middle" x="139.25" y="-501036.84" font-family="Vera Sans, DejaVu Sans, Liberation Sans, Arial, Helvetica, sans" font-size="10.00">ValuedToken</text>
</a>
</g>
</g>
<!-- Token&#45;&gt;ValuedToken -->
<g id="edge4" class="edge">
<title>Token&#45;&gt;ValuedToken</title>
<path fill="none" stroke="black" stroke-width="0.5" d="M54.41,-501035.59C63.25,-501035.59 73.45,-501035.59 83.64,-501035.59"/>
<polygon fill="black" stroke="black" stroke-width="0.5" points="84.62,-501037.34 89.62,-501035.59 84.62,-501033.84 84.62,-501037.34"/>
</g>
<!-- ValuedToken&#45;&gt;VHDLToken -->
<g id="edge3" class="edge">
<title>ValuedToken&#45;&gt;VHDLToken</title>
<path fill="none" stroke="black" stroke-width="0.5" d="M188.94,-501035.59C198.59,-501035.59 208.7,-501035.59 218.29,-501035.59"/>
<polygon fill="black" stroke="black" stroke-width="0.5" points="219.19,-501037.34 224.19,-501035.59 219.19,-501033.84 219.19,-501037.34"/>
</g>
</g>
</svg>
