<?xml version="1.0" encoding="UTF-8" standalone="no"?>
<!DOCTYPE svg PUBLIC "-//W3C//DTD SVG 1.1//EN"
 "http://www.w3.org/Graphics/SVG/1.1/DTD/svg11.dtd">
<!-- Generated by graphviz version 8.0.5 (20230430.1635)
 -->
<!-- Title: inheritance13092da390 Pages: 1 -->
<svg width="1pt" height="864pt"
 viewBox="0.00 0.00 1.34 864.00" xmlns="http://www.w3.org/2000/svg" xmlns:xlink="http://www.w3.org/1999/xlink">
<g id="graph0" class="graph" transform="scale(0.00225563 0.00225563) rotate(0) translate(4 383037.18)">
<title>inheritance13092da390</title>
<!-- KeywordToken -->
<g id="node1" class="node">
<title>KeywordToken</title>
<g id="a_node1"><a xlink:href="../pyVHDLParser/pyVHDLParser.Token.Keywords.html#pyVHDLParser.Token.Keywords.KeywordToken" xlink:title="KeywordToken" target="_top">
<polygon fill="white" stroke="#1e90ff" points="450,-191525.84 344,-191525.84 344,-191507.34 450,-191507.34 450,-191525.84"/>
<text text-anchor="middle" x="397" y="-191512.34" font-family="Vera Sans, DejaVu Sans, Liberation Sans, Arial, Helvetica, sans" font-size="10.00">KeywordToken</text>
</a>
</g>
</g>
<!-- OpenKeyword -->
<g id="node3" class="node">
<title>OpenKeyword</title>
<g id="a_node3"><a xlink:href="../pyVHDLParser/pyVHDLParser.Token.Keywords.html#pyVHDLParser.Token.Keywords.OpenKeyword" xlink:title="OpenKeyword" target="_top">
<polygon fill="white" stroke="#1e90ff" points="584.5,-383033.13 486,-383033.13 486,-0.05 584.5,-0.05 584.5,-383033.13"/>
<text text-anchor="middle" x="535.25" y="-383019.63" font-family="Vera Sans, DejaVu Sans, Liberation Sans, Arial, Helvetica, sans" font-size="10.00">OpenKeyword</text>
</a>
</g>
</g>
<!-- KeywordToken&#45;&gt;OpenKeyword -->
<g id="edge2" class="edge">
<title>KeywordToken&#45;&gt;OpenKeyword</title>
<path fill="none" stroke="black" stroke-width="0.5" d="M450.29,-191516.59C460.07,-191516.59 470.32,-191516.59 480.16,-191516.59"/>
<polygon fill="black" stroke="black" stroke-width="0.5" points="480.9,-191518.34 485.9,-191516.59 480.9,-191514.84 480.9,-191518.34"/>
</g>
<!-- VHDLToken -->
<g id="node2" class="node">
<title>VHDLToken</title>
<g id="a_node2"><a xlink:href="../pyVHDLParser.Token.html#pyVHDLParser.Token.VHDLToken" xlink:title="Base&#45;class for all VHDL specific tokens." target="_top">
<polygon fill="white" stroke="#1e90ff" points="308,-191525.84 224.5,-191525.84 224.5,-191507.34 308,-191507.34 308,-191525.84"/>
<text text-anchor="middle" x="266.25" y="-191512.34" font-family="Vera Sans, DejaVu Sans, Liberation Sans, Arial, Helvetica, sans" font-size="10.00">VHDLToken</text>
</a>
</g>
</g>
<!-- VHDLToken&#45;&gt;KeywordToken -->
<g id="edge1" class="edge">
<title>VHDLToken&#45;&gt;KeywordToken</title>
<path fill="none" stroke="black" stroke-width="0.5" d="M308.34,-191516.59C317.69,-191516.59 327.8,-191516.59 337.71,-191516.59"/>
<polygon fill="black" stroke="black" stroke-width="0.5" points="338.52,-191518.34 343.52,-191516.59 338.52,-191514.84 338.52,-191518.34"/>
</g>
<!-- Token -->
<g id="node4" class="node">
<title>Token</title>
<g id="a_node4"><a xlink:href="../pyVHDLParser.Token.html#pyVHDLParser.Token.Token" xlink:title="Base&#45;class for all token classes." target="_top">
<polygon fill="white" stroke="#1e90ff" points="54,-383033.18 0,-383033.18 0,0 54,0 54,-383033.18"/>
<text text-anchor="middle" x="27" y="-383019.68" font-family="Vera Sans, DejaVu Sans, Liberation Sans, Arial, Helvetica, sans" font-size="10.00">Token</text>
</a>
</g>
</g>
<!-- ValuedToken -->
<g id="node5" class="node">
<title>ValuedToken</title>
<g id="a_node5"><a xlink:href="../pyVHDLParser.Token.html#pyVHDLParser.Token.ValuedToken" xlink:title="Base&#45;class for all *valued* token." target="_top">
<polygon fill="white" stroke="#1e90ff" points="188.5,-191525.84 90,-191525.84 90,-191507.34 188.5,-191507.34 188.5,-191525.84"/>
<text text-anchor="middle" x="139.25" y="-191512.34" font-family="Vera Sans, DejaVu Sans, Liberation Sans, Arial, Helvetica, sans" font-size="10.00">ValuedToken</text>
</a>
</g>
</g>
<!-- Token&#45;&gt;ValuedToken -->
<g id="edge4" class="edge">
<title>Token&#45;&gt;ValuedToken</title>
<path fill="none" stroke="black" stroke-width="0.5" d="M54.41,-191516.59C63.25,-191516.59 73.45,-191516.59 83.64,-191516.59"/>
<polygon fill="black" stroke="black" stroke-width="0.5" points="84.62,-191518.34 89.62,-191516.59 84.62,-191514.84 84.62,-191518.34"/>
</g>
<!-- ValuedToken&#45;&gt;VHDLToken -->
<g id="edge3" class="edge">
<title>ValuedToken&#45;&gt;VHDLToken</title>
<path fill="none" stroke="black" stroke-width="0.5" d="M188.94,-191516.59C198.59,-191516.59 208.7,-191516.59 218.29,-191516.59"/>
<polygon fill="black" stroke="black" stroke-width="0.5" points="219.19,-191518.34 224.19,-191516.59 219.19,-191514.84 219.19,-191518.34"/>
</g>
</g>
</svg>
