<?xml version="1.0" encoding="UTF-8" standalone="no"?>
<!DOCTYPE svg PUBLIC "-//W3C//DTD SVG 1.1//EN"
 "http://www.w3.org/Graphics/SVG/1.1/DTD/svg11.dtd">
<!-- Generated by graphviz version 8.0.5 (20230430.1635)
 -->
<!-- Title: inheritance3f8fdbead0 Pages: 1 -->
<svg width="576pt" height="17pt"
 viewBox="0.00 0.00 576.00 17.28" xmlns="http://www.w3.org/2000/svg" xmlns:xlink="http://www.w3.org/1999/xlink">
<g id="graph0" class="graph" transform="scale(0.65048 0.65048) rotate(0) translate(4 22.57)">
<title>inheritance3f8fdbead0</title>
<!-- Block -->
<g id="node1" class="node">
<title>Block</title>
<g id="a_node1"><a xlink:href="../pyVHDLParser.Blocks.html#pyVHDLParser.Blocks.Block" xlink:title="Base&#45;class for all :term:`block` classes." target="_top">
<polygon fill="white" stroke="#1e90ff" points="54,-18.54 0,-18.54 0,-0.04 54,-0.04 54,-18.54"/>
<text text-anchor="middle" x="27" y="-5.04" font-family="Vera Sans, DejaVu Sans, Liberation Sans, Arial, Helvetica, sans" font-size="10.00">Block</text>
</a>
</g>
</g>
<!-- EndOfStatementBlock -->
<g id="node2" class="node">
<title>EndOfStatementBlock</title>
<g id="a_node2"><a xlink:href="../pyVHDLParser.Blocks.Generic1.html#pyVHDLParser.Blocks.Generic1.EndOfStatementBlock" xlink:title="EndOfStatementBlock" target="_top">
<polygon fill="white" stroke="#1e90ff" points="248.5,-18.54 90,-18.54 90,-0.04 248.5,-0.04 248.5,-18.54"/>
<text text-anchor="middle" x="169.25" y="-5.04" font-family="Vera Sans, DejaVu Sans, Liberation Sans, Arial, Helvetica, sans" font-size="10.00">EndOfStatementBlock</text>
</a>
</g>
</g>
<!-- Block&#45;&gt;EndOfStatementBlock -->
<g id="edge1" class="edge">
<title>Block&#45;&gt;EndOfStatementBlock</title>
<path fill="none" stroke="black" stroke-width="0.5" d="M54.38,-9.29C63.02,-9.29 73.13,-9.29 83.7,-9.29"/>
<polygon fill="black" stroke="black" stroke-width="0.5" points="84.61,-11.04 89.61,-9.29 84.61,-7.54 84.61,-11.04"/>
</g>
<!-- ObjectDeclarationEndMarkerBlock -->
<g id="node3" class="node">
<title>ObjectDeclarationEndMarkerBlock</title>
<g id="a_node3"><a xlink:href="../pyVHDLParser.Blocks.Object.html#pyVHDLParser.Blocks.Object.ObjectDeclarationEndMarkerBlock" xlink:title="ObjectDeclarationEndMarkerBlock" target="_top">
<polygon fill="white" stroke="#1e90ff" points="533,-18.57 284.5,-18.57 284.5,0 533,0 533,-18.57"/>
<text text-anchor="middle" x="408.75" y="-5.07" font-family="Vera Sans, DejaVu Sans, Liberation Sans, Arial, Helvetica, sans" font-size="10.00">ObjectDeclarationEndMarkerBlock</text>
</a>
</g>
</g>
<!-- EndOfStatementBlock&#45;&gt;ObjectDeclarationEndMarkerBlock -->
<g id="edge2" class="edge">
<title>EndOfStatementBlock&#45;&gt;ObjectDeclarationEndMarkerBlock</title>
<path fill="none" stroke="black" stroke-width="0.5" d="M248.67,-9.29C258.28,-9.29 268.27,-9.29 278.38,-9.29"/>
<polygon fill="black" stroke="black" stroke-width="0.5" points="279.34,-11.04 284.34,-9.29 279.34,-7.54 279.34,-11.04"/>
</g>
<!-- SharedVariableDeclarationEndMarkerBlock -->
<g id="node4" class="node">
<title>SharedVariableDeclarationEndMarkerBlock</title>
<g id="a_node4"><a xlink:href="../pyVHDLParser/pyVHDLParser.Blocks.Object.SharedVariable.html#pyVHDLParser.Blocks.Object.SharedVariable.SharedVariableDeclarationEndMarkerBlock" xlink:title="SharedVariableDeclarationEndMarkerBlock" target="_top">
<polygon fill="white" stroke="#1e90ff" points="877.5,-18.54 569,-18.54 569,-0.04 877.5,-0.04 877.5,-18.54"/>
<text text-anchor="middle" x="723.25" y="-5.04" font-family="Vera Sans, DejaVu Sans, Liberation Sans, Arial, Helvetica, sans" font-size="10.00">SharedVariableDeclarationEndMarkerBlock</text>
</a>
</g>
</g>
<!-- ObjectDeclarationEndMarkerBlock&#45;&gt;SharedVariableDeclarationEndMarkerBlock -->
<g id="edge3" class="edge">
<title>ObjectDeclarationEndMarkerBlock&#45;&gt;SharedVariableDeclarationEndMarkerBlock</title>
<path fill="none" stroke="black" stroke-width="0.5" d="M533.26,-9.29C542.96,-9.29 552.83,-9.29 562.72,-9.29"/>
<polygon fill="black" stroke="black" stroke-width="0.5" points="563.55,-11.04 568.55,-9.29 563.55,-7.54 563.55,-11.04"/>
</g>
</g>
</svg>
