<?xml version="1.0" encoding="UTF-8" standalone="no"?>
<!DOCTYPE svg PUBLIC "-//W3C//DTD SVG 1.1//EN"
 "http://www.w3.org/Graphics/SVG/1.1/DTD/svg11.dtd">
<!-- Generated by graphviz version 8.0.5 (20230430.1635)
 -->
<!-- Title: inheritance4ec308a447 Pages: 1 -->
<svg width="576pt" height="18pt"
 viewBox="0.00 0.00 576.00 18.16" xmlns="http://www.w3.org/2000/svg" xmlns:xlink="http://www.w3.org/1999/xlink">
<g id="graph0" class="graph" transform="scale(0.685306 0.685306) rotate(0) translate(4 22.5)">
<title>inheritance4ec308a447</title>
<!-- Block -->
<g id="node1" class="node">
<title>Block</title>
<g id="a_node1"><a xlink:href="../pyVHDLParser.Blocks.html#pyVHDLParser.Blocks.Block" xlink:title="Base&#45;class for all :term:`block` classes." target="_top">
<polygon fill="white" stroke="#1e90ff" points="54,-18.5 0,-18.5 0,0 54,0 54,-18.5"/>
<text text-anchor="middle" x="27" y="-5" font-family="Vera Sans, DejaVu Sans, Liberation Sans, Arial, Helvetica, sans" font-size="10.00">Block</text>
</a>
</g>
</g>
<!-- EndOfStatementBlock -->
<g id="node2" class="node">
<title>EndOfStatementBlock</title>
<g id="a_node2"><a xlink:href="../pyVHDLParser.Blocks.Generic1.html#pyVHDLParser.Blocks.Generic1.EndOfStatementBlock" xlink:title="EndOfStatementBlock" target="_top">
<polygon fill="white" stroke="#1e90ff" points="248.5,-18.5 90,-18.5 90,0 248.5,0 248.5,-18.5"/>
<text text-anchor="middle" x="169.25" y="-5" font-family="Vera Sans, DejaVu Sans, Liberation Sans, Arial, Helvetica, sans" font-size="10.00">EndOfStatementBlock</text>
</a>
</g>
</g>
<!-- Block&#45;&gt;EndOfStatementBlock -->
<g id="edge1" class="edge">
<title>Block&#45;&gt;EndOfStatementBlock</title>
<path fill="none" stroke="black" stroke-width="0.5" d="M54.38,-9.25C63.02,-9.25 73.13,-9.25 83.7,-9.25"/>
<polygon fill="black" stroke="black" stroke-width="0.5" points="84.61,-11 89.61,-9.25 84.61,-7.5 84.61,-11"/>
</g>
<!-- ObjectDeclarationEndMarkerBlock -->
<g id="node3" class="node">
<title>ObjectDeclarationEndMarkerBlock</title>
<g id="a_node3"><a xlink:href="../pyVHDLParser.Blocks.Object.html#pyVHDLParser.Blocks.Object.ObjectDeclarationEndMarkerBlock" xlink:title="ObjectDeclarationEndMarkerBlock" target="_top">
<polygon fill="white" stroke="#1e90ff" points="533,-18.5 284.5,-18.5 284.5,0 533,0 533,-18.5"/>
<text text-anchor="middle" x="408.75" y="-5" font-family="Vera Sans, DejaVu Sans, Liberation Sans, Arial, Helvetica, sans" font-size="10.00">ObjectDeclarationEndMarkerBlock</text>
</a>
</g>
</g>
<!-- EndOfStatementBlock&#45;&gt;ObjectDeclarationEndMarkerBlock -->
<g id="edge2" class="edge">
<title>EndOfStatementBlock&#45;&gt;ObjectDeclarationEndMarkerBlock</title>
<path fill="none" stroke="black" stroke-width="0.5" d="M248.67,-9.25C258.28,-9.25 268.27,-9.25 278.38,-9.25"/>
<polygon fill="black" stroke="black" stroke-width="0.5" points="279.34,-11 284.34,-9.25 279.34,-7.5 279.34,-11"/>
</g>
<!-- VariableDeclarationEndMarkerBlock -->
<g id="node4" class="node">
<title>VariableDeclarationEndMarkerBlock</title>
<g id="a_node4"><a xlink:href="../pyVHDLParser/pyVHDLParser.Blocks.Object.Variable.html#pyVHDLParser.Blocks.Object.Variable.VariableDeclarationEndMarkerBlock" xlink:title="VariableDeclarationEndMarkerBlock" target="_top">
<polygon fill="white" stroke="#1e90ff" points="832.5,-18.5 569,-18.5 569,0 832.5,0 832.5,-18.5"/>
<text text-anchor="middle" x="700.75" y="-5" font-family="Vera Sans, DejaVu Sans, Liberation Sans, Arial, Helvetica, sans" font-size="10.00">VariableDeclarationEndMarkerBlock</text>
</a>
</g>
</g>
<!-- ObjectDeclarationEndMarkerBlock&#45;&gt;VariableDeclarationEndMarkerBlock -->
<g id="edge3" class="edge">
<title>ObjectDeclarationEndMarkerBlock&#45;&gt;VariableDeclarationEndMarkerBlock</title>
<path fill="none" stroke="black" stroke-width="0.5" d="M533.16,-9.25C542.95,-9.25 552.88,-9.25 562.76,-9.25"/>
<polygon fill="black" stroke="black" stroke-width="0.5" points="563.57,-11 568.57,-9.25 563.57,-7.5 563.57,-11"/>
</g>
</g>
</svg>
