<?xml version="1.0" encoding="UTF-8" standalone="no"?>
<!DOCTYPE svg PUBLIC "-//W3C//DTD SVG 1.1//EN"
 "http://www.w3.org/Graphics/SVG/1.1/DTD/svg11.dtd">
<!-- Generated by graphviz version 8.0.5 (20230430.1635)
 -->
<!-- Title: inheritance25c5c82dfd Pages: 1 -->
<svg width="0pt" height="864pt"
 viewBox="0.00 0.00 0.21 864.00" xmlns="http://www.w3.org/2000/svg" xmlns:xlink="http://www.w3.org/1999/xlink">
<g id="graph0" class="graph" transform="scale(0.000536447 0.000536447) rotate(0) translate(4 1610592.14)">
<title>inheritance25c5c82dfd</title>
<!-- EndOf -->
<g id="node1" class="node">
<title>EndOf</title>
<g id="a_node1"><a xlink:title="Base&#45;class (mixin) for all EndOf*** classes.">
<polygon fill="white" stroke="#1e90ff" points="54,-1610588.14 0,-1610588.14 0,-65543.21 54,-65543.21 54,-1610588.14"/>
<text text-anchor="middle" x="27" y="-1610574.64" font-family="Vera Sans, DejaVu Sans, Liberation Sans, Arial, Helvetica, sans" font-size="10.00">EndOf</text>
</a>
</g>
</g>
<!-- EndOfSnippet -->
<g id="node2" class="node">
<title>EndOfSnippet</title>
<g id="a_node2"><a xlink:title="Base&#45;class (mixin) for all EndOf***Snippet classes.">
<polygon fill="white" stroke="#1e90ff" points="196,-1485701.36 90,-1485701.36 90,-190429.99 196,-190429.99 196,-1485701.36"/>
<text text-anchor="middle" x="143" y="-1485687.86" font-family="Vera Sans, DejaVu Sans, Liberation Sans, Arial, Helvetica, sans" font-size="10.00">EndOfSnippet</text>
</a>
</g>
</g>
<!-- EndOf&#45;&gt;EndOfSnippet -->
<g id="edge1" class="edge">
<title>EndOf&#45;&gt;EndOfSnippet</title>
<path fill="none" stroke="black" stroke-width="0.5" d="M54.44,-838065.68C63.32,-838065.68 73.6,-838065.68 83.94,-838065.68"/>
<polygon fill="black" stroke="black" stroke-width="0.5" points="84.67,-838067.43 89.67,-838065.68 84.67,-838063.93 84.67,-838067.43"/>
</g>
<!-- EndOfSnippetToken -->
<g id="node3" class="node">
<title>EndOfSnippetToken</title>
<g id="a_node3"><a xlink:href="../pyVHDLParser/pyVHDLParser.Token.html#pyVHDLParser.Token.EndOfSnippetToken" xlink:title="EndOfSnippetToken" target="_top">
<polygon fill="white" stroke="#1e90ff" points="375.5,-1577828.31 232,-1577828.31 232,-32767.05 375.5,-32767.05 375.5,-1577828.31"/>
<text text-anchor="middle" x="303.75" y="-1577814.81" font-family="Vera Sans, DejaVu Sans, Liberation Sans, Arial, Helvetica, sans" font-size="10.00">EndOfSnippetToken</text>
</a>
</g>
</g>
<!-- EndOfSnippet&#45;&gt;EndOfSnippetToken -->
<g id="edge3" class="edge">
<title>EndOfSnippet&#45;&gt;EndOfSnippetToken</title>
<path fill="none" stroke="black" stroke-width="0.5" d="M196.5,-827229.06C207.7,-824917.66 219.7,-822439.24 231.47,-820010.34"/>
<polygon fill="black" stroke="black" stroke-width="0.5" points="233.23,-820009.56 231.5,-820004.55 229.73,-820009.55 233.23,-820009.56"/>
</g>
<!-- EndOfToken -->
<g id="node4" class="node">
<title>EndOfToken</title>
<g id="a_node4"><a xlink:href="../pyVHDLParser/pyVHDLParser.Token.html#pyVHDLParser.Token.EndOfToken" xlink:title="Base&#45;class for meta&#45;tokens representing the end of a token stream." target="_top">
<polygon fill="white" stroke="#1e90ff" points="188.5,-1545061.36 97.5,-1545061.36 97.5,0 188.5,0 188.5,-1545061.36"/>
<text text-anchor="middle" x="143" y="-1545047.86" font-family="Vera Sans, DejaVu Sans, Liberation Sans, Arial, Helvetica, sans" font-size="10.00">EndOfToken</text>
</a>
</g>
</g>
<!-- EndOfToken&#45;&gt;EndOfSnippetToken -->
<g id="edge2" class="edge">
<title>EndOfToken&#45;&gt;EndOfSnippetToken</title>
<path fill="none" stroke="black" stroke-width="0.5" d="M189,-781818.72C202.23,-784548.69 217.03,-787604.44 231.47,-790585.59"/>
<polygon fill="black" stroke="black" stroke-width="0.5" points="229.73,-790586.34 231.5,-790591.33 233.23,-790586.32 229.73,-790586.34"/>
</g>
<!-- Token -->
<g id="node5" class="node">
<title>Token</title>
<g id="a_node5"><a xlink:href="../pyVHDLParser/pyVHDLParser.Token.html#pyVHDLParser.Token.Token" xlink:title="Base&#45;class for all token classes." target="_top">
<polygon fill="white" stroke="#1e90ff" points="54,-772545.43 0,-772545.43 0,-772515.93 54,-772515.93 54,-772545.43"/>
<text text-anchor="middle" x="27" y="-772531.93" font-family="Vera Sans, DejaVu Sans, Liberation Sans, Arial, Helvetica, sans" font-size="10.00">Token</text>
</a>
</g>
</g>
<!-- Token&#45;&gt;EndOfToken -->
<g id="edge4" class="edge">
<title>Token&#45;&gt;EndOfToken</title>
<path fill="none" stroke="black" stroke-width="0.5" d="M54.44,-772530.68C65.51,-772530.68 78.75,-772530.68 91.55,-772530.68"/>
<polygon fill="black" stroke="black" stroke-width="0.5" points="92.39,-772532.43 97.39,-772530.68 92.39,-772528.93 92.39,-772532.43"/>
</g>
</g>
</svg>
