<?xml version="1.0" encoding="UTF-8" standalone="no"?>
<!DOCTYPE svg PUBLIC "-//W3C//DTD SVG 1.1//EN"
 "http://www.w3.org/Graphics/SVG/1.1/DTD/svg11.dtd">
<!-- Generated by graphviz version 8.0.5 (20230430.1635)
 -->
<!-- Title: inheritancee5c705e1df Pages: 1 -->
<svg width="1pt" height="864pt"
 viewBox="0.00 0.00 0.63 864.00" xmlns="http://www.w3.org/2000/svg" xmlns:xlink="http://www.w3.org/1999/xlink">
<g id="graph0" class="graph" transform="scale(0.00102361 0.00102361) rotate(0) translate(4 844071.54)">
<title>inheritancee5c705e1df</title>
<!-- ContextKeyword -->
<g id="node1" class="node">
<title>ContextKeyword</title>
<g id="a_node1"><a xlink:href="../pyVHDLParser/pyVHDLParser.Token.Keywords.html#pyVHDLParser.Token.Keywords.ContextKeyword" xlink:title="ContextKeyword" target="_top">
<polygon fill="white" stroke="#1e90ff" points="607,-422043.02 486,-422043.02 486,-422024.52 607,-422024.52 607,-422043.02"/>
<text text-anchor="middle" x="546.5" y="-422029.52" font-family="Vera Sans, DejaVu Sans, Liberation Sans, Arial, Helvetica, sans" font-size="10.00">ContextKeyword</text>
</a>
</g>
</g>
<!-- KeywordToken -->
<g id="node2" class="node">
<title>KeywordToken</title>
<g id="a_node2"><a xlink:href="../pyVHDLParser/pyVHDLParser.Token.Keywords.html#pyVHDLParser.Token.Keywords.KeywordToken" xlink:title="KeywordToken" target="_top">
<polygon fill="white" stroke="#1e90ff" points="450,-422043.02 344,-422043.02 344,-422024.52 450,-422024.52 450,-422043.02"/>
<text text-anchor="middle" x="397" y="-422029.52" font-family="Vera Sans, DejaVu Sans, Liberation Sans, Arial, Helvetica, sans" font-size="10.00">KeywordToken</text>
</a>
</g>
</g>
<!-- KeywordToken&#45;&gt;ContextKeyword -->
<g id="edge1" class="edge">
<title>KeywordToken&#45;&gt;ContextKeyword</title>
<path fill="none" stroke="black" stroke-width="0.5" d="M450.42,-422033.77C459.97,-422033.77 470.05,-422033.77 479.92,-422033.77"/>
<polygon fill="black" stroke="black" stroke-width="0.5" points="480.71,-422035.52 485.71,-422033.77 480.71,-422032.02 480.71,-422035.52"/>
</g>
<!-- VHDLToken -->
<g id="node3" class="node">
<title>VHDLToken</title>
<g id="a_node3"><a xlink:href="../pyVHDLParser.Token.html#pyVHDLParser.Token.VHDLToken" xlink:title="Base&#45;class for all VHDL specific tokens." target="_top">
<polygon fill="white" stroke="#1e90ff" points="308,-844067.49 224.5,-844067.49 224.5,-0.05 308,-0.05 308,-844067.49"/>
<text text-anchor="middle" x="266.25" y="-844053.99" font-family="Vera Sans, DejaVu Sans, Liberation Sans, Arial, Helvetica, sans" font-size="10.00">VHDLToken</text>
</a>
</g>
</g>
<!-- VHDLToken&#45;&gt;KeywordToken -->
<g id="edge2" class="edge">
<title>VHDLToken&#45;&gt;KeywordToken</title>
<path fill="none" stroke="black" stroke-width="0.5" d="M308.34,-422033.77C317.69,-422033.77 327.8,-422033.77 337.71,-422033.77"/>
<polygon fill="black" stroke="black" stroke-width="0.5" points="338.52,-422035.52 343.52,-422033.77 338.52,-422032.02 338.52,-422035.52"/>
</g>
<!-- Token -->
<g id="node4" class="node">
<title>Token</title>
<g id="a_node4"><a xlink:href="../pyVHDLParser.Token.html#pyVHDLParser.Token.Token" xlink:title="Base&#45;class for all token classes." target="_top">
<polygon fill="white" stroke="#1e90ff" points="54,-844067.54 0,-844067.54 0,0 54,0 54,-844067.54"/>
<text text-anchor="middle" x="27" y="-844054.04" font-family="Vera Sans, DejaVu Sans, Liberation Sans, Arial, Helvetica, sans" font-size="10.00">Token</text>
</a>
</g>
</g>
<!-- ValuedToken -->
<g id="node5" class="node">
<title>ValuedToken</title>
<g id="a_node5"><a xlink:href="../pyVHDLParser.Token.html#pyVHDLParser.Token.ValuedToken" xlink:title="Base&#45;class for all *valued* token." target="_top">
<polygon fill="white" stroke="#1e90ff" points="188.5,-422043.02 90,-422043.02 90,-422024.52 188.5,-422024.52 188.5,-422043.02"/>
<text text-anchor="middle" x="139.25" y="-422029.52" font-family="Vera Sans, DejaVu Sans, Liberation Sans, Arial, Helvetica, sans" font-size="10.00">ValuedToken</text>
</a>
</g>
</g>
<!-- Token&#45;&gt;ValuedToken -->
<g id="edge4" class="edge">
<title>Token&#45;&gt;ValuedToken</title>
<path fill="none" stroke="black" stroke-width="0.5" d="M54.41,-422033.77C63.25,-422033.77 73.45,-422033.77 83.64,-422033.77"/>
<polygon fill="black" stroke="black" stroke-width="0.5" points="84.62,-422035.52 89.62,-422033.77 84.62,-422032.02 84.62,-422035.52"/>
</g>
<!-- ValuedToken&#45;&gt;VHDLToken -->
<g id="edge3" class="edge">
<title>ValuedToken&#45;&gt;VHDLToken</title>
<path fill="none" stroke="black" stroke-width="0.5" d="M188.94,-422033.77C198.59,-422033.77 208.7,-422033.77 218.29,-422033.77"/>
<polygon fill="black" stroke="black" stroke-width="0.5" points="219.19,-422035.52 224.19,-422033.77 219.19,-422032.02 219.19,-422035.52"/>
</g>
</g>
</svg>
