<?xml version="1.0" encoding="UTF-8" standalone="no"?>
<!DOCTYPE svg PUBLIC "-//W3C//DTD SVG 1.1//EN"
 "http://www.w3.org/Graphics/SVG/1.1/DTD/svg11.dtd">
<!-- Generated by graphviz version 8.0.5 (20230430.1635)
 -->
<!-- Title: inheritancee5bea8a7fc Pages: 1 -->
<svg width="0pt" height="864pt"
 viewBox="0.00 0.00 0.28 864.00" xmlns="http://www.w3.org/2000/svg" xmlns:xlink="http://www.w3.org/1999/xlink">
<g id="graph0" class="graph" transform="scale(0.000638597 0.000638597) rotate(0) translate(4 1352962.38)">
<title>inheritancee5bea8a7fc</title>
<!-- Group -->
<g id="node1" class="node">
<title>Group</title>
<g id="a_node1"><a xlink:href="../pyVHDLParser/pyVHDLParser.Groups.html#pyVHDLParser.Groups.Group" xlink:title="Group" target="_top">
<polygon fill="white" stroke="#1e90ff" points="61.25,-725635.94 7.25,-725635.94 7.25,-725617.44 61.25,-725617.44 61.25,-725635.94"/>
<text text-anchor="middle" x="34.25" y="-725622.44" font-family="Vera Sans, DejaVu Sans, Liberation Sans, Arial, Helvetica, sans" font-size="10.00">Group</text>
</a>
</g>
</g>
<!-- StartOfGroup -->
<g id="node5" class="node">
<title>StartOfGroup</title>
<g id="a_node5"><a xlink:href="../pyVHDLParser/pyVHDLParser.Groups.html#pyVHDLParser.Groups.StartOfGroup" xlink:title="StartOfGroup" target="_top">
<polygon fill="white" stroke="#1e90ff" points="221.75,-725641.44 115.75,-725641.44 115.75,-725611.94 221.75,-725611.94 221.75,-725641.44"/>
<text text-anchor="middle" x="168.75" y="-725627.94" font-family="Vera Sans, DejaVu Sans, Liberation Sans, Arial, Helvetica, sans" font-size="10.00">StartOfGroup</text>
</a>
</g>
</g>
<!-- Group&#45;&gt;StartOfGroup -->
<g id="edge4" class="edge">
<title>Group&#45;&gt;StartOfGroup</title>
<path fill="none" stroke="black" stroke-width="0.5" d="M61.74,-725626.69C75.52,-725626.69 92.93,-725626.69 109.64,-725626.69"/>
<polygon fill="black" stroke="black" stroke-width="0.5" points="110.27,-725628.44 115.27,-725626.69 110.27,-725624.94 110.27,-725628.44"/>
</g>
<!-- StartOf -->
<g id="node2" class="node">
<title>StartOf</title>
<g id="a_node2"><a xlink:title="Base&#45;class (mixin) for all StartOf*** classes.">
<polygon fill="white" stroke="#1e90ff" points="68.5,-660100.94 0,-660100.94 0,-660082.44 68.5,-660082.44 68.5,-660100.94"/>
<text text-anchor="middle" x="34.25" y="-660087.44" font-family="Vera Sans, DejaVu Sans, Liberation Sans, Arial, Helvetica, sans" font-size="10.00">StartOf</text>
</a>
</g>
</g>
<!-- StartOfDocument -->
<g id="node3" class="node">
<title>StartOfDocument</title>
<g id="a_node3"><a xlink:title="Base&#45;class (mixin) for all StartOf***Document classes.">
<polygon fill="white" stroke="#1e90ff" points="233,-1320183.38 104.5,-1320183.38 104.5,0 233,0 233,-1320183.38"/>
<text text-anchor="middle" x="168.75" y="-1320169.88" font-family="Vera Sans, DejaVu Sans, Liberation Sans, Arial, Helvetica, sans" font-size="10.00">StartOfDocument</text>
</a>
</g>
</g>
<!-- StartOf&#45;&gt;StartOfDocument -->
<g id="edge1" class="edge">
<title>StartOf&#45;&gt;StartOfDocument</title>
<path fill="none" stroke="black" stroke-width="0.5" d="M68.69,-660091.69C77.81,-660091.69 88.04,-660091.69 98.37,-660091.69"/>
<polygon fill="black" stroke="black" stroke-width="0.5" points="99.11,-660093.44 104.11,-660091.69 99.11,-660089.94 99.11,-660093.44"/>
</g>
<!-- StartOfDocumentGroup -->
<g id="node4" class="node">
<title>StartOfDocumentGroup</title>
<g id="a_node4"><a xlink:href="../pyVHDLParser/pyVHDLParser.Groups.html#pyVHDLParser.Groups.StartOfDocumentGroup" xlink:title="StartOfDocumentGroup" target="_top">
<polygon fill="white" stroke="#1e90ff" points="435,-1352958.38 269,-1352958.38 269,-32759.01 435,-32759.01 435,-1352958.38"/>
<text text-anchor="middle" x="352" y="-1352944.88" font-family="Vera Sans, DejaVu Sans, Liberation Sans, Arial, Helvetica, sans" font-size="10.00">StartOfDocumentGroup</text>
</a>
</g>
</g>
<!-- StartOfDocument&#45;&gt;StartOfDocumentGroup -->
<g id="edge3" class="edge">
<title>StartOfDocument&#45;&gt;StartOfDocumentGroup</title>
<path fill="none" stroke="black" stroke-width="0.5" d="M233.5,-671616.39C244.81,-673660.74 256.73,-675816.06 268.47,-677938.38"/>
<polygon fill="black" stroke="black" stroke-width="0.5" points="266.72,-677939.22 268.5,-677944.21 270.22,-677939.2 266.72,-677939.22"/>
</g>
<!-- StartOfGroup&#45;&gt;StartOfDocumentGroup -->
<g id="edge2" class="edge">
<title>StartOfGroup&#45;&gt;StartOfDocumentGroup</title>
<path fill="none" stroke="black" stroke-width="0.5" d="M222.12,-725617.32C226.31,-725614.8 230.05,-725611.64 233,-725607.69 246.2,-725590.02 257.94,-725267.71 268.39,-724700.03"/>
<polygon fill="black" stroke="black" stroke-width="0.5" points="270.16,-724699.21 268.5,-724694.18 266.66,-724699.15 270.16,-724699.21"/>
</g>
</g>
</svg>
