<?xml version="1.0" encoding="UTF-8" standalone="no"?>
<!DOCTYPE svg PUBLIC "-//W3C//DTD SVG 1.1//EN"
 "http://www.w3.org/Graphics/SVG/1.1/DTD/svg11.dtd">
<!-- Generated by graphviz version 8.0.5 (20230430.1635)
 -->
<!-- Title: inheritance4e0e4303f5 Pages: 1 -->
<svg width="0pt" height="864pt"
 viewBox="0.00 0.00 0.24 864.00" xmlns="http://www.w3.org/2000/svg" xmlns:xlink="http://www.w3.org/1999/xlink">
<g id="graph0" class="graph" transform="scale(0.000639562 0.000639562) rotate(0) translate(4 1350920.12)">
<title>inheritance4e0e4303f5</title>
<!-- Block -->
<g id="node1" class="node">
<title>Block</title>
<g id="a_node1"><a xlink:href="../pyVHDLParser.Blocks.html#pyVHDLParser.Blocks.Block" xlink:title="Base&#45;class for all :term:`block` classes." target="_top">
<polygon fill="white" stroke="#1e90ff" points="54,-1350916.12 0,-1350916.12 0,0 54,0 54,-1350916.12"/>
<text text-anchor="middle" x="27" y="-1350902.62" font-family="Vera Sans, DejaVu Sans, Liberation Sans, Arial, Helvetica, sans" font-size="10.00">Block</text>
</a>
</g>
</g>
<!-- EndOfStatementBlock -->
<g id="node3" class="node">
<title>EndOfStatementBlock</title>
<g id="a_node3"><a xlink:href="../pyVHDLParser.Blocks.Generic1.html#pyVHDLParser.Blocks.Generic1.EndOfStatementBlock" xlink:title="EndOfStatementBlock" target="_top">
<polygon fill="white" stroke="#1e90ff" points="248.5,-675467.31 90,-675467.31 90,-675448.81 248.5,-675448.81 248.5,-675467.31"/>
<text text-anchor="middle" x="169.25" y="-675453.81" font-family="Vera Sans, DejaVu Sans, Liberation Sans, Arial, Helvetica, sans" font-size="10.00">EndOfStatementBlock</text>
</a>
</g>
</g>
<!-- Block&#45;&gt;EndOfStatementBlock -->
<g id="edge2" class="edge">
<title>Block&#45;&gt;EndOfStatementBlock</title>
<path fill="none" stroke="black" stroke-width="0.5" d="M54.38,-675458.06C63.02,-675458.06 73.13,-675458.06 83.7,-675458.06"/>
<polygon fill="black" stroke="black" stroke-width="0.5" points="84.61,-675459.81 89.61,-675458.06 84.61,-675456.31 84.61,-675459.81"/>
</g>
<!-- EndBlock -->
<g id="node2" class="node">
<title>EndBlock</title>
<g id="a_node2"><a xlink:href="../pyVHDLParser/pyVHDLParser.Blocks.ControlStructure.Next.html#pyVHDLParser.Blocks.ControlStructure.Next.EndBlock" xlink:title="EndBlock" target="_top">
<polygon fill="white" stroke="#1e90ff" points="360.5,-675467.31 284.5,-675467.31 284.5,-675448.81 360.5,-675448.81 360.5,-675467.31"/>
<text text-anchor="middle" x="322.5" y="-675453.81" font-family="Vera Sans, DejaVu Sans, Liberation Sans, Arial, Helvetica, sans" font-size="10.00">EndBlock</text>
</a>
</g>
</g>
<!-- EndOfStatementBlock&#45;&gt;EndBlock -->
<g id="edge1" class="edge">
<title>EndOfStatementBlock&#45;&gt;EndBlock</title>
<path fill="none" stroke="black" stroke-width="0.5" d="M248.98,-675458.06C259.1,-675458.06 269.16,-675458.06 278.41,-675458.06"/>
<polygon fill="black" stroke="black" stroke-width="0.5" points="279.36,-675459.81 284.36,-675458.06 279.36,-675456.31 279.36,-675459.81"/>
</g>
</g>
</svg>
