<?xml version="1.0" encoding="UTF-8" standalone="no"?>
<!DOCTYPE svg PUBLIC "-//W3C//DTD SVG 1.1//EN"
 "http://www.w3.org/Graphics/SVG/1.1/DTD/svg11.dtd">
<!-- Generated by graphviz version 8.0.5 (20230430.1635)
 -->
<!-- Title: inheritancee392014f75 Pages: 1 -->
<svg width="0pt" height="864pt"
 viewBox="0.00 0.00 0.32 864.00" xmlns="http://www.w3.org/2000/svg" xmlns:xlink="http://www.w3.org/1999/xlink">
<g id="graph0" class="graph" transform="scale(0.000555317 0.000555317) rotate(0) translate(4 1555864.41)">
<title>inheritancee392014f75</title>
<!-- KeywordToken -->
<g id="node1" class="node">
<title>KeywordToken</title>
<g id="a_node1"><a xlink:href="../pyVHDLParser/pyVHDLParser.Token.Keywords.html#pyVHDLParser.Token.Keywords.KeywordToken" xlink:title="KeywordToken" target="_top">
<polygon fill="white" stroke="#1e90ff" points="450,-777939.45 344,-777939.45 344,-777920.95 450,-777920.95 450,-777939.45"/>
<text text-anchor="middle" x="397" y="-777925.95" font-family="Vera Sans, DejaVu Sans, Liberation Sans, Arial, Helvetica, sans" font-size="10.00">KeywordToken</text>
</a>
</g>
</g>
<!-- OutKeyword -->
<g id="node3" class="node">
<title>OutKeyword</title>
<g id="a_node3"><a xlink:href="../pyVHDLParser/pyVHDLParser.Token.Keywords.html#pyVHDLParser.Token.Keywords.OutKeyword" xlink:title="OutKeyword" target="_top">
<polygon fill="white" stroke="#1e90ff" points="577,-1555860.41 486,-1555860.41 486,0 577,0 577,-1555860.41"/>
<text text-anchor="middle" x="531.5" y="-1555846.91" font-family="Vera Sans, DejaVu Sans, Liberation Sans, Arial, Helvetica, sans" font-size="10.00">OutKeyword</text>
</a>
</g>
</g>
<!-- KeywordToken&#45;&gt;OutKeyword -->
<g id="edge2" class="edge">
<title>KeywordToken&#45;&gt;OutKeyword</title>
<path fill="none" stroke="black" stroke-width="0.5" d="M450.37,-777930.2C460.07,-777930.2 470.19,-777930.2 479.84,-777930.2"/>
<polygon fill="black" stroke="black" stroke-width="0.5" points="480.79,-777931.95 485.79,-777930.2 480.79,-777928.45 480.79,-777931.95"/>
</g>
<!-- VHDLToken -->
<g id="node2" class="node">
<title>VHDLToken</title>
<g id="a_node2"><a xlink:href="../pyVHDLParser.Token.html#pyVHDLParser.Token.VHDLToken" xlink:title="Base&#45;class for all VHDL specific tokens." target="_top">
<polygon fill="white" stroke="#1e90ff" points="308,-777939.45 224.5,-777939.45 224.5,-777920.95 308,-777920.95 308,-777939.45"/>
<text text-anchor="middle" x="266.25" y="-777925.95" font-family="Vera Sans, DejaVu Sans, Liberation Sans, Arial, Helvetica, sans" font-size="10.00">VHDLToken</text>
</a>
</g>
</g>
<!-- VHDLToken&#45;&gt;KeywordToken -->
<g id="edge1" class="edge">
<title>VHDLToken&#45;&gt;KeywordToken</title>
<path fill="none" stroke="black" stroke-width="0.5" d="M308.34,-777930.2C317.69,-777930.2 327.8,-777930.2 337.71,-777930.2"/>
<polygon fill="black" stroke="black" stroke-width="0.5" points="338.52,-777931.95 343.52,-777930.2 338.52,-777928.45 338.52,-777931.95"/>
</g>
<!-- Token -->
<g id="node4" class="node">
<title>Token</title>
<g id="a_node4"><a xlink:href="../pyVHDLParser.Token.html#pyVHDLParser.Token.Token" xlink:title="Base&#45;class for all token classes." target="_top">
<polygon fill="white" stroke="#1e90ff" points="54,-1555860.36 0,-1555860.36 0,-0.05 54,-0.05 54,-1555860.36"/>
<text text-anchor="middle" x="27" y="-1555846.86" font-family="Vera Sans, DejaVu Sans, Liberation Sans, Arial, Helvetica, sans" font-size="10.00">Token</text>
</a>
</g>
</g>
<!-- ValuedToken -->
<g id="node5" class="node">
<title>ValuedToken</title>
<g id="a_node5"><a xlink:href="../pyVHDLParser.Token.html#pyVHDLParser.Token.ValuedToken" xlink:title="Base&#45;class for all *valued* token." target="_top">
<polygon fill="white" stroke="#1e90ff" points="188.5,-777944.95 90,-777944.95 90,-777915.45 188.5,-777915.45 188.5,-777944.95"/>
<text text-anchor="middle" x="139.25" y="-777931.45" font-family="Vera Sans, DejaVu Sans, Liberation Sans, Arial, Helvetica, sans" font-size="10.00">ValuedToken</text>
</a>
</g>
</g>
<!-- Token&#45;&gt;ValuedToken -->
<g id="edge4" class="edge">
<title>Token&#45;&gt;ValuedToken</title>
<path fill="none" stroke="black" stroke-width="0.5" d="M54.41,-777930.2C63.25,-777930.2 73.45,-777930.2 83.64,-777930.2"/>
<polygon fill="black" stroke="black" stroke-width="0.5" points="84.62,-777931.95 89.62,-777930.2 84.62,-777928.45 84.62,-777931.95"/>
</g>
<!-- ValuedToken&#45;&gt;VHDLToken -->
<g id="edge3" class="edge">
<title>ValuedToken&#45;&gt;VHDLToken</title>
<path fill="none" stroke="black" stroke-width="0.5" d="M188.94,-777930.2C198.59,-777930.2 208.7,-777930.2 218.29,-777930.2"/>
<polygon fill="black" stroke="black" stroke-width="0.5" points="219.19,-777931.95 224.19,-777930.2 219.19,-777928.45 219.19,-777931.95"/>
</g>
</g>
</svg>
