<?xml version="1.0" encoding="UTF-8" standalone="no"?>
<!DOCTYPE svg PUBLIC "-//W3C//DTD SVG 1.1//EN"
 "http://www.w3.org/Graphics/SVG/1.1/DTD/svg11.dtd">
<!-- Generated by graphviz version 8.0.5 (20230430.1635)
 -->
<!-- Title: inheritance597d0ac6f2 Pages: 1 -->
<svg width="0pt" height="864pt"
 viewBox="0.00 0.00 0.39 864.00" xmlns="http://www.w3.org/2000/svg" xmlns:xlink="http://www.w3.org/1999/xlink">
<g id="graph0" class="graph" transform="scale(0.000922557 0.000922557) rotate(0) translate(4 936523.12)">
<title>inheritance597d0ac6f2</title>
<!-- Group -->
<g id="node1" class="node">
<title>Group</title>
<g id="a_node1"><a xlink:href="../pyVHDLParser/pyVHDLParser.Groups.html#pyVHDLParser.Groups.Group" xlink:title="Group" target="_top">
<polygon fill="white" stroke="#1e90ff" points="61.25,-501032.32 7.25,-501032.32 7.25,-501013.82 61.25,-501013.82 61.25,-501032.32"/>
<text text-anchor="middle" x="34.25" y="-501018.82" font-family="Vera Sans, DejaVu Sans, Liberation Sans, Arial, Helvetica, sans" font-size="10.00">Group</text>
</a>
</g>
</g>
<!-- StartOfGroup -->
<g id="node3" class="node">
<title>StartOfGroup</title>
<g id="a_node3"><a xlink:href="../pyVHDLParser/pyVHDLParser.Groups.html#pyVHDLParser.Groups.StartOfGroup" xlink:title="StartOfGroup" target="_top">
<polygon fill="white" stroke="#1e90ff" points="218,-936519.12 112,-936519.12 112,-65527.01 218,-65527.01 218,-936519.12"/>
<text text-anchor="middle" x="165" y="-936505.62" font-family="Vera Sans, DejaVu Sans, Liberation Sans, Arial, Helvetica, sans" font-size="10.00">StartOfGroup</text>
</a>
</g>
</g>
<!-- Group&#45;&gt;StartOfGroup -->
<g id="edge1" class="edge">
<title>Group&#45;&gt;StartOfGroup</title>
<path fill="none" stroke="black" stroke-width="0.5" d="M61.62,-501023.07C74.46,-501023.07 90.44,-501023.07 105.94,-501023.07"/>
<polygon fill="black" stroke="black" stroke-width="0.5" points="106.62,-501024.82 111.62,-501023.07 106.62,-501021.32 106.62,-501024.82"/>
</g>
<!-- StartOf -->
<g id="node2" class="node">
<title>StartOf</title>
<g id="a_node2"><a xlink:title="Base&#45;class (mixin) for all StartOf*** classes.">
<polygon fill="white" stroke="#1e90ff" points="68.5,-435497.32 0,-435497.32 0,-435478.82 68.5,-435478.82 68.5,-435497.32"/>
<text text-anchor="middle" x="34.25" y="-435483.82" font-family="Vera Sans, DejaVu Sans, Liberation Sans, Arial, Helvetica, sans" font-size="10.00">StartOf</text>
</a>
</g>
</g>
<!-- StartOfSnippet -->
<g id="node4" class="node">
<title>StartOfSnippet</title>
<g id="a_node4"><a xlink:title="Base&#45;class (mixin) for all StartOf***Snippet classes.">
<polygon fill="white" stroke="#1e90ff" points="225.5,-870976.13 104.5,-870976.13 104.5,0 225.5,0 225.5,-870976.13"/>
<text text-anchor="middle" x="165" y="-870962.63" font-family="Vera Sans, DejaVu Sans, Liberation Sans, Arial, Helvetica, sans" font-size="10.00">StartOfSnippet</text>
</a>
</g>
</g>
<!-- StartOf&#45;&gt;StartOfSnippet -->
<g id="edge2" class="edge">
<title>StartOf&#45;&gt;StartOfSnippet</title>
<path fill="none" stroke="black" stroke-width="0.5" d="M68.74,-435488.07C77.92,-435488.07 88.2,-435488.07 98.51,-435488.07"/>
<polygon fill="black" stroke="black" stroke-width="0.5" points="99.24,-435489.82 104.24,-435488.07 99.24,-435486.32 99.24,-435489.82"/>
</g>
<!-- StartOfSnippetGroup -->
<g id="node5" class="node">
<title>StartOfSnippetGroup</title>
<g id="a_node5"><a xlink:href="../pyVHDLParser/pyVHDLParser.Groups.html#pyVHDLParser.Groups.StartOfSnippetGroup" xlink:title="StartOfSnippetGroup" target="_top">
<polygon fill="white" stroke="#1e90ff" points="420,-468269.81 261.5,-468269.81 261.5,-468240.32 420,-468240.32 420,-468269.81"/>
<text text-anchor="middle" x="340.75" y="-468256.31" font-family="Vera Sans, DejaVu Sans, Liberation Sans, Arial, Helvetica, sans" font-size="10.00">StartOfSnippetGroup</text>
</a>
</g>
</g>
<!-- StartOfGroup&#45;&gt;StartOfSnippetGroup -->
<g id="edge3" class="edge">
<title>StartOfGroup&#45;&gt;StartOfSnippetGroup</title>
<path fill="none" stroke="black" stroke-width="0.5" d="M218.5,-491122.13C268.46,-481699.01 336.52,-468864.54 339.64,-468276.06"/>
<polygon fill="black" stroke="black" stroke-width="0.5" points="341.39,-468275.08 339.67,-468270.07 337.89,-468275.06 341.39,-468275.08"/>
</g>
<!-- StartOfSnippet&#45;&gt;StartOfSnippetGroup -->
<g id="edge4" class="edge">
<title>StartOfSnippet&#45;&gt;StartOfSnippetGroup</title>
<path fill="none" stroke="black" stroke-width="0.5" d="M226,-446802.96C275.02,-456047.07 336.7,-467679.22 339.64,-468234.4"/>
<polygon fill="black" stroke="black" stroke-width="0.5" points="337.89,-468235.09 339.67,-468240.08 341.39,-468235.07 337.89,-468235.09"/>
</g>
</g>
</svg>
