<?xml version="1.0" encoding="UTF-8" standalone="no"?>
<!DOCTYPE svg PUBLIC "-//W3C//DTD SVG 1.1//EN"
 "http://www.w3.org/Graphics/SVG/1.1/DTD/svg11.dtd">
<!-- Generated by graphviz version 8.0.5 (20230430.1635)
 -->
<!-- Title: inheritanceb346dbedc4 Pages: 1 -->
<svg width="0pt" height="864pt"
 viewBox="0.00 0.00 0.23 864.00" xmlns="http://www.w3.org/2000/svg" xmlns:xlink="http://www.w3.org/1999/xlink">
<g id="graph0" class="graph" transform="scale(0.000591261 0.000591261) rotate(0) translate(4 1461279.74)">
<title>inheritanceb346dbedc4</title>
<!-- EndOf -->
<g id="node1" class="node">
<title>EndOf</title>
<g id="a_node1"><a xlink:title="Base&#45;class (mixin) for all EndOf*** classes.">
<polygon fill="white" stroke="#1e90ff" points="54,-763410.81 0,-763410.81 0,-763392.31 54,-763392.31 54,-763410.81"/>
<text text-anchor="middle" x="27" y="-763397.31" font-family="Vera Sans, DejaVu Sans, Liberation Sans, Arial, Helvetica, sans" font-size="10.00">EndOf</text>
</a>
</g>
</g>
<!-- EndOfSnippet -->
<g id="node4" class="node">
<title>EndOfSnippet</title>
<g id="a_node4"><a xlink:title="Base&#45;class (mixin) for all EndOf***Snippet classes.">
<polygon fill="white" stroke="#1e90ff" points="196,-1461275.74 90,-1461275.74 90,-65527.38 196,-65527.38 196,-1461275.74"/>
<text text-anchor="middle" x="143" y="-1461262.24" font-family="Vera Sans, DejaVu Sans, Liberation Sans, Arial, Helvetica, sans" font-size="10.00">EndOfSnippet</text>
</a>
</g>
</g>
<!-- EndOf&#45;&gt;EndOfSnippet -->
<g id="edge2" class="edge">
<title>EndOf&#45;&gt;EndOfSnippet</title>
<path fill="none" stroke="black" stroke-width="0.5" d="M54.44,-763401.56C63.32,-763401.56 73.6,-763401.56 83.94,-763401.56"/>
<polygon fill="black" stroke="black" stroke-width="0.5" points="84.67,-763403.31 89.67,-763401.56 84.67,-763399.81 84.67,-763403.31"/>
</g>
<!-- EndOfGroup -->
<g id="node2" class="node">
<title>EndOfGroup</title>
<g id="a_node2"><a xlink:href="../pyVHDLParser/pyVHDLParser.Groups.html#pyVHDLParser.Groups.EndOfGroup" xlink:title="EndOfGroup" target="_top">
<polygon fill="white" stroke="#1e90ff" points="188.5,-697875.81 97.5,-697875.81 97.5,-697857.31 188.5,-697857.31 188.5,-697875.81"/>
<text text-anchor="middle" x="143" y="-697862.31" font-family="Vera Sans, DejaVu Sans, Liberation Sans, Arial, Helvetica, sans" font-size="10.00">EndOfGroup</text>
</a>
</g>
</g>
<!-- EndOfSnippetGroup -->
<g id="node5" class="node">
<title>EndOfSnippetGroup</title>
<g id="a_node5"><a xlink:href="../pyVHDLParser/pyVHDLParser.Groups.html#pyVHDLParser.Groups.EndOfSnippetGroup" xlink:title="EndOfSnippetGroup" target="_top">
<polygon fill="white" stroke="#1e90ff" points="375.5,-730648.31 232,-730648.31 232,-730618.81 375.5,-730618.81 375.5,-730648.31"/>
<text text-anchor="middle" x="303.75" y="-730634.81" font-family="Vera Sans, DejaVu Sans, Liberation Sans, Arial, Helvetica, sans" font-size="10.00">EndOfSnippetGroup</text>
</a>
</g>
</g>
<!-- EndOfGroup&#45;&gt;EndOfSnippetGroup -->
<g id="edge3" class="edge">
<title>EndOfGroup&#45;&gt;EndOfSnippetGroup</title>
<path fill="none" stroke="black" stroke-width="0.5" d="M188.63,-697873.02C191.42,-697874.77 193.93,-697876.92 196,-697879.56 265.11,-697967.78 301.67,-729685.34 302.73,-730612.82"/>
<polygon fill="black" stroke="black" stroke-width="0.5" points="300.98,-730613.5 302.73,-730618.49 304.48,-730613.49 300.98,-730613.5"/>
</g>
<!-- Group -->
<g id="node3" class="node">
<title>Group</title>
<g id="a_node3"><a xlink:href="../pyVHDLParser/pyVHDLParser.Groups.html#pyVHDLParser.Groups.Group" xlink:title="Group" target="_top">
<polygon fill="white" stroke="#1e90ff" points="54,-1395733.12 0,-1395733.12 0,0 54,0 54,-1395733.12"/>
<text text-anchor="middle" x="27" y="-1395719.62" font-family="Vera Sans, DejaVu Sans, Liberation Sans, Arial, Helvetica, sans" font-size="10.00">Group</text>
</a>
</g>
</g>
<!-- Group&#45;&gt;EndOfGroup -->
<g id="edge1" class="edge">
<title>Group&#45;&gt;EndOfGroup</title>
<path fill="none" stroke="black" stroke-width="0.5" d="M54.44,-697866.56C65.51,-697866.56 78.75,-697866.56 91.55,-697866.56"/>
<polygon fill="black" stroke="black" stroke-width="0.5" points="92.39,-697868.31 97.39,-697866.56 92.39,-697864.81 92.39,-697868.31"/>
</g>
<!-- EndOfSnippet&#45;&gt;EndOfSnippetGroup -->
<g id="edge4" class="edge">
<title>EndOfSnippet&#45;&gt;EndOfSnippetGroup</title>
<path fill="none" stroke="black" stroke-width="0.5" d="M196.5,-752564.94C241.63,-743250.14 299.89,-731222.93 302.65,-730654.5"/>
<polygon fill="black" stroke="black" stroke-width="0.5" points="304.4,-730653.7 302.68,-730648.7 300.9,-730653.69 304.4,-730653.7"/>
</g>
</g>
</svg>
