<?xml version="1.0" encoding="UTF-8" standalone="no"?>
<!DOCTYPE svg PUBLIC "-//W3C//DTD SVG 1.1//EN"
 "http://www.w3.org/Graphics/SVG/1.1/DTD/svg11.dtd">
<!-- Generated by graphviz version 8.0.5 (20230430.1635)
 -->
<!-- Title: inheritance02546fc3a3 Pages: 1 -->
<svg width="1pt" height="864pt"
 viewBox="0.00 0.00 0.74 864.00" xmlns="http://www.w3.org/2000/svg" xmlns:xlink="http://www.w3.org/1999/xlink">
<g id="graph0" class="graph" transform="scale(0.00210673 0.00210673) rotate(0) translate(4 410109.6)">
<title>inheritance02546fc3a3</title>
<!-- Block -->
<g id="node1" class="node">
<title>Block</title>
<g id="a_node1"><a xlink:href="../pyVHDLParser.Blocks.html#pyVHDLParser.Blocks.Block" xlink:title="Base&#45;class for all :term:`block` classes." target="_top">
<polygon fill="white" stroke="#1e90ff" points="54,-410105.6 0,-410105.6 0,0 54,0 54,-410105.6"/>
<text text-anchor="middle" x="27" y="-410092.1" font-family="Vera Sans, DejaVu Sans, Liberation Sans, Arial, Helvetica, sans" font-size="10.00">Block</text>
</a>
</g>
</g>
<!-- FinalBlock -->
<g id="node2" class="node">
<title>FinalBlock</title>
<g id="a_node2"><a xlink:href="../pyVHDLParser.Blocks.html#pyVHDLParser.Blocks.FinalBlock" xlink:title="Base&#45;class for blocks that are final in a fast&#45;forward scanning." target="_top">
<polygon fill="white" stroke="#1e90ff" points="181,-205061.8 90,-205061.8 90,-205043.8 181,-205043.8 181,-205061.8"/>
<text text-anchor="middle" x="135.5" y="-205043.3" font-family="Vera Sans, DejaVu Sans, Liberation Sans, Arial, Helvetica, sans" font-size="10.00">FinalBlock</text>
</a>
</g>
</g>
<!-- Block&#45;&gt;FinalBlock -->
<g id="edge1" class="edge">
<title>Block&#45;&gt;FinalBlock</title>
<path fill="none" stroke="black" stroke-width="0.5" d="M54.33,-205052.8C63.29,-205052.8 73.62,-205052.8 83.84,-205052.8"/>
<polygon fill="black" stroke="black" stroke-width="0.5" points="84.82,-205054.55 89.82,-205052.8 84.82,-205051.05 84.82,-205054.55"/>
</g>
<!-- PortMapEndBlock -->
<g id="node3" class="node">
<title>PortMapEndBlock</title>
<g id="a_node3"><a xlink:href="../pyVHDLParser/pyVHDLParser.Blocks.Instantiation.PackageInstantiation.html#pyVHDLParser.Blocks.Instantiation.PackageInstantiation.PortMapEndBlock" xlink:title="PortMapEndBlock" target="_top">
<polygon fill="white" stroke="#1e90ff" points="345.5,-205067.55 217,-205067.55 217,-205038.05 345.5,-205038.05 345.5,-205067.55"/>
<text text-anchor="middle" x="281.25" y="-205054.05" font-family="Vera Sans, DejaVu Sans, Liberation Sans, Arial, Helvetica, sans" font-size="10.00">PortMapEndBlock</text>
</a>
</g>
</g>
<!-- FinalBlock&#45;&gt;PortMapEndBlock -->
<g id="edge2" class="edge">
<title>FinalBlock&#45;&gt;PortMapEndBlock</title>
<path fill="none" stroke="black" stroke-width="0.5" d="M181.2,-205052.8C190.57,-205052.8 200.66,-205052.8 210.69,-205052.8"/>
<polygon fill="black" stroke="black" stroke-width="0.5" points="211.58,-205054.55 216.58,-205052.8 211.58,-205051.05 211.58,-205054.55"/>
</g>
</g>
</svg>
