<?xml version="1.0" encoding="UTF-8" standalone="no"?>
<!DOCTYPE svg PUBLIC "-//W3C//DTD SVG 1.1//EN"
 "http://www.w3.org/Graphics/SVG/1.1/DTD/svg11.dtd">
<!-- Generated by graphviz version 8.0.5 (20230430.1635)
 -->
<!-- Title: inheritance60a498c76a Pages: 1 -->
<svg width="1pt" height="864pt"
 viewBox="0.00 0.00 1.23 864.00" xmlns="http://www.w3.org/2000/svg" xmlns:xlink="http://www.w3.org/1999/xlink">
<g id="graph0" class="graph" transform="scale(0.00176821 0.00176821) rotate(0) translate(4 488625.7)">
<title>inheritance60a498c76a</title>
<!-- Architecture -->
<g id="node1" class="node">
<title>Architecture</title>
<g id="a_node1"><a xlink:href="../pyVHDLParser/pyVHDLParser.LanguageModel.DesignUnit.html#pyVHDLParser.LanguageModel.DesignUnit.Architecture" xlink:title="Architecture" target="_top">
<polygon fill="white" stroke="#1e90ff" points="689.5,-423029.7 583.5,-423029.7 583.5,-423011.2 689.5,-423011.2 689.5,-423029.7"/>
<text text-anchor="middle" x="636.5" y="-423016.2" font-family="Vera Sans, DejaVu Sans, Liberation Sans, Arial, Helvetica, sans" font-size="10.00">Architecture</text>
</a>
</g>
</g>
<!-- Architecture&#45;&gt;Architecture -->
<g id="edge5" class="edge">
<title>Architecture&#45;&gt;Architecture</title>
<path fill="none" stroke="black" stroke-width="0.5" d="M606.52,-423029.95C591.94,-423038.52 601.93,-423047.7 636.5,-423047.7 666.21,-423047.7 677.77,-423040.92 671.17,-423033.57"/>
<polygon fill="black" stroke="black" stroke-width="0.5" points="671.51,-423031.62 666.48,-423029.95 669.37,-423034.39 671.51,-423031.62"/>
</g>
<!-- SecondaryUnit -->
<g id="node2" class="node">
<title>SecondaryUnit</title>
<g id="a_node2"><a xlink:title="A ``SecondaryUnit`` is a base&#45;class for all secondary units.">
<polygon fill="white" stroke="#1e90ff" points="498.75,-423086.7 385.25,-423086.7 385.25,-423068.2 498.75,-423068.2 498.75,-423086.7"/>
<text text-anchor="middle" x="442" y="-423073.2" font-family="Vera Sans, DejaVu Sans, Liberation Sans, Arial, Helvetica, sans" font-size="10.00">SecondaryUnit</text>
</a>
</g>
</g>
<!-- SecondaryUnit&#45;&gt;Architecture -->
<g id="edge1" class="edge">
<title>SecondaryUnit&#45;&gt;Architecture</title>
<path fill="none" stroke="black" stroke-width="0.5" d="M499.15,-423069.67C514.96,-423066.82 532.06,-423063.12 547.5,-423058.45 569.87,-423051.68 594.19,-423040.9 611.58,-423032.55"/>
<polygon fill="black" stroke="black" stroke-width="0.5" points="613.01,-423033.8 616.74,-423030.04 611.48,-423030.65 613.01,-423033.8"/>
</g>
<!-- DesignUnitWithContextMixin -->
<g id="node3" class="node">
<title>DesignUnitWithContextMixin</title>
<polygon fill="white" stroke="#1e90ff" points="547.5,-423049.7 336.5,-423049.7 336.5,-423031.2 547.5,-423031.2 547.5,-423049.7"/>
<text text-anchor="middle" x="442" y="-423036.2" font-family="Vera Sans, DejaVu Sans, Liberation Sans, Arial, Helvetica, sans" font-size="10.00">DesignUnitWithContextMixin</text>
</g>
<!-- DesignUnitWithContextMixin&#45;&gt;Architecture -->
<g id="edge2" class="edge">
<title>DesignUnitWithContextMixin&#45;&gt;Architecture</title>
<path fill="none" stroke="black" stroke-width="0.5" d="M536.71,-423030.72C550.56,-423029.28 564.48,-423027.83 577.32,-423026.5"/>
<polygon fill="black" stroke="black" stroke-width="0.5" points="578.34,-423028.15 583.14,-423025.89 577.98,-423024.67 578.34,-423028.15"/>
</g>
<!-- ConcurrentDeclarations -->
<g id="node4" class="node">
<title>ConcurrentDeclarations</title>
<polygon fill="white" stroke="#1e90ff" points="532.5,-423013.45 351.5,-423013.45 351.5,-422987.45 532.5,-422987.45 532.5,-423013.45"/>
<text text-anchor="middle" x="442" y="-422999.95" font-family="Vera Sans, DejaVu Sans, Liberation Sans, Arial, Helvetica, sans" font-size="10.00">ConcurrentDeclarations</text>
</g>
<!-- ConcurrentDeclarations&#45;&gt;Architecture -->
<g id="edge3" class="edge">
<title>ConcurrentDeclarations&#45;&gt;Architecture</title>
<path fill="none" stroke="black" stroke-width="0.5" d="M532.77,-423009.78C547.86,-423011.35 563.17,-423012.94 577.2,-423014.4"/>
<polygon fill="black" stroke="black" stroke-width="0.5" points="577.97,-423016.24 583.13,-423015.01 578.34,-423012.75 577.97,-423016.24"/>
</g>
<!-- ConcurrentStatements -->
<g id="node5" class="node">
<title>ConcurrentStatements</title>
<polygon fill="white" stroke="#1e90ff" points="525,-422969.7 359,-422969.7 359,-422951.2 525,-422951.2 525,-422969.7"/>
<text text-anchor="middle" x="442" y="-422956.2" font-family="Vera Sans, DejaVu Sans, Liberation Sans, Arial, Helvetica, sans" font-size="10.00">ConcurrentStatements</text>
</g>
<!-- ConcurrentStatements&#45;&gt;Architecture -->
<g id="edge4" class="edge">
<title>ConcurrentStatements&#45;&gt;Architecture</title>
<path fill="none" stroke="black" stroke-width="0.5" d="M515.02,-422970.18C526.02,-422972.43 537.15,-422975.16 547.5,-422978.45 571.04,-422985.94 596.33,-422998.54 613.73,-423007.98"/>
<polygon fill="black" stroke="black" stroke-width="0.5" points="613.64,-423009.93 618.87,-423010.81 615.33,-423006.87 613.64,-423009.93"/>
</g>
<!-- DesignUnit -->
<g id="node6" class="node">
<title>DesignUnit</title>
<g id="a_node6"><a xlink:title="A ``DesignUnit`` is a base&#45;class for all design units.">
<polygon fill="white" stroke="#1e90ff" points="300.5,-423086.7 209.5,-423086.7 209.5,-423068.2 300.5,-423068.2 300.5,-423086.7"/>
<text text-anchor="middle" x="255" y="-423073.2" font-family="Vera Sans, DejaVu Sans, Liberation Sans, Arial, Helvetica, sans" font-size="10.00">DesignUnit</text>
</a>
</g>
</g>
<!-- DesignUnit&#45;&gt;SecondaryUnit -->
<g id="edge9" class="edge">
<title>DesignUnit&#45;&gt;SecondaryUnit</title>
<path fill="none" stroke="black" stroke-width="0.5" d="M300.78,-423077.45C324.35,-423077.45 353.6,-423077.45 379.27,-423077.45"/>
<polygon fill="black" stroke="black" stroke-width="0.5" points="380.04,-423079.2 385.04,-423077.45 380.04,-423075.7 380.04,-423079.2"/>
</g>
<!-- ModelEntity -->
<g id="node7" class="node">
<title>ModelEntity</title>
<g id="a_node7"><a xlink:title="``ModelEntity`` is the base&#45;class for all classes in the VHDL language model, except for mixin classes (see multiple">
<polygon fill="white" stroke="#1e90ff" points="136,-488621.7 37.5,-488621.7 37.5,-488603.2 136,-488603.2 136,-488621.7"/>
<text text-anchor="middle" x="86.75" y="-488608.2" font-family="Vera Sans, DejaVu Sans, Liberation Sans, Arial, Helvetica, sans" font-size="10.00">ModelEntity</text>
</a>
</g>
</g>
<!-- ModelEntity&#45;&gt;DesignUnit -->
<g id="edge6" class="edge">
<title>ModelEntity&#45;&gt;DesignUnit</title>
<path fill="none" stroke="black" stroke-width="0.5" d="M136.21,-488616.31C150.25,-488614.78 164.27,-488610.18 173.5,-488599.45 247.06,-488514.01 253.88,-424236.72 254,-423092.9"/>
<polygon fill="black" stroke="black" stroke-width="0.5" points="255.75,-423091.91 254,-423086.91 252.25,-423091.91 255.75,-423091.91"/>
</g>
<!-- NamedEntityMixin -->
<g id="node8" class="node">
<title>NamedEntityMixin</title>
<g id="a_node8"><a xlink:title="A ``NamedEntityMixin`` is a mixin class for all VHDL entities that have identifiers.">
<polygon fill="white" stroke="#1e90ff" points="154.75,-780712.09 18.75,-780712.09 18.75,-65442.81 154.75,-65442.81 154.75,-780712.09"/>
<text text-anchor="middle" x="86.75" y="-780698.59" font-family="Vera Sans, DejaVu Sans, Liberation Sans, Arial, Helvetica, sans" font-size="10.00">NamedEntityMixin</text>
</a>
</g>
</g>
<!-- NamedEntityMixin&#45;&gt;DesignUnit -->
<g id="edge7" class="edge">
<title>NamedEntityMixin&#45;&gt;DesignUnit</title>
<path fill="none" stroke="black" stroke-width="0.5" d="M154.89,-423077.45C170.96,-423077.45 187.86,-423077.45 203.06,-423077.45"/>
<polygon fill="black" stroke="black" stroke-width="0.5" points="204.02,-423079.2 209.02,-423077.45 204.02,-423075.7 204.02,-423079.2"/>
</g>
<!-- DocumentedEntityMixin -->
<g id="node9" class="node">
<title>DocumentedEntityMixin</title>
<g id="a_node9"><a xlink:title="A ``DocumentedEntityMixin`` is a mixin class for all VHDL entities that can have an associated documentation.">
<polygon fill="white" stroke="#1e90ff" points="173.5,-715084.91 0,-715084.91 0,0 173.5,0 173.5,-715084.91"/>
<text text-anchor="middle" x="86.75" y="-715071.41" font-family="Vera Sans, DejaVu Sans, Liberation Sans, Arial, Helvetica, sans" font-size="10.00">DocumentedEntityMixin</text>
</a>
</g>
</g>
<!-- DocumentedEntityMixin&#45;&gt;DesignUnit -->
<g id="edge8" class="edge">
<title>DocumentedEntityMixin&#45;&gt;DesignUnit</title>
<path fill="none" stroke="black" stroke-width="0.5" d="M174,-391541.55C213.76,-407213.25 252.56,-422508.78 253.96,-423061.98"/>
<polygon fill="black" stroke="black" stroke-width="0.5" points="252.21,-423062.81 253.98,-423067.81 255.71,-423062.8 252.21,-423062.81"/>
</g>
</g>
</svg>
