<?xml version="1.0" encoding="UTF-8" standalone="no"?>
<!DOCTYPE svg PUBLIC "-//W3C//DTD SVG 1.1//EN"
 "http://www.w3.org/Graphics/SVG/1.1/DTD/svg11.dtd">
<!-- Generated by graphviz version 8.0.5 (20230430.1635)
 -->
<!-- Title: inheritance540893a295 Pages: 1 -->
<svg width="0pt" height="864pt"
 viewBox="0.00 0.00 0.35 864.00" xmlns="http://www.w3.org/2000/svg" xmlns:xlink="http://www.w3.org/1999/xlink">
<g id="graph0" class="graph" transform="scale(0.00058537 0.00058537) rotate(0) translate(4 1475985.25)">
<title>inheritance540893a295</title>
<!-- KeywordToken -->
<g id="node1" class="node">
<title>KeywordToken</title>
<g id="a_node1"><a xlink:href="../pyVHDLParser/pyVHDLParser.Token.Keywords.html#pyVHDLParser.Token.Keywords.KeywordToken" xlink:title="KeywordToken" target="_top">
<polygon fill="white" stroke="#1e90ff" points="450,-737999.87 344,-737999.87 344,-737981.37 450,-737981.37 450,-737999.87"/>
<text text-anchor="middle" x="397" y="-737986.37" font-family="Vera Sans, DejaVu Sans, Liberation Sans, Arial, Helvetica, sans" font-size="10.00">KeywordToken</text>
</a>
</g>
</g>
<!-- WhileKeyword -->
<g id="node5" class="node">
<title>WhileKeyword</title>
<g id="a_node5"><a xlink:href="../pyVHDLParser/pyVHDLParser.Token.Keywords.html#pyVHDLParser.Token.Keywords.WhileKeyword" xlink:title="WhileKeyword" target="_top">
<polygon fill="white" stroke="#1e90ff" points="592,-737999.87 486,-737999.87 486,-737981.37 592,-737981.37 592,-737999.87"/>
<text text-anchor="middle" x="539" y="-737986.37" font-family="Vera Sans, DejaVu Sans, Liberation Sans, Arial, Helvetica, sans" font-size="10.00">WhileKeyword</text>
</a>
</g>
</g>
<!-- KeywordToken&#45;&gt;WhileKeyword -->
<g id="edge4" class="edge">
<title>KeywordToken&#45;&gt;WhileKeyword</title>
<path fill="none" stroke="black" stroke-width="0.5" d="M450.13,-737990.62C459.88,-737990.62 470.12,-737990.62 480.03,-737990.62"/>
<polygon fill="black" stroke="black" stroke-width="0.5" points="480.83,-737992.37 485.83,-737990.62 480.83,-737988.87 480.83,-737992.37"/>
</g>
<!-- VHDLToken -->
<g id="node2" class="node">
<title>VHDLToken</title>
<g id="a_node2"><a xlink:href="../pyVHDLParser.Token.html#pyVHDLParser.Token.VHDLToken" xlink:title="Base&#45;class for all VHDL specific tokens." target="_top">
<polygon fill="white" stroke="#1e90ff" points="308,-1475981.25 224.5,-1475981.25 224.5,0 308,0 308,-1475981.25"/>
<text text-anchor="middle" x="266.25" y="-1475967.75" font-family="Vera Sans, DejaVu Sans, Liberation Sans, Arial, Helvetica, sans" font-size="10.00">VHDLToken</text>
</a>
</g>
</g>
<!-- VHDLToken&#45;&gt;KeywordToken -->
<g id="edge1" class="edge">
<title>VHDLToken&#45;&gt;KeywordToken</title>
<path fill="none" stroke="black" stroke-width="0.5" d="M308.34,-737990.62C317.69,-737990.62 327.8,-737990.62 337.71,-737990.62"/>
<polygon fill="black" stroke="black" stroke-width="0.5" points="338.52,-737992.37 343.52,-737990.62 338.52,-737988.87 338.52,-737992.37"/>
</g>
<!-- Token -->
<g id="node3" class="node">
<title>Token</title>
<g id="a_node3"><a xlink:href="../pyVHDLParser.Token.html#pyVHDLParser.Token.Token" xlink:title="Base&#45;class for all token classes." target="_top">
<polygon fill="white" stroke="#1e90ff" points="54,-1475975.83 0,-1475975.83 0,-5.42 54,-5.42 54,-1475975.83"/>
<text text-anchor="middle" x="27" y="-1475962.33" font-family="Vera Sans, DejaVu Sans, Liberation Sans, Arial, Helvetica, sans" font-size="10.00">Token</text>
</a>
</g>
</g>
<!-- ValuedToken -->
<g id="node4" class="node">
<title>ValuedToken</title>
<g id="a_node4"><a xlink:href="../pyVHDLParser.Token.html#pyVHDLParser.Token.ValuedToken" xlink:title="Base&#45;class for all *valued* token." target="_top">
<polygon fill="white" stroke="#1e90ff" points="188.5,-1475975.79 90,-1475975.79 90,-5.46 188.5,-5.46 188.5,-1475975.79"/>
<text text-anchor="middle" x="139.25" y="-1475962.29" font-family="Vera Sans, DejaVu Sans, Liberation Sans, Arial, Helvetica, sans" font-size="10.00">ValuedToken</text>
</a>
</g>
</g>
<!-- Token&#45;&gt;ValuedToken -->
<g id="edge3" class="edge">
<title>Token&#45;&gt;ValuedToken</title>
<path fill="none" stroke="black" stroke-width="0.5" d="M54.41,-737990.62C63.25,-737990.62 73.45,-737990.62 83.64,-737990.62"/>
<polygon fill="black" stroke="black" stroke-width="0.5" points="84.62,-737992.37 89.62,-737990.62 84.62,-737988.87 84.62,-737992.37"/>
</g>
<!-- ValuedToken&#45;&gt;VHDLToken -->
<g id="edge2" class="edge">
<title>ValuedToken&#45;&gt;VHDLToken</title>
<path fill="none" stroke="black" stroke-width="0.5" d="M188.94,-737990.62C198.59,-737990.62 208.7,-737990.62 218.29,-737990.62"/>
<polygon fill="black" stroke="black" stroke-width="0.5" points="219.19,-737992.37 224.19,-737990.62 219.19,-737988.87 219.19,-737992.37"/>
</g>
</g>
</svg>
