<?xml version="1.0" encoding="UTF-8" standalone="no"?>
<!DOCTYPE svg PUBLIC "-//W3C//DTD SVG 1.1//EN"
 "http://www.w3.org/Graphics/SVG/1.1/DTD/svg11.dtd">
<!-- Generated by graphviz version 8.0.5 (20230430.1635)
 -->
<!-- Title: inheritanceca535f21be Pages: 1 -->
<svg width="0pt" height="864pt"
 viewBox="0.00 0.00 0.42 864.00" xmlns="http://www.w3.org/2000/svg" xmlns:xlink="http://www.w3.org/1999/xlink">
<g id="graph0" class="graph" transform="scale(0.000636675 0.000636675) rotate(0) translate(4 1357046.09)">
<title>inheritanceca535f21be</title>
<!-- DesignUnit -->
<g id="node1" class="node">
<title>DesignUnit</title>
<g id="a_node1"><a xlink:title="A ``DesignUnit`` is a base&#45;class for all design units.">
<polygon fill="white" stroke="#1e90ff" points="300.5,-1357042.09 209.5,-1357042.09 209.5,0 300.5,0 300.5,-1357042.09"/>
<text text-anchor="middle" x="255" y="-1357028.59" font-family="Vera Sans, DejaVu Sans, Liberation Sans, Arial, Helvetica, sans" font-size="10.00">DesignUnit</text>
</a>
</g>
</g>
<!-- PrimaryUnit -->
<g id="node7" class="node">
<title>PrimaryUnit</title>
<g id="a_node7"><a xlink:title="A ``PrimaryUnit`` is a base&#45;class for all primary units.">
<polygon fill="white" stroke="#1e90ff" points="491.25,-678530.29 392.75,-678530.29 392.75,-678511.79 491.25,-678511.79 491.25,-678530.29"/>
<text text-anchor="middle" x="442" y="-678516.79" font-family="Vera Sans, DejaVu Sans, Liberation Sans, Arial, Helvetica, sans" font-size="10.00">PrimaryUnit</text>
</a>
</g>
</g>
<!-- DesignUnit&#45;&gt;PrimaryUnit -->
<g id="edge7" class="edge">
<title>DesignUnit&#45;&gt;PrimaryUnit</title>
<path fill="none" stroke="black" stroke-width="0.5" d="M300.78,-678521.04C326.64,-678521.04 359.35,-678521.04 386.67,-678521.04"/>
<polygon fill="black" stroke="black" stroke-width="0.5" points="387.41,-678522.79 392.41,-678521.04 387.41,-678519.29 387.41,-678522.79"/>
</g>
<!-- ModelEntity -->
<g id="node2" class="node">
<title>ModelEntity</title>
<g id="a_node2"><a xlink:title="``ModelEntity`` is the base&#45;class for all classes in the VHDL language model, except for mixin classes (see multiple">
<polygon fill="white" stroke="#1e90ff" points="136,-1068111.85 37.5,-1068111.85 37.5,-420000.23 136,-420000.23 136,-1068111.85"/>
<text text-anchor="middle" x="86.75" y="-1068098.35" font-family="Vera Sans, DejaVu Sans, Liberation Sans, Arial, Helvetica, sans" font-size="10.00">ModelEntity</text>
</a>
</g>
</g>
<!-- ModelEntity&#45;&gt;DesignUnit -->
<g id="edge1" class="edge">
<title>ModelEntity&#45;&gt;DesignUnit</title>
<path fill="none" stroke="black" stroke-width="0.5" d="M136.5,-724839.29C159.42,-715805.88 186.56,-705104.66 208.99,-696265.09"/>
<polygon fill="black" stroke="black" stroke-width="0.5" points="210.74,-696264.43 209,-696259.43 207.24,-696264.42 210.74,-696264.43"/>
</g>
<!-- NamedEntityMixin -->
<g id="node3" class="node">
<title>NamedEntityMixin</title>
<g id="a_node3"><a xlink:title="A ``NamedEntityMixin`` is a mixin class for all VHDL entities that have identifiers.">
<polygon fill="white" stroke="#1e90ff" points="154.75,-678530.29 18.75,-678530.29 18.75,-678511.79 154.75,-678511.79 154.75,-678530.29"/>
<text text-anchor="middle" x="86.75" y="-678516.79" font-family="Vera Sans, DejaVu Sans, Liberation Sans, Arial, Helvetica, sans" font-size="10.00">NamedEntityMixin</text>
</a>
</g>
</g>
<!-- NamedEntityMixin&#45;&gt;DesignUnit -->
<g id="edge2" class="edge">
<title>NamedEntityMixin&#45;&gt;DesignUnit</title>
<path fill="none" stroke="black" stroke-width="0.5" d="M154.89,-678521.04C170.96,-678521.04 187.86,-678521.04 203.06,-678521.04"/>
<polygon fill="black" stroke="black" stroke-width="0.5" points="204.02,-678522.79 209.02,-678521.04 204.02,-678519.29 204.02,-678522.79"/>
</g>
<!-- DocumentedEntityMixin -->
<g id="node4" class="node">
<title>DocumentedEntityMixin</title>
<g id="a_node4"><a xlink:title="A ``DocumentedEntityMixin`` is a mixin class for all VHDL entities that can have an associated documentation.">
<polygon fill="white" stroke="#1e90ff" points="173.5,-678493.29 0,-678493.29 0,-678474.79 173.5,-678474.79 173.5,-678493.29"/>
<text text-anchor="middle" x="86.75" y="-678479.79" font-family="Vera Sans, DejaVu Sans, Liberation Sans, Arial, Helvetica, sans" font-size="10.00">DocumentedEntityMixin</text>
</a>
</g>
</g>
<!-- DocumentedEntityMixin&#45;&gt;DesignUnit -->
<g id="edge3" class="edge">
<title>DocumentedEntityMixin&#45;&gt;DesignUnit</title>
<path fill="none" stroke="black" stroke-width="0.5" d="M131.82,-678493.79C145.21,-678496.76 159.96,-678500.03 173.5,-678503.04 183.2,-678505.2 193.55,-678507.51 203.5,-678509.73"/>
<polygon fill="black" stroke="black" stroke-width="0.5" points="204.03,-678511.65 209.29,-678511.03 204.8,-678508.23 204.03,-678511.65"/>
</g>
<!-- DesignUnitWithContextMixin -->
<g id="node5" class="node">
<title>DesignUnitWithContextMixin</title>
<polygon fill="white" stroke="#1e90ff" points="547.5,-678567.29 336.5,-678567.29 336.5,-678548.79 547.5,-678548.79 547.5,-678567.29"/>
<text text-anchor="middle" x="442" y="-678553.79" font-family="Vera Sans, DejaVu Sans, Liberation Sans, Arial, Helvetica, sans" font-size="10.00">DesignUnitWithContextMixin</text>
</g>
<!-- Package -->
<g id="node6" class="node">
<title>Package</title>
<g id="a_node6"><a xlink:href="../pyVHDLParser/pyVHDLParser.DocumentModel.DesignUnit.Package.html#pyVHDLParser.DocumentModel.DesignUnit.Package.Package" xlink:title="Package" target="_top">
<polygon fill="white" stroke="#1e90ff" points="652,-678552.04 583.5,-678552.04 583.5,-678526.04 652,-678526.04 652,-678552.04"/>
<text text-anchor="middle" x="617.75" y="-678538.54" font-family="Vera Sans, DejaVu Sans, Liberation Sans, Arial, Helvetica, sans" font-size="10.00">Package</text>
</a>
</g>
</g>
<!-- DesignUnitWithContextMixin&#45;&gt;Package -->
<g id="edge5" class="edge">
<title>DesignUnitWithContextMixin&#45;&gt;Package</title>
<path fill="none" stroke="black" stroke-width="0.5" d="M531.91,-678548.32C547.98,-678546.56 563.96,-678544.82 577.65,-678543.32"/>
<polygon fill="black" stroke="black" stroke-width="0.5" points="578.58,-678544.98 583.36,-678542.69 578.2,-678541.5 578.58,-678544.98"/>
</g>
<!-- Package&#45;&gt;Package -->
<g id="edge6" class="edge">
<title>Package&#45;&gt;Package</title>
<path fill="none" stroke="black" stroke-width="0.5" d="M587.7,-678552.43C579.24,-678561.35 589.26,-678570.04 617.75,-678570.04 640.9,-678570.04 651.85,-678564.31 650.61,-678557.37"/>
<polygon fill="black" stroke="black" stroke-width="0.5" points="651.79,-678555.91 647.8,-678552.43 648.75,-678557.64 651.79,-678555.91"/>
</g>
<!-- PrimaryUnit&#45;&gt;Package -->
<g id="edge4" class="edge">
<title>PrimaryUnit&#45;&gt;Package</title>
<path fill="none" stroke="black" stroke-width="0.5" d="M491.4,-678526.06C518.56,-678528.87 552.02,-678532.34 577.53,-678534.98"/>
<polygon fill="black" stroke="black" stroke-width="0.5" points="578.03,-678536.79 583.18,-678535.57 578.39,-678533.31 578.03,-678536.79"/>
</g>
</g>
</svg>
