<?xml version="1.0" encoding="UTF-8" standalone="no"?>
<!DOCTYPE svg PUBLIC "-//W3C//DTD SVG 1.1//EN"
 "http://www.w3.org/Graphics/SVG/1.1/DTD/svg11.dtd">
<!-- Generated by graphviz version 8.0.5 (20230430.1635)
 -->
<!-- Title: inheritance71e0cbd012 Pages: 1 -->
<svg width="0pt" height="864pt"
 viewBox="0.00 0.00 0.43 864.00" xmlns="http://www.w3.org/2000/svg" xmlns:xlink="http://www.w3.org/1999/xlink">
<g id="graph0" class="graph" transform="scale(0.000667038 0.000667038) rotate(0) translate(4 1295275.37)">
<title>inheritance71e0cbd012</title>
<!-- KeywordToken -->
<g id="node1" class="node">
<title>KeywordToken</title>
<g id="a_node1"><a xlink:href="../pyVHDLParser/pyVHDLParser.Token.Keywords.html#pyVHDLParser.Token.Keywords.KeywordToken" xlink:title="KeywordToken" target="_top">
<polygon fill="white" stroke="#1e90ff" points="450,-647644.93 344,-647644.93 344,-647626.43 450,-647626.43 450,-647644.93"/>
<text text-anchor="middle" x="397" y="-647631.43" font-family="Vera Sans, DejaVu Sans, Liberation Sans, Arial, Helvetica, sans" font-size="10.00">KeywordToken</text>
</a>
</g>
</g>
<!-- UnbufferedKeyword -->
<g id="node4" class="node">
<title>UnbufferedKeyword</title>
<g id="a_node4"><a xlink:href="../pyVHDLParser/pyVHDLParser.Token.Keywords.html#pyVHDLParser.Token.Keywords.UnbufferedKeyword" xlink:title="UnbufferedKeyword" target="_top">
<polygon fill="white" stroke="#1e90ff" points="629.5,-1022437.27 486,-1022437.27 486,-272834.1 629.5,-272834.1 629.5,-1022437.27"/>
<text text-anchor="middle" x="557.75" y="-1022423.77" font-family="Vera Sans, DejaVu Sans, Liberation Sans, Arial, Helvetica, sans" font-size="10.00">UnbufferedKeyword</text>
</a>
</g>
</g>
<!-- KeywordToken&#45;&gt;UnbufferedKeyword -->
<g id="edge2" class="edge">
<title>KeywordToken&#45;&gt;UnbufferedKeyword</title>
<path fill="none" stroke="black" stroke-width="0.5" d="M450.42,-647635.68C459.86,-647635.68 469.87,-647635.68 479.83,-647635.68"/>
<polygon fill="black" stroke="black" stroke-width="0.5" points="480.69,-647637.43 485.69,-647635.68 480.69,-647633.93 480.69,-647637.43"/>
</g>
<!-- VHDLToken -->
<g id="node2" class="node">
<title>VHDLToken</title>
<g id="a_node2"><a xlink:href="../pyVHDLParser.Token.html#pyVHDLParser.Token.VHDLToken" xlink:title="Base&#45;class for all VHDL specific tokens." target="_top">
<polygon fill="white" stroke="#1e90ff" points="308,-1295271.37 224.5,-1295271.37 224.5,0 308,0 308,-1295271.37"/>
<text text-anchor="middle" x="266.25" y="-1295257.87" font-family="Vera Sans, DejaVu Sans, Liberation Sans, Arial, Helvetica, sans" font-size="10.00">VHDLToken</text>
</a>
</g>
</g>
<!-- VHDLToken&#45;&gt;KeywordToken -->
<g id="edge1" class="edge">
<title>VHDLToken&#45;&gt;KeywordToken</title>
<path fill="none" stroke="black" stroke-width="0.5" d="M308.34,-647635.68C317.69,-647635.68 327.8,-647635.68 337.71,-647635.68"/>
<polygon fill="black" stroke="black" stroke-width="0.5" points="338.52,-647637.43 343.52,-647635.68 338.52,-647633.93 338.52,-647637.43"/>
</g>
<!-- Token -->
<g id="node3" class="node">
<title>Token</title>
<g id="a_node3"><a xlink:href="../pyVHDLParser.Token.html#pyVHDLParser.Token.Token" xlink:title="Base&#45;class for all token classes." target="_top">
<polygon fill="white" stroke="#1e90ff" points="54,-1022437.23 0,-1022437.23 0,-272834.14 54,-272834.14 54,-1022437.23"/>
<text text-anchor="middle" x="27" y="-1022423.73" font-family="Vera Sans, DejaVu Sans, Liberation Sans, Arial, Helvetica, sans" font-size="10.00">Token</text>
</a>
</g>
</g>
<!-- ValuedToken -->
<g id="node5" class="node">
<title>ValuedToken</title>
<g id="a_node5"><a xlink:href="../pyVHDLParser.Token.html#pyVHDLParser.Token.ValuedToken" xlink:title="Base&#45;class for all *valued* token." target="_top">
<polygon fill="white" stroke="#1e90ff" points="188.5,-647644.93 90,-647644.93 90,-647626.43 188.5,-647626.43 188.5,-647644.93"/>
<text text-anchor="middle" x="139.25" y="-647631.43" font-family="Vera Sans, DejaVu Sans, Liberation Sans, Arial, Helvetica, sans" font-size="10.00">ValuedToken</text>
</a>
</g>
</g>
<!-- Token&#45;&gt;ValuedToken -->
<g id="edge4" class="edge">
<title>Token&#45;&gt;ValuedToken</title>
<path fill="none" stroke="black" stroke-width="0.5" d="M54.41,-647635.68C63.25,-647635.68 73.45,-647635.68 83.64,-647635.68"/>
<polygon fill="black" stroke="black" stroke-width="0.5" points="84.62,-647637.43 89.62,-647635.68 84.62,-647633.93 84.62,-647637.43"/>
</g>
<!-- ValuedToken&#45;&gt;VHDLToken -->
<g id="edge3" class="edge">
<title>ValuedToken&#45;&gt;VHDLToken</title>
<path fill="none" stroke="black" stroke-width="0.5" d="M188.94,-647635.68C198.59,-647635.68 208.7,-647635.68 218.29,-647635.68"/>
<polygon fill="black" stroke="black" stroke-width="0.5" points="219.19,-647637.43 224.19,-647635.68 219.19,-647633.93 219.19,-647637.43"/>
</g>
</g>
</svg>
