<?xml version="1.0" encoding="UTF-8" standalone="no"?>
<!DOCTYPE svg PUBLIC "-//W3C//DTD SVG 1.1//EN"
 "http://www.w3.org/Graphics/SVG/1.1/DTD/svg11.dtd">
<!-- Generated by graphviz version 8.0.5 (20230430.1635)
 -->
<!-- Title: inheritance6ecc41ac36 Pages: 1 -->
<svg width="473pt" height="48pt"
 viewBox="0.00 0.00 473.00 48.25" xmlns="http://www.w3.org/2000/svg" xmlns:xlink="http://www.w3.org/1999/xlink">
<g id="graph0" class="graph" transform="scale(1 1) rotate(0) translate(4 44.25)">
<title>inheritance6ecc41ac36</title>
<!-- Block -->
<g id="node1" class="node">
<title>Block</title>
<g id="a_node1"><a xlink:href="../pyVHDLParser.Blocks.html#pyVHDLParser.Blocks.Block" xlink:title="Base&#45;class for all :term:`block` classes." target="_top">
<polygon fill="white" stroke="#1e90ff" points="54,-22.25 0,-22.25 0,-3.75 54,-3.75 54,-22.25"/>
<text text-anchor="middle" x="27" y="-8.75" font-family="Vera Sans, DejaVu Sans, Liberation Sans, Arial, Helvetica, sans" font-size="10.00">Block</text>
</a>
</g>
</g>
<!-- FinalBlock -->
<g id="node3" class="node">
<title>FinalBlock</title>
<g id="a_node3"><a xlink:href="../pyVHDLParser.Blocks.html#pyVHDLParser.Blocks.FinalBlock" xlink:title="Base&#45;class for blocks that are final in a fast&#45;forward scanning." target="_top">
<polygon fill="white" stroke="#1e90ff" points="181,-26 90,-26 90,0 181,0 181,-26"/>
<text text-anchor="middle" x="135.5" y="-12.5" font-family="Vera Sans, DejaVu Sans, Liberation Sans, Arial, Helvetica, sans" font-size="10.00">FinalBlock</text>
</a>
</g>
</g>
<!-- Block&#45;&gt;FinalBlock -->
<g id="edge4" class="edge">
<title>Block&#45;&gt;FinalBlock</title>
<path fill="none" stroke="black" stroke-width="0.5" d="M54.33,-13C63.29,-13 73.62,-13 83.84,-13"/>
<polygon fill="black" stroke="black" stroke-width="0.5" points="84.82,-14.75 89.82,-13 84.82,-11.25 84.82,-14.75"/>
</g>
<!-- EndBlock -->
<g id="node2" class="node">
<title>EndBlock</title>
<g id="a_node2"><a xlink:href="../pyVHDLParser.Blocks.Generic1.html#pyVHDLParser.Blocks.Generic1.EndBlock" xlink:title="EndBlock" target="_top">
<polygon fill="white" stroke="#1e90ff" points="293,-22.25 217,-22.25 217,-3.75 293,-3.75 293,-22.25"/>
<text text-anchor="middle" x="255" y="-8.75" font-family="Vera Sans, DejaVu Sans, Liberation Sans, Arial, Helvetica, sans" font-size="10.00">EndBlock</text>
</a>
</g>
</g>
<!-- EndGenerateBlock -->
<g id="node4" class="node">
<title>EndGenerateBlock</title>
<g id="a_node4"><a xlink:href="../pyVHDLParser/pyVHDLParser.Blocks.Generate.ForGenerate.html#pyVHDLParser.Blocks.Generate.ForGenerate.EndGenerateBlock" xlink:title="EndGenerateBlock" target="_top">
<polygon fill="white" stroke="#1e90ff" points="465,-22.25 329,-22.25 329,-3.75 465,-3.75 465,-22.25"/>
<text text-anchor="middle" x="397" y="-8.75" font-family="Vera Sans, DejaVu Sans, Liberation Sans, Arial, Helvetica, sans" font-size="10.00">EndGenerateBlock</text>
</a>
</g>
</g>
<!-- EndBlock&#45;&gt;EndGenerateBlock -->
<g id="edge2" class="edge">
<title>EndBlock&#45;&gt;EndGenerateBlock</title>
<path fill="none" stroke="black" stroke-width="0.5" d="M293.15,-13C302.38,-13 312.59,-13 322.89,-13"/>
<polygon fill="black" stroke="black" stroke-width="0.5" points="323.62,-14.75 328.62,-13 323.62,-11.25 323.62,-14.75"/>
</g>
<!-- FinalBlock&#45;&gt;EndBlock -->
<g id="edge1" class="edge">
<title>FinalBlock&#45;&gt;EndBlock</title>
<path fill="none" stroke="black" stroke-width="0.5" d="M181.26,-13C190.92,-13 201.13,-13 210.74,-13"/>
<polygon fill="black" stroke="black" stroke-width="0.5" points="211.63,-14.75 216.63,-13 211.63,-11.25 211.63,-14.75"/>
</g>
<!-- EndGenerateBlock&#45;&gt;EndGenerateBlock -->
<g id="edge3" class="edge">
<title>EndGenerateBlock&#45;&gt;EndGenerateBlock</title>
<path fill="none" stroke="black" stroke-width="0.5" d="M375.11,-22.5C364.47,-31.07 371.76,-40.25 397,-40.25 417.9,-40.25 426.5,-33.95 422.79,-26.92"/>
<polygon fill="black" stroke="black" stroke-width="0.5" points="423.51,-25.09 418.89,-22.5 420.88,-27.4 423.51,-25.09"/>
</g>
</g>
</svg>
