<?xml version="1.0" encoding="UTF-8" standalone="no"?>
<!DOCTYPE svg PUBLIC "-//W3C//DTD SVG 1.1//EN"
 "http://www.w3.org/Graphics/SVG/1.1/DTD/svg11.dtd">
<!-- Generated by graphviz version 8.0.5 (20230430.1635)
 -->
<!-- Title: inheritanceb16857057e Pages: 1 -->
<svg width="0pt" height="864pt"
 viewBox="0.00 0.00 0.34 864.00" xmlns="http://www.w3.org/2000/svg" xmlns:xlink="http://www.w3.org/1999/xlink">
<g id="graph0" class="graph" transform="scale(0.000577116 0.000577116) rotate(0) translate(4 1497096.54)">
<title>inheritanceb16857057e</title>
<!-- KeywordToken -->
<g id="node1" class="node">
<title>KeywordToken</title>
<g id="a_node1"><a xlink:href="../pyVHDLParser/pyVHDLParser.Token.Keywords.html#pyVHDLParser.Token.Keywords.KeywordToken" xlink:title="KeywordToken" target="_top">
<polygon fill="white" stroke="#1e90ff" points="450,-748555.52 344,-748555.52 344,-748537.02 450,-748537.02 450,-748555.52"/>
<text text-anchor="middle" x="397" y="-748542.02" font-family="Vera Sans, DejaVu Sans, Liberation Sans, Arial, Helvetica, sans" font-size="10.00">KeywordToken</text>
</a>
</g>
</g>
<!-- WithKeyword -->
<g id="node5" class="node">
<title>WithKeyword</title>
<g id="a_node5"><a xlink:href="../pyVHDLParser/pyVHDLParser.Token.Keywords.html#pyVHDLParser.Token.Keywords.WithKeyword" xlink:title="WithKeyword" target="_top">
<polygon fill="white" stroke="#1e90ff" points="584.5,-748555.52 486,-748555.52 486,-748537.02 584.5,-748537.02 584.5,-748555.52"/>
<text text-anchor="middle" x="535.25" y="-748542.02" font-family="Vera Sans, DejaVu Sans, Liberation Sans, Arial, Helvetica, sans" font-size="10.00">WithKeyword</text>
</a>
</g>
</g>
<!-- KeywordToken&#45;&gt;WithKeyword -->
<g id="edge4" class="edge">
<title>KeywordToken&#45;&gt;WithKeyword</title>
<path fill="none" stroke="black" stroke-width="0.5" d="M450.29,-748546.27C460.07,-748546.27 470.32,-748546.27 480.16,-748546.27"/>
<polygon fill="black" stroke="black" stroke-width="0.5" points="480.9,-748548.02 485.9,-748546.27 480.9,-748544.52 480.9,-748548.02"/>
</g>
<!-- VHDLToken -->
<g id="node2" class="node">
<title>VHDLToken</title>
<g id="a_node2"><a xlink:href="../pyVHDLParser.Token.html#pyVHDLParser.Token.VHDLToken" xlink:title="Base&#45;class for all VHDL specific tokens." target="_top">
<polygon fill="white" stroke="#1e90ff" points="308,-1396181.95 224.5,-1396181.95 224.5,-100910.59 308,-100910.59 308,-1396181.95"/>
<text text-anchor="middle" x="266.25" y="-1396168.45" font-family="Vera Sans, DejaVu Sans, Liberation Sans, Arial, Helvetica, sans" font-size="10.00">VHDLToken</text>
</a>
</g>
</g>
<!-- VHDLToken&#45;&gt;KeywordToken -->
<g id="edge1" class="edge">
<title>VHDLToken&#45;&gt;KeywordToken</title>
<path fill="none" stroke="black" stroke-width="0.5" d="M308.34,-748546.27C317.69,-748546.27 327.8,-748546.27 337.71,-748546.27"/>
<polygon fill="black" stroke="black" stroke-width="0.5" points="338.52,-748548.02 343.52,-748546.27 338.52,-748544.52 338.52,-748548.02"/>
</g>
<!-- Token -->
<g id="node3" class="node">
<title>Token</title>
<g id="a_node3"><a xlink:href="../pyVHDLParser.Token.html#pyVHDLParser.Token.Token" xlink:title="Base&#45;class for all token classes." target="_top">
<polygon fill="white" stroke="#1e90ff" points="54,-1497092.5 0,-1497092.5 0,-0.04 54,-0.04 54,-1497092.5"/>
<text text-anchor="middle" x="27" y="-1497079" font-family="Vera Sans, DejaVu Sans, Liberation Sans, Arial, Helvetica, sans" font-size="10.00">Token</text>
</a>
</g>
</g>
<!-- ValuedToken -->
<g id="node4" class="node">
<title>ValuedToken</title>
<g id="a_node4"><a xlink:href="../pyVHDLParser.Token.html#pyVHDLParser.Token.ValuedToken" xlink:title="Base&#45;class for all *valued* token." target="_top">
<polygon fill="white" stroke="#1e90ff" points="188.5,-1497092.54 90,-1497092.54 90,0 188.5,0 188.5,-1497092.54"/>
<text text-anchor="middle" x="139.25" y="-1497079.04" font-family="Vera Sans, DejaVu Sans, Liberation Sans, Arial, Helvetica, sans" font-size="10.00">ValuedToken</text>
</a>
</g>
</g>
<!-- Token&#45;&gt;ValuedToken -->
<g id="edge3" class="edge">
<title>Token&#45;&gt;ValuedToken</title>
<path fill="none" stroke="black" stroke-width="0.5" d="M54.41,-748546.27C63.25,-748546.27 73.45,-748546.27 83.64,-748546.27"/>
<polygon fill="black" stroke="black" stroke-width="0.5" points="84.62,-748548.02 89.62,-748546.27 84.62,-748544.52 84.62,-748548.02"/>
</g>
<!-- ValuedToken&#45;&gt;VHDLToken -->
<g id="edge2" class="edge">
<title>ValuedToken&#45;&gt;VHDLToken</title>
<path fill="none" stroke="black" stroke-width="0.5" d="M188.94,-748546.27C198.59,-748546.27 208.7,-748546.27 218.29,-748546.27"/>
<polygon fill="black" stroke="black" stroke-width="0.5" points="219.19,-748548.02 224.19,-748546.27 219.19,-748544.52 219.19,-748548.02"/>
</g>
</g>
</svg>
