<?xml version="1.0" encoding="UTF-8" standalone="no"?>
<!DOCTYPE svg PUBLIC "-//W3C//DTD SVG 1.1//EN"
 "http://www.w3.org/Graphics/SVG/1.1/DTD/svg11.dtd">
<!-- Generated by graphviz version 8.0.5 (20230430.1635)
 -->
<!-- Title: inheritance3de90f5f81 Pages: 1 -->
<svg width="3pt" height="864pt"
 viewBox="0.00 0.00 3.02 864.00" xmlns="http://www.w3.org/2000/svg" xmlns:xlink="http://www.w3.org/1999/xlink">
<g id="graph0" class="graph" transform="scale(0.00283751 0.00283751) rotate(0) translate(4 304488.13)">
<title>inheritance3de90f5f81</title>
<!-- BracketToken -->
<g id="node1" class="node">
<title>BracketToken</title>
<g id="a_node1"><a xlink:href="../pyVHDLParser/pyVHDLParser.Token.Keywords.html#pyVHDLParser.Token.Keywords.BracketToken" xlink:title="Base&#45;class for all bracket tokens: ``(``, ``)``, ``[``, ``]``, ``{``, ``}``, ``&lt;`` and ``&gt;``." target="_top">
<polygon fill="white" stroke="#1e90ff" points="629.5,-152251.31 523.5,-152251.31 523.5,-152232.81 629.5,-152232.81 629.5,-152251.31"/>
<text text-anchor="middle" x="576.5" y="-152237.81" font-family="Vera Sans, DejaVu Sans, Liberation Sans, Arial, Helvetica, sans" font-size="10.00">BracketToken</text>
</a>
</g>
</g>
<!-- SquareBracketToken -->
<g id="node4" class="node">
<title>SquareBracketToken</title>
<g id="a_node4"><a xlink:href="../pyVHDLParser/pyVHDLParser.Token.Keywords.html#pyVHDLParser.Token.Keywords.SquareBracketToken" xlink:title="Base&#45;class for all square bracket tokens: ``[`` and ``]``." target="_top">
<polygon fill="white" stroke="#1e90ff" points="816.5,-152251.31 665.5,-152251.31 665.5,-152232.81 816.5,-152232.81 816.5,-152251.31"/>
<text text-anchor="middle" x="741" y="-152237.81" font-family="Vera Sans, DejaVu Sans, Liberation Sans, Arial, Helvetica, sans" font-size="10.00">SquareBracketToken</text>
</a>
</g>
</g>
<!-- BracketToken&#45;&gt;SquareBracketToken -->
<g id="edge4" class="edge">
<title>BracketToken&#45;&gt;SquareBracketToken</title>
<path fill="none" stroke="black" stroke-width="0.5" d="M629.81,-152242.06C639.2,-152242.06 649.17,-152242.06 659.14,-152242.06"/>
<polygon fill="black" stroke="black" stroke-width="0.5" points="660.01,-152243.81 665.01,-152242.06 660.01,-152240.31 660.01,-152243.81"/>
</g>
<!-- SpecificVHDLToken -->
<g id="node2" class="node">
<title>SpecificVHDLToken</title>
<g id="a_node2"><a xlink:href="../pyVHDLParser/pyVHDLParser.Token.Keywords.html#pyVHDLParser.Token.Keywords.SpecificVHDLToken" xlink:title="Base&#45;class for all specific tokens." target="_top">
<polygon fill="white" stroke="#1e90ff" points="487.5,-304477.61 344,-304477.61 344,-6.52 487.5,-6.52 487.5,-304477.61"/>
<text text-anchor="middle" x="415.75" y="-304464.11" font-family="Vera Sans, DejaVu Sans, Liberation Sans, Arial, Helvetica, sans" font-size="10.00">SpecificVHDLToken</text>
</a>
</g>
</g>
<!-- SpecificVHDLToken&#45;&gt;BracketToken -->
<g id="edge1" class="edge">
<title>SpecificVHDLToken&#45;&gt;BracketToken</title>
<path fill="none" stroke="black" stroke-width="0.5" d="M487.77,-152242.06C497.61,-152242.06 507.63,-152242.06 517.21,-152242.06"/>
<polygon fill="black" stroke="black" stroke-width="0.5" points="518.11,-152243.81 523.11,-152242.06 518.11,-152240.31 518.11,-152243.81"/>
</g>
<!-- ClosingSquareBracketToken -->
<g id="node3" class="node">
<title>ClosingSquareBracketToken</title>
<g id="a_node3"><a xlink:href="../pyVHDLParser/pyVHDLParser.Token.Keywords.html#pyVHDLParser.Token.Keywords.ClosingSquareBracketToken" xlink:title="Token representing a closing square bracket: ``]``." target="_top">
<polygon fill="white" stroke="#1e90ff" points="1056,-304484.13 852.5,-304484.13 852.5,0 1056,0 1056,-304484.13"/>
<text text-anchor="middle" x="954.25" y="-304470.63" font-family="Vera Sans, DejaVu Sans, Liberation Sans, Arial, Helvetica, sans" font-size="10.00">ClosingSquareBracketToken</text>
</a>
</g>
</g>
<!-- SquareBracketToken&#45;&gt;ClosingSquareBracketToken -->
<g id="edge2" class="edge">
<title>SquareBracketToken&#45;&gt;ClosingSquareBracketToken</title>
<path fill="none" stroke="black" stroke-width="0.5" d="M816.78,-152242.06C826.4,-152242.06 836.4,-152242.06 846.41,-152242.06"/>
<polygon fill="black" stroke="black" stroke-width="0.5" points="847.31,-152243.81 852.31,-152242.06 847.31,-152240.31 847.31,-152243.81"/>
</g>
<!-- VHDLToken -->
<g id="node5" class="node">
<title>VHDLToken</title>
<g id="a_node5"><a xlink:href="../pyVHDLParser.Token.html#pyVHDLParser.Token.VHDLToken" xlink:title="Base&#45;class for all VHDL specific tokens." target="_top">
<polygon fill="white" stroke="#1e90ff" points="308,-152251.31 224.5,-152251.31 224.5,-152232.81 308,-152232.81 308,-152251.31"/>
<text text-anchor="middle" x="266.25" y="-152237.81" font-family="Vera Sans, DejaVu Sans, Liberation Sans, Arial, Helvetica, sans" font-size="10.00">VHDLToken</text>
</a>
</g>
</g>
<!-- VHDLToken&#45;&gt;SpecificVHDLToken -->
<g id="edge3" class="edge">
<title>VHDLToken&#45;&gt;SpecificVHDLToken</title>
<path fill="none" stroke="black" stroke-width="0.5" d="M308.34,-152242.06C317.53,-152242.06 327.57,-152242.06 337.69,-152242.06"/>
<polygon fill="black" stroke="black" stroke-width="0.5" points="338.66,-152243.81 343.66,-152242.06 338.66,-152240.31 338.66,-152243.81"/>
</g>
<!-- Token -->
<g id="node6" class="node">
<title>Token</title>
<g id="a_node6"><a xlink:href="../pyVHDLParser.Token.html#pyVHDLParser.Token.Token" xlink:title="Base&#45;class for all token classes." target="_top">
<polygon fill="white" stroke="#1e90ff" points="54,-152251.31 0,-152251.31 0,-152232.81 54,-152232.81 54,-152251.31"/>
<text text-anchor="middle" x="27" y="-152237.81" font-family="Vera Sans, DejaVu Sans, Liberation Sans, Arial, Helvetica, sans" font-size="10.00">Token</text>
</a>
</g>
</g>
<!-- ValuedToken -->
<g id="node7" class="node">
<title>ValuedToken</title>
<g id="a_node7"><a xlink:href="../pyVHDLParser.Token.html#pyVHDLParser.Token.ValuedToken" xlink:title="Base&#45;class for all *valued* token." target="_top">
<polygon fill="white" stroke="#1e90ff" points="188.5,-152263.25 90,-152263.25 90,-152220.88 188.5,-152220.88 188.5,-152263.25"/>
<text text-anchor="middle" x="139.25" y="-152249.75" font-family="Vera Sans, DejaVu Sans, Liberation Sans, Arial, Helvetica, sans" font-size="10.00">ValuedToken</text>
</a>
</g>
</g>
<!-- Token&#45;&gt;ValuedToken -->
<g id="edge6" class="edge">
<title>Token&#45;&gt;ValuedToken</title>
<path fill="none" stroke="black" stroke-width="0.5" d="M54.41,-152242.06C63.25,-152242.06 73.45,-152242.06 83.64,-152242.06"/>
<polygon fill="black" stroke="black" stroke-width="0.5" points="84.62,-152243.81 89.62,-152242.06 84.62,-152240.31 84.62,-152243.81"/>
</g>
<!-- ValuedToken&#45;&gt;VHDLToken -->
<g id="edge5" class="edge">
<title>ValuedToken&#45;&gt;VHDLToken</title>
<path fill="none" stroke="black" stroke-width="0.5" d="M188.94,-152242.06C198.59,-152242.06 208.7,-152242.06 218.29,-152242.06"/>
<polygon fill="black" stroke="black" stroke-width="0.5" points="219.19,-152243.81 224.19,-152242.06 219.19,-152240.31 219.19,-152243.81"/>
</g>
</g>
</svg>
