<?xml version="1.0" encoding="UTF-8" standalone="no"?>
<!DOCTYPE svg PUBLIC "-//W3C//DTD SVG 1.1//EN"
 "http://www.w3.org/Graphics/SVG/1.1/DTD/svg11.dtd">
<!-- Generated by graphviz version 8.0.5 (20230430.1635)
 -->
<!-- Title: inheritancee24c9a6a86 Pages: 1 -->
<svg width="0pt" height="864pt"
 viewBox="0.00 0.00 0.47 864.00" xmlns="http://www.w3.org/2000/svg" xmlns:xlink="http://www.w3.org/1999/xlink">
<g id="graph0" class="graph" transform="scale(0.000759881 0.000759881) rotate(0) translate(4 1137016.05)">
<title>inheritancee24c9a6a86</title>
<!-- KeywordToken -->
<g id="node1" class="node">
<title>KeywordToken</title>
<g id="a_node1"><a xlink:href="../pyVHDLParser/pyVHDLParser.Token.Keywords.html#pyVHDLParser.Token.Keywords.KeywordToken" xlink:title="KeywordToken" target="_top">
<polygon fill="white" stroke="#1e90ff" points="450,-568515.28 344,-568515.28 344,-568496.78 450,-568496.78 450,-568515.28"/>
<text text-anchor="middle" x="397" y="-568501.78" font-family="Vera Sans, DejaVu Sans, Liberation Sans, Arial, Helvetica, sans" font-size="10.00">KeywordToken</text>
</a>
</g>
</g>
<!-- ReleaseKeyword -->
<g id="node3" class="node">
<title>ReleaseKeyword</title>
<g id="a_node3"><a xlink:href="../pyVHDLParser/pyVHDLParser.Token.Keywords.html#pyVHDLParser.Token.Keywords.ReleaseKeyword" xlink:title="ReleaseKeyword" target="_top">
<polygon fill="white" stroke="#1e90ff" points="607,-1137012.05 486,-1137012.05 486,0 607,0 607,-1137012.05"/>
<text text-anchor="middle" x="546.5" y="-1136998.55" font-family="Vera Sans, DejaVu Sans, Liberation Sans, Arial, Helvetica, sans" font-size="10.00">ReleaseKeyword</text>
</a>
</g>
</g>
<!-- KeywordToken&#45;&gt;ReleaseKeyword -->
<g id="edge2" class="edge">
<title>KeywordToken&#45;&gt;ReleaseKeyword</title>
<path fill="none" stroke="black" stroke-width="0.5" d="M450.42,-568506.03C459.97,-568506.03 470.05,-568506.03 479.92,-568506.03"/>
<polygon fill="black" stroke="black" stroke-width="0.5" points="480.71,-568507.78 485.71,-568506.03 480.71,-568504.28 480.71,-568507.78"/>
</g>
<!-- VHDLToken -->
<g id="node2" class="node">
<title>VHDLToken</title>
<g id="a_node2"><a xlink:href="../pyVHDLParser.Token.html#pyVHDLParser.Token.VHDLToken" xlink:title="Base&#45;class for all VHDL specific tokens." target="_top">
<polygon fill="white" stroke="#1e90ff" points="308,-568515.28 224.5,-568515.28 224.5,-568496.78 308,-568496.78 308,-568515.28"/>
<text text-anchor="middle" x="266.25" y="-568501.78" font-family="Vera Sans, DejaVu Sans, Liberation Sans, Arial, Helvetica, sans" font-size="10.00">VHDLToken</text>
</a>
</g>
</g>
<!-- VHDLToken&#45;&gt;KeywordToken -->
<g id="edge1" class="edge">
<title>VHDLToken&#45;&gt;KeywordToken</title>
<path fill="none" stroke="black" stroke-width="0.5" d="M308.34,-568506.03C317.69,-568506.03 327.8,-568506.03 337.71,-568506.03"/>
<polygon fill="black" stroke="black" stroke-width="0.5" points="338.52,-568507.78 343.52,-568506.03 338.52,-568504.28 338.52,-568507.78"/>
</g>
<!-- Token -->
<g id="node4" class="node">
<title>Token</title>
<g id="a_node4"><a xlink:href="../pyVHDLParser.Token.html#pyVHDLParser.Token.Token" xlink:title="Base&#45;class for all token classes." target="_top">
<polygon fill="white" stroke="#1e90ff" points="54,-1137012.01 0,-1137012.01 0,-0.05 54,-0.05 54,-1137012.01"/>
<text text-anchor="middle" x="27" y="-1136998.51" font-family="Vera Sans, DejaVu Sans, Liberation Sans, Arial, Helvetica, sans" font-size="10.00">Token</text>
</a>
</g>
</g>
<!-- ValuedToken -->
<g id="node5" class="node">
<title>ValuedToken</title>
<g id="a_node5"><a xlink:href="../pyVHDLParser.Token.html#pyVHDLParser.Token.ValuedToken" xlink:title="Base&#45;class for all *valued* token." target="_top">
<polygon fill="white" stroke="#1e90ff" points="188.5,-568515.28 90,-568515.28 90,-568496.78 188.5,-568496.78 188.5,-568515.28"/>
<text text-anchor="middle" x="139.25" y="-568501.78" font-family="Vera Sans, DejaVu Sans, Liberation Sans, Arial, Helvetica, sans" font-size="10.00">ValuedToken</text>
</a>
</g>
</g>
<!-- Token&#45;&gt;ValuedToken -->
<g id="edge4" class="edge">
<title>Token&#45;&gt;ValuedToken</title>
<path fill="none" stroke="black" stroke-width="0.5" d="M54.41,-568506.03C63.25,-568506.03 73.45,-568506.03 83.64,-568506.03"/>
<polygon fill="black" stroke="black" stroke-width="0.5" points="84.62,-568507.78 89.62,-568506.03 84.62,-568504.28 84.62,-568507.78"/>
</g>
<!-- ValuedToken&#45;&gt;VHDLToken -->
<g id="edge3" class="edge">
<title>ValuedToken&#45;&gt;VHDLToken</title>
<path fill="none" stroke="black" stroke-width="0.5" d="M188.94,-568506.03C198.59,-568506.03 208.7,-568506.03 218.29,-568506.03"/>
<polygon fill="black" stroke="black" stroke-width="0.5" points="219.19,-568507.78 224.19,-568506.03 219.19,-568504.28 219.19,-568507.78"/>
</g>
</g>
</svg>
