<?xml version="1.0" encoding="UTF-8" standalone="no"?>
<!DOCTYPE svg PUBLIC "-//W3C//DTD SVG 1.1//EN"
 "http://www.w3.org/Graphics/SVG/1.1/DTD/svg11.dtd">
<!-- Generated by graphviz version 8.0.5 (20230430.1635)
 -->
<!-- Title: inheritance00ff4678be Pages: 1 -->
<svg width="2pt" height="864pt"
 viewBox="0.00 0.00 2.00 864.00" xmlns="http://www.w3.org/2000/svg" xmlns:xlink="http://www.w3.org/1999/xlink">
<g id="graph0" class="graph" transform="scale(0.00324429 0.00324429) rotate(0) translate(4 266310.18)">
<title>inheritance00ff4678be</title>
<!-- KeywordToken -->
<g id="node1" class="node">
<title>KeywordToken</title>
<g id="a_node1"><a xlink:href="../pyVHDLParser/pyVHDLParser.Token.Keywords.html#pyVHDLParser.Token.Keywords.KeywordToken" xlink:title="KeywordToken" target="_top">
<polygon fill="white" stroke="#1e90ff" points="450,-133162.34 344,-133162.34 344,-133143.84 450,-133143.84 450,-133162.34"/>
<text text-anchor="middle" x="397" y="-133148.84" font-family="Vera Sans, DejaVu Sans, Liberation Sans, Arial, Helvetica, sans" font-size="10.00">KeywordToken</text>
</a>
</g>
</g>
<!-- LibraryKeyword -->
<g id="node3" class="node">
<title>LibraryKeyword</title>
<g id="a_node3"><a xlink:href="../pyVHDLParser/pyVHDLParser.Token.Keywords.html#pyVHDLParser.Token.Keywords.LibraryKeyword" xlink:title="LibraryKeyword" target="_top">
<polygon fill="white" stroke="#1e90ff" points="607,-266306.13 486,-266306.13 486,-0.05 607,-0.05 607,-266306.13"/>
<text text-anchor="middle" x="546.5" y="-266292.63" font-family="Vera Sans, DejaVu Sans, Liberation Sans, Arial, Helvetica, sans" font-size="10.00">LibraryKeyword</text>
</a>
</g>
</g>
<!-- KeywordToken&#45;&gt;LibraryKeyword -->
<g id="edge2" class="edge">
<title>KeywordToken&#45;&gt;LibraryKeyword</title>
<path fill="none" stroke="black" stroke-width="0.5" d="M450.42,-133153.09C459.97,-133153.09 470.05,-133153.09 479.92,-133153.09"/>
<polygon fill="black" stroke="black" stroke-width="0.5" points="480.71,-133154.84 485.71,-133153.09 480.71,-133151.34 480.71,-133154.84"/>
</g>
<!-- VHDLToken -->
<g id="node2" class="node">
<title>VHDLToken</title>
<g id="a_node2"><a xlink:href="../pyVHDLParser.Token.html#pyVHDLParser.Token.VHDLToken" xlink:title="Base&#45;class for all VHDL specific tokens." target="_top">
<polygon fill="white" stroke="#1e90ff" points="308,-133162.34 224.5,-133162.34 224.5,-133143.84 308,-133143.84 308,-133162.34"/>
<text text-anchor="middle" x="266.25" y="-133148.84" font-family="Vera Sans, DejaVu Sans, Liberation Sans, Arial, Helvetica, sans" font-size="10.00">VHDLToken</text>
</a>
</g>
</g>
<!-- VHDLToken&#45;&gt;KeywordToken -->
<g id="edge1" class="edge">
<title>VHDLToken&#45;&gt;KeywordToken</title>
<path fill="none" stroke="black" stroke-width="0.5" d="M308.34,-133153.09C317.69,-133153.09 327.8,-133153.09 337.71,-133153.09"/>
<polygon fill="black" stroke="black" stroke-width="0.5" points="338.52,-133154.84 343.52,-133153.09 338.52,-133151.34 338.52,-133154.84"/>
</g>
<!-- Token -->
<g id="node4" class="node">
<title>Token</title>
<g id="a_node4"><a xlink:href="../pyVHDLParser.Token.html#pyVHDLParser.Token.Token" xlink:title="Base&#45;class for all token classes." target="_top">
<polygon fill="white" stroke="#1e90ff" points="54,-266306.18 0,-266306.18 0,0 54,0 54,-266306.18"/>
<text text-anchor="middle" x="27" y="-266292.68" font-family="Vera Sans, DejaVu Sans, Liberation Sans, Arial, Helvetica, sans" font-size="10.00">Token</text>
</a>
</g>
</g>
<!-- ValuedToken -->
<g id="node5" class="node">
<title>ValuedToken</title>
<g id="a_node5"><a xlink:href="../pyVHDLParser.Token.html#pyVHDLParser.Token.ValuedToken" xlink:title="Base&#45;class for all *valued* token." target="_top">
<polygon fill="white" stroke="#1e90ff" points="188.5,-133162.34 90,-133162.34 90,-133143.84 188.5,-133143.84 188.5,-133162.34"/>
<text text-anchor="middle" x="139.25" y="-133148.84" font-family="Vera Sans, DejaVu Sans, Liberation Sans, Arial, Helvetica, sans" font-size="10.00">ValuedToken</text>
</a>
</g>
</g>
<!-- Token&#45;&gt;ValuedToken -->
<g id="edge4" class="edge">
<title>Token&#45;&gt;ValuedToken</title>
<path fill="none" stroke="black" stroke-width="0.5" d="M54.41,-133153.09C63.25,-133153.09 73.45,-133153.09 83.64,-133153.09"/>
<polygon fill="black" stroke="black" stroke-width="0.5" points="84.62,-133154.84 89.62,-133153.09 84.62,-133151.34 84.62,-133154.84"/>
</g>
<!-- ValuedToken&#45;&gt;VHDLToken -->
<g id="edge3" class="edge">
<title>ValuedToken&#45;&gt;VHDLToken</title>
<path fill="none" stroke="black" stroke-width="0.5" d="M188.94,-133153.09C198.59,-133153.09 208.7,-133153.09 218.29,-133153.09"/>
<polygon fill="black" stroke="black" stroke-width="0.5" points="219.19,-133154.84 224.19,-133153.09 219.19,-133151.34 219.19,-133154.84"/>
</g>
</g>
</svg>
