<?xml version="1.0" encoding="UTF-8" standalone="no"?>
<!DOCTYPE svg PUBLIC "-//W3C//DTD SVG 1.1//EN"
 "http://www.w3.org/Graphics/SVG/1.1/DTD/svg11.dtd">
<!-- Generated by graphviz version 8.0.5 (20230430.1635)
 -->
<!-- Title: inheritancec7e9c3e4c5 Pages: 1 -->
<svg width="1pt" height="864pt"
 viewBox="0.00 0.00 0.56 864.00" xmlns="http://www.w3.org/2000/svg" xmlns:xlink="http://www.w3.org/1999/xlink">
<g id="graph0" class="graph" transform="scale(0.000939513 0.000939513) rotate(0) translate(4 919621.42)">
<title>inheritancec7e9c3e4c5</title>
<!-- AliasKeyword -->
<g id="node1" class="node">
<title>AliasKeyword</title>
<g id="a_node1"><a xlink:href="../pyVHDLParser/pyVHDLParser.Token.Keywords.html#pyVHDLParser.Token.Keywords.AliasKeyword" xlink:title="Reserved word &#39;alias&#39; to declare aliases." target="_top">
<polygon fill="white" stroke="#1e90ff" points="592,-459817.96 486,-459817.96 486,-459799.46 592,-459799.46 592,-459817.96"/>
<text text-anchor="middle" x="539" y="-459804.46" font-family="Vera Sans, DejaVu Sans, Liberation Sans, Arial, Helvetica, sans" font-size="10.00">AliasKeyword</text>
</a>
</g>
</g>
<!-- KeywordToken -->
<g id="node2" class="node">
<title>KeywordToken</title>
<g id="a_node2"><a xlink:href="../pyVHDLParser/pyVHDLParser.Token.Keywords.html#pyVHDLParser.Token.Keywords.KeywordToken" xlink:title="KeywordToken" target="_top">
<polygon fill="white" stroke="#1e90ff" points="450,-459817.96 344,-459817.96 344,-459799.46 450,-459799.46 450,-459817.96"/>
<text text-anchor="middle" x="397" y="-459804.46" font-family="Vera Sans, DejaVu Sans, Liberation Sans, Arial, Helvetica, sans" font-size="10.00">KeywordToken</text>
</a>
</g>
</g>
<!-- KeywordToken&#45;&gt;AliasKeyword -->
<g id="edge1" class="edge">
<title>KeywordToken&#45;&gt;AliasKeyword</title>
<path fill="none" stroke="black" stroke-width="0.5" d="M450.13,-459808.71C459.88,-459808.71 470.12,-459808.71 480.03,-459808.71"/>
<polygon fill="black" stroke="black" stroke-width="0.5" points="480.83,-459810.46 485.83,-459808.71 480.83,-459806.96 480.83,-459810.46"/>
</g>
<!-- VHDLToken -->
<g id="node3" class="node">
<title>VHDLToken</title>
<g id="a_node3"><a xlink:href="../pyVHDLParser.Token.html#pyVHDLParser.Token.VHDLToken" xlink:title="Base&#45;class for all VHDL specific tokens." target="_top">
<polygon fill="white" stroke="#1e90ff" points="308,-919617.42 224.5,-919617.42 224.5,0 308,0 308,-919617.42"/>
<text text-anchor="middle" x="266.25" y="-919603.92" font-family="Vera Sans, DejaVu Sans, Liberation Sans, Arial, Helvetica, sans" font-size="10.00">VHDLToken</text>
</a>
</g>
</g>
<!-- VHDLToken&#45;&gt;KeywordToken -->
<g id="edge2" class="edge">
<title>VHDLToken&#45;&gt;KeywordToken</title>
<path fill="none" stroke="black" stroke-width="0.5" d="M308.34,-459808.71C317.69,-459808.71 327.8,-459808.71 337.71,-459808.71"/>
<polygon fill="black" stroke="black" stroke-width="0.5" points="338.52,-459810.46 343.52,-459808.71 338.52,-459806.96 338.52,-459810.46"/>
</g>
<!-- Token -->
<g id="node4" class="node">
<title>Token</title>
<g id="a_node4"><a xlink:href="../pyVHDLParser.Token.html#pyVHDLParser.Token.Token" xlink:title="Base&#45;class for all token classes." target="_top">
<polygon fill="white" stroke="#1e90ff" points="54,-919617.37 0,-919617.37 0,-0.05 54,-0.05 54,-919617.37"/>
<text text-anchor="middle" x="27" y="-919603.87" font-family="Vera Sans, DejaVu Sans, Liberation Sans, Arial, Helvetica, sans" font-size="10.00">Token</text>
</a>
</g>
</g>
<!-- ValuedToken -->
<g id="node5" class="node">
<title>ValuedToken</title>
<g id="a_node5"><a xlink:href="../pyVHDLParser.Token.html#pyVHDLParser.Token.ValuedToken" xlink:title="Base&#45;class for all *valued* token." target="_top">
<polygon fill="white" stroke="#1e90ff" points="188.5,-459817.96 90,-459817.96 90,-459799.46 188.5,-459799.46 188.5,-459817.96"/>
<text text-anchor="middle" x="139.25" y="-459804.46" font-family="Vera Sans, DejaVu Sans, Liberation Sans, Arial, Helvetica, sans" font-size="10.00">ValuedToken</text>
</a>
</g>
</g>
<!-- Token&#45;&gt;ValuedToken -->
<g id="edge4" class="edge">
<title>Token&#45;&gt;ValuedToken</title>
<path fill="none" stroke="black" stroke-width="0.5" d="M54.41,-459808.71C63.25,-459808.71 73.45,-459808.71 83.64,-459808.71"/>
<polygon fill="black" stroke="black" stroke-width="0.5" points="84.62,-459810.46 89.62,-459808.71 84.62,-459806.96 84.62,-459810.46"/>
</g>
<!-- ValuedToken&#45;&gt;VHDLToken -->
<g id="edge3" class="edge">
<title>ValuedToken&#45;&gt;VHDLToken</title>
<path fill="none" stroke="black" stroke-width="0.5" d="M188.94,-459808.71C198.59,-459808.71 208.7,-459808.71 218.29,-459808.71"/>
<polygon fill="black" stroke="black" stroke-width="0.5" points="219.19,-459810.46 224.19,-459808.71 219.19,-459806.96 219.19,-459810.46"/>
</g>
</g>
</svg>
