<?xml version="1.0" encoding="UTF-8" standalone="no"?>
<!DOCTYPE svg PUBLIC "-//W3C//DTD SVG 1.1//EN"
 "http://www.w3.org/Graphics/SVG/1.1/DTD/svg11.dtd">
<!-- Generated by graphviz version 8.0.5 (20230430.1635)
 -->
<!-- Title: inheritancebca963e155 Pages: 1 -->
<svg width="189pt" height="45pt"
 viewBox="0.00 0.00 189.00 44.50" xmlns="http://www.w3.org/2000/svg" xmlns:xlink="http://www.w3.org/1999/xlink">
<g id="graph0" class="graph" transform="scale(1 1) rotate(0) translate(4 40.5)">
<title>inheritancebca963e155</title>
<!-- Block -->
<g id="node1" class="node">
<title>Block</title>
<g id="a_node1"><a xlink:href="../pyVHDLParser.Blocks.html#pyVHDLParser.Blocks.Block" xlink:title="Base&#45;class for all :term:`block` classes." target="_top">
<polygon fill="white" stroke="#1e90ff" points="54,-18.5 0,-18.5 0,0 54,0 54,-18.5"/>
<text text-anchor="middle" x="27" y="-5" font-family="Vera Sans, DejaVu Sans, Liberation Sans, Arial, Helvetica, sans" font-size="10.00">Block</text>
</a>
</g>
</g>
<!-- CloseBlock -->
<g id="node2" class="node">
<title>CloseBlock</title>
<g id="a_node2"><a xlink:href="../pyVHDLParser/pyVHDLParser.Blocks.List.ParameterList.html#pyVHDLParser.Blocks.List.ParameterList.CloseBlock" xlink:title="CloseBlock" target="_top">
<polygon fill="white" stroke="#1e90ff" points="181,-18.5 90,-18.5 90,0 181,0 181,-18.5"/>
<text text-anchor="middle" x="135.5" y="-5" font-family="Vera Sans, DejaVu Sans, Liberation Sans, Arial, Helvetica, sans" font-size="10.00">CloseBlock</text>
</a>
</g>
</g>
<!-- Block&#45;&gt;CloseBlock -->
<g id="edge1" class="edge">
<title>Block&#45;&gt;CloseBlock</title>
<path fill="none" stroke="black" stroke-width="0.5" d="M54.33,-9.25C63.29,-9.25 73.62,-9.25 83.84,-9.25"/>
<polygon fill="black" stroke="black" stroke-width="0.5" points="84.82,-11 89.82,-9.25 84.82,-7.5 84.82,-11"/>
</g>
<!-- CloseBlock&#45;&gt;CloseBlock -->
<g id="edge2" class="edge">
<title>CloseBlock&#45;&gt;CloseBlock</title>
<path fill="none" stroke="black" stroke-width="0.5" d="M118.78,-18.75C110.64,-27.32 116.22,-36.5 135.5,-36.5 151.17,-36.5 157.79,-30.44 155.35,-23.57"/>
<polygon fill="black" stroke="black" stroke-width="0.5" points="156.41,-21.99 152.22,-18.75 153.48,-23.89 156.41,-21.99"/>
</g>
</g>
</svg>
