<?xml version="1.0" encoding="UTF-8" standalone="no"?>
<!DOCTYPE svg PUBLIC "-//W3C//DTD SVG 1.1//EN"
 "http://www.w3.org/Graphics/SVG/1.1/DTD/svg11.dtd">
<!-- Generated by graphviz version 8.0.5 (20230430.1635)
 -->
<!-- Title: inheritancebd4cc23e48 Pages: 1 -->
<svg width="2pt" height="864pt"
 viewBox="0.00 0.00 2.28 864.00" xmlns="http://www.w3.org/2000/svg" xmlns:xlink="http://www.w3.org/1999/xlink">
<g id="graph0" class="graph" transform="scale(0.00370058 0.00370058) rotate(0) translate(4 233473.05)">
<title>inheritancebd4cc23e48</title>
<!-- GuardedKeyword -->
<g id="node1" class="node">
<title>GuardedKeyword</title>
<g id="a_node1"><a xlink:href="../pyVHDLParser/pyVHDLParser.Token.Keywords.html#pyVHDLParser.Token.Keywords.GuardedKeyword" xlink:title="GuardedKeyword" target="_top">
<polygon fill="white" stroke="#1e90ff" points="607,-116743.78 486,-116743.78 486,-116725.28 607,-116725.28 607,-116743.78"/>
<text text-anchor="middle" x="546.5" y="-116730.28" font-family="Vera Sans, DejaVu Sans, Liberation Sans, Arial, Helvetica, sans" font-size="10.00">GuardedKeyword</text>
</a>
</g>
</g>
<!-- KeywordToken -->
<g id="node2" class="node">
<title>KeywordToken</title>
<g id="a_node2"><a xlink:href="../pyVHDLParser/pyVHDLParser.Token.Keywords.html#pyVHDLParser.Token.Keywords.KeywordToken" xlink:title="KeywordToken" target="_top">
<polygon fill="white" stroke="#1e90ff" points="450,-116743.78 344,-116743.78 344,-116725.28 450,-116725.28 450,-116743.78"/>
<text text-anchor="middle" x="397" y="-116730.28" font-family="Vera Sans, DejaVu Sans, Liberation Sans, Arial, Helvetica, sans" font-size="10.00">KeywordToken</text>
</a>
</g>
</g>
<!-- KeywordToken&#45;&gt;GuardedKeyword -->
<g id="edge1" class="edge">
<title>KeywordToken&#45;&gt;GuardedKeyword</title>
<path fill="none" stroke="black" stroke-width="0.5" d="M450.42,-116734.53C459.97,-116734.53 470.05,-116734.53 479.92,-116734.53"/>
<polygon fill="black" stroke="black" stroke-width="0.5" points="480.71,-116736.28 485.71,-116734.53 480.71,-116732.78 480.71,-116736.28"/>
</g>
<!-- VHDLToken -->
<g id="node3" class="node">
<title>VHDLToken</title>
<g id="a_node3"><a xlink:href="../pyVHDLParser.Token.html#pyVHDLParser.Token.VHDLToken" xlink:title="Base&#45;class for all VHDL specific tokens." target="_top">
<polygon fill="white" stroke="#1e90ff" points="308,-233469.05 224.5,-233469.05 224.5,0 308,0 308,-233469.05"/>
<text text-anchor="middle" x="266.25" y="-233455.55" font-family="Vera Sans, DejaVu Sans, Liberation Sans, Arial, Helvetica, sans" font-size="10.00">VHDLToken</text>
</a>
</g>
</g>
<!-- VHDLToken&#45;&gt;KeywordToken -->
<g id="edge2" class="edge">
<title>VHDLToken&#45;&gt;KeywordToken</title>
<path fill="none" stroke="black" stroke-width="0.5" d="M308.34,-116734.53C317.69,-116734.53 327.8,-116734.53 337.71,-116734.53"/>
<polygon fill="black" stroke="black" stroke-width="0.5" points="338.52,-116736.28 343.52,-116734.53 338.52,-116732.78 338.52,-116736.28"/>
</g>
<!-- Token -->
<g id="node4" class="node">
<title>Token</title>
<g id="a_node4"><a xlink:href="../pyVHDLParser.Token.html#pyVHDLParser.Token.Token" xlink:title="Base&#45;class for all token classes." target="_top">
<polygon fill="white" stroke="#1e90ff" points="54,-233469.01 0,-233469.01 0,-0.05 54,-0.05 54,-233469.01"/>
<text text-anchor="middle" x="27" y="-233455.51" font-family="Vera Sans, DejaVu Sans, Liberation Sans, Arial, Helvetica, sans" font-size="10.00">Token</text>
</a>
</g>
</g>
<!-- ValuedToken -->
<g id="node5" class="node">
<title>ValuedToken</title>
<g id="a_node5"><a xlink:href="../pyVHDLParser.Token.html#pyVHDLParser.Token.ValuedToken" xlink:title="Base&#45;class for all *valued* token." target="_top">
<polygon fill="white" stroke="#1e90ff" points="188.5,-116743.78 90,-116743.78 90,-116725.28 188.5,-116725.28 188.5,-116743.78"/>
<text text-anchor="middle" x="139.25" y="-116730.28" font-family="Vera Sans, DejaVu Sans, Liberation Sans, Arial, Helvetica, sans" font-size="10.00">ValuedToken</text>
</a>
</g>
</g>
<!-- Token&#45;&gt;ValuedToken -->
<g id="edge4" class="edge">
<title>Token&#45;&gt;ValuedToken</title>
<path fill="none" stroke="black" stroke-width="0.5" d="M54.41,-116734.53C63.25,-116734.53 73.45,-116734.53 83.64,-116734.53"/>
<polygon fill="black" stroke="black" stroke-width="0.5" points="84.62,-116736.28 89.62,-116734.53 84.62,-116732.78 84.62,-116736.28"/>
</g>
<!-- ValuedToken&#45;&gt;VHDLToken -->
<g id="edge3" class="edge">
<title>ValuedToken&#45;&gt;VHDLToken</title>
<path fill="none" stroke="black" stroke-width="0.5" d="M188.94,-116734.53C198.59,-116734.53 208.7,-116734.53 218.29,-116734.53"/>
<polygon fill="black" stroke="black" stroke-width="0.5" points="219.19,-116736.28 224.19,-116734.53 219.19,-116732.78 219.19,-116736.28"/>
</g>
</g>
</svg>
