<?xml version="1.0" encoding="UTF-8" standalone="no"?>
<!DOCTYPE svg PUBLIC "-//W3C//DTD SVG 1.1//EN"
 "http://www.w3.org/Graphics/SVG/1.1/DTD/svg11.dtd">
<!-- Generated by graphviz version 8.0.5 (20230430.1635)
 -->
<!-- Title: inheritanced7988a1934 Pages: 1 -->
<svg width="1pt" height="864pt"
 viewBox="0.00 0.00 0.77 864.00" xmlns="http://www.w3.org/2000/svg" xmlns:xlink="http://www.w3.org/1999/xlink">
<g id="graph0" class="graph" transform="scale(0.0007213 0.0007213) rotate(0) translate(4 1197832.75)">
<title>inheritanced7988a1934</title>
<!-- MatchingLessThanOperator -->
<g id="node1" class="node">
<title>MatchingLessThanOperator</title>
<g id="a_node1"><a xlink:href="../pyVHDLParser/pyVHDLParser.Token.Keywords.html#pyVHDLParser.Token.Keywords.MatchingLessThanOperator" xlink:title="MatchingLessThanOperator" target="_top">
<polygon fill="white" stroke="#1e90ff" points="1056,-1197828.75 860,-1197828.75 860,0 1056,0 1056,-1197828.75"/>
<text text-anchor="middle" x="958" y="-1197815.25" font-family="Vera Sans, DejaVu Sans, Liberation Sans, Arial, Helvetica, sans" font-size="10.00">MatchingLessThanOperator</text>
</a>
</g>
</g>
<!-- RelationalOperator -->
<g id="node2" class="node">
<title>RelationalOperator</title>
<g id="a_node2"><a xlink:href="../pyVHDLParser/pyVHDLParser.Token.Keywords.html#pyVHDLParser.Token.Keywords.RelationalOperator" xlink:title="Base&#45;class for all relational operator tokens." target="_top">
<polygon fill="white" stroke="#1e90ff" points="824,-1040606.58 673,-1040606.58 673,-157222.17 824,-157222.17 824,-1040606.58"/>
<text text-anchor="middle" x="748.5" y="-1040593.08" font-family="Vera Sans, DejaVu Sans, Liberation Sans, Arial, Helvetica, sans" font-size="10.00">RelationalOperator</text>
</a>
</g>
</g>
<!-- RelationalOperator&#45;&gt;MatchingLessThanOperator -->
<g id="edge1" class="edge">
<title>RelationalOperator&#45;&gt;MatchingLessThanOperator</title>
<path fill="none" stroke="black" stroke-width="0.5" d="M824.41,-598914.37C834.02,-598914.37 843.98,-598914.37 853.94,-598914.37"/>
<polygon fill="black" stroke="black" stroke-width="0.5" points="854.8,-598916.12 859.8,-598914.37 854.8,-598912.62 854.8,-598916.12"/>
</g>
<!-- OperatorToken -->
<g id="node3" class="node">
<title>OperatorToken</title>
<g id="a_node3"><a xlink:href="../pyVHDLParser/pyVHDLParser.Token.Keywords.html#pyVHDLParser.Token.Keywords.OperatorToken" xlink:title="Base&#45;class for all operator tokens." target="_top">
<polygon fill="white" stroke="#1e90ff" points="637,-1040599.88 523.5,-1040599.88 523.5,-157228.87 637,-157228.87 637,-1040599.88"/>
<text text-anchor="middle" x="580.25" y="-1040586.38" font-family="Vera Sans, DejaVu Sans, Liberation Sans, Arial, Helvetica, sans" font-size="10.00">OperatorToken</text>
</a>
</g>
</g>
<!-- OperatorToken&#45;&gt;RelationalOperator -->
<g id="edge3" class="edge">
<title>OperatorToken&#45;&gt;RelationalOperator</title>
<path fill="none" stroke="black" stroke-width="0.5" d="M637.07,-598914.37C646.61,-598914.37 656.69,-598914.37 666.73,-598914.37"/>
<polygon fill="black" stroke="black" stroke-width="0.5" points="667.63,-598916.12 672.63,-598914.37 667.63,-598912.62 667.63,-598916.12"/>
</g>
<!-- SpecificVHDLToken -->
<g id="node4" class="node">
<title>SpecificVHDLToken</title>
<g id="a_node4"><a xlink:href="../pyVHDLParser/pyVHDLParser.Token.Keywords.html#pyVHDLParser.Token.Keywords.SpecificVHDLToken" xlink:title="Base&#45;class for all specific tokens." target="_top">
<polygon fill="white" stroke="#1e90ff" points="487.5,-598923.62 344,-598923.62 344,-598905.12 487.5,-598905.12 487.5,-598923.62"/>
<text text-anchor="middle" x="415.75" y="-598910.12" font-family="Vera Sans, DejaVu Sans, Liberation Sans, Arial, Helvetica, sans" font-size="10.00">SpecificVHDLToken</text>
</a>
</g>
</g>
<!-- SpecificVHDLToken&#45;&gt;OperatorToken -->
<g id="edge2" class="edge">
<title>SpecificVHDLToken&#45;&gt;OperatorToken</title>
<path fill="none" stroke="black" stroke-width="0.5" d="M487.55,-598914.37C497.56,-598914.37 507.79,-598914.37 517.6,-598914.37"/>
<polygon fill="black" stroke="black" stroke-width="0.5" points="518.33,-598916.12 523.33,-598914.37 518.33,-598912.62 518.33,-598916.12"/>
</g>
<!-- VHDLToken -->
<g id="node5" class="node">
<title>VHDLToken</title>
<g id="a_node5"><a xlink:href="../pyVHDLParser.Token.html#pyVHDLParser.Token.VHDLToken" xlink:title="Base&#45;class for all VHDL specific tokens." target="_top">
<polygon fill="white" stroke="#1e90ff" points="308,-598923.62 224.5,-598923.62 224.5,-598905.12 308,-598905.12 308,-598923.62"/>
<text text-anchor="middle" x="266.25" y="-598910.12" font-family="Vera Sans, DejaVu Sans, Liberation Sans, Arial, Helvetica, sans" font-size="10.00">VHDLToken</text>
</a>
</g>
</g>
<!-- VHDLToken&#45;&gt;SpecificVHDLToken -->
<g id="edge4" class="edge">
<title>VHDLToken&#45;&gt;SpecificVHDLToken</title>
<path fill="none" stroke="black" stroke-width="0.5" d="M308.34,-598914.37C317.53,-598914.37 327.57,-598914.37 337.69,-598914.37"/>
<polygon fill="black" stroke="black" stroke-width="0.5" points="338.66,-598916.12 343.66,-598914.37 338.66,-598912.62 338.66,-598916.12"/>
</g>
<!-- Token -->
<g id="node6" class="node">
<title>Token</title>
<g id="a_node6"><a xlink:href="../pyVHDLParser.Token.html#pyVHDLParser.Token.Token" xlink:title="Base&#45;class for all token classes." target="_top">
<polygon fill="white" stroke="#1e90ff" points="54,-598923.62 0,-598923.62 0,-598905.12 54,-598905.12 54,-598923.62"/>
<text text-anchor="middle" x="27" y="-598910.12" font-family="Vera Sans, DejaVu Sans, Liberation Sans, Arial, Helvetica, sans" font-size="10.00">Token</text>
</a>
</g>
</g>
<!-- ValuedToken -->
<g id="node7" class="node">
<title>ValuedToken</title>
<g id="a_node7"><a xlink:href="../pyVHDLParser.Token.html#pyVHDLParser.Token.ValuedToken" xlink:title="Base&#45;class for all *valued* token." target="_top">
<polygon fill="white" stroke="#1e90ff" points="188.5,-598935.57 90,-598935.57 90,-598893.18 188.5,-598893.18 188.5,-598935.57"/>
<text text-anchor="middle" x="139.25" y="-598922.07" font-family="Vera Sans, DejaVu Sans, Liberation Sans, Arial, Helvetica, sans" font-size="10.00">ValuedToken</text>
</a>
</g>
</g>
<!-- Token&#45;&gt;ValuedToken -->
<g id="edge6" class="edge">
<title>Token&#45;&gt;ValuedToken</title>
<path fill="none" stroke="black" stroke-width="0.5" d="M54.41,-598914.37C63.25,-598914.37 73.45,-598914.37 83.64,-598914.37"/>
<polygon fill="black" stroke="black" stroke-width="0.5" points="84.62,-598916.12 89.62,-598914.37 84.62,-598912.62 84.62,-598916.12"/>
</g>
<!-- ValuedToken&#45;&gt;VHDLToken -->
<g id="edge5" class="edge">
<title>ValuedToken&#45;&gt;VHDLToken</title>
<path fill="none" stroke="black" stroke-width="0.5" d="M188.94,-598914.37C198.59,-598914.37 208.7,-598914.37 218.29,-598914.37"/>
<polygon fill="black" stroke="black" stroke-width="0.5" points="219.19,-598916.12 224.19,-598914.37 219.19,-598912.62 219.19,-598916.12"/>
</g>
</g>
</svg>
