<?xml version="1.0" encoding="UTF-8" standalone="no"?>
<!DOCTYPE svg PUBLIC "-//W3C//DTD SVG 1.1//EN"
 "http://www.w3.org/Graphics/SVG/1.1/DTD/svg11.dtd">
<!-- Generated by graphviz version 8.0.5 (20230430.1635)
 -->
<!-- Title: inheritanced267ef165d Pages: 1 -->
<svg width="1pt" height="864pt"
 viewBox="0.00 0.00 0.72 864.00" xmlns="http://www.w3.org/2000/svg" xmlns:xlink="http://www.w3.org/1999/xlink">
<g id="graph0" class="graph" transform="scale(0.000979311 0.000979311) rotate(0) translate(4 882249.11)">
<title>inheritanced267ef165d</title>
<!-- KeywordToken -->
<g id="node1" class="node">
<title>KeywordToken</title>
<g id="a_node1"><a xlink:href="../pyVHDLParser/pyVHDLParser.Token.Keywords.html#pyVHDLParser.Token.Keywords.KeywordToken" xlink:title="KeywordToken" target="_top">
<polygon fill="white" stroke="#1e90ff" points="450,-441131.8 344,-441131.8 344,-441113.3 450,-441113.3 450,-441131.8"/>
<text text-anchor="middle" x="397" y="-441118.3" font-family="Vera Sans, DejaVu Sans, Liberation Sans, Arial, Helvetica, sans" font-size="10.00">KeywordToken</text>
</a>
</g>
</g>
<!-- Operator -->
<g id="node4" class="node">
<title>Operator</title>
<g id="a_node4"><a xlink:href="../pyVHDLParser/pyVHDLParser.Token.Keywords.html#pyVHDLParser.Token.Keywords.Operator" xlink:title="Operator" target="_top">
<polygon fill="white" stroke="#1e90ff" points="562,-441131.8 486,-441131.8 486,-441113.3 562,-441113.3 562,-441131.8"/>
<text text-anchor="middle" x="524" y="-441118.3" font-family="Vera Sans, DejaVu Sans, Liberation Sans, Arial, Helvetica, sans" font-size="10.00">Operator</text>
</a>
</g>
</g>
<!-- KeywordToken&#45;&gt;Operator -->
<g id="edge3" class="edge">
<title>KeywordToken&#45;&gt;Operator</title>
<path fill="none" stroke="black" stroke-width="0.5" d="M450.29,-441122.55C460.15,-441122.55 470.36,-441122.55 479.9,-441122.55"/>
<polygon fill="black" stroke="black" stroke-width="0.5" points="480.74,-441124.3 485.74,-441122.55 480.74,-441120.8 480.74,-441124.3"/>
</g>
<!-- VHDLToken -->
<g id="node2" class="node">
<title>VHDLToken</title>
<g id="a_node2"><a xlink:href="../pyVHDLParser.Token.html#pyVHDLParser.Token.VHDLToken" xlink:title="Base&#45;class for all VHDL specific tokens." target="_top">
<polygon fill="white" stroke="#1e90ff" points="308,-441131.8 224.5,-441131.8 224.5,-441113.3 308,-441113.3 308,-441131.8"/>
<text text-anchor="middle" x="266.25" y="-441118.3" font-family="Vera Sans, DejaVu Sans, Liberation Sans, Arial, Helvetica, sans" font-size="10.00">VHDLToken</text>
</a>
</g>
</g>
<!-- VHDLToken&#45;&gt;KeywordToken -->
<g id="edge1" class="edge">
<title>VHDLToken&#45;&gt;KeywordToken</title>
<path fill="none" stroke="black" stroke-width="0.5" d="M308.34,-441122.55C317.69,-441122.55 327.8,-441122.55 337.71,-441122.55"/>
<polygon fill="black" stroke="black" stroke-width="0.5" points="338.52,-441124.3 343.52,-441122.55 338.52,-441120.8 338.52,-441124.3"/>
</g>
<!-- LogicalOperator -->
<g id="node3" class="node">
<title>LogicalOperator</title>
<g id="a_node3"><a xlink:href="../pyVHDLParser/pyVHDLParser.Token.Keywords.html#pyVHDLParser.Token.Keywords.LogicalOperator" xlink:title="LogicalOperator" target="_top">
<polygon fill="white" stroke="#1e90ff" points="726.5,-882245.11 598,-882245.11 598,0 726.5,0 726.5,-882245.11"/>
<text text-anchor="middle" x="662.25" y="-882231.61" font-family="Vera Sans, DejaVu Sans, Liberation Sans, Arial, Helvetica, sans" font-size="10.00">LogicalOperator</text>
</a>
</g>
</g>
<!-- Operator&#45;&gt;LogicalOperator -->
<g id="edge2" class="edge">
<title>Operator&#45;&gt;LogicalOperator</title>
<path fill="none" stroke="black" stroke-width="0.5" d="M562.23,-441122.55C571.39,-441122.55 581.49,-441122.55 591.63,-441122.55"/>
<polygon fill="black" stroke="black" stroke-width="0.5" points="592.6,-441124.3 597.6,-441122.55 592.6,-441120.8 592.6,-441124.3"/>
</g>
<!-- Token -->
<g id="node5" class="node">
<title>Token</title>
<g id="a_node5"><a xlink:href="../pyVHDLParser.Token.html#pyVHDLParser.Token.Token" xlink:title="Base&#45;class for all token classes." target="_top">
<polygon fill="white" stroke="#1e90ff" points="54,-441131.8 0,-441131.8 0,-441113.3 54,-441113.3 54,-441131.8"/>
<text text-anchor="middle" x="27" y="-441118.3" font-family="Vera Sans, DejaVu Sans, Liberation Sans, Arial, Helvetica, sans" font-size="10.00">Token</text>
</a>
</g>
</g>
<!-- ValuedToken -->
<g id="node6" class="node">
<title>ValuedToken</title>
<g id="a_node6"><a xlink:href="../pyVHDLParser.Token.html#pyVHDLParser.Token.ValuedToken" xlink:title="Base&#45;class for all *valued* token." target="_top">
<polygon fill="white" stroke="#1e90ff" points="188.5,-441143.78 90,-441143.78 90,-441101.33 188.5,-441101.33 188.5,-441143.78"/>
<text text-anchor="middle" x="139.25" y="-441130.28" font-family="Vera Sans, DejaVu Sans, Liberation Sans, Arial, Helvetica, sans" font-size="10.00">ValuedToken</text>
</a>
</g>
</g>
<!-- Token&#45;&gt;ValuedToken -->
<g id="edge5" class="edge">
<title>Token&#45;&gt;ValuedToken</title>
<path fill="none" stroke="black" stroke-width="0.5" d="M54.41,-441122.55C63.25,-441122.55 73.45,-441122.55 83.64,-441122.55"/>
<polygon fill="black" stroke="black" stroke-width="0.5" points="84.62,-441124.3 89.62,-441122.55 84.62,-441120.8 84.62,-441124.3"/>
</g>
<!-- ValuedToken&#45;&gt;VHDLToken -->
<g id="edge4" class="edge">
<title>ValuedToken&#45;&gt;VHDLToken</title>
<path fill="none" stroke="black" stroke-width="0.5" d="M188.94,-441122.55C198.59,-441122.55 208.7,-441122.55 218.29,-441122.55"/>
<polygon fill="black" stroke="black" stroke-width="0.5" points="219.19,-441124.3 224.19,-441122.55 219.19,-441120.8 219.19,-441124.3"/>
</g>
</g>
</svg>
