<?xml version="1.0" encoding="UTF-8" standalone="no"?>
<!DOCTYPE svg PUBLIC "-//W3C//DTD SVG 1.1//EN"
 "http://www.w3.org/Graphics/SVG/1.1/DTD/svg11.dtd">
<!-- Generated by graphviz version 8.0.5 (20230430.1635)
 -->
<!-- Title: inheritance647e6aeee7 Pages: 1 -->
<svg width="0pt" height="864pt"
 viewBox="0.00 0.00 0.49 864.00" xmlns="http://www.w3.org/2000/svg" xmlns:xlink="http://www.w3.org/1999/xlink">
<g id="graph0" class="graph" transform="scale(0.00124099 0.00124099) rotate(0) translate(4 696211.97)">
<title>inheritance647e6aeee7</title>
<!-- EndOf -->
<g id="node1" class="node">
<title>EndOf</title>
<g id="a_node1"><a xlink:title="Base&#45;class (mixin) for all EndOf*** classes.">
<polygon fill="white" stroke="#1e90ff" points="54,-696207.97 0,-696207.97 0,-65535.39 54,-65535.39 54,-696207.97"/>
<text text-anchor="middle" x="27" y="-696194.47" font-family="Vera Sans, DejaVu Sans, Liberation Sans, Arial, Helvetica, sans" font-size="10.00">EndOf</text>
</a>
</g>
</g>
<!-- EndOfDocument -->
<g id="node2" class="node">
<title>EndOfDocument</title>
<g id="a_node2"><a xlink:title="Base&#45;class (mixin) for all EndOf***Document classes.">
<polygon fill="white" stroke="#1e90ff" points="203.5,-380880.93 90,-380880.93 90,-380862.43 203.5,-380862.43 203.5,-380880.93"/>
<text text-anchor="middle" x="146.75" y="-380867.43" font-family="Vera Sans, DejaVu Sans, Liberation Sans, Arial, Helvetica, sans" font-size="10.00">EndOfDocument</text>
</a>
</g>
</g>
<!-- EndOf&#45;&gt;EndOfDocument -->
<g id="edge1" class="edge">
<title>EndOf&#45;&gt;EndOfDocument</title>
<path fill="none" stroke="black" stroke-width="0.5" d="M54.43,-380871.68C63.24,-380871.68 73.46,-380871.68 83.8,-380871.68"/>
<polygon fill="black" stroke="black" stroke-width="0.5" points="84.56,-380873.43 89.56,-380871.68 84.56,-380869.93 84.56,-380873.43"/>
</g>
<!-- EndOfDocumentToken -->
<g id="node3" class="node">
<title>EndOfDocumentToken</title>
<g id="a_node3"><a xlink:href="../../pyVHDLParser/pyVHDLParser.Token.html#pyVHDLParser.Token.EndOfDocumentToken" xlink:title="EndOfDocumentToken" target="_top">
<polygon fill="white" stroke="#1e90ff" points="390.5,-663440.31 239.5,-663440.31 239.5,-32767.05 390.5,-32767.05 390.5,-663440.31"/>
<text text-anchor="middle" x="315" y="-663426.81" font-family="Vera Sans, DejaVu Sans, Liberation Sans, Arial, Helvetica, sans" font-size="10.00">EndOfDocumentToken</text>
</a>
</g>
</g>
<!-- EndOfDocument&#45;&gt;EndOfDocumentToken -->
<g id="edge3" class="edge">
<title>EndOfDocument&#45;&gt;EndOfDocumentToken</title>
<path fill="none" stroke="black" stroke-width="0.5" d="M200.26,-380862.1C201.42,-380861.06 202.51,-380859.92 203.5,-380858.68 216.37,-380842.52 228.21,-379751.73 238.97,-377977.21"/>
<polygon fill="black" stroke="black" stroke-width="0.5" points="240.72,-377976.36 239,-377971.35 237.22,-377976.34 240.72,-377976.36"/>
</g>
<!-- EndOfToken -->
<g id="node4" class="node">
<title>EndOfToken</title>
<g id="a_node4"><a xlink:href="../../pyVHDLParser/pyVHDLParser.Token.html#pyVHDLParser.Token.EndOfToken" xlink:title="Base&#45;class for meta&#45;tokens representing the end of a token stream." target="_top">
<polygon fill="white" stroke="#1e90ff" points="192.25,-630673.36 101.25,-630673.36 101.25,0 192.25,0 192.25,-630673.36"/>
<text text-anchor="middle" x="146.75" y="-630659.86" font-family="Vera Sans, DejaVu Sans, Liberation Sans, Arial, Helvetica, sans" font-size="10.00">EndOfToken</text>
</a>
</g>
</g>
<!-- EndOfToken&#45;&gt;EndOfDocumentToken -->
<g id="edge2" class="edge">
<title>EndOfToken&#45;&gt;EndOfDocumentToken</title>
<path fill="none" stroke="black" stroke-width="0.5" d="M192.75,-324205.92C207.01,-327017.19 223.19,-330205.26 238.97,-333315.87"/>
<polygon fill="black" stroke="black" stroke-width="0.5" points="237.23,-333316.87 239,-333321.86 240.73,-333316.85 237.23,-333316.87"/>
</g>
<!-- Token -->
<g id="node5" class="node">
<title>Token</title>
<g id="a_node5"><a xlink:href="../../pyVHDLParser/pyVHDLParser.Token.html#pyVHDLParser.Token.Token" xlink:title="Base&#45;class for all token classes." target="_top">
<polygon fill="white" stroke="#1e90ff" points="54,-315351.43 0,-315351.43 0,-315321.93 54,-315321.93 54,-315351.43"/>
<text text-anchor="middle" x="27" y="-315337.93" font-family="Vera Sans, DejaVu Sans, Liberation Sans, Arial, Helvetica, sans" font-size="10.00">Token</text>
</a>
</g>
</g>
<!-- Token&#45;&gt;EndOfToken -->
<g id="edge4" class="edge">
<title>Token&#45;&gt;EndOfToken</title>
<path fill="none" stroke="black" stroke-width="0.5" d="M54.43,-315336.68C66.41,-315336.68 81,-315336.68 94.98,-315336.68"/>
<polygon fill="black" stroke="black" stroke-width="0.5" points="95.92,-315338.43 100.92,-315336.68 95.92,-315334.93 95.92,-315338.43"/>
</g>
</g>
</svg>
