<?xml version="1.0" encoding="UTF-8" standalone="no"?>
<!DOCTYPE svg PUBLIC "-//W3C//DTD SVG 1.1//EN"
 "http://www.w3.org/Graphics/SVG/1.1/DTD/svg11.dtd">
<!-- Generated by graphviz version 8.0.5 (20230430.1635)
 -->
<!-- Title: inheritance8d488085d2 Pages: 1 -->
<svg width="7pt" height="864pt"
 viewBox="0.00 0.00 6.94 864.00" xmlns="http://www.w3.org/2000/svg" xmlns:xlink="http://www.w3.org/1999/xlink">
<g id="graph0" class="graph" transform="scale(0.00613766 0.00613766) rotate(0) translate(4 140766.26)">
<title>inheritance8d488085d2</title>
<!-- CommentKeyword -->
<g id="node1" class="node">
<title>CommentKeyword</title>
<g id="a_node1"><a xlink:href="../pyVHDLParser/pyVHDLParser.Token.Keywords.html#pyVHDLParser.Token.Keywords.CommentKeyword" xlink:title="Base&#45;class for all comment keywords: ``&#45;&#45;``, ``/*`` and ``*/``." target="_top">
<polygon fill="white" stroke="#1e90ff" points="637,-70390.38 516,-70390.38 516,-70371.88 637,-70371.88 637,-70390.38"/>
<text text-anchor="middle" x="576.5" y="-70376.88" font-family="Vera Sans, DejaVu Sans, Liberation Sans, Arial, Helvetica, sans" font-size="10.00">CommentKeyword</text>
</a>
</g>
</g>
<!-- MultiLineCommentKeyword -->
<g id="node4" class="node">
<title>MultiLineCommentKeyword</title>
<g id="a_node4"><a xlink:href="../pyVHDLParser/pyVHDLParser.Token.Keywords.html#pyVHDLParser.Token.Keywords.MultiLineCommentKeyword" xlink:title="Base&#45;class for all tokens related to multi&#45;line comments: ``/*`` and ``*/``." target="_top">
<polygon fill="white" stroke="#1e90ff" points="861.5,-140757.92 673,-140757.92 673,-4.34 861.5,-4.34 861.5,-140757.92"/>
<text text-anchor="middle" x="767.25" y="-140744.42" font-family="Vera Sans, DejaVu Sans, Liberation Sans, Arial, Helvetica, sans" font-size="10.00">MultiLineCommentKeyword</text>
</a>
</g>
</g>
<!-- CommentKeyword&#45;&gt;MultiLineCommentKeyword -->
<g id="edge3" class="edge">
<title>CommentKeyword&#45;&gt;MultiLineCommentKeyword</title>
<path fill="none" stroke="black" stroke-width="0.5" d="M637.48,-70381.13C646.87,-70381.13 656.78,-70381.13 666.76,-70381.13"/>
<polygon fill="black" stroke="black" stroke-width="0.5" points="667.65,-70382.88 672.65,-70381.13 667.65,-70379.38 667.65,-70382.88"/>
</g>
<!-- MultiCharKeyword -->
<g id="node2" class="node">
<title>MultiCharKeyword</title>
<g id="a_node2"><a xlink:href="../pyVHDLParser/pyVHDLParser.Token.Keywords.html#pyVHDLParser.Token.Keywords.MultiCharKeyword" xlink:title="MultiCharKeyword" target="_top">
<polygon fill="white" stroke="#1e90ff" points="480,-140762.26 344,-140762.26 344,0 480,0 480,-140762.26"/>
<text text-anchor="middle" x="412" y="-140748.76" font-family="Vera Sans, DejaVu Sans, Liberation Sans, Arial, Helvetica, sans" font-size="10.00">MultiCharKeyword</text>
</a>
</g>
</g>
<!-- MultiCharKeyword&#45;&gt;CommentKeyword -->
<g id="edge1" class="edge">
<title>MultiCharKeyword&#45;&gt;CommentKeyword</title>
<path fill="none" stroke="black" stroke-width="0.5" d="M480.03,-70381.13C489.9,-70381.13 500.05,-70381.13 509.89,-70381.13"/>
<polygon fill="black" stroke="black" stroke-width="0.5" points="510.64,-70382.88 515.64,-70381.13 510.64,-70379.38 510.64,-70382.88"/>
</g>
<!-- VHDLToken -->
<g id="node3" class="node">
<title>VHDLToken</title>
<g id="a_node3"><a xlink:href="../pyVHDLParser.Token.html#pyVHDLParser.Token.VHDLToken" xlink:title="Base&#45;class for all VHDL specific tokens." target="_top">
<polygon fill="white" stroke="#1e90ff" points="308,-140762.2 224.5,-140762.2 224.5,-0.06 308,-0.06 308,-140762.2"/>
<text text-anchor="middle" x="266.25" y="-140748.7" font-family="Vera Sans, DejaVu Sans, Liberation Sans, Arial, Helvetica, sans" font-size="10.00">VHDLToken</text>
</a>
</g>
</g>
<!-- VHDLToken&#45;&gt;MultiCharKeyword -->
<g id="edge2" class="edge">
<title>VHDLToken&#45;&gt;MultiCharKeyword</title>
<path fill="none" stroke="black" stroke-width="0.5" d="M308.44,-70381.13C317.67,-70381.13 327.72,-70381.13 337.81,-70381.13"/>
<polygon fill="black" stroke="black" stroke-width="0.5" points="338.75,-70382.88 343.75,-70381.13 338.75,-70379.38 338.75,-70382.88"/>
</g>
<!-- MultiLineCommentStartKeyword -->
<g id="node5" class="node">
<title>MultiLineCommentStartKeyword</title>
<g id="a_node5"><a xlink:href="../pyVHDLParser/pyVHDLParser.Token.Keywords.html#pyVHDLParser.Token.Keywords.MultiLineCommentStartKeyword" xlink:title="Token representing a starting sequence for a multi&#45;line comment: ``/*``." target="_top">
<polygon fill="white" stroke="#1e90ff" points="1123.5,-70402.3 897.5,-70402.3 897.5,-70359.96 1123.5,-70359.96 1123.5,-70402.3"/>
<text text-anchor="middle" x="1010.5" y="-70388.8" font-family="Vera Sans, DejaVu Sans, Liberation Sans, Arial, Helvetica, sans" font-size="10.00">MultiLineCommentStartKeyword</text>
</a>
</g>
</g>
<!-- MultiLineCommentKeyword&#45;&gt;MultiLineCommentStartKeyword -->
<g id="edge4" class="edge">
<title>MultiLineCommentKeyword&#45;&gt;MultiLineCommentStartKeyword</title>
<path fill="none" stroke="black" stroke-width="0.5" d="M861.87,-70381.13C871.5,-70381.13 881.38,-70381.13 891.23,-70381.13"/>
<polygon fill="black" stroke="black" stroke-width="0.5" points="892.03,-70382.88 897.03,-70381.13 892.03,-70379.38 892.03,-70382.88"/>
</g>
<!-- Token -->
<g id="node6" class="node">
<title>Token</title>
<g id="a_node6"><a xlink:href="../pyVHDLParser.Token.html#pyVHDLParser.Token.Token" xlink:title="Base&#45;class for all token classes." target="_top">
<polygon fill="white" stroke="#1e90ff" points="54,-70402.3 0,-70402.3 0,-70359.96 54,-70359.96 54,-70402.3"/>
<text text-anchor="middle" x="27" y="-70388.8" font-family="Vera Sans, DejaVu Sans, Liberation Sans, Arial, Helvetica, sans" font-size="10.00">Token</text>
</a>
</g>
</g>
<!-- ValuedToken -->
<g id="node7" class="node">
<title>ValuedToken</title>
<g id="a_node7"><a xlink:href="../pyVHDLParser.Token.html#pyVHDLParser.Token.ValuedToken" xlink:title="Base&#45;class for all *valued* token." target="_top">
<polygon fill="white" stroke="#1e90ff" points="188.5,-70390.38 90,-70390.38 90,-70371.88 188.5,-70371.88 188.5,-70390.38"/>
<text text-anchor="middle" x="139.25" y="-70376.88" font-family="Vera Sans, DejaVu Sans, Liberation Sans, Arial, Helvetica, sans" font-size="10.00">ValuedToken</text>
</a>
</g>
</g>
<!-- Token&#45;&gt;ValuedToken -->
<g id="edge6" class="edge">
<title>Token&#45;&gt;ValuedToken</title>
<path fill="none" stroke="black" stroke-width="0.5" d="M54.41,-70381.13C63.25,-70381.13 73.45,-70381.13 83.64,-70381.13"/>
<polygon fill="black" stroke="black" stroke-width="0.5" points="84.62,-70382.88 89.62,-70381.13 84.62,-70379.38 84.62,-70382.88"/>
</g>
<!-- ValuedToken&#45;&gt;VHDLToken -->
<g id="edge5" class="edge">
<title>ValuedToken&#45;&gt;VHDLToken</title>
<path fill="none" stroke="black" stroke-width="0.5" d="M188.94,-70381.13C198.59,-70381.13 208.7,-70381.13 218.29,-70381.13"/>
<polygon fill="black" stroke="black" stroke-width="0.5" points="219.19,-70382.88 224.19,-70381.13 219.19,-70379.38 219.19,-70382.88"/>
</g>
</g>
</svg>
