<?xml version="1.0" encoding="UTF-8" standalone="no"?>
<!DOCTYPE svg PUBLIC "-//W3C//DTD SVG 1.1//EN"
 "http://www.w3.org/Graphics/SVG/1.1/DTD/svg11.dtd">
<!-- Generated by graphviz version 8.0.5 (20230430.1635)
 -->
<!-- Title: inheritance953873d1d9 Pages: 1 -->
<svg width="1pt" height="864pt"
 viewBox="0.00 0.00 0.76 864.00" xmlns="http://www.w3.org/2000/svg" xmlns:xlink="http://www.w3.org/1999/xlink">
<g id="graph0" class="graph" transform="scale(0.00138238 0.00138238) rotate(0) translate(4 625005.26)">
<title>inheritance953873d1d9</title>
<!-- Context -->
<g id="node1" class="node">
<title>Context</title>
<g id="a_node1"><a xlink:href="../pyVHDLParser/pyVHDLParser.DocumentModel.DesignUnit.Context.html#pyVHDLParser.DocumentModel.DesignUnit.Context.Context" xlink:title="Context" target="_top">
<polygon fill="white" stroke="#1e90ff" points="539.5,-279742.61 471,-279742.61 471,-279724.11 539.5,-279724.11 539.5,-279742.61"/>
<text text-anchor="middle" x="505.25" y="-279729.11" font-family="Vera Sans, DejaVu Sans, Liberation Sans, Arial, Helvetica, sans" font-size="10.00">Context</text>
</a>
</g>
</g>
<!-- Context&#45;&gt;Context -->
<g id="edge2" class="edge">
<title>Context&#45;&gt;Context</title>
<path fill="none" stroke="black" stroke-width="0.5" d="M486.83,-279742.85C477.87,-279751.43 484.01,-279760.61 505.25,-279760.61 522.51,-279760.61 529.8,-279754.55 527.12,-279747.67"/>
<polygon fill="black" stroke="black" stroke-width="0.5" points="528,-279745.9 523.67,-279742.85 525.15,-279747.94 528,-279745.9"/>
</g>
<!-- PrimaryUnit -->
<g id="node2" class="node">
<title>PrimaryUnit</title>
<g id="a_node2"><a xlink:title="A ``PrimaryUnit`` is a base&#45;class for all primary units.">
<polygon fill="white" stroke="#1e90ff" points="435,-559466.71 336.5,-559466.71 336.5,0 435,0 435,-559466.71"/>
<text text-anchor="middle" x="385.75" y="-559453.21" font-family="Vera Sans, DejaVu Sans, Liberation Sans, Arial, Helvetica, sans" font-size="10.00">PrimaryUnit</text>
</a>
</g>
</g>
<!-- PrimaryUnit&#45;&gt;Context -->
<g id="edge1" class="edge">
<title>PrimaryUnit&#45;&gt;Context</title>
<path fill="none" stroke="black" stroke-width="0.5" d="M435.22,-279733.36C445.06,-279733.36 455.3,-279733.36 464.79,-279733.36"/>
<polygon fill="black" stroke="black" stroke-width="0.5" points="465.58,-279735.11 470.58,-279733.36 465.58,-279731.61 465.58,-279735.11"/>
</g>
<!-- DesignUnit -->
<g id="node3" class="node">
<title>DesignUnit</title>
<g id="a_node3"><a xlink:title="A ``DesignUnit`` is a base&#45;class for all design units.">
<polygon fill="white" stroke="#1e90ff" points="300.5,-559466.67 209.5,-559466.67 209.5,-0.04 300.5,-0.04 300.5,-559466.67"/>
<text text-anchor="middle" x="255" y="-559453.17" font-family="Vera Sans, DejaVu Sans, Liberation Sans, Arial, Helvetica, sans" font-size="10.00">DesignUnit</text>
</a>
</g>
</g>
<!-- DesignUnit&#45;&gt;PrimaryUnit -->
<g id="edge6" class="edge">
<title>DesignUnit&#45;&gt;PrimaryUnit</title>
<path fill="none" stroke="black" stroke-width="0.5" d="M300.67,-279733.36C310.26,-279733.36 320.5,-279733.36 330.41,-279733.36"/>
<polygon fill="black" stroke="black" stroke-width="0.5" points="331.21,-279735.11 336.21,-279733.36 331.21,-279731.61 331.21,-279735.11"/>
</g>
<!-- ModelEntity -->
<g id="node4" class="node">
<title>ModelEntity</title>
<g id="a_node4"><a xlink:title="``ModelEntity`` is the base&#45;class for all classes in the VHDL language model, except for mixin classes (see multiple">
<polygon fill="white" stroke="#1e90ff" points="136,-625001.26 37.5,-625001.26 37.5,-65535.46 136,-65535.46 136,-625001.26"/>
<text text-anchor="middle" x="86.75" y="-624987.76" font-family="Vera Sans, DejaVu Sans, Liberation Sans, Arial, Helvetica, sans" font-size="10.00">ModelEntity</text>
</a>
</g>
</g>
<!-- ModelEntity&#45;&gt;DesignUnit -->
<g id="edge3" class="edge">
<title>ModelEntity&#45;&gt;DesignUnit</title>
<path fill="none" stroke="black" stroke-width="0.5" d="M136.5,-326051.61C159.42,-317018.2 186.56,-306316.97 208.99,-297477.41"/>
<polygon fill="black" stroke="black" stroke-width="0.5" points="210.74,-297476.74 209,-297471.74 207.24,-297476.74 210.74,-297476.74"/>
</g>
<!-- NamedEntityMixin -->
<g id="node5" class="node">
<title>NamedEntityMixin</title>
<g id="a_node5"><a xlink:title="A ``NamedEntityMixin`` is a mixin class for all VHDL entities that have identifiers.">
<polygon fill="white" stroke="#1e90ff" points="154.75,-279742.61 18.75,-279742.61 18.75,-279724.11 154.75,-279724.11 154.75,-279742.61"/>
<text text-anchor="middle" x="86.75" y="-279729.11" font-family="Vera Sans, DejaVu Sans, Liberation Sans, Arial, Helvetica, sans" font-size="10.00">NamedEntityMixin</text>
</a>
</g>
</g>
<!-- NamedEntityMixin&#45;&gt;DesignUnit -->
<g id="edge4" class="edge">
<title>NamedEntityMixin&#45;&gt;DesignUnit</title>
<path fill="none" stroke="black" stroke-width="0.5" d="M154.89,-279733.36C170.96,-279733.36 187.86,-279733.36 203.06,-279733.36"/>
<polygon fill="black" stroke="black" stroke-width="0.5" points="204.02,-279735.11 209.02,-279733.36 204.02,-279731.61 204.02,-279735.11"/>
</g>
<!-- DocumentedEntityMixin -->
<g id="node6" class="node">
<title>DocumentedEntityMixin</title>
<g id="a_node6"><a xlink:title="A ``DocumentedEntityMixin`` is a mixin class for all VHDL entities that can have an associated documentation.">
<polygon fill="white" stroke="#1e90ff" points="173.5,-279705.61 0,-279705.61 0,-279687.11 173.5,-279687.11 173.5,-279705.61"/>
<text text-anchor="middle" x="86.75" y="-279692.11" font-family="Vera Sans, DejaVu Sans, Liberation Sans, Arial, Helvetica, sans" font-size="10.00">DocumentedEntityMixin</text>
</a>
</g>
</g>
<!-- DocumentedEntityMixin&#45;&gt;DesignUnit -->
<g id="edge5" class="edge">
<title>DocumentedEntityMixin&#45;&gt;DesignUnit</title>
<path fill="none" stroke="black" stroke-width="0.5" d="M131.82,-279706.1C145.21,-279709.07 159.96,-279712.34 173.5,-279715.36 183.2,-279717.52 193.55,-279719.83 203.5,-279722.05"/>
<polygon fill="black" stroke="black" stroke-width="0.5" points="204.03,-279723.96 209.29,-279723.35 204.8,-279720.55 204.03,-279723.96"/>
</g>
</g>
</svg>
