<?xml version="1.0" encoding="UTF-8" standalone="no"?>
<!DOCTYPE svg PUBLIC "-//W3C//DTD SVG 1.1//EN"
 "http://www.w3.org/Graphics/SVG/1.1/DTD/svg11.dtd">
<!-- Generated by graphviz version 8.0.5 (20230430.1635)
 -->
<!-- Title: inheritance4824134f59 Pages: 1 -->
<svg width="1pt" height="864pt"
 viewBox="0.00 0.00 0.86 864.00" xmlns="http://www.w3.org/2000/svg" xmlns:xlink="http://www.w3.org/1999/xlink">
<g id="graph0" class="graph" transform="scale(0.00131895 0.00131895) rotate(0) translate(4 655060.42)">
<title>inheritance4824134f59</title>
<!-- ArchitectureKeyword -->
<g id="node1" class="node">
<title>ArchitectureKeyword</title>
<g id="a_node1"><a xlink:href="../pyVHDLParser/pyVHDLParser.Token.Keywords.html#pyVHDLParser.Token.Keywords.ArchitectureKeyword" xlink:title="Reserved word &#39;architecture&#39; to define architectures." target="_top">
<polygon fill="white" stroke="#1e90ff" points="644.5,-327537.46 486,-327537.46 486,-327518.96 644.5,-327518.96 644.5,-327537.46"/>
<text text-anchor="middle" x="565.25" y="-327523.96" font-family="Vera Sans, DejaVu Sans, Liberation Sans, Arial, Helvetica, sans" font-size="10.00">ArchitectureKeyword</text>
</a>
</g>
</g>
<!-- KeywordToken -->
<g id="node2" class="node">
<title>KeywordToken</title>
<g id="a_node2"><a xlink:href="../pyVHDLParser/pyVHDLParser.Token.Keywords.html#pyVHDLParser.Token.Keywords.KeywordToken" xlink:title="KeywordToken" target="_top">
<polygon fill="white" stroke="#1e90ff" points="450,-327537.46 344,-327537.46 344,-327518.96 450,-327518.96 450,-327537.46"/>
<text text-anchor="middle" x="397" y="-327523.96" font-family="Vera Sans, DejaVu Sans, Liberation Sans, Arial, Helvetica, sans" font-size="10.00">KeywordToken</text>
</a>
</g>
</g>
<!-- KeywordToken&#45;&gt;ArchitectureKeyword -->
<g id="edge1" class="edge">
<title>KeywordToken&#45;&gt;ArchitectureKeyword</title>
<path fill="none" stroke="black" stroke-width="0.5" d="M450.15,-327528.21C459.62,-327528.21 469.72,-327528.21 479.84,-327528.21"/>
<polygon fill="black" stroke="black" stroke-width="0.5" points="480.8,-327529.96 485.8,-327528.21 480.8,-327526.46 480.8,-327529.96"/>
</g>
<!-- VHDLToken -->
<g id="node3" class="node">
<title>VHDLToken</title>
<g id="a_node3"><a xlink:href="../pyVHDLParser.Token.html#pyVHDLParser.Token.VHDLToken" xlink:title="Base&#45;class for all VHDL specific tokens." target="_top">
<polygon fill="white" stroke="#1e90ff" points="308,-655056.42 224.5,-655056.42 224.5,0 308,0 308,-655056.42"/>
<text text-anchor="middle" x="266.25" y="-655042.92" font-family="Vera Sans, DejaVu Sans, Liberation Sans, Arial, Helvetica, sans" font-size="10.00">VHDLToken</text>
</a>
</g>
</g>
<!-- VHDLToken&#45;&gt;KeywordToken -->
<g id="edge2" class="edge">
<title>VHDLToken&#45;&gt;KeywordToken</title>
<path fill="none" stroke="black" stroke-width="0.5" d="M308.34,-327528.21C317.69,-327528.21 327.8,-327528.21 337.71,-327528.21"/>
<polygon fill="black" stroke="black" stroke-width="0.5" points="338.52,-327529.96 343.52,-327528.21 338.52,-327526.46 338.52,-327529.96"/>
</g>
<!-- Token -->
<g id="node4" class="node">
<title>Token</title>
<g id="a_node4"><a xlink:href="../pyVHDLParser.Token.html#pyVHDLParser.Token.Token" xlink:title="Base&#45;class for all token classes." target="_top">
<polygon fill="white" stroke="#1e90ff" points="54,-655056.37 0,-655056.37 0,-0.05 54,-0.05 54,-655056.37"/>
<text text-anchor="middle" x="27" y="-655042.87" font-family="Vera Sans, DejaVu Sans, Liberation Sans, Arial, Helvetica, sans" font-size="10.00">Token</text>
</a>
</g>
</g>
<!-- ValuedToken -->
<g id="node5" class="node">
<title>ValuedToken</title>
<g id="a_node5"><a xlink:href="../pyVHDLParser.Token.html#pyVHDLParser.Token.ValuedToken" xlink:title="Base&#45;class for all *valued* token." target="_top">
<polygon fill="white" stroke="#1e90ff" points="188.5,-327537.46 90,-327537.46 90,-327518.96 188.5,-327518.96 188.5,-327537.46"/>
<text text-anchor="middle" x="139.25" y="-327523.96" font-family="Vera Sans, DejaVu Sans, Liberation Sans, Arial, Helvetica, sans" font-size="10.00">ValuedToken</text>
</a>
</g>
</g>
<!-- Token&#45;&gt;ValuedToken -->
<g id="edge4" class="edge">
<title>Token&#45;&gt;ValuedToken</title>
<path fill="none" stroke="black" stroke-width="0.5" d="M54.41,-327528.21C63.25,-327528.21 73.45,-327528.21 83.64,-327528.21"/>
<polygon fill="black" stroke="black" stroke-width="0.5" points="84.62,-327529.96 89.62,-327528.21 84.62,-327526.46 84.62,-327529.96"/>
</g>
<!-- ValuedToken&#45;&gt;VHDLToken -->
<g id="edge3" class="edge">
<title>ValuedToken&#45;&gt;VHDLToken</title>
<path fill="none" stroke="black" stroke-width="0.5" d="M188.94,-327528.21C198.59,-327528.21 208.7,-327528.21 218.29,-327528.21"/>
<polygon fill="black" stroke="black" stroke-width="0.5" points="219.19,-327529.96 224.19,-327528.21 219.19,-327526.46 219.19,-327529.96"/>
</g>
</g>
</svg>
