<?xml version="1.0" encoding="UTF-8" standalone="no"?>
<!DOCTYPE svg PUBLIC "-//W3C//DTD SVG 1.1//EN"
 "http://www.w3.org/Graphics/SVG/1.1/DTD/svg11.dtd">
<!-- Generated by graphviz version 8.0.5 (20230430.1635)
 -->
<!-- Title: inheritanceaeca821415 Pages: 1 -->
<svg width="5pt" height="864pt"
 viewBox="0.00 0.00 4.80 864.00" xmlns="http://www.w3.org/2000/svg" xmlns:xlink="http://www.w3.org/1999/xlink">
<g id="graph0" class="graph" transform="scale(0.00557504 0.00557504) rotate(0) translate(4 154972.55)">
<title>inheritanceaeca821415</title>
<!-- KeywordToken -->
<g id="node1" class="node">
<title>KeywordToken</title>
<g id="a_node1"><a xlink:href="../pyVHDLParser/pyVHDLParser.Token.Keywords.html#pyVHDLParser.Token.Keywords.KeywordToken" xlink:title="KeywordToken" target="_top">
<polygon fill="white" stroke="#1e90ff" points="450,-77493.52 344,-77493.52 344,-77475.02 450,-77475.02 450,-77493.52"/>
<text text-anchor="middle" x="397" y="-77480.02" font-family="Vera Sans, DejaVu Sans, Liberation Sans, Arial, Helvetica, sans" font-size="10.00">KeywordToken</text>
</a>
</g>
</g>
<!-- Operator -->
<g id="node4" class="node">
<title>Operator</title>
<g id="a_node4"><a xlink:href="../pyVHDLParser/pyVHDLParser.Token.Keywords.html#pyVHDLParser.Token.Keywords.Operator" xlink:title="Operator" target="_top">
<polygon fill="white" stroke="#1e90ff" points="562,-77493.52 486,-77493.52 486,-77475.02 562,-77475.02 562,-77493.52"/>
<text text-anchor="middle" x="524" y="-77480.02" font-family="Vera Sans, DejaVu Sans, Liberation Sans, Arial, Helvetica, sans" font-size="10.00">Operator</text>
</a>
</g>
</g>
<!-- KeywordToken&#45;&gt;Operator -->
<g id="edge3" class="edge">
<title>KeywordToken&#45;&gt;Operator</title>
<path fill="none" stroke="black" stroke-width="0.5" d="M450.29,-77484.27C460.15,-77484.27 470.36,-77484.27 479.9,-77484.27"/>
<polygon fill="black" stroke="black" stroke-width="0.5" points="480.74,-77486.02 485.74,-77484.27 480.74,-77482.52 480.74,-77486.02"/>
</g>
<!-- VHDLToken -->
<g id="node2" class="node">
<title>VHDLToken</title>
<g id="a_node2"><a xlink:href="../pyVHDLParser.Token.html#pyVHDLParser.Token.VHDLToken" xlink:title="Base&#45;class for all VHDL specific tokens." target="_top">
<polygon fill="white" stroke="#1e90ff" points="308,-154960.81 224.5,-154960.81 224.5,-7.73 308,-7.73 308,-154960.81"/>
<text text-anchor="middle" x="266.25" y="-154947.31" font-family="Vera Sans, DejaVu Sans, Liberation Sans, Arial, Helvetica, sans" font-size="10.00">VHDLToken</text>
</a>
</g>
</g>
<!-- VHDLToken&#45;&gt;KeywordToken -->
<g id="edge1" class="edge">
<title>VHDLToken&#45;&gt;KeywordToken</title>
<path fill="none" stroke="black" stroke-width="0.5" d="M308.34,-77484.27C317.69,-77484.27 327.8,-77484.27 337.71,-77484.27"/>
<polygon fill="black" stroke="black" stroke-width="0.5" points="338.52,-77486.02 343.52,-77484.27 338.52,-77482.52 338.52,-77486.02"/>
</g>
<!-- LogicalOperator -->
<g id="node3" class="node">
<title>LogicalOperator</title>
<g id="a_node3"><a xlink:href="../pyVHDLParser/pyVHDLParser.Token.Keywords.html#pyVHDLParser.Token.Keywords.LogicalOperator" xlink:title="LogicalOperator" target="_top">
<polygon fill="white" stroke="#1e90ff" points="726.5,-154968.55 598,-154968.55 598,0 726.5,0 726.5,-154968.55"/>
<text text-anchor="middle" x="662.25" y="-154955.05" font-family="Vera Sans, DejaVu Sans, Liberation Sans, Arial, Helvetica, sans" font-size="10.00">LogicalOperator</text>
</a>
</g>
</g>
<!-- OrOperator -->
<g id="node5" class="node">
<title>OrOperator</title>
<g id="a_node5"><a xlink:href="../pyVHDLParser/pyVHDLParser.Token.Keywords.html#pyVHDLParser.Token.Keywords.OrOperator" xlink:title="OrOperator" target="_top">
<polygon fill="white" stroke="#1e90ff" points="853.5,-77497.27 762.5,-77497.27 762.5,-77471.27 853.5,-77471.27 853.5,-77497.27"/>
<text text-anchor="middle" x="808" y="-77483.77" font-family="Vera Sans, DejaVu Sans, Liberation Sans, Arial, Helvetica, sans" font-size="10.00">OrOperator</text>
</a>
</g>
</g>
<!-- LogicalOperator&#45;&gt;OrOperator -->
<g id="edge4" class="edge">
<title>LogicalOperator&#45;&gt;OrOperator</title>
<path fill="none" stroke="black" stroke-width="0.5" d="M726.72,-77484.27C736.68,-77484.27 746.87,-77484.27 756.49,-77484.27"/>
<polygon fill="black" stroke="black" stroke-width="0.5" points="757.4,-77486.02 762.4,-77484.27 757.4,-77482.52 757.4,-77486.02"/>
</g>
<!-- Operator&#45;&gt;LogicalOperator -->
<g id="edge2" class="edge">
<title>Operator&#45;&gt;LogicalOperator</title>
<path fill="none" stroke="black" stroke-width="0.5" d="M562.23,-77484.27C571.39,-77484.27 581.49,-77484.27 591.63,-77484.27"/>
<polygon fill="black" stroke="black" stroke-width="0.5" points="592.6,-77486.02 597.6,-77484.27 592.6,-77482.52 592.6,-77486.02"/>
</g>
<!-- Token -->
<g id="node6" class="node">
<title>Token</title>
<g id="a_node6"><a xlink:href="../pyVHDLParser.Token.html#pyVHDLParser.Token.Token" xlink:title="Base&#45;class for all token classes." target="_top">
<polygon fill="white" stroke="#1e90ff" points="54,-77497.27 0,-77497.27 0,-77471.27 54,-77471.27 54,-77497.27"/>
<text text-anchor="middle" x="27" y="-77483.77" font-family="Vera Sans, DejaVu Sans, Liberation Sans, Arial, Helvetica, sans" font-size="10.00">Token</text>
</a>
</g>
</g>
<!-- ValuedToken -->
<g id="node7" class="node">
<title>ValuedToken</title>
<g id="a_node7"><a xlink:href="../pyVHDLParser.Token.html#pyVHDLParser.Token.ValuedToken" xlink:title="Base&#45;class for all *valued* token." target="_top">
<polygon fill="white" stroke="#1e90ff" points="188.5,-77493.52 90,-77493.52 90,-77475.02 188.5,-77475.02 188.5,-77493.52"/>
<text text-anchor="middle" x="139.25" y="-77480.02" font-family="Vera Sans, DejaVu Sans, Liberation Sans, Arial, Helvetica, sans" font-size="10.00">ValuedToken</text>
</a>
</g>
</g>
<!-- Token&#45;&gt;ValuedToken -->
<g id="edge6" class="edge">
<title>Token&#45;&gt;ValuedToken</title>
<path fill="none" stroke="black" stroke-width="0.5" d="M54.41,-77484.27C63.25,-77484.27 73.45,-77484.27 83.64,-77484.27"/>
<polygon fill="black" stroke="black" stroke-width="0.5" points="84.62,-77486.02 89.62,-77484.27 84.62,-77482.52 84.62,-77486.02"/>
</g>
<!-- ValuedToken&#45;&gt;VHDLToken -->
<g id="edge5" class="edge">
<title>ValuedToken&#45;&gt;VHDLToken</title>
<path fill="none" stroke="black" stroke-width="0.5" d="M188.94,-77484.27C198.59,-77484.27 208.7,-77484.27 218.29,-77484.27"/>
<polygon fill="black" stroke="black" stroke-width="0.5" points="219.19,-77486.02 224.19,-77484.27 219.19,-77482.52 219.19,-77486.02"/>
</g>
</g>
</svg>
