<?xml version="1.0" encoding="UTF-8" standalone="no"?>
<!DOCTYPE svg PUBLIC "-//W3C//DTD SVG 1.1//EN"
 "http://www.w3.org/Graphics/SVG/1.1/DTD/svg11.dtd">
<!-- Generated by graphviz version 8.0.5 (20230430.1635)
 -->
<!-- Title: inheritance4e0e4303f5 Pages: 1 -->
<svg width="1pt" height="864pt"
 viewBox="0.00 0.00 0.52 864.00" xmlns="http://www.w3.org/2000/svg" xmlns:xlink="http://www.w3.org/1999/xlink">
<g id="graph0" class="graph" transform="scale(0.00173634 0.00173634) rotate(0) translate(4 497593.07)">
<title>inheritance4e0e4303f5</title>
<!-- Block -->
<g id="node1" class="node">
<title>Block</title>
<g id="a_node1"><a xlink:href="../pyVHDLParser.Blocks.html#pyVHDLParser.Blocks.Block" xlink:title="Base&#45;class for all :term:`block` classes." target="_top">
<polygon fill="white" stroke="#1e90ff" points="54,-497589.07 0,-497589.07 0,0 54,0 54,-497589.07"/>
<text text-anchor="middle" x="27" y="-497575.57" font-family="Vera Sans, DejaVu Sans, Liberation Sans, Arial, Helvetica, sans" font-size="10.00">Block</text>
</a>
</g>
</g>
<!-- FinalBlock -->
<g id="node3" class="node">
<title>FinalBlock</title>
<g id="a_node3"><a xlink:href="../pyVHDLParser.Blocks.html#pyVHDLParser.Blocks.FinalBlock" xlink:title="Base&#45;class for blocks that are final in a fast&#45;forward scanning." target="_top">
<polygon fill="white" stroke="#1e90ff" points="181,-248803.78 90,-248803.78 90,-248785.28 181,-248785.28 181,-248803.78"/>
<text text-anchor="middle" x="135.5" y="-248790.28" font-family="Vera Sans, DejaVu Sans, Liberation Sans, Arial, Helvetica, sans" font-size="10.00">FinalBlock</text>
</a>
</g>
</g>
<!-- Block&#45;&gt;FinalBlock -->
<g id="edge3" class="edge">
<title>Block&#45;&gt;FinalBlock</title>
<path fill="none" stroke="black" stroke-width="0.5" d="M54.33,-248794.53C63.29,-248794.53 73.62,-248794.53 83.84,-248794.53"/>
<polygon fill="black" stroke="black" stroke-width="0.5" points="84.82,-248796.28 89.82,-248794.53 84.82,-248792.78 84.82,-248796.28"/>
</g>
<!-- EndBlock -->
<g id="node2" class="node">
<title>EndBlock</title>
<g id="a_node2"><a xlink:href="../pyVHDLParser.Blocks.Generic1.html#pyVHDLParser.Blocks.Generic1.EndBlock" xlink:title="EndBlock" target="_top">
<polygon fill="white" stroke="#1e90ff" points="293,-248803.78 217,-248803.78 217,-248785.28 293,-248785.28 293,-248803.78"/>
<text text-anchor="middle" x="255" y="-248790.28" font-family="Vera Sans, DejaVu Sans, Liberation Sans, Arial, Helvetica, sans" font-size="10.00">EndBlock</text>
</a>
</g>
</g>
<!-- EndBlock&#45;&gt;EndBlock -->
<g id="edge1" class="edge">
<title>EndBlock&#45;&gt;EndBlock</title>
<path fill="none" stroke="black" stroke-width="0.5" d="M236.58,-248804.03C227.62,-248812.6 233.76,-248821.78 255,-248821.78 272.26,-248821.78 279.55,-248815.72 276.87,-248808.85"/>
<polygon fill="black" stroke="black" stroke-width="0.5" points="277.75,-248807.08 273.42,-248804.03 274.9,-248809.11 277.75,-248807.08"/>
</g>
<!-- FinalBlock&#45;&gt;EndBlock -->
<g id="edge2" class="edge">
<title>FinalBlock&#45;&gt;EndBlock</title>
<path fill="none" stroke="black" stroke-width="0.5" d="M181.26,-248794.53C190.92,-248794.53 201.13,-248794.53 210.74,-248794.53"/>
<polygon fill="black" stroke="black" stroke-width="0.5" points="211.63,-248796.28 216.63,-248794.53 211.63,-248792.78 211.63,-248796.28"/>
</g>
</g>
</svg>
