<?xml version="1.0" encoding="UTF-8" standalone="no"?>
<!DOCTYPE svg PUBLIC "-//W3C//DTD SVG 1.1//EN"
 "http://www.w3.org/Graphics/SVG/1.1/DTD/svg11.dtd">
<!-- Generated by graphviz version 8.0.5 (20230430.1635)
 -->
<!-- Title: inheritance7c74b26020 Pages: 1 -->
<svg width="1pt" height="864pt"
 viewBox="0.00 0.00 0.92 864.00" xmlns="http://www.w3.org/2000/svg" xmlns:xlink="http://www.w3.org/1999/xlink">
<g id="graph0" class="graph" transform="scale(0.00155684 0.00155684) rotate(0) translate(4 554965.42)">
<title>inheritance7c74b26020</title>
<!-- KeywordToken -->
<g id="node1" class="node">
<title>KeywordToken</title>
<g id="a_node1"><a xlink:href="../pyVHDLParser/pyVHDLParser.Token.Keywords.html#pyVHDLParser.Token.Keywords.KeywordToken" xlink:title="KeywordToken" target="_top">
<polygon fill="white" stroke="#1e90ff" points="450,-277489.96 344,-277489.96 344,-277471.46 450,-277471.46 450,-277489.96"/>
<text text-anchor="middle" x="397" y="-277476.46" font-family="Vera Sans, DejaVu Sans, Liberation Sans, Arial, Helvetica, sans" font-size="10.00">KeywordToken</text>
</a>
</g>
</g>
<!-- NullKeyword -->
<g id="node3" class="node">
<title>NullKeyword</title>
<g id="a_node3"><a xlink:href="../pyVHDLParser/pyVHDLParser.Token.Keywords.html#pyVHDLParser.Token.Keywords.NullKeyword" xlink:title="NullKeyword" target="_top">
<polygon fill="white" stroke="#1e90ff" points="584.5,-554961.42 486,-554961.42 486,0 584.5,0 584.5,-554961.42"/>
<text text-anchor="middle" x="535.25" y="-554947.92" font-family="Vera Sans, DejaVu Sans, Liberation Sans, Arial, Helvetica, sans" font-size="10.00">NullKeyword</text>
</a>
</g>
</g>
<!-- KeywordToken&#45;&gt;NullKeyword -->
<g id="edge2" class="edge">
<title>KeywordToken&#45;&gt;NullKeyword</title>
<path fill="none" stroke="black" stroke-width="0.5" d="M450.29,-277480.71C460.07,-277480.71 470.32,-277480.71 480.16,-277480.71"/>
<polygon fill="black" stroke="black" stroke-width="0.5" points="480.9,-277482.46 485.9,-277480.71 480.9,-277478.96 480.9,-277482.46"/>
</g>
<!-- VHDLToken -->
<g id="node2" class="node">
<title>VHDLToken</title>
<g id="a_node2"><a xlink:href="../pyVHDLParser.Token.html#pyVHDLParser.Token.VHDLToken" xlink:title="Base&#45;class for all VHDL specific tokens." target="_top">
<polygon fill="white" stroke="#1e90ff" points="308,-277489.96 224.5,-277489.96 224.5,-277471.46 308,-277471.46 308,-277489.96"/>
<text text-anchor="middle" x="266.25" y="-277476.46" font-family="Vera Sans, DejaVu Sans, Liberation Sans, Arial, Helvetica, sans" font-size="10.00">VHDLToken</text>
</a>
</g>
</g>
<!-- VHDLToken&#45;&gt;KeywordToken -->
<g id="edge1" class="edge">
<title>VHDLToken&#45;&gt;KeywordToken</title>
<path fill="none" stroke="black" stroke-width="0.5" d="M308.34,-277480.71C317.69,-277480.71 327.8,-277480.71 337.71,-277480.71"/>
<polygon fill="black" stroke="black" stroke-width="0.5" points="338.52,-277482.46 343.52,-277480.71 338.52,-277478.96 338.52,-277482.46"/>
</g>
<!-- Token -->
<g id="node4" class="node">
<title>Token</title>
<g id="a_node4"><a xlink:href="../pyVHDLParser.Token.html#pyVHDLParser.Token.Token" xlink:title="Base&#45;class for all token classes." target="_top">
<polygon fill="white" stroke="#1e90ff" points="54,-554961.37 0,-554961.37 0,-0.05 54,-0.05 54,-554961.37"/>
<text text-anchor="middle" x="27" y="-554947.87" font-family="Vera Sans, DejaVu Sans, Liberation Sans, Arial, Helvetica, sans" font-size="10.00">Token</text>
</a>
</g>
</g>
<!-- ValuedToken -->
<g id="node5" class="node">
<title>ValuedToken</title>
<g id="a_node5"><a xlink:href="../pyVHDLParser.Token.html#pyVHDLParser.Token.ValuedToken" xlink:title="Base&#45;class for all *valued* token." target="_top">
<polygon fill="white" stroke="#1e90ff" points="188.5,-277489.96 90,-277489.96 90,-277471.46 188.5,-277471.46 188.5,-277489.96"/>
<text text-anchor="middle" x="139.25" y="-277476.46" font-family="Vera Sans, DejaVu Sans, Liberation Sans, Arial, Helvetica, sans" font-size="10.00">ValuedToken</text>
</a>
</g>
</g>
<!-- Token&#45;&gt;ValuedToken -->
<g id="edge4" class="edge">
<title>Token&#45;&gt;ValuedToken</title>
<path fill="none" stroke="black" stroke-width="0.5" d="M54.41,-277480.71C63.25,-277480.71 73.45,-277480.71 83.64,-277480.71"/>
<polygon fill="black" stroke="black" stroke-width="0.5" points="84.62,-277482.46 89.62,-277480.71 84.62,-277478.96 84.62,-277482.46"/>
</g>
<!-- ValuedToken&#45;&gt;VHDLToken -->
<g id="edge3" class="edge">
<title>ValuedToken&#45;&gt;VHDLToken</title>
<path fill="none" stroke="black" stroke-width="0.5" d="M188.94,-277480.71C198.59,-277480.71 208.7,-277480.71 218.29,-277480.71"/>
<polygon fill="black" stroke="black" stroke-width="0.5" points="219.19,-277482.46 224.19,-277480.71 219.19,-277478.96 219.19,-277482.46"/>
</g>
</g>
</svg>
