<?xml version="1.0" encoding="UTF-8" standalone="no"?>
<!DOCTYPE svg PUBLIC "-//W3C//DTD SVG 1.1//EN"
 "http://www.w3.org/Graphics/SVG/1.1/DTD/svg11.dtd">
<!-- Generated by graphviz version 8.0.5 (20230430.1635)
 -->
<!-- Title: inheritance9af29ede31 Pages: 1 -->
<svg width="1pt" height="864pt"
 viewBox="0.00 0.00 0.52 864.00" xmlns="http://www.w3.org/2000/svg" xmlns:xlink="http://www.w3.org/1999/xlink">
<g id="graph0" class="graph" transform="scale(0.000861242 0.000861242) rotate(0) translate(4 1003198.42)">
<title>inheritance9af29ede31</title>
<!-- KeywordToken -->
<g id="node1" class="node">
<title>KeywordToken</title>
<g id="a_node1"><a xlink:href="../pyVHDLParser/pyVHDLParser.Token.Keywords.html#pyVHDLParser.Token.Keywords.KeywordToken" xlink:title="KeywordToken" target="_top">
<polygon fill="white" stroke="#1e90ff" points="450,-501606.46 344,-501606.46 344,-501587.96 450,-501587.96 450,-501606.46"/>
<text text-anchor="middle" x="397" y="-501592.96" font-family="Vera Sans, DejaVu Sans, Liberation Sans, Arial, Helvetica, sans" font-size="10.00">KeywordToken</text>
</a>
</g>
</g>
<!-- SignalKeyword -->
<g id="node3" class="node">
<title>SignalKeyword</title>
<g id="a_node3"><a xlink:href="../pyVHDLParser/pyVHDLParser.Token.Keywords.html#pyVHDLParser.Token.Keywords.SignalKeyword" xlink:title="SignalKeyword" target="_top">
<polygon fill="white" stroke="#1e90ff" points="599.5,-1003194.42 486,-1003194.42 486,0 599.5,0 599.5,-1003194.42"/>
<text text-anchor="middle" x="542.75" y="-1003180.92" font-family="Vera Sans, DejaVu Sans, Liberation Sans, Arial, Helvetica, sans" font-size="10.00">SignalKeyword</text>
</a>
</g>
</g>
<!-- KeywordToken&#45;&gt;SignalKeyword -->
<g id="edge2" class="edge">
<title>KeywordToken&#45;&gt;SignalKeyword</title>
<path fill="none" stroke="black" stroke-width="0.5" d="M450.3,-501597.21C459.97,-501597.21 470.14,-501597.21 480.05,-501597.21"/>
<polygon fill="black" stroke="black" stroke-width="0.5" points="480.85,-501598.96 485.85,-501597.21 480.85,-501595.46 480.85,-501598.96"/>
</g>
<!-- VHDLToken -->
<g id="node2" class="node">
<title>VHDLToken</title>
<g id="a_node2"><a xlink:href="../pyVHDLParser.Token.html#pyVHDLParser.Token.VHDLToken" xlink:title="Base&#45;class for all VHDL specific tokens." target="_top">
<polygon fill="white" stroke="#1e90ff" points="308,-501606.46 224.5,-501606.46 224.5,-501587.96 308,-501587.96 308,-501606.46"/>
<text text-anchor="middle" x="266.25" y="-501592.96" font-family="Vera Sans, DejaVu Sans, Liberation Sans, Arial, Helvetica, sans" font-size="10.00">VHDLToken</text>
</a>
</g>
</g>
<!-- VHDLToken&#45;&gt;KeywordToken -->
<g id="edge1" class="edge">
<title>VHDLToken&#45;&gt;KeywordToken</title>
<path fill="none" stroke="black" stroke-width="0.5" d="M308.34,-501597.21C317.69,-501597.21 327.8,-501597.21 337.71,-501597.21"/>
<polygon fill="black" stroke="black" stroke-width="0.5" points="338.52,-501598.96 343.52,-501597.21 338.52,-501595.46 338.52,-501598.96"/>
</g>
<!-- Token -->
<g id="node4" class="node">
<title>Token</title>
<g id="a_node4"><a xlink:href="../pyVHDLParser.Token.html#pyVHDLParser.Token.Token" xlink:title="Base&#45;class for all token classes." target="_top">
<polygon fill="white" stroke="#1e90ff" points="54,-1003194.37 0,-1003194.37 0,-0.05 54,-0.05 54,-1003194.37"/>
<text text-anchor="middle" x="27" y="-1003180.87" font-family="Vera Sans, DejaVu Sans, Liberation Sans, Arial, Helvetica, sans" font-size="10.00">Token</text>
</a>
</g>
</g>
<!-- ValuedToken -->
<g id="node5" class="node">
<title>ValuedToken</title>
<g id="a_node5"><a xlink:href="../pyVHDLParser.Token.html#pyVHDLParser.Token.ValuedToken" xlink:title="Base&#45;class for all *valued* token." target="_top">
<polygon fill="white" stroke="#1e90ff" points="188.5,-501606.46 90,-501606.46 90,-501587.96 188.5,-501587.96 188.5,-501606.46"/>
<text text-anchor="middle" x="139.25" y="-501592.96" font-family="Vera Sans, DejaVu Sans, Liberation Sans, Arial, Helvetica, sans" font-size="10.00">ValuedToken</text>
</a>
</g>
</g>
<!-- Token&#45;&gt;ValuedToken -->
<g id="edge4" class="edge">
<title>Token&#45;&gt;ValuedToken</title>
<path fill="none" stroke="black" stroke-width="0.5" d="M54.41,-501597.21C63.25,-501597.21 73.45,-501597.21 83.64,-501597.21"/>
<polygon fill="black" stroke="black" stroke-width="0.5" points="84.62,-501598.96 89.62,-501597.21 84.62,-501595.46 84.62,-501598.96"/>
</g>
<!-- ValuedToken&#45;&gt;VHDLToken -->
<g id="edge3" class="edge">
<title>ValuedToken&#45;&gt;VHDLToken</title>
<path fill="none" stroke="black" stroke-width="0.5" d="M188.94,-501597.21C198.59,-501597.21 208.7,-501597.21 218.29,-501597.21"/>
<polygon fill="black" stroke="black" stroke-width="0.5" points="219.19,-501598.96 224.19,-501597.21 219.19,-501595.46 219.19,-501598.96"/>
</g>
</g>
</svg>
