<?xml version="1.0" encoding="UTF-8" standalone="no"?>
<!DOCTYPE svg PUBLIC "-//W3C//DTD SVG 1.1//EN"
 "http://www.w3.org/Graphics/SVG/1.1/DTD/svg11.dtd">
<!-- Generated by graphviz version 8.0.5 (20230430.1635)
 -->
<!-- Title: inheritance4e0e4303f5 Pages: 1 -->
<svg width="0pt" height="864pt"
 viewBox="0.00 0.00 0.23 864.00" xmlns="http://www.w3.org/2000/svg" xmlns:xlink="http://www.w3.org/1999/xlink">
<g id="graph0" class="graph" transform="scale(0.000749075 0.000749075) rotate(0) translate(4 1153419.07)">
<title>inheritance4e0e4303f5</title>
<!-- Block -->
<g id="node1" class="node">
<title>Block</title>
<g id="a_node1"><a xlink:href="../pyVHDLParser.Blocks.html#pyVHDLParser.Blocks.Block" xlink:title="Base&#45;class for all :term:`block` classes." target="_top">
<polygon fill="white" stroke="#1e90ff" points="54,-1153415.07 0,-1153415.07 0,0 54,0 54,-1153415.07"/>
<text text-anchor="middle" x="27" y="-1153401.57" font-family="Vera Sans, DejaVu Sans, Liberation Sans, Arial, Helvetica, sans" font-size="10.00">Block</text>
</a>
</g>
</g>
<!-- FinalBlock -->
<g id="node3" class="node">
<title>FinalBlock</title>
<g id="a_node3"><a xlink:href="../pyVHDLParser.Blocks.html#pyVHDLParser.Blocks.FinalBlock" xlink:title="Base&#45;class for blocks that are final in a fast&#45;forward scanning." target="_top">
<polygon fill="white" stroke="#1e90ff" points="181,-576716.82 90,-576716.82 90,-576698.25 181,-576698.25 181,-576716.82"/>
<text text-anchor="middle" x="135.5" y="-576703.32" font-family="Vera Sans, DejaVu Sans, Liberation Sans, Arial, Helvetica, sans" font-size="10.00">FinalBlock</text>
</a>
</g>
</g>
<!-- Block&#45;&gt;FinalBlock -->
<g id="edge3" class="edge">
<title>Block&#45;&gt;FinalBlock</title>
<path fill="none" stroke="black" stroke-width="0.5" d="M54.33,-576707.54C63.29,-576707.54 73.62,-576707.54 83.84,-576707.54"/>
<polygon fill="black" stroke="black" stroke-width="0.5" points="84.82,-576709.29 89.82,-576707.54 84.82,-576705.79 84.82,-576709.29"/>
</g>
<!-- EndBlock -->
<g id="node2" class="node">
<title>EndBlock</title>
<g id="a_node2"><a xlink:href="../pyVHDLParser/pyVHDLParser.Blocks.Structural.Configuration.html#pyVHDLParser.Blocks.Structural.Configuration.EndBlock" xlink:title="EndBlock" target="_top">
<polygon fill="white" stroke="#1e90ff" points="293,-576716.79 217,-576716.79 217,-576698.28 293,-576698.28 293,-576716.79"/>
<text text-anchor="middle" x="255" y="-576703.29" font-family="Vera Sans, DejaVu Sans, Liberation Sans, Arial, Helvetica, sans" font-size="10.00">EndBlock</text>
</a>
</g>
</g>
<!-- EndBlock&#45;&gt;EndBlock -->
<g id="edge2" class="edge">
<title>EndBlock&#45;&gt;EndBlock</title>
<path fill="none" stroke="black" stroke-width="0.5" d="M236.58,-576717.03C227.62,-576725.6 233.76,-576734.79 255,-576734.79 272.26,-576734.79 279.55,-576728.72 276.87,-576721.85"/>
<polygon fill="black" stroke="black" stroke-width="0.5" points="277.75,-576720.08 273.42,-576717.03 274.9,-576722.12 277.75,-576720.08"/>
</g>
<!-- FinalBlock&#45;&gt;EndBlock -->
<g id="edge1" class="edge">
<title>FinalBlock&#45;&gt;EndBlock</title>
<path fill="none" stroke="black" stroke-width="0.5" d="M181.26,-576707.54C190.92,-576707.54 201.13,-576707.54 210.74,-576707.54"/>
<polygon fill="black" stroke="black" stroke-width="0.5" points="211.63,-576709.29 216.63,-576707.54 211.63,-576705.79 211.63,-576709.29"/>
</g>
</g>
</svg>
