<?xml version="1.0" encoding="UTF-8" standalone="no"?>
<!DOCTYPE svg PUBLIC "-//W3C//DTD SVG 1.1//EN"
 "http://www.w3.org/Graphics/SVG/1.1/DTD/svg11.dtd">
<!-- Generated by graphviz version 8.0.5 (20230430.1635)
 -->
<!-- Title: inheritance46ed7c84f4 Pages: 1 -->
<svg width="0pt" height="864pt"
 viewBox="0.00 0.00 0.35 864.00" xmlns="http://www.w3.org/2000/svg" xmlns:xlink="http://www.w3.org/1999/xlink">
<g id="graph0" class="graph" transform="scale(0.000597781 0.000597781) rotate(0) translate(4 1445341.41)">
<title>inheritance46ed7c84f4</title>
<!-- BusKeyword -->
<g id="node1" class="node">
<title>BusKeyword</title>
<g id="a_node1"><a xlink:href="../pyVHDLParser/pyVHDLParser.Token.Keywords.html#pyVHDLParser.Token.Keywords.BusKeyword" xlink:title="Reserved word &#39;bus&#39;." target="_top">
<polygon fill="white" stroke="#1e90ff" points="577,-722677.95 486,-722677.95 486,-722659.45 577,-722659.45 577,-722677.95"/>
<text text-anchor="middle" x="531.5" y="-722664.45" font-family="Vera Sans, DejaVu Sans, Liberation Sans, Arial, Helvetica, sans" font-size="10.00">BusKeyword</text>
</a>
</g>
</g>
<!-- KeywordToken -->
<g id="node2" class="node">
<title>KeywordToken</title>
<g id="a_node2"><a xlink:href="../pyVHDLParser/pyVHDLParser.Token.Keywords.html#pyVHDLParser.Token.Keywords.KeywordToken" xlink:title="KeywordToken" target="_top">
<polygon fill="white" stroke="#1e90ff" points="450,-722677.95 344,-722677.95 344,-722659.45 450,-722659.45 450,-722677.95"/>
<text text-anchor="middle" x="397" y="-722664.45" font-family="Vera Sans, DejaVu Sans, Liberation Sans, Arial, Helvetica, sans" font-size="10.00">KeywordToken</text>
</a>
</g>
</g>
<!-- KeywordToken&#45;&gt;BusKeyword -->
<g id="edge1" class="edge">
<title>KeywordToken&#45;&gt;BusKeyword</title>
<path fill="none" stroke="black" stroke-width="0.5" d="M450.37,-722668.7C460.07,-722668.7 470.19,-722668.7 479.84,-722668.7"/>
<polygon fill="black" stroke="black" stroke-width="0.5" points="480.79,-722670.45 485.79,-722668.7 480.79,-722666.95 480.79,-722670.45"/>
</g>
<!-- VHDLToken -->
<g id="node3" class="node">
<title>VHDLToken</title>
<g id="a_node3"><a xlink:href="../pyVHDLParser.Token.html#pyVHDLParser.Token.VHDLToken" xlink:title="Base&#45;class for all VHDL specific tokens." target="_top">
<polygon fill="white" stroke="#1e90ff" points="308,-1445337.41 224.5,-1445337.41 224.5,0 308,0 308,-1445337.41"/>
<text text-anchor="middle" x="266.25" y="-1445323.91" font-family="Vera Sans, DejaVu Sans, Liberation Sans, Arial, Helvetica, sans" font-size="10.00">VHDLToken</text>
</a>
</g>
</g>
<!-- VHDLToken&#45;&gt;KeywordToken -->
<g id="edge2" class="edge">
<title>VHDLToken&#45;&gt;KeywordToken</title>
<path fill="none" stroke="black" stroke-width="0.5" d="M308.34,-722668.7C317.69,-722668.7 327.8,-722668.7 337.71,-722668.7"/>
<polygon fill="black" stroke="black" stroke-width="0.5" points="338.52,-722670.45 343.52,-722668.7 338.52,-722666.95 338.52,-722670.45"/>
</g>
<!-- Token -->
<g id="node4" class="node">
<title>Token</title>
<g id="a_node4"><a xlink:href="../pyVHDLParser.Token.html#pyVHDLParser.Token.Token" xlink:title="Base&#45;class for all token classes." target="_top">
<polygon fill="white" stroke="#1e90ff" points="54,-1445337.36 0,-1445337.36 0,-0.05 54,-0.05 54,-1445337.36"/>
<text text-anchor="middle" x="27" y="-1445323.86" font-family="Vera Sans, DejaVu Sans, Liberation Sans, Arial, Helvetica, sans" font-size="10.00">Token</text>
</a>
</g>
</g>
<!-- ValuedToken -->
<g id="node5" class="node">
<title>ValuedToken</title>
<g id="a_node5"><a xlink:href="../pyVHDLParser.Token.html#pyVHDLParser.Token.ValuedToken" xlink:title="Base&#45;class for all *valued* token." target="_top">
<polygon fill="white" stroke="#1e90ff" points="188.5,-722683.45 90,-722683.45 90,-722653.95 188.5,-722653.95 188.5,-722683.45"/>
<text text-anchor="middle" x="139.25" y="-722669.95" font-family="Vera Sans, DejaVu Sans, Liberation Sans, Arial, Helvetica, sans" font-size="10.00">ValuedToken</text>
</a>
</g>
</g>
<!-- Token&#45;&gt;ValuedToken -->
<g id="edge4" class="edge">
<title>Token&#45;&gt;ValuedToken</title>
<path fill="none" stroke="black" stroke-width="0.5" d="M54.41,-722668.7C63.25,-722668.7 73.45,-722668.7 83.64,-722668.7"/>
<polygon fill="black" stroke="black" stroke-width="0.5" points="84.62,-722670.45 89.62,-722668.7 84.62,-722666.95 84.62,-722670.45"/>
</g>
<!-- ValuedToken&#45;&gt;VHDLToken -->
<g id="edge3" class="edge">
<title>ValuedToken&#45;&gt;VHDLToken</title>
<path fill="none" stroke="black" stroke-width="0.5" d="M188.94,-722668.7C198.59,-722668.7 208.7,-722668.7 218.29,-722668.7"/>
<polygon fill="black" stroke="black" stroke-width="0.5" points="219.19,-722670.45 224.19,-722668.7 219.19,-722666.95 219.19,-722670.45"/>
</g>
</g>
</svg>
