<?xml version="1.0" encoding="UTF-8" standalone="no"?>
<!DOCTYPE svg PUBLIC "-//W3C//DTD SVG 1.1//EN"
 "http://www.w3.org/Graphics/SVG/1.1/DTD/svg11.dtd">
<!-- Generated by graphviz version 8.0.5 (20230430.1635)
 -->
<!-- Title: inheritance69f6c1b3ea Pages: 1 -->
<svg width="548pt" height="27pt"
 viewBox="0.00 0.00 548.00 26.57" xmlns="http://www.w3.org/2000/svg" xmlns:xlink="http://www.w3.org/1999/xlink">
<g id="graph0" class="graph" transform="scale(1 1) rotate(0) translate(4 22.57)">
<title>inheritance69f6c1b3ea</title>
<!-- CharacterToken -->
<g id="node1" class="node">
<title>CharacterToken</title>
<g id="a_node1"><a xlink:href="../pyVHDLParser/pyVHDLParser.Token.html#pyVHDLParser.Token.CharacterToken" xlink:title="Token representing a single character." target="_top">
<polygon fill="white" stroke="#1e90ff" points="345.5,-18.54 224.5,-18.54 224.5,-0.04 345.5,-0.04 345.5,-18.54"/>
<text text-anchor="middle" x="285" y="-5.04" font-family="Vera Sans, DejaVu Sans, Liberation Sans, Arial, Helvetica, sans" font-size="10.00">CharacterToken</text>
</a>
</g>
</g>
<!-- FusedCharacterToken -->
<g id="node3" class="node">
<title>FusedCharacterToken</title>
<g id="a_node3"><a xlink:href="../pyVHDLParser/pyVHDLParser.Token.html#pyVHDLParser.Token.FusedCharacterToken" xlink:title="Token representing a double (or triple) character." target="_top">
<polygon fill="white" stroke="#1e90ff" points="540,-18.57 381.5,-18.57 381.5,0 540,0 540,-18.57"/>
<text text-anchor="middle" x="460.75" y="-5.07" font-family="Vera Sans, DejaVu Sans, Liberation Sans, Arial, Helvetica, sans" font-size="10.00">FusedCharacterToken</text>
</a>
</g>
</g>
<!-- CharacterToken&#45;&gt;FusedCharacterToken -->
<g id="edge2" class="edge">
<title>CharacterToken&#45;&gt;FusedCharacterToken</title>
<path fill="none" stroke="black" stroke-width="0.5" d="M345.79,-9.29C355.31,-9.29 365.31,-9.29 375.27,-9.29"/>
<polygon fill="black" stroke="black" stroke-width="0.5" points="376.13,-11.04 381.13,-9.29 376.13,-7.54 376.13,-11.04"/>
</g>
<!-- ValuedToken -->
<g id="node2" class="node">
<title>ValuedToken</title>
<g id="a_node2"><a xlink:href="../pyVHDLParser/pyVHDLParser.Token.html#pyVHDLParser.Token.ValuedToken" xlink:title="Base&#45;class for all *valued* token." target="_top">
<polygon fill="white" stroke="#1e90ff" points="188.5,-18.54 90,-18.54 90,-0.04 188.5,-0.04 188.5,-18.54"/>
<text text-anchor="middle" x="139.25" y="-5.04" font-family="Vera Sans, DejaVu Sans, Liberation Sans, Arial, Helvetica, sans" font-size="10.00">ValuedToken</text>
</a>
</g>
</g>
<!-- ValuedToken&#45;&gt;CharacterToken -->
<g id="edge1" class="edge">
<title>ValuedToken&#45;&gt;CharacterToken</title>
<path fill="none" stroke="black" stroke-width="0.5" d="M188.92,-9.29C198.38,-9.29 208.45,-9.29 218.35,-9.29"/>
<polygon fill="black" stroke="black" stroke-width="0.5" points="219.16,-11.04 224.16,-9.29 219.16,-7.54 219.16,-11.04"/>
</g>
<!-- Token -->
<g id="node4" class="node">
<title>Token</title>
<g id="a_node4"><a xlink:href="../pyVHDLParser/pyVHDLParser.Token.html#pyVHDLParser.Token.Token" xlink:title="Base&#45;class for all token classes." target="_top">
<polygon fill="white" stroke="#1e90ff" points="54,-18.54 0,-18.54 0,-0.04 54,-0.04 54,-18.54"/>
<text text-anchor="middle" x="27" y="-5.04" font-family="Vera Sans, DejaVu Sans, Liberation Sans, Arial, Helvetica, sans" font-size="10.00">Token</text>
</a>
</g>
</g>
<!-- Token&#45;&gt;ValuedToken -->
<g id="edge3" class="edge">
<title>Token&#45;&gt;ValuedToken</title>
<path fill="none" stroke="black" stroke-width="0.5" d="M54.41,-9.29C63.25,-9.29 73.45,-9.29 83.64,-9.29"/>
<polygon fill="black" stroke="black" stroke-width="0.5" points="84.62,-11.04 89.62,-9.29 84.62,-7.54 84.62,-11.04"/>
</g>
</g>
</svg>
