<?xml version="1.0" encoding="UTF-8" standalone="no"?>
<!DOCTYPE svg PUBLIC "-//W3C//DTD SVG 1.1//EN"
 "http://www.w3.org/Graphics/SVG/1.1/DTD/svg11.dtd">
<!-- Generated by graphviz version 8.0.5 (20230430.1635)
 -->
<!-- Title: inheritance0c7d0e6fe3 Pages: 1 -->
<svg width="1pt" height="864pt"
 viewBox="0.00 0.00 0.68 864.00" xmlns="http://www.w3.org/2000/svg" xmlns:xlink="http://www.w3.org/1999/xlink">
<g id="graph0" class="graph" transform="scale(0.00112108 0.00112108) rotate(0) translate(4 770683.42)">
<title>inheritance0c7d0e6fe3</title>
<!-- KeywordToken -->
<g id="node1" class="node">
<title>KeywordToken</title>
<g id="a_node1"><a xlink:href="../pyVHDLParser/pyVHDLParser.Token.Keywords.html#pyVHDLParser.Token.Keywords.KeywordToken" xlink:title="KeywordToken" target="_top">
<polygon fill="white" stroke="#1e90ff" points="450,-385348.96 344,-385348.96 344,-385330.46 450,-385330.46 450,-385348.96"/>
<text text-anchor="middle" x="397" y="-385335.46" font-family="Vera Sans, DejaVu Sans, Liberation Sans, Arial, Helvetica, sans" font-size="10.00">KeywordToken</text>
</a>
</g>
</g>
<!-- ReturnKeyword -->
<g id="node3" class="node">
<title>ReturnKeyword</title>
<g id="a_node3"><a xlink:href="../pyVHDLParser/pyVHDLParser.Token.Keywords.html#pyVHDLParser.Token.Keywords.ReturnKeyword" xlink:title="ReturnKeyword" target="_top">
<polygon fill="white" stroke="#1e90ff" points="599.5,-770679.42 486,-770679.42 486,0 599.5,0 599.5,-770679.42"/>
<text text-anchor="middle" x="542.75" y="-770665.92" font-family="Vera Sans, DejaVu Sans, Liberation Sans, Arial, Helvetica, sans" font-size="10.00">ReturnKeyword</text>
</a>
</g>
</g>
<!-- KeywordToken&#45;&gt;ReturnKeyword -->
<g id="edge2" class="edge">
<title>KeywordToken&#45;&gt;ReturnKeyword</title>
<path fill="none" stroke="black" stroke-width="0.5" d="M450.3,-385339.71C459.97,-385339.71 470.14,-385339.71 480.05,-385339.71"/>
<polygon fill="black" stroke="black" stroke-width="0.5" points="480.85,-385341.46 485.85,-385339.71 480.85,-385337.96 480.85,-385341.46"/>
</g>
<!-- VHDLToken -->
<g id="node2" class="node">
<title>VHDLToken</title>
<g id="a_node2"><a xlink:href="../pyVHDLParser.Token.html#pyVHDLParser.Token.VHDLToken" xlink:title="Base&#45;class for all VHDL specific tokens." target="_top">
<polygon fill="white" stroke="#1e90ff" points="308,-385348.96 224.5,-385348.96 224.5,-385330.46 308,-385330.46 308,-385348.96"/>
<text text-anchor="middle" x="266.25" y="-385335.46" font-family="Vera Sans, DejaVu Sans, Liberation Sans, Arial, Helvetica, sans" font-size="10.00">VHDLToken</text>
</a>
</g>
</g>
<!-- VHDLToken&#45;&gt;KeywordToken -->
<g id="edge1" class="edge">
<title>VHDLToken&#45;&gt;KeywordToken</title>
<path fill="none" stroke="black" stroke-width="0.5" d="M308.34,-385339.71C317.69,-385339.71 327.8,-385339.71 337.71,-385339.71"/>
<polygon fill="black" stroke="black" stroke-width="0.5" points="338.52,-385341.46 343.52,-385339.71 338.52,-385337.96 338.52,-385341.46"/>
</g>
<!-- Token -->
<g id="node4" class="node">
<title>Token</title>
<g id="a_node4"><a xlink:href="../pyVHDLParser.Token.html#pyVHDLParser.Token.Token" xlink:title="Base&#45;class for all token classes." target="_top">
<polygon fill="white" stroke="#1e90ff" points="54,-770679.37 0,-770679.37 0,-0.05 54,-0.05 54,-770679.37"/>
<text text-anchor="middle" x="27" y="-770665.87" font-family="Vera Sans, DejaVu Sans, Liberation Sans, Arial, Helvetica, sans" font-size="10.00">Token</text>
</a>
</g>
</g>
<!-- ValuedToken -->
<g id="node5" class="node">
<title>ValuedToken</title>
<g id="a_node5"><a xlink:href="../pyVHDLParser.Token.html#pyVHDLParser.Token.ValuedToken" xlink:title="Base&#45;class for all *valued* token." target="_top">
<polygon fill="white" stroke="#1e90ff" points="188.5,-385348.96 90,-385348.96 90,-385330.46 188.5,-385330.46 188.5,-385348.96"/>
<text text-anchor="middle" x="139.25" y="-385335.46" font-family="Vera Sans, DejaVu Sans, Liberation Sans, Arial, Helvetica, sans" font-size="10.00">ValuedToken</text>
</a>
</g>
</g>
<!-- Token&#45;&gt;ValuedToken -->
<g id="edge4" class="edge">
<title>Token&#45;&gt;ValuedToken</title>
<path fill="none" stroke="black" stroke-width="0.5" d="M54.41,-385339.71C63.25,-385339.71 73.45,-385339.71 83.64,-385339.71"/>
<polygon fill="black" stroke="black" stroke-width="0.5" points="84.62,-385341.46 89.62,-385339.71 84.62,-385337.96 84.62,-385341.46"/>
</g>
<!-- ValuedToken&#45;&gt;VHDLToken -->
<g id="edge3" class="edge">
<title>ValuedToken&#45;&gt;VHDLToken</title>
<path fill="none" stroke="black" stroke-width="0.5" d="M188.94,-385339.71C198.59,-385339.71 208.7,-385339.71 218.29,-385339.71"/>
<polygon fill="black" stroke="black" stroke-width="0.5" points="219.19,-385341.46 224.19,-385339.71 219.19,-385337.96 219.19,-385341.46"/>
</g>
</g>
</svg>
