<?xml version="1.0" encoding="UTF-8" standalone="no"?>
<!DOCTYPE svg PUBLIC "-//W3C//DTD SVG 1.1//EN"
 "http://www.w3.org/Graphics/SVG/1.1/DTD/svg11.dtd">
<!-- Generated by graphviz version 8.0.5 (20230430.1635)
 -->
<!-- Title: inheritance76111c9cb0 Pages: 1 -->
<svg width="1pt" height="864pt"
 viewBox="0.00 0.00 0.95 864.00" xmlns="http://www.w3.org/2000/svg" xmlns:xlink="http://www.w3.org/1999/xlink">
<g id="graph0" class="graph" transform="scale(0.00151557 0.00151557) rotate(0) translate(4 570079.42)">
<title>inheritance76111c9cb0</title>
<!-- AttributeKeyword -->
<g id="node1" class="node">
<title>AttributeKeyword</title>
<g id="a_node1"><a xlink:href="../pyVHDLParser/pyVHDLParser.Token.Keywords.html#pyVHDLParser.Token.Keywords.AttributeKeyword" xlink:title="Reserved word &#39;attribute&#39;." target="_top">
<polygon fill="white" stroke="#1e90ff" points="622,-285046.96 486,-285046.96 486,-285028.46 622,-285028.46 622,-285046.96"/>
<text text-anchor="middle" x="554" y="-285033.46" font-family="Vera Sans, DejaVu Sans, Liberation Sans, Arial, Helvetica, sans" font-size="10.00">AttributeKeyword</text>
</a>
</g>
</g>
<!-- KeywordToken -->
<g id="node2" class="node">
<title>KeywordToken</title>
<g id="a_node2"><a xlink:href="../pyVHDLParser/pyVHDLParser.Token.Keywords.html#pyVHDLParser.Token.Keywords.KeywordToken" xlink:title="KeywordToken" target="_top">
<polygon fill="white" stroke="#1e90ff" points="450,-285046.96 344,-285046.96 344,-285028.46 450,-285028.46 450,-285046.96"/>
<text text-anchor="middle" x="397" y="-285033.46" font-family="Vera Sans, DejaVu Sans, Liberation Sans, Arial, Helvetica, sans" font-size="10.00">KeywordToken</text>
</a>
</g>
</g>
<!-- KeywordToken&#45;&gt;AttributeKeyword -->
<g id="edge1" class="edge">
<title>KeywordToken&#45;&gt;AttributeKeyword</title>
<path fill="none" stroke="black" stroke-width="0.5" d="M450.48,-285037.71C459.95,-285037.71 469.98,-285037.71 479.91,-285037.71"/>
<polygon fill="black" stroke="black" stroke-width="0.5" points="480.74,-285039.46 485.74,-285037.71 480.74,-285035.96 480.74,-285039.46"/>
</g>
<!-- VHDLToken -->
<g id="node3" class="node">
<title>VHDLToken</title>
<g id="a_node3"><a xlink:href="../pyVHDLParser.Token.html#pyVHDLParser.Token.VHDLToken" xlink:title="Base&#45;class for all VHDL specific tokens." target="_top">
<polygon fill="white" stroke="#1e90ff" points="308,-570075.42 224.5,-570075.42 224.5,0 308,0 308,-570075.42"/>
<text text-anchor="middle" x="266.25" y="-570061.92" font-family="Vera Sans, DejaVu Sans, Liberation Sans, Arial, Helvetica, sans" font-size="10.00">VHDLToken</text>
</a>
</g>
</g>
<!-- VHDLToken&#45;&gt;KeywordToken -->
<g id="edge2" class="edge">
<title>VHDLToken&#45;&gt;KeywordToken</title>
<path fill="none" stroke="black" stroke-width="0.5" d="M308.34,-285037.71C317.69,-285037.71 327.8,-285037.71 337.71,-285037.71"/>
<polygon fill="black" stroke="black" stroke-width="0.5" points="338.52,-285039.46 343.52,-285037.71 338.52,-285035.96 338.52,-285039.46"/>
</g>
<!-- Token -->
<g id="node4" class="node">
<title>Token</title>
<g id="a_node4"><a xlink:href="../pyVHDLParser.Token.html#pyVHDLParser.Token.Token" xlink:title="Base&#45;class for all token classes." target="_top">
<polygon fill="white" stroke="#1e90ff" points="54,-570075.37 0,-570075.37 0,-0.05 54,-0.05 54,-570075.37"/>
<text text-anchor="middle" x="27" y="-570061.87" font-family="Vera Sans, DejaVu Sans, Liberation Sans, Arial, Helvetica, sans" font-size="10.00">Token</text>
</a>
</g>
</g>
<!-- ValuedToken -->
<g id="node5" class="node">
<title>ValuedToken</title>
<g id="a_node5"><a xlink:href="../pyVHDLParser.Token.html#pyVHDLParser.Token.ValuedToken" xlink:title="Base&#45;class for all *valued* token." target="_top">
<polygon fill="white" stroke="#1e90ff" points="188.5,-285046.96 90,-285046.96 90,-285028.46 188.5,-285028.46 188.5,-285046.96"/>
<text text-anchor="middle" x="139.25" y="-285033.46" font-family="Vera Sans, DejaVu Sans, Liberation Sans, Arial, Helvetica, sans" font-size="10.00">ValuedToken</text>
</a>
</g>
</g>
<!-- Token&#45;&gt;ValuedToken -->
<g id="edge4" class="edge">
<title>Token&#45;&gt;ValuedToken</title>
<path fill="none" stroke="black" stroke-width="0.5" d="M54.41,-285037.71C63.25,-285037.71 73.45,-285037.71 83.64,-285037.71"/>
<polygon fill="black" stroke="black" stroke-width="0.5" points="84.62,-285039.46 89.62,-285037.71 84.62,-285035.96 84.62,-285039.46"/>
</g>
<!-- ValuedToken&#45;&gt;VHDLToken -->
<g id="edge3" class="edge">
<title>ValuedToken&#45;&gt;VHDLToken</title>
<path fill="none" stroke="black" stroke-width="0.5" d="M188.94,-285037.71C198.59,-285037.71 208.7,-285037.71 218.29,-285037.71"/>
<polygon fill="black" stroke="black" stroke-width="0.5" points="219.19,-285039.46 224.19,-285037.71 219.19,-285035.96 219.19,-285039.46"/>
</g>
</g>
</svg>
