<?xml version="1.0" encoding="UTF-8" standalone="no"?>
<!DOCTYPE svg PUBLIC "-//W3C//DTD SVG 1.1//EN"
 "http://www.w3.org/Graphics/SVG/1.1/DTD/svg11.dtd">
<!-- Generated by graphviz version 8.0.5 (20230430.1635)
 -->
<!-- Title: inheritance33b60c0a88 Pages: 1 -->
<svg width="1pt" height="864pt"
 viewBox="0.00 0.00 1.09 864.00" xmlns="http://www.w3.org/2000/svg" xmlns:xlink="http://www.w3.org/1999/xlink">
<g id="graph0" class="graph" transform="scale(0.00125929 0.00125929) rotate(0) translate(4 686097.42)">
<title>inheritance33b60c0a88</title>
<!-- KeywordToken -->
<g id="node1" class="node">
<title>KeywordToken</title>
<g id="a_node1"><a xlink:href="../pyVHDLParser/pyVHDLParser.Token.Keywords.html#pyVHDLParser.Token.Keywords.KeywordToken" xlink:title="KeywordToken" target="_top">
<polygon fill="white" stroke="#1e90ff" points="450,-343055.96 344,-343055.96 344,-343037.46 450,-343037.46 450,-343055.96"/>
<text text-anchor="middle" x="397" y="-343042.46" font-family="Vera Sans, DejaVu Sans, Liberation Sans, Arial, Helvetica, sans" font-size="10.00">KeywordToken</text>
</a>
</g>
</g>
<!-- Operator -->
<g id="node4" class="node">
<title>Operator</title>
<g id="a_node4"><a xlink:href="../pyVHDLParser/pyVHDLParser.Token.Keywords.html#pyVHDLParser.Token.Keywords.Operator" xlink:title="Operator" target="_top">
<polygon fill="white" stroke="#1e90ff" points="562,-343055.96 486,-343055.96 486,-343037.46 562,-343037.46 562,-343055.96"/>
<text text-anchor="middle" x="524" y="-343042.46" font-family="Vera Sans, DejaVu Sans, Liberation Sans, Arial, Helvetica, sans" font-size="10.00">Operator</text>
</a>
</g>
</g>
<!-- KeywordToken&#45;&gt;Operator -->
<g id="edge3" class="edge">
<title>KeywordToken&#45;&gt;Operator</title>
<path fill="none" stroke="black" stroke-width="0.5" d="M450.29,-343046.71C460.15,-343046.71 470.36,-343046.71 479.9,-343046.71"/>
<polygon fill="black" stroke="black" stroke-width="0.5" points="480.74,-343048.46 485.74,-343046.71 480.74,-343044.96 480.74,-343048.46"/>
</g>
<!-- VHDLToken -->
<g id="node2" class="node">
<title>VHDLToken</title>
<g id="a_node2"><a xlink:href="../pyVHDLParser.Token.html#pyVHDLParser.Token.VHDLToken" xlink:title="Base&#45;class for all VHDL specific tokens." target="_top">
<polygon fill="white" stroke="#1e90ff" points="308,-686093.42 224.5,-686093.42 224.5,0 308,0 308,-686093.42"/>
<text text-anchor="middle" x="266.25" y="-686079.92" font-family="Vera Sans, DejaVu Sans, Liberation Sans, Arial, Helvetica, sans" font-size="10.00">VHDLToken</text>
</a>
</g>
</g>
<!-- VHDLToken&#45;&gt;KeywordToken -->
<g id="edge1" class="edge">
<title>VHDLToken&#45;&gt;KeywordToken</title>
<path fill="none" stroke="black" stroke-width="0.5" d="M308.34,-343046.71C317.69,-343046.71 327.8,-343046.71 337.71,-343046.71"/>
<polygon fill="black" stroke="black" stroke-width="0.5" points="338.52,-343048.46 343.52,-343046.71 338.52,-343044.96 338.52,-343048.46"/>
</g>
<!-- LogicalOperator -->
<g id="node3" class="node">
<title>LogicalOperator</title>
<g id="a_node3"><a xlink:href="../pyVHDLParser/pyVHDLParser.Token.Keywords.html#pyVHDLParser.Token.Keywords.LogicalOperator" xlink:title="LogicalOperator" target="_top">
<polygon fill="white" stroke="#1e90ff" points="726.5,-686085.69 598,-686085.69 598,-7.73 726.5,-7.73 726.5,-686085.69"/>
<text text-anchor="middle" x="662.25" y="-686072.19" font-family="Vera Sans, DejaVu Sans, Liberation Sans, Arial, Helvetica, sans" font-size="10.00">LogicalOperator</text>
</a>
</g>
</g>
<!-- XorOperator -->
<g id="node7" class="node">
<title>XorOperator</title>
<g id="a_node7"><a xlink:href="../pyVHDLParser/pyVHDLParser.Token.Keywords.html#pyVHDLParser.Token.Keywords.XorOperator" xlink:title="XorOperator" target="_top">
<polygon fill="white" stroke="#1e90ff" points="861,-343055.96 762.5,-343055.96 762.5,-343037.46 861,-343037.46 861,-343055.96"/>
<text text-anchor="middle" x="811.75" y="-343042.46" font-family="Vera Sans, DejaVu Sans, Liberation Sans, Arial, Helvetica, sans" font-size="10.00">XorOperator</text>
</a>
</g>
</g>
<!-- LogicalOperator&#45;&gt;XorOperator -->
<g id="edge6" class="edge">
<title>LogicalOperator&#45;&gt;XorOperator</title>
<path fill="none" stroke="black" stroke-width="0.5" d="M726.66,-343046.71C736.49,-343046.71 746.57,-343046.71 756.18,-343046.71"/>
<polygon fill="black" stroke="black" stroke-width="0.5" points="757.1,-343048.46 762.1,-343046.71 757.1,-343044.96 757.1,-343048.46"/>
</g>
<!-- Operator&#45;&gt;LogicalOperator -->
<g id="edge2" class="edge">
<title>Operator&#45;&gt;LogicalOperator</title>
<path fill="none" stroke="black" stroke-width="0.5" d="M562.23,-343046.71C571.39,-343046.71 581.49,-343046.71 591.63,-343046.71"/>
<polygon fill="black" stroke="black" stroke-width="0.5" points="592.6,-343048.46 597.6,-343046.71 592.6,-343044.96 592.6,-343048.46"/>
</g>
<!-- Token -->
<g id="node5" class="node">
<title>Token</title>
<g id="a_node5"><a xlink:href="../pyVHDLParser.Token.html#pyVHDLParser.Token.Token" xlink:title="Base&#45;class for all token classes." target="_top">
<polygon fill="white" stroke="#1e90ff" points="54,-343059.71 0,-343059.71 0,-343033.71 54,-343033.71 54,-343059.71"/>
<text text-anchor="middle" x="27" y="-343046.21" font-family="Vera Sans, DejaVu Sans, Liberation Sans, Arial, Helvetica, sans" font-size="10.00">Token</text>
</a>
</g>
</g>
<!-- ValuedToken -->
<g id="node6" class="node">
<title>ValuedToken</title>
<g id="a_node6"><a xlink:href="../pyVHDLParser.Token.html#pyVHDLParser.Token.ValuedToken" xlink:title="Base&#45;class for all *valued* token." target="_top">
<polygon fill="white" stroke="#1e90ff" points="188.5,-343055.96 90,-343055.96 90,-343037.46 188.5,-343037.46 188.5,-343055.96"/>
<text text-anchor="middle" x="139.25" y="-343042.46" font-family="Vera Sans, DejaVu Sans, Liberation Sans, Arial, Helvetica, sans" font-size="10.00">ValuedToken</text>
</a>
</g>
</g>
<!-- Token&#45;&gt;ValuedToken -->
<g id="edge5" class="edge">
<title>Token&#45;&gt;ValuedToken</title>
<path fill="none" stroke="black" stroke-width="0.5" d="M54.41,-343046.71C63.25,-343046.71 73.45,-343046.71 83.64,-343046.71"/>
<polygon fill="black" stroke="black" stroke-width="0.5" points="84.62,-343048.46 89.62,-343046.71 84.62,-343044.96 84.62,-343048.46"/>
</g>
<!-- ValuedToken&#45;&gt;VHDLToken -->
<g id="edge4" class="edge">
<title>ValuedToken&#45;&gt;VHDLToken</title>
<path fill="none" stroke="black" stroke-width="0.5" d="M188.94,-343046.71C198.59,-343046.71 208.7,-343046.71 218.29,-343046.71"/>
<polygon fill="black" stroke="black" stroke-width="0.5" points="219.19,-343048.46 224.19,-343046.71 219.19,-343044.96 219.19,-343048.46"/>
</g>
</g>
</svg>
