<?xml version="1.0" encoding="UTF-8" standalone="no"?>
<!DOCTYPE svg PUBLIC "-//W3C//DTD SVG 1.1//EN"
 "http://www.w3.org/Graphics/SVG/1.1/DTD/svg11.dtd">
<!-- Generated by graphviz version 8.0.5 (20230430.1635)
 -->
<!-- Title: inheritance6cac54b768 Pages: 1 -->
<svg width="1pt" height="864pt"
 viewBox="0.00 0.00 1.42 864.00" xmlns="http://www.w3.org/2000/svg" xmlns:xlink="http://www.w3.org/1999/xlink">
<g id="graph0" class="graph" transform="scale(0.00159099 0.00159099) rotate(0) translate(4 543054.11)">
<title>inheritance6cac54b768</title>
<!-- AssignmentKeyword -->
<g id="node1" class="node">
<title>AssignmentKeyword</title>
<g id="a_node1"><a xlink:href="../pyVHDLParser/pyVHDLParser.Token.Keywords.html#pyVHDLParser.Token.Keywords.AssignmentKeyword" xlink:title="Base&#45;class for all assignment keywords: ``:=`` and ``&lt;=``." target="_top">
<polygon fill="white" stroke="#1e90ff" points="659.5,-271534.3 516,-271534.3 516,-271515.8 659.5,-271515.8 659.5,-271534.3"/>
<text text-anchor="middle" x="587.75" y="-271520.8" font-family="Vera Sans, DejaVu Sans, Liberation Sans, Arial, Helvetica, sans" font-size="10.00">AssignmentKeyword</text>
</a>
</g>
</g>
<!-- SignalAssignmentKeyword -->
<g id="node4" class="node">
<title>SignalAssignmentKeyword</title>
<g id="a_node4"><a xlink:href="../pyVHDLParser/pyVHDLParser.Token.Keywords.html#pyVHDLParser.Token.Keywords.SignalAssignmentKeyword" xlink:title="Token representing a signal assignment: ``&lt;=``." target="_top">
<polygon fill="white" stroke="#1e90ff" points="884,-271534.35 695.5,-271534.35 695.5,-271515.76 884,-271515.76 884,-271534.35"/>
<text text-anchor="middle" x="789.75" y="-271520.85" font-family="Vera Sans, DejaVu Sans, Liberation Sans, Arial, Helvetica, sans" font-size="10.00">SignalAssignmentKeyword</text>
</a>
</g>
</g>
<!-- AssignmentKeyword&#45;&gt;SignalAssignmentKeyword -->
<g id="edge3" class="edge">
<title>AssignmentKeyword&#45;&gt;SignalAssignmentKeyword</title>
<path fill="none" stroke="black" stroke-width="0.5" d="M659.83,-271525.05C669.4,-271525.05 679.36,-271525.05 689.31,-271525.05"/>
<polygon fill="black" stroke="black" stroke-width="0.5" points="690.17,-271526.8 695.17,-271525.05 690.17,-271523.3 690.17,-271526.8"/>
</g>
<!-- MultiCharKeyword -->
<g id="node2" class="node">
<title>MultiCharKeyword</title>
<g id="a_node2"><a xlink:href="../pyVHDLParser/pyVHDLParser.Token.Keywords.html#pyVHDLParser.Token.Keywords.MultiCharKeyword" xlink:title="MultiCharKeyword" target="_top">
<polygon fill="white" stroke="#1e90ff" points="480,-271534.3 344,-271534.3 344,-271515.8 480,-271515.8 480,-271534.3"/>
<text text-anchor="middle" x="412" y="-271520.8" font-family="Vera Sans, DejaVu Sans, Liberation Sans, Arial, Helvetica, sans" font-size="10.00">MultiCharKeyword</text>
</a>
</g>
</g>
<!-- MultiCharKeyword&#45;&gt;AssignmentKeyword -->
<g id="edge1" class="edge">
<title>MultiCharKeyword&#45;&gt;AssignmentKeyword</title>
<path fill="none" stroke="black" stroke-width="0.5" d="M480.18,-271525.05C489.92,-271525.05 500,-271525.05 509.91,-271525.05"/>
<polygon fill="black" stroke="black" stroke-width="0.5" points="510.72,-271526.8 515.72,-271525.05 510.72,-271523.3 510.72,-271526.8"/>
</g>
<!-- VHDLToken -->
<g id="node3" class="node">
<title>VHDLToken</title>
<g id="a_node3"><a xlink:href="../pyVHDLParser.Token.html#pyVHDLParser.Token.VHDLToken" xlink:title="Base&#45;class for all VHDL specific tokens." target="_top">
<polygon fill="white" stroke="#1e90ff" points="308,-543050.11 224.5,-543050.11 224.5,0 308,0 308,-543050.11"/>
<text text-anchor="middle" x="266.25" y="-543036.61" font-family="Vera Sans, DejaVu Sans, Liberation Sans, Arial, Helvetica, sans" font-size="10.00">VHDLToken</text>
</a>
</g>
</g>
<!-- VHDLToken&#45;&gt;MultiCharKeyword -->
<g id="edge2" class="edge">
<title>VHDLToken&#45;&gt;MultiCharKeyword</title>
<path fill="none" stroke="black" stroke-width="0.5" d="M308.44,-271525.05C317.67,-271525.05 327.72,-271525.05 337.81,-271525.05"/>
<polygon fill="black" stroke="black" stroke-width="0.5" points="338.75,-271526.8 343.75,-271525.05 338.75,-271523.3 338.75,-271526.8"/>
</g>
<!-- Token -->
<g id="node5" class="node">
<title>Token</title>
<g id="a_node5"><a xlink:href="../pyVHDLParser.Token.html#pyVHDLParser.Token.Token" xlink:title="Base&#45;class for all token classes." target="_top">
<polygon fill="white" stroke="#1e90ff" points="54,-271538.05 0,-271538.05 0,-271512.05 54,-271512.05 54,-271538.05"/>
<text text-anchor="middle" x="27" y="-271524.55" font-family="Vera Sans, DejaVu Sans, Liberation Sans, Arial, Helvetica, sans" font-size="10.00">Token</text>
</a>
</g>
</g>
<!-- ValuedToken -->
<g id="node6" class="node">
<title>ValuedToken</title>
<g id="a_node6"><a xlink:href="../pyVHDLParser.Token.html#pyVHDLParser.Token.ValuedToken" xlink:title="Base&#45;class for all *valued* token." target="_top">
<polygon fill="white" stroke="#1e90ff" points="188.5,-271534.3 90,-271534.3 90,-271515.8 188.5,-271515.8 188.5,-271534.3"/>
<text text-anchor="middle" x="139.25" y="-271520.8" font-family="Vera Sans, DejaVu Sans, Liberation Sans, Arial, Helvetica, sans" font-size="10.00">ValuedToken</text>
</a>
</g>
</g>
<!-- Token&#45;&gt;ValuedToken -->
<g id="edge5" class="edge">
<title>Token&#45;&gt;ValuedToken</title>
<path fill="none" stroke="black" stroke-width="0.5" d="M54.41,-271525.05C63.25,-271525.05 73.45,-271525.05 83.64,-271525.05"/>
<polygon fill="black" stroke="black" stroke-width="0.5" points="84.62,-271526.8 89.62,-271525.05 84.62,-271523.3 84.62,-271526.8"/>
</g>
<!-- ValuedToken&#45;&gt;VHDLToken -->
<g id="edge4" class="edge">
<title>ValuedToken&#45;&gt;VHDLToken</title>
<path fill="none" stroke="black" stroke-width="0.5" d="M188.94,-271525.05C198.59,-271525.05 208.7,-271525.05 218.29,-271525.05"/>
<polygon fill="black" stroke="black" stroke-width="0.5" points="219.19,-271526.8 224.19,-271525.05 219.19,-271523.3 219.19,-271526.8"/>
</g>
</g>
</svg>
