<?xml version="1.0" encoding="UTF-8" standalone="no"?>
<!DOCTYPE svg PUBLIC "-//W3C//DTD SVG 1.1//EN"
 "http://www.w3.org/Graphics/SVG/1.1/DTD/svg11.dtd">
<!-- Generated by graphviz version 8.0.5 (20230430.1635)
 -->
<!-- Title: inheritance8544d78969 Pages: 1 -->
<svg width="1pt" height="864pt"
 viewBox="0.00 0.00 0.89 864.00" xmlns="http://www.w3.org/2000/svg" xmlns:xlink="http://www.w3.org/1999/xlink">
<g id="graph0" class="graph" transform="scale(0.000839442 0.000839442) rotate(0) translate(4 1029251.4)">
<title>inheritance8544d78969</title>
<!-- MatchingUnequalOperator -->
<g id="node1" class="node">
<title>MatchingUnequalOperator</title>
<g id="a_node1"><a xlink:href="../pyVHDLParser/pyVHDLParser.Token.Keywords.html#pyVHDLParser.Token.Keywords.MatchingUnequalOperator" xlink:title="MatchingUnequalOperator" target="_top">
<polygon fill="white" stroke="#1e90ff" points="1048.5,-514632.95 860,-514632.95 860,-514614.45 1048.5,-514614.45 1048.5,-514632.95"/>
<text text-anchor="middle" x="954.25" y="-514619.45" font-family="Vera Sans, DejaVu Sans, Liberation Sans, Arial, Helvetica, sans" font-size="10.00">MatchingUnequalOperator</text>
</a>
</g>
</g>
<!-- RelationalOperator -->
<g id="node2" class="node">
<title>RelationalOperator</title>
<g id="a_node2"><a xlink:href="../pyVHDLParser/pyVHDLParser.Token.Keywords.html#pyVHDLParser.Token.Keywords.RelationalOperator" xlink:title="Base&#45;class for all relational operator tokens." target="_top">
<polygon fill="white" stroke="#1e90ff" points="824,-1029247.4 673,-1029247.4 673,0 824,0 824,-1029247.4"/>
<text text-anchor="middle" x="748.5" y="-1029233.9" font-family="Vera Sans, DejaVu Sans, Liberation Sans, Arial, Helvetica, sans" font-size="10.00">RelationalOperator</text>
</a>
</g>
</g>
<!-- RelationalOperator&#45;&gt;MatchingUnequalOperator -->
<g id="edge1" class="edge">
<title>RelationalOperator&#45;&gt;MatchingUnequalOperator</title>
<path fill="none" stroke="black" stroke-width="0.5" d="M824.21,-514623.7C833.9,-514623.7 843.93,-514623.7 853.94,-514623.7"/>
<polygon fill="black" stroke="black" stroke-width="0.5" points="854.82,-514625.45 859.82,-514623.7 854.82,-514621.95 854.82,-514625.45"/>
</g>
<!-- OperatorToken -->
<g id="node3" class="node">
<title>OperatorToken</title>
<g id="a_node3"><a xlink:href="../pyVHDLParser/pyVHDLParser.Token.Keywords.html#pyVHDLParser.Token.Keywords.OperatorToken" xlink:title="Base&#45;class for all operator tokens." target="_top">
<polygon fill="white" stroke="#1e90ff" points="637,-1029240.89 523.5,-1029240.89 523.5,-6.52 637,-6.52 637,-1029240.89"/>
<text text-anchor="middle" x="580.25" y="-1029227.39" font-family="Vera Sans, DejaVu Sans, Liberation Sans, Arial, Helvetica, sans" font-size="10.00">OperatorToken</text>
</a>
</g>
</g>
<!-- OperatorToken&#45;&gt;RelationalOperator -->
<g id="edge3" class="edge">
<title>OperatorToken&#45;&gt;RelationalOperator</title>
<path fill="none" stroke="black" stroke-width="0.5" d="M637.07,-514623.7C646.61,-514623.7 656.69,-514623.7 666.73,-514623.7"/>
<polygon fill="black" stroke="black" stroke-width="0.5" points="667.63,-514625.45 672.63,-514623.7 667.63,-514621.95 667.63,-514625.45"/>
</g>
<!-- SpecificVHDLToken -->
<g id="node4" class="node">
<title>SpecificVHDLToken</title>
<g id="a_node4"><a xlink:href="../pyVHDLParser/pyVHDLParser.Token.Keywords.html#pyVHDLParser.Token.Keywords.SpecificVHDLToken" xlink:title="Base&#45;class for all specific tokens." target="_top">
<polygon fill="white" stroke="#1e90ff" points="487.5,-514632.95 344,-514632.95 344,-514614.45 487.5,-514614.45 487.5,-514632.95"/>
<text text-anchor="middle" x="415.75" y="-514619.45" font-family="Vera Sans, DejaVu Sans, Liberation Sans, Arial, Helvetica, sans" font-size="10.00">SpecificVHDLToken</text>
</a>
</g>
</g>
<!-- SpecificVHDLToken&#45;&gt;OperatorToken -->
<g id="edge2" class="edge">
<title>SpecificVHDLToken&#45;&gt;OperatorToken</title>
<path fill="none" stroke="black" stroke-width="0.5" d="M487.55,-514623.7C497.56,-514623.7 507.79,-514623.7 517.6,-514623.7"/>
<polygon fill="black" stroke="black" stroke-width="0.5" points="518.33,-514625.45 523.33,-514623.7 518.33,-514621.95 518.33,-514625.45"/>
</g>
<!-- VHDLToken -->
<g id="node5" class="node">
<title>VHDLToken</title>
<g id="a_node5"><a xlink:href="../pyVHDLParser.Token.html#pyVHDLParser.Token.VHDLToken" xlink:title="Base&#45;class for all VHDL specific tokens." target="_top">
<polygon fill="white" stroke="#1e90ff" points="308,-514632.95 224.5,-514632.95 224.5,-514614.45 308,-514614.45 308,-514632.95"/>
<text text-anchor="middle" x="266.25" y="-514619.45" font-family="Vera Sans, DejaVu Sans, Liberation Sans, Arial, Helvetica, sans" font-size="10.00">VHDLToken</text>
</a>
</g>
</g>
<!-- VHDLToken&#45;&gt;SpecificVHDLToken -->
<g id="edge4" class="edge">
<title>VHDLToken&#45;&gt;SpecificVHDLToken</title>
<path fill="none" stroke="black" stroke-width="0.5" d="M308.34,-514623.7C317.53,-514623.7 327.57,-514623.7 337.69,-514623.7"/>
<polygon fill="black" stroke="black" stroke-width="0.5" points="338.66,-514625.45 343.66,-514623.7 338.66,-514621.95 338.66,-514625.45"/>
</g>
<!-- Token -->
<g id="node6" class="node">
<title>Token</title>
<g id="a_node6"><a xlink:href="../pyVHDLParser.Token.html#pyVHDLParser.Token.Token" xlink:title="Base&#45;class for all token classes." target="_top">
<polygon fill="white" stroke="#1e90ff" points="54,-514632.95 0,-514632.95 0,-514614.45 54,-514614.45 54,-514632.95"/>
<text text-anchor="middle" x="27" y="-514619.45" font-family="Vera Sans, DejaVu Sans, Liberation Sans, Arial, Helvetica, sans" font-size="10.00">Token</text>
</a>
</g>
</g>
<!-- ValuedToken -->
<g id="node7" class="node">
<title>ValuedToken</title>
<g id="a_node7"><a xlink:href="../pyVHDLParser.Token.html#pyVHDLParser.Token.ValuedToken" xlink:title="Base&#45;class for all *valued* token." target="_top">
<polygon fill="white" stroke="#1e90ff" points="188.5,-514644.92 90,-514644.92 90,-514602.48 188.5,-514602.48 188.5,-514644.92"/>
<text text-anchor="middle" x="139.25" y="-514631.42" font-family="Vera Sans, DejaVu Sans, Liberation Sans, Arial, Helvetica, sans" font-size="10.00">ValuedToken</text>
</a>
</g>
</g>
<!-- Token&#45;&gt;ValuedToken -->
<g id="edge6" class="edge">
<title>Token&#45;&gt;ValuedToken</title>
<path fill="none" stroke="black" stroke-width="0.5" d="M54.41,-514623.7C63.25,-514623.7 73.45,-514623.7 83.64,-514623.7"/>
<polygon fill="black" stroke="black" stroke-width="0.5" points="84.62,-514625.45 89.62,-514623.7 84.62,-514621.95 84.62,-514625.45"/>
</g>
<!-- ValuedToken&#45;&gt;VHDLToken -->
<g id="edge5" class="edge">
<title>ValuedToken&#45;&gt;VHDLToken</title>
<path fill="none" stroke="black" stroke-width="0.5" d="M188.94,-514623.7C198.59,-514623.7 208.7,-514623.7 218.29,-514623.7"/>
<polygon fill="black" stroke="black" stroke-width="0.5" points="219.19,-514625.45 224.19,-514623.7 219.19,-514621.95 219.19,-514625.45"/>
</g>
</g>
</svg>
