<?xml version="1.0" encoding="UTF-8" standalone="no"?>
<!DOCTYPE svg PUBLIC "-//W3C//DTD SVG 1.1//EN"
 "http://www.w3.org/Graphics/SVG/1.1/DTD/svg11.dtd">
<!-- Generated by graphviz version 8.0.5 (20230430.1635)
 -->
<!-- Title: inheritance0b61d6722c Pages: 1 -->
<svg width="3pt" height="864pt"
 viewBox="0.00 0.00 2.69 864.00" xmlns="http://www.w3.org/2000/svg" xmlns:xlink="http://www.w3.org/1999/xlink">
<g id="graph0" class="graph" transform="scale(0.00422309 0.00422309) rotate(0) translate(4 204585.54)">
<title>inheritance0b61d6722c</title>
<!-- KeywordToken -->
<g id="node1" class="node">
<title>KeywordToken</title>
<g id="a_node1"><a xlink:href="../pyVHDLParser/pyVHDLParser.Token.Keywords.html#pyVHDLParser.Token.Keywords.KeywordToken" xlink:title="KeywordToken" target="_top">
<polygon fill="white" stroke="#1e90ff" points="450,-102300.02 344,-102300.02 344,-102281.52 450,-102281.52 450,-102300.02"/>
<text text-anchor="middle" x="397" y="-102286.52" font-family="Vera Sans, DejaVu Sans, Liberation Sans, Arial, Helvetica, sans" font-size="10.00">KeywordToken</text>
</a>
</g>
</g>
<!-- UnaffectedKeyword -->
<g id="node4" class="node">
<title>UnaffectedKeyword</title>
<g id="a_node4"><a xlink:href="../pyVHDLParser/pyVHDLParser.Token.Keywords.html#pyVHDLParser.Token.Keywords.UnaffectedKeyword" xlink:title="UnaffectedKeyword" target="_top">
<polygon fill="white" stroke="#1e90ff" points="629.5,-204581.54 486,-204581.54 486,0 629.5,0 629.5,-204581.54"/>
<text text-anchor="middle" x="557.75" y="-204568.04" font-family="Vera Sans, DejaVu Sans, Liberation Sans, Arial, Helvetica, sans" font-size="10.00">UnaffectedKeyword</text>
</a>
</g>
</g>
<!-- KeywordToken&#45;&gt;UnaffectedKeyword -->
<g id="edge2" class="edge">
<title>KeywordToken&#45;&gt;UnaffectedKeyword</title>
<path fill="none" stroke="black" stroke-width="0.5" d="M450.42,-102290.77C459.86,-102290.77 469.87,-102290.77 479.83,-102290.77"/>
<polygon fill="black" stroke="black" stroke-width="0.5" points="480.69,-102292.52 485.69,-102290.77 480.69,-102289.02 480.69,-102292.52"/>
</g>
<!-- VHDLToken -->
<g id="node2" class="node">
<title>VHDLToken</title>
<g id="a_node2"><a xlink:href="../pyVHDLParser.Token.html#pyVHDLParser.Token.VHDLToken" xlink:title="Base&#45;class for all VHDL specific tokens." target="_top">
<polygon fill="white" stroke="#1e90ff" points="308,-102300.02 224.5,-102300.02 224.5,-102281.52 308,-102281.52 308,-102300.02"/>
<text text-anchor="middle" x="266.25" y="-102286.52" font-family="Vera Sans, DejaVu Sans, Liberation Sans, Arial, Helvetica, sans" font-size="10.00">VHDLToken</text>
</a>
</g>
</g>
<!-- VHDLToken&#45;&gt;KeywordToken -->
<g id="edge1" class="edge">
<title>VHDLToken&#45;&gt;KeywordToken</title>
<path fill="none" stroke="black" stroke-width="0.5" d="M308.34,-102290.77C317.69,-102290.77 327.8,-102290.77 337.71,-102290.77"/>
<polygon fill="black" stroke="black" stroke-width="0.5" points="338.52,-102292.52 343.52,-102290.77 338.52,-102289.02 338.52,-102292.52"/>
</g>
<!-- Token -->
<g id="node3" class="node">
<title>Token</title>
<g id="a_node3"><a xlink:href="../pyVHDLParser.Token.html#pyVHDLParser.Token.Token" xlink:title="Base&#45;class for all token classes." target="_top">
<polygon fill="white" stroke="#1e90ff" points="54,-204581.5 0,-204581.5 0,-0.04 54,-0.04 54,-204581.5"/>
<text text-anchor="middle" x="27" y="-204568" font-family="Vera Sans, DejaVu Sans, Liberation Sans, Arial, Helvetica, sans" font-size="10.00">Token</text>
</a>
</g>
</g>
<!-- ValuedToken -->
<g id="node5" class="node">
<title>ValuedToken</title>
<g id="a_node5"><a xlink:href="../pyVHDLParser.Token.html#pyVHDLParser.Token.ValuedToken" xlink:title="Base&#45;class for all *valued* token." target="_top">
<polygon fill="white" stroke="#1e90ff" points="188.5,-102300.02 90,-102300.02 90,-102281.52 188.5,-102281.52 188.5,-102300.02"/>
<text text-anchor="middle" x="139.25" y="-102286.52" font-family="Vera Sans, DejaVu Sans, Liberation Sans, Arial, Helvetica, sans" font-size="10.00">ValuedToken</text>
</a>
</g>
</g>
<!-- Token&#45;&gt;ValuedToken -->
<g id="edge4" class="edge">
<title>Token&#45;&gt;ValuedToken</title>
<path fill="none" stroke="black" stroke-width="0.5" d="M54.41,-102290.77C63.25,-102290.77 73.45,-102290.77 83.64,-102290.77"/>
<polygon fill="black" stroke="black" stroke-width="0.5" points="84.62,-102292.52 89.62,-102290.77 84.62,-102289.02 84.62,-102292.52"/>
</g>
<!-- ValuedToken&#45;&gt;VHDLToken -->
<g id="edge3" class="edge">
<title>ValuedToken&#45;&gt;VHDLToken</title>
<path fill="none" stroke="black" stroke-width="0.5" d="M188.94,-102290.77C198.59,-102290.77 208.7,-102290.77 218.29,-102290.77"/>
<polygon fill="black" stroke="black" stroke-width="0.5" points="219.19,-102292.52 224.19,-102290.77 219.19,-102289.02 219.19,-102292.52"/>
</g>
</g>
</svg>
