<?xml version="1.0" encoding="UTF-8" standalone="no"?>
<!DOCTYPE svg PUBLIC "-//W3C//DTD SVG 1.1//EN"
 "http://www.w3.org/Graphics/SVG/1.1/DTD/svg11.dtd">
<!-- Generated by graphviz version 8.0.5 (20230430.1635)
 -->
<!-- Title: inheritance041c5cd8df Pages: 1 -->
<svg width="1pt" height="864pt"
 viewBox="0.00 0.00 0.91 864.00" xmlns="http://www.w3.org/2000/svg" xmlns:xlink="http://www.w3.org/1999/xlink">
<g id="graph0" class="graph" transform="scale(0.00111629 0.00111629) rotate(0) translate(4 773989.41)">
<title>inheritance041c5cd8df</title>
<!-- AngleBracketToken -->
<g id="node1" class="node">
<title>AngleBracketToken</title>
<g id="a_node1"><a xlink:href="../pyVHDLParser/pyVHDLParser.Token.Keywords.html#pyVHDLParser.Token.Keywords.AngleBracketToken" xlink:title="Base&#45;class for all angle bracket tokens: ``&lt;`` and ``&gt;``." target="_top">
<polygon fill="white" stroke="#1e90ff" points="809,-387001.95 665.5,-387001.95 665.5,-386983.45 809,-386983.45 809,-387001.95"/>
<text text-anchor="middle" x="737.25" y="-386988.45" font-family="Vera Sans, DejaVu Sans, Liberation Sans, Arial, Helvetica, sans" font-size="10.00">AngleBracketToken</text>
</a>
</g>
</g>
<!-- BracketToken -->
<g id="node2" class="node">
<title>BracketToken</title>
<g id="a_node2"><a xlink:href="../pyVHDLParser/pyVHDLParser.Token.Keywords.html#pyVHDLParser.Token.Keywords.BracketToken" xlink:title="Base&#45;class for all bracket tokens: ``(``, ``)``, ``[``, ``]``, ``{``, ``}``, ``&lt;`` and ``&gt;``." target="_top">
<polygon fill="white" stroke="#1e90ff" points="629.5,-387001.95 523.5,-387001.95 523.5,-386983.45 629.5,-386983.45 629.5,-387001.95"/>
<text text-anchor="middle" x="576.5" y="-386988.45" font-family="Vera Sans, DejaVu Sans, Liberation Sans, Arial, Helvetica, sans" font-size="10.00">BracketToken</text>
</a>
</g>
</g>
<!-- BracketToken&#45;&gt;AngleBracketToken -->
<g id="edge1" class="edge">
<title>BracketToken&#45;&gt;AngleBracketToken</title>
<path fill="none" stroke="black" stroke-width="0.5" d="M629.92,-386992.7C639.36,-386992.7 649.37,-386992.7 659.33,-386992.7"/>
<polygon fill="black" stroke="black" stroke-width="0.5" points="660.19,-386994.45 665.19,-386992.7 660.19,-386990.95 660.19,-386994.45"/>
</g>
<!-- SpecificVHDLToken -->
<g id="node3" class="node">
<title>SpecificVHDLToken</title>
<g id="a_node3"><a xlink:href="../pyVHDLParser/pyVHDLParser.Token.Keywords.html#pyVHDLParser.Token.Keywords.SpecificVHDLToken" xlink:title="Base&#45;class for all specific tokens." target="_top">
<polygon fill="white" stroke="#1e90ff" points="487.5,-773985.41 344,-773985.41 344,0 487.5,0 487.5,-773985.41"/>
<text text-anchor="middle" x="415.75" y="-773971.91" font-family="Vera Sans, DejaVu Sans, Liberation Sans, Arial, Helvetica, sans" font-size="10.00">SpecificVHDLToken</text>
</a>
</g>
</g>
<!-- SpecificVHDLToken&#45;&gt;BracketToken -->
<g id="edge2" class="edge">
<title>SpecificVHDLToken&#45;&gt;BracketToken</title>
<path fill="none" stroke="black" stroke-width="0.5" d="M487.77,-386992.7C497.61,-386992.7 507.63,-386992.7 517.21,-386992.7"/>
<polygon fill="black" stroke="black" stroke-width="0.5" points="518.11,-386994.45 523.11,-386992.7 518.11,-386990.95 518.11,-386994.45"/>
</g>
<!-- VHDLToken -->
<g id="node4" class="node">
<title>VHDLToken</title>
<g id="a_node4"><a xlink:href="../pyVHDLParser.Token.html#pyVHDLParser.Token.VHDLToken" xlink:title="Base&#45;class for all VHDL specific tokens." target="_top">
<polygon fill="white" stroke="#1e90ff" points="308,-387001.99 224.5,-387001.99 224.5,-386983.42 308,-386983.42 308,-387001.99"/>
<text text-anchor="middle" x="266.25" y="-386988.49" font-family="Vera Sans, DejaVu Sans, Liberation Sans, Arial, Helvetica, sans" font-size="10.00">VHDLToken</text>
</a>
</g>
</g>
<!-- VHDLToken&#45;&gt;SpecificVHDLToken -->
<g id="edge3" class="edge">
<title>VHDLToken&#45;&gt;SpecificVHDLToken</title>
<path fill="none" stroke="black" stroke-width="0.5" d="M308.34,-386992.7C317.53,-386992.7 327.57,-386992.7 337.69,-386992.7"/>
<polygon fill="black" stroke="black" stroke-width="0.5" points="338.66,-386994.45 343.66,-386992.7 338.66,-386990.95 338.66,-386994.45"/>
</g>
<!-- Token -->
<g id="node5" class="node">
<title>Token</title>
<g id="a_node5"><a xlink:href="../pyVHDLParser.Token.html#pyVHDLParser.Token.Token" xlink:title="Base&#45;class for all token classes." target="_top">
<polygon fill="white" stroke="#1e90ff" points="54,-387005.7 0,-387005.7 0,-386979.7 54,-386979.7 54,-387005.7"/>
<text text-anchor="middle" x="27" y="-386992.2" font-family="Vera Sans, DejaVu Sans, Liberation Sans, Arial, Helvetica, sans" font-size="10.00">Token</text>
</a>
</g>
</g>
<!-- ValuedToken -->
<g id="node6" class="node">
<title>ValuedToken</title>
<g id="a_node6"><a xlink:href="../pyVHDLParser.Token.html#pyVHDLParser.Token.ValuedToken" xlink:title="Base&#45;class for all *valued* token." target="_top">
<polygon fill="white" stroke="#1e90ff" points="188.5,-387001.95 90,-387001.95 90,-386983.45 188.5,-386983.45 188.5,-387001.95"/>
<text text-anchor="middle" x="139.25" y="-386988.45" font-family="Vera Sans, DejaVu Sans, Liberation Sans, Arial, Helvetica, sans" font-size="10.00">ValuedToken</text>
</a>
</g>
</g>
<!-- Token&#45;&gt;ValuedToken -->
<g id="edge5" class="edge">
<title>Token&#45;&gt;ValuedToken</title>
<path fill="none" stroke="black" stroke-width="0.5" d="M54.41,-386992.7C63.25,-386992.7 73.45,-386992.7 83.64,-386992.7"/>
<polygon fill="black" stroke="black" stroke-width="0.5" points="84.62,-386994.45 89.62,-386992.7 84.62,-386990.95 84.62,-386994.45"/>
</g>
<!-- ValuedToken&#45;&gt;VHDLToken -->
<g id="edge4" class="edge">
<title>ValuedToken&#45;&gt;VHDLToken</title>
<path fill="none" stroke="black" stroke-width="0.5" d="M188.94,-386992.7C198.59,-386992.7 208.7,-386992.7 218.29,-386992.7"/>
<polygon fill="black" stroke="black" stroke-width="0.5" points="219.19,-386994.45 224.19,-386992.7 219.19,-386990.95 219.19,-386994.45"/>
</g>
</g>
</svg>
