<?xml version="1.0" encoding="UTF-8" standalone="no"?>
<!DOCTYPE svg PUBLIC "-//W3C//DTD SVG 1.1//EN"
 "http://www.w3.org/Graphics/SVG/1.1/DTD/svg11.dtd">
<!-- Generated by graphviz version 8.0.5 (20230430.1635)
 -->
<!-- Title: inheritance3d90d4aed0 Pages: 1 -->
<svg width="1pt" height="864pt"
 viewBox="0.00 0.00 0.97 864.00" xmlns="http://www.w3.org/2000/svg" xmlns:xlink="http://www.w3.org/1999/xlink">
<g id="graph0" class="graph" transform="scale(0.00153181 0.00153181) rotate(0) translate(4 564034.42)">
<title>inheritance3d90d4aed0</title>
<!-- KeywordToken -->
<g id="node1" class="node">
<title>KeywordToken</title>
<g id="a_node1"><a xlink:href="../pyVHDLParser/pyVHDLParser.Token.Keywords.html#pyVHDLParser.Token.Keywords.KeywordToken" xlink:title="KeywordToken" target="_top">
<polygon fill="white" stroke="#1e90ff" points="450,-282024.46 344,-282024.46 344,-282005.96 450,-282005.96 450,-282024.46"/>
<text text-anchor="middle" x="397" y="-282010.96" font-family="Vera Sans, DejaVu Sans, Liberation Sans, Arial, Helvetica, sans" font-size="10.00">KeywordToken</text>
</a>
</g>
</g>
<!-- ParameterKeyword -->
<g id="node3" class="node">
<title>ParameterKeyword</title>
<g id="a_node3"><a xlink:href="../pyVHDLParser/pyVHDLParser.Token.Keywords.html#pyVHDLParser.Token.Keywords.ParameterKeyword" xlink:title="ParameterKeyword" target="_top">
<polygon fill="white" stroke="#1e90ff" points="622,-564030.42 486,-564030.42 486,0 622,0 622,-564030.42"/>
<text text-anchor="middle" x="554" y="-564016.92" font-family="Vera Sans, DejaVu Sans, Liberation Sans, Arial, Helvetica, sans" font-size="10.00">ParameterKeyword</text>
</a>
</g>
</g>
<!-- KeywordToken&#45;&gt;ParameterKeyword -->
<g id="edge2" class="edge">
<title>KeywordToken&#45;&gt;ParameterKeyword</title>
<path fill="none" stroke="black" stroke-width="0.5" d="M450.48,-282015.21C459.95,-282015.21 469.98,-282015.21 479.91,-282015.21"/>
<polygon fill="black" stroke="black" stroke-width="0.5" points="480.74,-282016.96 485.74,-282015.21 480.74,-282013.46 480.74,-282016.96"/>
</g>
<!-- VHDLToken -->
<g id="node2" class="node">
<title>VHDLToken</title>
<g id="a_node2"><a xlink:href="../pyVHDLParser.Token.html#pyVHDLParser.Token.VHDLToken" xlink:title="Base&#45;class for all VHDL specific tokens." target="_top">
<polygon fill="white" stroke="#1e90ff" points="308,-282024.46 224.5,-282024.46 224.5,-282005.96 308,-282005.96 308,-282024.46"/>
<text text-anchor="middle" x="266.25" y="-282010.96" font-family="Vera Sans, DejaVu Sans, Liberation Sans, Arial, Helvetica, sans" font-size="10.00">VHDLToken</text>
</a>
</g>
</g>
<!-- VHDLToken&#45;&gt;KeywordToken -->
<g id="edge1" class="edge">
<title>VHDLToken&#45;&gt;KeywordToken</title>
<path fill="none" stroke="black" stroke-width="0.5" d="M308.34,-282015.21C317.69,-282015.21 327.8,-282015.21 337.71,-282015.21"/>
<polygon fill="black" stroke="black" stroke-width="0.5" points="338.52,-282016.96 343.52,-282015.21 338.52,-282013.46 338.52,-282016.96"/>
</g>
<!-- Token -->
<g id="node4" class="node">
<title>Token</title>
<g id="a_node4"><a xlink:href="../pyVHDLParser.Token.html#pyVHDLParser.Token.Token" xlink:title="Base&#45;class for all token classes." target="_top">
<polygon fill="white" stroke="#1e90ff" points="54,-564030.37 0,-564030.37 0,-0.05 54,-0.05 54,-564030.37"/>
<text text-anchor="middle" x="27" y="-564016.87" font-family="Vera Sans, DejaVu Sans, Liberation Sans, Arial, Helvetica, sans" font-size="10.00">Token</text>
</a>
</g>
</g>
<!-- ValuedToken -->
<g id="node5" class="node">
<title>ValuedToken</title>
<g id="a_node5"><a xlink:href="../pyVHDLParser.Token.html#pyVHDLParser.Token.ValuedToken" xlink:title="Base&#45;class for all *valued* token." target="_top">
<polygon fill="white" stroke="#1e90ff" points="188.5,-282024.46 90,-282024.46 90,-282005.96 188.5,-282005.96 188.5,-282024.46"/>
<text text-anchor="middle" x="139.25" y="-282010.96" font-family="Vera Sans, DejaVu Sans, Liberation Sans, Arial, Helvetica, sans" font-size="10.00">ValuedToken</text>
</a>
</g>
</g>
<!-- Token&#45;&gt;ValuedToken -->
<g id="edge4" class="edge">
<title>Token&#45;&gt;ValuedToken</title>
<path fill="none" stroke="black" stroke-width="0.5" d="M54.41,-282015.21C63.25,-282015.21 73.45,-282015.21 83.64,-282015.21"/>
<polygon fill="black" stroke="black" stroke-width="0.5" points="84.62,-282016.96 89.62,-282015.21 84.62,-282013.46 84.62,-282016.96"/>
</g>
<!-- ValuedToken&#45;&gt;VHDLToken -->
<g id="edge3" class="edge">
<title>ValuedToken&#45;&gt;VHDLToken</title>
<path fill="none" stroke="black" stroke-width="0.5" d="M188.94,-282015.21C198.59,-282015.21 208.7,-282015.21 218.29,-282015.21"/>
<polygon fill="black" stroke="black" stroke-width="0.5" points="219.19,-282016.96 224.19,-282015.21 219.19,-282013.46 219.19,-282016.96"/>
</g>
</g>
</svg>
