<?xml version="1.0" encoding="UTF-8" standalone="no"?>
<!DOCTYPE svg PUBLIC "-//W3C//DTD SVG 1.1//EN"
 "http://www.w3.org/Graphics/SVG/1.1/DTD/svg11.dtd">
<!-- Generated by graphviz version 8.0.5 (20230430.1635)
 -->
<!-- Title: inheritancee01224b1ab Pages: 1 -->
<svg width="0pt" height="864pt"
 viewBox="0.00 0.00 0.47 864.00" xmlns="http://www.w3.org/2000/svg" xmlns:xlink="http://www.w3.org/1999/xlink">
<g id="graph0" class="graph" transform="scale(0.000794566 0.000794566) rotate(0) translate(4 1087381.41)">
<title>inheritancee01224b1ab</title>
<!-- KeywordToken -->
<g id="node1" class="node">
<title>KeywordToken</title>
<g id="a_node1"><a xlink:href="../pyVHDLParser/pyVHDLParser.Token.Keywords.html#pyVHDLParser.Token.Keywords.KeywordToken" xlink:title="KeywordToken" target="_top">
<polygon fill="white" stroke="#1e90ff" points="450,-543697.95 344,-543697.95 344,-543679.45 450,-543679.45 450,-543697.95"/>
<text text-anchor="middle" x="397" y="-543684.45" font-family="Vera Sans, DejaVu Sans, Liberation Sans, Arial, Helvetica, sans" font-size="10.00">KeywordToken</text>
</a>
</g>
</g>
<!-- ViewKeyword -->
<g id="node5" class="node">
<title>ViewKeyword</title>
<g id="a_node5"><a xlink:href="../pyVHDLParser/pyVHDLParser.Token.Keywords.html#pyVHDLParser.Token.Keywords.ViewKeyword" xlink:title="ViewKeyword" target="_top">
<polygon fill="white" stroke="#1e90ff" points="584.5,-543697.95 486,-543697.95 486,-543679.45 584.5,-543679.45 584.5,-543697.95"/>
<text text-anchor="middle" x="535.25" y="-543684.45" font-family="Vera Sans, DejaVu Sans, Liberation Sans, Arial, Helvetica, sans" font-size="10.00">ViewKeyword</text>
</a>
</g>
</g>
<!-- KeywordToken&#45;&gt;ViewKeyword -->
<g id="edge4" class="edge">
<title>KeywordToken&#45;&gt;ViewKeyword</title>
<path fill="none" stroke="black" stroke-width="0.5" d="M450.29,-543688.7C460.07,-543688.7 470.32,-543688.7 480.16,-543688.7"/>
<polygon fill="black" stroke="black" stroke-width="0.5" points="480.9,-543690.45 485.9,-543688.7 480.9,-543686.95 480.9,-543690.45"/>
</g>
<!-- VHDLToken -->
<g id="node2" class="node">
<title>VHDLToken</title>
<g id="a_node2"><a xlink:href="../pyVHDLParser.Token.html#pyVHDLParser.Token.VHDLToken" xlink:title="Base&#45;class for all VHDL specific tokens." target="_top">
<polygon fill="white" stroke="#1e90ff" points="308,-543697.95 224.5,-543697.95 224.5,-543679.45 308,-543679.45 308,-543697.95"/>
<text text-anchor="middle" x="266.25" y="-543684.45" font-family="Vera Sans, DejaVu Sans, Liberation Sans, Arial, Helvetica, sans" font-size="10.00">VHDLToken</text>
</a>
</g>
</g>
<!-- VHDLToken&#45;&gt;KeywordToken -->
<g id="edge1" class="edge">
<title>VHDLToken&#45;&gt;KeywordToken</title>
<path fill="none" stroke="black" stroke-width="0.5" d="M308.34,-543688.7C317.69,-543688.7 327.8,-543688.7 337.71,-543688.7"/>
<polygon fill="black" stroke="black" stroke-width="0.5" points="338.52,-543690.45 343.52,-543688.7 338.52,-543686.95 338.52,-543690.45"/>
</g>
<!-- Token -->
<g id="node3" class="node">
<title>Token</title>
<g id="a_node3"><a xlink:href="../pyVHDLParser.Token.html#pyVHDLParser.Token.Token" xlink:title="Base&#45;class for all token classes." target="_top">
<polygon fill="white" stroke="#1e90ff" points="54,-1087377.41 0,-1087377.41 0,0 54,0 54,-1087377.41"/>
<text text-anchor="middle" x="27" y="-1087363.91" font-family="Vera Sans, DejaVu Sans, Liberation Sans, Arial, Helvetica, sans" font-size="10.00">Token</text>
</a>
</g>
</g>
<!-- ValuedToken -->
<g id="node4" class="node">
<title>ValuedToken</title>
<g id="a_node4"><a xlink:href="../pyVHDLParser.Token.html#pyVHDLParser.Token.ValuedToken" xlink:title="Base&#45;class for all *valued* token." target="_top">
<polygon fill="white" stroke="#1e90ff" points="188.5,-1087377.37 90,-1087377.37 90,-0.04 188.5,-0.04 188.5,-1087377.37"/>
<text text-anchor="middle" x="139.25" y="-1087363.87" font-family="Vera Sans, DejaVu Sans, Liberation Sans, Arial, Helvetica, sans" font-size="10.00">ValuedToken</text>
</a>
</g>
</g>
<!-- Token&#45;&gt;ValuedToken -->
<g id="edge3" class="edge">
<title>Token&#45;&gt;ValuedToken</title>
<path fill="none" stroke="black" stroke-width="0.5" d="M54.41,-543688.7C63.25,-543688.7 73.45,-543688.7 83.64,-543688.7"/>
<polygon fill="black" stroke="black" stroke-width="0.5" points="84.62,-543690.45 89.62,-543688.7 84.62,-543686.95 84.62,-543690.45"/>
</g>
<!-- ValuedToken&#45;&gt;VHDLToken -->
<g id="edge2" class="edge">
<title>ValuedToken&#45;&gt;VHDLToken</title>
<path fill="none" stroke="black" stroke-width="0.5" d="M188.94,-543688.7C198.59,-543688.7 208.7,-543688.7 218.29,-543688.7"/>
<polygon fill="black" stroke="black" stroke-width="0.5" points="219.19,-543690.45 224.19,-543688.7 219.19,-543686.95 219.19,-543690.45"/>
</g>
</g>
</svg>
