<?xml version="1.0" encoding="UTF-8" standalone="no"?>
<!DOCTYPE svg PUBLIC "-//W3C//DTD SVG 1.1//EN"
 "http://www.w3.org/Graphics/SVG/1.1/DTD/svg11.dtd">
<!-- Generated by graphviz version 8.0.5 (20230430.1635)
 -->
<!-- Title: inheritance50e4479ccb Pages: 1 -->
<svg width="1pt" height="864pt"
 viewBox="0.00 0.00 0.51 864.00" xmlns="http://www.w3.org/2000/svg" xmlns:xlink="http://www.w3.org/1999/xlink">
<g id="graph0" class="graph" transform="scale(0.00082604 0.00082604) rotate(0) translate(4 1045950.18)">
<title>inheritance50e4479ccb</title>
<!-- ConstantKeyword -->
<g id="node1" class="node">
<title>ConstantKeyword</title>
<g id="a_node1"><a xlink:href="../pyVHDLParser/pyVHDLParser.Token.Keywords.html#pyVHDLParser.Token.Keywords.ConstantKeyword" xlink:title="ConstantKeyword" target="_top">
<polygon fill="white" stroke="#1e90ff" points="614.5,-522982.34 486,-522982.34 486,-522963.84 614.5,-522963.84 614.5,-522982.34"/>
<text text-anchor="middle" x="550.25" y="-522968.84" font-family="Vera Sans, DejaVu Sans, Liberation Sans, Arial, Helvetica, sans" font-size="10.00">ConstantKeyword</text>
</a>
</g>
</g>
<!-- KeywordToken -->
<g id="node2" class="node">
<title>KeywordToken</title>
<g id="a_node2"><a xlink:href="../pyVHDLParser/pyVHDLParser.Token.Keywords.html#pyVHDLParser.Token.Keywords.KeywordToken" xlink:title="KeywordToken" target="_top">
<polygon fill="white" stroke="#1e90ff" points="450,-522982.34 344,-522982.34 344,-522963.84 450,-522963.84 450,-522982.34"/>
<text text-anchor="middle" x="397" y="-522968.84" font-family="Vera Sans, DejaVu Sans, Liberation Sans, Arial, Helvetica, sans" font-size="10.00">KeywordToken</text>
</a>
</g>
</g>
<!-- KeywordToken&#45;&gt;ConstantKeyword -->
<g id="edge1" class="edge">
<title>KeywordToken&#45;&gt;ConstantKeyword</title>
<path fill="none" stroke="black" stroke-width="0.5" d="M450.48,-522973.09C459.96,-522973.09 469.99,-522973.09 479.87,-522973.09"/>
<polygon fill="black" stroke="black" stroke-width="0.5" points="480.66,-522974.84 485.66,-522973.09 480.66,-522971.34 480.66,-522974.84"/>
</g>
<!-- VHDLToken -->
<g id="node3" class="node">
<title>VHDLToken</title>
<g id="a_node3"><a xlink:href="../pyVHDLParser.Token.html#pyVHDLParser.Token.VHDLToken" xlink:title="Base&#45;class for all VHDL specific tokens." target="_top">
<polygon fill="white" stroke="#1e90ff" points="308,-1045946.13 224.5,-1045946.13 224.5,-0.05 308,-0.05 308,-1045946.13"/>
<text text-anchor="middle" x="266.25" y="-1045932.63" font-family="Vera Sans, DejaVu Sans, Liberation Sans, Arial, Helvetica, sans" font-size="10.00">VHDLToken</text>
</a>
</g>
</g>
<!-- VHDLToken&#45;&gt;KeywordToken -->
<g id="edge2" class="edge">
<title>VHDLToken&#45;&gt;KeywordToken</title>
<path fill="none" stroke="black" stroke-width="0.5" d="M308.34,-522973.09C317.69,-522973.09 327.8,-522973.09 337.71,-522973.09"/>
<polygon fill="black" stroke="black" stroke-width="0.5" points="338.52,-522974.84 343.52,-522973.09 338.52,-522971.34 338.52,-522974.84"/>
</g>
<!-- Token -->
<g id="node4" class="node">
<title>Token</title>
<g id="a_node4"><a xlink:href="../pyVHDLParser.Token.html#pyVHDLParser.Token.Token" xlink:title="Base&#45;class for all token classes." target="_top">
<polygon fill="white" stroke="#1e90ff" points="54,-1045946.18 0,-1045946.18 0,0 54,0 54,-1045946.18"/>
<text text-anchor="middle" x="27" y="-1045932.68" font-family="Vera Sans, DejaVu Sans, Liberation Sans, Arial, Helvetica, sans" font-size="10.00">Token</text>
</a>
</g>
</g>
<!-- ValuedToken -->
<g id="node5" class="node">
<title>ValuedToken</title>
<g id="a_node5"><a xlink:href="../pyVHDLParser.Token.html#pyVHDLParser.Token.ValuedToken" xlink:title="Base&#45;class for all *valued* token." target="_top">
<polygon fill="white" stroke="#1e90ff" points="188.5,-522982.34 90,-522982.34 90,-522963.84 188.5,-522963.84 188.5,-522982.34"/>
<text text-anchor="middle" x="139.25" y="-522968.84" font-family="Vera Sans, DejaVu Sans, Liberation Sans, Arial, Helvetica, sans" font-size="10.00">ValuedToken</text>
</a>
</g>
</g>
<!-- Token&#45;&gt;ValuedToken -->
<g id="edge4" class="edge">
<title>Token&#45;&gt;ValuedToken</title>
<path fill="none" stroke="black" stroke-width="0.5" d="M54.41,-522973.09C63.25,-522973.09 73.45,-522973.09 83.64,-522973.09"/>
<polygon fill="black" stroke="black" stroke-width="0.5" points="84.62,-522974.84 89.62,-522973.09 84.62,-522971.34 84.62,-522974.84"/>
</g>
<!-- ValuedToken&#45;&gt;VHDLToken -->
<g id="edge3" class="edge">
<title>ValuedToken&#45;&gt;VHDLToken</title>
<path fill="none" stroke="black" stroke-width="0.5" d="M188.94,-522973.09C198.59,-522973.09 208.7,-522973.09 218.29,-522973.09"/>
<polygon fill="black" stroke="black" stroke-width="0.5" points="219.19,-522974.84 224.19,-522973.09 219.19,-522971.34 219.19,-522974.84"/>
</g>
</g>
</svg>
