<?xml version="1.0" encoding="UTF-8" standalone="no"?>
<!DOCTYPE svg PUBLIC "-//W3C//DTD SVG 1.1//EN"
 "http://www.w3.org/Graphics/SVG/1.1/DTD/svg11.dtd">
<!-- Generated by graphviz version 8.0.5 (20230430.1635)
 -->
<!-- Title: inheritance4e0e4303f5 Pages: 1 -->
<svg width="1pt" height="864pt"
 viewBox="0.00 0.00 0.79 864.00" xmlns="http://www.w3.org/2000/svg" xmlns:xlink="http://www.w3.org/1999/xlink">
<g id="graph0" class="graph" transform="scale(0.00213765 0.00213765) rotate(0) translate(4 404178.74)">
<title>inheritance4e0e4303f5</title>
<!-- Block -->
<g id="node1" class="node">
<title>Block</title>
<g id="a_node1"><a xlink:href="../pyVHDLParser.Blocks.html#pyVHDLParser.Blocks.Block" xlink:title="Base&#45;class for all :term:`block` classes." target="_top">
<polygon fill="white" stroke="#1e90ff" points="54,-404171.82 0,-404171.82 0,-2.92 54,-2.92 54,-404171.82"/>
<text text-anchor="middle" x="27" y="-404158.32" font-family="Vera Sans, DejaVu Sans, Liberation Sans, Arial, Helvetica, sans" font-size="10.00">Block</text>
</a>
</g>
</g>
<!-- EndOfStatementBlock -->
<g id="node3" class="node">
<title>EndOfStatementBlock</title>
<g id="a_node3"><a xlink:href="../pyVHDLParser.Blocks.Generic1.html#pyVHDLParser.Blocks.Generic1.EndOfStatementBlock" xlink:title="EndOfStatementBlock" target="_top">
<polygon fill="white" stroke="#1e90ff" points="248.5,-404174.74 90,-404174.74 90,0 248.5,0 248.5,-404174.74"/>
<text text-anchor="middle" x="169.25" y="-404161.24" font-family="Vera Sans, DejaVu Sans, Liberation Sans, Arial, Helvetica, sans" font-size="10.00">EndOfStatementBlock</text>
</a>
</g>
</g>
<!-- Block&#45;&gt;EndOfStatementBlock -->
<g id="edge2" class="edge">
<title>Block&#45;&gt;EndOfStatementBlock</title>
<path fill="none" stroke="black" stroke-width="0.5" d="M54.38,-202087.37C63.02,-202087.37 73.13,-202087.37 83.7,-202087.37"/>
<polygon fill="black" stroke="black" stroke-width="0.5" points="84.61,-202089.12 89.61,-202087.37 84.61,-202085.62 84.61,-202089.12"/>
</g>
<!-- EndBlock -->
<g id="node2" class="node">
<title>EndBlock</title>
<g id="a_node2"><a xlink:href="../pyVHDLParser/pyVHDLParser.Blocks.ControlStructure.Exit.html#pyVHDLParser.Blocks.ControlStructure.Exit.EndBlock" xlink:title="EndBlock" target="_top">
<polygon fill="white" stroke="#1e90ff" points="360.5,-202096.62 284.5,-202096.62 284.5,-202078.12 360.5,-202078.12 360.5,-202096.62"/>
<text text-anchor="middle" x="322.5" y="-202083.12" font-family="Vera Sans, DejaVu Sans, Liberation Sans, Arial, Helvetica, sans" font-size="10.00">EndBlock</text>
</a>
</g>
</g>
<!-- EndOfStatementBlock&#45;&gt;EndBlock -->
<g id="edge1" class="edge">
<title>EndOfStatementBlock&#45;&gt;EndBlock</title>
<path fill="none" stroke="black" stroke-width="0.5" d="M248.98,-202087.37C259.1,-202087.37 269.16,-202087.37 278.41,-202087.37"/>
<polygon fill="black" stroke="black" stroke-width="0.5" points="279.36,-202089.12 284.36,-202087.37 279.36,-202085.62 279.36,-202089.12"/>
</g>
</g>
</svg>
