<?xml version="1.0" encoding="UTF-8" standalone="no"?>
<!DOCTYPE svg PUBLIC "-//W3C//DTD SVG 1.1//EN"
 "http://www.w3.org/Graphics/SVG/1.1/DTD/svg11.dtd">
<!-- Generated by graphviz version 8.0.5 (20230430.1635)
 -->
<!-- Title: inheritancef46af318de Pages: 1 -->
<svg width="1pt" height="864pt"
 viewBox="0.00 0.00 0.52 864.00" xmlns="http://www.w3.org/2000/svg" xmlns:xlink="http://www.w3.org/1999/xlink">
<g id="graph0" class="graph" transform="scale(0.000837656 0.000837656) rotate(0) translate(4 1031445.54)">
<title>inheritancef46af318de</title>
<!-- KeywordToken -->
<g id="node1" class="node">
<title>KeywordToken</title>
<g id="a_node1"><a xlink:href="../pyVHDLParser/pyVHDLParser.Token.Keywords.html#pyVHDLParser.Token.Keywords.KeywordToken" xlink:title="KeywordToken" target="_top">
<polygon fill="white" stroke="#1e90ff" points="450,-515730.02 344,-515730.02 344,-515711.52 450,-515711.52 450,-515730.02"/>
<text text-anchor="middle" x="397" y="-515716.52" font-family="Vera Sans, DejaVu Sans, Liberation Sans, Arial, Helvetica, sans" font-size="10.00">KeywordToken</text>
</a>
</g>
</g>
<!-- PackageKeyword -->
<g id="node3" class="node">
<title>PackageKeyword</title>
<g id="a_node3"><a xlink:href="../pyVHDLParser/pyVHDLParser.Token.Keywords.html#pyVHDLParser.Token.Keywords.PackageKeyword" xlink:title="PackageKeyword" target="_top">
<polygon fill="white" stroke="#1e90ff" points="607,-1031441.49 486,-1031441.49 486,-0.05 607,-0.05 607,-1031441.49"/>
<text text-anchor="middle" x="546.5" y="-1031427.99" font-family="Vera Sans, DejaVu Sans, Liberation Sans, Arial, Helvetica, sans" font-size="10.00">PackageKeyword</text>
</a>
</g>
</g>
<!-- KeywordToken&#45;&gt;PackageKeyword -->
<g id="edge2" class="edge">
<title>KeywordToken&#45;&gt;PackageKeyword</title>
<path fill="none" stroke="black" stroke-width="0.5" d="M450.42,-515720.77C459.97,-515720.77 470.05,-515720.77 479.92,-515720.77"/>
<polygon fill="black" stroke="black" stroke-width="0.5" points="480.71,-515722.52 485.71,-515720.77 480.71,-515719.02 480.71,-515722.52"/>
</g>
<!-- VHDLToken -->
<g id="node2" class="node">
<title>VHDLToken</title>
<g id="a_node2"><a xlink:href="../pyVHDLParser.Token.html#pyVHDLParser.Token.VHDLToken" xlink:title="Base&#45;class for all VHDL specific tokens." target="_top">
<polygon fill="white" stroke="#1e90ff" points="308,-515730.02 224.5,-515730.02 224.5,-515711.52 308,-515711.52 308,-515730.02"/>
<text text-anchor="middle" x="266.25" y="-515716.52" font-family="Vera Sans, DejaVu Sans, Liberation Sans, Arial, Helvetica, sans" font-size="10.00">VHDLToken</text>
</a>
</g>
</g>
<!-- VHDLToken&#45;&gt;KeywordToken -->
<g id="edge1" class="edge">
<title>VHDLToken&#45;&gt;KeywordToken</title>
<path fill="none" stroke="black" stroke-width="0.5" d="M308.34,-515720.77C317.69,-515720.77 327.8,-515720.77 337.71,-515720.77"/>
<polygon fill="black" stroke="black" stroke-width="0.5" points="338.52,-515722.52 343.52,-515720.77 338.52,-515719.02 338.52,-515722.52"/>
</g>
<!-- Token -->
<g id="node4" class="node">
<title>Token</title>
<g id="a_node4"><a xlink:href="../pyVHDLParser.Token.html#pyVHDLParser.Token.Token" xlink:title="Base&#45;class for all token classes." target="_top">
<polygon fill="white" stroke="#1e90ff" points="54,-1031441.54 0,-1031441.54 0,0 54,0 54,-1031441.54"/>
<text text-anchor="middle" x="27" y="-1031428.04" font-family="Vera Sans, DejaVu Sans, Liberation Sans, Arial, Helvetica, sans" font-size="10.00">Token</text>
</a>
</g>
</g>
<!-- ValuedToken -->
<g id="node5" class="node">
<title>ValuedToken</title>
<g id="a_node5"><a xlink:href="../pyVHDLParser.Token.html#pyVHDLParser.Token.ValuedToken" xlink:title="Base&#45;class for all *valued* token." target="_top">
<polygon fill="white" stroke="#1e90ff" points="188.5,-515730.02 90,-515730.02 90,-515711.52 188.5,-515711.52 188.5,-515730.02"/>
<text text-anchor="middle" x="139.25" y="-515716.52" font-family="Vera Sans, DejaVu Sans, Liberation Sans, Arial, Helvetica, sans" font-size="10.00">ValuedToken</text>
</a>
</g>
</g>
<!-- Token&#45;&gt;ValuedToken -->
<g id="edge4" class="edge">
<title>Token&#45;&gt;ValuedToken</title>
<path fill="none" stroke="black" stroke-width="0.5" d="M54.41,-515720.77C63.25,-515720.77 73.45,-515720.77 83.64,-515720.77"/>
<polygon fill="black" stroke="black" stroke-width="0.5" points="84.62,-515722.52 89.62,-515720.77 84.62,-515719.02 84.62,-515722.52"/>
</g>
<!-- ValuedToken&#45;&gt;VHDLToken -->
<g id="edge3" class="edge">
<title>ValuedToken&#45;&gt;VHDLToken</title>
<path fill="none" stroke="black" stroke-width="0.5" d="M188.94,-515720.77C198.59,-515720.77 208.7,-515720.77 218.29,-515720.77"/>
<polygon fill="black" stroke="black" stroke-width="0.5" points="219.19,-515722.52 224.19,-515720.77 219.19,-515719.02 219.19,-515722.52"/>
</g>
</g>
</svg>
