<?xml version="1.0" encoding="UTF-8" standalone="no"?>
<!DOCTYPE svg PUBLIC "-//W3C//DTD SVG 1.1//EN"
 "http://www.w3.org/Graphics/SVG/1.1/DTD/svg11.dtd">
<!-- Generated by graphviz version 8.0.5 (20230430.1635)
 -->
<!-- Title: inheritance0a063f7974 Pages: 1 -->
<svg width="1pt" height="864pt"
 viewBox="0.00 0.00 0.95 864.00" xmlns="http://www.w3.org/2000/svg" xmlns:xlink="http://www.w3.org/1999/xlink">
<g id="graph0" class="graph" transform="scale(0.000895826 0.000895826) rotate(0) translate(4 964468.78)">
<title>inheritance0a063f7974</title>
<!-- LessThanOrEqualOperator -->
<g id="node1" class="node">
<title>LessThanOrEqualOperator</title>
<g id="a_node1"><a xlink:href="../pyVHDLParser/pyVHDLParser.Token.Keywords.html#pyVHDLParser.Token.Keywords.LessThanOrEqualOperator" xlink:title="LessThanOrEqualOperator" target="_top">
<polygon fill="white" stroke="#1e90ff" points="1048.5,-482241.64 860,-482241.64 860,-482223.14 1048.5,-482223.14 1048.5,-482241.64"/>
<text text-anchor="middle" x="954.25" y="-482228.14" font-family="Vera Sans, DejaVu Sans, Liberation Sans, Arial, Helvetica, sans" font-size="10.00">LessThanOrEqualOperator</text>
</a>
</g>
</g>
<!-- RelationalOperator -->
<g id="node2" class="node">
<title>RelationalOperator</title>
<g id="a_node2"><a xlink:href="../pyVHDLParser/pyVHDLParser.Token.Keywords.html#pyVHDLParser.Token.Keywords.RelationalOperator" xlink:title="Base&#45;class for all relational operator tokens." target="_top">
<polygon fill="white" stroke="#1e90ff" points="824,-964464.78 673,-964464.78 673,0 824,0 824,-964464.78"/>
<text text-anchor="middle" x="748.5" y="-964451.28" font-family="Vera Sans, DejaVu Sans, Liberation Sans, Arial, Helvetica, sans" font-size="10.00">RelationalOperator</text>
</a>
</g>
</g>
<!-- RelationalOperator&#45;&gt;LessThanOrEqualOperator -->
<g id="edge1" class="edge">
<title>RelationalOperator&#45;&gt;LessThanOrEqualOperator</title>
<path fill="none" stroke="black" stroke-width="0.5" d="M824.21,-482232.39C833.9,-482232.39 843.93,-482232.39 853.94,-482232.39"/>
<polygon fill="black" stroke="black" stroke-width="0.5" points="854.82,-482234.14 859.82,-482232.39 854.82,-482230.64 854.82,-482234.14"/>
</g>
<!-- OperatorToken -->
<g id="node3" class="node">
<title>OperatorToken</title>
<g id="a_node3"><a xlink:href="../pyVHDLParser/pyVHDLParser.Token.Keywords.html#pyVHDLParser.Token.Keywords.OperatorToken" xlink:title="Base&#45;class for all operator tokens." target="_top">
<polygon fill="white" stroke="#1e90ff" points="637,-964461.58 523.5,-964461.58 523.5,-3.21 637,-3.21 637,-964461.58"/>
<text text-anchor="middle" x="580.25" y="-964448.08" font-family="Vera Sans, DejaVu Sans, Liberation Sans, Arial, Helvetica, sans" font-size="10.00">OperatorToken</text>
</a>
</g>
</g>
<!-- OperatorToken&#45;&gt;RelationalOperator -->
<g id="edge3" class="edge">
<title>OperatorToken&#45;&gt;RelationalOperator</title>
<path fill="none" stroke="black" stroke-width="0.5" d="M637.07,-482232.39C646.61,-482232.39 656.69,-482232.39 666.73,-482232.39"/>
<polygon fill="black" stroke="black" stroke-width="0.5" points="667.63,-482234.14 672.63,-482232.39 667.63,-482230.64 667.63,-482234.14"/>
</g>
<!-- SpecificVHDLToken -->
<g id="node4" class="node">
<title>SpecificVHDLToken</title>
<g id="a_node4"><a xlink:href="../pyVHDLParser/pyVHDLParser.Token.Keywords.html#pyVHDLParser.Token.Keywords.SpecificVHDLToken" xlink:title="Base&#45;class for all specific tokens." target="_top">
<polygon fill="white" stroke="#1e90ff" points="487.5,-482241.64 344,-482241.64 344,-482223.14 487.5,-482223.14 487.5,-482241.64"/>
<text text-anchor="middle" x="415.75" y="-482228.14" font-family="Vera Sans, DejaVu Sans, Liberation Sans, Arial, Helvetica, sans" font-size="10.00">SpecificVHDLToken</text>
</a>
</g>
</g>
<!-- SpecificVHDLToken&#45;&gt;OperatorToken -->
<g id="edge2" class="edge">
<title>SpecificVHDLToken&#45;&gt;OperatorToken</title>
<path fill="none" stroke="black" stroke-width="0.5" d="M487.55,-482232.39C497.56,-482232.39 507.79,-482232.39 517.6,-482232.39"/>
<polygon fill="black" stroke="black" stroke-width="0.5" points="518.33,-482234.14 523.33,-482232.39 518.33,-482230.64 518.33,-482234.14"/>
</g>
<!-- VHDLToken -->
<g id="node5" class="node">
<title>VHDLToken</title>
<g id="a_node5"><a xlink:href="../pyVHDLParser.Token.html#pyVHDLParser.Token.VHDLToken" xlink:title="Base&#45;class for all VHDL specific tokens." target="_top">
<polygon fill="white" stroke="#1e90ff" points="308,-482241.64 224.5,-482241.64 224.5,-482223.14 308,-482223.14 308,-482241.64"/>
<text text-anchor="middle" x="266.25" y="-482228.14" font-family="Vera Sans, DejaVu Sans, Liberation Sans, Arial, Helvetica, sans" font-size="10.00">VHDLToken</text>
</a>
</g>
</g>
<!-- VHDLToken&#45;&gt;SpecificVHDLToken -->
<g id="edge4" class="edge">
<title>VHDLToken&#45;&gt;SpecificVHDLToken</title>
<path fill="none" stroke="black" stroke-width="0.5" d="M308.34,-482232.39C317.53,-482232.39 327.57,-482232.39 337.69,-482232.39"/>
<polygon fill="black" stroke="black" stroke-width="0.5" points="338.66,-482234.14 343.66,-482232.39 338.66,-482230.64 338.66,-482234.14"/>
</g>
<!-- Token -->
<g id="node6" class="node">
<title>Token</title>
<g id="a_node6"><a xlink:href="../pyVHDLParser.Token.html#pyVHDLParser.Token.Token" xlink:title="Base&#45;class for all token classes." target="_top">
<polygon fill="white" stroke="#1e90ff" points="54,-482241.64 0,-482241.64 0,-482223.14 54,-482223.14 54,-482241.64"/>
<text text-anchor="middle" x="27" y="-482228.14" font-family="Vera Sans, DejaVu Sans, Liberation Sans, Arial, Helvetica, sans" font-size="10.00">Token</text>
</a>
</g>
</g>
<!-- ValuedToken -->
<g id="node7" class="node">
<title>ValuedToken</title>
<g id="a_node7"><a xlink:href="../pyVHDLParser.Token.html#pyVHDLParser.Token.ValuedToken" xlink:title="Base&#45;class for all *valued* token." target="_top">
<polygon fill="white" stroke="#1e90ff" points="188.5,-482253.64 90,-482253.64 90,-482211.14 188.5,-482211.14 188.5,-482253.64"/>
<text text-anchor="middle" x="139.25" y="-482240.14" font-family="Vera Sans, DejaVu Sans, Liberation Sans, Arial, Helvetica, sans" font-size="10.00">ValuedToken</text>
</a>
</g>
</g>
<!-- Token&#45;&gt;ValuedToken -->
<g id="edge6" class="edge">
<title>Token&#45;&gt;ValuedToken</title>
<path fill="none" stroke="black" stroke-width="0.5" d="M54.41,-482232.39C63.25,-482232.39 73.45,-482232.39 83.64,-482232.39"/>
<polygon fill="black" stroke="black" stroke-width="0.5" points="84.62,-482234.14 89.62,-482232.39 84.62,-482230.64 84.62,-482234.14"/>
</g>
<!-- ValuedToken&#45;&gt;VHDLToken -->
<g id="edge5" class="edge">
<title>ValuedToken&#45;&gt;VHDLToken</title>
<path fill="none" stroke="black" stroke-width="0.5" d="M188.94,-482232.39C198.59,-482232.39 208.7,-482232.39 218.29,-482232.39"/>
<polygon fill="black" stroke="black" stroke-width="0.5" points="219.19,-482234.14 224.19,-482232.39 219.19,-482230.64 219.19,-482234.14"/>
</g>
</g>
</svg>
