<?xml version="1.0" encoding="UTF-8" standalone="no"?>
<!DOCTYPE svg PUBLIC "-//W3C//DTD SVG 1.1//EN"
 "http://www.w3.org/Graphics/SVG/1.1/DTD/svg11.dtd">
<!-- Generated by graphviz version 8.0.5 (20230430.1635)
 -->
<!-- Title: inheritance1ad676096b Pages: 1 -->
<svg width="1pt" height="864pt"
 viewBox="0.00 0.00 1.43 864.00" xmlns="http://www.w3.org/2000/svg" xmlns:xlink="http://www.w3.org/1999/xlink">
<g id="graph0" class="graph" transform="scale(0.0016743 0.0016743) rotate(0) translate(4 516031.08)">
<title>inheritance1ad676096b</title>
<!-- KeywordToken -->
<g id="node1" class="node">
<title>KeywordToken</title>
<g id="a_node1"><a xlink:href="../pyVHDLParser/pyVHDLParser.Token.Keywords.html#pyVHDLParser.Token.Keywords.KeywordToken" xlink:title="KeywordToken" target="_top">
<polygon fill="white" stroke="#1e90ff" points="450,-258022.79 344,-258022.79 344,-258004.29 450,-258004.29 450,-258022.79"/>
<text text-anchor="middle" x="397" y="-258009.29" font-family="Vera Sans, DejaVu Sans, Liberation Sans, Arial, Helvetica, sans" font-size="10.00">KeywordToken</text>
</a>
</g>
</g>
<!-- Operator -->
<g id="node3" class="node">
<title>Operator</title>
<g id="a_node3"><a xlink:href="../pyVHDLParser/pyVHDLParser.Token.Keywords.html#pyVHDLParser.Token.Keywords.Operator" xlink:title="Operator" target="_top">
<polygon fill="white" stroke="#1e90ff" points="562,-516027.03 486,-516027.03 486,-0.05 562,-0.05 562,-516027.03"/>
<text text-anchor="middle" x="524" y="-516013.53" font-family="Vera Sans, DejaVu Sans, Liberation Sans, Arial, Helvetica, sans" font-size="10.00">Operator</text>
</a>
</g>
</g>
<!-- KeywordToken&#45;&gt;Operator -->
<g id="edge2" class="edge">
<title>KeywordToken&#45;&gt;Operator</title>
<path fill="none" stroke="black" stroke-width="0.5" d="M450.29,-258013.54C460.15,-258013.54 470.36,-258013.54 479.9,-258013.54"/>
<polygon fill="black" stroke="black" stroke-width="0.5" points="480.74,-258015.29 485.74,-258013.54 480.74,-258011.79 480.74,-258015.29"/>
</g>
<!-- VHDLToken -->
<g id="node2" class="node">
<title>VHDLToken</title>
<g id="a_node2"><a xlink:href="../pyVHDLParser.Token.html#pyVHDLParser.Token.VHDLToken" xlink:title="Base&#45;class for all VHDL specific tokens." target="_top">
<polygon fill="white" stroke="#1e90ff" points="308,-516027.08 224.5,-516027.08 224.5,0 308,0 308,-516027.08"/>
<text text-anchor="middle" x="266.25" y="-516013.58" font-family="Vera Sans, DejaVu Sans, Liberation Sans, Arial, Helvetica, sans" font-size="10.00">VHDLToken</text>
</a>
</g>
</g>
<!-- VHDLToken&#45;&gt;KeywordToken -->
<g id="edge1" class="edge">
<title>VHDLToken&#45;&gt;KeywordToken</title>
<path fill="none" stroke="black" stroke-width="0.5" d="M308.34,-258013.54C317.69,-258013.54 327.8,-258013.54 337.71,-258013.54"/>
<polygon fill="black" stroke="black" stroke-width="0.5" points="338.52,-258015.29 343.52,-258013.54 338.52,-258011.79 338.52,-258015.29"/>
</g>
<!-- ShiftOperator -->
<g id="node4" class="node">
<title>ShiftOperator</title>
<g id="a_node4"><a xlink:href="../pyVHDLParser/pyVHDLParser.Token.Keywords.html#pyVHDLParser.Token.Keywords.ShiftOperator" xlink:title="ShiftOperator" target="_top">
<polygon fill="white" stroke="#1e90ff" points="711.5,-258022.79 598,-258022.79 598,-258004.29 711.5,-258004.29 711.5,-258022.79"/>
<text text-anchor="middle" x="654.75" y="-258009.29" font-family="Vera Sans, DejaVu Sans, Liberation Sans, Arial, Helvetica, sans" font-size="10.00">ShiftOperator</text>
</a>
</g>
</g>
<!-- Operator&#45;&gt;ShiftOperator -->
<g id="edge3" class="edge">
<title>Operator&#45;&gt;ShiftOperator</title>
<path fill="none" stroke="black" stroke-width="0.5" d="M562.24,-258013.54C571.55,-258013.54 581.79,-258013.54 591.95,-258013.54"/>
<polygon fill="black" stroke="black" stroke-width="0.5" points="592.91,-258015.29 597.91,-258013.54 592.91,-258011.79 592.91,-258015.29"/>
</g>
<!-- SrlOperator -->
<g id="node5" class="node">
<title>SrlOperator</title>
<g id="a_node5"><a xlink:href="../pyVHDLParser/pyVHDLParser.Token.Keywords.html#pyVHDLParser.Token.Keywords.SrlOperator" xlink:title="SrlOperator" target="_top">
<polygon fill="white" stroke="#1e90ff" points="846,-258022.79 747.5,-258022.79 747.5,-258004.29 846,-258004.29 846,-258022.79"/>
<text text-anchor="middle" x="796.75" y="-258009.29" font-family="Vera Sans, DejaVu Sans, Liberation Sans, Arial, Helvetica, sans" font-size="10.00">SrlOperator</text>
</a>
</g>
</g>
<!-- ShiftOperator&#45;&gt;SrlOperator -->
<g id="edge4" class="edge">
<title>ShiftOperator&#45;&gt;SrlOperator</title>
<path fill="none" stroke="black" stroke-width="0.5" d="M711.89,-258013.54C721.59,-258013.54 731.66,-258013.54 741.32,-258013.54"/>
<polygon fill="black" stroke="black" stroke-width="0.5" points="742.27,-258015.29 747.27,-258013.54 742.27,-258011.79 742.27,-258015.29"/>
</g>
<!-- Token -->
<g id="node6" class="node">
<title>Token</title>
<g id="a_node6"><a xlink:href="../pyVHDLParser.Token.html#pyVHDLParser.Token.Token" xlink:title="Base&#45;class for all token classes." target="_top">
<polygon fill="white" stroke="#1e90ff" points="54,-258022.79 0,-258022.79 0,-258004.29 54,-258004.29 54,-258022.79"/>
<text text-anchor="middle" x="27" y="-258009.29" font-family="Vera Sans, DejaVu Sans, Liberation Sans, Arial, Helvetica, sans" font-size="10.00">Token</text>
</a>
</g>
</g>
<!-- ValuedToken -->
<g id="node7" class="node">
<title>ValuedToken</title>
<g id="a_node7"><a xlink:href="../pyVHDLParser.Token.html#pyVHDLParser.Token.ValuedToken" xlink:title="Base&#45;class for all *valued* token." target="_top">
<polygon fill="white" stroke="#1e90ff" points="188.5,-258022.79 90,-258022.79 90,-258004.29 188.5,-258004.29 188.5,-258022.79"/>
<text text-anchor="middle" x="139.25" y="-258009.29" font-family="Vera Sans, DejaVu Sans, Liberation Sans, Arial, Helvetica, sans" font-size="10.00">ValuedToken</text>
</a>
</g>
</g>
<!-- Token&#45;&gt;ValuedToken -->
<g id="edge6" class="edge">
<title>Token&#45;&gt;ValuedToken</title>
<path fill="none" stroke="black" stroke-width="0.5" d="M54.41,-258013.54C63.25,-258013.54 73.45,-258013.54 83.64,-258013.54"/>
<polygon fill="black" stroke="black" stroke-width="0.5" points="84.62,-258015.29 89.62,-258013.54 84.62,-258011.79 84.62,-258015.29"/>
</g>
<!-- ValuedToken&#45;&gt;VHDLToken -->
<g id="edge5" class="edge">
<title>ValuedToken&#45;&gt;VHDLToken</title>
<path fill="none" stroke="black" stroke-width="0.5" d="M188.94,-258013.54C198.59,-258013.54 208.7,-258013.54 218.29,-258013.54"/>
<polygon fill="black" stroke="black" stroke-width="0.5" points="219.19,-258015.29 224.19,-258013.54 219.19,-258011.79 219.19,-258015.29"/>
</g>
</g>
</svg>
