<?xml version="1.0" encoding="UTF-8" standalone="no"?>
<!DOCTYPE svg PUBLIC "-//W3C//DTD SVG 1.1//EN"
 "http://www.w3.org/Graphics/SVG/1.1/DTD/svg11.dtd">
<!-- Generated by graphviz version 8.0.5 (20230430.1635)
 -->
<!-- Title: inheritance3a2848f940 Pages: 1 -->
<svg width="576pt" height="17pt"
 viewBox="0.00 0.00 576.00 17.24" xmlns="http://www.w3.org/2000/svg" xmlns:xlink="http://www.w3.org/1999/xlink">
<g id="graph0" class="graph" transform="scale(0.65048 0.65048) rotate(0) translate(4 22.5)">
<title>inheritance3a2848f940</title>
<!-- Block -->
<g id="node1" class="node">
<title>Block</title>
<g id="a_node1"><a xlink:href="../pyVHDLParser.Blocks.html#pyVHDLParser.Blocks.Block" xlink:title="Base&#45;class for all :term:`block` classes." target="_top">
<polygon fill="white" stroke="#1e90ff" points="54,-18.5 0,-18.5 0,0 54,0 54,-18.5"/>
<text text-anchor="middle" x="27" y="-5" font-family="Vera Sans, DejaVu Sans, Liberation Sans, Arial, Helvetica, sans" font-size="10.00">Block</text>
</a>
</g>
</g>
<!-- ExpressionBlock -->
<g id="node4" class="node">
<title>ExpressionBlock</title>
<g id="a_node4"><a xlink:href="../pyVHDLParser.Blocks.Expression.html#pyVHDLParser.Blocks.Expression.ExpressionBlock" xlink:title="ExpressionBlock" target="_top">
<polygon fill="white" stroke="#1e90ff" points="218.5,-18.5 90,-18.5 90,0 218.5,0 218.5,-18.5"/>
<text text-anchor="middle" x="154.25" y="-5" font-family="Vera Sans, DejaVu Sans, Liberation Sans, Arial, Helvetica, sans" font-size="10.00">ExpressionBlock</text>
</a>
</g>
</g>
<!-- Block&#45;&gt;ExpressionBlock -->
<g id="edge2" class="edge">
<title>Block&#45;&gt;ExpressionBlock</title>
<path fill="none" stroke="black" stroke-width="0.5" d="M54.26,-9.25C63.03,-9.25 73.27,-9.25 83.76,-9.25"/>
<polygon fill="black" stroke="black" stroke-width="0.5" points="84.61,-11 89.61,-9.25 84.61,-7.5 84.61,-11"/>
</g>
<!-- DefaultValueExpressionBlock -->
<g id="node2" class="node">
<title>DefaultValueExpressionBlock</title>
<g id="a_node2"><a xlink:href="../pyVHDLParser/pyVHDLParser.Blocks.List.GenericList.html#pyVHDLParser.Blocks.List.GenericList.DefaultValueExpressionBlock" xlink:title="DefaultValueExpressionBlock" target="_top">
<polygon fill="white" stroke="#1e90ff" points="877.5,-18.5 659,-18.5 659,0 877.5,0 877.5,-18.5"/>
<text text-anchor="middle" x="768.25" y="-5" font-family="Vera Sans, DejaVu Sans, Liberation Sans, Arial, Helvetica, sans" font-size="10.00">DefaultValueExpressionBlock</text>
</a>
</g>
</g>
<!-- ExpressionBlockEndedByCharORClosingRoundBracket -->
<g id="node3" class="node">
<title>ExpressionBlockEndedByCharORClosingRoundBracket</title>
<g id="a_node3"><a xlink:href="../pyVHDLParser.Blocks.Expression.html#pyVHDLParser.Blocks.Expression.ExpressionBlockEndedByCharORClosingRoundBracket" xlink:title="ExpressionBlockEndedByCharORClosingRoundBracket" target="_top">
<polygon fill="white" stroke="#1e90ff" points="623,-18.5 254.5,-18.5 254.5,0 623,0 623,-18.5"/>
<text text-anchor="middle" x="438.75" y="-5" font-family="Vera Sans, DejaVu Sans, Liberation Sans, Arial, Helvetica, sans" font-size="10.00">ExpressionBlockEndedByCharORClosingRoundBracket</text>
</a>
</g>
</g>
<!-- ExpressionBlockEndedByCharORClosingRoundBracket&#45;&gt;DefaultValueExpressionBlock -->
<g id="edge1" class="edge">
<title>ExpressionBlockEndedByCharORClosingRoundBracket&#45;&gt;DefaultValueExpressionBlock</title>
<path fill="none" stroke="black" stroke-width="0.5" d="M623.13,-9.25C633.27,-9.25 643.31,-9.25 653.09,-9.25"/>
<polygon fill="black" stroke="black" stroke-width="0.5" points="653.81,-11 658.81,-9.25 653.81,-7.5 653.81,-11"/>
</g>
<!-- ExpressionBlock&#45;&gt;ExpressionBlockEndedByCharORClosingRoundBracket -->
<g id="edge3" class="edge">
<title>ExpressionBlock&#45;&gt;ExpressionBlockEndedByCharORClosingRoundBracket</title>
<path fill="none" stroke="black" stroke-width="0.5" d="M218.65,-9.25C227.98,-9.25 237.98,-9.25 248.36,-9.25"/>
<polygon fill="black" stroke="black" stroke-width="0.5" points="249.17,-11 254.17,-9.25 249.17,-7.5 249.17,-11"/>
</g>
</g>
</svg>
