<?xml version="1.0" encoding="UTF-8" standalone="no"?>
<!DOCTYPE svg PUBLIC "-//W3C//DTD SVG 1.1//EN"
 "http://www.w3.org/Graphics/SVG/1.1/DTD/svg11.dtd">
<!-- Generated by graphviz version 8.0.5 (20230430.1635)
 -->
<!-- Title: inheritanced661cc6778 Pages: 1 -->
<svg width="2pt" height="864pt"
 viewBox="0.00 0.00 1.87 864.00" xmlns="http://www.w3.org/2000/svg" xmlns:xlink="http://www.w3.org/1999/xlink">
<g id="graph0" class="graph" transform="scale(0.00286225 0.00286225) rotate(0) translate(4 301856.37)">
<title>inheritanced661cc6778</title>
<!-- IntegerLiteralToken -->
<g id="node1" class="node">
<title>IntegerLiteralToken</title>
<g id="a_node1"><a xlink:href="../pyVHDLParser/pyVHDLParser.Token.html#pyVHDLParser.Token.IntegerLiteralToken" xlink:title="Token representing an integer literal." target="_top">
<polygon fill="white" stroke="#1e90ff" points="644.5,-301846.99 486,-301846.99 486,-5.37 644.5,-5.37 644.5,-301846.99"/>
<text text-anchor="middle" x="565.25" y="-301833.49" font-family="Vera Sans, DejaVu Sans, Liberation Sans, Arial, Helvetica, sans" font-size="10.00">IntegerLiteralToken</text>
</a>
</g>
</g>
<!-- LiteralToken -->
<g id="node2" class="node">
<title>LiteralToken</title>
<g id="a_node2"><a xlink:href="../pyVHDLParser/pyVHDLParser.Token.html#pyVHDLParser.Token.LiteralToken" xlink:title="Base&#45;class for all literals in VHDL." target="_top">
<polygon fill="white" stroke="#1e90ff" points="450,-301852.37 344,-301852.37 344,0 450,0 450,-301852.37"/>
<text text-anchor="middle" x="397" y="-301838.87" font-family="Vera Sans, DejaVu Sans, Liberation Sans, Arial, Helvetica, sans" font-size="10.00">LiteralToken</text>
</a>
</g>
</g>
<!-- LiteralToken&#45;&gt;IntegerLiteralToken -->
<g id="edge1" class="edge">
<title>LiteralToken&#45;&gt;IntegerLiteralToken</title>
<path fill="none" stroke="black" stroke-width="0.5" d="M450.15,-150926.18C459.62,-150926.18 469.72,-150926.18 479.84,-150926.18"/>
<polygon fill="black" stroke="black" stroke-width="0.5" points="480.8,-150927.93 485.8,-150926.18 480.8,-150924.43 480.8,-150927.93"/>
</g>
<!-- VHDLToken -->
<g id="node3" class="node">
<title>VHDLToken</title>
<g id="a_node3"><a xlink:href="../pyVHDLParser/pyVHDLParser.Token.html#pyVHDLParser.Token.VHDLToken" xlink:title="Base&#45;class for all VHDL specific tokens." target="_top">
<polygon fill="white" stroke="#1e90ff" points="308,-150940.93 224.5,-150940.93 224.5,-150911.44 308,-150911.44 308,-150940.93"/>
<text text-anchor="middle" x="266.25" y="-150927.43" font-family="Vera Sans, DejaVu Sans, Liberation Sans, Arial, Helvetica, sans" font-size="10.00">VHDLToken</text>
</a>
</g>
</g>
<!-- VHDLToken&#45;&gt;LiteralToken -->
<g id="edge2" class="edge">
<title>VHDLToken&#45;&gt;LiteralToken</title>
<path fill="none" stroke="black" stroke-width="0.5" d="M308.34,-150926.18C317.69,-150926.18 327.8,-150926.18 337.71,-150926.18"/>
<polygon fill="black" stroke="black" stroke-width="0.5" points="338.52,-150927.93 343.52,-150926.18 338.52,-150924.43 338.52,-150927.93"/>
</g>
<!-- Token -->
<g id="node4" class="node">
<title>Token</title>
<g id="a_node4"><a xlink:href="../pyVHDLParser/pyVHDLParser.Token.html#pyVHDLParser.Token.Token" xlink:title="Base&#45;class for all token classes." target="_top">
<polygon fill="white" stroke="#1e90ff" points="54,-150935.43 0,-150935.43 0,-150916.93 54,-150916.93 54,-150935.43"/>
<text text-anchor="middle" x="27" y="-150921.93" font-family="Vera Sans, DejaVu Sans, Liberation Sans, Arial, Helvetica, sans" font-size="10.00">Token</text>
</a>
</g>
</g>
<!-- ValuedToken -->
<g id="node5" class="node">
<title>ValuedToken</title>
<g id="a_node5"><a xlink:href="../pyVHDLParser/pyVHDLParser.Token.html#pyVHDLParser.Token.ValuedToken" xlink:title="Base&#45;class for all *valued* token." target="_top">
<polygon fill="white" stroke="#1e90ff" points="188.5,-301851.72 90,-301851.72 90,-0.65 188.5,-0.65 188.5,-301851.72"/>
<text text-anchor="middle" x="139.25" y="-301838.22" font-family="Vera Sans, DejaVu Sans, Liberation Sans, Arial, Helvetica, sans" font-size="10.00">ValuedToken</text>
</a>
</g>
</g>
<!-- Token&#45;&gt;ValuedToken -->
<g id="edge4" class="edge">
<title>Token&#45;&gt;ValuedToken</title>
<path fill="none" stroke="black" stroke-width="0.5" d="M54.41,-150926.18C63.25,-150926.18 73.45,-150926.18 83.64,-150926.18"/>
<polygon fill="black" stroke="black" stroke-width="0.5" points="84.62,-150927.93 89.62,-150926.18 84.62,-150924.43 84.62,-150927.93"/>
</g>
<!-- ValuedToken&#45;&gt;VHDLToken -->
<g id="edge3" class="edge">
<title>ValuedToken&#45;&gt;VHDLToken</title>
<path fill="none" stroke="black" stroke-width="0.5" d="M188.94,-150926.18C198.59,-150926.18 208.7,-150926.18 218.29,-150926.18"/>
<polygon fill="black" stroke="black" stroke-width="0.5" points="219.19,-150927.93 224.19,-150926.18 219.19,-150924.43 219.19,-150927.93"/>
</g>
</g>
</svg>
