<?xml version="1.0" encoding="UTF-8" standalone="no"?>
<!DOCTYPE svg PUBLIC "-//W3C//DTD SVG 1.1//EN"
 "http://www.w3.org/Graphics/SVG/1.1/DTD/svg11.dtd">
<!-- Generated by graphviz version 8.0.5 (20230430.1635)
 -->
<!-- Title: inheritancee0b9f83145 Pages: 1 -->
<svg width="1pt" height="864pt"
 viewBox="0.00 0.00 0.55 864.00" xmlns="http://www.w3.org/2000/svg" xmlns:xlink="http://www.w3.org/1999/xlink">
<g id="graph0" class="graph" transform="scale(0.000845881 0.000845881) rotate(0) translate(4 1021416.18)">
<title>inheritancee0b9f83145</title>
<!-- BoundaryToken -->
<g id="node1" class="node">
<title>BoundaryToken</title>
<g id="a_node1"><a xlink:href="../pyVHDLParser/pyVHDLParser.Token.Keywords.html#pyVHDLParser.Token.Keywords.BoundaryToken" xlink:title="Token representing a boundary between (reserved) words." target="_top">
<polygon fill="white" stroke="#1e90ff" points="637,-510715.34 523.5,-510715.34 523.5,-510696.84 637,-510696.84 637,-510715.34"/>
<text text-anchor="middle" x="580.25" y="-510701.84" font-family="Vera Sans, DejaVu Sans, Liberation Sans, Arial, Helvetica, sans" font-size="10.00">BoundaryToken</text>
</a>
</g>
</g>
<!-- SpecificVHDLToken -->
<g id="node2" class="node">
<title>SpecificVHDLToken</title>
<g id="a_node2"><a xlink:href="../pyVHDLParser/pyVHDLParser.Token.Keywords.html#pyVHDLParser.Token.Keywords.SpecificVHDLToken" xlink:title="Base&#45;class for all specific tokens." target="_top">
<polygon fill="white" stroke="#1e90ff" points="487.5,-510715.34 344,-510715.34 344,-510696.84 487.5,-510696.84 487.5,-510715.34"/>
<text text-anchor="middle" x="415.75" y="-510701.84" font-family="Vera Sans, DejaVu Sans, Liberation Sans, Arial, Helvetica, sans" font-size="10.00">SpecificVHDLToken</text>
</a>
</g>
</g>
<!-- SpecificVHDLToken&#45;&gt;BoundaryToken -->
<g id="edge1" class="edge">
<title>SpecificVHDLToken&#45;&gt;BoundaryToken</title>
<path fill="none" stroke="black" stroke-width="0.5" d="M487.55,-510706.09C497.56,-510706.09 507.79,-510706.09 517.6,-510706.09"/>
<polygon fill="black" stroke="black" stroke-width="0.5" points="518.33,-510707.84 523.33,-510706.09 518.33,-510704.34 518.33,-510707.84"/>
</g>
<!-- VHDLToken -->
<g id="node3" class="node">
<title>VHDLToken</title>
<g id="a_node3"><a xlink:href="../pyVHDLParser.Token.html#pyVHDLParser.Token.VHDLToken" xlink:title="Base&#45;class for all VHDL specific tokens." target="_top">
<polygon fill="white" stroke="#1e90ff" points="308,-1021412.13 224.5,-1021412.13 224.5,-0.05 308,-0.05 308,-1021412.13"/>
<text text-anchor="middle" x="266.25" y="-1021398.63" font-family="Vera Sans, DejaVu Sans, Liberation Sans, Arial, Helvetica, sans" font-size="10.00">VHDLToken</text>
</a>
</g>
</g>
<!-- VHDLToken&#45;&gt;SpecificVHDLToken -->
<g id="edge2" class="edge">
<title>VHDLToken&#45;&gt;SpecificVHDLToken</title>
<path fill="none" stroke="black" stroke-width="0.5" d="M308.34,-510706.09C317.53,-510706.09 327.57,-510706.09 337.69,-510706.09"/>
<polygon fill="black" stroke="black" stroke-width="0.5" points="338.66,-510707.84 343.66,-510706.09 338.66,-510704.34 338.66,-510707.84"/>
</g>
<!-- Token -->
<g id="node4" class="node">
<title>Token</title>
<g id="a_node4"><a xlink:href="../pyVHDLParser.Token.html#pyVHDLParser.Token.Token" xlink:title="Base&#45;class for all token classes." target="_top">
<polygon fill="white" stroke="#1e90ff" points="54,-1021412.18 0,-1021412.18 0,0 54,0 54,-1021412.18"/>
<text text-anchor="middle" x="27" y="-1021398.68" font-family="Vera Sans, DejaVu Sans, Liberation Sans, Arial, Helvetica, sans" font-size="10.00">Token</text>
</a>
</g>
</g>
<!-- ValuedToken -->
<g id="node5" class="node">
<title>ValuedToken</title>
<g id="a_node5"><a xlink:href="../pyVHDLParser.Token.html#pyVHDLParser.Token.ValuedToken" xlink:title="Base&#45;class for all *valued* token." target="_top">
<polygon fill="white" stroke="#1e90ff" points="188.5,-510715.34 90,-510715.34 90,-510696.84 188.5,-510696.84 188.5,-510715.34"/>
<text text-anchor="middle" x="139.25" y="-510701.84" font-family="Vera Sans, DejaVu Sans, Liberation Sans, Arial, Helvetica, sans" font-size="10.00">ValuedToken</text>
</a>
</g>
</g>
<!-- Token&#45;&gt;ValuedToken -->
<g id="edge4" class="edge">
<title>Token&#45;&gt;ValuedToken</title>
<path fill="none" stroke="black" stroke-width="0.5" d="M54.41,-510706.09C63.25,-510706.09 73.45,-510706.09 83.64,-510706.09"/>
<polygon fill="black" stroke="black" stroke-width="0.5" points="84.62,-510707.84 89.62,-510706.09 84.62,-510704.34 84.62,-510707.84"/>
</g>
<!-- ValuedToken&#45;&gt;VHDLToken -->
<g id="edge3" class="edge">
<title>ValuedToken&#45;&gt;VHDLToken</title>
<path fill="none" stroke="black" stroke-width="0.5" d="M188.94,-510706.09C198.59,-510706.09 208.7,-510706.09 218.29,-510706.09"/>
<polygon fill="black" stroke="black" stroke-width="0.5" points="219.19,-510707.84 224.19,-510706.09 219.19,-510704.34 219.19,-510707.84"/>
</g>
</g>
</svg>
