<?xml version="1.0" encoding="UTF-8" standalone="no"?>
<!DOCTYPE svg PUBLIC "-//W3C//DTD SVG 1.1//EN"
 "http://www.w3.org/Graphics/SVG/1.1/DTD/svg11.dtd">
<!-- Generated by graphviz version 8.0.5 (20230430.1635)
 -->
<!-- Title: inheritance1cb0464eb2 Pages: 1 -->
<svg width="1pt" height="864pt"
 viewBox="0.00 0.00 0.64 864.00" xmlns="http://www.w3.org/2000/svg" xmlns:xlink="http://www.w3.org/1999/xlink">
<g id="graph0" class="graph" transform="scale(0.000930447 0.000930447) rotate(0) translate(4 928581.69)">
<title>inheritance1cb0464eb2</title>
<!-- Block -->
<g id="node1" class="node">
<title>Block</title>
<g id="a_node1"><a xlink:href="../pyVHDLParser.Blocks.html#pyVHDLParser.Blocks.Block" xlink:title="Base&#45;class for all :term:`block` classes." target="_top">
<polygon fill="white" stroke="#1e90ff" points="54,-464298.1 0,-464298.1 0,-464279.6 54,-464279.6 54,-464298.1"/>
<text text-anchor="middle" x="27" y="-464284.6" font-family="Vera Sans, DejaVu Sans, Liberation Sans, Arial, Helvetica, sans" font-size="10.00">Block</text>
</a>
</g>
</g>
<!-- SkipableBlock -->
<g id="node5" class="node">
<title>SkipableBlock</title>
<g id="a_node5"><a xlink:href="../pyVHDLParser.Blocks.html#pyVHDLParser.Blocks.SkipableBlock" xlink:title="Base&#45;class for blocks that can be skipped in fast&#45;forward scanning." target="_top">
<polygon fill="white" stroke="#1e90ff" points="203.5,-464298.13 90,-464298.13 90,-464279.56 203.5,-464279.56 203.5,-464298.13"/>
<text text-anchor="middle" x="146.75" y="-464284.63" font-family="Vera Sans, DejaVu Sans, Liberation Sans, Arial, Helvetica, sans" font-size="10.00">SkipableBlock</text>
</a>
</g>
</g>
<!-- Block&#45;&gt;SkipableBlock -->
<g id="edge3" class="edge">
<title>Block&#45;&gt;SkipableBlock</title>
<path fill="none" stroke="black" stroke-width="0.5" d="M54.43,-464288.85C63.24,-464288.85 73.46,-464288.85 83.8,-464288.85"/>
<polygon fill="black" stroke="black" stroke-width="0.5" points="84.56,-464290.6 89.56,-464288.85 84.56,-464287.1 84.56,-464290.6"/>
</g>
<!-- EmptyLineBlock -->
<g id="node2" class="node">
<title>EmptyLineBlock</title>
<g id="a_node2"><a xlink:href="../pyVHDLParser/pyVHDLParser.Blocks.Common.html#pyVHDLParser.Blocks.Common.EmptyLineBlock" xlink:title="EmptyLineBlock" target="_top">
<polygon fill="white" stroke="#1e90ff" points="682,-464298.1 561,-464298.1 561,-464279.6 682,-464279.6 682,-464298.1"/>
<text text-anchor="middle" x="621.5" y="-464284.6" font-family="Vera Sans, DejaVu Sans, Liberation Sans, Arial, Helvetica, sans" font-size="10.00">EmptyLineBlock</text>
</a>
</g>
</g>
<!-- LinebreakBlock -->
<g id="node3" class="node">
<title>LinebreakBlock</title>
<g id="a_node3"><a xlink:href="../pyVHDLParser/pyVHDLParser.Blocks.Common.html#pyVHDLParser.Blocks.Common.LinebreakBlock" xlink:title="LinebreakBlock" target="_top">
<polygon fill="white" stroke="#1e90ff" points="525,-928577.69 404,-928577.69 404,0 525,0 525,-928577.69"/>
<text text-anchor="middle" x="464.5" y="-928564.19" font-family="Vera Sans, DejaVu Sans, Liberation Sans, Arial, Helvetica, sans" font-size="10.00">LinebreakBlock</text>
</a>
</g>
</g>
<!-- LinebreakBlock&#45;&gt;EmptyLineBlock -->
<g id="edge1" class="edge">
<title>LinebreakBlock&#45;&gt;EmptyLineBlock</title>
<path fill="none" stroke="black" stroke-width="0.5" d="M525.43,-464288.85C535.11,-464288.85 545.18,-464288.85 554.99,-464288.85"/>
<polygon fill="black" stroke="black" stroke-width="0.5" points="555.73,-464290.6 560.73,-464288.85 555.73,-464287.1 555.73,-464290.6"/>
</g>
<!-- WhitespaceBlock -->
<g id="node4" class="node">
<title>WhitespaceBlock</title>
<g id="a_node4"><a xlink:href="../pyVHDLParser/pyVHDLParser.Blocks.Common.html#pyVHDLParser.Blocks.Common.WhitespaceBlock" xlink:title="WhitespaceBlock" target="_top">
<polygon fill="white" stroke="#1e90ff" points="368,-928577.65 239.5,-928577.65 239.5,-0.04 368,-0.04 368,-928577.65"/>
<text text-anchor="middle" x="303.75" y="-928564.15" font-family="Vera Sans, DejaVu Sans, Liberation Sans, Arial, Helvetica, sans" font-size="10.00">WhitespaceBlock</text>
</a>
</g>
</g>
<!-- WhitespaceBlock&#45;&gt;LinebreakBlock -->
<g id="edge2" class="edge">
<title>WhitespaceBlock&#45;&gt;LinebreakBlock</title>
<path fill="none" stroke="black" stroke-width="0.5" d="M368.4,-464288.85C378.05,-464288.85 388.01,-464288.85 397.7,-464288.85"/>
<polygon fill="black" stroke="black" stroke-width="0.5" points="398.69,-464290.6 403.69,-464288.85 398.69,-464287.1 398.69,-464290.6"/>
</g>
<!-- SkipableBlock&#45;&gt;WhitespaceBlock -->
<g id="edge4" class="edge">
<title>SkipableBlock&#45;&gt;WhitespaceBlock</title>
<path fill="none" stroke="black" stroke-width="0.5" d="M203.71,-464288.85C213.35,-464288.85 223.47,-464288.85 233.42,-464288.85"/>
<polygon fill="black" stroke="black" stroke-width="0.5" points="234.24,-464290.6 239.24,-464288.85 234.24,-464287.1 234.24,-464290.6"/>
</g>
</g>
</svg>
