<?xml version="1.0" encoding="UTF-8" standalone="no"?>
<!DOCTYPE svg PUBLIC "-//W3C//DTD SVG 1.1//EN"
 "http://www.w3.org/Graphics/SVG/1.1/DTD/svg11.dtd">
<!-- Generated by graphviz version 8.0.5 (20230430.1635)
 -->
<!-- Title: inheritance75c432c6f3 Pages: 1 -->
<svg width="2pt" height="864pt"
 viewBox="0.00 0.00 1.59 864.00" xmlns="http://www.w3.org/2000/svg" xmlns:xlink="http://www.w3.org/1999/xlink">
<g id="graph0" class="graph" transform="scale(0.00274742 0.00274742) rotate(0) translate(4 314472.55)">
<title>inheritance75c432c6f3</title>
<!-- KeywordToken -->
<g id="node1" class="node">
<title>KeywordToken</title>
<g id="a_node1"><a xlink:href="../pyVHDLParser/pyVHDLParser.Token.Keywords.html#pyVHDLParser.Token.Keywords.KeywordToken" xlink:title="KeywordToken" target="_top">
<polygon fill="white" stroke="#1e90ff" points="450,-157243.53 344,-157243.53 344,-157225.03 450,-157225.03 450,-157243.53"/>
<text text-anchor="middle" x="397" y="-157230.03" font-family="Vera Sans, DejaVu Sans, Liberation Sans, Arial, Helvetica, sans" font-size="10.00">KeywordToken</text>
</a>
</g>
</g>
<!-- OfKeyword -->
<g id="node3" class="node">
<title>OfKeyword</title>
<g id="a_node3"><a xlink:href="../pyVHDLParser/pyVHDLParser.Token.Keywords.html#pyVHDLParser.Token.Keywords.OfKeyword" xlink:title="OfKeyword" target="_top">
<polygon fill="white" stroke="#1e90ff" points="569.5,-314468.5 486,-314468.5 486,-0.05 569.5,-0.05 569.5,-314468.5"/>
<text text-anchor="middle" x="527.75" y="-314455" font-family="Vera Sans, DejaVu Sans, Liberation Sans, Arial, Helvetica, sans" font-size="10.00">OfKeyword</text>
</a>
</g>
</g>
<!-- KeywordToken&#45;&gt;OfKeyword -->
<g id="edge2" class="edge">
<title>KeywordToken&#45;&gt;OfKeyword</title>
<path fill="none" stroke="black" stroke-width="0.5" d="M450.37,-157234.28C460.17,-157234.28 470.35,-157234.28 479.97,-157234.28"/>
<polygon fill="black" stroke="black" stroke-width="0.5" points="480.88,-157236.03 485.88,-157234.28 480.88,-157232.53 480.88,-157236.03"/>
</g>
<!-- VHDLToken -->
<g id="node2" class="node">
<title>VHDLToken</title>
<g id="a_node2"><a xlink:href="../pyVHDLParser.Token.html#pyVHDLParser.Token.VHDLToken" xlink:title="Base&#45;class for all VHDL specific tokens." target="_top">
<polygon fill="white" stroke="#1e90ff" points="308,-157243.53 224.5,-157243.53 224.5,-157225.03 308,-157225.03 308,-157243.53"/>
<text text-anchor="middle" x="266.25" y="-157230.03" font-family="Vera Sans, DejaVu Sans, Liberation Sans, Arial, Helvetica, sans" font-size="10.00">VHDLToken</text>
</a>
</g>
</g>
<!-- VHDLToken&#45;&gt;KeywordToken -->
<g id="edge1" class="edge">
<title>VHDLToken&#45;&gt;KeywordToken</title>
<path fill="none" stroke="black" stroke-width="0.5" d="M308.34,-157234.28C317.69,-157234.28 327.8,-157234.28 337.71,-157234.28"/>
<polygon fill="black" stroke="black" stroke-width="0.5" points="338.52,-157236.03 343.52,-157234.28 338.52,-157232.53 338.52,-157236.03"/>
</g>
<!-- Token -->
<g id="node4" class="node">
<title>Token</title>
<g id="a_node4"><a xlink:href="../pyVHDLParser.Token.html#pyVHDLParser.Token.Token" xlink:title="Base&#45;class for all token classes." target="_top">
<polygon fill="white" stroke="#1e90ff" points="54,-314468.55 0,-314468.55 0,0 54,0 54,-314468.55"/>
<text text-anchor="middle" x="27" y="-314455.05" font-family="Vera Sans, DejaVu Sans, Liberation Sans, Arial, Helvetica, sans" font-size="10.00">Token</text>
</a>
</g>
</g>
<!-- ValuedToken -->
<g id="node5" class="node">
<title>ValuedToken</title>
<g id="a_node5"><a xlink:href="../pyVHDLParser.Token.html#pyVHDLParser.Token.ValuedToken" xlink:title="Base&#45;class for all *valued* token." target="_top">
<polygon fill="white" stroke="#1e90ff" points="188.5,-157249.02 90,-157249.02 90,-157219.53 188.5,-157219.53 188.5,-157249.02"/>
<text text-anchor="middle" x="139.25" y="-157235.52" font-family="Vera Sans, DejaVu Sans, Liberation Sans, Arial, Helvetica, sans" font-size="10.00">ValuedToken</text>
</a>
</g>
</g>
<!-- Token&#45;&gt;ValuedToken -->
<g id="edge4" class="edge">
<title>Token&#45;&gt;ValuedToken</title>
<path fill="none" stroke="black" stroke-width="0.5" d="M54.41,-157234.28C63.25,-157234.28 73.45,-157234.28 83.64,-157234.28"/>
<polygon fill="black" stroke="black" stroke-width="0.5" points="84.62,-157236.03 89.62,-157234.28 84.62,-157232.53 84.62,-157236.03"/>
</g>
<!-- ValuedToken&#45;&gt;VHDLToken -->
<g id="edge3" class="edge">
<title>ValuedToken&#45;&gt;VHDLToken</title>
<path fill="none" stroke="black" stroke-width="0.5" d="M188.94,-157234.28C198.59,-157234.28 208.7,-157234.28 218.29,-157234.28"/>
<polygon fill="black" stroke="black" stroke-width="0.5" points="219.19,-157236.03 224.19,-157234.28 219.19,-157232.53 219.19,-157236.03"/>
</g>
</g>
</svg>
