<?xml version="1.0" encoding="UTF-8" standalone="no"?>
<!DOCTYPE svg PUBLIC "-//W3C//DTD SVG 1.1//EN"
 "http://www.w3.org/Graphics/SVG/1.1/DTD/svg11.dtd">
<!-- Generated by graphviz version 8.0.5 (20230430.1635)
 -->
<!-- Title: inheritanceeb7b30b6c8 Pages: 1 -->
<svg width="3pt" height="864pt"
 viewBox="0.00 0.00 3.13 864.00" xmlns="http://www.w3.org/2000/svg" xmlns:xlink="http://www.w3.org/1999/xlink">
<g id="graph0" class="graph" transform="scale(0.00502045 0.00502045) rotate(0) translate(4 172092.19)">
<title>inheritanceeb7b30b6c8</title>
<!-- LabelToken -->
<g id="node1" class="node">
<title>LabelToken</title>
<g id="a_node1"><a xlink:href="../pyVHDLParser/pyVHDLParser.Token.Keywords.html#pyVHDLParser.Token.Keywords.LabelToken" xlink:title="Token representing a label." target="_top">
<polygon fill="white" stroke="#1e90ff" points="614.5,-86053.34 523.5,-86053.34 523.5,-86034.84 614.5,-86034.84 614.5,-86053.34"/>
<text text-anchor="middle" x="569" y="-86039.84" font-family="Vera Sans, DejaVu Sans, Liberation Sans, Arial, Helvetica, sans" font-size="10.00">LabelToken</text>
</a>
</g>
</g>
<!-- SpecificVHDLToken -->
<g id="node2" class="node">
<title>SpecificVHDLToken</title>
<g id="a_node2"><a xlink:href="../pyVHDLParser/pyVHDLParser.Token.Keywords.html#pyVHDLParser.Token.Keywords.SpecificVHDLToken" xlink:title="Base&#45;class for all specific tokens." target="_top">
<polygon fill="white" stroke="#1e90ff" points="487.5,-86053.34 344,-86053.34 344,-86034.84 487.5,-86034.84 487.5,-86053.34"/>
<text text-anchor="middle" x="415.75" y="-86039.84" font-family="Vera Sans, DejaVu Sans, Liberation Sans, Arial, Helvetica, sans" font-size="10.00">SpecificVHDLToken</text>
</a>
</g>
</g>
<!-- SpecificVHDLToken&#45;&gt;LabelToken -->
<g id="edge1" class="edge">
<title>SpecificVHDLToken&#45;&gt;LabelToken</title>
<path fill="none" stroke="black" stroke-width="0.5" d="M487.95,-86044.09C497.84,-86044.09 507.84,-86044.09 517.26,-86044.09"/>
<polygon fill="black" stroke="black" stroke-width="0.5" points="518.05,-86045.84 523.05,-86044.09 518.05,-86042.34 518.05,-86045.84"/>
</g>
<!-- VHDLToken -->
<g id="node3" class="node">
<title>VHDLToken</title>
<g id="a_node3"><a xlink:href="../pyVHDLParser.Token.html#pyVHDLParser.Token.VHDLToken" xlink:title="Base&#45;class for all VHDL specific tokens." target="_top">
<polygon fill="white" stroke="#1e90ff" points="308,-172088.14 224.5,-172088.14 224.5,-0.05 308,-0.05 308,-172088.14"/>
<text text-anchor="middle" x="266.25" y="-172074.64" font-family="Vera Sans, DejaVu Sans, Liberation Sans, Arial, Helvetica, sans" font-size="10.00">VHDLToken</text>
</a>
</g>
</g>
<!-- VHDLToken&#45;&gt;SpecificVHDLToken -->
<g id="edge2" class="edge">
<title>VHDLToken&#45;&gt;SpecificVHDLToken</title>
<path fill="none" stroke="black" stroke-width="0.5" d="M308.34,-86044.09C317.53,-86044.09 327.57,-86044.09 337.69,-86044.09"/>
<polygon fill="black" stroke="black" stroke-width="0.5" points="338.66,-86045.84 343.66,-86044.09 338.66,-86042.34 338.66,-86045.84"/>
</g>
<!-- Token -->
<g id="node4" class="node">
<title>Token</title>
<g id="a_node4"><a xlink:href="../pyVHDLParser.Token.html#pyVHDLParser.Token.Token" xlink:title="Base&#45;class for all token classes." target="_top">
<polygon fill="white" stroke="#1e90ff" points="54,-172088.19 0,-172088.19 0,0 54,0 54,-172088.19"/>
<text text-anchor="middle" x="27" y="-172074.69" font-family="Vera Sans, DejaVu Sans, Liberation Sans, Arial, Helvetica, sans" font-size="10.00">Token</text>
</a>
</g>
</g>
<!-- ValuedToken -->
<g id="node5" class="node">
<title>ValuedToken</title>
<g id="a_node5"><a xlink:href="../pyVHDLParser.Token.html#pyVHDLParser.Token.ValuedToken" xlink:title="Base&#45;class for all *valued* token." target="_top">
<polygon fill="white" stroke="#1e90ff" points="188.5,-86058.84 90,-86058.84 90,-86029.35 188.5,-86029.35 188.5,-86058.84"/>
<text text-anchor="middle" x="139.25" y="-86045.34" font-family="Vera Sans, DejaVu Sans, Liberation Sans, Arial, Helvetica, sans" font-size="10.00">ValuedToken</text>
</a>
</g>
</g>
<!-- Token&#45;&gt;ValuedToken -->
<g id="edge4" class="edge">
<title>Token&#45;&gt;ValuedToken</title>
<path fill="none" stroke="black" stroke-width="0.5" d="M54.41,-86044.09C63.25,-86044.09 73.45,-86044.09 83.64,-86044.09"/>
<polygon fill="black" stroke="black" stroke-width="0.5" points="84.62,-86045.84 89.62,-86044.09 84.62,-86042.34 84.62,-86045.84"/>
</g>
<!-- ValuedToken&#45;&gt;VHDLToken -->
<g id="edge3" class="edge">
<title>ValuedToken&#45;&gt;VHDLToken</title>
<path fill="none" stroke="black" stroke-width="0.5" d="M188.94,-86044.09C198.59,-86044.09 208.7,-86044.09 218.29,-86044.09"/>
<polygon fill="black" stroke="black" stroke-width="0.5" points="219.19,-86045.84 224.19,-86044.09 219.19,-86042.34 219.19,-86045.84"/>
</g>
</g>
</svg>
