<?xml version="1.0" encoding="UTF-8" standalone="no"?>
<!DOCTYPE svg PUBLIC "-//W3C//DTD SVG 1.1//EN"
 "http://www.w3.org/Graphics/SVG/1.1/DTD/svg11.dtd">
<!-- Generated by graphviz version 8.0.5 (20230430.1635)
 -->
<!-- Title: inheritance37cfd0596c Pages: 1 -->
<svg width="576pt" height="26pt"
 viewBox="0.00 0.00 576.00 26.16" xmlns="http://www.w3.org/2000/svg" xmlns:xlink="http://www.w3.org/1999/xlink">
<g id="graph0" class="graph" transform="scale(0.697759 0.697759) rotate(0) translate(4 33.5)">
<title>inheritance37cfd0596c</title>
<!-- Block -->
<g id="node1" class="node">
<title>Block</title>
<g id="a_node1"><a xlink:href="../pyVHDLParser.Blocks.html#pyVHDLParser.Blocks.Block" xlink:title="Base&#45;class for all :term:`block` classes." target="_top">
<polygon fill="white" stroke="#1e90ff" points="54,-24 0,-24 0,-5.5 54,-5.5 54,-24"/>
<text text-anchor="middle" x="27" y="-10.5" font-family="Vera Sans, DejaVu Sans, Liberation Sans, Arial, Helvetica, sans" font-size="10.00">Block</text>
</a>
</g>
</g>
<!-- EndOfStatementBlock -->
<g id="node2" class="node">
<title>EndOfStatementBlock</title>
<g id="a_node2"><a xlink:href="../pyVHDLParser.Blocks.Generic1.html#pyVHDLParser.Blocks.Generic1.EndOfStatementBlock" xlink:title="EndOfStatementBlock" target="_top">
<polygon fill="white" stroke="#1e90ff" points="248.5,-24 90,-24 90,-5.5 248.5,-5.5 248.5,-24"/>
<text text-anchor="middle" x="169.25" y="-10.5" font-family="Vera Sans, DejaVu Sans, Liberation Sans, Arial, Helvetica, sans" font-size="10.00">EndOfStatementBlock</text>
</a>
</g>
</g>
<!-- Block&#45;&gt;EndOfStatementBlock -->
<g id="edge1" class="edge">
<title>Block&#45;&gt;EndOfStatementBlock</title>
<path fill="none" stroke="black" stroke-width="0.5" d="M54.38,-14.75C63.02,-14.75 73.13,-14.75 83.7,-14.75"/>
<polygon fill="black" stroke="black" stroke-width="0.5" points="84.61,-16.5 89.61,-14.75 84.61,-13 84.61,-16.5"/>
</g>
<!-- ObjectDeclarationEndMarkerBlock -->
<g id="node3" class="node">
<title>ObjectDeclarationEndMarkerBlock</title>
<g id="a_node3"><a xlink:href="../pyVHDLParser.Blocks.Object.html#pyVHDLParser.Blocks.Object.ObjectDeclarationEndMarkerBlock" xlink:title="ObjectDeclarationEndMarkerBlock" target="_top">
<polygon fill="white" stroke="#1e90ff" points="533,-24 284.5,-24 284.5,-5.5 533,-5.5 533,-24"/>
<text text-anchor="middle" x="408.75" y="-10.5" font-family="Vera Sans, DejaVu Sans, Liberation Sans, Arial, Helvetica, sans" font-size="10.00">ObjectDeclarationEndMarkerBlock</text>
</a>
</g>
</g>
<!-- EndOfStatementBlock&#45;&gt;ObjectDeclarationEndMarkerBlock -->
<g id="edge2" class="edge">
<title>EndOfStatementBlock&#45;&gt;ObjectDeclarationEndMarkerBlock</title>
<path fill="none" stroke="black" stroke-width="0.5" d="M248.67,-14.75C258.28,-14.75 268.27,-14.75 278.38,-14.75"/>
<polygon fill="black" stroke="black" stroke-width="0.5" points="279.34,-16.5 284.34,-14.75 279.34,-13 279.34,-16.5"/>
</g>
<!-- SignalDeclarationEndMarkerBlock -->
<g id="node4" class="node">
<title>SignalDeclarationEndMarkerBlock</title>
<g id="a_node4"><a xlink:href="../pyVHDLParser/pyVHDLParser.Blocks.Object.Signal.html#pyVHDLParser.Blocks.Object.Signal.SignalDeclarationEndMarkerBlock" xlink:title="SignalDeclarationEndMarkerBlock" target="_top">
<polygon fill="white" stroke="#1e90ff" points="817.5,-29.5 569,-29.5 569,0 817.5,0 817.5,-29.5"/>
<text text-anchor="middle" x="693.25" y="-16" font-family="Vera Sans, DejaVu Sans, Liberation Sans, Arial, Helvetica, sans" font-size="10.00">SignalDeclarationEndMarkerBlock</text>
</a>
</g>
</g>
<!-- ObjectDeclarationEndMarkerBlock&#45;&gt;SignalDeclarationEndMarkerBlock -->
<g id="edge3" class="edge">
<title>ObjectDeclarationEndMarkerBlock&#45;&gt;SignalDeclarationEndMarkerBlock</title>
<path fill="none" stroke="black" stroke-width="0.5" d="M533.25,-14.75C543.05,-14.75 552.97,-14.75 562.82,-14.75"/>
<polygon fill="black" stroke="black" stroke-width="0.5" points="563.6,-16.5 568.6,-14.75 563.6,-13 563.6,-16.5"/>
</g>
</g>
</svg>
