<?xml version="1.0" encoding="UTF-8" standalone="no"?>
<!DOCTYPE svg PUBLIC "-//W3C//DTD SVG 1.1//EN"
 "http://www.w3.org/Graphics/SVG/1.1/DTD/svg11.dtd">
<!-- Generated by graphviz version 8.0.5 (20230430.1635)
 -->
<!-- Title: inheritancec4a963d676 Pages: 1 -->
<svg width="1pt" height="864pt"
 viewBox="0.00 0.00 0.58 864.00" xmlns="http://www.w3.org/2000/svg" xmlns:xlink="http://www.w3.org/1999/xlink">
<g id="graph0" class="graph" transform="scale(0.000947872 0.000947872) rotate(0) translate(4 911511.18)">
<title>inheritancec4a963d676</title>
<!-- KeywordToken -->
<g id="node1" class="node">
<title>KeywordToken</title>
<g id="a_node1"><a xlink:href="../pyVHDLParser/pyVHDLParser.Token.Keywords.html#pyVHDLParser.Token.Keywords.KeywordToken" xlink:title="KeywordToken" target="_top">
<polygon fill="white" stroke="#1e90ff" points="450,-455762.84 344,-455762.84 344,-455744.34 450,-455744.34 450,-455762.84"/>
<text text-anchor="middle" x="397" y="-455749.34" font-family="Vera Sans, DejaVu Sans, Liberation Sans, Arial, Helvetica, sans" font-size="10.00">KeywordToken</text>
</a>
</g>
</g>
<!-- SharedKeyword -->
<g id="node3" class="node">
<title>SharedKeyword</title>
<g id="a_node3"><a xlink:href="../pyVHDLParser/pyVHDLParser.Token.Keywords.html#pyVHDLParser.Token.Keywords.SharedKeyword" xlink:title="SharedKeyword" target="_top">
<polygon fill="white" stroke="#1e90ff" points="599.5,-911507.13 486,-911507.13 486,-0.05 599.5,-0.05 599.5,-911507.13"/>
<text text-anchor="middle" x="542.75" y="-911493.63" font-family="Vera Sans, DejaVu Sans, Liberation Sans, Arial, Helvetica, sans" font-size="10.00">SharedKeyword</text>
</a>
</g>
</g>
<!-- KeywordToken&#45;&gt;SharedKeyword -->
<g id="edge2" class="edge">
<title>KeywordToken&#45;&gt;SharedKeyword</title>
<path fill="none" stroke="black" stroke-width="0.5" d="M450.3,-455753.59C459.97,-455753.59 470.14,-455753.59 480.05,-455753.59"/>
<polygon fill="black" stroke="black" stroke-width="0.5" points="480.85,-455755.34 485.85,-455753.59 480.85,-455751.84 480.85,-455755.34"/>
</g>
<!-- VHDLToken -->
<g id="node2" class="node">
<title>VHDLToken</title>
<g id="a_node2"><a xlink:href="../pyVHDLParser.Token.html#pyVHDLParser.Token.VHDLToken" xlink:title="Base&#45;class for all VHDL specific tokens." target="_top">
<polygon fill="white" stroke="#1e90ff" points="308,-455762.84 224.5,-455762.84 224.5,-455744.34 308,-455744.34 308,-455762.84"/>
<text text-anchor="middle" x="266.25" y="-455749.34" font-family="Vera Sans, DejaVu Sans, Liberation Sans, Arial, Helvetica, sans" font-size="10.00">VHDLToken</text>
</a>
</g>
</g>
<!-- VHDLToken&#45;&gt;KeywordToken -->
<g id="edge1" class="edge">
<title>VHDLToken&#45;&gt;KeywordToken</title>
<path fill="none" stroke="black" stroke-width="0.5" d="M308.34,-455753.59C317.69,-455753.59 327.8,-455753.59 337.71,-455753.59"/>
<polygon fill="black" stroke="black" stroke-width="0.5" points="338.52,-455755.34 343.52,-455753.59 338.52,-455751.84 338.52,-455755.34"/>
</g>
<!-- Token -->
<g id="node4" class="node">
<title>Token</title>
<g id="a_node4"><a xlink:href="../pyVHDLParser.Token.html#pyVHDLParser.Token.Token" xlink:title="Base&#45;class for all token classes." target="_top">
<polygon fill="white" stroke="#1e90ff" points="54,-911507.18 0,-911507.18 0,0 54,0 54,-911507.18"/>
<text text-anchor="middle" x="27" y="-911493.68" font-family="Vera Sans, DejaVu Sans, Liberation Sans, Arial, Helvetica, sans" font-size="10.00">Token</text>
</a>
</g>
</g>
<!-- ValuedToken -->
<g id="node5" class="node">
<title>ValuedToken</title>
<g id="a_node5"><a xlink:href="../pyVHDLParser.Token.html#pyVHDLParser.Token.ValuedToken" xlink:title="Base&#45;class for all *valued* token." target="_top">
<polygon fill="white" stroke="#1e90ff" points="188.5,-455762.84 90,-455762.84 90,-455744.34 188.5,-455744.34 188.5,-455762.84"/>
<text text-anchor="middle" x="139.25" y="-455749.34" font-family="Vera Sans, DejaVu Sans, Liberation Sans, Arial, Helvetica, sans" font-size="10.00">ValuedToken</text>
</a>
</g>
</g>
<!-- Token&#45;&gt;ValuedToken -->
<g id="edge4" class="edge">
<title>Token&#45;&gt;ValuedToken</title>
<path fill="none" stroke="black" stroke-width="0.5" d="M54.41,-455753.59C63.25,-455753.59 73.45,-455753.59 83.64,-455753.59"/>
<polygon fill="black" stroke="black" stroke-width="0.5" points="84.62,-455755.34 89.62,-455753.59 84.62,-455751.84 84.62,-455755.34"/>
</g>
<!-- ValuedToken&#45;&gt;VHDLToken -->
<g id="edge3" class="edge">
<title>ValuedToken&#45;&gt;VHDLToken</title>
<path fill="none" stroke="black" stroke-width="0.5" d="M188.94,-455753.59C198.59,-455753.59 208.7,-455753.59 218.29,-455753.59"/>
<polygon fill="black" stroke="black" stroke-width="0.5" points="219.19,-455755.34 224.19,-455753.59 219.19,-455751.84 219.19,-455755.34"/>
</g>
</g>
</svg>
