<?xml version="1.0" encoding="UTF-8" standalone="no"?>
<!DOCTYPE svg PUBLIC "-//W3C//DTD SVG 1.1//EN"
 "http://www.w3.org/Graphics/SVG/1.1/DTD/svg11.dtd">
<!-- Generated by graphviz version 8.0.5 (20230430.1635)
 -->
<!-- Title: inheritance604be7491e Pages: 1 -->
<svg width="576pt" height="26pt"
 viewBox="0.00 0.00 576.00 25.58" xmlns="http://www.w3.org/2000/svg" xmlns:xlink="http://www.w3.org/1999/xlink">
<g id="graph0" class="graph" transform="scale(0.752449 0.752449) rotate(0) translate(4 30)">
<title>inheritance604be7491e</title>
<!-- Block -->
<g id="node1" class="node">
<title>Block</title>
<g id="a_node1"><a xlink:href="../pyVHDLParser.Blocks.html#pyVHDLParser.Blocks.Block" xlink:title="Base&#45;class for all :term:`block` classes." target="_top">
<polygon fill="white" stroke="#1e90ff" points="54,-22.25 0,-22.25 0,-3.75 54,-3.75 54,-22.25"/>
<text text-anchor="middle" x="27" y="-8.75" font-family="Vera Sans, DejaVu Sans, Liberation Sans, Arial, Helvetica, sans" font-size="10.00">Block</text>
</a>
</g>
</g>
<!-- InterfaceObjectBlock -->
<g id="node2" class="node">
<title>InterfaceObjectBlock</title>
<g id="a_node2"><a xlink:href="../pyVHDLParser.Blocks.InterfaceObject.html#pyVHDLParser.Blocks.InterfaceObject.InterfaceObjectBlock" xlink:title="InterfaceObjectBlock" target="_top">
<polygon fill="white" stroke="#1e90ff" points="256,-22.25 90,-22.25 90,-3.75 256,-3.75 256,-22.25"/>
<text text-anchor="middle" x="173" y="-8.75" font-family="Vera Sans, DejaVu Sans, Liberation Sans, Arial, Helvetica, sans" font-size="10.00">InterfaceObjectBlock</text>
</a>
</g>
</g>
<!-- Block&#45;&gt;InterfaceObjectBlock -->
<g id="edge1" class="edge">
<title>Block&#45;&gt;InterfaceObjectBlock</title>
<path fill="none" stroke="black" stroke-width="0.5" d="M54.41,-13C63.04,-13 73.16,-13 83.77,-13"/>
<polygon fill="black" stroke="black" stroke-width="0.5" points="84.72,-14.75 89.72,-13 84.72,-11.25 84.72,-14.75"/>
</g>
<!-- InterfaceSignalBlock -->
<g id="node3" class="node">
<title>InterfaceSignalBlock</title>
<g id="a_node3"><a xlink:href="../pyVHDLParser.Blocks.InterfaceObject.html#pyVHDLParser.Blocks.InterfaceObject.InterfaceSignalBlock" xlink:title="InterfaceSignalBlock" target="_top">
<polygon fill="white" stroke="#1e90ff" points="458,-22.29 292,-22.29 292,-3.71 458,-3.71 458,-22.29"/>
<text text-anchor="middle" x="375" y="-8.79" font-family="Vera Sans, DejaVu Sans, Liberation Sans, Arial, Helvetica, sans" font-size="10.00">InterfaceSignalBlock</text>
</a>
</g>
</g>
<!-- InterfaceObjectBlock&#45;&gt;InterfaceSignalBlock -->
<g id="edge2" class="edge">
<title>InterfaceObjectBlock&#45;&gt;InterfaceSignalBlock</title>
<path fill="none" stroke="black" stroke-width="0.5" d="M256.21,-13C266.03,-13 276.08,-13 285.98,-13"/>
<polygon fill="black" stroke="black" stroke-width="0.5" points="286.78,-14.75 291.78,-13 286.78,-11.25 286.78,-14.75"/>
</g>
<!-- ParameterListInterfaceSignalBlock -->
<g id="node4" class="node">
<title>ParameterListInterfaceSignalBlock</title>
<g id="a_node4"><a xlink:href="../pyVHDLParser/pyVHDLParser.Blocks.List.ParameterList.html#pyVHDLParser.Blocks.List.ParameterList.ParameterListInterfaceSignalBlock" xlink:title="ParameterListInterfaceSignalBlock" target="_top">
<polygon fill="white" stroke="#1e90ff" points="757.5,-26 494,-26 494,0 757.5,0 757.5,-26"/>
<text text-anchor="middle" x="625.75" y="-12.5" font-family="Vera Sans, DejaVu Sans, Liberation Sans, Arial, Helvetica, sans" font-size="10.00">ParameterListInterfaceSignalBlock</text>
</a>
</g>
</g>
<!-- InterfaceSignalBlock&#45;&gt;ParameterListInterfaceSignalBlock -->
<g id="edge3" class="edge">
<title>InterfaceSignalBlock&#45;&gt;ParameterListInterfaceSignalBlock</title>
<path fill="none" stroke="black" stroke-width="0.5" d="M458.48,-13C467.94,-13 477.77,-13 487.7,-13"/>
<polygon fill="black" stroke="black" stroke-width="0.5" points="488.56,-14.75 493.56,-13 488.56,-11.25 488.56,-14.75"/>
</g>
</g>
</svg>
