<?xml version="1.0" encoding="UTF-8" standalone="no"?>
<!DOCTYPE svg PUBLIC "-//W3C//DTD SVG 1.1//EN"
 "http://www.w3.org/Graphics/SVG/1.1/DTD/svg11.dtd">
<!-- Generated by graphviz version 8.0.5 (20230430.1635)
 -->
<!-- Title: inheritancefaae8a662e Pages: 1 -->
<svg width="1pt" height="864pt"
 viewBox="0.00 0.00 1.40 864.00" xmlns="http://www.w3.org/2000/svg" xmlns:xlink="http://www.w3.org/1999/xlink">
<g id="graph0" class="graph" transform="scale(0.00351682 0.00351682) rotate(0) translate(4 245672.23)">
<title>inheritancefaae8a662e</title>
<!-- Block -->
<g id="node1" class="node">
<title>Block</title>
<g id="a_node1"><a xlink:href="../pyVHDLParser/pyVHDLParser.Blocks.html#pyVHDLParser.Blocks.Block" xlink:title="Base&#45;class for all :term:`block` classes." target="_top">
<polygon fill="white" stroke="#1e90ff" points="54,-155606.32 0,-155606.32 0,-155587.82 54,-155587.82 54,-155606.32"/>
<text text-anchor="middle" x="27" y="-155592.82" font-family="Vera Sans, DejaVu Sans, Liberation Sans, Arial, Helvetica, sans" font-size="10.00">Block</text>
</a>
</g>
</g>
<!-- EndOfBlock -->
<g id="node3" class="node">
<title>EndOfBlock</title>
<g id="a_node3"><a xlink:href="../pyVHDLParser/pyVHDLParser.Blocks.html#pyVHDLParser.Blocks.EndOfBlock" xlink:title="Base&#45;class for a last block in a sequence of double&#45;linked blocks." target="_top">
<polygon fill="white" stroke="#1e90ff" points="192.25,-245668.23 101.25,-245668.23 101.25,-65525.9 192.25,-65525.9 192.25,-245668.23"/>
<text text-anchor="middle" x="146.75" y="-245654.73" font-family="Vera Sans, DejaVu Sans, Liberation Sans, Arial, Helvetica, sans" font-size="10.00">EndOfBlock</text>
</a>
</g>
</g>
<!-- Block&#45;&gt;EndOfBlock -->
<g id="edge1" class="edge">
<title>Block&#45;&gt;EndOfBlock</title>
<path fill="none" stroke="black" stroke-width="0.5" d="M54.43,-155597.07C66.41,-155597.07 81,-155597.07 94.98,-155597.07"/>
<polygon fill="black" stroke="black" stroke-width="0.5" points="95.92,-155598.82 100.92,-155597.07 95.92,-155595.32 95.92,-155598.82"/>
</g>
<!-- EndOf -->
<g id="node2" class="node">
<title>EndOf</title>
<g id="a_node2"><a xlink:title="Base&#45;class (mixin) for all EndOf*** classes.">
<polygon fill="white" stroke="#1e90ff" points="54,-90071.32 0,-90071.32 0,-90052.82 54,-90052.82 54,-90071.32"/>
<text text-anchor="middle" x="27" y="-90057.82" font-family="Vera Sans, DejaVu Sans, Liberation Sans, Arial, Helvetica, sans" font-size="10.00">EndOf</text>
</a>
</g>
</g>
<!-- EndOfDocument -->
<g id="node4" class="node">
<title>EndOfDocument</title>
<g id="a_node4"><a xlink:title="Base&#45;class (mixin) for all EndOf***Document classes.">
<polygon fill="white" stroke="#1e90ff" points="203.5,-180124.13 90,-180124.13 90,0 203.5,0 203.5,-180124.13"/>
<text text-anchor="middle" x="146.75" y="-180110.63" font-family="Vera Sans, DejaVu Sans, Liberation Sans, Arial, Helvetica, sans" font-size="10.00">EndOfDocument</text>
</a>
</g>
</g>
<!-- EndOf&#45;&gt;EndOfDocument -->
<g id="edge2" class="edge">
<title>EndOf&#45;&gt;EndOfDocument</title>
<path fill="none" stroke="black" stroke-width="0.5" d="M54.43,-90062.07C63.24,-90062.07 73.46,-90062.07 83.8,-90062.07"/>
<polygon fill="black" stroke="black" stroke-width="0.5" points="84.56,-90063.82 89.56,-90062.07 84.56,-90060.32 84.56,-90063.82"/>
</g>
<!-- EndOfDocumentBlock -->
<g id="node5" class="node">
<title>EndOfDocumentBlock</title>
<g id="a_node5"><a xlink:href="../pyVHDLParser/pyVHDLParser.Blocks.html#pyVHDLParser.Blocks.EndOfDocumentBlock" xlink:title="Last block in a sequence of double&#45;linked blocks." target="_top">
<polygon fill="white" stroke="#1e90ff" points="390.5,-122843.81 239.5,-122843.81 239.5,-122814.32 390.5,-122814.32 390.5,-122843.81"/>
<text text-anchor="middle" x="315" y="-122830.31" font-family="Vera Sans, DejaVu Sans, Liberation Sans, Arial, Helvetica, sans" font-size="10.00">EndOfDocumentBlock</text>
</a>
</g>
</g>
<!-- EndOfBlock&#45;&gt;EndOfDocumentBlock -->
<g id="edge3" class="edge">
<title>EndOfBlock&#45;&gt;EndOfDocumentBlock</title>
<path fill="none" stroke="black" stroke-width="0.5" d="M192.75,-146727.55C240.89,-137238.19 310.82,-123455.74 313.9,-122849.76"/>
<polygon fill="black" stroke="black" stroke-width="0.5" points="315.65,-122849 313.92,-122843.99 312.15,-122848.98 315.65,-122849"/>
</g>
<!-- EndOfDocument&#45;&gt;EndOfDocumentBlock -->
<g id="edge4" class="edge">
<title>EndOfDocument&#45;&gt;EndOfDocumentBlock</title>
<path fill="none" stroke="black" stroke-width="0.5" d="M204,-101148.34C251.07,-110426.27 311.03,-122243.97 313.89,-122808.07"/>
<polygon fill="black" stroke="black" stroke-width="0.5" points="312.15,-122808.84 313.92,-122813.83 315.65,-122808.83 312.15,-122808.84"/>
</g>
</g>
</svg>
