<?xml version="1.0" encoding="UTF-8" standalone="no"?>
<!DOCTYPE svg PUBLIC "-//W3C//DTD SVG 1.1//EN"
 "http://www.w3.org/Graphics/SVG/1.1/DTD/svg11.dtd">
<!-- Generated by graphviz version 8.0.5 (20230430.1635)
 -->
<!-- Title: inheritance7b9b88f563 Pages: 1 -->
<svg width="576pt" height="21pt"
 viewBox="0.00 0.00 576.00 21.24" xmlns="http://www.w3.org/2000/svg" xmlns:xlink="http://www.w3.org/1999/xlink">
<g id="graph0" class="graph" transform="scale(0.799445 0.799445) rotate(0) translate(4 22.57)">
<title>inheritance7b9b88f563</title>
<!-- Block -->
<g id="node1" class="node">
<title>Block</title>
<g id="a_node1"><a xlink:href="../pyVHDLParser.Blocks.html#pyVHDLParser.Blocks.Block" xlink:title="Base&#45;class for all :term:`block` classes." target="_top">
<polygon fill="white" stroke="#1e90ff" points="54,-18.54 0,-18.54 0,-0.04 54,-0.04 54,-18.54"/>
<text text-anchor="middle" x="27" y="-5.04" font-family="Vera Sans, DejaVu Sans, Liberation Sans, Arial, Helvetica, sans" font-size="10.00">Block</text>
</a>
</g>
</g>
<!-- ExpressionBlock -->
<g id="node2" class="node">
<title>ExpressionBlock</title>
<g id="a_node2"><a xlink:href="../pyVHDLParser.Blocks.Expression.html#pyVHDLParser.Blocks.Expression.ExpressionBlock" xlink:title="ExpressionBlock" target="_top">
<polygon fill="white" stroke="#1e90ff" points="218.5,-18.54 90,-18.54 90,-0.04 218.5,-0.04 218.5,-18.54"/>
<text text-anchor="middle" x="154.25" y="-5.04" font-family="Vera Sans, DejaVu Sans, Liberation Sans, Arial, Helvetica, sans" font-size="10.00">ExpressionBlock</text>
</a>
</g>
</g>
<!-- Block&#45;&gt;ExpressionBlock -->
<g id="edge1" class="edge">
<title>Block&#45;&gt;ExpressionBlock</title>
<path fill="none" stroke="black" stroke-width="0.5" d="M54.26,-9.29C63.03,-9.29 73.27,-9.29 83.76,-9.29"/>
<polygon fill="black" stroke="black" stroke-width="0.5" points="84.61,-11.04 89.61,-9.29 84.61,-7.54 84.61,-11.04"/>
</g>
<!-- ExpressionBlockEndedBySemicolon -->
<g id="node3" class="node">
<title>ExpressionBlockEndedBySemicolon</title>
<g id="a_node3"><a xlink:href="../pyVHDLParser.Blocks.Expression.html#pyVHDLParser.Blocks.Expression.ExpressionBlockEndedBySemicolon" xlink:title="ExpressionBlockEndedBySemicolon" target="_top">
<polygon fill="white" stroke="#1e90ff" points="503,-18.57 254.5,-18.57 254.5,0 503,0 503,-18.57"/>
<text text-anchor="middle" x="378.75" y="-5.07" font-family="Vera Sans, DejaVu Sans, Liberation Sans, Arial, Helvetica, sans" font-size="10.00">ExpressionBlockEndedBySemicolon</text>
</a>
</g>
</g>
<!-- ExpressionBlock&#45;&gt;ExpressionBlockEndedBySemicolon -->
<g id="edge2" class="edge">
<title>ExpressionBlock&#45;&gt;ExpressionBlockEndedBySemicolon</title>
<path fill="none" stroke="black" stroke-width="0.5" d="M218.71,-9.29C228.05,-9.29 237.95,-9.29 248.06,-9.29"/>
<polygon fill="black" stroke="black" stroke-width="0.5" points="249.03,-11.04 254.03,-9.29 249.03,-7.54 249.03,-11.04"/>
</g>
<!-- ReturnExpressionBlock -->
<g id="node4" class="node">
<title>ReturnExpressionBlock</title>
<g id="a_node4"><a xlink:href="../pyVHDLParser/pyVHDLParser.Blocks.ControlStructure.Return.html#pyVHDLParser.Blocks.ControlStructure.Return.ReturnExpressionBlock" xlink:title="ReturnExpressionBlock" target="_top">
<polygon fill="white" stroke="#1e90ff" points="712.5,-18.54 539,-18.54 539,-0.04 712.5,-0.04 712.5,-18.54"/>
<text text-anchor="middle" x="625.75" y="-5.04" font-family="Vera Sans, DejaVu Sans, Liberation Sans, Arial, Helvetica, sans" font-size="10.00">ReturnExpressionBlock</text>
</a>
</g>
</g>
<!-- ExpressionBlockEndedBySemicolon&#45;&gt;ReturnExpressionBlock -->
<g id="edge3" class="edge">
<title>ExpressionBlockEndedBySemicolon&#45;&gt;ReturnExpressionBlock</title>
<path fill="none" stroke="black" stroke-width="0.5" d="M503.33,-9.29C513.18,-9.29 523.01,-9.29 532.59,-9.29"/>
<polygon fill="black" stroke="black" stroke-width="0.5" points="533.51,-11.04 538.51,-9.29 533.51,-7.54 533.51,-11.04"/>
</g>
</g>
</svg>
