<?xml version="1.0" encoding="UTF-8" standalone="no"?>
<!DOCTYPE svg PUBLIC "-//W3C//DTD SVG 1.1//EN"
 "http://www.w3.org/Graphics/SVG/1.1/DTD/svg11.dtd">
<!-- Generated by graphviz version 8.0.5 (20230430.1635)
 -->
<!-- Title: inheritance76d06d6a43 Pages: 1 -->
<svg width="5pt" height="864pt"
 viewBox="0.00 0.00 5.31 864.00" xmlns="http://www.w3.org/2000/svg" xmlns:xlink="http://www.w3.org/1999/xlink">
<g id="graph0" class="graph" transform="scale(0.00896641 0.00896641) rotate(0) translate(4 96355.65)">
<title>inheritance76d06d6a43</title>
<!-- CaseKeyword -->
<g id="node1" class="node">
<title>CaseKeyword</title>
<g id="a_node1"><a xlink:href="../pyVHDLParser/pyVHDLParser.Token.Keywords.html#pyVHDLParser.Token.Keywords.CaseKeyword" xlink:title="CaseKeyword" target="_top">
<polygon fill="white" stroke="#1e90ff" points="584.5,-48185.08 486,-48185.08 486,-48166.58 584.5,-48166.58 584.5,-48185.08"/>
<text text-anchor="middle" x="535.25" y="-48171.58" font-family="Vera Sans, DejaVu Sans, Liberation Sans, Arial, Helvetica, sans" font-size="10.00">CaseKeyword</text>
</a>
</g>
</g>
<!-- KeywordToken -->
<g id="node2" class="node">
<title>KeywordToken</title>
<g id="a_node2"><a xlink:href="../pyVHDLParser/pyVHDLParser.Token.Keywords.html#pyVHDLParser.Token.Keywords.KeywordToken" xlink:title="KeywordToken" target="_top">
<polygon fill="white" stroke="#1e90ff" points="450,-96351.65 344,-96351.65 344,0 450,0 450,-96351.65"/>
<text text-anchor="middle" x="397" y="-96338.15" font-family="Vera Sans, DejaVu Sans, Liberation Sans, Arial, Helvetica, sans" font-size="10.00">KeywordToken</text>
</a>
</g>
</g>
<!-- KeywordToken&#45;&gt;CaseKeyword -->
<g id="edge1" class="edge">
<title>KeywordToken&#45;&gt;CaseKeyword</title>
<path fill="none" stroke="black" stroke-width="0.5" d="M450.29,-48175.83C460.07,-48175.83 470.32,-48175.83 480.16,-48175.83"/>
<polygon fill="black" stroke="black" stroke-width="0.5" points="480.9,-48177.58 485.9,-48175.83 480.9,-48174.08 480.9,-48177.58"/>
</g>
<!-- VHDLToken -->
<g id="node3" class="node">
<title>VHDLToken</title>
<g id="a_node3"><a xlink:href="../pyVHDLParser.Token.html#pyVHDLParser.Token.VHDLToken" xlink:title="Base&#45;class for all VHDL specific tokens." target="_top">
<polygon fill="white" stroke="#1e90ff" points="308,-96351.54 224.5,-96351.54 224.5,-0.12 308,-0.12 308,-96351.54"/>
<text text-anchor="middle" x="266.25" y="-96338.04" font-family="Vera Sans, DejaVu Sans, Liberation Sans, Arial, Helvetica, sans" font-size="10.00">VHDLToken</text>
</a>
</g>
</g>
<!-- VHDLToken&#45;&gt;KeywordToken -->
<g id="edge2" class="edge">
<title>VHDLToken&#45;&gt;KeywordToken</title>
<path fill="none" stroke="black" stroke-width="0.5" d="M308.34,-48175.83C317.69,-48175.83 327.8,-48175.83 337.71,-48175.83"/>
<polygon fill="black" stroke="black" stroke-width="0.5" points="338.52,-48177.58 343.52,-48175.83 338.52,-48174.08 338.52,-48177.58"/>
</g>
<!-- Token -->
<g id="node4" class="node">
<title>Token</title>
<g id="a_node4"><a xlink:href="../pyVHDLParser.Token.html#pyVHDLParser.Token.Token" xlink:title="Base&#45;class for all token classes." target="_top">
<polygon fill="white" stroke="#1e90ff" points="54,-96351.49 0,-96351.49 0,-0.16 54,-0.16 54,-96351.49"/>
<text text-anchor="middle" x="27" y="-96337.99" font-family="Vera Sans, DejaVu Sans, Liberation Sans, Arial, Helvetica, sans" font-size="10.00">Token</text>
</a>
</g>
</g>
<!-- ValuedToken -->
<g id="node5" class="node">
<title>ValuedToken</title>
<g id="a_node5"><a xlink:href="../pyVHDLParser.Token.html#pyVHDLParser.Token.ValuedToken" xlink:title="Base&#45;class for all *valued* token." target="_top">
<polygon fill="white" stroke="#1e90ff" points="188.5,-48185.08 90,-48185.08 90,-48166.58 188.5,-48166.58 188.5,-48185.08"/>
<text text-anchor="middle" x="139.25" y="-48171.58" font-family="Vera Sans, DejaVu Sans, Liberation Sans, Arial, Helvetica, sans" font-size="10.00">ValuedToken</text>
</a>
</g>
</g>
<!-- Token&#45;&gt;ValuedToken -->
<g id="edge4" class="edge">
<title>Token&#45;&gt;ValuedToken</title>
<path fill="none" stroke="black" stroke-width="0.5" d="M54.41,-48175.83C63.25,-48175.83 73.45,-48175.83 83.64,-48175.83"/>
<polygon fill="black" stroke="black" stroke-width="0.5" points="84.62,-48177.58 89.62,-48175.83 84.62,-48174.08 84.62,-48177.58"/>
</g>
<!-- ValuedToken&#45;&gt;VHDLToken -->
<g id="edge3" class="edge">
<title>ValuedToken&#45;&gt;VHDLToken</title>
<path fill="none" stroke="black" stroke-width="0.5" d="M188.94,-48175.83C198.59,-48175.83 208.7,-48175.83 218.29,-48175.83"/>
<polygon fill="black" stroke="black" stroke-width="0.5" points="219.19,-48177.58 224.19,-48175.83 219.19,-48174.08 219.19,-48177.58"/>
</g>
</g>
</svg>
