<?xml version="1.0" encoding="UTF-8" standalone="no"?>
<!DOCTYPE svg PUBLIC "-//W3C//DTD SVG 1.1//EN"
 "http://www.w3.org/Graphics/SVG/1.1/DTD/svg11.dtd">
<!-- Generated by graphviz version 8.0.5 (20230430.1635)
 -->
<!-- Title: inheritance51cc53d5f2 Pages: 1 -->
<svg width="0pt" height="864pt"
 viewBox="0.00 0.00 0.43 864.00" xmlns="http://www.w3.org/2000/svg" xmlns:xlink="http://www.w3.org/1999/xlink">
<g id="graph0" class="graph" transform="scale(0.000698101 0.000698101) rotate(0) translate(4 1237638.54)">
<title>inheritance51cc53d5f2</title>
<!-- KeywordToken -->
<g id="node1" class="node">
<title>KeywordToken</title>
<g id="a_node1"><a xlink:href="../pyVHDLParser/pyVHDLParser.Token.Keywords.html#pyVHDLParser.Token.Keywords.KeywordToken" xlink:title="KeywordToken" target="_top">
<polygon fill="white" stroke="#1e90ff" points="450,-618826.52 344,-618826.52 344,-618808.02 450,-618808.02 450,-618826.52"/>
<text text-anchor="middle" x="397" y="-618813.02" font-family="Vera Sans, DejaVu Sans, Liberation Sans, Arial, Helvetica, sans" font-size="10.00">KeywordToken</text>
</a>
</g>
</g>
<!-- SeverityKeyword -->
<g id="node3" class="node">
<title>SeverityKeyword</title>
<g id="a_node3"><a xlink:href="../pyVHDLParser/pyVHDLParser.Token.Keywords.html#pyVHDLParser.Token.Keywords.SeverityKeyword" xlink:title="SeverityKeyword" target="_top">
<polygon fill="white" stroke="#1e90ff" points="614.5,-1237634.49 486,-1237634.49 486,-0.05 614.5,-0.05 614.5,-1237634.49"/>
<text text-anchor="middle" x="550.25" y="-1237620.99" font-family="Vera Sans, DejaVu Sans, Liberation Sans, Arial, Helvetica, sans" font-size="10.00">SeverityKeyword</text>
</a>
</g>
</g>
<!-- KeywordToken&#45;&gt;SeverityKeyword -->
<g id="edge2" class="edge">
<title>KeywordToken&#45;&gt;SeverityKeyword</title>
<path fill="none" stroke="black" stroke-width="0.5" d="M450.48,-618817.27C459.96,-618817.27 469.99,-618817.27 479.87,-618817.27"/>
<polygon fill="black" stroke="black" stroke-width="0.5" points="480.66,-618819.02 485.66,-618817.27 480.66,-618815.52 480.66,-618819.02"/>
</g>
<!-- VHDLToken -->
<g id="node2" class="node">
<title>VHDLToken</title>
<g id="a_node2"><a xlink:href="../pyVHDLParser.Token.html#pyVHDLParser.Token.VHDLToken" xlink:title="Base&#45;class for all VHDL specific tokens." target="_top">
<polygon fill="white" stroke="#1e90ff" points="308,-618826.52 224.5,-618826.52 224.5,-618808.02 308,-618808.02 308,-618826.52"/>
<text text-anchor="middle" x="266.25" y="-618813.02" font-family="Vera Sans, DejaVu Sans, Liberation Sans, Arial, Helvetica, sans" font-size="10.00">VHDLToken</text>
</a>
</g>
</g>
<!-- VHDLToken&#45;&gt;KeywordToken -->
<g id="edge1" class="edge">
<title>VHDLToken&#45;&gt;KeywordToken</title>
<path fill="none" stroke="black" stroke-width="0.5" d="M308.34,-618817.27C317.69,-618817.27 327.8,-618817.27 337.71,-618817.27"/>
<polygon fill="black" stroke="black" stroke-width="0.5" points="338.52,-618819.02 343.52,-618817.27 338.52,-618815.52 338.52,-618819.02"/>
</g>
<!-- Token -->
<g id="node4" class="node">
<title>Token</title>
<g id="a_node4"><a xlink:href="../pyVHDLParser.Token.html#pyVHDLParser.Token.Token" xlink:title="Base&#45;class for all token classes." target="_top">
<polygon fill="white" stroke="#1e90ff" points="54,-1237634.54 0,-1237634.54 0,0 54,0 54,-1237634.54"/>
<text text-anchor="middle" x="27" y="-1237621.04" font-family="Vera Sans, DejaVu Sans, Liberation Sans, Arial, Helvetica, sans" font-size="10.00">Token</text>
</a>
</g>
</g>
<!-- ValuedToken -->
<g id="node5" class="node">
<title>ValuedToken</title>
<g id="a_node5"><a xlink:href="../pyVHDLParser.Token.html#pyVHDLParser.Token.ValuedToken" xlink:title="Base&#45;class for all *valued* token." target="_top">
<polygon fill="white" stroke="#1e90ff" points="188.5,-618826.52 90,-618826.52 90,-618808.02 188.5,-618808.02 188.5,-618826.52"/>
<text text-anchor="middle" x="139.25" y="-618813.02" font-family="Vera Sans, DejaVu Sans, Liberation Sans, Arial, Helvetica, sans" font-size="10.00">ValuedToken</text>
</a>
</g>
</g>
<!-- Token&#45;&gt;ValuedToken -->
<g id="edge4" class="edge">
<title>Token&#45;&gt;ValuedToken</title>
<path fill="none" stroke="black" stroke-width="0.5" d="M54.41,-618817.27C63.25,-618817.27 73.45,-618817.27 83.64,-618817.27"/>
<polygon fill="black" stroke="black" stroke-width="0.5" points="84.62,-618819.02 89.62,-618817.27 84.62,-618815.52 84.62,-618819.02"/>
</g>
<!-- ValuedToken&#45;&gt;VHDLToken -->
<g id="edge3" class="edge">
<title>ValuedToken&#45;&gt;VHDLToken</title>
<path fill="none" stroke="black" stroke-width="0.5" d="M188.94,-618817.27C198.59,-618817.27 208.7,-618817.27 218.29,-618817.27"/>
<polygon fill="black" stroke="black" stroke-width="0.5" points="219.19,-618819.02 224.19,-618817.27 219.19,-618815.52 219.19,-618819.02"/>
</g>
</g>
</svg>
