<?xml version="1.0" encoding="UTF-8" standalone="no"?>
<!DOCTYPE svg PUBLIC "-//W3C//DTD SVG 1.1//EN"
 "http://www.w3.org/Graphics/SVG/1.1/DTD/svg11.dtd">
<!-- Generated by graphviz version 8.0.5 (20230430.1635)
 -->
<!-- Title: inheritancee385f4b349 Pages: 1 -->
<svg width="1pt" height="864pt"
 viewBox="0.00 0.00 0.62 864.00" xmlns="http://www.w3.org/2000/svg" xmlns:xlink="http://www.w3.org/1999/xlink">
<g id="graph0" class="graph" transform="scale(0.000918022 0.000918022) rotate(0) translate(4 941150.24)">
<title>inheritancee385f4b349</title>
<!-- CommentToken -->
<g id="node1" class="node">
<title>CommentToken</title>
<g id="a_node1"><a xlink:href="../pyVHDLParser/pyVHDLParser.Token.html#pyVHDLParser.Token.CommentToken" xlink:title="Base&#45;class for comment tokens." target="_top">
<polygon fill="white" stroke="#1e90ff" points="450,-470582.37 344,-470582.37 344,-470563.87 450,-470563.87 450,-470582.37"/>
<text text-anchor="middle" x="397" y="-470568.87" font-family="Vera Sans, DejaVu Sans, Liberation Sans, Arial, Helvetica, sans" font-size="10.00">CommentToken</text>
</a>
</g>
</g>
<!-- SingleLineCommentToken -->
<g id="node3" class="node">
<title>SingleLineCommentToken</title>
<g id="a_node3"><a xlink:href="../pyVHDLParser/pyVHDLParser.Token.html#pyVHDLParser.Token.SingleLineCommentToken" xlink:title="Token representing a single&#45;line comment." target="_top">
<polygon fill="white" stroke="#1e90ff" points="667,-941146.24 486,-941146.24 486,0 667,0 667,-941146.24"/>
<text text-anchor="middle" x="576.5" y="-941132.74" font-family="Vera Sans, DejaVu Sans, Liberation Sans, Arial, Helvetica, sans" font-size="10.00">SingleLineCommentToken</text>
</a>
</g>
</g>
<!-- CommentToken&#45;&gt;SingleLineCommentToken -->
<g id="edge2" class="edge">
<title>CommentToken&#45;&gt;SingleLineCommentToken</title>
<path fill="none" stroke="black" stroke-width="0.5" d="M450.3,-470573.12C459.61,-470573.12 469.58,-470573.12 479.67,-470573.12"/>
<polygon fill="black" stroke="black" stroke-width="0.5" points="480.62,-470574.87 485.62,-470573.12 480.62,-470571.37 480.62,-470574.87"/>
</g>
<!-- VHDLToken -->
<g id="node2" class="node">
<title>VHDLToken</title>
<g id="a_node2"><a xlink:href="../pyVHDLParser/pyVHDLParser.Token.html#pyVHDLParser.Token.VHDLToken" xlink:title="Base&#45;class for all VHDL specific tokens." target="_top">
<polygon fill="white" stroke="#1e90ff" points="308,-470582.37 224.5,-470582.37 224.5,-470563.87 308,-470563.87 308,-470582.37"/>
<text text-anchor="middle" x="266.25" y="-470568.87" font-family="Vera Sans, DejaVu Sans, Liberation Sans, Arial, Helvetica, sans" font-size="10.00">VHDLToken</text>
</a>
</g>
</g>
<!-- VHDLToken&#45;&gt;CommentToken -->
<g id="edge1" class="edge">
<title>VHDLToken&#45;&gt;CommentToken</title>
<path fill="none" stroke="black" stroke-width="0.5" d="M308.34,-470573.12C317.69,-470573.12 327.8,-470573.12 337.71,-470573.12"/>
<polygon fill="black" stroke="black" stroke-width="0.5" points="338.52,-470574.87 343.52,-470573.12 338.52,-470571.37 338.52,-470574.87"/>
</g>
<!-- Token -->
<g id="node4" class="node">
<title>Token</title>
<g id="a_node4"><a xlink:href="../pyVHDLParser/pyVHDLParser.Token.html#pyVHDLParser.Token.Token" xlink:title="Base&#45;class for all token classes." target="_top">
<polygon fill="white" stroke="#1e90ff" points="54,-941146.19 0,-941146.19 0,-0.05 54,-0.05 54,-941146.19"/>
<text text-anchor="middle" x="27" y="-941132.69" font-family="Vera Sans, DejaVu Sans, Liberation Sans, Arial, Helvetica, sans" font-size="10.00">Token</text>
</a>
</g>
</g>
<!-- ValuedToken -->
<g id="node5" class="node">
<title>ValuedToken</title>
<g id="a_node5"><a xlink:href="../pyVHDLParser/pyVHDLParser.Token.html#pyVHDLParser.Token.ValuedToken" xlink:title="Base&#45;class for all *valued* token." target="_top">
<polygon fill="white" stroke="#1e90ff" points="188.5,-470582.37 90,-470582.37 90,-470563.87 188.5,-470563.87 188.5,-470582.37"/>
<text text-anchor="middle" x="139.25" y="-470568.87" font-family="Vera Sans, DejaVu Sans, Liberation Sans, Arial, Helvetica, sans" font-size="10.00">ValuedToken</text>
</a>
</g>
</g>
<!-- Token&#45;&gt;ValuedToken -->
<g id="edge4" class="edge">
<title>Token&#45;&gt;ValuedToken</title>
<path fill="none" stroke="black" stroke-width="0.5" d="M54.41,-470573.12C63.25,-470573.12 73.45,-470573.12 83.64,-470573.12"/>
<polygon fill="black" stroke="black" stroke-width="0.5" points="84.62,-470574.87 89.62,-470573.12 84.62,-470571.37 84.62,-470574.87"/>
</g>
<!-- ValuedToken&#45;&gt;VHDLToken -->
<g id="edge3" class="edge">
<title>ValuedToken&#45;&gt;VHDLToken</title>
<path fill="none" stroke="black" stroke-width="0.5" d="M188.94,-470573.12C198.59,-470573.12 208.7,-470573.12 218.29,-470573.12"/>
<polygon fill="black" stroke="black" stroke-width="0.5" points="219.19,-470574.87 224.19,-470573.12 219.19,-470571.37 219.19,-470574.87"/>
</g>
</g>
</svg>
