<?xml version="1.0" encoding="UTF-8" standalone="no"?>
<!DOCTYPE svg PUBLIC "-//W3C//DTD SVG 1.1//EN"
 "http://www.w3.org/Graphics/SVG/1.1/DTD/svg11.dtd">
<!-- Generated by graphviz version 8.0.5 (20230430.1635)
 -->
<!-- Title: inheritance73f5efe28d Pages: 1 -->
<svg width="1pt" height="864pt"
 viewBox="0.00 0.00 0.89 864.00" xmlns="http://www.w3.org/2000/svg" xmlns:xlink="http://www.w3.org/1999/xlink">
<g id="graph0" class="graph" transform="scale(0.00112028 0.00112028) rotate(0) translate(4 771230.19)">
<title>inheritance73f5efe28d</title>
<!-- MinusOperator -->
<g id="node1" class="node">
<title>MinusOperator</title>
<g id="a_node1"><a xlink:href="../pyVHDLParser/pyVHDLParser.Token.Keywords.html#pyVHDLParser.Token.Keywords.MinusOperator" xlink:title="Token representing a minus operator: ``&#45;``." target="_top">
<polygon fill="white" stroke="#1e90ff" points="786.5,-385622.35 673,-385622.35 673,-385603.85 786.5,-385603.85 786.5,-385622.35"/>
<text text-anchor="middle" x="729.75" y="-385608.85" font-family="Vera Sans, DejaVu Sans, Liberation Sans, Arial, Helvetica, sans" font-size="10.00">MinusOperator</text>
</a>
</g>
</g>
<!-- OperatorToken -->
<g id="node2" class="node">
<title>OperatorToken</title>
<g id="a_node2"><a xlink:href="../pyVHDLParser/pyVHDLParser.Token.Keywords.html#pyVHDLParser.Token.Keywords.OperatorToken" xlink:title="Base&#45;class for all operator tokens." target="_top">
<polygon fill="white" stroke="#1e90ff" points="637,-385622.35 523.5,-385622.35 523.5,-385603.85 637,-385603.85 637,-385622.35"/>
<text text-anchor="middle" x="580.25" y="-385608.85" font-family="Vera Sans, DejaVu Sans, Liberation Sans, Arial, Helvetica, sans" font-size="10.00">OperatorToken</text>
</a>
</g>
</g>
<!-- OperatorToken&#45;&gt;MinusOperator -->
<g id="edge1" class="edge">
<title>OperatorToken&#45;&gt;MinusOperator</title>
<path fill="none" stroke="black" stroke-width="0.5" d="M637.43,-385613.1C647.1,-385613.1 657.19,-385613.1 666.99,-385613.1"/>
<polygon fill="black" stroke="black" stroke-width="0.5" points="667.72,-385614.85 672.72,-385613.1 667.72,-385611.35 667.72,-385614.85"/>
</g>
<!-- SpecificVHDLToken -->
<g id="node3" class="node">
<title>SpecificVHDLToken</title>
<g id="a_node3"><a xlink:href="../pyVHDLParser/pyVHDLParser.Token.Keywords.html#pyVHDLParser.Token.Keywords.SpecificVHDLToken" xlink:title="Base&#45;class for all specific tokens." target="_top">
<polygon fill="white" stroke="#1e90ff" points="487.5,-771226.19 344,-771226.19 344,0 487.5,0 487.5,-771226.19"/>
<text text-anchor="middle" x="415.75" y="-771212.69" font-family="Vera Sans, DejaVu Sans, Liberation Sans, Arial, Helvetica, sans" font-size="10.00">SpecificVHDLToken</text>
</a>
</g>
</g>
<!-- SpecificVHDLToken&#45;&gt;OperatorToken -->
<g id="edge2" class="edge">
<title>SpecificVHDLToken&#45;&gt;OperatorToken</title>
<path fill="none" stroke="black" stroke-width="0.5" d="M487.55,-385613.1C497.56,-385613.1 507.79,-385613.1 517.6,-385613.1"/>
<polygon fill="black" stroke="black" stroke-width="0.5" points="518.33,-385614.85 523.33,-385613.1 518.33,-385611.35 518.33,-385614.85"/>
</g>
<!-- VHDLToken -->
<g id="node4" class="node">
<title>VHDLToken</title>
<g id="a_node4"><a xlink:href="../pyVHDLParser.Token.html#pyVHDLParser.Token.VHDLToken" xlink:title="Base&#45;class for all VHDL specific tokens." target="_top">
<polygon fill="white" stroke="#1e90ff" points="308,-385622.38 224.5,-385622.38 224.5,-385603.81 308,-385603.81 308,-385622.38"/>
<text text-anchor="middle" x="266.25" y="-385608.88" font-family="Vera Sans, DejaVu Sans, Liberation Sans, Arial, Helvetica, sans" font-size="10.00">VHDLToken</text>
</a>
</g>
</g>
<!-- VHDLToken&#45;&gt;SpecificVHDLToken -->
<g id="edge3" class="edge">
<title>VHDLToken&#45;&gt;SpecificVHDLToken</title>
<path fill="none" stroke="black" stroke-width="0.5" d="M308.34,-385613.1C317.53,-385613.1 327.57,-385613.1 337.69,-385613.1"/>
<polygon fill="black" stroke="black" stroke-width="0.5" points="338.66,-385614.85 343.66,-385613.1 338.66,-385611.35 338.66,-385614.85"/>
</g>
<!-- Token -->
<g id="node5" class="node">
<title>Token</title>
<g id="a_node5"><a xlink:href="../pyVHDLParser.Token.html#pyVHDLParser.Token.Token" xlink:title="Base&#45;class for all token classes." target="_top">
<polygon fill="white" stroke="#1e90ff" points="54,-385626.1 0,-385626.1 0,-385600.1 54,-385600.1 54,-385626.1"/>
<text text-anchor="middle" x="27" y="-385612.6" font-family="Vera Sans, DejaVu Sans, Liberation Sans, Arial, Helvetica, sans" font-size="10.00">Token</text>
</a>
</g>
</g>
<!-- ValuedToken -->
<g id="node6" class="node">
<title>ValuedToken</title>
<g id="a_node6"><a xlink:href="../pyVHDLParser.Token.html#pyVHDLParser.Token.ValuedToken" xlink:title="Base&#45;class for all *valued* token." target="_top">
<polygon fill="white" stroke="#1e90ff" points="188.5,-385622.35 90,-385622.35 90,-385603.85 188.5,-385603.85 188.5,-385622.35"/>
<text text-anchor="middle" x="139.25" y="-385608.85" font-family="Vera Sans, DejaVu Sans, Liberation Sans, Arial, Helvetica, sans" font-size="10.00">ValuedToken</text>
</a>
</g>
</g>
<!-- Token&#45;&gt;ValuedToken -->
<g id="edge5" class="edge">
<title>Token&#45;&gt;ValuedToken</title>
<path fill="none" stroke="black" stroke-width="0.5" d="M54.41,-385613.1C63.25,-385613.1 73.45,-385613.1 83.64,-385613.1"/>
<polygon fill="black" stroke="black" stroke-width="0.5" points="84.62,-385614.85 89.62,-385613.1 84.62,-385611.35 84.62,-385614.85"/>
</g>
<!-- ValuedToken&#45;&gt;VHDLToken -->
<g id="edge4" class="edge">
<title>ValuedToken&#45;&gt;VHDLToken</title>
<path fill="none" stroke="black" stroke-width="0.5" d="M188.94,-385613.1C198.59,-385613.1 208.7,-385613.1 218.29,-385613.1"/>
<polygon fill="black" stroke="black" stroke-width="0.5" points="219.19,-385614.85 224.19,-385613.1 219.19,-385611.35 219.19,-385614.85"/>
</g>
</g>
</svg>
