<?xml version="1.0" encoding="UTF-8" standalone="no"?>
<!DOCTYPE svg PUBLIC "-//W3C//DTD SVG 1.1//EN"
 "http://www.w3.org/Graphics/SVG/1.1/DTD/svg11.dtd">
<!-- Generated by graphviz version 8.0.5 (20230430.1635)
 -->
<!-- Title: inheritance2f8ca2450f Pages: 1 -->
<svg width="1pt" height="864pt"
 viewBox="0.00 0.00 0.92 864.00" xmlns="http://www.w3.org/2000/svg" xmlns:xlink="http://www.w3.org/1999/xlink">
<g id="graph0" class="graph" transform="scale(0.00151164 0.00151164) rotate(0) translate(4 571562.17)">
<title>inheritance2f8ca2450f</title>
<!-- EntityKeyword -->
<g id="node1" class="node">
<title>EntityKeyword</title>
<g id="a_node1"><a xlink:href="../pyVHDLParser/pyVHDLParser.Token.Keywords.html#pyVHDLParser.Token.Keywords.EntityKeyword" xlink:title="EntityKeyword" target="_top">
<polygon fill="white" stroke="#1e90ff" points="599.5,-285788.33 486,-285788.33 486,-285769.83 599.5,-285769.83 599.5,-285788.33"/>
<text text-anchor="middle" x="542.75" y="-285774.83" font-family="Vera Sans, DejaVu Sans, Liberation Sans, Arial, Helvetica, sans" font-size="10.00">EntityKeyword</text>
</a>
</g>
</g>
<!-- KeywordToken -->
<g id="node2" class="node">
<title>KeywordToken</title>
<g id="a_node2"><a xlink:href="../pyVHDLParser/pyVHDLParser.Token.Keywords.html#pyVHDLParser.Token.Keywords.KeywordToken" xlink:title="KeywordToken" target="_top">
<polygon fill="white" stroke="#1e90ff" points="450,-571558.17 344,-571558.17 344,0 450,0 450,-571558.17"/>
<text text-anchor="middle" x="397" y="-571544.67" font-family="Vera Sans, DejaVu Sans, Liberation Sans, Arial, Helvetica, sans" font-size="10.00">KeywordToken</text>
</a>
</g>
</g>
<!-- KeywordToken&#45;&gt;EntityKeyword -->
<g id="edge1" class="edge">
<title>KeywordToken&#45;&gt;EntityKeyword</title>
<path fill="none" stroke="black" stroke-width="0.5" d="M450.3,-285779.08C459.97,-285779.08 470.14,-285779.08 480.05,-285779.08"/>
<polygon fill="black" stroke="black" stroke-width="0.5" points="480.85,-285780.83 485.85,-285779.08 480.85,-285777.33 480.85,-285780.83"/>
</g>
<!-- VHDLToken -->
<g id="node3" class="node">
<title>VHDLToken</title>
<g id="a_node3"><a xlink:href="../pyVHDLParser.Token.html#pyVHDLParser.Token.VHDLToken" xlink:title="Base&#45;class for all VHDL specific tokens." target="_top">
<polygon fill="white" stroke="#1e90ff" points="308,-571551.79 224.5,-571551.79 224.5,-6.38 308,-6.38 308,-571551.79"/>
<text text-anchor="middle" x="266.25" y="-571538.29" font-family="Vera Sans, DejaVu Sans, Liberation Sans, Arial, Helvetica, sans" font-size="10.00">VHDLToken</text>
</a>
</g>
</g>
<!-- VHDLToken&#45;&gt;KeywordToken -->
<g id="edge2" class="edge">
<title>VHDLToken&#45;&gt;KeywordToken</title>
<path fill="none" stroke="black" stroke-width="0.5" d="M308.34,-285779.08C317.69,-285779.08 327.8,-285779.08 337.71,-285779.08"/>
<polygon fill="black" stroke="black" stroke-width="0.5" points="338.52,-285780.83 343.52,-285779.08 338.52,-285777.33 338.52,-285780.83"/>
</g>
<!-- Token -->
<g id="node4" class="node">
<title>Token</title>
<g id="a_node4"><a xlink:href="../pyVHDLParser.Token.html#pyVHDLParser.Token.Token" xlink:title="Base&#45;class for all token classes." target="_top">
<polygon fill="white" stroke="#1e90ff" points="54,-571551.75 0,-571551.75 0,-6.42 54,-6.42 54,-571551.75"/>
<text text-anchor="middle" x="27" y="-571538.25" font-family="Vera Sans, DejaVu Sans, Liberation Sans, Arial, Helvetica, sans" font-size="10.00">Token</text>
</a>
</g>
</g>
<!-- ValuedToken -->
<g id="node5" class="node">
<title>ValuedToken</title>
<g id="a_node5"><a xlink:href="../pyVHDLParser.Token.html#pyVHDLParser.Token.ValuedToken" xlink:title="Base&#45;class for all *valued* token." target="_top">
<polygon fill="white" stroke="#1e90ff" points="188.5,-285788.33 90,-285788.33 90,-285769.83 188.5,-285769.83 188.5,-285788.33"/>
<text text-anchor="middle" x="139.25" y="-285774.83" font-family="Vera Sans, DejaVu Sans, Liberation Sans, Arial, Helvetica, sans" font-size="10.00">ValuedToken</text>
</a>
</g>
</g>
<!-- Token&#45;&gt;ValuedToken -->
<g id="edge4" class="edge">
<title>Token&#45;&gt;ValuedToken</title>
<path fill="none" stroke="black" stroke-width="0.5" d="M54.41,-285779.08C63.25,-285779.08 73.45,-285779.08 83.64,-285779.08"/>
<polygon fill="black" stroke="black" stroke-width="0.5" points="84.62,-285780.83 89.62,-285779.08 84.62,-285777.33 84.62,-285780.83"/>
</g>
<!-- ValuedToken&#45;&gt;VHDLToken -->
<g id="edge3" class="edge">
<title>ValuedToken&#45;&gt;VHDLToken</title>
<path fill="none" stroke="black" stroke-width="0.5" d="M188.94,-285779.08C198.59,-285779.08 208.7,-285779.08 218.29,-285779.08"/>
<polygon fill="black" stroke="black" stroke-width="0.5" points="219.19,-285780.83 224.19,-285779.08 219.19,-285777.33 219.19,-285780.83"/>
</g>
</g>
</svg>
