<?xml version="1.0" encoding="UTF-8" standalone="no"?>
<!DOCTYPE svg PUBLIC "-//W3C//DTD SVG 1.1//EN"
 "http://www.w3.org/Graphics/SVG/1.1/DTD/svg11.dtd">
<!-- Generated by graphviz version 8.0.5 (20230430.1635)
 -->
<!-- Title: inheritanced7262a33d2 Pages: 1 -->
<svg width="1pt" height="864pt"
 viewBox="0.00 0.00 0.50 864.00" xmlns="http://www.w3.org/2000/svg" xmlns:xlink="http://www.w3.org/1999/xlink">
<g id="graph0" class="graph" transform="scale(0.000845737 0.000845737) rotate(0) translate(4 1021590.18)">
<title>inheritanced7262a33d2</title>
<!-- KeywordToken -->
<g id="node1" class="node">
<title>KeywordToken</title>
<g id="a_node1"><a xlink:href="../pyVHDLParser/pyVHDLParser.Token.Keywords.html#pyVHDLParser.Token.Keywords.KeywordToken" xlink:title="KeywordToken" target="_top">
<polygon fill="white" stroke="#1e90ff" points="450,-510802.34 344,-510802.34 344,-510783.84 450,-510783.84 450,-510802.34"/>
<text text-anchor="middle" x="397" y="-510788.84" font-family="Vera Sans, DejaVu Sans, Liberation Sans, Arial, Helvetica, sans" font-size="10.00">KeywordToken</text>
</a>
</g>
</g>
<!-- WhenKeyword -->
<g id="node5" class="node">
<title>WhenKeyword</title>
<g id="a_node5"><a xlink:href="../pyVHDLParser/pyVHDLParser.Token.Keywords.html#pyVHDLParser.Token.Keywords.WhenKeyword" xlink:title="WhenKeyword" target="_top">
<polygon fill="white" stroke="#1e90ff" points="584.5,-510802.34 486,-510802.34 486,-510783.84 584.5,-510783.84 584.5,-510802.34"/>
<text text-anchor="middle" x="535.25" y="-510788.84" font-family="Vera Sans, DejaVu Sans, Liberation Sans, Arial, Helvetica, sans" font-size="10.00">WhenKeyword</text>
</a>
</g>
</g>
<!-- KeywordToken&#45;&gt;WhenKeyword -->
<g id="edge4" class="edge">
<title>KeywordToken&#45;&gt;WhenKeyword</title>
<path fill="none" stroke="black" stroke-width="0.5" d="M450.29,-510793.09C460.07,-510793.09 470.32,-510793.09 480.16,-510793.09"/>
<polygon fill="black" stroke="black" stroke-width="0.5" points="480.9,-510794.84 485.9,-510793.09 480.9,-510791.34 480.9,-510794.84"/>
</g>
<!-- VHDLToken -->
<g id="node2" class="node">
<title>VHDLToken</title>
<g id="a_node2"><a xlink:href="../pyVHDLParser.Token.html#pyVHDLParser.Token.VHDLToken" xlink:title="Base&#45;class for all VHDL specific tokens." target="_top">
<polygon fill="white" stroke="#1e90ff" points="308,-510802.34 224.5,-510802.34 224.5,-510783.84 308,-510783.84 308,-510802.34"/>
<text text-anchor="middle" x="266.25" y="-510788.84" font-family="Vera Sans, DejaVu Sans, Liberation Sans, Arial, Helvetica, sans" font-size="10.00">VHDLToken</text>
</a>
</g>
</g>
<!-- VHDLToken&#45;&gt;KeywordToken -->
<g id="edge1" class="edge">
<title>VHDLToken&#45;&gt;KeywordToken</title>
<path fill="none" stroke="black" stroke-width="0.5" d="M308.34,-510793.09C317.69,-510793.09 327.8,-510793.09 337.71,-510793.09"/>
<polygon fill="black" stroke="black" stroke-width="0.5" points="338.52,-510794.84 343.52,-510793.09 338.52,-510791.34 338.52,-510794.84"/>
</g>
<!-- Token -->
<g id="node3" class="node">
<title>Token</title>
<g id="a_node3"><a xlink:href="../pyVHDLParser.Token.html#pyVHDLParser.Token.Token" xlink:title="Base&#45;class for all token classes." target="_top">
<polygon fill="white" stroke="#1e90ff" points="54,-1021586.13 0,-1021586.13 0,-0.04 54,-0.04 54,-1021586.13"/>
<text text-anchor="middle" x="27" y="-1021572.63" font-family="Vera Sans, DejaVu Sans, Liberation Sans, Arial, Helvetica, sans" font-size="10.00">Token</text>
</a>
</g>
</g>
<!-- ValuedToken -->
<g id="node4" class="node">
<title>ValuedToken</title>
<g id="a_node4"><a xlink:href="../pyVHDLParser.Token.html#pyVHDLParser.Token.ValuedToken" xlink:title="Base&#45;class for all *valued* token." target="_top">
<polygon fill="white" stroke="#1e90ff" points="188.5,-1021586.18 90,-1021586.18 90,0 188.5,0 188.5,-1021586.18"/>
<text text-anchor="middle" x="139.25" y="-1021572.68" font-family="Vera Sans, DejaVu Sans, Liberation Sans, Arial, Helvetica, sans" font-size="10.00">ValuedToken</text>
</a>
</g>
</g>
<!-- Token&#45;&gt;ValuedToken -->
<g id="edge3" class="edge">
<title>Token&#45;&gt;ValuedToken</title>
<path fill="none" stroke="black" stroke-width="0.5" d="M54.41,-510793.09C63.25,-510793.09 73.45,-510793.09 83.64,-510793.09"/>
<polygon fill="black" stroke="black" stroke-width="0.5" points="84.62,-510794.84 89.62,-510793.09 84.62,-510791.34 84.62,-510794.84"/>
</g>
<!-- ValuedToken&#45;&gt;VHDLToken -->
<g id="edge2" class="edge">
<title>ValuedToken&#45;&gt;VHDLToken</title>
<path fill="none" stroke="black" stroke-width="0.5" d="M188.94,-510793.09C198.59,-510793.09 208.7,-510793.09 218.29,-510793.09"/>
<polygon fill="black" stroke="black" stroke-width="0.5" points="219.19,-510794.84 224.19,-510793.09 219.19,-510791.34 219.19,-510794.84"/>
</g>
</g>
</svg>
