<?xml version="1.0" encoding="UTF-8" standalone="no"?>
<!DOCTYPE svg PUBLIC "-//W3C//DTD SVG 1.1//EN"
 "http://www.w3.org/Graphics/SVG/1.1/DTD/svg11.dtd">
<!-- Generated by graphviz version 8.0.5 (20230430.1635)
 -->
<!-- Title: inheritance392925af69 Pages: 1 -->
<svg width="0pt" height="864pt"
 viewBox="0.00 0.00 0.27 864.00" xmlns="http://www.w3.org/2000/svg" xmlns:xlink="http://www.w3.org/1999/xlink">
<g id="graph0" class="graph" transform="scale(0.000629865 0.000629865) rotate(0) translate(4 1371719.13)">
<title>inheritance392925af69</title>
<!-- StartOf -->
<g id="node1" class="node">
<title>StartOf</title>
<g id="a_node1"><a xlink:title="Base&#45;class (mixin) for all StartOf*** classes.">
<polygon fill="white" stroke="#1e90ff" points="68.5,-1371715.13 0,-1371715.13 0,69230.99 68.5,69230.99 68.5,-1371715.13"/>
<text text-anchor="middle" x="34.25" y="-1371701.63" font-family="Vera Sans, DejaVu Sans, Liberation Sans, Arial, Helvetica, sans" font-size="10.00">StartOf</text>
</a>
</g>
</g>
<!-- StartOfSnippet -->
<g id="node2" class="node">
<title>StartOfSnippet</title>
<g id="a_node2"><a xlink:title="Base&#45;class (mixin) for all StartOf***Snippet classes.">
<polygon fill="white" stroke="#1e90ff" points="225.5,-1236949.43 104.5,-1236949.43 104.5,-65534.72 225.5,-65534.72 225.5,-1236949.43"/>
<text text-anchor="middle" x="165" y="-1236935.93" font-family="Vera Sans, DejaVu Sans, Liberation Sans, Arial, Helvetica, sans" font-size="10.00">StartOfSnippet</text>
</a>
</g>
</g>
<!-- StartOf&#45;&gt;StartOfSnippet -->
<g id="edge1" class="edge">
<title>StartOf&#45;&gt;StartOfSnippet</title>
<path fill="none" stroke="black" stroke-width="0.5" d="M68.74,-651242.07C77.92,-651242.07 88.2,-651242.07 98.51,-651242.07"/>
<polygon fill="black" stroke="black" stroke-width="0.5" points="99.24,-651243.82 104.24,-651242.07 99.24,-651240.32 99.24,-651243.82"/>
</g>
<!-- StartOfSnippetToken -->
<g id="node3" class="node">
<title>StartOfSnippetToken</title>
<g id="a_node3"><a xlink:href="../pyVHDLParser/pyVHDLParser.Token.html#pyVHDLParser.Token.StartOfSnippetToken" xlink:title="StartOfSnippetToken" target="_top">
<polygon fill="white" stroke="#1e90ff" points="420,-1204181.19 261.5,-1204181.19 261.5,-32766.96 420,-32766.96 420,-1204181.19"/>
<text text-anchor="middle" x="340.75" y="-1204167.69" font-family="Vera Sans, DejaVu Sans, Liberation Sans, Arial, Helvetica, sans" font-size="10.00">StartOfSnippetToken</text>
</a>
</g>
</g>
<!-- StartOfSnippet&#45;&gt;StartOfSnippetToken -->
<g id="edge3" class="edge">
<title>StartOfSnippet&#45;&gt;StartOfSnippetToken</title>
<path fill="none" stroke="black" stroke-width="0.5" d="M226,-639926.83C237.28,-637800 249.22,-635546.76 260.97,-633331.09"/>
<polygon fill="black" stroke="black" stroke-width="0.5" points="262.73,-633330.41 261,-633325.41 259.23,-633330.4 262.73,-633330.41"/>
</g>
<!-- StartOfToken -->
<g id="node4" class="node">
<title>StartOfToken</title>
<g id="a_node4"><a xlink:href="../pyVHDLParser/pyVHDLParser.Token.html#pyVHDLParser.Token.StartOfToken" xlink:title="Base&#45;class for meta&#45;tokens representing the start of a token stream." target="_top">
<polygon fill="white" stroke="#1e90ff" points="218,-1171414.14 112,-1171414.14 112,0 218,0 218,-1171414.14"/>
<text text-anchor="middle" x="165" y="-1171400.64" font-family="Vera Sans, DejaVu Sans, Liberation Sans, Arial, Helvetica, sans" font-size="10.00">StartOfToken</text>
</a>
</g>
</g>
<!-- StartOfToken&#45;&gt;StartOfSnippetToken -->
<g id="edge2" class="edge">
<title>StartOfToken&#45;&gt;StartOfSnippetToken</title>
<path fill="none" stroke="black" stroke-width="0.5" d="M218.5,-595607.71C231.89,-598133.01 246.58,-600903.32 260.97,-603617.26"/>
<polygon fill="black" stroke="black" stroke-width="0.5" points="259.23,-603618.24 261,-603623.23 262.73,-603618.22 259.23,-603618.24"/>
</g>
<!-- Token -->
<g id="node5" class="node">
<title>Token</title>
<g id="a_node5"><a xlink:href="../pyVHDLParser/pyVHDLParser.Token.html#pyVHDLParser.Token.Token" xlink:title="Base&#45;class for all token classes." target="_top">
<polygon fill="white" stroke="#1e90ff" points="61.25,-585721.82 7.25,-585721.82 7.25,-585692.32 61.25,-585692.32 61.25,-585721.82"/>
<text text-anchor="middle" x="34.25" y="-585708.32" font-family="Vera Sans, DejaVu Sans, Liberation Sans, Arial, Helvetica, sans" font-size="10.00">Token</text>
</a>
</g>
</g>
<!-- Token&#45;&gt;StartOfToken -->
<g id="edge4" class="edge">
<title>Token&#45;&gt;StartOfToken</title>
<path fill="none" stroke="black" stroke-width="0.5" d="M61.62,-585707.07C74.46,-585707.07 90.44,-585707.07 105.94,-585707.07"/>
<polygon fill="black" stroke="black" stroke-width="0.5" points="106.62,-585708.82 111.62,-585707.07 106.62,-585705.32 106.62,-585708.82"/>
</g>
</g>
</svg>
