<?xml version="1.0" encoding="UTF-8" standalone="no"?>
<!DOCTYPE svg PUBLIC "-//W3C//DTD SVG 1.1//EN"
 "http://www.w3.org/Graphics/SVG/1.1/DTD/svg11.dtd">
<!-- Generated by graphviz version 8.0.5 (20230430.1635)
 -->
<!-- Title: inheritancea80b8c4aaf Pages: 1 -->
<svg width="2pt" height="864pt"
 viewBox="0.00 0.00 2.28 864.00" xmlns="http://www.w3.org/2000/svg" xmlns:xlink="http://www.w3.org/1999/xlink">
<g id="graph0" class="graph" transform="scale(0.00370013 0.00370013) rotate(0) translate(4 233501.36)">
<title>inheritancea80b8c4aaf</title>
<!-- CommentToken -->
<g id="node1" class="node">
<title>CommentToken</title>
<g id="a_node1"><a xlink:href="../pyVHDLParser/pyVHDLParser.Token.html#pyVHDLParser.Token.CommentToken" xlink:title="Base&#45;class for comment tokens." target="_top">
<polygon fill="white" stroke="#1e90ff" points="450,-116757.93 344,-116757.93 344,-116739.43 450,-116739.43 450,-116757.93"/>
<text text-anchor="middle" x="397" y="-116744.43" font-family="Vera Sans, DejaVu Sans, Liberation Sans, Arial, Helvetica, sans" font-size="10.00">CommentToken</text>
</a>
</g>
</g>
<!-- DirectiveToken -->
<g id="node3" class="node">
<title>DirectiveToken</title>
<g id="a_node3"><a xlink:href="../pyVHDLParser/pyVHDLParser.Token.html#pyVHDLParser.Token.DirectiveToken" xlink:title="DirectiveToken" target="_top">
<polygon fill="white" stroke="#1e90ff" points="607,-233497.31 486,-233497.31 486,-0.05 607,-0.05 607,-233497.31"/>
<text text-anchor="middle" x="546.5" y="-233483.81" font-family="Vera Sans, DejaVu Sans, Liberation Sans, Arial, Helvetica, sans" font-size="10.00">DirectiveToken</text>
</a>
</g>
</g>
<!-- CommentToken&#45;&gt;DirectiveToken -->
<g id="edge2" class="edge">
<title>CommentToken&#45;&gt;DirectiveToken</title>
<path fill="none" stroke="black" stroke-width="0.5" d="M450.42,-116748.68C459.97,-116748.68 470.05,-116748.68 479.92,-116748.68"/>
<polygon fill="black" stroke="black" stroke-width="0.5" points="480.71,-116750.43 485.71,-116748.68 480.71,-116746.93 480.71,-116750.43"/>
</g>
<!-- VHDLToken -->
<g id="node2" class="node">
<title>VHDLToken</title>
<g id="a_node2"><a xlink:href="../pyVHDLParser/pyVHDLParser.Token.html#pyVHDLParser.Token.VHDLToken" xlink:title="Base&#45;class for all VHDL specific tokens." target="_top">
<polygon fill="white" stroke="#1e90ff" points="308,-116757.93 224.5,-116757.93 224.5,-116739.43 308,-116739.43 308,-116757.93"/>
<text text-anchor="middle" x="266.25" y="-116744.43" font-family="Vera Sans, DejaVu Sans, Liberation Sans, Arial, Helvetica, sans" font-size="10.00">VHDLToken</text>
</a>
</g>
</g>
<!-- VHDLToken&#45;&gt;CommentToken -->
<g id="edge1" class="edge">
<title>VHDLToken&#45;&gt;CommentToken</title>
<path fill="none" stroke="black" stroke-width="0.5" d="M308.34,-116748.68C317.69,-116748.68 327.8,-116748.68 337.71,-116748.68"/>
<polygon fill="black" stroke="black" stroke-width="0.5" points="338.52,-116750.43 343.52,-116748.68 338.52,-116746.93 338.52,-116750.43"/>
</g>
<!-- Token -->
<g id="node4" class="node">
<title>Token</title>
<g id="a_node4"><a xlink:href="../pyVHDLParser/pyVHDLParser.Token.html#pyVHDLParser.Token.Token" xlink:title="Base&#45;class for all token classes." target="_top">
<polygon fill="white" stroke="#1e90ff" points="54,-233497.36 0,-233497.36 0,0 54,0 54,-233497.36"/>
<text text-anchor="middle" x="27" y="-233483.86" font-family="Vera Sans, DejaVu Sans, Liberation Sans, Arial, Helvetica, sans" font-size="10.00">Token</text>
</a>
</g>
</g>
<!-- ValuedToken -->
<g id="node5" class="node">
<title>ValuedToken</title>
<g id="a_node5"><a xlink:href="../pyVHDLParser/pyVHDLParser.Token.html#pyVHDLParser.Token.ValuedToken" xlink:title="Base&#45;class for all *valued* token." target="_top">
<polygon fill="white" stroke="#1e90ff" points="188.5,-116757.93 90,-116757.93 90,-116739.43 188.5,-116739.43 188.5,-116757.93"/>
<text text-anchor="middle" x="139.25" y="-116744.43" font-family="Vera Sans, DejaVu Sans, Liberation Sans, Arial, Helvetica, sans" font-size="10.00">ValuedToken</text>
</a>
</g>
</g>
<!-- Token&#45;&gt;ValuedToken -->
<g id="edge4" class="edge">
<title>Token&#45;&gt;ValuedToken</title>
<path fill="none" stroke="black" stroke-width="0.5" d="M54.41,-116748.68C63.25,-116748.68 73.45,-116748.68 83.64,-116748.68"/>
<polygon fill="black" stroke="black" stroke-width="0.5" points="84.62,-116750.43 89.62,-116748.68 84.62,-116746.93 84.62,-116750.43"/>
</g>
<!-- ValuedToken&#45;&gt;VHDLToken -->
<g id="edge3" class="edge">
<title>ValuedToken&#45;&gt;VHDLToken</title>
<path fill="none" stroke="black" stroke-width="0.5" d="M188.94,-116748.68C198.59,-116748.68 208.7,-116748.68 218.29,-116748.68"/>
<polygon fill="black" stroke="black" stroke-width="0.5" points="219.19,-116750.43 224.19,-116748.68 219.19,-116746.93 219.19,-116750.43"/>
</g>
</g>
</svg>
