<?xml version="1.0" encoding="UTF-8" standalone="no"?>
<!DOCTYPE svg PUBLIC "-//W3C//DTD SVG 1.1//EN"
 "http://www.w3.org/Graphics/SVG/1.1/DTD/svg11.dtd">
<!-- Generated by graphviz version 8.0.5 (20230430.1635)
 -->
<!-- Title: inheritancef40e565e1a Pages: 1 -->
<svg width="1pt" height="864pt"
 viewBox="0.00 0.00 1.24 864.00" xmlns="http://www.w3.org/2000/svg" xmlns:xlink="http://www.w3.org/1999/xlink">
<g id="graph0" class="graph" transform="scale(0.00116778 0.00116778) rotate(0) translate(4 739862.4)">
<title>inheritancef40e565e1a</title>
<!-- BracketToken -->
<g id="node1" class="node">
<title>BracketToken</title>
<g id="a_node1"><a xlink:href="../pyVHDLParser/pyVHDLParser.Token.Keywords.html#pyVHDLParser.Token.Keywords.BracketToken" xlink:title="Base&#45;class for all bracket tokens: ``(``, ``)``, ``[``, ``]``, ``{``, ``}``, ``&lt;`` and ``&gt;``." target="_top">
<polygon fill="white" stroke="#1e90ff" points="629.5,-369938.45 523.5,-369938.45 523.5,-369919.95 629.5,-369919.95 629.5,-369938.45"/>
<text text-anchor="middle" x="576.5" y="-369924.95" font-family="Vera Sans, DejaVu Sans, Liberation Sans, Arial, Helvetica, sans" font-size="10.00">BracketToken</text>
</a>
</g>
</g>
<!-- SquareBracketToken -->
<g id="node4" class="node">
<title>SquareBracketToken</title>
<g id="a_node4"><a xlink:href="../pyVHDLParser/pyVHDLParser.Token.Keywords.html#pyVHDLParser.Token.Keywords.SquareBracketToken" xlink:title="Base&#45;class for all square bracket tokens: ``[`` and ``]``." target="_top">
<polygon fill="white" stroke="#1e90ff" points="816.5,-369938.45 665.5,-369938.45 665.5,-369919.95 816.5,-369919.95 816.5,-369938.45"/>
<text text-anchor="middle" x="741" y="-369924.95" font-family="Vera Sans, DejaVu Sans, Liberation Sans, Arial, Helvetica, sans" font-size="10.00">SquareBracketToken</text>
</a>
</g>
</g>
<!-- BracketToken&#45;&gt;SquareBracketToken -->
<g id="edge4" class="edge">
<title>BracketToken&#45;&gt;SquareBracketToken</title>
<path fill="none" stroke="black" stroke-width="0.5" d="M629.81,-369929.2C639.2,-369929.2 649.17,-369929.2 659.14,-369929.2"/>
<polygon fill="black" stroke="black" stroke-width="0.5" points="660.01,-369930.95 665.01,-369929.2 660.01,-369927.45 660.01,-369930.95"/>
</g>
<!-- SpecificVHDLToken -->
<g id="node2" class="node">
<title>SpecificVHDLToken</title>
<g id="a_node2"><a xlink:href="../pyVHDLParser/pyVHDLParser.Token.Keywords.html#pyVHDLParser.Token.Keywords.SpecificVHDLToken" xlink:title="Base&#45;class for all specific tokens." target="_top">
<polygon fill="white" stroke="#1e90ff" points="487.5,-739858.4 344,-739858.4 344,0 487.5,0 487.5,-739858.4"/>
<text text-anchor="middle" x="415.75" y="-739844.9" font-family="Vera Sans, DejaVu Sans, Liberation Sans, Arial, Helvetica, sans" font-size="10.00">SpecificVHDLToken</text>
</a>
</g>
</g>
<!-- SpecificVHDLToken&#45;&gt;BracketToken -->
<g id="edge1" class="edge">
<title>SpecificVHDLToken&#45;&gt;BracketToken</title>
<path fill="none" stroke="black" stroke-width="0.5" d="M487.77,-369929.2C497.61,-369929.2 507.63,-369929.2 517.21,-369929.2"/>
<polygon fill="black" stroke="black" stroke-width="0.5" points="518.11,-369930.95 523.11,-369929.2 518.11,-369927.45 518.11,-369930.95"/>
</g>
<!-- OpeningSquareBracketToken -->
<g id="node3" class="node">
<title>OpeningSquareBracketToken</title>
<g id="a_node3"><a xlink:href="../pyVHDLParser/pyVHDLParser.Token.Keywords.html#pyVHDLParser.Token.Keywords.OpeningSquareBracketToken" xlink:title="Token representing an square round bracket: ``[``." target="_top">
<polygon fill="white" stroke="#1e90ff" points="1056,-739851.89 852.5,-739851.89 852.5,-6.52 1056,-6.52 1056,-739851.89"/>
<text text-anchor="middle" x="954.25" y="-739838.39" font-family="Vera Sans, DejaVu Sans, Liberation Sans, Arial, Helvetica, sans" font-size="10.00">OpeningSquareBracketToken</text>
</a>
</g>
</g>
<!-- SquareBracketToken&#45;&gt;OpeningSquareBracketToken -->
<g id="edge2" class="edge">
<title>SquareBracketToken&#45;&gt;OpeningSquareBracketToken</title>
<path fill="none" stroke="black" stroke-width="0.5" d="M816.78,-369929.2C826.4,-369929.2 836.4,-369929.2 846.41,-369929.2"/>
<polygon fill="black" stroke="black" stroke-width="0.5" points="847.31,-369930.95 852.31,-369929.2 847.31,-369927.45 847.31,-369930.95"/>
</g>
<!-- VHDLToken -->
<g id="node5" class="node">
<title>VHDLToken</title>
<g id="a_node5"><a xlink:href="../pyVHDLParser.Token.html#pyVHDLParser.Token.VHDLToken" xlink:title="Base&#45;class for all VHDL specific tokens." target="_top">
<polygon fill="white" stroke="#1e90ff" points="308,-369938.45 224.5,-369938.45 224.5,-369919.95 308,-369919.95 308,-369938.45"/>
<text text-anchor="middle" x="266.25" y="-369924.95" font-family="Vera Sans, DejaVu Sans, Liberation Sans, Arial, Helvetica, sans" font-size="10.00">VHDLToken</text>
</a>
</g>
</g>
<!-- VHDLToken&#45;&gt;SpecificVHDLToken -->
<g id="edge3" class="edge">
<title>VHDLToken&#45;&gt;SpecificVHDLToken</title>
<path fill="none" stroke="black" stroke-width="0.5" d="M308.34,-369929.2C317.53,-369929.2 327.57,-369929.2 337.69,-369929.2"/>
<polygon fill="black" stroke="black" stroke-width="0.5" points="338.66,-369930.95 343.66,-369929.2 338.66,-369927.45 338.66,-369930.95"/>
</g>
<!-- Token -->
<g id="node6" class="node">
<title>Token</title>
<g id="a_node6"><a xlink:href="../pyVHDLParser.Token.html#pyVHDLParser.Token.Token" xlink:title="Base&#45;class for all token classes." target="_top">
<polygon fill="white" stroke="#1e90ff" points="54,-369938.45 0,-369938.45 0,-369919.95 54,-369919.95 54,-369938.45"/>
<text text-anchor="middle" x="27" y="-369924.95" font-family="Vera Sans, DejaVu Sans, Liberation Sans, Arial, Helvetica, sans" font-size="10.00">Token</text>
</a>
</g>
</g>
<!-- ValuedToken -->
<g id="node7" class="node">
<title>ValuedToken</title>
<g id="a_node7"><a xlink:href="../pyVHDLParser.Token.html#pyVHDLParser.Token.ValuedToken" xlink:title="Base&#45;class for all *valued* token." target="_top">
<polygon fill="white" stroke="#1e90ff" points="188.5,-369950.4 90,-369950.4 90,-369908 188.5,-369908 188.5,-369950.4"/>
<text text-anchor="middle" x="139.25" y="-369936.9" font-family="Vera Sans, DejaVu Sans, Liberation Sans, Arial, Helvetica, sans" font-size="10.00">ValuedToken</text>
</a>
</g>
</g>
<!-- Token&#45;&gt;ValuedToken -->
<g id="edge6" class="edge">
<title>Token&#45;&gt;ValuedToken</title>
<path fill="none" stroke="black" stroke-width="0.5" d="M54.41,-369929.2C63.25,-369929.2 73.45,-369929.2 83.64,-369929.2"/>
<polygon fill="black" stroke="black" stroke-width="0.5" points="84.62,-369930.95 89.62,-369929.2 84.62,-369927.45 84.62,-369930.95"/>
</g>
<!-- ValuedToken&#45;&gt;VHDLToken -->
<g id="edge5" class="edge">
<title>ValuedToken&#45;&gt;VHDLToken</title>
<path fill="none" stroke="black" stroke-width="0.5" d="M188.94,-369929.2C198.59,-369929.2 208.7,-369929.2 218.29,-369929.2"/>
<polygon fill="black" stroke="black" stroke-width="0.5" points="219.19,-369930.95 224.19,-369929.2 219.19,-369927.45 219.19,-369930.95"/>
</g>
</g>
</svg>
