<?xml version="1.0" encoding="UTF-8" standalone="no"?>
<!DOCTYPE svg PUBLIC "-//W3C//DTD SVG 1.1//EN"
 "http://www.w3.org/Graphics/SVG/1.1/DTD/svg11.dtd">
<!-- Generated by graphviz version 8.0.5 (20230430.1635)
 -->
<!-- Title: inheritance493a2b2bda Pages: 1 -->
<svg width="1pt" height="864pt"
 viewBox="0.00 0.00 1.40 864.00" xmlns="http://www.w3.org/2000/svg" xmlns:xlink="http://www.w3.org/1999/xlink">
<g id="graph0" class="graph" transform="scale(0.00227085 0.00227085) rotate(0) translate(4 380470.42)">
<title>inheritance493a2b2bda</title>
<!-- KeywordToken -->
<g id="node1" class="node">
<title>KeywordToken</title>
<g id="a_node1"><a xlink:href="../pyVHDLParser/pyVHDLParser.Token.Keywords.html#pyVHDLParser.Token.Keywords.KeywordToken" xlink:title="KeywordToken" target="_top">
<polygon fill="white" stroke="#1e90ff" points="450,-190242.46 344,-190242.46 344,-190223.96 450,-190223.96 450,-190242.46"/>
<text text-anchor="middle" x="397" y="-190228.96" font-family="Vera Sans, DejaVu Sans, Liberation Sans, Arial, Helvetica, sans" font-size="10.00">KeywordToken</text>
</a>
</g>
</g>
<!-- ProcessKeyword -->
<g id="node3" class="node">
<title>ProcessKeyword</title>
<g id="a_node3"><a xlink:href="../pyVHDLParser/pyVHDLParser.Token.Keywords.html#pyVHDLParser.Token.Keywords.ProcessKeyword" xlink:title="ProcessKeyword" target="_top">
<polygon fill="white" stroke="#1e90ff" points="607,-380466.42 486,-380466.42 486,0 607,0 607,-380466.42"/>
<text text-anchor="middle" x="546.5" y="-380452.92" font-family="Vera Sans, DejaVu Sans, Liberation Sans, Arial, Helvetica, sans" font-size="10.00">ProcessKeyword</text>
</a>
</g>
</g>
<!-- KeywordToken&#45;&gt;ProcessKeyword -->
<g id="edge2" class="edge">
<title>KeywordToken&#45;&gt;ProcessKeyword</title>
<path fill="none" stroke="black" stroke-width="0.5" d="M450.42,-190233.21C459.97,-190233.21 470.05,-190233.21 479.92,-190233.21"/>
<polygon fill="black" stroke="black" stroke-width="0.5" points="480.71,-190234.96 485.71,-190233.21 480.71,-190231.46 480.71,-190234.96"/>
</g>
<!-- VHDLToken -->
<g id="node2" class="node">
<title>VHDLToken</title>
<g id="a_node2"><a xlink:href="../pyVHDLParser.Token.html#pyVHDLParser.Token.VHDLToken" xlink:title="Base&#45;class for all VHDL specific tokens." target="_top">
<polygon fill="white" stroke="#1e90ff" points="308,-190242.46 224.5,-190242.46 224.5,-190223.96 308,-190223.96 308,-190242.46"/>
<text text-anchor="middle" x="266.25" y="-190228.96" font-family="Vera Sans, DejaVu Sans, Liberation Sans, Arial, Helvetica, sans" font-size="10.00">VHDLToken</text>
</a>
</g>
</g>
<!-- VHDLToken&#45;&gt;KeywordToken -->
<g id="edge1" class="edge">
<title>VHDLToken&#45;&gt;KeywordToken</title>
<path fill="none" stroke="black" stroke-width="0.5" d="M308.34,-190233.21C317.69,-190233.21 327.8,-190233.21 337.71,-190233.21"/>
<polygon fill="black" stroke="black" stroke-width="0.5" points="338.52,-190234.96 343.52,-190233.21 338.52,-190231.46 338.52,-190234.96"/>
</g>
<!-- Token -->
<g id="node4" class="node">
<title>Token</title>
<g id="a_node4"><a xlink:href="../pyVHDLParser.Token.html#pyVHDLParser.Token.Token" xlink:title="Base&#45;class for all token classes." target="_top">
<polygon fill="white" stroke="#1e90ff" points="54,-380466.37 0,-380466.37 0,-0.05 54,-0.05 54,-380466.37"/>
<text text-anchor="middle" x="27" y="-380452.87" font-family="Vera Sans, DejaVu Sans, Liberation Sans, Arial, Helvetica, sans" font-size="10.00">Token</text>
</a>
</g>
</g>
<!-- ValuedToken -->
<g id="node5" class="node">
<title>ValuedToken</title>
<g id="a_node5"><a xlink:href="../pyVHDLParser.Token.html#pyVHDLParser.Token.ValuedToken" xlink:title="Base&#45;class for all *valued* token." target="_top">
<polygon fill="white" stroke="#1e90ff" points="188.5,-190242.46 90,-190242.46 90,-190223.96 188.5,-190223.96 188.5,-190242.46"/>
<text text-anchor="middle" x="139.25" y="-190228.96" font-family="Vera Sans, DejaVu Sans, Liberation Sans, Arial, Helvetica, sans" font-size="10.00">ValuedToken</text>
</a>
</g>
</g>
<!-- Token&#45;&gt;ValuedToken -->
<g id="edge4" class="edge">
<title>Token&#45;&gt;ValuedToken</title>
<path fill="none" stroke="black" stroke-width="0.5" d="M54.41,-190233.21C63.25,-190233.21 73.45,-190233.21 83.64,-190233.21"/>
<polygon fill="black" stroke="black" stroke-width="0.5" points="84.62,-190234.96 89.62,-190233.21 84.62,-190231.46 84.62,-190234.96"/>
</g>
<!-- ValuedToken&#45;&gt;VHDLToken -->
<g id="edge3" class="edge">
<title>ValuedToken&#45;&gt;VHDLToken</title>
<path fill="none" stroke="black" stroke-width="0.5" d="M188.94,-190233.21C198.59,-190233.21 208.7,-190233.21 218.29,-190233.21"/>
<polygon fill="black" stroke="black" stroke-width="0.5" points="219.19,-190234.96 224.19,-190233.21 219.19,-190231.46 219.19,-190234.96"/>
</g>
</g>
</svg>
