<?xml version="1.0" encoding="UTF-8" standalone="no"?>
<!DOCTYPE svg PUBLIC "-//W3C//DTD SVG 1.1//EN"
 "http://www.w3.org/Graphics/SVG/1.1/DTD/svg11.dtd">
<!-- Generated by graphviz version 8.0.5 (20230430.1635)
 -->
<!-- Title: inheritance017e55133e Pages: 1 -->
<svg width="1pt" height="864pt"
 viewBox="0.00 0.00 0.65 864.00" xmlns="http://www.w3.org/2000/svg" xmlns:xlink="http://www.w3.org/1999/xlink">
<g id="graph0" class="graph" transform="scale(0.000938151 0.000938151) rotate(0) translate(4 920956.7)">
<title>inheritance017e55133e</title>
<!-- Block -->
<g id="node1" class="node">
<title>Block</title>
<g id="a_node1"><a xlink:href="../pyVHDLParser.Blocks.html#pyVHDLParser.Blocks.Block" xlink:title="Base&#45;class for all :term:`block` classes." target="_top">
<polygon fill="white" stroke="#1e90ff" points="54,-460485.6 0,-460485.6 0,-460467.1 54,-460467.1 54,-460485.6"/>
<text text-anchor="middle" x="27" y="-460472.1" font-family="Vera Sans, DejaVu Sans, Liberation Sans, Arial, Helvetica, sans" font-size="10.00">Block</text>
</a>
</g>
</g>
<!-- ExpressionBlock -->
<g id="node4" class="node">
<title>ExpressionBlock</title>
<g id="a_node4"><a xlink:href="../pyVHDLParser.Blocks.Expression.html#pyVHDLParser.Blocks.Expression.ExpressionBlock" xlink:title="ExpressionBlock" target="_top">
<polygon fill="white" stroke="#1e90ff" points="218.5,-920952.7 90,-920952.7 90,0 218.5,0 218.5,-920952.7"/>
<text text-anchor="middle" x="154.25" y="-920939.2" font-family="Vera Sans, DejaVu Sans, Liberation Sans, Arial, Helvetica, sans" font-size="10.00">ExpressionBlock</text>
</a>
</g>
</g>
<!-- Block&#45;&gt;ExpressionBlock -->
<g id="edge2" class="edge">
<title>Block&#45;&gt;ExpressionBlock</title>
<path fill="none" stroke="black" stroke-width="0.5" d="M54.26,-460476.35C63.03,-460476.35 73.27,-460476.35 83.76,-460476.35"/>
<polygon fill="black" stroke="black" stroke-width="0.5" points="84.61,-460478.1 89.61,-460476.35 84.61,-460474.6 84.61,-460478.1"/>
</g>
<!-- ExitConditionBlock -->
<g id="node2" class="node">
<title>ExitConditionBlock</title>
<g id="a_node2"><a xlink:href="../pyVHDLParser/pyVHDLParser.Blocks.ControlStructure.Exit.html#pyVHDLParser.Blocks.ControlStructure.Exit.ExitConditionBlock" xlink:title="ExitConditionBlock" target="_top">
<polygon fill="white" stroke="#1e90ff" points="690,-460485.6 539,-460485.6 539,-460467.1 690,-460467.1 690,-460485.6"/>
<text text-anchor="middle" x="614.5" y="-460472.1" font-family="Vera Sans, DejaVu Sans, Liberation Sans, Arial, Helvetica, sans" font-size="10.00">ExitConditionBlock</text>
</a>
</g>
</g>
<!-- ExpressionBlockEndedBySemicolon -->
<g id="node3" class="node">
<title>ExpressionBlockEndedBySemicolon</title>
<g id="a_node3"><a xlink:href="../pyVHDLParser.Blocks.Expression.html#pyVHDLParser.Blocks.Expression.ExpressionBlockEndedBySemicolon" xlink:title="ExpressionBlockEndedBySemicolon" target="_top">
<polygon fill="white" stroke="#1e90ff" points="503,-460485.6 254.5,-460485.6 254.5,-460467.1 503,-460467.1 503,-460485.6"/>
<text text-anchor="middle" x="378.75" y="-460472.1" font-family="Vera Sans, DejaVu Sans, Liberation Sans, Arial, Helvetica, sans" font-size="10.00">ExpressionBlockEndedBySemicolon</text>
</a>
</g>
</g>
<!-- ExpressionBlockEndedBySemicolon&#45;&gt;ExitConditionBlock -->
<g id="edge1" class="edge">
<title>ExpressionBlockEndedBySemicolon&#45;&gt;ExitConditionBlock</title>
<path fill="none" stroke="black" stroke-width="0.5" d="M503.47,-460476.35C513.45,-460476.35 523.35,-460476.35 532.9,-460476.35"/>
<polygon fill="black" stroke="black" stroke-width="0.5" points="533.8,-460478.1 538.8,-460476.35 533.8,-460474.6 533.8,-460478.1"/>
</g>
<!-- ExpressionBlock&#45;&gt;ExpressionBlockEndedBySemicolon -->
<g id="edge3" class="edge">
<title>ExpressionBlock&#45;&gt;ExpressionBlockEndedBySemicolon</title>
<path fill="none" stroke="black" stroke-width="0.5" d="M218.71,-460476.35C228.05,-460476.35 237.95,-460476.35 248.06,-460476.35"/>
<polygon fill="black" stroke="black" stroke-width="0.5" points="249.03,-460478.1 254.03,-460476.35 249.03,-460474.6 249.03,-460478.1"/>
</g>
</g>
</svg>
