<?xml version="1.0" encoding="UTF-8" standalone="no"?>
<!DOCTYPE svg PUBLIC "-//W3C//DTD SVG 1.1//EN"
 "http://www.w3.org/Graphics/SVG/1.1/DTD/svg11.dtd">
<!-- Generated by graphviz version 8.0.5 (20230430.1635)
 -->
<!-- Title: inheritance19ec8edfb1 Pages: 1 -->
<svg width="1pt" height="864pt"
 viewBox="0.00 0.00 1.40 864.00" xmlns="http://www.w3.org/2000/svg" xmlns:xlink="http://www.w3.org/1999/xlink">
<g id="graph0" class="graph" transform="scale(0.00245755 0.00245755) rotate(0) translate(4 351565.93)">
<title>inheritance19ec8edfb1</title>
<!-- KeywordToken -->
<g id="node1" class="node">
<title>KeywordToken</title>
<g id="a_node1"><a xlink:href="../pyVHDLParser/pyVHDLParser.Token.Keywords.html#pyVHDLParser.Token.Keywords.KeywordToken" xlink:title="KeywordToken" target="_top">
<polygon fill="white" stroke="#1e90ff" points="450,-175790.22 344,-175790.22 344,-175771.72 450,-175771.72 450,-175790.22"/>
<text text-anchor="middle" x="397" y="-175776.72" font-family="Vera Sans, DejaVu Sans, Liberation Sans, Arial, Helvetica, sans" font-size="10.00">KeywordToken</text>
</a>
</g>
</g>
<!-- Operator -->
<g id="node3" class="node">
<title>Operator</title>
<g id="a_node3"><a xlink:href="../pyVHDLParser/pyVHDLParser.Token.Keywords.html#pyVHDLParser.Token.Keywords.Operator" xlink:title="Operator" target="_top">
<polygon fill="white" stroke="#1e90ff" points="562,-351559.14 486,-351559.14 486,-2.79 562,-2.79 562,-351559.14"/>
<text text-anchor="middle" x="524" y="-351545.64" font-family="Vera Sans, DejaVu Sans, Liberation Sans, Arial, Helvetica, sans" font-size="10.00">Operator</text>
</a>
</g>
</g>
<!-- KeywordToken&#45;&gt;Operator -->
<g id="edge2" class="edge">
<title>KeywordToken&#45;&gt;Operator</title>
<path fill="none" stroke="black" stroke-width="0.5" d="M450.29,-175780.97C460.15,-175780.97 470.36,-175780.97 479.9,-175780.97"/>
<polygon fill="black" stroke="black" stroke-width="0.5" points="480.74,-175782.72 485.74,-175780.97 480.74,-175779.22 480.74,-175782.72"/>
</g>
<!-- VHDLToken -->
<g id="node2" class="node">
<title>VHDLToken</title>
<g id="a_node2"><a xlink:href="../pyVHDLParser.Token.html#pyVHDLParser.Token.VHDLToken" xlink:title="Base&#45;class for all VHDL specific tokens." target="_top">
<polygon fill="white" stroke="#1e90ff" points="308,-175790.22 224.5,-175790.22 224.5,-175771.72 308,-175771.72 308,-175790.22"/>
<text text-anchor="middle" x="266.25" y="-175776.72" font-family="Vera Sans, DejaVu Sans, Liberation Sans, Arial, Helvetica, sans" font-size="10.00">VHDLToken</text>
</a>
</g>
</g>
<!-- VHDLToken&#45;&gt;KeywordToken -->
<g id="edge1" class="edge">
<title>VHDLToken&#45;&gt;KeywordToken</title>
<path fill="none" stroke="black" stroke-width="0.5" d="M308.34,-175780.97C317.69,-175780.97 327.8,-175780.97 337.71,-175780.97"/>
<polygon fill="black" stroke="black" stroke-width="0.5" points="338.52,-175782.72 343.52,-175780.97 338.52,-175779.22 338.52,-175782.72"/>
</g>
<!-- Token -->
<g id="node4" class="node">
<title>Token</title>
<g id="a_node4"><a xlink:href="../pyVHDLParser.Token.html#pyVHDLParser.Token.Token" xlink:title="Base&#45;class for all token classes." target="_top">
<polygon fill="white" stroke="#1e90ff" points="54,-351552.44 0,-351552.44 0,-9.5 54,-9.5 54,-351552.44"/>
<text text-anchor="middle" x="27" y="-351538.94" font-family="Vera Sans, DejaVu Sans, Liberation Sans, Arial, Helvetica, sans" font-size="10.00">Token</text>
</a>
</g>
</g>
<!-- ValuedToken -->
<g id="node5" class="node">
<title>ValuedToken</title>
<g id="a_node5"><a xlink:href="../pyVHDLParser.Token.html#pyVHDLParser.Token.ValuedToken" xlink:title="Base&#45;class for all *valued* token." target="_top">
<polygon fill="white" stroke="#1e90ff" points="188.5,-351561.93 90,-351561.93 90,0 188.5,0 188.5,-351561.93"/>
<text text-anchor="middle" x="139.25" y="-351548.43" font-family="Vera Sans, DejaVu Sans, Liberation Sans, Arial, Helvetica, sans" font-size="10.00">ValuedToken</text>
</a>
</g>
</g>
<!-- Token&#45;&gt;ValuedToken -->
<g id="edge4" class="edge">
<title>Token&#45;&gt;ValuedToken</title>
<path fill="none" stroke="black" stroke-width="0.5" d="M54.41,-175780.97C63.25,-175780.97 73.45,-175780.97 83.64,-175780.97"/>
<polygon fill="black" stroke="black" stroke-width="0.5" points="84.62,-175782.72 89.62,-175780.97 84.62,-175779.22 84.62,-175782.72"/>
</g>
<!-- ValuedToken&#45;&gt;VHDLToken -->
<g id="edge3" class="edge">
<title>ValuedToken&#45;&gt;VHDLToken</title>
<path fill="none" stroke="black" stroke-width="0.5" d="M188.94,-175780.97C198.59,-175780.97 208.7,-175780.97 218.29,-175780.97"/>
<polygon fill="black" stroke="black" stroke-width="0.5" points="219.19,-175782.72 224.19,-175780.97 219.19,-175779.22 219.19,-175782.72"/>
</g>
</g>
</svg>
