<?xml version="1.0" encoding="UTF-8" standalone="no"?>
<!DOCTYPE svg PUBLIC "-//W3C//DTD SVG 1.1//EN"
 "http://www.w3.org/Graphics/SVG/1.1/DTD/svg11.dtd">
<!-- Generated by graphviz version 8.0.5 (20230430.1635)
 -->
<!-- Title: inheritance6efff4dd1b Pages: 1 -->
<svg width="488pt" height="27pt"
 viewBox="0.00 0.00 488.00 26.59" xmlns="http://www.w3.org/2000/svg" xmlns:xlink="http://www.w3.org/1999/xlink">
<g id="graph0" class="graph" transform="scale(1 1) rotate(0) translate(4 22.59)">
<title>inheritance6efff4dd1b</title>
<!-- ExceptionBase -->
<g id="node1" class="node">
<title>ExceptionBase</title>
<polygon fill="white" stroke="#1e90ff" points="113.5,-18.54 0,-18.54 0,-0.04 113.5,-0.04 113.5,-18.54"/>
<text text-anchor="middle" x="56.75" y="-5.04" font-family="Vera Sans, DejaVu Sans, Liberation Sans, Arial, Helvetica, sans" font-size="10.00">ExceptionBase</text>
</g>
<!-- ParserException -->
<g id="node3" class="node">
<title>ParserException</title>
<polygon fill="white" stroke="#1e90ff" points="278,-18.54 149.5,-18.54 149.5,-0.04 278,-0.04 278,-18.54"/>
<text text-anchor="middle" x="213.75" y="-5.04" font-family="Vera Sans, DejaVu Sans, Liberation Sans, Arial, Helvetica, sans" font-size="10.00">ParserException</text>
</g>
<!-- ExceptionBase&#45;&gt;ParserException -->
<g id="edge2" class="edge">
<title>ExceptionBase&#45;&gt;ParserException</title>
<path fill="none" stroke="black" stroke-width="0.5" d="M113.71,-9.29C123.35,-9.29 133.47,-9.29 143.42,-9.29"/>
<polygon fill="black" stroke="black" stroke-width="0.5" points="144.24,-11.04 149.24,-9.29 144.24,-7.54 144.24,-11.04"/>
</g>
<!-- GroupParserException -->
<g id="node2" class="node">
<title>GroupParserException</title>
<g id="a_node2"><a xlink:href="../pyVHDLParser/pyVHDLParser.Groups.html#pyVHDLParser.Groups.GroupParserException" xlink:title="GroupParserException" target="_top">
<polygon fill="white" stroke="#1e90ff" points="480,-18.59 314,-18.59 314,0 480,0 480,-18.59"/>
<text text-anchor="middle" x="397" y="-5.09" font-family="Vera Sans, DejaVu Sans, Liberation Sans, Arial, Helvetica, sans" font-size="10.00">GroupParserException</text>
</a>
</g>
</g>
<!-- ParserException&#45;&gt;GroupParserException -->
<g id="edge1" class="edge">
<title>ParserException&#45;&gt;GroupParserException</title>
<path fill="none" stroke="black" stroke-width="0.5" d="M278.4,-9.29C287.95,-9.29 297.94,-9.29 307.89,-9.29"/>
<polygon fill="black" stroke="black" stroke-width="0.5" points="308.74,-11.04 313.74,-9.29 308.74,-7.54 308.74,-11.04"/>
</g>
</g>
</svg>
