<?xml version="1.0" encoding="UTF-8" standalone="no"?>
<!DOCTYPE svg PUBLIC "-//W3C//DTD SVG 1.1//EN"
 "http://www.w3.org/Graphics/SVG/1.1/DTD/svg11.dtd">
<!-- Generated by graphviz version 8.0.5 (20230430.1635)
 -->
<!-- Title: inheritance0376ade860 Pages: 1 -->
<svg width="294pt" height="74pt"
 viewBox="0.00 0.00 293.50 73.75" xmlns="http://www.w3.org/2000/svg" xmlns:xlink="http://www.w3.org/1999/xlink">
<g id="graph0" class="graph" transform="scale(1 1) rotate(0) translate(4 69.75)">
<title>inheritance0376ade860</title>
<!-- Document -->
<g id="node1" class="node">
<title>Document</title>
<g id="a_node1"><a xlink:href="../pyVHDLParser/pyVHDLParser.DocumentModel.html#pyVHDLParser.DocumentModel.Document" xlink:title="A ``Document`` represents a sourcefile. It contains *primary* and *secondary* design units." target="_top">
<polygon fill="white" stroke="#1e90ff" points="285.5,-45.03 209.5,-45.03 209.5,-26.46 285.5,-26.46 285.5,-45.03"/>
<text text-anchor="middle" x="247.5" y="-31.53" font-family="Vera Sans, DejaVu Sans, Liberation Sans, Arial, Helvetica, sans" font-size="10.00">Document</text>
</a>
</g>
</g>
<!-- Document&#45;&gt;Document -->
<g id="edge3" class="edge">
<title>Document&#45;&gt;Document</title>
<path fill="none" stroke="black" stroke-width="0.5" d="M222.72,-45.26C210.67,-53.84 218.93,-63.03 247.5,-63.03 271.61,-63.03 281.25,-56.49 276.44,-49.29"/>
<polygon fill="black" stroke="black" stroke-width="0.5" points="277.09,-47.48 272.28,-45.26 274.65,-49.99 277.09,-47.48"/>
</g>
<!-- ModelEntity -->
<g id="node2" class="node">
<title>ModelEntity</title>
<g id="a_node2"><a xlink:title="``ModelEntity`` is the base&#45;class for all classes in the VHDL language model, except for mixin classes (see multiple">
<polygon fill="white" stroke="#1e90ff" points="136,-65.75 37.5,-65.75 37.5,-47.75 136,-47.75 136,-65.75"/>
<text text-anchor="middle" x="86.75" y="-47.25" font-family="Vera Sans, DejaVu Sans, Liberation Sans, Arial, Helvetica, sans" font-size="10.00">ModelEntity</text>
</a>
</g>
</g>
<!-- ModelEntity&#45;&gt;Document -->
<g id="edge1" class="edge">
<title>ModelEntity&#45;&gt;Document</title>
<path fill="none" stroke="black" stroke-width="0.5" d="M136.24,-50.33C157.66,-47.5 182.64,-44.2 203.4,-41.45"/>
<polygon fill="black" stroke="black" stroke-width="0.5" points="204.41,-43.08 209.13,-40.69 203.95,-39.61 204.41,-43.08"/>
</g>
<!-- DocumentedEntityMixin -->
<g id="node3" class="node">
<title>DocumentedEntityMixin</title>
<g id="a_node3"><a xlink:title="A ``DocumentedEntityMixin`` is a mixin class for all VHDL entities that can have an associated documentation.">
<polygon fill="white" stroke="#1e90ff" points="173.5,-29.5 0,-29.5 0,0 173.5,0 173.5,-29.5"/>
<text text-anchor="middle" x="86.75" y="-16" font-family="Vera Sans, DejaVu Sans, Liberation Sans, Arial, Helvetica, sans" font-size="10.00">DocumentedEntityMixin</text>
</a>
</g>
</g>
<!-- DocumentedEntityMixin&#45;&gt;Document -->
<g id="edge2" class="edge">
<title>DocumentedEntityMixin&#45;&gt;Document</title>
<path fill="none" stroke="black" stroke-width="0.5" d="M173.63,-26.11C183.82,-27.46 193.86,-28.79 203.08,-30.01"/>
<polygon fill="black" stroke="black" stroke-width="0.5" points="203.83,-31.87 209.02,-30.79 204.29,-28.4 203.83,-31.87"/>
</g>
</g>
</svg>
