<?xml version="1.0" encoding="UTF-8" standalone="no"?>
<!DOCTYPE svg PUBLIC "-//W3C//DTD SVG 1.1//EN"
 "http://www.w3.org/Graphics/SVG/1.1/DTD/svg11.dtd">
<!-- Generated by graphviz version 8.0.5 (20230430.1635)
 -->
<!-- Title: inheritance41aa18b5b0 Pages: 1 -->
<svg width="0pt" height="864pt"
 viewBox="0.00 0.00 0.45 864.00" xmlns="http://www.w3.org/2000/svg" xmlns:xlink="http://www.w3.org/1999/xlink">
<g id="graph0" class="graph" transform="scale(0.000747738 0.000747738) rotate(0) translate(4 1155481.42)">
<title>inheritance41aa18b5b0</title>
<!-- InoutKeyword -->
<g id="node1" class="node">
<title>InoutKeyword</title>
<g id="a_node1"><a xlink:href="../pyVHDLParser/pyVHDLParser.Token.Keywords.html#pyVHDLParser.Token.Keywords.InoutKeyword" xlink:title="InoutKeyword" target="_top">
<polygon fill="white" stroke="#1e90ff" points="592,-577747.96 486,-577747.96 486,-577729.46 592,-577729.46 592,-577747.96"/>
<text text-anchor="middle" x="539" y="-577734.46" font-family="Vera Sans, DejaVu Sans, Liberation Sans, Arial, Helvetica, sans" font-size="10.00">InoutKeyword</text>
</a>
</g>
</g>
<!-- KeywordToken -->
<g id="node2" class="node">
<title>KeywordToken</title>
<g id="a_node2"><a xlink:href="../pyVHDLParser/pyVHDLParser.Token.Keywords.html#pyVHDLParser.Token.Keywords.KeywordToken" xlink:title="KeywordToken" target="_top">
<polygon fill="white" stroke="#1e90ff" points="450,-577747.96 344,-577747.96 344,-577729.46 450,-577729.46 450,-577747.96"/>
<text text-anchor="middle" x="397" y="-577734.46" font-family="Vera Sans, DejaVu Sans, Liberation Sans, Arial, Helvetica, sans" font-size="10.00">KeywordToken</text>
</a>
</g>
</g>
<!-- KeywordToken&#45;&gt;InoutKeyword -->
<g id="edge1" class="edge">
<title>KeywordToken&#45;&gt;InoutKeyword</title>
<path fill="none" stroke="black" stroke-width="0.5" d="M450.13,-577738.71C459.88,-577738.71 470.12,-577738.71 480.03,-577738.71"/>
<polygon fill="black" stroke="black" stroke-width="0.5" points="480.83,-577740.46 485.83,-577738.71 480.83,-577736.96 480.83,-577740.46"/>
</g>
<!-- VHDLToken -->
<g id="node3" class="node">
<title>VHDLToken</title>
<g id="a_node3"><a xlink:href="../pyVHDLParser.Token.html#pyVHDLParser.Token.VHDLToken" xlink:title="Base&#45;class for all VHDL specific tokens." target="_top">
<polygon fill="white" stroke="#1e90ff" points="308,-1155477.42 224.5,-1155477.42 224.5,0 308,0 308,-1155477.42"/>
<text text-anchor="middle" x="266.25" y="-1155463.92" font-family="Vera Sans, DejaVu Sans, Liberation Sans, Arial, Helvetica, sans" font-size="10.00">VHDLToken</text>
</a>
</g>
</g>
<!-- VHDLToken&#45;&gt;KeywordToken -->
<g id="edge2" class="edge">
<title>VHDLToken&#45;&gt;KeywordToken</title>
<path fill="none" stroke="black" stroke-width="0.5" d="M308.34,-577738.71C317.69,-577738.71 327.8,-577738.71 337.71,-577738.71"/>
<polygon fill="black" stroke="black" stroke-width="0.5" points="338.52,-577740.46 343.52,-577738.71 338.52,-577736.96 338.52,-577740.46"/>
</g>
<!-- Token -->
<g id="node4" class="node">
<title>Token</title>
<g id="a_node4"><a xlink:href="../pyVHDLParser.Token.html#pyVHDLParser.Token.Token" xlink:title="Base&#45;class for all token classes." target="_top">
<polygon fill="white" stroke="#1e90ff" points="54,-1155477.37 0,-1155477.37 0,-0.05 54,-0.05 54,-1155477.37"/>
<text text-anchor="middle" x="27" y="-1155463.87" font-family="Vera Sans, DejaVu Sans, Liberation Sans, Arial, Helvetica, sans" font-size="10.00">Token</text>
</a>
</g>
</g>
<!-- ValuedToken -->
<g id="node5" class="node">
<title>ValuedToken</title>
<g id="a_node5"><a xlink:href="../pyVHDLParser.Token.html#pyVHDLParser.Token.ValuedToken" xlink:title="Base&#45;class for all *valued* token." target="_top">
<polygon fill="white" stroke="#1e90ff" points="188.5,-577747.96 90,-577747.96 90,-577729.46 188.5,-577729.46 188.5,-577747.96"/>
<text text-anchor="middle" x="139.25" y="-577734.46" font-family="Vera Sans, DejaVu Sans, Liberation Sans, Arial, Helvetica, sans" font-size="10.00">ValuedToken</text>
</a>
</g>
</g>
<!-- Token&#45;&gt;ValuedToken -->
<g id="edge4" class="edge">
<title>Token&#45;&gt;ValuedToken</title>
<path fill="none" stroke="black" stroke-width="0.5" d="M54.41,-577738.71C63.25,-577738.71 73.45,-577738.71 83.64,-577738.71"/>
<polygon fill="black" stroke="black" stroke-width="0.5" points="84.62,-577740.46 89.62,-577738.71 84.62,-577736.96 84.62,-577740.46"/>
</g>
<!-- ValuedToken&#45;&gt;VHDLToken -->
<g id="edge3" class="edge">
<title>ValuedToken&#45;&gt;VHDLToken</title>
<path fill="none" stroke="black" stroke-width="0.5" d="M188.94,-577738.71C198.59,-577738.71 208.7,-577738.71 218.29,-577738.71"/>
<polygon fill="black" stroke="black" stroke-width="0.5" points="219.19,-577740.46 224.19,-577738.71 219.19,-577736.96 219.19,-577740.46"/>
</g>
</g>
</svg>
