<?xml version="1.0" encoding="UTF-8" standalone="no"?>
<!DOCTYPE svg PUBLIC "-//W3C//DTD SVG 1.1//EN"
 "http://www.w3.org/Graphics/SVG/1.1/DTD/svg11.dtd">
<!-- Generated by graphviz version 8.0.5 (20230430.1635)
 -->
<!-- Title: inheritanceb43c2a0741 Pages: 1 -->
<svg width="1pt" height="864pt"
 viewBox="0.00 0.00 0.61 864.00" xmlns="http://www.w3.org/2000/svg" xmlns:xlink="http://www.w3.org/1999/xlink">
<g id="graph0" class="graph" transform="scale(0.00119587 0.00119587) rotate(0) translate(4 722485.31)">
<title>inheritanceb43c2a0741</title>
<!-- BeginBlock -->
<g id="node1" class="node">
<title>BeginBlock</title>
<g id="a_node1"><a xlink:href="../pyVHDLParser.Blocks.Generic1.html#pyVHDLParser.Blocks.Generic1.BeginBlock" xlink:title="BeginBlock" target="_top">
<polygon fill="white" stroke="#1e90ff" points="181,-361249.91 90,-361249.91 90,-361231.41 181,-361231.41 181,-361249.91"/>
<text text-anchor="middle" x="135.5" y="-361236.41" font-family="Vera Sans, DejaVu Sans, Liberation Sans, Arial, Helvetica, sans" font-size="10.00">BeginBlock</text>
</a>
</g>
</g>
<!-- SequentialBeginBlock -->
<g id="node3" class="node">
<title>SequentialBeginBlock</title>
<g id="a_node3"><a xlink:href="../pyVHDLParser.Blocks.Generic.html#pyVHDLParser.Blocks.Generic.SequentialBeginBlock" xlink:title="SequentialBeginBlock" target="_top">
<polygon fill="white" stroke="#1e90ff" points="383,-361249.91 217,-361249.91 217,-361231.41 383,-361231.41 383,-361249.91"/>
<text text-anchor="middle" x="300" y="-361236.41" font-family="Vera Sans, DejaVu Sans, Liberation Sans, Arial, Helvetica, sans" font-size="10.00">SequentialBeginBlock</text>
</a>
</g>
</g>
<!-- BeginBlock&#45;&gt;SequentialBeginBlock -->
<g id="edge2" class="edge">
<title>BeginBlock&#45;&gt;SequentialBeginBlock</title>
<path fill="none" stroke="black" stroke-width="0.5" d="M181.33,-361240.66C190.52,-361240.66 200.49,-361240.66 210.61,-361240.66"/>
<polygon fill="black" stroke="black" stroke-width="0.5" points="211.58,-361242.41 216.58,-361240.66 211.58,-361238.91 211.58,-361242.41"/>
</g>
<!-- Block -->
<g id="node2" class="node">
<title>Block</title>
<g id="a_node2"><a xlink:href="../pyVHDLParser.Blocks.html#pyVHDLParser.Blocks.Block" xlink:title="Base&#45;class for all :term:`block` classes." target="_top">
<polygon fill="white" stroke="#1e90ff" points="54,-722481.31 0,-722481.31 0,0 54,0 54,-722481.31"/>
<text text-anchor="middle" x="27" y="-722467.81" font-family="Vera Sans, DejaVu Sans, Liberation Sans, Arial, Helvetica, sans" font-size="10.00">Block</text>
</a>
</g>
</g>
<!-- Block&#45;&gt;BeginBlock -->
<g id="edge1" class="edge">
<title>Block&#45;&gt;BeginBlock</title>
<path fill="none" stroke="black" stroke-width="0.5" d="M54.33,-361240.66C63.29,-361240.66 73.62,-361240.66 83.84,-361240.66"/>
<polygon fill="black" stroke="black" stroke-width="0.5" points="84.82,-361242.41 89.82,-361240.66 84.82,-361238.91 84.82,-361242.41"/>
</g>
<!-- ThenBlock -->
<g id="node4" class="node">
<title>ThenBlock</title>
<g id="a_node4"><a xlink:href="../pyVHDLParser/pyVHDLParser.Blocks.ControlStructure.If.html#pyVHDLParser.Blocks.ControlStructure.If.ThenBlock" xlink:title="ThenBlock" target="_top">
<polygon fill="white" stroke="#1e90ff" points="502.5,-361249.91 419,-361249.91 419,-361231.41 502.5,-361231.41 502.5,-361249.91"/>
<text text-anchor="middle" x="460.75" y="-361236.41" font-family="Vera Sans, DejaVu Sans, Liberation Sans, Arial, Helvetica, sans" font-size="10.00">ThenBlock</text>
</a>
</g>
</g>
<!-- SequentialBeginBlock&#45;&gt;ThenBlock -->
<g id="edge3" class="edge">
<title>SequentialBeginBlock&#45;&gt;ThenBlock</title>
<path fill="none" stroke="black" stroke-width="0.5" d="M383.17,-361240.66C393.44,-361240.66 403.65,-361240.66 413.11,-361240.66"/>
<polygon fill="black" stroke="black" stroke-width="0.5" points="413.9,-361242.41 418.9,-361240.66 413.9,-361238.91 413.9,-361242.41"/>
</g>
</g>
</svg>
