<?xml version="1.0" encoding="UTF-8" standalone="no"?>
<!DOCTYPE svg PUBLIC "-//W3C//DTD SVG 1.1//EN"
 "http://www.w3.org/Graphics/SVG/1.1/DTD/svg11.dtd">
<!-- Generated by graphviz version 8.0.5 (20230430.1635)
 -->
<!-- Title: inheritance4e0e4303f5 Pages: 1 -->
<svg width="2pt" height="864pt"
 viewBox="0.00 0.00 2.14 864.00" xmlns="http://www.w3.org/2000/svg" xmlns:xlink="http://www.w3.org/1999/xlink">
<g id="graph0" class="graph" transform="scale(0.00709458 0.00709458) rotate(0) translate(4 121779.07)">
<title>inheritance4e0e4303f5</title>
<!-- Block -->
<g id="node1" class="node">
<title>Block</title>
<g id="a_node1"><a xlink:href="../pyVHDLParser.Blocks.html#pyVHDLParser.Blocks.Block" xlink:title="Base&#45;class for all :term:`block` classes." target="_top">
<polygon fill="white" stroke="#1e90ff" points="54,-121775.07 0,-121775.07 0,0 54,0 54,-121775.07"/>
<text text-anchor="middle" x="27" y="-121761.57" font-family="Vera Sans, DejaVu Sans, Liberation Sans, Arial, Helvetica, sans" font-size="10.00">Block</text>
</a>
</g>
</g>
<!-- FinalBlock -->
<g id="node3" class="node">
<title>FinalBlock</title>
<g id="a_node3"><a xlink:href="../pyVHDLParser.Blocks.html#pyVHDLParser.Blocks.FinalBlock" xlink:title="Base&#45;class for blocks that are final in a fast&#45;forward scanning." target="_top">
<polygon fill="white" stroke="#1e90ff" points="181,-60896.79 90,-60896.79 90,-60878.29 181,-60878.29 181,-60896.79"/>
<text text-anchor="middle" x="135.5" y="-60883.29" font-family="Vera Sans, DejaVu Sans, Liberation Sans, Arial, Helvetica, sans" font-size="10.00">FinalBlock</text>
</a>
</g>
</g>
<!-- Block&#45;&gt;FinalBlock -->
<g id="edge3" class="edge">
<title>Block&#45;&gt;FinalBlock</title>
<path fill="none" stroke="black" stroke-width="0.5" d="M54.33,-60887.54C63.29,-60887.54 73.62,-60887.54 83.84,-60887.54"/>
<polygon fill="black" stroke="black" stroke-width="0.5" points="84.82,-60889.29 89.82,-60887.54 84.82,-60885.79 84.82,-60889.29"/>
</g>
<!-- EndBlock -->
<g id="node2" class="node">
<title>EndBlock</title>
<g id="a_node2"><a xlink:href="../pyVHDLParser.Blocks.Generic1.html#pyVHDLParser.Blocks.Generic1.EndBlock" xlink:title="EndBlock" target="_top">
<polygon fill="white" stroke="#1e90ff" points="293,-60896.79 217,-60896.79 217,-60878.28 293,-60878.28 293,-60896.79"/>
<text text-anchor="middle" x="255" y="-60883.29" font-family="Vera Sans, DejaVu Sans, Liberation Sans, Arial, Helvetica, sans" font-size="10.00">EndBlock</text>
</a>
</g>
</g>
<!-- EndBlock&#45;&gt;EndBlock -->
<g id="edge1" class="edge">
<title>EndBlock&#45;&gt;EndBlock</title>
<path fill="none" stroke="black" stroke-width="0.5" d="M236.58,-60897.03C227.62,-60905.6 233.76,-60914.79 255,-60914.79 272.26,-60914.79 279.55,-60908.72 276.87,-60901.85"/>
<polygon fill="black" stroke="black" stroke-width="0.5" points="277.75,-60900.08 273.42,-60897.03 274.9,-60902.12 277.75,-60900.08"/>
</g>
<!-- FinalBlock&#45;&gt;EndBlock -->
<g id="edge2" class="edge">
<title>FinalBlock&#45;&gt;EndBlock</title>
<path fill="none" stroke="black" stroke-width="0.5" d="M181.26,-60887.54C190.92,-60887.54 201.13,-60887.54 210.74,-60887.54"/>
<polygon fill="black" stroke="black" stroke-width="0.5" points="211.63,-60889.29 216.63,-60887.54 211.63,-60885.79 211.63,-60889.29"/>
</g>
</g>
</svg>
