<?xml version="1.0" encoding="UTF-8" standalone="no"?>
<!DOCTYPE svg PUBLIC "-//W3C//DTD SVG 1.1//EN"
 "http://www.w3.org/Graphics/SVG/1.1/DTD/svg11.dtd">
<!-- Generated by graphviz version 8.0.5 (20230430.1635)
 -->
<!-- Title: inheritance7218e09619 Pages: 1 -->
<svg width="354pt" height="27pt"
 viewBox="0.00 0.00 353.50 26.50" xmlns="http://www.w3.org/2000/svg" xmlns:xlink="http://www.w3.org/1999/xlink">
<g id="graph0" class="graph" transform="scale(1 1) rotate(0) translate(4 22.5)">
<title>inheritance7218e09619</title>
<!-- CharacterToken -->
<g id="node1" class="node">
<title>CharacterToken</title>
<g id="a_node1"><a xlink:href="../pyVHDLParser/pyVHDLParser.Token.html#pyVHDLParser.Token.CharacterToken" xlink:title="Token representing a single character." target="_top">
<polygon fill="white" stroke="#1e90ff" points="345.5,-18.5 224.5,-18.5 224.5,0 345.5,0 345.5,-18.5"/>
<text text-anchor="middle" x="285" y="-5" font-family="Vera Sans, DejaVu Sans, Liberation Sans, Arial, Helvetica, sans" font-size="10.00">CharacterToken</text>
</a>
</g>
</g>
<!-- ValuedToken -->
<g id="node2" class="node">
<title>ValuedToken</title>
<g id="a_node2"><a xlink:href="../pyVHDLParser/pyVHDLParser.Token.html#pyVHDLParser.Token.ValuedToken" xlink:title="Base&#45;class for all *valued* token." target="_top">
<polygon fill="white" stroke="#1e90ff" points="188.5,-18.5 90,-18.5 90,0 188.5,0 188.5,-18.5"/>
<text text-anchor="middle" x="139.25" y="-5" font-family="Vera Sans, DejaVu Sans, Liberation Sans, Arial, Helvetica, sans" font-size="10.00">ValuedToken</text>
</a>
</g>
</g>
<!-- ValuedToken&#45;&gt;CharacterToken -->
<g id="edge1" class="edge">
<title>ValuedToken&#45;&gt;CharacterToken</title>
<path fill="none" stroke="black" stroke-width="0.5" d="M188.92,-9.25C198.38,-9.25 208.45,-9.25 218.35,-9.25"/>
<polygon fill="black" stroke="black" stroke-width="0.5" points="219.16,-11 224.16,-9.25 219.16,-7.5 219.16,-11"/>
</g>
<!-- Token -->
<g id="node3" class="node">
<title>Token</title>
<g id="a_node3"><a xlink:href="../pyVHDLParser/pyVHDLParser.Token.html#pyVHDLParser.Token.Token" xlink:title="Base&#45;class for all token classes." target="_top">
<polygon fill="white" stroke="#1e90ff" points="54,-18.5 0,-18.5 0,0 54,0 54,-18.5"/>
<text text-anchor="middle" x="27" y="-5" font-family="Vera Sans, DejaVu Sans, Liberation Sans, Arial, Helvetica, sans" font-size="10.00">Token</text>
</a>
</g>
</g>
<!-- Token&#45;&gt;ValuedToken -->
<g id="edge2" class="edge">
<title>Token&#45;&gt;ValuedToken</title>
<path fill="none" stroke="black" stroke-width="0.5" d="M54.41,-9.25C63.25,-9.25 73.45,-9.25 83.64,-9.25"/>
<polygon fill="black" stroke="black" stroke-width="0.5" points="84.62,-11 89.62,-9.25 84.62,-7.5 84.62,-11"/>
</g>
</g>
</svg>
