<?xml version="1.0" encoding="UTF-8" standalone="no"?>
<!DOCTYPE svg PUBLIC "-//W3C//DTD SVG 1.1//EN"
 "http://www.w3.org/Graphics/SVG/1.1/DTD/svg11.dtd">
<!-- Generated by graphviz version 8.0.5 (20230430.1635)
 -->
<!-- Title: inheritance960d6feb94 Pages: 1 -->
<svg width="2pt" height="864pt"
 viewBox="0.00 0.00 1.51 864.00" xmlns="http://www.w3.org/2000/svg" xmlns:xlink="http://www.w3.org/1999/xlink">
<g id="graph0" class="graph" transform="scale(0.00409471 0.00409471) rotate(0) translate(4 210999.9)">
<title>inheritance960d6feb94</title>
<!-- Block -->
<g id="node1" class="node">
<title>Block</title>
<g id="a_node1"><a xlink:href="../pyVHDLParser.Blocks.html#pyVHDLParser.Blocks.Block" xlink:title="Base&#45;class for all :term:`block` classes." target="_top">
<polygon fill="white" stroke="#1e90ff" points="54,-210995.9 0,-210995.9 0,0 54,0 54,-210995.9"/>
<text text-anchor="middle" x="27" y="-210982.4" font-family="Vera Sans, DejaVu Sans, Liberation Sans, Arial, Helvetica, sans" font-size="10.00">Block</text>
</a>
</g>
</g>
<!-- SkipableBlock -->
<g id="node3" class="node">
<title>SkipableBlock</title>
<g id="a_node3"><a xlink:href="../pyVHDLParser.Blocks.html#pyVHDLParser.Blocks.SkipableBlock" xlink:title="Base&#45;class for blocks that can be skipped in fast&#45;forward scanning." target="_top">
<polygon fill="white" stroke="#1e90ff" points="203.5,-105507.2 90,-105507.2 90,-105488.7 203.5,-105488.7 203.5,-105507.2"/>
<text text-anchor="middle" x="146.75" y="-105493.7" font-family="Vera Sans, DejaVu Sans, Liberation Sans, Arial, Helvetica, sans" font-size="10.00">SkipableBlock</text>
</a>
</g>
</g>
<!-- Block&#45;&gt;SkipableBlock -->
<g id="edge2" class="edge">
<title>Block&#45;&gt;SkipableBlock</title>
<path fill="none" stroke="black" stroke-width="0.5" d="M54.43,-105497.95C63.24,-105497.95 73.46,-105497.95 83.8,-105497.95"/>
<polygon fill="black" stroke="black" stroke-width="0.5" points="84.56,-105499.7 89.56,-105497.95 84.56,-105496.2 84.56,-105499.7"/>
</g>
<!-- DelimiterBlock -->
<g id="node2" class="node">
<title>DelimiterBlock</title>
<g id="a_node2"><a xlink:href="../pyVHDLParser/pyVHDLParser.Blocks.Reference.Use.html#pyVHDLParser.Blocks.Reference.Use.DelimiterBlock" xlink:title="DelimiterBlock" target="_top">
<polygon fill="white" stroke="#1e90ff" points="360.5,-210988.04 239.5,-210988.04 239.5,-7.86 360.5,-7.86 360.5,-210988.04"/>
<text text-anchor="middle" x="300" y="-210974.54" font-family="Vera Sans, DejaVu Sans, Liberation Sans, Arial, Helvetica, sans" font-size="10.00">DelimiterBlock</text>
</a>
</g>
</g>
<!-- SkipableBlock&#45;&gt;DelimiterBlock -->
<g id="edge1" class="edge">
<title>SkipableBlock&#45;&gt;DelimiterBlock</title>
<path fill="none" stroke="black" stroke-width="0.5" d="M203.64,-105497.95C213.28,-105497.95 223.37,-105497.95 233.24,-105497.95"/>
<polygon fill="black" stroke="black" stroke-width="0.5" points="234.02,-105499.7 239.02,-105497.95 234.02,-105496.2 234.02,-105499.7"/>
</g>
</g>
</svg>
