<?xml version="1.0" encoding="UTF-8" standalone="no"?>
<!DOCTYPE svg PUBLIC "-//W3C//DTD SVG 1.1//EN"
 "http://www.w3.org/Graphics/SVG/1.1/DTD/svg11.dtd">
<!-- Generated by graphviz version 8.0.5 (20230430.1635)
 -->
<!-- Title: inheritancea99fa226e6 Pages: 1 -->
<svg width="1pt" height="864pt"
 viewBox="0.00 0.00 0.66 864.00" xmlns="http://www.w3.org/2000/svg" xmlns:xlink="http://www.w3.org/1999/xlink">
<g id="graph0" class="graph" transform="scale(0.000637086 0.000637086) rotate(0) translate(4 1356171.13)">
<title>inheritancea99fa226e6</title>
<!-- MatchingEqualOperator -->
<g id="node1" class="node">
<title>MatchingEqualOperator</title>
<g id="a_node1"><a xlink:href="../pyVHDLParser/pyVHDLParser.Token.Keywords.html#pyVHDLParser.Token.Keywords.MatchingEqualOperator" xlink:title="MatchingEqualOperator" target="_top">
<polygon fill="white" stroke="#1e90ff" points="1033.5,-678092.81 860,-678092.81 860,-678074.31 1033.5,-678074.31 1033.5,-678092.81"/>
<text text-anchor="middle" x="946.75" y="-678079.31" font-family="Vera Sans, DejaVu Sans, Liberation Sans, Arial, Helvetica, sans" font-size="10.00">MatchingEqualOperator</text>
</a>
</g>
</g>
<!-- RelationalOperator -->
<g id="node2" class="node">
<title>RelationalOperator</title>
<g id="a_node2"><a xlink:href="../pyVHDLParser/pyVHDLParser.Token.Keywords.html#pyVHDLParser.Token.Keywords.RelationalOperator" xlink:title="Base&#45;class for all relational operator tokens." target="_top">
<polygon fill="white" stroke="#1e90ff" points="824,-1356163.19 673,-1356163.19 673,-3.94 824,-3.94 824,-1356163.19"/>
<text text-anchor="middle" x="748.5" y="-1356149.69" font-family="Vera Sans, DejaVu Sans, Liberation Sans, Arial, Helvetica, sans" font-size="10.00">RelationalOperator</text>
</a>
</g>
</g>
<!-- RelationalOperator&#45;&gt;MatchingEqualOperator -->
<g id="edge1" class="edge">
<title>RelationalOperator&#45;&gt;MatchingEqualOperator</title>
<path fill="none" stroke="black" stroke-width="0.5" d="M824.25,-678083.56C833.94,-678083.56 843.95,-678083.56 853.88,-678083.56"/>
<polygon fill="black" stroke="black" stroke-width="0.5" points="854.71,-678085.31 859.71,-678083.56 854.71,-678081.81 854.71,-678085.31"/>
</g>
<!-- OperatorToken -->
<g id="node3" class="node">
<title>OperatorToken</title>
<g id="a_node3"><a xlink:href="../pyVHDLParser/pyVHDLParser.Token.Keywords.html#pyVHDLParser.Token.Keywords.OperatorToken" xlink:title="Base&#45;class for all operator tokens." target="_top">
<polygon fill="white" stroke="#1e90ff" points="637,-1356167.13 523.5,-1356167.13 523.5,0 637,0 637,-1356167.13"/>
<text text-anchor="middle" x="580.25" y="-1356153.63" font-family="Vera Sans, DejaVu Sans, Liberation Sans, Arial, Helvetica, sans" font-size="10.00">OperatorToken</text>
</a>
</g>
</g>
<!-- OperatorToken&#45;&gt;RelationalOperator -->
<g id="edge3" class="edge">
<title>OperatorToken&#45;&gt;RelationalOperator</title>
<path fill="none" stroke="black" stroke-width="0.5" d="M637.07,-678083.56C646.61,-678083.56 656.69,-678083.56 666.73,-678083.56"/>
<polygon fill="black" stroke="black" stroke-width="0.5" points="667.63,-678085.31 672.63,-678083.56 667.63,-678081.81 667.63,-678085.31"/>
</g>
<!-- SpecificVHDLToken -->
<g id="node4" class="node">
<title>SpecificVHDLToken</title>
<g id="a_node4"><a xlink:href="../pyVHDLParser/pyVHDLParser.Token.Keywords.html#pyVHDLParser.Token.Keywords.SpecificVHDLToken" xlink:title="Base&#45;class for all specific tokens." target="_top">
<polygon fill="white" stroke="#1e90ff" points="487.5,-678092.81 344,-678092.81 344,-678074.31 487.5,-678074.31 487.5,-678092.81"/>
<text text-anchor="middle" x="415.75" y="-678079.31" font-family="Vera Sans, DejaVu Sans, Liberation Sans, Arial, Helvetica, sans" font-size="10.00">SpecificVHDLToken</text>
</a>
</g>
</g>
<!-- SpecificVHDLToken&#45;&gt;OperatorToken -->
<g id="edge2" class="edge">
<title>SpecificVHDLToken&#45;&gt;OperatorToken</title>
<path fill="none" stroke="black" stroke-width="0.5" d="M487.55,-678083.56C497.56,-678083.56 507.79,-678083.56 517.6,-678083.56"/>
<polygon fill="black" stroke="black" stroke-width="0.5" points="518.33,-678085.31 523.33,-678083.56 518.33,-678081.81 518.33,-678085.31"/>
</g>
<!-- VHDLToken -->
<g id="node5" class="node">
<title>VHDLToken</title>
<g id="a_node5"><a xlink:href="../pyVHDLParser.Token.html#pyVHDLParser.Token.VHDLToken" xlink:title="Base&#45;class for all VHDL specific tokens." target="_top">
<polygon fill="white" stroke="#1e90ff" points="308,-678092.81 224.5,-678092.81 224.5,-678074.31 308,-678074.31 308,-678092.81"/>
<text text-anchor="middle" x="266.25" y="-678079.31" font-family="Vera Sans, DejaVu Sans, Liberation Sans, Arial, Helvetica, sans" font-size="10.00">VHDLToken</text>
</a>
</g>
</g>
<!-- VHDLToken&#45;&gt;SpecificVHDLToken -->
<g id="edge4" class="edge">
<title>VHDLToken&#45;&gt;SpecificVHDLToken</title>
<path fill="none" stroke="black" stroke-width="0.5" d="M308.34,-678083.56C317.53,-678083.56 327.57,-678083.56 337.69,-678083.56"/>
<polygon fill="black" stroke="black" stroke-width="0.5" points="338.66,-678085.31 343.66,-678083.56 338.66,-678081.81 338.66,-678085.31"/>
</g>
<!-- Token -->
<g id="node6" class="node">
<title>Token</title>
<g id="a_node6"><a xlink:href="../pyVHDLParser.Token.html#pyVHDLParser.Token.Token" xlink:title="Base&#45;class for all token classes." target="_top">
<polygon fill="white" stroke="#1e90ff" points="54,-678092.81 0,-678092.81 0,-678074.31 54,-678074.31 54,-678092.81"/>
<text text-anchor="middle" x="27" y="-678079.31" font-family="Vera Sans, DejaVu Sans, Liberation Sans, Arial, Helvetica, sans" font-size="10.00">Token</text>
</a>
</g>
</g>
<!-- ValuedToken -->
<g id="node7" class="node">
<title>ValuedToken</title>
<g id="a_node7"><a xlink:href="../pyVHDLParser.Token.html#pyVHDLParser.Token.ValuedToken" xlink:title="Base&#45;class for all *valued* token." target="_top">
<polygon fill="white" stroke="#1e90ff" points="188.5,-678104.78 90,-678104.78 90,-678062.35 188.5,-678062.35 188.5,-678104.78"/>
<text text-anchor="middle" x="139.25" y="-678091.28" font-family="Vera Sans, DejaVu Sans, Liberation Sans, Arial, Helvetica, sans" font-size="10.00">ValuedToken</text>
</a>
</g>
</g>
<!-- Token&#45;&gt;ValuedToken -->
<g id="edge6" class="edge">
<title>Token&#45;&gt;ValuedToken</title>
<path fill="none" stroke="black" stroke-width="0.5" d="M54.41,-678083.56C63.25,-678083.56 73.45,-678083.56 83.64,-678083.56"/>
<polygon fill="black" stroke="black" stroke-width="0.5" points="84.62,-678085.31 89.62,-678083.56 84.62,-678081.81 84.62,-678085.31"/>
</g>
<!-- ValuedToken&#45;&gt;VHDLToken -->
<g id="edge5" class="edge">
<title>ValuedToken&#45;&gt;VHDLToken</title>
<path fill="none" stroke="black" stroke-width="0.5" d="M188.94,-678083.56C198.59,-678083.56 208.7,-678083.56 218.29,-678083.56"/>
<polygon fill="black" stroke="black" stroke-width="0.5" points="219.19,-678085.31 224.19,-678083.56 219.19,-678081.81 219.19,-678085.31"/>
</g>
</g>
</svg>
