<?xml version="1.0" encoding="UTF-8" standalone="no"?>
<!DOCTYPE svg PUBLIC "-//W3C//DTD SVG 1.1//EN"
 "http://www.w3.org/Graphics/SVG/1.1/DTD/svg11.dtd">
<!-- Generated by graphviz version 8.0.5 (20230430.1635)
 -->
<!-- Title: inheritance4e0e4303f5 Pages: 1 -->
<svg width="2pt" height="864pt"
 viewBox="0.00 0.00 1.81 864.00" xmlns="http://www.w3.org/2000/svg" xmlns:xlink="http://www.w3.org/1999/xlink">
<g id="graph0" class="graph" transform="scale(0.00600359 0.00600359) rotate(0) translate(4 143909.86)">
<title>inheritance4e0e4303f5</title>
<!-- Block -->
<g id="node1" class="node">
<title>Block</title>
<g id="a_node1"><a xlink:href="../pyVHDLParser.Blocks.html#pyVHDLParser.Blocks.Block" xlink:title="Base&#45;class for all :term:`block` classes." target="_top">
<polygon fill="white" stroke="#1e90ff" points="54,-143905.86 0,-143905.86 0,0 54,0 54,-143905.86"/>
<text text-anchor="middle" x="27" y="-143892.36" font-family="Vera Sans, DejaVu Sans, Liberation Sans, Arial, Helvetica, sans" font-size="10.00">Block</text>
</a>
</g>
</g>
<!-- FinalBlock -->
<g id="node3" class="node">
<title>FinalBlock</title>
<g id="a_node3"><a xlink:href="../pyVHDLParser.Blocks.html#pyVHDLParser.Blocks.FinalBlock" xlink:title="Base&#45;class for blocks that are final in a fast&#45;forward scanning." target="_top">
<polygon fill="white" stroke="#1e90ff" points="181,-71962.18 90,-71962.18 90,-71943.68 181,-71943.68 181,-71962.18"/>
<text text-anchor="middle" x="135.5" y="-71948.68" font-family="Vera Sans, DejaVu Sans, Liberation Sans, Arial, Helvetica, sans" font-size="10.00">FinalBlock</text>
</a>
</g>
</g>
<!-- Block&#45;&gt;FinalBlock -->
<g id="edge2" class="edge">
<title>Block&#45;&gt;FinalBlock</title>
<path fill="none" stroke="black" stroke-width="0.5" d="M54.33,-71952.93C63.29,-71952.93 73.62,-71952.93 83.84,-71952.93"/>
<polygon fill="black" stroke="black" stroke-width="0.5" points="84.82,-71954.68 89.82,-71952.93 84.82,-71951.18 84.82,-71954.68"/>
</g>
<!-- EndBlock -->
<g id="node2" class="node">
<title>EndBlock</title>
<g id="a_node2"><a xlink:href="../pyVHDLParser/pyVHDLParser.Blocks.Instantiation.EntityInstantiation.html#pyVHDLParser.Blocks.Instantiation.EntityInstantiation.EndBlock" xlink:title="EndBlock" target="_top">
<polygon fill="white" stroke="#1e90ff" points="293,-71962.18 217,-71962.18 217,-71943.68 293,-71943.68 293,-71962.18"/>
<text text-anchor="middle" x="255" y="-71948.68" font-family="Vera Sans, DejaVu Sans, Liberation Sans, Arial, Helvetica, sans" font-size="10.00">EndBlock</text>
</a>
</g>
</g>
<!-- FinalBlock&#45;&gt;EndBlock -->
<g id="edge1" class="edge">
<title>FinalBlock&#45;&gt;EndBlock</title>
<path fill="none" stroke="black" stroke-width="0.5" d="M181.26,-71952.93C190.92,-71952.93 201.13,-71952.93 210.74,-71952.93"/>
<polygon fill="black" stroke="black" stroke-width="0.5" points="211.63,-71954.68 216.63,-71952.93 211.63,-71951.18 211.63,-71954.68"/>
</g>
</g>
</svg>
