<?xml version="1.0" encoding="UTF-8" standalone="no"?>
<!DOCTYPE svg PUBLIC "-//W3C//DTD SVG 1.1//EN"
 "http://www.w3.org/Graphics/SVG/1.1/DTD/svg11.dtd">
<!-- Generated by graphviz version 8.0.5 (20230430.1635)
 -->
<!-- Title: inheritance746e886cd7 Pages: 1 -->
<svg width="1pt" height="864pt"
 viewBox="0.00 0.00 1.09 864.00" xmlns="http://www.w3.org/2000/svg" xmlns:xlink="http://www.w3.org/1999/xlink">
<g id="graph0" class="graph" transform="scale(0.00188231 0.00188231) rotate(0) translate(4 459007.41)">
<title>inheritance746e886cd7</title>
<!-- KeywordToken -->
<g id="node1" class="node">
<title>KeywordToken</title>
<g id="a_node1"><a xlink:href="../pyVHDLParser/pyVHDLParser.Token.Keywords.html#pyVHDLParser.Token.Keywords.KeywordToken" xlink:title="KeywordToken" target="_top">
<polygon fill="white" stroke="#1e90ff" points="450,-229510.95 344,-229510.95 344,-229492.45 450,-229492.45 450,-229510.95"/>
<text text-anchor="middle" x="397" y="-229497.45" font-family="Vera Sans, DejaVu Sans, Liberation Sans, Arial, Helvetica, sans" font-size="10.00">KeywordToken</text>
</a>
</g>
</g>
<!-- OnKeyword -->
<g id="node3" class="node">
<title>OnKeyword</title>
<g id="a_node3"><a xlink:href="../pyVHDLParser/pyVHDLParser.Token.Keywords.html#pyVHDLParser.Token.Keywords.OnKeyword" xlink:title="OnKeyword" target="_top">
<polygon fill="white" stroke="#1e90ff" points="569.5,-459003.41 486,-459003.41 486,0 569.5,0 569.5,-459003.41"/>
<text text-anchor="middle" x="527.75" y="-458989.91" font-family="Vera Sans, DejaVu Sans, Liberation Sans, Arial, Helvetica, sans" font-size="10.00">OnKeyword</text>
</a>
</g>
</g>
<!-- KeywordToken&#45;&gt;OnKeyword -->
<g id="edge2" class="edge">
<title>KeywordToken&#45;&gt;OnKeyword</title>
<path fill="none" stroke="black" stroke-width="0.5" d="M450.37,-229501.7C460.17,-229501.7 470.35,-229501.7 479.97,-229501.7"/>
<polygon fill="black" stroke="black" stroke-width="0.5" points="480.88,-229503.45 485.88,-229501.7 480.88,-229499.95 480.88,-229503.45"/>
</g>
<!-- VHDLToken -->
<g id="node2" class="node">
<title>VHDLToken</title>
<g id="a_node2"><a xlink:href="../pyVHDLParser.Token.html#pyVHDLParser.Token.VHDLToken" xlink:title="Base&#45;class for all VHDL specific tokens." target="_top">
<polygon fill="white" stroke="#1e90ff" points="308,-229510.95 224.5,-229510.95 224.5,-229492.45 308,-229492.45 308,-229510.95"/>
<text text-anchor="middle" x="266.25" y="-229497.45" font-family="Vera Sans, DejaVu Sans, Liberation Sans, Arial, Helvetica, sans" font-size="10.00">VHDLToken</text>
</a>
</g>
</g>
<!-- VHDLToken&#45;&gt;KeywordToken -->
<g id="edge1" class="edge">
<title>VHDLToken&#45;&gt;KeywordToken</title>
<path fill="none" stroke="black" stroke-width="0.5" d="M308.34,-229501.7C317.69,-229501.7 327.8,-229501.7 337.71,-229501.7"/>
<polygon fill="black" stroke="black" stroke-width="0.5" points="338.52,-229503.45 343.52,-229501.7 338.52,-229499.95 338.52,-229503.45"/>
</g>
<!-- Token -->
<g id="node4" class="node">
<title>Token</title>
<g id="a_node4"><a xlink:href="../pyVHDLParser.Token.html#pyVHDLParser.Token.Token" xlink:title="Base&#45;class for all token classes." target="_top">
<polygon fill="white" stroke="#1e90ff" points="54,-459003.36 0,-459003.36 0,-0.05 54,-0.05 54,-459003.36"/>
<text text-anchor="middle" x="27" y="-458989.86" font-family="Vera Sans, DejaVu Sans, Liberation Sans, Arial, Helvetica, sans" font-size="10.00">Token</text>
</a>
</g>
</g>
<!-- ValuedToken -->
<g id="node5" class="node">
<title>ValuedToken</title>
<g id="a_node5"><a xlink:href="../pyVHDLParser.Token.html#pyVHDLParser.Token.ValuedToken" xlink:title="Base&#45;class for all *valued* token." target="_top">
<polygon fill="white" stroke="#1e90ff" points="188.5,-229516.45 90,-229516.45 90,-229486.95 188.5,-229486.95 188.5,-229516.45"/>
<text text-anchor="middle" x="139.25" y="-229502.95" font-family="Vera Sans, DejaVu Sans, Liberation Sans, Arial, Helvetica, sans" font-size="10.00">ValuedToken</text>
</a>
</g>
</g>
<!-- Token&#45;&gt;ValuedToken -->
<g id="edge4" class="edge">
<title>Token&#45;&gt;ValuedToken</title>
<path fill="none" stroke="black" stroke-width="0.5" d="M54.41,-229501.7C63.25,-229501.7 73.45,-229501.7 83.64,-229501.7"/>
<polygon fill="black" stroke="black" stroke-width="0.5" points="84.62,-229503.45 89.62,-229501.7 84.62,-229499.95 84.62,-229503.45"/>
</g>
<!-- ValuedToken&#45;&gt;VHDLToken -->
<g id="edge3" class="edge">
<title>ValuedToken&#45;&gt;VHDLToken</title>
<path fill="none" stroke="black" stroke-width="0.5" d="M188.94,-229501.7C198.59,-229501.7 208.7,-229501.7 218.29,-229501.7"/>
<polygon fill="black" stroke="black" stroke-width="0.5" points="219.19,-229503.45 224.19,-229501.7 219.19,-229499.95 219.19,-229503.45"/>
</g>
</g>
</svg>
