<?xml version="1.0" encoding="UTF-8" standalone="no"?>
<!DOCTYPE svg PUBLIC "-//W3C//DTD SVG 1.1//EN"
 "http://www.w3.org/Graphics/SVG/1.1/DTD/svg11.dtd">
<!-- Generated by graphviz version 8.0.5 (20230430.1635)
 -->
<!-- Title: inheritanceb4a5d6e370 Pages: 1 -->
<svg width="576pt" height="156pt"
 viewBox="0.00 0.00 576.00 156.19" xmlns="http://www.w3.org/2000/svg" xmlns:xlink="http://www.w3.org/1999/xlink">
<g id="graph0" class="graph" transform="scale(0.879962 0.879962) rotate(0) translate(4 173.5)">
<title>inheritanceb4a5d6e370</title>
<!-- ConcurrentDeclarations -->
<g id="node1" class="node">
<title>ConcurrentDeclarations</title>
<polygon fill="white" stroke="#1e90ff" points="532.5,-169.5 351.5,-169.5 351.5,-151 532.5,-151 532.5,-169.5"/>
<text text-anchor="middle" x="442" y="-156" font-family="Vera Sans, DejaVu Sans, Liberation Sans, Arial, Helvetica, sans" font-size="10.00">ConcurrentDeclarations</text>
</g>
<!-- Entity -->
<g id="node8" class="node">
<title>Entity</title>
<g id="a_node8"><a xlink:href="../pyVHDLParser/pyVHDLParser.DocumentModel.DesignUnit.Entity.html#pyVHDLParser.DocumentModel.DesignUnit.Entity.Entity" xlink:title="Entity" target="_top">
<polygon fill="white" stroke="#1e90ff" points="644.5,-113.5 583.5,-113.5 583.5,-95 644.5,-95 644.5,-113.5"/>
<text text-anchor="middle" x="614" y="-100" font-family="Vera Sans, DejaVu Sans, Liberation Sans, Arial, Helvetica, sans" font-size="10.00">Entity</text>
</a>
</g>
</g>
<!-- ConcurrentDeclarations&#45;&gt;Entity -->
<g id="edge6" class="edge">
<title>ConcurrentDeclarations&#45;&gt;Entity</title>
<path fill="none" stroke="black" stroke-width="0.5" d="M514.67,-150.51C525.83,-148.06 537.1,-145.01 547.5,-141.25 564.2,-135.21 581.63,-125.15 594.31,-117.04"/>
<polygon fill="black" stroke="black" stroke-width="0.5" points="595.86,-118.13 599.1,-113.93 593.95,-115.19 595.86,-118.13"/>
</g>
<!-- ConcurrentStatements -->
<g id="node2" class="node">
<title>ConcurrentStatements</title>
<polygon fill="white" stroke="#1e90ff" points="525,-132.5 359,-132.5 359,-114 525,-114 525,-132.5"/>
<text text-anchor="middle" x="442" y="-119" font-family="Vera Sans, DejaVu Sans, Liberation Sans, Arial, Helvetica, sans" font-size="10.00">ConcurrentStatements</text>
</g>
<!-- ConcurrentStatements&#45;&gt;Entity -->
<g id="edge7" class="edge">
<title>ConcurrentStatements&#45;&gt;Entity</title>
<path fill="none" stroke="black" stroke-width="0.5" d="M525.01,-114.08C543.45,-112.02 562.08,-109.94 577.42,-108.23"/>
<polygon fill="black" stroke="black" stroke-width="0.5" points="578.57,-109.86 583.34,-107.56 578.18,-106.38 578.57,-109.86"/>
</g>
<!-- DesignUnit -->
<g id="node3" class="node">
<title>DesignUnit</title>
<g id="a_node3"><a xlink:title="A ``DesignUnit`` is a base&#45;class for all design units.">
<polygon fill="white" stroke="#1e90ff" points="300.5,-58.5 209.5,-58.5 209.5,-40 300.5,-40 300.5,-58.5"/>
<text text-anchor="middle" x="255" y="-45" font-family="Vera Sans, DejaVu Sans, Liberation Sans, Arial, Helvetica, sans" font-size="10.00">DesignUnit</text>
</a>
</g>
</g>
<!-- PrimaryUnit -->
<g id="node9" class="node">
<title>PrimaryUnit</title>
<g id="a_node9"><a xlink:title="A ``PrimaryUnit`` is a base&#45;class for all primary units.">
<polygon fill="white" stroke="#1e90ff" points="491.25,-58.5 392.75,-58.5 392.75,-40 491.25,-40 491.25,-58.5"/>
<text text-anchor="middle" x="442" y="-45" font-family="Vera Sans, DejaVu Sans, Liberation Sans, Arial, Helvetica, sans" font-size="10.00">PrimaryUnit</text>
</a>
</g>
</g>
<!-- DesignUnit&#45;&gt;PrimaryUnit -->
<g id="edge9" class="edge">
<title>DesignUnit&#45;&gt;PrimaryUnit</title>
<path fill="none" stroke="black" stroke-width="0.5" d="M300.78,-49.25C326.64,-49.25 359.35,-49.25 386.67,-49.25"/>
<polygon fill="black" stroke="black" stroke-width="0.5" points="387.41,-51 392.41,-49.25 387.41,-47.5 387.41,-51"/>
</g>
<!-- ModelEntity -->
<g id="node4" class="node">
<title>ModelEntity</title>
<g id="a_node4"><a xlink:title="``ModelEntity`` is the base&#45;class for all classes in the VHDL language model, except for mixin classes (see multiple">
<polygon fill="white" stroke="#1e90ff" points="136,-122.48 37.5,-122.48 37.5,-80.02 136,-80.02 136,-122.48"/>
<text text-anchor="middle" x="86.75" y="-108.98" font-family="Vera Sans, DejaVu Sans, Liberation Sans, Arial, Helvetica, sans" font-size="10.00">ModelEntity</text>
</a>
</g>
</g>
<!-- ModelEntity&#45;&gt;DesignUnit -->
<g id="edge1" class="edge">
<title>ModelEntity&#45;&gt;DesignUnit</title>
<path fill="none" stroke="black" stroke-width="0.5" d="M136.28,-86.07C162.19,-77.97 193.56,-68.16 217.4,-60.7"/>
<polygon fill="black" stroke="black" stroke-width="0.5" points="218.73,-62.12 222.98,-58.95 217.68,-58.78 218.73,-62.12"/>
</g>
<!-- NamedEntityMixin -->
<g id="node5" class="node">
<title>NamedEntityMixin</title>
<g id="a_node5"><a xlink:title="A ``NamedEntityMixin`` is a mixin class for all VHDL entities that have identifiers.">
<polygon fill="white" stroke="#1e90ff" points="154.75,-62.25 18.75,-62.25 18.75,-36.25 154.75,-36.25 154.75,-62.25"/>
<text text-anchor="middle" x="86.75" y="-48.75" font-family="Vera Sans, DejaVu Sans, Liberation Sans, Arial, Helvetica, sans" font-size="10.00">NamedEntityMixin</text>
</a>
</g>
</g>
<!-- NamedEntityMixin&#45;&gt;DesignUnit -->
<g id="edge2" class="edge">
<title>NamedEntityMixin&#45;&gt;DesignUnit</title>
<path fill="none" stroke="black" stroke-width="0.5" d="M154.89,-49.25C170.96,-49.25 187.86,-49.25 203.06,-49.25"/>
<polygon fill="black" stroke="black" stroke-width="0.5" points="204.02,-51 209.02,-49.25 204.02,-47.5 204.02,-51"/>
</g>
<!-- DocumentedEntityMixin -->
<g id="node6" class="node">
<title>DocumentedEntityMixin</title>
<g id="a_node6"><a xlink:title="A ``DocumentedEntityMixin`` is a mixin class for all VHDL entities that can have an associated documentation.">
<polygon fill="white" stroke="#1e90ff" points="173.5,-18.5 0,-18.5 0,0 173.5,0 173.5,-18.5"/>
<text text-anchor="middle" x="86.75" y="-5" font-family="Vera Sans, DejaVu Sans, Liberation Sans, Arial, Helvetica, sans" font-size="10.00">DocumentedEntityMixin</text>
</a>
</g>
</g>
<!-- DocumentedEntityMixin&#45;&gt;DesignUnit -->
<g id="edge3" class="edge">
<title>DocumentedEntityMixin&#45;&gt;DesignUnit</title>
<path fill="none" stroke="black" stroke-width="0.5" d="M136.39,-18.93C148.54,-21.5 161.52,-24.36 173.5,-27.25 187.06,-30.52 201.8,-34.44 214.92,-38.06"/>
<polygon fill="black" stroke="black" stroke-width="0.5" points="215.15,-39.94 220.43,-39.59 216.08,-36.57 215.15,-39.94"/>
</g>
<!-- DesignUnitWithContextMixin -->
<g id="node7" class="node">
<title>DesignUnitWithContextMixin</title>
<polygon fill="white" stroke="#1e90ff" points="547.5,-95.5 336.5,-95.5 336.5,-77 547.5,-77 547.5,-95.5"/>
<text text-anchor="middle" x="442" y="-82" font-family="Vera Sans, DejaVu Sans, Liberation Sans, Arial, Helvetica, sans" font-size="10.00">DesignUnitWithContextMixin</text>
</g>
<!-- DesignUnitWithContextMixin&#45;&gt;Entity -->
<g id="edge5" class="edge">
<title>DesignUnitWithContextMixin&#45;&gt;Entity</title>
<path fill="none" stroke="black" stroke-width="0.5" d="M534.97,-95.99C550.16,-97.6 565.06,-99.17 577.7,-100.51"/>
<polygon fill="black" stroke="black" stroke-width="0.5" points="578.18,-102.32 583.34,-101.11 578.55,-98.84 578.18,-102.32"/>
</g>
<!-- Entity&#45;&gt;Entity -->
<g id="edge8" class="edge">
<title>Entity&#45;&gt;Entity</title>
<path fill="none" stroke="black" stroke-width="0.5" d="M587.49,-113.75C574.59,-122.32 583.43,-131.5 614,-131.5 640.27,-131.5 650.49,-124.72 644.66,-117.37"/>
<polygon fill="black" stroke="black" stroke-width="0.5" points="645.43,-115.72 640.51,-113.75 643.13,-118.35 645.43,-115.72"/>
</g>
<!-- PrimaryUnit&#45;&gt;Entity -->
<g id="edge4" class="edge">
<title>PrimaryUnit&#45;&gt;Entity</title>
<path fill="none" stroke="black" stroke-width="0.5" d="M491.71,-54.77C509.59,-57.66 529.78,-61.96 547.5,-68.25 563.91,-74.08 581.11,-83.69 593.77,-91.51"/>
<polygon fill="black" stroke="black" stroke-width="0.5" points="593.39,-93.34 598.56,-94.52 595.25,-90.38 593.39,-93.34"/>
</g>
</g>
</svg>
