<?xml version="1.0" encoding="UTF-8" standalone="no"?>
<!DOCTYPE svg PUBLIC "-//W3C//DTD SVG 1.1//EN"
 "http://www.w3.org/Graphics/SVG/1.1/DTD/svg11.dtd">
<!-- Generated by graphviz version 8.0.5 (20230430.1635)
 -->
<!-- Title: inheritance960d6feb94 Pages: 1 -->
<svg width="0pt" height="864pt"
 viewBox="0.00 0.00 0.21 864.00" xmlns="http://www.w3.org/2000/svg" xmlns:xlink="http://www.w3.org/1999/xlink">
<g id="graph0" class="graph" transform="scale(0.00057067 0.00057067) rotate(0) translate(4 1514005.3)">
<title>inheritance960d6feb94</title>
<!-- Block -->
<g id="node1" class="node">
<title>Block</title>
<g id="a_node1"><a xlink:href="../pyVHDLParser.Blocks.html#pyVHDLParser.Blocks.Block" xlink:title="Base&#45;class for all :term:`block` classes." target="_top">
<polygon fill="white" stroke="#1e90ff" points="54,-1513994.91 0,-1513994.91 0,-6.39 54,-6.39 54,-1513994.91"/>
<text text-anchor="middle" x="27" y="-1513981.41" font-family="Vera Sans, DejaVu Sans, Liberation Sans, Arial, Helvetica, sans" font-size="10.00">Block</text>
</a>
</g>
</g>
<!-- SkipableBlock -->
<g id="node3" class="node">
<title>SkipableBlock</title>
<g id="a_node3"><a xlink:href="../pyVHDLParser.Blocks.html#pyVHDLParser.Blocks.SkipableBlock" xlink:title="Base&#45;class for blocks that can be skipped in fast&#45;forward scanning." target="_top">
<polygon fill="white" stroke="#1e90ff" points="203.5,-757009.9 90,-757009.9 90,-756991.4 203.5,-756991.4 203.5,-757009.9"/>
<text text-anchor="middle" x="146.75" y="-756996.4" font-family="Vera Sans, DejaVu Sans, Liberation Sans, Arial, Helvetica, sans" font-size="10.00">SkipableBlock</text>
</a>
</g>
</g>
<!-- Block&#45;&gt;SkipableBlock -->
<g id="edge2" class="edge">
<title>Block&#45;&gt;SkipableBlock</title>
<path fill="none" stroke="black" stroke-width="0.5" d="M54.43,-757000.65C63.24,-757000.65 73.46,-757000.65 83.8,-757000.65"/>
<polygon fill="black" stroke="black" stroke-width="0.5" points="84.56,-757002.4 89.56,-757000.65 84.56,-756998.9 84.56,-757002.4"/>
</g>
<!-- DelimiterBlock -->
<g id="node2" class="node">
<title>DelimiterBlock</title>
<g id="a_node2"><a xlink:href="../pyVHDLParser/pyVHDLParser.Blocks.List.PortList.html#pyVHDLParser.Blocks.List.PortList.DelimiterBlock" xlink:title="DelimiterBlock" target="_top">
<polygon fill="white" stroke="#1e90ff" points="360.5,-1514001.3 239.5,-1514001.3 239.5,0 360.5,0 360.5,-1514001.3"/>
<text text-anchor="middle" x="300" y="-1513987.8" font-family="Vera Sans, DejaVu Sans, Liberation Sans, Arial, Helvetica, sans" font-size="10.00">DelimiterBlock</text>
</a>
</g>
</g>
<!-- SkipableBlock&#45;&gt;DelimiterBlock -->
<g id="edge1" class="edge">
<title>SkipableBlock&#45;&gt;DelimiterBlock</title>
<path fill="none" stroke="black" stroke-width="0.5" d="M203.64,-757000.65C213.28,-757000.65 223.37,-757000.65 233.24,-757000.65"/>
<polygon fill="black" stroke="black" stroke-width="0.5" points="234.02,-757002.4 239.02,-757000.65 234.02,-756998.9 234.02,-757002.4"/>
</g>
</g>
</svg>
