<?xml version="1.0" encoding="UTF-8" standalone="no"?>
<!DOCTYPE svg PUBLIC "-//W3C//DTD SVG 1.1//EN"
 "http://www.w3.org/Graphics/SVG/1.1/DTD/svg11.dtd">
<!-- Generated by graphviz version 8.0.5 (20230430.1635)
 -->
<!-- Title: inheritanceaa54a5ee75 Pages: 1 -->
<svg width="6pt" height="864pt"
 viewBox="0.00 0.00 6.08 864.00" xmlns="http://www.w3.org/2000/svg" xmlns:xlink="http://www.w3.org/1999/xlink">
<g id="graph0" class="graph" transform="scale(0.00737188 0.00737188) rotate(0) translate(4 117198.11)">
<title>inheritanceaa54a5ee75</title>
<!-- BracketToken -->
<g id="node1" class="node">
<title>BracketToken</title>
<g id="a_node1"><a xlink:href="../pyVHDLParser/pyVHDLParser.Token.Keywords.html#pyVHDLParser.Token.Keywords.BracketToken" xlink:title="Base&#45;class for all bracket tokens: ``(``, ``)``, ``[``, ``]``, ``{``, ``}``, ``&lt;`` and ``&gt;``." target="_top">
<polygon fill="white" stroke="#1e90ff" points="629.5,-58606.3 523.5,-58606.3 523.5,-58587.8 629.5,-58587.8 629.5,-58606.3"/>
<text text-anchor="middle" x="576.5" y="-58592.8" font-family="Vera Sans, DejaVu Sans, Liberation Sans, Arial, Helvetica, sans" font-size="10.00">BracketToken</text>
</a>
</g>
</g>
<!-- SquareBracketToken -->
<g id="node4" class="node">
<title>SquareBracketToken</title>
<g id="a_node4"><a xlink:href="../pyVHDLParser/pyVHDLParser.Token.Keywords.html#pyVHDLParser.Token.Keywords.SquareBracketToken" xlink:title="Base&#45;class for all square bracket tokens: ``[`` and ``]``." target="_top">
<polygon fill="white" stroke="#1e90ff" points="816.5,-58606.34 665.5,-58606.34 665.5,-58587.77 816.5,-58587.77 816.5,-58606.34"/>
<text text-anchor="middle" x="741" y="-58592.84" font-family="Vera Sans, DejaVu Sans, Liberation Sans, Arial, Helvetica, sans" font-size="10.00">SquareBracketToken</text>
</a>
</g>
</g>
<!-- BracketToken&#45;&gt;SquareBracketToken -->
<g id="edge3" class="edge">
<title>BracketToken&#45;&gt;SquareBracketToken</title>
<path fill="none" stroke="black" stroke-width="0.5" d="M629.81,-58597.05C639.2,-58597.05 649.17,-58597.05 659.14,-58597.05"/>
<polygon fill="black" stroke="black" stroke-width="0.5" points="660.01,-58598.8 665.01,-58597.05 660.01,-58595.3 660.01,-58598.8"/>
</g>
<!-- SpecificVHDLToken -->
<g id="node2" class="node">
<title>SpecificVHDLToken</title>
<g id="a_node2"><a xlink:href="../pyVHDLParser/pyVHDLParser.Token.Keywords.html#pyVHDLParser.Token.Keywords.SpecificVHDLToken" xlink:title="Base&#45;class for all specific tokens." target="_top">
<polygon fill="white" stroke="#1e90ff" points="487.5,-58606.3 344,-58606.3 344,-58587.8 487.5,-58587.8 487.5,-58606.3"/>
<text text-anchor="middle" x="415.75" y="-58592.8" font-family="Vera Sans, DejaVu Sans, Liberation Sans, Arial, Helvetica, sans" font-size="10.00">SpecificVHDLToken</text>
</a>
</g>
</g>
<!-- SpecificVHDLToken&#45;&gt;BracketToken -->
<g id="edge1" class="edge">
<title>SpecificVHDLToken&#45;&gt;BracketToken</title>
<path fill="none" stroke="black" stroke-width="0.5" d="M487.77,-58597.05C497.61,-58597.05 507.63,-58597.05 517.21,-58597.05"/>
<polygon fill="black" stroke="black" stroke-width="0.5" points="518.11,-58598.8 523.11,-58597.05 518.11,-58595.3 518.11,-58598.8"/>
</g>
<!-- VHDLToken -->
<g id="node3" class="node">
<title>VHDLToken</title>
<g id="a_node3"><a xlink:href="../pyVHDLParser.Token.html#pyVHDLParser.Token.VHDLToken" xlink:title="Base&#45;class for all VHDL specific tokens." target="_top">
<polygon fill="white" stroke="#1e90ff" points="308,-117194.11 224.5,-117194.11 224.5,0 308,0 308,-117194.11"/>
<text text-anchor="middle" x="266.25" y="-117180.61" font-family="Vera Sans, DejaVu Sans, Liberation Sans, Arial, Helvetica, sans" font-size="10.00">VHDLToken</text>
</a>
</g>
</g>
<!-- VHDLToken&#45;&gt;SpecificVHDLToken -->
<g id="edge2" class="edge">
<title>VHDLToken&#45;&gt;SpecificVHDLToken</title>
<path fill="none" stroke="black" stroke-width="0.5" d="M308.34,-58597.05C317.53,-58597.05 327.57,-58597.05 337.69,-58597.05"/>
<polygon fill="black" stroke="black" stroke-width="0.5" points="338.66,-58598.8 343.66,-58597.05 338.66,-58595.3 338.66,-58598.8"/>
</g>
<!-- Token -->
<g id="node5" class="node">
<title>Token</title>
<g id="a_node5"><a xlink:href="../pyVHDLParser.Token.html#pyVHDLParser.Token.Token" xlink:title="Base&#45;class for all token classes." target="_top">
<polygon fill="white" stroke="#1e90ff" points="54,-58610.05 0,-58610.05 0,-58584.05 54,-58584.05 54,-58610.05"/>
<text text-anchor="middle" x="27" y="-58596.55" font-family="Vera Sans, DejaVu Sans, Liberation Sans, Arial, Helvetica, sans" font-size="10.00">Token</text>
</a>
</g>
</g>
<!-- ValuedToken -->
<g id="node6" class="node">
<title>ValuedToken</title>
<g id="a_node6"><a xlink:href="../pyVHDLParser.Token.html#pyVHDLParser.Token.ValuedToken" xlink:title="Base&#45;class for all *valued* token." target="_top">
<polygon fill="white" stroke="#1e90ff" points="188.5,-58606.3 90,-58606.3 90,-58587.8 188.5,-58587.8 188.5,-58606.3"/>
<text text-anchor="middle" x="139.25" y="-58592.8" font-family="Vera Sans, DejaVu Sans, Liberation Sans, Arial, Helvetica, sans" font-size="10.00">ValuedToken</text>
</a>
</g>
</g>
<!-- Token&#45;&gt;ValuedToken -->
<g id="edge5" class="edge">
<title>Token&#45;&gt;ValuedToken</title>
<path fill="none" stroke="black" stroke-width="0.5" d="M54.41,-58597.05C63.25,-58597.05 73.45,-58597.05 83.64,-58597.05"/>
<polygon fill="black" stroke="black" stroke-width="0.5" points="84.62,-58598.8 89.62,-58597.05 84.62,-58595.3 84.62,-58598.8"/>
</g>
<!-- ValuedToken&#45;&gt;VHDLToken -->
<g id="edge4" class="edge">
<title>ValuedToken&#45;&gt;VHDLToken</title>
<path fill="none" stroke="black" stroke-width="0.5" d="M188.94,-58597.05C198.59,-58597.05 208.7,-58597.05 218.29,-58597.05"/>
<polygon fill="black" stroke="black" stroke-width="0.5" points="219.19,-58598.8 224.19,-58597.05 219.19,-58595.3 219.19,-58598.8"/>
</g>
</g>
</svg>
