<?xml version="1.0" encoding="UTF-8" standalone="no"?>
<!DOCTYPE svg PUBLIC "-//W3C//DTD SVG 1.1//EN"
 "http://www.w3.org/Graphics/SVG/1.1/DTD/svg11.dtd">
<!-- Generated by graphviz version 8.0.5 (20230430.1635)
 -->
<!-- Title: inheritance4b443d2b84 Pages: 1 -->
<svg width="1pt" height="864pt"
 viewBox="0.00 0.00 0.56 864.00" xmlns="http://www.w3.org/2000/svg" xmlns:xlink="http://www.w3.org/1999/xlink">
<g id="graph0" class="graph" transform="scale(0.000635574 0.000635574) rotate(0) translate(4 1359397.39)">
<title>inheritance4b443d2b84</title>
<!-- CommentKeyword -->
<g id="node1" class="node">
<title>CommentKeyword</title>
<g id="a_node1"><a xlink:href="../pyVHDLParser/pyVHDLParser.Token.Keywords.html#pyVHDLParser.Token.Keywords.CommentKeyword" xlink:title="Base&#45;class for all comment keywords: ``&#45;&#45;``, ``/*`` and ``*/``." target="_top">
<polygon fill="white" stroke="#1e90ff" points="637,-679705.95 516,-679705.95 516,-679687.45 637,-679687.45 637,-679705.95"/>
<text text-anchor="middle" x="576.5" y="-679692.45" font-family="Vera Sans, DejaVu Sans, Liberation Sans, Arial, Helvetica, sans" font-size="10.00">CommentKeyword</text>
</a>
</g>
</g>
<!-- SingleLineCommentKeyword -->
<g id="node4" class="node">
<title>SingleLineCommentKeyword</title>
<g id="a_node4"><a xlink:href="../pyVHDLParser/pyVHDLParser.Token.Keywords.html#pyVHDLParser.Token.Keywords.SingleLineCommentKeyword" xlink:title="Token representing a starting sequence for a single&#45;line comment: ``&#45;&#45;``." target="_top">
<polygon fill="white" stroke="#1e90ff" points="869,-679705.99 673,-679705.99 673,-679687.4 869,-679687.4 869,-679705.99"/>
<text text-anchor="middle" x="771" y="-679692.49" font-family="Vera Sans, DejaVu Sans, Liberation Sans, Arial, Helvetica, sans" font-size="10.00">SingleLineCommentKeyword</text>
</a>
</g>
</g>
<!-- CommentKeyword&#45;&gt;SingleLineCommentKeyword -->
<g id="edge3" class="edge">
<title>CommentKeyword&#45;&gt;SingleLineCommentKeyword</title>
<path fill="none" stroke="black" stroke-width="0.5" d="M637.35,-679696.7C646.76,-679696.7 656.72,-679696.7 666.78,-679696.7"/>
<polygon fill="black" stroke="black" stroke-width="0.5" points="667.71,-679698.45 672.71,-679696.7 667.71,-679694.95 667.71,-679698.45"/>
</g>
<!-- MultiCharKeyword -->
<g id="node2" class="node">
<title>MultiCharKeyword</title>
<g id="a_node2"><a xlink:href="../pyVHDLParser/pyVHDLParser.Token.Keywords.html#pyVHDLParser.Token.Keywords.MultiCharKeyword" xlink:title="MultiCharKeyword" target="_top">
<polygon fill="white" stroke="#1e90ff" points="480,-679705.95 344,-679705.95 344,-679687.45 480,-679687.45 480,-679705.95"/>
<text text-anchor="middle" x="412" y="-679692.45" font-family="Vera Sans, DejaVu Sans, Liberation Sans, Arial, Helvetica, sans" font-size="10.00">MultiCharKeyword</text>
</a>
</g>
</g>
<!-- MultiCharKeyword&#45;&gt;CommentKeyword -->
<g id="edge1" class="edge">
<title>MultiCharKeyword&#45;&gt;CommentKeyword</title>
<path fill="none" stroke="black" stroke-width="0.5" d="M480.03,-679696.7C489.9,-679696.7 500.05,-679696.7 509.89,-679696.7"/>
<polygon fill="black" stroke="black" stroke-width="0.5" points="510.64,-679698.45 515.64,-679696.7 510.64,-679694.95 510.64,-679698.45"/>
</g>
<!-- VHDLToken -->
<g id="node3" class="node">
<title>VHDLToken</title>
<g id="a_node3"><a xlink:href="../pyVHDLParser.Token.html#pyVHDLParser.Token.VHDLToken" xlink:title="Base&#45;class for all VHDL specific tokens." target="_top">
<polygon fill="white" stroke="#1e90ff" points="308,-1359393.39 224.5,-1359393.39 224.5,0 308,0 308,-1359393.39"/>
<text text-anchor="middle" x="266.25" y="-1359379.89" font-family="Vera Sans, DejaVu Sans, Liberation Sans, Arial, Helvetica, sans" font-size="10.00">VHDLToken</text>
</a>
</g>
</g>
<!-- VHDLToken&#45;&gt;MultiCharKeyword -->
<g id="edge2" class="edge">
<title>VHDLToken&#45;&gt;MultiCharKeyword</title>
<path fill="none" stroke="black" stroke-width="0.5" d="M308.44,-679696.7C317.67,-679696.7 327.72,-679696.7 337.81,-679696.7"/>
<polygon fill="black" stroke="black" stroke-width="0.5" points="338.75,-679698.45 343.75,-679696.7 338.75,-679694.95 338.75,-679698.45"/>
</g>
<!-- Token -->
<g id="node5" class="node">
<title>Token</title>
<g id="a_node5"><a xlink:href="../pyVHDLParser.Token.html#pyVHDLParser.Token.Token" xlink:title="Base&#45;class for all token classes." target="_top">
<polygon fill="white" stroke="#1e90ff" points="54,-679709.7 0,-679709.7 0,-679683.7 54,-679683.7 54,-679709.7"/>
<text text-anchor="middle" x="27" y="-679696.2" font-family="Vera Sans, DejaVu Sans, Liberation Sans, Arial, Helvetica, sans" font-size="10.00">Token</text>
</a>
</g>
</g>
<!-- ValuedToken -->
<g id="node6" class="node">
<title>ValuedToken</title>
<g id="a_node6"><a xlink:href="../pyVHDLParser.Token.html#pyVHDLParser.Token.ValuedToken" xlink:title="Base&#45;class for all *valued* token." target="_top">
<polygon fill="white" stroke="#1e90ff" points="188.5,-679705.95 90,-679705.95 90,-679687.45 188.5,-679687.45 188.5,-679705.95"/>
<text text-anchor="middle" x="139.25" y="-679692.45" font-family="Vera Sans, DejaVu Sans, Liberation Sans, Arial, Helvetica, sans" font-size="10.00">ValuedToken</text>
</a>
</g>
</g>
<!-- Token&#45;&gt;ValuedToken -->
<g id="edge5" class="edge">
<title>Token&#45;&gt;ValuedToken</title>
<path fill="none" stroke="black" stroke-width="0.5" d="M54.41,-679696.7C63.25,-679696.7 73.45,-679696.7 83.64,-679696.7"/>
<polygon fill="black" stroke="black" stroke-width="0.5" points="84.62,-679698.45 89.62,-679696.7 84.62,-679694.95 84.62,-679698.45"/>
</g>
<!-- ValuedToken&#45;&gt;VHDLToken -->
<g id="edge4" class="edge">
<title>ValuedToken&#45;&gt;VHDLToken</title>
<path fill="none" stroke="black" stroke-width="0.5" d="M188.94,-679696.7C198.59,-679696.7 208.7,-679696.7 218.29,-679696.7"/>
<polygon fill="black" stroke="black" stroke-width="0.5" points="219.19,-679698.45 224.19,-679696.7 219.19,-679694.95 219.19,-679698.45"/>
</g>
</g>
</svg>
