<?xml version="1.0" encoding="UTF-8" standalone="no"?>
<!DOCTYPE svg PUBLIC "-//W3C//DTD SVG 1.1//EN"
 "http://www.w3.org/Graphics/SVG/1.1/DTD/svg11.dtd">
<!-- Generated by graphviz version 8.0.5 (20230430.1635)
 -->
<!-- Title: inheritance0c9c0c4830 Pages: 1 -->
<svg width="1pt" height="864pt"
 viewBox="0.00 0.00 0.75 864.00" xmlns="http://www.w3.org/2000/svg" xmlns:xlink="http://www.w3.org/1999/xlink">
<g id="graph0" class="graph" transform="scale(0.000863436 0.000863436) rotate(0) translate(4 1000649.5)">
<title>inheritance0c9c0c4830</title>
<!-- AndOperator -->
<g id="node1" class="node">
<title>AndOperator</title>
<g id="a_node1"><a xlink:href="../pyVHDLParser/pyVHDLParser.Token.Keywords.html#pyVHDLParser.Token.Keywords.AndOperator" xlink:title="Reserved word &#39;and&#39; for binary logical operator *and*." target="_top">
<polygon fill="white" stroke="#1e90ff" points="861,-1000645.5 762.5,-1000645.5 762.5,0 861,0 861,-1000645.5"/>
<text text-anchor="middle" x="811.75" y="-1000632" font-family="Vera Sans, DejaVu Sans, Liberation Sans, Arial, Helvetica, sans" font-size="10.00">AndOperator</text>
</a>
</g>
</g>
<!-- LogicalOperator -->
<g id="node2" class="node">
<title>LogicalOperator</title>
<g id="a_node2"><a xlink:href="../pyVHDLParser/pyVHDLParser.Token.Keywords.html#pyVHDLParser.Token.Keywords.LogicalOperator" xlink:title="LogicalOperator" target="_top">
<polygon fill="white" stroke="#1e90ff" points="726.5,-816827.81 598,-816827.81 598,-183817.69 726.5,-183817.69 726.5,-816827.81"/>
<text text-anchor="middle" x="662.25" y="-816814.31" font-family="Vera Sans, DejaVu Sans, Liberation Sans, Arial, Helvetica, sans" font-size="10.00">LogicalOperator</text>
</a>
</g>
</g>
<!-- LogicalOperator&#45;&gt;AndOperator -->
<g id="edge1" class="edge">
<title>LogicalOperator&#45;&gt;AndOperator</title>
<path fill="none" stroke="black" stroke-width="0.5" d="M726.66,-500322.75C736.49,-500322.75 746.57,-500322.75 756.18,-500322.75"/>
<polygon fill="black" stroke="black" stroke-width="0.5" points="757.1,-500324.5 762.1,-500322.75 757.1,-500321 757.1,-500324.5"/>
</g>
<!-- KeywordToken -->
<g id="node3" class="node">
<title>KeywordToken</title>
<g id="a_node3"><a xlink:href="../pyVHDLParser/pyVHDLParser.Token.Keywords.html#pyVHDLParser.Token.Keywords.KeywordToken" xlink:title="KeywordToken" target="_top">
<polygon fill="white" stroke="#1e90ff" points="450,-816835.82 344,-816835.82 344,-183809.69 450,-183809.69 450,-816835.82"/>
<text text-anchor="middle" x="397" y="-816822.32" font-family="Vera Sans, DejaVu Sans, Liberation Sans, Arial, Helvetica, sans" font-size="10.00">KeywordToken</text>
</a>
</g>
</g>
<!-- Operator -->
<g id="node5" class="node">
<title>Operator</title>
<g id="a_node5"><a xlink:href="../pyVHDLParser/pyVHDLParser.Token.Keywords.html#pyVHDLParser.Token.Keywords.Operator" xlink:title="Operator" target="_top">
<polygon fill="white" stroke="#1e90ff" points="562,-500332 486,-500332 486,-500313.5 562,-500313.5 562,-500332"/>
<text text-anchor="middle" x="524" y="-500318.5" font-family="Vera Sans, DejaVu Sans, Liberation Sans, Arial, Helvetica, sans" font-size="10.00">Operator</text>
</a>
</g>
</g>
<!-- KeywordToken&#45;&gt;Operator -->
<g id="edge4" class="edge">
<title>KeywordToken&#45;&gt;Operator</title>
<path fill="none" stroke="black" stroke-width="0.5" d="M450.29,-500322.75C460.15,-500322.75 470.36,-500322.75 479.9,-500322.75"/>
<polygon fill="black" stroke="black" stroke-width="0.5" points="480.74,-500324.5 485.74,-500322.75 480.74,-500321 480.74,-500324.5"/>
</g>
<!-- VHDLToken -->
<g id="node4" class="node">
<title>VHDLToken</title>
<g id="a_node4"><a xlink:href="../pyVHDLParser.Token.html#pyVHDLParser.Token.VHDLToken" xlink:title="Base&#45;class for all VHDL specific tokens." target="_top">
<polygon fill="white" stroke="#1e90ff" points="308,-816836.23 224.5,-816836.23 224.5,-183809.27 308,-183809.27 308,-816836.23"/>
<text text-anchor="middle" x="266.25" y="-816822.73" font-family="Vera Sans, DejaVu Sans, Liberation Sans, Arial, Helvetica, sans" font-size="10.00">VHDLToken</text>
</a>
</g>
</g>
<!-- VHDLToken&#45;&gt;KeywordToken -->
<g id="edge2" class="edge">
<title>VHDLToken&#45;&gt;KeywordToken</title>
<path fill="none" stroke="black" stroke-width="0.5" d="M308.34,-500322.75C317.69,-500322.75 327.8,-500322.75 337.71,-500322.75"/>
<polygon fill="black" stroke="black" stroke-width="0.5" points="338.52,-500324.5 343.52,-500322.75 338.52,-500321 338.52,-500324.5"/>
</g>
<!-- Operator&#45;&gt;LogicalOperator -->
<g id="edge3" class="edge">
<title>Operator&#45;&gt;LogicalOperator</title>
<path fill="none" stroke="black" stroke-width="0.5" d="M562.23,-500322.75C571.39,-500322.75 581.49,-500322.75 591.63,-500322.75"/>
<polygon fill="black" stroke="black" stroke-width="0.5" points="592.6,-500324.5 597.6,-500322.75 592.6,-500321 592.6,-500324.5"/>
</g>
<!-- Token -->
<g id="node6" class="node">
<title>Token</title>
<g id="a_node6"><a xlink:href="../pyVHDLParser.Token.html#pyVHDLParser.Token.Token" xlink:title="Base&#45;class for all token classes." target="_top">
<polygon fill="white" stroke="#1e90ff" points="54,-500332 0,-500332 0,-500313.5 54,-500313.5 54,-500332"/>
<text text-anchor="middle" x="27" y="-500318.5" font-family="Vera Sans, DejaVu Sans, Liberation Sans, Arial, Helvetica, sans" font-size="10.00">Token</text>
</a>
</g>
</g>
<!-- ValuedToken -->
<g id="node7" class="node">
<title>ValuedToken</title>
<g id="a_node7"><a xlink:href="../pyVHDLParser.Token.html#pyVHDLParser.Token.ValuedToken" xlink:title="Base&#45;class for all *valued* token." target="_top">
<polygon fill="white" stroke="#1e90ff" points="188.5,-500332 90,-500332 90,-500313.5 188.5,-500313.5 188.5,-500332"/>
<text text-anchor="middle" x="139.25" y="-500318.5" font-family="Vera Sans, DejaVu Sans, Liberation Sans, Arial, Helvetica, sans" font-size="10.00">ValuedToken</text>
</a>
</g>
</g>
<!-- Token&#45;&gt;ValuedToken -->
<g id="edge6" class="edge">
<title>Token&#45;&gt;ValuedToken</title>
<path fill="none" stroke="black" stroke-width="0.5" d="M54.41,-500322.75C63.25,-500322.75 73.45,-500322.75 83.64,-500322.75"/>
<polygon fill="black" stroke="black" stroke-width="0.5" points="84.62,-500324.5 89.62,-500322.75 84.62,-500321 84.62,-500324.5"/>
</g>
<!-- ValuedToken&#45;&gt;VHDLToken -->
<g id="edge5" class="edge">
<title>ValuedToken&#45;&gt;VHDLToken</title>
<path fill="none" stroke="black" stroke-width="0.5" d="M188.94,-500322.75C198.59,-500322.75 208.7,-500322.75 218.29,-500322.75"/>
<polygon fill="black" stroke="black" stroke-width="0.5" points="219.19,-500324.5 224.19,-500322.75 219.19,-500321 219.19,-500324.5"/>
</g>
</g>
</svg>
