<?xml version="1.0" encoding="UTF-8" standalone="no"?>
<!DOCTYPE svg PUBLIC "-//W3C//DTD SVG 1.1//EN"
 "http://www.w3.org/Graphics/SVG/1.1/DTD/svg11.dtd">
<!-- Generated by graphviz version 8.0.5 (20230430.1635)
 -->
<!-- Title: inheritanced03a9892fd Pages: 1 -->
<svg width="2pt" height="864pt"
 viewBox="0.00 0.00 2.07 864.00" xmlns="http://www.w3.org/2000/svg" xmlns:xlink="http://www.w3.org/1999/xlink">
<g id="graph0" class="graph" transform="scale(0.00325147 0.00325147) rotate(0) translate(4 265722.18)">
<title>inheritanced03a9892fd</title>
<!-- DisconnectKeyword -->
<g id="node1" class="node">
<title>DisconnectKeyword</title>
<g id="a_node1"><a xlink:href="../pyVHDLParser/pyVHDLParser.Token.Keywords.html#pyVHDLParser.Token.Keywords.DisconnectKeyword" xlink:title="DisconnectKeyword" target="_top">
<polygon fill="white" stroke="#1e90ff" points="629.5,-132868.34 486,-132868.34 486,-132849.84 629.5,-132849.84 629.5,-132868.34"/>
<text text-anchor="middle" x="557.75" y="-132854.84" font-family="Vera Sans, DejaVu Sans, Liberation Sans, Arial, Helvetica, sans" font-size="10.00">DisconnectKeyword</text>
</a>
</g>
</g>
<!-- KeywordToken -->
<g id="node2" class="node">
<title>KeywordToken</title>
<g id="a_node2"><a xlink:href="../pyVHDLParser/pyVHDLParser.Token.Keywords.html#pyVHDLParser.Token.Keywords.KeywordToken" xlink:title="KeywordToken" target="_top">
<polygon fill="white" stroke="#1e90ff" points="450,-132868.34 344,-132868.34 344,-132849.84 450,-132849.84 450,-132868.34"/>
<text text-anchor="middle" x="397" y="-132854.84" font-family="Vera Sans, DejaVu Sans, Liberation Sans, Arial, Helvetica, sans" font-size="10.00">KeywordToken</text>
</a>
</g>
</g>
<!-- KeywordToken&#45;&gt;DisconnectKeyword -->
<g id="edge1" class="edge">
<title>KeywordToken&#45;&gt;DisconnectKeyword</title>
<path fill="none" stroke="black" stroke-width="0.5" d="M450.42,-132859.09C459.86,-132859.09 469.87,-132859.09 479.83,-132859.09"/>
<polygon fill="black" stroke="black" stroke-width="0.5" points="480.69,-132860.84 485.69,-132859.09 480.69,-132857.34 480.69,-132860.84"/>
</g>
<!-- VHDLToken -->
<g id="node3" class="node">
<title>VHDLToken</title>
<g id="a_node3"><a xlink:href="../pyVHDLParser.Token.html#pyVHDLParser.Token.VHDLToken" xlink:title="Base&#45;class for all VHDL specific tokens." target="_top">
<polygon fill="white" stroke="#1e90ff" points="308,-265718.13 224.5,-265718.13 224.5,-0.05 308,-0.05 308,-265718.13"/>
<text text-anchor="middle" x="266.25" y="-265704.63" font-family="Vera Sans, DejaVu Sans, Liberation Sans, Arial, Helvetica, sans" font-size="10.00">VHDLToken</text>
</a>
</g>
</g>
<!-- VHDLToken&#45;&gt;KeywordToken -->
<g id="edge2" class="edge">
<title>VHDLToken&#45;&gt;KeywordToken</title>
<path fill="none" stroke="black" stroke-width="0.5" d="M308.34,-132859.09C317.69,-132859.09 327.8,-132859.09 337.71,-132859.09"/>
<polygon fill="black" stroke="black" stroke-width="0.5" points="338.52,-132860.84 343.52,-132859.09 338.52,-132857.34 338.52,-132860.84"/>
</g>
<!-- Token -->
<g id="node4" class="node">
<title>Token</title>
<g id="a_node4"><a xlink:href="../pyVHDLParser.Token.html#pyVHDLParser.Token.Token" xlink:title="Base&#45;class for all token classes." target="_top">
<polygon fill="white" stroke="#1e90ff" points="54,-265718.18 0,-265718.18 0,0 54,0 54,-265718.18"/>
<text text-anchor="middle" x="27" y="-265704.68" font-family="Vera Sans, DejaVu Sans, Liberation Sans, Arial, Helvetica, sans" font-size="10.00">Token</text>
</a>
</g>
</g>
<!-- ValuedToken -->
<g id="node5" class="node">
<title>ValuedToken</title>
<g id="a_node5"><a xlink:href="../pyVHDLParser.Token.html#pyVHDLParser.Token.ValuedToken" xlink:title="Base&#45;class for all *valued* token." target="_top">
<polygon fill="white" stroke="#1e90ff" points="188.5,-132868.34 90,-132868.34 90,-132849.84 188.5,-132849.84 188.5,-132868.34"/>
<text text-anchor="middle" x="139.25" y="-132854.84" font-family="Vera Sans, DejaVu Sans, Liberation Sans, Arial, Helvetica, sans" font-size="10.00">ValuedToken</text>
</a>
</g>
</g>
<!-- Token&#45;&gt;ValuedToken -->
<g id="edge4" class="edge">
<title>Token&#45;&gt;ValuedToken</title>
<path fill="none" stroke="black" stroke-width="0.5" d="M54.41,-132859.09C63.25,-132859.09 73.45,-132859.09 83.64,-132859.09"/>
<polygon fill="black" stroke="black" stroke-width="0.5" points="84.62,-132860.84 89.62,-132859.09 84.62,-132857.34 84.62,-132860.84"/>
</g>
<!-- ValuedToken&#45;&gt;VHDLToken -->
<g id="edge3" class="edge">
<title>ValuedToken&#45;&gt;VHDLToken</title>
<path fill="none" stroke="black" stroke-width="0.5" d="M188.94,-132859.09C198.59,-132859.09 208.7,-132859.09 218.29,-132859.09"/>
<polygon fill="black" stroke="black" stroke-width="0.5" points="219.19,-132860.84 224.19,-132859.09 219.19,-132857.34 219.19,-132860.84"/>
</g>
</g>
</svg>
