<?xml version="1.0" encoding="UTF-8" standalone="no"?>
<!DOCTYPE svg PUBLIC "-//W3C//DTD SVG 1.1//EN"
 "http://www.w3.org/Graphics/SVG/1.1/DTD/svg11.dtd">
<!-- Generated by graphviz version 8.0.5 (20230430.1635)
 -->
<!-- Title: inheritance4e0e4303f5 Pages: 1 -->
<svg width="0pt" height="864pt"
 viewBox="0.00 0.00 0.23 864.00" xmlns="http://www.w3.org/2000/svg" xmlns:xlink="http://www.w3.org/1999/xlink">
<g id="graph0" class="graph" transform="scale(0.000763388 0.000763388) rotate(0) translate(4 1131792.07)">
<title>inheritance4e0e4303f5</title>
<!-- Block -->
<g id="node1" class="node">
<title>Block</title>
<g id="a_node1"><a xlink:href="../pyVHDLParser.Blocks.html#pyVHDLParser.Blocks.Block" xlink:title="Base&#45;class for all :term:`block` classes." target="_top">
<polygon fill="white" stroke="#1e90ff" points="54,-1131788.07 0,-1131788.07 0,0 54,0 54,-1131788.07"/>
<text text-anchor="middle" x="27" y="-1131774.57" font-family="Vera Sans, DejaVu Sans, Liberation Sans, Arial, Helvetica, sans" font-size="10.00">Block</text>
</a>
</g>
</g>
<!-- FinalBlock -->
<g id="node3" class="node">
<title>FinalBlock</title>
<g id="a_node3"><a xlink:href="../pyVHDLParser.Blocks.html#pyVHDLParser.Blocks.FinalBlock" xlink:title="Base&#45;class for blocks that are final in a fast&#45;forward scanning." target="_top">
<polygon fill="white" stroke="#1e90ff" points="181,-565903.29 90,-565903.29 90,-565884.79 181,-565884.79 181,-565903.29"/>
<text text-anchor="middle" x="135.5" y="-565889.79" font-family="Vera Sans, DejaVu Sans, Liberation Sans, Arial, Helvetica, sans" font-size="10.00">FinalBlock</text>
</a>
</g>
</g>
<!-- Block&#45;&gt;FinalBlock -->
<g id="edge3" class="edge">
<title>Block&#45;&gt;FinalBlock</title>
<path fill="none" stroke="black" stroke-width="0.5" d="M54.33,-565894.04C63.29,-565894.04 73.62,-565894.04 83.84,-565894.04"/>
<polygon fill="black" stroke="black" stroke-width="0.5" points="84.82,-565895.79 89.82,-565894.04 84.82,-565892.29 84.82,-565895.79"/>
</g>
<!-- EndBlock -->
<g id="node2" class="node">
<title>EndBlock</title>
<g id="a_node2"><a xlink:href="../pyVHDLParser/pyVHDLParser.Blocks.Sequential.Function.html#pyVHDLParser.Blocks.Sequential.Function.EndBlock" xlink:title="EndBlock" target="_top">
<polygon fill="white" stroke="#1e90ff" points="293,-565903.29 217,-565903.29 217,-565884.78 293,-565884.78 293,-565903.29"/>
<text text-anchor="middle" x="255" y="-565889.79" font-family="Vera Sans, DejaVu Sans, Liberation Sans, Arial, Helvetica, sans" font-size="10.00">EndBlock</text>
</a>
</g>
</g>
<!-- EndBlock&#45;&gt;EndBlock -->
<g id="edge2" class="edge">
<title>EndBlock&#45;&gt;EndBlock</title>
<path fill="none" stroke="black" stroke-width="0.5" d="M236.58,-565903.53C227.62,-565912.1 233.76,-565921.29 255,-565921.29 272.26,-565921.29 279.55,-565915.22 276.87,-565908.35"/>
<polygon fill="black" stroke="black" stroke-width="0.5" points="277.75,-565906.58 273.42,-565903.53 274.9,-565908.62 277.75,-565906.58"/>
</g>
<!-- FinalBlock&#45;&gt;EndBlock -->
<g id="edge1" class="edge">
<title>FinalBlock&#45;&gt;EndBlock</title>
<path fill="none" stroke="black" stroke-width="0.5" d="M181.26,-565894.04C190.92,-565894.04 201.13,-565894.04 210.74,-565894.04"/>
<polygon fill="black" stroke="black" stroke-width="0.5" points="211.63,-565895.79 216.63,-565894.04 211.63,-565892.29 211.63,-565895.79"/>
</g>
</g>
</svg>
