<?xml version="1.0" encoding="UTF-8" standalone="no"?>
<!DOCTYPE svg PUBLIC "-//W3C//DTD SVG 1.1//EN"
 "http://www.w3.org/Graphics/SVG/1.1/DTD/svg11.dtd">
<!-- Generated by graphviz version 8.0.5 (20230430.1635)
 -->
<!-- Title: inheritance47562df29f Pages: 1 -->
<svg width="1pt" height="864pt"
 viewBox="0.00 0.00 0.93 864.00" xmlns="http://www.w3.org/2000/svg" xmlns:xlink="http://www.w3.org/1999/xlink">
<g id="graph0" class="graph" transform="scale(0.0010839 0.0010839) rotate(0) translate(4 797116.08)">
<title>inheritance47562df29f</title>
<!-- KeywordToken -->
<g id="node1" class="node">
<title>KeywordToken</title>
<g id="a_node1"><a xlink:href="../pyVHDLParser/pyVHDLParser.Token.Keywords.html#pyVHDLParser.Token.Keywords.KeywordToken" xlink:title="KeywordToken" target="_top">
<polygon fill="white" stroke="#1e90ff" points="450,-398565.29 344,-398565.29 344,-398546.79 450,-398546.79 450,-398565.29"/>
<text text-anchor="middle" x="397" y="-398551.79" font-family="Vera Sans, DejaVu Sans, Liberation Sans, Arial, Helvetica, sans" font-size="10.00">KeywordToken</text>
</a>
</g>
</g>
<!-- Operator -->
<g id="node3" class="node">
<title>Operator</title>
<g id="a_node3"><a xlink:href="../pyVHDLParser/pyVHDLParser.Token.Keywords.html#pyVHDLParser.Token.Keywords.Operator" xlink:title="Operator" target="_top">
<polygon fill="white" stroke="#1e90ff" points="562,-797112.03 486,-797112.03 486,-0.05 562,-0.05 562,-797112.03"/>
<text text-anchor="middle" x="524" y="-797098.53" font-family="Vera Sans, DejaVu Sans, Liberation Sans, Arial, Helvetica, sans" font-size="10.00">Operator</text>
</a>
</g>
</g>
<!-- KeywordToken&#45;&gt;Operator -->
<g id="edge2" class="edge">
<title>KeywordToken&#45;&gt;Operator</title>
<path fill="none" stroke="black" stroke-width="0.5" d="M450.29,-398556.04C460.15,-398556.04 470.36,-398556.04 479.9,-398556.04"/>
<polygon fill="black" stroke="black" stroke-width="0.5" points="480.74,-398557.79 485.74,-398556.04 480.74,-398554.29 480.74,-398557.79"/>
</g>
<!-- VHDLToken -->
<g id="node2" class="node">
<title>VHDLToken</title>
<g id="a_node2"><a xlink:href="../pyVHDLParser.Token.html#pyVHDLParser.Token.VHDLToken" xlink:title="Base&#45;class for all VHDL specific tokens." target="_top">
<polygon fill="white" stroke="#1e90ff" points="308,-797112.08 224.5,-797112.08 224.5,0 308,0 308,-797112.08"/>
<text text-anchor="middle" x="266.25" y="-797098.58" font-family="Vera Sans, DejaVu Sans, Liberation Sans, Arial, Helvetica, sans" font-size="10.00">VHDLToken</text>
</a>
</g>
</g>
<!-- VHDLToken&#45;&gt;KeywordToken -->
<g id="edge1" class="edge">
<title>VHDLToken&#45;&gt;KeywordToken</title>
<path fill="none" stroke="black" stroke-width="0.5" d="M308.34,-398556.04C317.69,-398556.04 327.8,-398556.04 337.71,-398556.04"/>
<polygon fill="black" stroke="black" stroke-width="0.5" points="338.52,-398557.79 343.52,-398556.04 338.52,-398554.29 338.52,-398557.79"/>
</g>
<!-- ShiftOperator -->
<g id="node5" class="node">
<title>ShiftOperator</title>
<g id="a_node5"><a xlink:href="../pyVHDLParser/pyVHDLParser.Token.Keywords.html#pyVHDLParser.Token.Keywords.ShiftOperator" xlink:title="ShiftOperator" target="_top">
<polygon fill="white" stroke="#1e90ff" points="711.5,-398565.29 598,-398565.29 598,-398546.79 711.5,-398546.79 711.5,-398565.29"/>
<text text-anchor="middle" x="654.75" y="-398551.79" font-family="Vera Sans, DejaVu Sans, Liberation Sans, Arial, Helvetica, sans" font-size="10.00">ShiftOperator</text>
</a>
</g>
</g>
<!-- Operator&#45;&gt;ShiftOperator -->
<g id="edge4" class="edge">
<title>Operator&#45;&gt;ShiftOperator</title>
<path fill="none" stroke="black" stroke-width="0.5" d="M562.24,-398556.04C571.55,-398556.04 581.79,-398556.04 591.95,-398556.04"/>
<polygon fill="black" stroke="black" stroke-width="0.5" points="592.91,-398557.79 597.91,-398556.04 592.91,-398554.29 592.91,-398557.79"/>
</g>
<!-- RolOperator -->
<g id="node4" class="node">
<title>RolOperator</title>
<g id="a_node4"><a xlink:href="../pyVHDLParser/pyVHDLParser.Token.Keywords.html#pyVHDLParser.Token.Keywords.RolOperator" xlink:title="RolOperator" target="_top">
<polygon fill="white" stroke="#1e90ff" points="846,-398565.29 747.5,-398565.29 747.5,-398546.79 846,-398546.79 846,-398565.29"/>
<text text-anchor="middle" x="796.75" y="-398551.79" font-family="Vera Sans, DejaVu Sans, Liberation Sans, Arial, Helvetica, sans" font-size="10.00">RolOperator</text>
</a>
</g>
</g>
<!-- ShiftOperator&#45;&gt;RolOperator -->
<g id="edge3" class="edge">
<title>ShiftOperator&#45;&gt;RolOperator</title>
<path fill="none" stroke="black" stroke-width="0.5" d="M711.89,-398556.04C721.59,-398556.04 731.66,-398556.04 741.32,-398556.04"/>
<polygon fill="black" stroke="black" stroke-width="0.5" points="742.27,-398557.79 747.27,-398556.04 742.27,-398554.29 742.27,-398557.79"/>
</g>
<!-- Token -->
<g id="node6" class="node">
<title>Token</title>
<g id="a_node6"><a xlink:href="../pyVHDLParser.Token.html#pyVHDLParser.Token.Token" xlink:title="Base&#45;class for all token classes." target="_top">
<polygon fill="white" stroke="#1e90ff" points="54,-398565.29 0,-398565.29 0,-398546.79 54,-398546.79 54,-398565.29"/>
<text text-anchor="middle" x="27" y="-398551.79" font-family="Vera Sans, DejaVu Sans, Liberation Sans, Arial, Helvetica, sans" font-size="10.00">Token</text>
</a>
</g>
</g>
<!-- ValuedToken -->
<g id="node7" class="node">
<title>ValuedToken</title>
<g id="a_node7"><a xlink:href="../pyVHDLParser.Token.html#pyVHDLParser.Token.ValuedToken" xlink:title="Base&#45;class for all *valued* token." target="_top">
<polygon fill="white" stroke="#1e90ff" points="188.5,-398565.29 90,-398565.29 90,-398546.79 188.5,-398546.79 188.5,-398565.29"/>
<text text-anchor="middle" x="139.25" y="-398551.79" font-family="Vera Sans, DejaVu Sans, Liberation Sans, Arial, Helvetica, sans" font-size="10.00">ValuedToken</text>
</a>
</g>
</g>
<!-- Token&#45;&gt;ValuedToken -->
<g id="edge6" class="edge">
<title>Token&#45;&gt;ValuedToken</title>
<path fill="none" stroke="black" stroke-width="0.5" d="M54.41,-398556.04C63.25,-398556.04 73.45,-398556.04 83.64,-398556.04"/>
<polygon fill="black" stroke="black" stroke-width="0.5" points="84.62,-398557.79 89.62,-398556.04 84.62,-398554.29 84.62,-398557.79"/>
</g>
<!-- ValuedToken&#45;&gt;VHDLToken -->
<g id="edge5" class="edge">
<title>ValuedToken&#45;&gt;VHDLToken</title>
<path fill="none" stroke="black" stroke-width="0.5" d="M188.94,-398556.04C198.59,-398556.04 208.7,-398556.04 218.29,-398556.04"/>
<polygon fill="black" stroke="black" stroke-width="0.5" points="219.19,-398557.79 224.19,-398556.04 219.19,-398554.29 219.19,-398557.79"/>
</g>
</g>
</svg>
