<?xml version="1.0" encoding="UTF-8" standalone="no"?>
<!DOCTYPE svg PUBLIC "-//W3C//DTD SVG 1.1//EN"
 "http://www.w3.org/Graphics/SVG/1.1/DTD/svg11.dtd">
<!-- Generated by graphviz version 8.0.5 (20230430.1635)
 -->
<!-- Title: inheritancef999e4681e Pages: 1 -->
<svg width="1pt" height="864pt"
 viewBox="0.00 0.00 1.33 864.00" xmlns="http://www.w3.org/2000/svg" xmlns:xlink="http://www.w3.org/1999/xlink">
<g id="graph0" class="graph" transform="scale(0.00227239 0.00227239) rotate(0) translate(4 380212.41)">
<title>inheritancef999e4681e</title>
<!-- ForKeyword -->
<g id="node1" class="node">
<title>ForKeyword</title>
<g id="a_node1"><a xlink:href="../pyVHDLParser/pyVHDLParser.Token.Keywords.html#pyVHDLParser.Token.Keywords.ForKeyword" xlink:title="ForKeyword" target="_top">
<polygon fill="white" stroke="#1e90ff" points="577,-190113.45 486,-190113.45 486,-190094.95 577,-190094.95 577,-190113.45"/>
<text text-anchor="middle" x="531.5" y="-190099.95" font-family="Vera Sans, DejaVu Sans, Liberation Sans, Arial, Helvetica, sans" font-size="10.00">ForKeyword</text>
</a>
</g>
</g>
<!-- KeywordToken -->
<g id="node2" class="node">
<title>KeywordToken</title>
<g id="a_node2"><a xlink:href="../pyVHDLParser/pyVHDLParser.Token.Keywords.html#pyVHDLParser.Token.Keywords.KeywordToken" xlink:title="KeywordToken" target="_top">
<polygon fill="white" stroke="#1e90ff" points="450,-190113.45 344,-190113.45 344,-190094.95 450,-190094.95 450,-190113.45"/>
<text text-anchor="middle" x="397" y="-190099.95" font-family="Vera Sans, DejaVu Sans, Liberation Sans, Arial, Helvetica, sans" font-size="10.00">KeywordToken</text>
</a>
</g>
</g>
<!-- KeywordToken&#45;&gt;ForKeyword -->
<g id="edge1" class="edge">
<title>KeywordToken&#45;&gt;ForKeyword</title>
<path fill="none" stroke="black" stroke-width="0.5" d="M450.37,-190104.2C460.07,-190104.2 470.19,-190104.2 479.84,-190104.2"/>
<polygon fill="black" stroke="black" stroke-width="0.5" points="480.79,-190105.95 485.79,-190104.2 480.79,-190102.45 480.79,-190105.95"/>
</g>
<!-- VHDLToken -->
<g id="node3" class="node">
<title>VHDLToken</title>
<g id="a_node3"><a xlink:href="../pyVHDLParser.Token.html#pyVHDLParser.Token.VHDLToken" xlink:title="Base&#45;class for all VHDL specific tokens." target="_top">
<polygon fill="white" stroke="#1e90ff" points="308,-380208.41 224.5,-380208.41 224.5,0 308,0 308,-380208.41"/>
<text text-anchor="middle" x="266.25" y="-380194.91" font-family="Vera Sans, DejaVu Sans, Liberation Sans, Arial, Helvetica, sans" font-size="10.00">VHDLToken</text>
</a>
</g>
</g>
<!-- VHDLToken&#45;&gt;KeywordToken -->
<g id="edge2" class="edge">
<title>VHDLToken&#45;&gt;KeywordToken</title>
<path fill="none" stroke="black" stroke-width="0.5" d="M308.34,-190104.2C317.69,-190104.2 327.8,-190104.2 337.71,-190104.2"/>
<polygon fill="black" stroke="black" stroke-width="0.5" points="338.52,-190105.95 343.52,-190104.2 338.52,-190102.45 338.52,-190105.95"/>
</g>
<!-- Token -->
<g id="node4" class="node">
<title>Token</title>
<g id="a_node4"><a xlink:href="../pyVHDLParser.Token.html#pyVHDLParser.Token.Token" xlink:title="Base&#45;class for all token classes." target="_top">
<polygon fill="white" stroke="#1e90ff" points="54,-380208.36 0,-380208.36 0,-0.05 54,-0.05 54,-380208.36"/>
<text text-anchor="middle" x="27" y="-380194.86" font-family="Vera Sans, DejaVu Sans, Liberation Sans, Arial, Helvetica, sans" font-size="10.00">Token</text>
</a>
</g>
</g>
<!-- ValuedToken -->
<g id="node5" class="node">
<title>ValuedToken</title>
<g id="a_node5"><a xlink:href="../pyVHDLParser.Token.html#pyVHDLParser.Token.ValuedToken" xlink:title="Base&#45;class for all *valued* token." target="_top">
<polygon fill="white" stroke="#1e90ff" points="188.5,-190118.95 90,-190118.95 90,-190089.45 188.5,-190089.45 188.5,-190118.95"/>
<text text-anchor="middle" x="139.25" y="-190105.45" font-family="Vera Sans, DejaVu Sans, Liberation Sans, Arial, Helvetica, sans" font-size="10.00">ValuedToken</text>
</a>
</g>
</g>
<!-- Token&#45;&gt;ValuedToken -->
<g id="edge4" class="edge">
<title>Token&#45;&gt;ValuedToken</title>
<path fill="none" stroke="black" stroke-width="0.5" d="M54.41,-190104.2C63.25,-190104.2 73.45,-190104.2 83.64,-190104.2"/>
<polygon fill="black" stroke="black" stroke-width="0.5" points="84.62,-190105.95 89.62,-190104.2 84.62,-190102.45 84.62,-190105.95"/>
</g>
<!-- ValuedToken&#45;&gt;VHDLToken -->
<g id="edge3" class="edge">
<title>ValuedToken&#45;&gt;VHDLToken</title>
<path fill="none" stroke="black" stroke-width="0.5" d="M188.94,-190104.2C198.59,-190104.2 208.7,-190104.2 218.29,-190104.2"/>
<polygon fill="black" stroke="black" stroke-width="0.5" points="219.19,-190105.95 224.19,-190104.2 219.19,-190102.45 219.19,-190105.95"/>
</g>
</g>
</svg>
