<?xml version="1.0" encoding="UTF-8" standalone="no"?>
<!DOCTYPE svg PUBLIC "-//W3C//DTD SVG 1.1//EN"
 "http://www.w3.org/Graphics/SVG/1.1/DTD/svg11.dtd">
<!-- Generated by graphviz version 8.0.5 (20230430.1635)
 -->
<!-- Title: inheritance7560b029b7 Pages: 1 -->
<svg width="0pt" height="864pt"
 viewBox="0.00 0.00 0.38 864.00" xmlns="http://www.w3.org/2000/svg" xmlns:xlink="http://www.w3.org/1999/xlink">
<g id="graph0" class="graph" transform="scale(0.00060379 0.00060379) rotate(0) translate(4 1430956.05)">
<title>inheritance7560b029b7</title>
<!-- KeywordToken -->
<g id="node1" class="node">
<title>KeywordToken</title>
<g id="a_node1"><a xlink:href="../pyVHDLParser/pyVHDLParser.Token.Keywords.html#pyVHDLParser.Token.Keywords.KeywordToken" xlink:title="KeywordToken" target="_top">
<polygon fill="white" stroke="#1e90ff" points="450,-715485.28 344,-715485.28 344,-715466.78 450,-715466.78 450,-715485.28"/>
<text text-anchor="middle" x="397" y="-715471.78" font-family="Vera Sans, DejaVu Sans, Liberation Sans, Arial, Helvetica, sans" font-size="10.00">KeywordToken</text>
</a>
</g>
</g>
<!-- SequenceKeyword -->
<g id="node3" class="node">
<title>SequenceKeyword</title>
<g id="a_node3"><a xlink:href="../pyVHDLParser/pyVHDLParser.Token.Keywords.html#pyVHDLParser.Token.Keywords.SequenceKeyword" xlink:title="SequenceKeyword" target="_top">
<polygon fill="white" stroke="#1e90ff" points="614.5,-1430952.05 486,-1430952.05 486,0 614.5,0 614.5,-1430952.05"/>
<text text-anchor="middle" x="550.25" y="-1430938.55" font-family="Vera Sans, DejaVu Sans, Liberation Sans, Arial, Helvetica, sans" font-size="10.00">SequenceKeyword</text>
</a>
</g>
</g>
<!-- KeywordToken&#45;&gt;SequenceKeyword -->
<g id="edge2" class="edge">
<title>KeywordToken&#45;&gt;SequenceKeyword</title>
<path fill="none" stroke="black" stroke-width="0.5" d="M450.48,-715476.03C459.96,-715476.03 469.99,-715476.03 479.87,-715476.03"/>
<polygon fill="black" stroke="black" stroke-width="0.5" points="480.66,-715477.78 485.66,-715476.03 480.66,-715474.28 480.66,-715477.78"/>
</g>
<!-- VHDLToken -->
<g id="node2" class="node">
<title>VHDLToken</title>
<g id="a_node2"><a xlink:href="../pyVHDLParser.Token.html#pyVHDLParser.Token.VHDLToken" xlink:title="Base&#45;class for all VHDL specific tokens." target="_top">
<polygon fill="white" stroke="#1e90ff" points="308,-715485.28 224.5,-715485.28 224.5,-715466.78 308,-715466.78 308,-715485.28"/>
<text text-anchor="middle" x="266.25" y="-715471.78" font-family="Vera Sans, DejaVu Sans, Liberation Sans, Arial, Helvetica, sans" font-size="10.00">VHDLToken</text>
</a>
</g>
</g>
<!-- VHDLToken&#45;&gt;KeywordToken -->
<g id="edge1" class="edge">
<title>VHDLToken&#45;&gt;KeywordToken</title>
<path fill="none" stroke="black" stroke-width="0.5" d="M308.34,-715476.03C317.69,-715476.03 327.8,-715476.03 337.71,-715476.03"/>
<polygon fill="black" stroke="black" stroke-width="0.5" points="338.52,-715477.78 343.52,-715476.03 338.52,-715474.28 338.52,-715477.78"/>
</g>
<!-- Token -->
<g id="node4" class="node">
<title>Token</title>
<g id="a_node4"><a xlink:href="../pyVHDLParser.Token.html#pyVHDLParser.Token.Token" xlink:title="Base&#45;class for all token classes." target="_top">
<polygon fill="white" stroke="#1e90ff" points="54,-1430952.01 0,-1430952.01 0,-0.05 54,-0.05 54,-1430952.01"/>
<text text-anchor="middle" x="27" y="-1430938.51" font-family="Vera Sans, DejaVu Sans, Liberation Sans, Arial, Helvetica, sans" font-size="10.00">Token</text>
</a>
</g>
</g>
<!-- ValuedToken -->
<g id="node5" class="node">
<title>ValuedToken</title>
<g id="a_node5"><a xlink:href="../pyVHDLParser.Token.html#pyVHDLParser.Token.ValuedToken" xlink:title="Base&#45;class for all *valued* token." target="_top">
<polygon fill="white" stroke="#1e90ff" points="188.5,-715485.28 90,-715485.28 90,-715466.78 188.5,-715466.78 188.5,-715485.28"/>
<text text-anchor="middle" x="139.25" y="-715471.78" font-family="Vera Sans, DejaVu Sans, Liberation Sans, Arial, Helvetica, sans" font-size="10.00">ValuedToken</text>
</a>
</g>
</g>
<!-- Token&#45;&gt;ValuedToken -->
<g id="edge4" class="edge">
<title>Token&#45;&gt;ValuedToken</title>
<path fill="none" stroke="black" stroke-width="0.5" d="M54.41,-715476.03C63.25,-715476.03 73.45,-715476.03 83.64,-715476.03"/>
<polygon fill="black" stroke="black" stroke-width="0.5" points="84.62,-715477.78 89.62,-715476.03 84.62,-715474.28 84.62,-715477.78"/>
</g>
<!-- ValuedToken&#45;&gt;VHDLToken -->
<g id="edge3" class="edge">
<title>ValuedToken&#45;&gt;VHDLToken</title>
<path fill="none" stroke="black" stroke-width="0.5" d="M188.94,-715476.03C198.59,-715476.03 208.7,-715476.03 218.29,-715476.03"/>
<polygon fill="black" stroke="black" stroke-width="0.5" points="219.19,-715477.78 224.19,-715476.03 219.19,-715474.28 219.19,-715477.78"/>
</g>
</g>
</svg>
