<?xml version="1.0" encoding="UTF-8" standalone="no"?>
<!DOCTYPE svg PUBLIC "-//W3C//DTD SVG 1.1//EN"
 "http://www.w3.org/Graphics/SVG/1.1/DTD/svg11.dtd">
<!-- Generated by graphviz version 8.0.5 (20230430.1635)
 -->
<!-- Title: inheritance4099422145 Pages: 1 -->
<svg width="1pt" height="864pt"
 viewBox="0.00 0.00 0.93 864.00" xmlns="http://www.w3.org/2000/svg" xmlns:xlink="http://www.w3.org/1999/xlink">
<g id="graph0" class="graph" transform="scale(0.00293327 0.00293327) rotate(0) translate(4 294547.73)">
<title>inheritance4099422145</title>
<!-- Token -->
<g id="node1" class="node">
<title>Token</title>
<g id="a_node1"><a xlink:href="../pyVHDLParser/pyVHDLParser.Token.html#pyVHDLParser.Token.Token" xlink:title="Base&#45;class for all token classes." target="_top">
<polygon fill="white" stroke="#1e90ff" points="54,-294543.73 0,-294543.73 0,0 54,0 54,-294543.73"/>
<text text-anchor="middle" x="27" y="-294530.23" font-family="Vera Sans, DejaVu Sans, Liberation Sans, Arial, Helvetica, sans" font-size="10.00">Token</text>
</a>
</g>
</g>
<!-- ValuedToken -->
<g id="node2" class="node">
<title>ValuedToken</title>
<g id="a_node2"><a xlink:href="../pyVHDLParser/pyVHDLParser.Token.html#pyVHDLParser.Token.ValuedToken" xlink:title="Base&#45;class for all *valued* token." target="_top">
<polygon fill="white" stroke="#1e90ff" points="188.5,-294537.55 90,-294537.55 90,-6.18 188.5,-6.18 188.5,-294537.55"/>
<text text-anchor="middle" x="139.25" y="-294524.05" font-family="Vera Sans, DejaVu Sans, Liberation Sans, Arial, Helvetica, sans" font-size="10.00">ValuedToken</text>
</a>
</g>
</g>
<!-- Token&#45;&gt;ValuedToken -->
<g id="edge1" class="edge">
<title>Token&#45;&gt;ValuedToken</title>
<path fill="none" stroke="black" stroke-width="0.5" d="M54.41,-147271.87C63.25,-147271.87 73.45,-147271.87 83.64,-147271.87"/>
<polygon fill="black" stroke="black" stroke-width="0.5" points="84.62,-147273.62 89.62,-147271.87 84.62,-147270.12 84.62,-147273.62"/>
</g>
<!-- WordToken -->
<g id="node3" class="node">
<title>WordToken</title>
<g id="a_node3"><a xlink:href="../pyVHDLParser/pyVHDLParser.Token.html#pyVHDLParser.Token.WordToken" xlink:title="Token representing a string." target="_top">
<polygon fill="white" stroke="#1e90ff" points="308,-147286.62 224.5,-147286.62 224.5,-147257.12 308,-147257.12 308,-147286.62"/>
<text text-anchor="middle" x="266.25" y="-147273.12" font-family="Vera Sans, DejaVu Sans, Liberation Sans, Arial, Helvetica, sans" font-size="10.00">WordToken</text>
</a>
</g>
</g>
<!-- ValuedToken&#45;&gt;WordToken -->
<g id="edge2" class="edge">
<title>ValuedToken&#45;&gt;WordToken</title>
<path fill="none" stroke="black" stroke-width="0.5" d="M188.94,-147271.87C198.59,-147271.87 208.7,-147271.87 218.29,-147271.87"/>
<polygon fill="black" stroke="black" stroke-width="0.5" points="219.19,-147273.62 224.19,-147271.87 219.19,-147270.12 219.19,-147273.62"/>
</g>
</g>
</svg>
