<?xml version="1.0" encoding="UTF-8" standalone="no"?>
<!DOCTYPE svg PUBLIC "-//W3C//DTD SVG 1.1//EN"
 "http://www.w3.org/Graphics/SVG/1.1/DTD/svg11.dtd">
<!-- Generated by graphviz version 8.0.5 (20230430.1635)
 -->
<!-- Title: inheritance27c6805fe9 Pages: 1 -->
<svg width="1pt" height="864pt"
 viewBox="0.00 0.00 0.52 864.00" xmlns="http://www.w3.org/2000/svg" xmlns:xlink="http://www.w3.org/1999/xlink">
<g id="graph0" class="graph" transform="scale(0.00065469 0.00065469) rotate(0) translate(4 1319704.74)">
<title>inheritance27c6805fe9</title>
<!-- OperatorToken -->
<g id="node1" class="node">
<title>OperatorToken</title>
<g id="a_node1"><a xlink:href="../pyVHDLParser/pyVHDLParser.Token.Keywords.html#pyVHDLParser.Token.Keywords.OperatorToken" xlink:title="Base&#45;class for all operator tokens." target="_top">
<polygon fill="white" stroke="#1e90ff" points="637,-1061558.56 523.5,-1061558.56 523.5,-258142.17 637,-258142.17 637,-1061558.56"/>
<text text-anchor="middle" x="580.25" y="-1061545.06" font-family="Vera Sans, DejaVu Sans, Liberation Sans, Arial, Helvetica, sans" font-size="10.00">OperatorToken</text>
</a>
</g>
</g>
<!-- PlusOperator -->
<g id="node3" class="node">
<title>PlusOperator</title>
<g id="a_node3"><a xlink:href="../pyVHDLParser/pyVHDLParser.Token.Keywords.html#pyVHDLParser.Token.Keywords.PlusOperator" xlink:title="Token representing a plus operator: ``+``." target="_top">
<polygon fill="white" stroke="#1e90ff" points="779,-1061554.68 673,-1061554.68 673,-258146.06 779,-258146.06 779,-1061554.68"/>
<text text-anchor="middle" x="726" y="-1061541.18" font-family="Vera Sans, DejaVu Sans, Liberation Sans, Arial, Helvetica, sans" font-size="10.00">PlusOperator</text>
</a>
</g>
</g>
<!-- OperatorToken&#45;&gt;PlusOperator -->
<g id="edge2" class="edge">
<title>OperatorToken&#45;&gt;PlusOperator</title>
<path fill="none" stroke="black" stroke-width="0.5" d="M637.24,-659850.37C646.99,-659850.37 657.16,-659850.37 666.96,-659850.37"/>
<polygon fill="black" stroke="black" stroke-width="0.5" points="667.69,-659852.12 672.69,-659850.37 667.69,-659848.62 667.69,-659852.12"/>
</g>
<!-- SpecificVHDLToken -->
<g id="node2" class="node">
<title>SpecificVHDLToken</title>
<g id="a_node2"><a xlink:href="../pyVHDLParser/pyVHDLParser.Token.Keywords.html#pyVHDLParser.Token.Keywords.SpecificVHDLToken" xlink:title="Base&#45;class for all specific tokens." target="_top">
<polygon fill="white" stroke="#1e90ff" points="487.5,-1319700.74 344,-1319700.74 344,0 487.5,0 487.5,-1319700.74"/>
<text text-anchor="middle" x="415.75" y="-1319687.24" font-family="Vera Sans, DejaVu Sans, Liberation Sans, Arial, Helvetica, sans" font-size="10.00">SpecificVHDLToken</text>
</a>
</g>
</g>
<!-- SpecificVHDLToken&#45;&gt;OperatorToken -->
<g id="edge1" class="edge">
<title>SpecificVHDLToken&#45;&gt;OperatorToken</title>
<path fill="none" stroke="black" stroke-width="0.5" d="M487.55,-659850.37C497.56,-659850.37 507.79,-659850.37 517.6,-659850.37"/>
<polygon fill="black" stroke="black" stroke-width="0.5" points="518.33,-659852.12 523.33,-659850.37 518.33,-659848.62 518.33,-659852.12"/>
</g>
<!-- VHDLToken -->
<g id="node4" class="node">
<title>VHDLToken</title>
<g id="a_node4"><a xlink:href="../pyVHDLParser.Token.html#pyVHDLParser.Token.VHDLToken" xlink:title="Base&#45;class for all VHDL specific tokens." target="_top">
<polygon fill="white" stroke="#1e90ff" points="308,-659859.66 224.5,-659859.66 224.5,-659841.08 308,-659841.08 308,-659859.66"/>
<text text-anchor="middle" x="266.25" y="-659846.16" font-family="Vera Sans, DejaVu Sans, Liberation Sans, Arial, Helvetica, sans" font-size="10.00">VHDLToken</text>
</a>
</g>
</g>
<!-- VHDLToken&#45;&gt;SpecificVHDLToken -->
<g id="edge3" class="edge">
<title>VHDLToken&#45;&gt;SpecificVHDLToken</title>
<path fill="none" stroke="black" stroke-width="0.5" d="M308.34,-659850.37C317.53,-659850.37 327.57,-659850.37 337.69,-659850.37"/>
<polygon fill="black" stroke="black" stroke-width="0.5" points="338.66,-659852.12 343.66,-659850.37 338.66,-659848.62 338.66,-659852.12"/>
</g>
<!-- Token -->
<g id="node5" class="node">
<title>Token</title>
<g id="a_node5"><a xlink:href="../pyVHDLParser.Token.html#pyVHDLParser.Token.Token" xlink:title="Base&#45;class for all token classes." target="_top">
<polygon fill="white" stroke="#1e90ff" points="54,-659863.37 0,-659863.37 0,-659837.37 54,-659837.37 54,-659863.37"/>
<text text-anchor="middle" x="27" y="-659849.87" font-family="Vera Sans, DejaVu Sans, Liberation Sans, Arial, Helvetica, sans" font-size="10.00">Token</text>
</a>
</g>
</g>
<!-- ValuedToken -->
<g id="node6" class="node">
<title>ValuedToken</title>
<g id="a_node6"><a xlink:href="../pyVHDLParser.Token.html#pyVHDLParser.Token.ValuedToken" xlink:title="Base&#45;class for all *valued* token." target="_top">
<polygon fill="white" stroke="#1e90ff" points="188.5,-659859.62 90,-659859.62 90,-659841.12 188.5,-659841.12 188.5,-659859.62"/>
<text text-anchor="middle" x="139.25" y="-659846.12" font-family="Vera Sans, DejaVu Sans, Liberation Sans, Arial, Helvetica, sans" font-size="10.00">ValuedToken</text>
</a>
</g>
</g>
<!-- Token&#45;&gt;ValuedToken -->
<g id="edge5" class="edge">
<title>Token&#45;&gt;ValuedToken</title>
<path fill="none" stroke="black" stroke-width="0.5" d="M54.41,-659850.37C63.25,-659850.37 73.45,-659850.37 83.64,-659850.37"/>
<polygon fill="black" stroke="black" stroke-width="0.5" points="84.62,-659852.12 89.62,-659850.37 84.62,-659848.62 84.62,-659852.12"/>
</g>
<!-- ValuedToken&#45;&gt;VHDLToken -->
<g id="edge4" class="edge">
<title>ValuedToken&#45;&gt;VHDLToken</title>
<path fill="none" stroke="black" stroke-width="0.5" d="M188.94,-659850.37C198.59,-659850.37 208.7,-659850.37 218.29,-659850.37"/>
<polygon fill="black" stroke="black" stroke-width="0.5" points="219.19,-659852.12 224.19,-659850.37 219.19,-659848.62 219.19,-659852.12"/>
</g>
</g>
</svg>
