<?xml version="1.0" encoding="UTF-8" standalone="no"?>
<!DOCTYPE svg PUBLIC "-//W3C//DTD SVG 1.1//EN"
 "http://www.w3.org/Graphics/SVG/1.1/DTD/svg11.dtd">
<!-- Generated by graphviz version 8.0.5 (20230430.1635)
 -->
<!-- Title: inheritance4e0e4303f5 Pages: 1 -->
<svg width="0pt" height="864pt"
 viewBox="0.00 0.00 0.50 864.00" xmlns="http://www.w3.org/2000/svg" xmlns:xlink="http://www.w3.org/1999/xlink">
<g id="graph0" class="graph" transform="scale(0.00164511 0.00164511) rotate(0) translate(4 525190.43)">
<title>inheritance4e0e4303f5</title>
<!-- Block -->
<g id="node1" class="node">
<title>Block</title>
<g id="a_node1"><a xlink:href="../pyVHDLParser.Blocks.html#pyVHDLParser.Blocks.Block" xlink:title="Base&#45;class for all :term:`block` classes." target="_top">
<polygon fill="white" stroke="#1e90ff" points="54,-525186.43 0,-525186.43 0,0 54,0 54,-525186.43"/>
<text text-anchor="middle" x="27" y="-525172.93" font-family="Vera Sans, DejaVu Sans, Liberation Sans, Arial, Helvetica, sans" font-size="10.00">Block</text>
</a>
</g>
</g>
<!-- FinalBlock -->
<g id="node3" class="node">
<title>FinalBlock</title>
<g id="a_node3"><a xlink:href="../pyVHDLParser.Blocks.html#pyVHDLParser.Blocks.FinalBlock" xlink:title="Base&#45;class for blocks that are final in a fast&#45;forward scanning." target="_top">
<polygon fill="white" stroke="#1e90ff" points="181,-262602.46 90,-262602.46 90,-262583.96 181,-262583.96 181,-262602.46"/>
<text text-anchor="middle" x="135.5" y="-262588.96" font-family="Vera Sans, DejaVu Sans, Liberation Sans, Arial, Helvetica, sans" font-size="10.00">FinalBlock</text>
</a>
</g>
</g>
<!-- Block&#45;&gt;FinalBlock -->
<g id="edge3" class="edge">
<title>Block&#45;&gt;FinalBlock</title>
<path fill="none" stroke="black" stroke-width="0.5" d="M54.33,-262593.21C63.29,-262593.21 73.62,-262593.21 83.84,-262593.21"/>
<polygon fill="black" stroke="black" stroke-width="0.5" points="84.82,-262594.96 89.82,-262593.21 84.82,-262591.46 84.82,-262594.96"/>
</g>
<!-- EndBlock -->
<g id="node2" class="node">
<title>EndBlock</title>
<g id="a_node2"><a xlink:href="../pyVHDLParser/pyVHDLParser.Blocks.Structural.Component.html#pyVHDLParser.Blocks.Structural.Component.EndBlock" xlink:title="EndBlock" target="_top">
<polygon fill="white" stroke="#1e90ff" points="293,-262602.47 217,-262602.47 217,-262583.96 293,-262583.96 293,-262602.47"/>
<text text-anchor="middle" x="255" y="-262588.97" font-family="Vera Sans, DejaVu Sans, Liberation Sans, Arial, Helvetica, sans" font-size="10.00">EndBlock</text>
</a>
</g>
</g>
<!-- EndBlock&#45;&gt;EndBlock -->
<g id="edge2" class="edge">
<title>EndBlock&#45;&gt;EndBlock</title>
<path fill="none" stroke="black" stroke-width="0.5" d="M236.58,-262602.71C227.62,-262611.28 233.76,-262620.47 255,-262620.47 272.26,-262620.47 279.55,-262614.4 276.87,-262607.53"/>
<polygon fill="black" stroke="black" stroke-width="0.5" points="277.75,-262605.76 273.42,-262602.71 274.9,-262607.8 277.75,-262605.76"/>
</g>
<!-- FinalBlock&#45;&gt;EndBlock -->
<g id="edge1" class="edge">
<title>FinalBlock&#45;&gt;EndBlock</title>
<path fill="none" stroke="black" stroke-width="0.5" d="M181.26,-262593.21C190.92,-262593.21 201.13,-262593.21 210.74,-262593.21"/>
<polygon fill="black" stroke="black" stroke-width="0.5" points="211.63,-262594.96 216.63,-262593.21 211.63,-262591.46 211.63,-262594.96"/>
</g>
</g>
</svg>
