<?xml version="1.0" encoding="UTF-8" standalone="no"?>
<!DOCTYPE svg PUBLIC "-//W3C//DTD SVG 1.1//EN"
 "http://www.w3.org/Graphics/SVG/1.1/DTD/svg11.dtd">
<!-- Generated by graphviz version 8.0.5 (20230430.1635)
 -->
<!-- Title: inheritancee51e0f3562 Pages: 1 -->
<svg width="1pt" height="864pt"
 viewBox="0.00 0.00 0.58 864.00" xmlns="http://www.w3.org/2000/svg" xmlns:xlink="http://www.w3.org/1999/xlink">
<g id="graph0" class="graph" transform="scale(0.000962587 0.000962587) rotate(0) translate(4 897577.41)">
<title>inheritancee51e0f3562</title>
<!-- KeywordToken -->
<g id="node1" class="node">
<title>KeywordToken</title>
<g id="a_node1"><a xlink:href="../pyVHDLParser/pyVHDLParser.Token.Keywords.html#pyVHDLParser.Token.Keywords.KeywordToken" xlink:title="KeywordToken" target="_top">
<polygon fill="white" stroke="#1e90ff" points="450,-448795.95 344,-448795.95 344,-448777.45 450,-448777.45 450,-448795.95"/>
<text text-anchor="middle" x="397" y="-448782.45" font-family="Vera Sans, DejaVu Sans, Liberation Sans, Arial, Helvetica, sans" font-size="10.00">KeywordToken</text>
</a>
</g>
</g>
<!-- VunitKeyword -->
<g id="node5" class="node">
<title>VunitKeyword</title>
<g id="a_node5"><a xlink:href="../pyVHDLParser/pyVHDLParser.Token.Keywords.html#pyVHDLParser.Token.Keywords.VunitKeyword" xlink:title="VunitKeyword" target="_top">
<polygon fill="white" stroke="#1e90ff" points="592,-448795.95 486,-448795.95 486,-448777.45 592,-448777.45 592,-448795.95"/>
<text text-anchor="middle" x="539" y="-448782.45" font-family="Vera Sans, DejaVu Sans, Liberation Sans, Arial, Helvetica, sans" font-size="10.00">VunitKeyword</text>
</a>
</g>
</g>
<!-- KeywordToken&#45;&gt;VunitKeyword -->
<g id="edge4" class="edge">
<title>KeywordToken&#45;&gt;VunitKeyword</title>
<path fill="none" stroke="black" stroke-width="0.5" d="M450.13,-448786.7C459.88,-448786.7 470.12,-448786.7 480.03,-448786.7"/>
<polygon fill="black" stroke="black" stroke-width="0.5" points="480.83,-448788.45 485.83,-448786.7 480.83,-448784.95 480.83,-448788.45"/>
</g>
<!-- VHDLToken -->
<g id="node2" class="node">
<title>VHDLToken</title>
<g id="a_node2"><a xlink:href="../pyVHDLParser.Token.html#pyVHDLParser.Token.VHDLToken" xlink:title="Base&#45;class for all VHDL specific tokens." target="_top">
<polygon fill="white" stroke="#1e90ff" points="308,-448795.95 224.5,-448795.95 224.5,-448777.45 308,-448777.45 308,-448795.95"/>
<text text-anchor="middle" x="266.25" y="-448782.45" font-family="Vera Sans, DejaVu Sans, Liberation Sans, Arial, Helvetica, sans" font-size="10.00">VHDLToken</text>
</a>
</g>
</g>
<!-- VHDLToken&#45;&gt;KeywordToken -->
<g id="edge1" class="edge">
<title>VHDLToken&#45;&gt;KeywordToken</title>
<path fill="none" stroke="black" stroke-width="0.5" d="M308.34,-448786.7C317.69,-448786.7 327.8,-448786.7 337.71,-448786.7"/>
<polygon fill="black" stroke="black" stroke-width="0.5" points="338.52,-448788.45 343.52,-448786.7 338.52,-448784.95 338.52,-448788.45"/>
</g>
<!-- Token -->
<g id="node3" class="node">
<title>Token</title>
<g id="a_node3"><a xlink:href="../pyVHDLParser.Token.html#pyVHDLParser.Token.Token" xlink:title="Base&#45;class for all token classes." target="_top">
<polygon fill="white" stroke="#1e90ff" points="54,-897573.41 0,-897573.41 0,0 54,0 54,-897573.41"/>
<text text-anchor="middle" x="27" y="-897559.91" font-family="Vera Sans, DejaVu Sans, Liberation Sans, Arial, Helvetica, sans" font-size="10.00">Token</text>
</a>
</g>
</g>
<!-- ValuedToken -->
<g id="node4" class="node">
<title>ValuedToken</title>
<g id="a_node4"><a xlink:href="../pyVHDLParser.Token.html#pyVHDLParser.Token.ValuedToken" xlink:title="Base&#45;class for all *valued* token." target="_top">
<polygon fill="white" stroke="#1e90ff" points="188.5,-897573.37 90,-897573.37 90,-0.04 188.5,-0.04 188.5,-897573.37"/>
<text text-anchor="middle" x="139.25" y="-897559.87" font-family="Vera Sans, DejaVu Sans, Liberation Sans, Arial, Helvetica, sans" font-size="10.00">ValuedToken</text>
</a>
</g>
</g>
<!-- Token&#45;&gt;ValuedToken -->
<g id="edge3" class="edge">
<title>Token&#45;&gt;ValuedToken</title>
<path fill="none" stroke="black" stroke-width="0.5" d="M54.41,-448786.7C63.25,-448786.7 73.45,-448786.7 83.64,-448786.7"/>
<polygon fill="black" stroke="black" stroke-width="0.5" points="84.62,-448788.45 89.62,-448786.7 84.62,-448784.95 84.62,-448788.45"/>
</g>
<!-- ValuedToken&#45;&gt;VHDLToken -->
<g id="edge2" class="edge">
<title>ValuedToken&#45;&gt;VHDLToken</title>
<path fill="none" stroke="black" stroke-width="0.5" d="M188.94,-448786.7C198.59,-448786.7 208.7,-448786.7 218.29,-448786.7"/>
<polygon fill="black" stroke="black" stroke-width="0.5" points="219.19,-448788.45 224.19,-448786.7 219.19,-448784.95 219.19,-448788.45"/>
</g>
</g>
</svg>
