<?xml version="1.0" encoding="UTF-8" standalone="no"?>
<!DOCTYPE svg PUBLIC "-//W3C//DTD SVG 1.1//EN"
 "http://www.w3.org/Graphics/SVG/1.1/DTD/svg11.dtd">
<!-- Generated by graphviz version 8.0.5 (20230430.1635)
 -->
<!-- Title: inheritance06f40ed0b6 Pages: 1 -->
<svg width="0pt" height="864pt"
 viewBox="0.00 0.00 0.39 864.00" xmlns="http://www.w3.org/2000/svg" xmlns:xlink="http://www.w3.org/1999/xlink">
<g id="graph0" class="graph" transform="scale(0.000667038 0.000667038) rotate(0) translate(4 1295275.37)">
<title>inheritance06f40ed0b6</title>
<!-- KeywordToken -->
<g id="node1" class="node">
<title>KeywordToken</title>
<g id="a_node1"><a xlink:href="../pyVHDLParser/pyVHDLParser.Token.Keywords.html#pyVHDLParser.Token.Keywords.KeywordToken" xlink:title="KeywordToken" target="_top">
<polygon fill="white" stroke="#1e90ff" points="450,-647644.93 344,-647644.93 344,-647626.43 450,-647626.43 450,-647644.93"/>
<text text-anchor="middle" x="397" y="-647631.43" font-family="Vera Sans, DejaVu Sans, Liberation Sans, Arial, Helvetica, sans" font-size="10.00">KeywordToken</text>
</a>
</g>
</g>
<!-- NewKeyword -->
<g id="node3" class="node">
<title>NewKeyword</title>
<g id="a_node3"><a xlink:href="../pyVHDLParser/pyVHDLParser.Token.Keywords.html#pyVHDLParser.Token.Keywords.NewKeyword" xlink:title="NewKeyword" target="_top">
<polygon fill="white" stroke="#1e90ff" points="577,-1294756.23 486,-1294756.23 486,-515.14 577,-515.14 577,-1294756.23"/>
<text text-anchor="middle" x="531.5" y="-1294742.73" font-family="Vera Sans, DejaVu Sans, Liberation Sans, Arial, Helvetica, sans" font-size="10.00">NewKeyword</text>
</a>
</g>
</g>
<!-- KeywordToken&#45;&gt;NewKeyword -->
<g id="edge2" class="edge">
<title>KeywordToken&#45;&gt;NewKeyword</title>
<path fill="none" stroke="black" stroke-width="0.5" d="M450.37,-647635.68C460.07,-647635.68 470.19,-647635.68 479.84,-647635.68"/>
<polygon fill="black" stroke="black" stroke-width="0.5" points="480.79,-647637.43 485.79,-647635.68 480.79,-647633.93 480.79,-647637.43"/>
</g>
<!-- VHDLToken -->
<g id="node2" class="node">
<title>VHDLToken</title>
<g id="a_node2"><a xlink:href="../pyVHDLParser.Token.html#pyVHDLParser.Token.VHDLToken" xlink:title="Base&#45;class for all VHDL specific tokens." target="_top">
<polygon fill="white" stroke="#1e90ff" points="308,-1295271.37 224.5,-1295271.37 224.5,0 308,0 308,-1295271.37"/>
<text text-anchor="middle" x="266.25" y="-1295257.87" font-family="Vera Sans, DejaVu Sans, Liberation Sans, Arial, Helvetica, sans" font-size="10.00">VHDLToken</text>
</a>
</g>
</g>
<!-- VHDLToken&#45;&gt;KeywordToken -->
<g id="edge1" class="edge">
<title>VHDLToken&#45;&gt;KeywordToken</title>
<path fill="none" stroke="black" stroke-width="0.5" d="M308.34,-647635.68C317.69,-647635.68 327.8,-647635.68 337.71,-647635.68"/>
<polygon fill="black" stroke="black" stroke-width="0.5" points="338.52,-647637.43 343.52,-647635.68 338.52,-647633.93 338.52,-647637.43"/>
</g>
<!-- Token -->
<g id="node4" class="node">
<title>Token</title>
<g id="a_node4"><a xlink:href="../pyVHDLParser.Token.html#pyVHDLParser.Token.Token" xlink:title="Base&#45;class for all token classes." target="_top">
<polygon fill="white" stroke="#1e90ff" points="54,-1294756.28 0,-1294756.28 0,-515.09 54,-515.09 54,-1294756.28"/>
<text text-anchor="middle" x="27" y="-1294742.78" font-family="Vera Sans, DejaVu Sans, Liberation Sans, Arial, Helvetica, sans" font-size="10.00">Token</text>
</a>
</g>
</g>
<!-- ValuedToken -->
<g id="node5" class="node">
<title>ValuedToken</title>
<g id="a_node5"><a xlink:href="../pyVHDLParser.Token.html#pyVHDLParser.Token.ValuedToken" xlink:title="Base&#45;class for all *valued* token." target="_top">
<polygon fill="white" stroke="#1e90ff" points="188.5,-647650.43 90,-647650.43 90,-647620.94 188.5,-647620.94 188.5,-647650.43"/>
<text text-anchor="middle" x="139.25" y="-647636.93" font-family="Vera Sans, DejaVu Sans, Liberation Sans, Arial, Helvetica, sans" font-size="10.00">ValuedToken</text>
</a>
</g>
</g>
<!-- Token&#45;&gt;ValuedToken -->
<g id="edge4" class="edge">
<title>Token&#45;&gt;ValuedToken</title>
<path fill="none" stroke="black" stroke-width="0.5" d="M54.41,-647635.68C63.25,-647635.68 73.45,-647635.68 83.64,-647635.68"/>
<polygon fill="black" stroke="black" stroke-width="0.5" points="84.62,-647637.43 89.62,-647635.68 84.62,-647633.93 84.62,-647637.43"/>
</g>
<!-- ValuedToken&#45;&gt;VHDLToken -->
<g id="edge3" class="edge">
<title>ValuedToken&#45;&gt;VHDLToken</title>
<path fill="none" stroke="black" stroke-width="0.5" d="M188.94,-647635.68C198.59,-647635.68 208.7,-647635.68 218.29,-647635.68"/>
<polygon fill="black" stroke="black" stroke-width="0.5" points="219.19,-647637.43 224.19,-647635.68 219.19,-647633.93 219.19,-647637.43"/>
</g>
</g>
</svg>
