<?xml version="1.0" encoding="UTF-8" standalone="no"?>
<!DOCTYPE svg PUBLIC "-//W3C//DTD SVG 1.1//EN"
 "http://www.w3.org/Graphics/SVG/1.1/DTD/svg11.dtd">
<!-- Generated by graphviz version 8.0.5 (20230430.1635)
 -->
<!-- Title: inheritance6a6652057f Pages: 1 -->
<svg width="1pt" height="864pt"
 viewBox="0.00 0.00 0.97 864.00" xmlns="http://www.w3.org/2000/svg" xmlns:xlink="http://www.w3.org/1999/xlink">
<g id="graph0" class="graph" transform="scale(0.00107194 0.00107194) rotate(0) translate(4 806011.03)">
<title>inheritance6a6652057f</title>
<!-- AssignmentKeyword -->
<g id="node1" class="node">
<title>AssignmentKeyword</title>
<g id="a_node1"><a xlink:href="../pyVHDLParser/pyVHDLParser.Token.Keywords.html#pyVHDLParser.Token.Keywords.AssignmentKeyword" xlink:title="Base&#45;class for all assignment keywords: ``:=`` and ``&lt;=``." target="_top">
<polygon fill="white" stroke="#1e90ff" points="659.5,-403012.77 516,-403012.77 516,-402994.27 659.5,-402994.27 659.5,-403012.77"/>
<text text-anchor="middle" x="587.75" y="-402999.27" font-family="Vera Sans, DejaVu Sans, Liberation Sans, Arial, Helvetica, sans" font-size="10.00">AssignmentKeyword</text>
</a>
</g>
</g>
<!-- VariableAssignmentKeyword -->
<g id="node6" class="node">
<title>VariableAssignmentKeyword</title>
<g id="a_node6"><a xlink:href="../pyVHDLParser/pyVHDLParser.Token.Keywords.html#pyVHDLParser.Token.Keywords.VariableAssignmentKeyword" xlink:title="Token representing a variable assignment: ``:=``." target="_top">
<polygon fill="white" stroke="#1e90ff" points="899,-403012.77 695.5,-403012.77 695.5,-402994.27 899,-402994.27 899,-403012.77"/>
<text text-anchor="middle" x="797.25" y="-402999.27" font-family="Vera Sans, DejaVu Sans, Liberation Sans, Arial, Helvetica, sans" font-size="10.00">VariableAssignmentKeyword</text>
</a>
</g>
</g>
<!-- AssignmentKeyword&#45;&gt;VariableAssignmentKeyword -->
<g id="edge5" class="edge">
<title>AssignmentKeyword&#45;&gt;VariableAssignmentKeyword</title>
<path fill="none" stroke="black" stroke-width="0.5" d="M659.87,-403003.52C669.38,-403003.52 679.3,-403003.52 689.26,-403003.52"/>
<polygon fill="black" stroke="black" stroke-width="0.5" points="690.13,-403005.27 695.13,-403003.52 690.13,-403001.77 690.13,-403005.27"/>
</g>
<!-- MultiCharKeyword -->
<g id="node2" class="node">
<title>MultiCharKeyword</title>
<g id="a_node2"><a xlink:href="../pyVHDLParser/pyVHDLParser.Token.Keywords.html#pyVHDLParser.Token.Keywords.MultiCharKeyword" xlink:title="MultiCharKeyword" target="_top">
<polygon fill="white" stroke="#1e90ff" points="480,-403012.77 344,-403012.77 344,-402994.27 480,-402994.27 480,-403012.77"/>
<text text-anchor="middle" x="412" y="-402999.27" font-family="Vera Sans, DejaVu Sans, Liberation Sans, Arial, Helvetica, sans" font-size="10.00">MultiCharKeyword</text>
</a>
</g>
</g>
<!-- MultiCharKeyword&#45;&gt;AssignmentKeyword -->
<g id="edge1" class="edge">
<title>MultiCharKeyword&#45;&gt;AssignmentKeyword</title>
<path fill="none" stroke="black" stroke-width="0.5" d="M480.18,-403003.52C489.92,-403003.52 500,-403003.52 509.91,-403003.52"/>
<polygon fill="black" stroke="black" stroke-width="0.5" points="510.72,-403005.27 515.72,-403003.52 510.72,-403001.77 510.72,-403005.27"/>
</g>
<!-- VHDLToken -->
<g id="node3" class="node">
<title>VHDLToken</title>
<g id="a_node3"><a xlink:href="../pyVHDLParser.Token.html#pyVHDLParser.Token.VHDLToken" xlink:title="Base&#45;class for all VHDL specific tokens." target="_top">
<polygon fill="white" stroke="#1e90ff" points="308,-806007.03 224.5,-806007.03 224.5,0 308,0 308,-806007.03"/>
<text text-anchor="middle" x="266.25" y="-805993.53" font-family="Vera Sans, DejaVu Sans, Liberation Sans, Arial, Helvetica, sans" font-size="10.00">VHDLToken</text>
</a>
</g>
</g>
<!-- VHDLToken&#45;&gt;MultiCharKeyword -->
<g id="edge2" class="edge">
<title>VHDLToken&#45;&gt;MultiCharKeyword</title>
<path fill="none" stroke="black" stroke-width="0.5" d="M308.44,-403003.52C317.67,-403003.52 327.72,-403003.52 337.81,-403003.52"/>
<polygon fill="black" stroke="black" stroke-width="0.5" points="338.75,-403005.27 343.75,-403003.52 338.75,-403001.77 338.75,-403005.27"/>
</g>
<!-- Token -->
<g id="node4" class="node">
<title>Token</title>
<g id="a_node4"><a xlink:href="../pyVHDLParser.Token.html#pyVHDLParser.Token.Token" xlink:title="Base&#45;class for all token classes." target="_top">
<polygon fill="white" stroke="#1e90ff" points="54,-403012.81 0,-403012.81 0,-402994.22 54,-402994.22 54,-403012.81"/>
<text text-anchor="middle" x="27" y="-402999.31" font-family="Vera Sans, DejaVu Sans, Liberation Sans, Arial, Helvetica, sans" font-size="10.00">Token</text>
</a>
</g>
</g>
<!-- ValuedToken -->
<g id="node5" class="node">
<title>ValuedToken</title>
<g id="a_node5"><a xlink:href="../pyVHDLParser.Token.html#pyVHDLParser.Token.ValuedToken" xlink:title="Base&#45;class for all *valued* token." target="_top">
<polygon fill="white" stroke="#1e90ff" points="188.5,-403016.52 90,-403016.52 90,-402990.52 188.5,-402990.52 188.5,-403016.52"/>
<text text-anchor="middle" x="139.25" y="-403003.02" font-family="Vera Sans, DejaVu Sans, Liberation Sans, Arial, Helvetica, sans" font-size="10.00">ValuedToken</text>
</a>
</g>
</g>
<!-- Token&#45;&gt;ValuedToken -->
<g id="edge4" class="edge">
<title>Token&#45;&gt;ValuedToken</title>
<path fill="none" stroke="black" stroke-width="0.5" d="M54.41,-403003.52C63.25,-403003.52 73.45,-403003.52 83.64,-403003.52"/>
<polygon fill="black" stroke="black" stroke-width="0.5" points="84.62,-403005.27 89.62,-403003.52 84.62,-403001.77 84.62,-403005.27"/>
</g>
<!-- ValuedToken&#45;&gt;VHDLToken -->
<g id="edge3" class="edge">
<title>ValuedToken&#45;&gt;VHDLToken</title>
<path fill="none" stroke="black" stroke-width="0.5" d="M188.94,-403003.52C198.59,-403003.52 208.7,-403003.52 218.29,-403003.52"/>
<polygon fill="black" stroke="black" stroke-width="0.5" points="219.19,-403005.27 224.19,-403003.52 219.19,-403001.77 219.19,-403005.27"/>
</g>
</g>
</svg>
