<?xml version="1.0" encoding="UTF-8" standalone="no"?>
<!DOCTYPE svg PUBLIC "-//W3C//DTD SVG 1.1//EN"
 "http://www.w3.org/Graphics/SVG/1.1/DTD/svg11.dtd">
<!-- Generated by graphviz version 8.0.5 (20230430.1635)
 -->
<!-- Title: inheritance0177e8e0e0 Pages: 1 -->
<svg width="6pt" height="864pt"
 viewBox="0.00 0.00 5.71 864.00" xmlns="http://www.w3.org/2000/svg" xmlns:xlink="http://www.w3.org/1999/xlink">
<g id="graph0" class="graph" transform="scale(0.00762402 0.00762402) rotate(0) translate(4 113322.11)">
<title>inheritance0177e8e0e0</title>
<!-- DirectionKeyword -->
<g id="node1" class="node">
<title>DirectionKeyword</title>
<g id="a_node1"><a xlink:href="../pyVHDLParser/pyVHDLParser.Token.Keywords.html#pyVHDLParser.Token.Keywords.DirectionKeyword" xlink:title="DirectionKeyword" target="_top">
<polygon fill="white" stroke="#1e90ff" points="622,-56668.3 486,-56668.3 486,-56649.8 622,-56649.8 622,-56668.3"/>
<text text-anchor="middle" x="554" y="-56654.8" font-family="Vera Sans, DejaVu Sans, Liberation Sans, Arial, Helvetica, sans" font-size="10.00">DirectionKeyword</text>
</a>
</g>
</g>
<!-- ToKeyword -->
<g id="node4" class="node">
<title>ToKeyword</title>
<g id="a_node4"><a xlink:href="../pyVHDLParser/pyVHDLParser.Token.Keywords.html#pyVHDLParser.Token.Keywords.ToKeyword" xlink:title="ToKeyword" target="_top">
<polygon fill="white" stroke="#1e90ff" points="741.5,-56668.34 658,-56668.34 658,-56649.77 741.5,-56649.77 741.5,-56668.34"/>
<text text-anchor="middle" x="699.75" y="-56654.84" font-family="Vera Sans, DejaVu Sans, Liberation Sans, Arial, Helvetica, sans" font-size="10.00">ToKeyword</text>
</a>
</g>
</g>
<!-- DirectionKeyword&#45;&gt;ToKeyword -->
<g id="edge3" class="edge">
<title>DirectionKeyword&#45;&gt;ToKeyword</title>
<path fill="none" stroke="black" stroke-width="0.5" d="M622.25,-56659.05C632.29,-56659.05 642.46,-56659.05 651.95,-56659.05"/>
<polygon fill="black" stroke="black" stroke-width="0.5" points="652.77,-56660.8 657.77,-56659.05 652.77,-56657.3 652.77,-56660.8"/>
</g>
<!-- KeywordToken -->
<g id="node2" class="node">
<title>KeywordToken</title>
<g id="a_node2"><a xlink:href="../pyVHDLParser/pyVHDLParser.Token.Keywords.html#pyVHDLParser.Token.Keywords.KeywordToken" xlink:title="KeywordToken" target="_top">
<polygon fill="white" stroke="#1e90ff" points="450,-56668.3 344,-56668.3 344,-56649.8 450,-56649.8 450,-56668.3"/>
<text text-anchor="middle" x="397" y="-56654.8" font-family="Vera Sans, DejaVu Sans, Liberation Sans, Arial, Helvetica, sans" font-size="10.00">KeywordToken</text>
</a>
</g>
</g>
<!-- KeywordToken&#45;&gt;DirectionKeyword -->
<g id="edge1" class="edge">
<title>KeywordToken&#45;&gt;DirectionKeyword</title>
<path fill="none" stroke="black" stroke-width="0.5" d="M450.48,-56659.05C459.95,-56659.05 469.98,-56659.05 479.91,-56659.05"/>
<polygon fill="black" stroke="black" stroke-width="0.5" points="480.74,-56660.8 485.74,-56659.05 480.74,-56657.3 480.74,-56660.8"/>
</g>
<!-- VHDLToken -->
<g id="node3" class="node">
<title>VHDLToken</title>
<g id="a_node3"><a xlink:href="../pyVHDLParser.Token.html#pyVHDLParser.Token.VHDLToken" xlink:title="Base&#45;class for all VHDL specific tokens." target="_top">
<polygon fill="white" stroke="#1e90ff" points="308,-113318.11 224.5,-113318.11 224.5,0 308,0 308,-113318.11"/>
<text text-anchor="middle" x="266.25" y="-113304.61" font-family="Vera Sans, DejaVu Sans, Liberation Sans, Arial, Helvetica, sans" font-size="10.00">VHDLToken</text>
</a>
</g>
</g>
<!-- VHDLToken&#45;&gt;KeywordToken -->
<g id="edge2" class="edge">
<title>VHDLToken&#45;&gt;KeywordToken</title>
<path fill="none" stroke="black" stroke-width="0.5" d="M308.34,-56659.05C317.69,-56659.05 327.8,-56659.05 337.71,-56659.05"/>
<polygon fill="black" stroke="black" stroke-width="0.5" points="338.52,-56660.8 343.52,-56659.05 338.52,-56657.3 338.52,-56660.8"/>
</g>
<!-- Token -->
<g id="node5" class="node">
<title>Token</title>
<g id="a_node5"><a xlink:href="../pyVHDLParser.Token.html#pyVHDLParser.Token.Token" xlink:title="Base&#45;class for all token classes." target="_top">
<polygon fill="white" stroke="#1e90ff" points="54,-56680.29 0,-56680.29 0,-56637.82 54,-56637.82 54,-56680.29"/>
<text text-anchor="middle" x="27" y="-56666.79" font-family="Vera Sans, DejaVu Sans, Liberation Sans, Arial, Helvetica, sans" font-size="10.00">Token</text>
</a>
</g>
</g>
<!-- ValuedToken -->
<g id="node6" class="node">
<title>ValuedToken</title>
<g id="a_node6"><a xlink:href="../pyVHDLParser.Token.html#pyVHDLParser.Token.ValuedToken" xlink:title="Base&#45;class for all *valued* token." target="_top">
<polygon fill="white" stroke="#1e90ff" points="188.5,-56672.05 90,-56672.05 90,-56646.05 188.5,-56646.05 188.5,-56672.05"/>
<text text-anchor="middle" x="139.25" y="-56658.55" font-family="Vera Sans, DejaVu Sans, Liberation Sans, Arial, Helvetica, sans" font-size="10.00">ValuedToken</text>
</a>
</g>
</g>
<!-- Token&#45;&gt;ValuedToken -->
<g id="edge5" class="edge">
<title>Token&#45;&gt;ValuedToken</title>
<path fill="none" stroke="black" stroke-width="0.5" d="M54.41,-56659.05C63.25,-56659.05 73.45,-56659.05 83.64,-56659.05"/>
<polygon fill="black" stroke="black" stroke-width="0.5" points="84.62,-56660.8 89.62,-56659.05 84.62,-56657.3 84.62,-56660.8"/>
</g>
<!-- ValuedToken&#45;&gt;VHDLToken -->
<g id="edge4" class="edge">
<title>ValuedToken&#45;&gt;VHDLToken</title>
<path fill="none" stroke="black" stroke-width="0.5" d="M188.94,-56659.05C198.59,-56659.05 208.7,-56659.05 218.29,-56659.05"/>
<polygon fill="black" stroke="black" stroke-width="0.5" points="219.19,-56660.8 224.19,-56659.05 219.19,-56657.3 219.19,-56660.8"/>
</g>
</g>
</svg>
