<svg xmlns="http://www.w3.org/2000/svg" width="1731.117" height="304">
  <path fill="none" d="M2 2h100v50H2Zm200 50h100v50H202Z" style="fill:#fff;fill-opacity:0;stroke:#29b6f6;stroke-width:4px"/>
  <path d="M2 102h100v50H2Z" style="fill:#29b6f6;fill-opacity:1;stroke:#29b6f6;stroke-width:4px"/>
  <path fill="none" d="M202 152h100v50H202ZM2 202h100v50H2Zm200 50h100v50H202Z" style="fill:#fff;fill-opacity:0;stroke:#29b6f6;stroke-width:4px"/>
  <path fill="none" d="M102 2h100v50H102Zm0 50h100v50H102Z" style="fill:#fff;fill-opacity:0;stroke:#0277bd;stroke-width:4px"/>
  <path d="M102 102h100v50H102Z" style="fill:#0277bd;fill-opacity:1;stroke:#0277bd;stroke-width:4px"/>
  <path fill="none" d="M102 152h100v50H102Zm0 50h100v50H102Zm0 50h100v50H102Z" style="fill:#fff;fill-opacity:0;stroke:#0277bd;stroke-width:4px"/>
  <path d="M429.947 67.827h12.133q31.547 0 31.547 30.853v107.813q0 30.507-31.547 30.507h-12.133q-16.987 0-21.494-13.52v61.36h-31.2V67.827h31.2v13.52q4.507-13.52 21.494-13.52Zm12.48 133.813v-98.453q0-6.24-2.08-7.974-2.08-2.08-8.32-2.08h-12.134q-6.24 0-9.013 2.774-2.427 2.773-2.427 9.36v94.293q0 6.587 2.427 9.36 2.773 2.773 9.013 2.773h12.134q6.24 0 8.32-1.733 2.08-2.08 2.08-8.32zm84.586 83.2h-20.8v-24.96h14.213q14.907 0 18.027-11.44l3.467-14.213h-16.987l-35.36-166.4h31.893l25.654 141.786 23.92-141.786h31.546L566.88 253.293q-7.627 31.547-39.867 31.547Z" aria-label="py" class="pyVHDLModel_svg__TekoFont" style="fill:#0277bd"/>
  <path d="M702.213 19.987h32.24L695.28 237h-44.373L611.733 19.987h32.24l28.774 188.24zm129.307 0h31.2V237h-31.2v-95.333h-46.107V237h-31.2V19.987h31.2v96.373h46.106zm67.946 0h75.573q32.24 0 32.24 30.506v156q0 30.507-32.24 30.507h-75.573Zm76.267 182.346V54.653q0-6.24-2.08-7.973-2.08-2.08-8.32-2.08h-34.32v167.787h34.32q6.24 0 8.32-1.734 2.08-2.08 2.08-8.32zm97.066 9.36h53.733V237H1041.6V19.987h31.2zM1173.332 237h-27.387V19.987h34.32l37.093 134.506 37.094-134.506h34.32V237h-27.387V78.227l-29.813 111.626h-28.427l-29.813-111.28Zm178.879-169.173h37.094q32.24 0 32.24 30.853v107.813q0 30.507-32.24 30.507h-37.094q-31.893 0-31.893-30.507V98.68q0-30.853 31.893-30.853zm38.48 134.16V102.84q0-6.24-2.08-8.32t-8.32-2.08h-19.066q-6.24 0-8.32 2.08-1.734 2.08-1.734 8.32v99.147q0 6.24 1.734 8.32 2.08 2.08 8.32 2.08h19.066q6.24 0 8.32-2.08t2.08-8.32zM1513.411 5.08h31.2V237h-31.2v-13.52q-4.507 13.52-21.493 13.52h-12.48q-31.2 0-31.2-30.507V98.333q0-30.853 31.2-30.853h12.48q16.986 0 21.493 13.52zm-23.573 206.613h12.133q6.24 0 8.667-2.773 2.773-2.773 2.773-9.36v-94.64q0-6.587-2.773-9.36-2.427-2.773-8.667-2.773h-12.133q-6.24 0-8.32 2.08t-2.08 7.973v98.8q0 6.24 2.08 8.32 2.08 1.733 8.32 1.733zm116.826-143.866h33.973q32.587 0 32.587 30.853v63.44h-68.293v40.213q0 5.894 2.08 7.974t8.32 2.08h15.946q6.24 0 8.32-2.08t2.08-8.32V188.12h30.507v18.373q0 30.507-32.24 30.507h-33.28q-32.24 0-32.24-30.507V98.68q0-30.853 32.24-30.853zm-1.733 71.413h37.44v-36.747q0-5.893-2.08-7.973-1.734-2.08-7.974-2.08h-16.986q-6.24 0-8.32 2.08t-2.08 7.973zM1731.117 237h-31.2V5.08h31.2z" aria-label="VHDLModel" class="pyVHDLModel_svg__TekoFont" style="fill:#29b6f6"/>
</svg>
